M48
;DRILL file {KiCad 4.0.6} date Tuesday, January 16, 2018 'PMt' 08:12:54 PM
;FORMAT={-:-/ absolute / inch / decimal}
FMAT,2
INCH,TZ
T1C0.016
T2C0.031
T3C0.039
T4C0.051
T5C0.079
T6C0.126
%
G90
G05
M72
T1
X2.1457Y-3.9665
X2.1535Y-3.8337
X2.1555Y-3.3661
X2.2165Y-3.7835
X2.2175Y-3.6102
X2.3583Y-5.1142
X2.4606Y-5.5709
X2.6772Y-4.7638
X2.6969Y-5.5709
X2.7756Y-4.7638
X3.0709Y-3.3661
X3.4646Y-3.3661
X3.6555Y-5.126
T2
X2.3014Y-5.1604
X2.6014Y-5.1604
X3.375Y-4.8632
X3.675Y-4.8632
T3
X2.0906Y-3.5039
X2.3465Y-4.5709
X2.4087Y-5.7283
X2.5087Y-5.7283
X2.6087Y-5.7283
X2.7087Y-5.7283
X2.8087Y-5.7283
X2.9087Y-5.7283
X3.0087Y-5.7283
X3.0866Y-4.9764
X3.1087Y-5.7283
X3.2087Y-5.7283
X3.2559Y-4.9764
T4
X2.3583Y-5.3652
X2.3622Y-3.0906
X2.5394Y-5.3652
X2.5591Y-3.0906
X2.5709Y-3.9701
X2.5709Y-4.1685
X2.5709Y-4.3669
X2.5709Y-4.9685
X2.7559Y-3.0906
X2.8661Y-3.9701
X2.8661Y-4.1685
X2.8661Y-4.3669
X2.8661Y-4.9685
X2.9528Y-3.0906
X2.9843Y-5.3652
X3.1112Y-4.6043
X3.1496Y-3.0906
X3.1654Y-5.3652
X3.3465Y-3.0906
X3.3474Y-4.6831
X3.5827Y-5.2362
X3.5827Y-5.4331
X3.5837Y-4.124
X3.5837Y-4.6043
T5
X2.3425Y-3.8976
X3.2352Y-4.2047
T6
X2.126Y-3.1496
X2.126Y-5.7087
X3.5827Y-3.1496
X3.5827Y-5.7087
T0
M30
