G04 #@! TF.FileFunction,Copper,L1,Top,Signal*
%FSLAX46Y46*%
G04 Gerber Fmt 4.6, Leading zero omitted, Abs format (unit mm)*
G04 Created by KiCad (PCBNEW 4.0.6) date Tuesday, January 16, 2018 'PMt' 08:13:24 PM*
%MOMM*%
%LPD*%
G01*
G04 APERTURE LIST*
%ADD10C,0.100000*%
%ADD11C,6.400000*%
%ADD12C,3.000000*%
%ADD13R,1.250000X1.500000*%
%ADD14R,1.500000X1.250000*%
%ADD15R,2.500000X2.500000*%
%ADD16C,2.500000*%
%ADD17R,0.800000X0.900000*%
%ADD18R,0.900000X0.800000*%
%ADD19R,1.300000X1.500000*%
%ADD20R,3.200000X2.700000*%
%ADD21R,0.650000X1.560000*%
%ADD22C,2.350000*%
%ADD23R,1.700000X1.700000*%
%ADD24O,1.700000X1.700000*%
%ADD25R,1.600000X1.600000*%
%ADD26O,1.600000X1.600000*%
%ADD27C,3.500000*%
%ADD28C,0.800000*%
%ADD29C,1.000000*%
%ADD30C,0.400000*%
%ADD31C,3.000000*%
%ADD32C,0.254000*%
G04 APERTURE END LIST*
D10*
D11*
X91000000Y-145000000D03*
X54000000Y-145000000D03*
X91000000Y-80000000D03*
D12*
X65300000Y-126200000D03*
X72800000Y-126200000D03*
X65300000Y-105880000D03*
X72800000Y-100840000D03*
X72800000Y-110920000D03*
X65300000Y-110920000D03*
X72800000Y-105880000D03*
X65300000Y-100840000D03*
D13*
X55600000Y-103650000D03*
X55600000Y-106150000D03*
D14*
X56550000Y-87100000D03*
X59050000Y-87100000D03*
D15*
X91000000Y-138000000D03*
D16*
X91000000Y-133000000D03*
D17*
X90475000Y-128550000D03*
X92375000Y-128550000D03*
X91425000Y-126550000D03*
D18*
X59500000Y-125250000D03*
X59500000Y-127150000D03*
X61500000Y-126200000D03*
D19*
X86325000Y-126125000D03*
X86325000Y-128825000D03*
X57800000Y-125450000D03*
X57800000Y-128150000D03*
X88475000Y-126200000D03*
X88475000Y-128900000D03*
X59600000Y-123350000D03*
X59600000Y-120650000D03*
D20*
X60500000Y-103050000D03*
X60500000Y-110950000D03*
X64000000Y-89050000D03*
X64000000Y-96950000D03*
D12*
X91025000Y-116950000D03*
X91025000Y-104750000D03*
X79025000Y-116950000D03*
X85025000Y-118950000D03*
D21*
X55550000Y-110950000D03*
X56500000Y-110950000D03*
X57450000Y-110950000D03*
X57450000Y-108250000D03*
X55550000Y-108250000D03*
X59150000Y-91750000D03*
X60100000Y-91750000D03*
X61050000Y-91750000D03*
X61050000Y-89050000D03*
X59150000Y-89050000D03*
D22*
X64500000Y-136275000D03*
X59900000Y-136275000D03*
X75800000Y-136275000D03*
X80400000Y-136275000D03*
D11*
X54000000Y-80000000D03*
D23*
X59600000Y-116100000D03*
X78400000Y-126400000D03*
X53100000Y-89000000D03*
X82700000Y-126400000D03*
D19*
X81000000Y-88150000D03*
X81000000Y-90850000D03*
X78500000Y-90850000D03*
X78500000Y-88150000D03*
X85000000Y-88150000D03*
X85000000Y-90850000D03*
X87500000Y-90850000D03*
X87500000Y-88150000D03*
D23*
X81500000Y-145500000D03*
D24*
X78960000Y-145500000D03*
X76420000Y-145500000D03*
X73880000Y-145500000D03*
X71340000Y-145500000D03*
X68800000Y-145500000D03*
X66260000Y-145500000D03*
X63720000Y-145500000D03*
X61180000Y-145500000D03*
D16*
X60000000Y-78500000D03*
X65000000Y-78500000D03*
X70000000Y-78500000D03*
X75000000Y-78500000D03*
D15*
X85000000Y-78500000D03*
D16*
X80000000Y-78500000D03*
D25*
X85725000Y-123525000D03*
D26*
X93345000Y-123525000D03*
D25*
X66075000Y-131075000D03*
D26*
X58455000Y-131075000D03*
D27*
X82175000Y-106800000D03*
D28*
X54700000Y-97375000D03*
X92850000Y-130200000D03*
X59900000Y-129900000D03*
X54500000Y-100750000D03*
X88000000Y-85500000D03*
X78000000Y-85500000D03*
X54750000Y-85500000D03*
X56325000Y-91700000D03*
X56300000Y-96100000D03*
X68500000Y-141500000D03*
X62500000Y-141500000D03*
D27*
X59500000Y-99000000D03*
D28*
X68000000Y-121000000D03*
X70500000Y-121000000D03*
D29*
X72800000Y-126200000D02*
X78200000Y-126200000D01*
X78200000Y-126200000D02*
X78400000Y-126400000D01*
X66075000Y-131075000D02*
X67925000Y-131075000D01*
X67925000Y-131075000D02*
X72800000Y-126200000D01*
X79900000Y-123525000D02*
X79900000Y-117825000D01*
X79900000Y-117825000D02*
X79025000Y-116950000D01*
X78400000Y-126400000D02*
X78400000Y-125025000D01*
X79900000Y-123525000D02*
X85725000Y-123525000D01*
X78400000Y-125025000D02*
X79900000Y-123525000D01*
D30*
X86325000Y-126125000D02*
X88400000Y-126125000D01*
X88400000Y-126125000D02*
X88475000Y-126200000D01*
X88475000Y-126200000D02*
X89175000Y-126200000D01*
X89175000Y-126200000D02*
X90475000Y-127500000D01*
X90475000Y-127500000D02*
X90475000Y-128550000D01*
X57800000Y-125450000D02*
X59300000Y-125450000D01*
X59300000Y-125450000D02*
X59600000Y-125150000D01*
X59600000Y-125150000D02*
X59600000Y-123350000D01*
D31*
X84225000Y-104750000D02*
X91025000Y-104750000D01*
X82175000Y-106800000D02*
X84225000Y-104750000D01*
D30*
X60100000Y-91750000D02*
X60100000Y-93400000D01*
X54700000Y-96124898D02*
X54700000Y-97375000D01*
X56399949Y-94424949D02*
X54700000Y-96124898D01*
X59075051Y-94424949D02*
X56399949Y-94424949D01*
X60100000Y-93400000D02*
X59075051Y-94424949D01*
X92375000Y-128550000D02*
X92375000Y-129725000D01*
X92375000Y-129725000D02*
X92850000Y-130200000D01*
X88475000Y-128900000D02*
X88475000Y-129150000D01*
X88475000Y-129150000D02*
X89150000Y-129825000D01*
X89150000Y-129825000D02*
X91100000Y-129825000D01*
X91100000Y-129825000D02*
X92375000Y-128550000D01*
X59900000Y-129900000D02*
X59500000Y-129500000D01*
X59500000Y-129500000D02*
X59500000Y-127150000D01*
X55600000Y-103650000D02*
X55600000Y-101850000D01*
X55600000Y-101850000D02*
X54500000Y-100750000D01*
X87500000Y-88150000D02*
X87500000Y-86000000D01*
X87500000Y-86000000D02*
X88000000Y-85500000D01*
X78500000Y-88150000D02*
X78500000Y-86000000D01*
X78500000Y-86000000D02*
X78000000Y-85500000D01*
X56550000Y-87100000D02*
X56350000Y-87100000D01*
X56350000Y-87100000D02*
X54750000Y-85500000D01*
X56550000Y-87100000D02*
X56400000Y-87100000D01*
X56500000Y-110950000D02*
X56500000Y-113000000D01*
X56500000Y-113000000D02*
X59600000Y-116100000D01*
X59600000Y-120650000D02*
X59600000Y-116100000D01*
X56300000Y-97125000D02*
X56300000Y-96100000D01*
X54500000Y-105175000D02*
X54775000Y-104900000D01*
X54775000Y-104900000D02*
X57050000Y-104900000D01*
X57050000Y-104900000D02*
X57175000Y-104775000D01*
X57175000Y-104775000D02*
X57175000Y-100825000D01*
X57175000Y-100825000D02*
X56300000Y-99950000D01*
X56300000Y-99950000D02*
X56300000Y-97125000D01*
X54500000Y-109000000D02*
X54500000Y-105175000D01*
X56325000Y-91700000D02*
X58975000Y-89050000D01*
X58975000Y-89050000D02*
X59150000Y-89050000D01*
X62000000Y-141000000D02*
X62500000Y-141500000D01*
X81500000Y-145500000D02*
X81500000Y-143500000D01*
X79500000Y-141500000D02*
X81500000Y-143500000D01*
X58000000Y-141000000D02*
X62000000Y-141000000D01*
X54500000Y-137500000D02*
X58000000Y-141000000D01*
X54500000Y-109000000D02*
X54500000Y-137500000D01*
X54500000Y-109000000D02*
X55250000Y-108250000D01*
X68500000Y-141500000D02*
X79500000Y-141500000D01*
X55600000Y-106150000D02*
X56100000Y-106150000D01*
X59150000Y-89050000D02*
X58950000Y-89050000D01*
X59150000Y-89050000D02*
X59150000Y-89100000D01*
X55550000Y-108250000D02*
X55250000Y-108250000D01*
X53100000Y-89000000D02*
X59100000Y-89000000D01*
X59100000Y-89000000D02*
X59150000Y-89050000D01*
X59150000Y-89050000D02*
X59150000Y-87200000D01*
X59150000Y-87200000D02*
X59050000Y-87100000D01*
X55550000Y-108250000D02*
X55550000Y-106200000D01*
X55550000Y-106200000D02*
X55600000Y-106150000D01*
X55550000Y-108250000D02*
X55350000Y-108250000D01*
D32*
X55600000Y-108200000D02*
X55550000Y-108250000D01*
X55600000Y-106150000D02*
X56150000Y-106150000D01*
X59150000Y-87200000D02*
X59050000Y-87100000D01*
D31*
X80400000Y-136275000D02*
X84625000Y-136275000D01*
X87900000Y-133000000D02*
X91000000Y-133000000D01*
X84625000Y-136275000D02*
X87900000Y-133000000D01*
X75800000Y-136275000D02*
X80400000Y-136275000D01*
X64500000Y-136275000D02*
X68375000Y-136275000D01*
X82700000Y-128250000D02*
X82700000Y-126400000D01*
X81000000Y-129950000D02*
X82700000Y-128250000D01*
X74700000Y-129950000D02*
X81000000Y-129950000D01*
X68375000Y-136275000D02*
X74700000Y-129950000D01*
X59900000Y-136275000D02*
X64500000Y-136275000D01*
D30*
X68800000Y-145500000D02*
X68800000Y-144435998D01*
X82899998Y-132250002D02*
X86325000Y-128825000D01*
X75652692Y-132250002D02*
X82899998Y-132250002D01*
X67400000Y-140502694D02*
X75652692Y-132250002D01*
X67400000Y-143035998D02*
X67400000Y-140502694D01*
X68800000Y-144435998D02*
X67400000Y-143035998D01*
X57800000Y-128150000D02*
X57800000Y-128700000D01*
X57800000Y-128700000D02*
X57000000Y-129500000D01*
X57000000Y-129500000D02*
X57000000Y-137000000D01*
X57000000Y-137000000D02*
X59000000Y-139000000D01*
X59000000Y-139000000D02*
X64000000Y-139000000D01*
X64000000Y-139000000D02*
X66260000Y-141260000D01*
X66260000Y-141260000D02*
X66260000Y-145500000D01*
X63720000Y-145500000D02*
X63720000Y-143280000D01*
X65000000Y-141500000D02*
X63700000Y-140200000D01*
X65000000Y-142000000D02*
X65000000Y-141500000D01*
X63720000Y-143280000D02*
X65000000Y-142000000D01*
X55550000Y-110950000D02*
X55550000Y-137050000D01*
X58700000Y-140200000D02*
X63700000Y-140200000D01*
X55550000Y-137050000D02*
X58700000Y-140200000D01*
X60641002Y-141881002D02*
X60881002Y-141881002D01*
X58150000Y-91750000D02*
X53200000Y-96700000D01*
X53200000Y-96700000D02*
X53200000Y-137700000D01*
X53200000Y-137700000D02*
X57381002Y-141881002D01*
X57381002Y-141881002D02*
X60641002Y-141881002D01*
X59150000Y-91750000D02*
X58150000Y-91750000D01*
X61180000Y-142180000D02*
X61180000Y-145500000D01*
X60881002Y-141881002D02*
X61180000Y-142180000D01*
D31*
X75000000Y-78500000D02*
X75000000Y-98440002D01*
X75000000Y-98440002D02*
X72600002Y-100840000D01*
X72600002Y-100840000D02*
X72800000Y-100840000D01*
X72800000Y-100840000D02*
X72800000Y-100800000D01*
X72800000Y-110920000D02*
X71920000Y-110920000D01*
X71920000Y-110920000D02*
X69000000Y-108000000D01*
X69000000Y-79500000D02*
X70000000Y-78500000D01*
X69000000Y-108000000D02*
X69000000Y-79500000D01*
X60500000Y-103050000D02*
X60500000Y-100000000D01*
X60500000Y-100000000D02*
X59500000Y-99000000D01*
D30*
X57450000Y-108250000D02*
X57550000Y-108250000D01*
X57550000Y-108250000D02*
X60500000Y-105300000D01*
X60500000Y-105300000D02*
X60500000Y-103050000D01*
X61050000Y-89050000D02*
X64000000Y-89050000D01*
D31*
X65000000Y-78500000D02*
X65000000Y-88050000D01*
X65000000Y-88050000D02*
X64000000Y-89050000D01*
D30*
X57450000Y-110950000D02*
X60500000Y-110950000D01*
D31*
X65300000Y-110920000D02*
X60530000Y-110920000D01*
X60530000Y-110920000D02*
X60500000Y-110950000D01*
D30*
X61050000Y-91750000D02*
X61050000Y-94000000D01*
X61050000Y-94000000D02*
X64000000Y-96950000D01*
D31*
X65300000Y-100840000D02*
X65300000Y-98250000D01*
X65300000Y-98250000D02*
X64000000Y-96950000D01*
D30*
X68000000Y-120000000D02*
X68000000Y-121000000D01*
X81000000Y-93000000D02*
X78000000Y-96000000D01*
X78000000Y-96000000D02*
X78000000Y-110000000D01*
X78000000Y-110000000D02*
X68000000Y-120000000D01*
X81000000Y-93000000D02*
X81000000Y-90850000D01*
X78000000Y-91350000D02*
X78500000Y-90850000D01*
X81000000Y-90850000D02*
X78500000Y-90850000D01*
X70500000Y-119000000D02*
X70500000Y-121000000D01*
X79000000Y-110500000D02*
X79000000Y-96850000D01*
X70500000Y-119000000D02*
X79000000Y-110500000D01*
X85000000Y-90850000D02*
X79000000Y-96850000D01*
X85000000Y-90850000D02*
X87500000Y-90850000D01*
X85000000Y-88150000D02*
X85000000Y-78500000D01*
X81000000Y-88150000D02*
X81000000Y-79500000D01*
X81000000Y-79500000D02*
X80000000Y-78500000D01*
X93345000Y-123525000D02*
X93345000Y-119270000D01*
X93345000Y-119270000D02*
X91025000Y-116950000D01*
X91425000Y-126550000D02*
X91425000Y-125445000D01*
X91425000Y-125445000D02*
X93345000Y-123525000D01*
X58455000Y-131075000D02*
X60425000Y-131075000D01*
X60425000Y-131075000D02*
X65300000Y-126200000D01*
D29*
X61500000Y-126200000D02*
X65300000Y-126200000D01*
M02*
