M48
;DRILL file {KiCad 4.0.6} date Monday, July 31, 2017 'PMt' 06:05:14 PM
;FORMAT={-:-/ absolute / inch / decimal}
FMAT,2
INCH,TZ
T1C0.016
T2C0.039
T3C0.051
T4C0.079
T5C0.126
%
G90
G05
M72
T1
X2.1457Y-3.9665
X2.1555Y-3.3661
X2.2047Y-3.622
X2.2047Y-3.8189
X2.3583Y-5.1142
X2.4606Y-5.5709
X2.6772Y-4.7638
X2.6969Y-5.5709
X2.7756Y-4.7638
X3.0709Y-3.3661
X3.4154Y-5.1969
X3.4646Y-3.3661
T2
X2.0906Y-3.5039
X2.3465Y-4.5709
X2.4087Y-5.7283
X2.5087Y-5.7283
X2.6087Y-5.7283
X2.7087Y-5.7283
X2.8087Y-5.7283
X2.9087Y-5.7283
X3.0087Y-5.7283
X3.0866Y-4.9764
X3.1087Y-5.7283
X3.2087Y-5.7283
X3.2559Y-4.9764
T3
X2.3583Y-5.315
X2.3622Y-3.0906
X2.5394Y-5.315
X2.5591Y-3.0906
X2.5709Y-3.9701
X2.5709Y-4.1685
X2.5709Y-4.3669
X2.5709Y-4.9685
X2.7559Y-3.0906
X2.8661Y-3.9701
X2.8661Y-4.1685
X2.8661Y-4.3669
X2.8661Y-4.9685
X2.9528Y-3.0906
X2.9843Y-5.315
X3.1102Y-4.6929
X3.1496Y-3.0906
X3.1654Y-5.315
X3.3465Y-3.0906
X3.3465Y-4.7717
X3.5827Y-4.2126
X3.5827Y-4.6929
X3.5827Y-5.2362
X3.5827Y-5.4331
T4
X2.3425Y-3.8976
X3.2283Y-4.2126
T5
X2.126Y-3.1496
X2.126Y-5.7087
X3.5827Y-3.1496
X3.5827Y-5.7087
T0
M30
