G04 #@! TF.FileFunction,Soldermask,Bot*
%FSLAX46Y46*%
G04 Gerber Fmt 4.6, Leading zero omitted, Abs format (unit mm)*
G04 Created by KiCad (PCBNEW 4.0.6) date Monday, July 31, 2017 'PMt' 06:05:11 PM*
%MOMM*%
%LPD*%
G01*
G04 APERTURE LIST*
%ADD10C,0.100000*%
%ADD11C,6.400000*%
%ADD12C,3.000000*%
%ADD13R,2.500000X2.500000*%
%ADD14C,2.500000*%
%ADD15C,2.350000*%
%ADD16R,1.700000X1.700000*%
%ADD17O,1.700000X1.700000*%
G04 APERTURE END LIST*
D10*
D11*
X91000000Y-145000000D03*
X54000000Y-145000000D03*
X91000000Y-80000000D03*
D12*
X65300000Y-126200000D03*
X72800000Y-126200000D03*
X65300000Y-105880000D03*
X72800000Y-100840000D03*
X72800000Y-110920000D03*
X65300000Y-110920000D03*
X72800000Y-105880000D03*
X65300000Y-100840000D03*
D13*
X91000000Y-138000000D03*
D14*
X91000000Y-133000000D03*
D12*
X91000000Y-119200000D03*
X91000000Y-107000000D03*
X79000000Y-119200000D03*
X85000000Y-121200000D03*
D15*
X64500000Y-135000000D03*
X59900000Y-135000000D03*
X75800000Y-135000000D03*
X80400000Y-135000000D03*
D11*
X54000000Y-80000000D03*
D16*
X59600000Y-116100000D03*
X78400000Y-126400000D03*
X53100000Y-89000000D03*
X82700000Y-126400000D03*
X81500000Y-145500000D03*
D17*
X78960000Y-145500000D03*
X76420000Y-145500000D03*
X73880000Y-145500000D03*
X71340000Y-145500000D03*
X68800000Y-145500000D03*
X66260000Y-145500000D03*
X63720000Y-145500000D03*
X61180000Y-145500000D03*
D14*
X60000000Y-78500000D03*
X65000000Y-78500000D03*
X70000000Y-78500000D03*
X75000000Y-78500000D03*
D13*
X85000000Y-78500000D03*
D14*
X80000000Y-78500000D03*
M02*
