G04 #@! TF.FileFunction,Soldermask,Top*
%FSLAX46Y46*%
G04 Gerber Fmt 4.6, Leading zero omitted, Abs format (unit mm)*
G04 Created by KiCad (PCBNEW 4.0.6) date Tuesday, January 16, 2018 'PMt' 08:13:24 PM*
%MOMM*%
%LPD*%
G01*
G04 APERTURE LIST*
%ADD10C,0.100000*%
%ADD11C,6.400000*%
%ADD12C,3.000000*%
%ADD13R,1.250000X1.500000*%
%ADD14R,1.500000X1.250000*%
%ADD15R,2.500000X2.500000*%
%ADD16C,2.500000*%
%ADD17R,0.800000X0.900000*%
%ADD18R,0.900000X0.800000*%
%ADD19R,1.300000X1.500000*%
%ADD20R,3.200000X2.700000*%
%ADD21R,0.650000X1.560000*%
%ADD22C,2.350000*%
%ADD23R,1.700000X1.700000*%
%ADD24O,1.700000X1.700000*%
%ADD25R,1.600000X1.600000*%
%ADD26O,1.600000X1.600000*%
G04 APERTURE END LIST*
D10*
D11*
X91000000Y-145000000D03*
X54000000Y-145000000D03*
X91000000Y-80000000D03*
D12*
X65300000Y-126200000D03*
X72800000Y-126200000D03*
X65300000Y-105880000D03*
X72800000Y-100840000D03*
X72800000Y-110920000D03*
X65300000Y-110920000D03*
X72800000Y-105880000D03*
X65300000Y-100840000D03*
D13*
X55600000Y-103650000D03*
X55600000Y-106150000D03*
D14*
X56550000Y-87100000D03*
X59050000Y-87100000D03*
D15*
X91000000Y-138000000D03*
D16*
X91000000Y-133000000D03*
D17*
X90475000Y-128550000D03*
X92375000Y-128550000D03*
X91425000Y-126550000D03*
D18*
X59500000Y-125250000D03*
X59500000Y-127150000D03*
X61500000Y-126200000D03*
D19*
X86325000Y-126125000D03*
X86325000Y-128825000D03*
X57800000Y-125450000D03*
X57800000Y-128150000D03*
X88475000Y-126200000D03*
X88475000Y-128900000D03*
X59600000Y-123350000D03*
X59600000Y-120650000D03*
D20*
X60500000Y-103050000D03*
X60500000Y-110950000D03*
X64000000Y-89050000D03*
X64000000Y-96950000D03*
D12*
X91025000Y-116950000D03*
X91025000Y-104750000D03*
X79025000Y-116950000D03*
X85025000Y-118950000D03*
D21*
X55550000Y-110950000D03*
X56500000Y-110950000D03*
X57450000Y-110950000D03*
X57450000Y-108250000D03*
X55550000Y-108250000D03*
X59150000Y-91750000D03*
X60100000Y-91750000D03*
X61050000Y-91750000D03*
X61050000Y-89050000D03*
X59150000Y-89050000D03*
D22*
X64500000Y-136275000D03*
X59900000Y-136275000D03*
X75800000Y-136275000D03*
X80400000Y-136275000D03*
D11*
X54000000Y-80000000D03*
D23*
X59600000Y-116100000D03*
X78400000Y-126400000D03*
X53100000Y-89000000D03*
X82700000Y-126400000D03*
D19*
X81000000Y-88150000D03*
X81000000Y-90850000D03*
X78500000Y-90850000D03*
X78500000Y-88150000D03*
X85000000Y-88150000D03*
X85000000Y-90850000D03*
X87500000Y-90850000D03*
X87500000Y-88150000D03*
D23*
X81500000Y-145500000D03*
D24*
X78960000Y-145500000D03*
X76420000Y-145500000D03*
X73880000Y-145500000D03*
X71340000Y-145500000D03*
X68800000Y-145500000D03*
X66260000Y-145500000D03*
X63720000Y-145500000D03*
X61180000Y-145500000D03*
D16*
X60000000Y-78500000D03*
X65000000Y-78500000D03*
X70000000Y-78500000D03*
X75000000Y-78500000D03*
D15*
X85000000Y-78500000D03*
D16*
X80000000Y-78500000D03*
D25*
X85725000Y-123525000D03*
D26*
X93345000Y-123525000D03*
D25*
X66075000Y-131075000D03*
D26*
X58455000Y-131075000D03*
M02*
