G04 #@! TF.GenerationSoftware,KiCad,Pcbnew,8.0.2+dfsg-1*
G04 #@! TF.CreationDate,2024-06-12T08:48:23-04:00*
G04 #@! TF.ProjectId,relay_board,72656c61-795f-4626-9f61-72642e6b6963,rev?*
G04 #@! TF.SameCoordinates,Original*
G04 #@! TF.FileFunction,Soldermask,Top*
G04 #@! TF.FilePolarity,Negative*
%FSLAX46Y46*%
G04 Gerber Fmt 4.6, Leading zero omitted, Abs format (unit mm)*
G04 Created by KiCad (PCBNEW 8.0.2+dfsg-1) date 2024-06-12 08:48:23*
%MOMM*%
%LPD*%
G01*
G04 APERTURE LIST*
G04 Aperture macros list*
%AMRoundRect*
0 Rectangle with rounded corners*
0 $1 Rounding radius*
0 $2 $3 $4 $5 $6 $7 $8 $9 X,Y pos of 4 corners*
0 Add a 4 corners polygon primitive as box body*
4,1,4,$2,$3,$4,$5,$6,$7,$8,$9,$2,$3,0*
0 Add four circle primitives for the rounded corners*
1,1,$1+$1,$2,$3*
1,1,$1+$1,$4,$5*
1,1,$1+$1,$6,$7*
1,1,$1+$1,$8,$9*
0 Add four rect primitives between the rounded corners*
20,1,$1+$1,$2,$3,$4,$5,0*
20,1,$1+$1,$4,$5,$6,$7,0*
20,1,$1+$1,$6,$7,$8,$9,0*
20,1,$1+$1,$8,$9,$2,$3,0*%
G04 Aperture macros list end*
%ADD10C,6.400000*%
%ADD11RoundRect,0.250000X-0.450000X0.350000X-0.450000X-0.350000X0.450000X-0.350000X0.450000X0.350000X0*%
%ADD12RoundRect,0.250000X0.450000X-0.350000X0.450000X0.350000X-0.450000X0.350000X-0.450000X-0.350000X0*%
%ADD13R,2.108200X2.108200*%
%ADD14C,2.108200*%
%ADD15RoundRect,0.250001X0.624999X-0.462499X0.624999X0.462499X-0.624999X0.462499X-0.624999X-0.462499X0*%
%ADD16R,1.600000X1.600000*%
%ADD17C,1.600000*%
%ADD18RoundRect,0.250000X-0.725000X0.600000X-0.725000X-0.600000X0.725000X-0.600000X0.725000X0.600000X0*%
%ADD19O,1.950000X1.700000*%
%ADD20RoundRect,0.250000X0.725000X-0.600000X0.725000X0.600000X-0.725000X0.600000X-0.725000X-0.600000X0*%
%ADD21RoundRect,0.250001X-0.624999X0.462499X-0.624999X-0.462499X0.624999X-0.462499X0.624999X0.462499X0*%
%ADD22R,1.700000X1.700000*%
%ADD23RoundRect,0.250000X1.500000X0.900000X-1.500000X0.900000X-1.500000X-0.900000X1.500000X-0.900000X0*%
%ADD24C,1.803400*%
%ADD25R,2.600000X2.600000*%
%ADD26C,2.600000*%
%ADD27C,2.641600*%
%ADD28C,1.676400*%
%ADD29R,1.000000X2.000000*%
G04 APERTURE END LIST*
D10*
X171069000Y-138938000D03*
D11*
X140258800Y-109642400D03*
X140258800Y-111642400D03*
D12*
X172212000Y-92948000D03*
X172212000Y-90948000D03*
D13*
X167157400Y-89281000D03*
D14*
X167157400Y-85877400D03*
X153695400Y-89281000D03*
X153695400Y-85877400D03*
D15*
X176174400Y-141492300D03*
X176174400Y-138517300D03*
D10*
X133985000Y-73914000D03*
D15*
X140309600Y-117159100D03*
X140309600Y-114184100D03*
D16*
X172313600Y-80020000D03*
D17*
X172313600Y-82560000D03*
X172313600Y-85100000D03*
X172313600Y-87640000D03*
X179933600Y-87640000D03*
X179933600Y-85100000D03*
X179933600Y-82560000D03*
X179933600Y-80020000D03*
D10*
X134112000Y-138938000D03*
D12*
X174752000Y-92846400D03*
X174752000Y-90846400D03*
X154228800Y-137194800D03*
X154228800Y-135194800D03*
D18*
X136876400Y-95634800D03*
D19*
X136876400Y-98134800D03*
X136876400Y-100634800D03*
X136876400Y-103134800D03*
X136876400Y-105634800D03*
D20*
X174701200Y-106934000D03*
D19*
X174701200Y-104434000D03*
X174701200Y-101934000D03*
X174701200Y-99434000D03*
X174701200Y-96934000D03*
D21*
X178714400Y-132624500D03*
X178714400Y-135599500D03*
D22*
X168706800Y-81076800D03*
D10*
X171069000Y-73914000D03*
D22*
X132842000Y-129336800D03*
D12*
X179324000Y-141512800D03*
X179324000Y-139512800D03*
X179679600Y-92846400D03*
X179679600Y-90846400D03*
D23*
X164955200Y-127812800D03*
X159555200Y-127812800D03*
D11*
X170484800Y-132197600D03*
X170484800Y-134197600D03*
D24*
X142265400Y-74677001D03*
X148615400Y-74677001D03*
D22*
X132588000Y-123647200D03*
D25*
X175395000Y-128150000D03*
D26*
X175395000Y-123150000D03*
X175395000Y-118150000D03*
X175395000Y-113150000D03*
D12*
X177292000Y-92897200D03*
X177292000Y-90897200D03*
D24*
X156235400Y-74677001D03*
X162585400Y-74677001D03*
D27*
X146354800Y-105613200D03*
X164134800Y-103073200D03*
D28*
X160324800Y-118313200D03*
X150164800Y-118313200D03*
D27*
X164134800Y-95453200D03*
D11*
X173786800Y-132197600D03*
X173786800Y-134197600D03*
D29*
X151282400Y-132680500D03*
X148742400Y-132680500D03*
X146202400Y-132680500D03*
X143662400Y-132680500D03*
X141122400Y-132680500D03*
M02*
