M48
; DRILL file {KiCad 8.0.2+dfsg-1} date 2024-06-12T08:49:33-0400
; FORMAT={-:-/ absolute / metric / decimal}
; #@! TF.CreationDate,2024-06-12T08:49:33-04:00
; #@! TF.GenerationSoftware,Kicad,Pcbnew,8.0.2+dfsg-1
; #@! TF.FileFunction,Plated,1,2,PTH
FMAT,2
METRIC
; #@! TA.AperFunction,Plated,PTH,ViaDrill
T1C0.400
; #@! TA.AperFunction,Plated,PTH,ComponentDrill
T2C0.950
; #@! TA.AperFunction,Plated,PTH,ComponentDrill
T3C1.000
; #@! TA.AperFunction,Plated,PTH,ComponentDrill
T4C1.168
; #@! TA.AperFunction,Plated,PTH,ComponentDrill
T5C1.295
; #@! TA.AperFunction,Plated,PTH,ComponentDrill
T6C1.300
; #@! TA.AperFunction,Plated,PTH,ComponentDrill
T7C1.600
; #@! TA.AperFunction,Plated,PTH,ComponentDrill
T8C2.134
; #@! TA.AperFunction,Plated,PTH,ComponentDrill
T9C3.200
%
G90
G05
T1
X135.433Y-110.947
X137.312Y-83.363
X137.973Y-119.583
X138.176Y-134.417
X138.43Y-80.569
X140.818Y-121.717
X141.63Y-123.342
X145.948Y-122.428
X146.304Y-130.404
X147.117Y-126.797
X148.285Y-137.922
X148.488Y-120.65
X149.301Y-136.093
X150.165Y-127.356
X150.647Y-136.017
X151.232Y-123.038
X153.518Y-131.978
X154.889Y-114.808
X155.6Y-125.12
X157.785Y-137.211
X158.445Y-118.821
X161.188Y-138.278
X167.996Y-131.267
X178.664Y-130.353
X179.375Y-137.617
T2
X136.876Y-95.635
X136.876Y-98.135
X136.876Y-100.635
X136.876Y-103.135
X136.876Y-105.635
X174.701Y-96.934
X174.701Y-99.434
X174.701Y-101.934
X174.701Y-104.434
X174.701Y-106.934
T3
X132.588Y-123.647
X132.842Y-129.337
X168.707Y-81.077
X172.314Y-80.02
X172.314Y-82.56
X172.314Y-85.1
X172.314Y-87.64
X179.934Y-80.02
X179.934Y-82.56
X179.934Y-85.1
X179.934Y-87.64
T4
X150.165Y-118.313
X160.325Y-118.313
T5
X142.265Y-74.677
X148.615Y-74.677
X156.235Y-74.677
X162.585Y-74.677
T6
X175.395Y-113.15
X175.395Y-118.15
X175.395Y-123.15
X175.395Y-128.15
T7
X153.695Y-85.877
X153.695Y-89.281
X167.157Y-85.877
X167.157Y-89.281
T8
X146.355Y-105.613
X164.135Y-95.453
X164.135Y-103.073
T9
X133.985Y-73.914
X134.112Y-138.938
X171.069Y-73.914
X171.069Y-138.938
M30
