G04 #@! TF.GenerationSoftware,KiCad,Pcbnew,(5.1.8)-1*
G04 #@! TF.CreationDate,2021-02-09T17:12:27-05:00*
G04 #@! TF.ProjectId,rlcs_power,726c6373-5f70-46f7-9765-722e6b696361,rev?*
G04 #@! TF.SameCoordinates,Original*
G04 #@! TF.FileFunction,Legend,Bot*
G04 #@! TF.FilePolarity,Positive*
%FSLAX46Y46*%
G04 Gerber Fmt 4.6, Leading zero omitted, Abs format (unit mm)*
G04 Created by KiCad (PCBNEW (5.1.8)-1) date 2021-02-09 17:12:27*
%MOMM*%
%LPD*%
G01*
G04 APERTURE LIST*
%ADD10C,0.120000*%
%ADD11C,0.150000*%
G04 APERTURE END LIST*
D10*
X122172252Y-99874000D02*
X121649748Y-99874000D01*
X122172252Y-101294000D02*
X121649748Y-101294000D01*
X135383748Y-86562000D02*
X135906252Y-86562000D01*
X135383748Y-85142000D02*
X135906252Y-85142000D01*
X125678000Y-156734252D02*
X125678000Y-156211748D01*
X124258000Y-156734252D02*
X124258000Y-156211748D01*
X130758000Y-156716252D02*
X130758000Y-156193748D01*
X129338000Y-156716252D02*
X129338000Y-156193748D01*
X121106000Y-156725252D02*
X121106000Y-156202748D01*
X119686000Y-156725252D02*
X119686000Y-156202748D01*
X111073000Y-156725252D02*
X111073000Y-156202748D01*
X109653000Y-156725252D02*
X109653000Y-156202748D01*
X116026000Y-156725252D02*
X116026000Y-156202748D01*
X114606000Y-156725252D02*
X114606000Y-156202748D01*
X131047748Y-104342000D02*
X131570252Y-104342000D01*
X131047748Y-102922000D02*
X131570252Y-102922000D01*
X122308252Y-102922000D02*
X121785748Y-102922000D01*
X122308252Y-104342000D02*
X121785748Y-104342000D01*
X103630252Y-133211500D02*
X103107748Y-133211500D01*
X103630252Y-134631500D02*
X103107748Y-134631500D01*
X118688752Y-86562000D02*
X118166248Y-86562000D01*
X118688752Y-85142000D02*
X118166248Y-85142000D01*
X130929748Y-99366000D02*
X131452252Y-99366000D01*
X130929748Y-100786000D02*
X131452252Y-100786000D01*
X135873748Y-99366000D02*
X136396252Y-99366000D01*
X135873748Y-100786000D02*
X136396252Y-100786000D01*
X123191748Y-86562000D02*
X123714252Y-86562000D01*
X123191748Y-85142000D02*
X123714252Y-85142000D01*
D11*
X122077666Y-99386380D02*
X122411000Y-98910190D01*
X122649095Y-99386380D02*
X122649095Y-98386380D01*
X122268142Y-98386380D01*
X122172904Y-98434000D01*
X122125285Y-98481619D01*
X122077666Y-98576857D01*
X122077666Y-98719714D01*
X122125285Y-98814952D01*
X122172904Y-98862571D01*
X122268142Y-98910190D01*
X122649095Y-98910190D01*
X121220523Y-98386380D02*
X121411000Y-98386380D01*
X121506238Y-98434000D01*
X121553857Y-98481619D01*
X121649095Y-98624476D01*
X121696714Y-98814952D01*
X121696714Y-99195904D01*
X121649095Y-99291142D01*
X121601476Y-99338761D01*
X121506238Y-99386380D01*
X121315761Y-99386380D01*
X121220523Y-99338761D01*
X121172904Y-99291142D01*
X121125285Y-99195904D01*
X121125285Y-98957809D01*
X121172904Y-98862571D01*
X121220523Y-98814952D01*
X121315761Y-98767333D01*
X121506238Y-98767333D01*
X121601476Y-98814952D01*
X121649095Y-98862571D01*
X121696714Y-98957809D01*
X136287857Y-84653380D02*
X136621190Y-84177190D01*
X136859285Y-84653380D02*
X136859285Y-83653380D01*
X136478333Y-83653380D01*
X136383095Y-83701000D01*
X136335476Y-83748619D01*
X136287857Y-83843857D01*
X136287857Y-83986714D01*
X136335476Y-84081952D01*
X136383095Y-84129571D01*
X136478333Y-84177190D01*
X136859285Y-84177190D01*
X135335476Y-84653380D02*
X135906904Y-84653380D01*
X135621190Y-84653380D02*
X135621190Y-83653380D01*
X135716428Y-83796238D01*
X135811666Y-83891476D01*
X135906904Y-83939095D01*
X134430714Y-83653380D02*
X134906904Y-83653380D01*
X134954523Y-84129571D01*
X134906904Y-84081952D01*
X134811666Y-84034333D01*
X134573571Y-84034333D01*
X134478333Y-84081952D01*
X134430714Y-84129571D01*
X134383095Y-84224809D01*
X134383095Y-84462904D01*
X134430714Y-84558142D01*
X134478333Y-84605761D01*
X134573571Y-84653380D01*
X134811666Y-84653380D01*
X134906904Y-84605761D01*
X134954523Y-84558142D01*
X123261380Y-155830142D02*
X122785190Y-155496809D01*
X123261380Y-155258714D02*
X122261380Y-155258714D01*
X122261380Y-155639666D01*
X122309000Y-155734904D01*
X122356619Y-155782523D01*
X122451857Y-155830142D01*
X122594714Y-155830142D01*
X122689952Y-155782523D01*
X122737571Y-155734904D01*
X122785190Y-155639666D01*
X122785190Y-155258714D01*
X123261380Y-156782523D02*
X123261380Y-156211095D01*
X123261380Y-156496809D02*
X122261380Y-156496809D01*
X122404238Y-156401571D01*
X122499476Y-156306333D01*
X122547095Y-156211095D01*
X122594714Y-157639666D02*
X123261380Y-157639666D01*
X122213761Y-157401571D02*
X122928047Y-157163476D01*
X122928047Y-157782523D01*
X132150380Y-155812142D02*
X131674190Y-155478809D01*
X132150380Y-155240714D02*
X131150380Y-155240714D01*
X131150380Y-155621666D01*
X131198000Y-155716904D01*
X131245619Y-155764523D01*
X131340857Y-155812142D01*
X131483714Y-155812142D01*
X131578952Y-155764523D01*
X131626571Y-155716904D01*
X131674190Y-155621666D01*
X131674190Y-155240714D01*
X132150380Y-156764523D02*
X132150380Y-156193095D01*
X132150380Y-156478809D02*
X131150380Y-156478809D01*
X131293238Y-156383571D01*
X131388476Y-156288333D01*
X131436095Y-156193095D01*
X131150380Y-157097857D02*
X131150380Y-157716904D01*
X131531333Y-157383571D01*
X131531333Y-157526428D01*
X131578952Y-157621666D01*
X131626571Y-157669285D01*
X131721809Y-157716904D01*
X131959904Y-157716904D01*
X132055142Y-157669285D01*
X132102761Y-157621666D01*
X132150380Y-157526428D01*
X132150380Y-157240714D01*
X132102761Y-157145476D01*
X132055142Y-157097857D01*
X122498380Y-155821142D02*
X122022190Y-155487809D01*
X122498380Y-155249714D02*
X121498380Y-155249714D01*
X121498380Y-155630666D01*
X121546000Y-155725904D01*
X121593619Y-155773523D01*
X121688857Y-155821142D01*
X121831714Y-155821142D01*
X121926952Y-155773523D01*
X121974571Y-155725904D01*
X122022190Y-155630666D01*
X122022190Y-155249714D01*
X122498380Y-156773523D02*
X122498380Y-156202095D01*
X122498380Y-156487809D02*
X121498380Y-156487809D01*
X121641238Y-156392571D01*
X121736476Y-156297333D01*
X121784095Y-156202095D01*
X121593619Y-157154476D02*
X121546000Y-157202095D01*
X121498380Y-157297333D01*
X121498380Y-157535428D01*
X121546000Y-157630666D01*
X121593619Y-157678285D01*
X121688857Y-157725904D01*
X121784095Y-157725904D01*
X121926952Y-157678285D01*
X122498380Y-157106857D01*
X122498380Y-157725904D01*
X112465380Y-156297333D02*
X111989190Y-155964000D01*
X112465380Y-155725904D02*
X111465380Y-155725904D01*
X111465380Y-156106857D01*
X111513000Y-156202095D01*
X111560619Y-156249714D01*
X111655857Y-156297333D01*
X111798714Y-156297333D01*
X111893952Y-156249714D01*
X111941571Y-156202095D01*
X111989190Y-156106857D01*
X111989190Y-155725904D01*
X111893952Y-156868761D02*
X111846333Y-156773523D01*
X111798714Y-156725904D01*
X111703476Y-156678285D01*
X111655857Y-156678285D01*
X111560619Y-156725904D01*
X111513000Y-156773523D01*
X111465380Y-156868761D01*
X111465380Y-157059238D01*
X111513000Y-157154476D01*
X111560619Y-157202095D01*
X111655857Y-157249714D01*
X111703476Y-157249714D01*
X111798714Y-157202095D01*
X111846333Y-157154476D01*
X111893952Y-157059238D01*
X111893952Y-156868761D01*
X111941571Y-156773523D01*
X111989190Y-156725904D01*
X112084428Y-156678285D01*
X112274904Y-156678285D01*
X112370142Y-156725904D01*
X112417761Y-156773523D01*
X112465380Y-156868761D01*
X112465380Y-157059238D01*
X112417761Y-157154476D01*
X112370142Y-157202095D01*
X112274904Y-157249714D01*
X112084428Y-157249714D01*
X111989190Y-157202095D01*
X111941571Y-157154476D01*
X111893952Y-157059238D01*
X116513619Y-156630666D02*
X116989809Y-156964000D01*
X116513619Y-157202095D02*
X117513619Y-157202095D01*
X117513619Y-156821142D01*
X117466000Y-156725904D01*
X117418380Y-156678285D01*
X117323142Y-156630666D01*
X117180285Y-156630666D01*
X117085047Y-156678285D01*
X117037428Y-156725904D01*
X116989809Y-156821142D01*
X116989809Y-157202095D01*
X117513619Y-156297333D02*
X117513619Y-155630666D01*
X116513619Y-156059238D01*
X131484666Y-105862380D02*
X131818000Y-105386190D01*
X132056095Y-105862380D02*
X132056095Y-104862380D01*
X131675142Y-104862380D01*
X131579904Y-104910000D01*
X131532285Y-104957619D01*
X131484666Y-105052857D01*
X131484666Y-105195714D01*
X131532285Y-105290952D01*
X131579904Y-105338571D01*
X131675142Y-105386190D01*
X132056095Y-105386190D01*
X130627523Y-105195714D02*
X130627523Y-105862380D01*
X130865619Y-104814761D02*
X131103714Y-105529047D01*
X130484666Y-105529047D01*
X122086666Y-105989380D02*
X122420000Y-105513190D01*
X122658095Y-105989380D02*
X122658095Y-104989380D01*
X122277142Y-104989380D01*
X122181904Y-105037000D01*
X122134285Y-105084619D01*
X122086666Y-105179857D01*
X122086666Y-105322714D01*
X122134285Y-105417952D01*
X122181904Y-105465571D01*
X122277142Y-105513190D01*
X122658095Y-105513190D01*
X121753333Y-104989380D02*
X121134285Y-104989380D01*
X121467619Y-105370333D01*
X121324761Y-105370333D01*
X121229523Y-105417952D01*
X121181904Y-105465571D01*
X121134285Y-105560809D01*
X121134285Y-105798904D01*
X121181904Y-105894142D01*
X121229523Y-105941761D01*
X121324761Y-105989380D01*
X121610476Y-105989380D01*
X121705714Y-105941761D01*
X121753333Y-105894142D01*
X103535666Y-132628642D02*
X103583285Y-132676261D01*
X103726142Y-132723880D01*
X103821380Y-132723880D01*
X103964238Y-132676261D01*
X104059476Y-132581023D01*
X104107095Y-132485785D01*
X104154714Y-132295309D01*
X104154714Y-132152452D01*
X104107095Y-131961976D01*
X104059476Y-131866738D01*
X103964238Y-131771500D01*
X103821380Y-131723880D01*
X103726142Y-131723880D01*
X103583285Y-131771500D01*
X103535666Y-131819119D01*
X102678523Y-132057214D02*
X102678523Y-132723880D01*
X102916619Y-131676261D02*
X103154714Y-132390547D01*
X102535666Y-132390547D01*
X119070357Y-84653380D02*
X119403690Y-84177190D01*
X119641785Y-84653380D02*
X119641785Y-83653380D01*
X119260833Y-83653380D01*
X119165595Y-83701000D01*
X119117976Y-83748619D01*
X119070357Y-83843857D01*
X119070357Y-83986714D01*
X119117976Y-84081952D01*
X119165595Y-84129571D01*
X119260833Y-84177190D01*
X119641785Y-84177190D01*
X118117976Y-84653380D02*
X118689404Y-84653380D01*
X118403690Y-84653380D02*
X118403690Y-83653380D01*
X118498928Y-83796238D01*
X118594166Y-83891476D01*
X118689404Y-83939095D01*
X117260833Y-83653380D02*
X117451309Y-83653380D01*
X117546547Y-83701000D01*
X117594166Y-83748619D01*
X117689404Y-83891476D01*
X117737023Y-84081952D01*
X117737023Y-84462904D01*
X117689404Y-84558142D01*
X117641785Y-84605761D01*
X117546547Y-84653380D01*
X117356071Y-84653380D01*
X117260833Y-84605761D01*
X117213214Y-84558142D01*
X117165595Y-84462904D01*
X117165595Y-84224809D01*
X117213214Y-84129571D01*
X117260833Y-84081952D01*
X117356071Y-84034333D01*
X117546547Y-84034333D01*
X117641785Y-84081952D01*
X117689404Y-84129571D01*
X117737023Y-84224809D01*
X131357666Y-102052380D02*
X131691000Y-101576190D01*
X131929095Y-102052380D02*
X131929095Y-101052380D01*
X131548142Y-101052380D01*
X131452904Y-101100000D01*
X131405285Y-101147619D01*
X131357666Y-101242857D01*
X131357666Y-101385714D01*
X131405285Y-101480952D01*
X131452904Y-101528571D01*
X131548142Y-101576190D01*
X131929095Y-101576190D01*
X130452904Y-101052380D02*
X130929095Y-101052380D01*
X130976714Y-101528571D01*
X130929095Y-101480952D01*
X130833857Y-101433333D01*
X130595761Y-101433333D01*
X130500523Y-101480952D01*
X130452904Y-101528571D01*
X130405285Y-101623809D01*
X130405285Y-101861904D01*
X130452904Y-101957142D01*
X130500523Y-102004761D01*
X130595761Y-102052380D01*
X130833857Y-102052380D01*
X130929095Y-102004761D01*
X130976714Y-101957142D01*
X136777857Y-101798380D02*
X137111190Y-101322190D01*
X137349285Y-101798380D02*
X137349285Y-100798380D01*
X136968333Y-100798380D01*
X136873095Y-100846000D01*
X136825476Y-100893619D01*
X136777857Y-100988857D01*
X136777857Y-101131714D01*
X136825476Y-101226952D01*
X136873095Y-101274571D01*
X136968333Y-101322190D01*
X137349285Y-101322190D01*
X135825476Y-101798380D02*
X136396904Y-101798380D01*
X136111190Y-101798380D02*
X136111190Y-100798380D01*
X136206428Y-100941238D01*
X136301666Y-101036476D01*
X136396904Y-101084095D01*
X135492142Y-100798380D02*
X134825476Y-100798380D01*
X135254047Y-101798380D01*
X124095857Y-87954380D02*
X124429190Y-87478190D01*
X124667285Y-87954380D02*
X124667285Y-86954380D01*
X124286333Y-86954380D01*
X124191095Y-87002000D01*
X124143476Y-87049619D01*
X124095857Y-87144857D01*
X124095857Y-87287714D01*
X124143476Y-87382952D01*
X124191095Y-87430571D01*
X124286333Y-87478190D01*
X124667285Y-87478190D01*
X123143476Y-87954380D02*
X123714904Y-87954380D01*
X123429190Y-87954380D02*
X123429190Y-86954380D01*
X123524428Y-87097238D01*
X123619666Y-87192476D01*
X123714904Y-87240095D01*
X122572047Y-87382952D02*
X122667285Y-87335333D01*
X122714904Y-87287714D01*
X122762523Y-87192476D01*
X122762523Y-87144857D01*
X122714904Y-87049619D01*
X122667285Y-87002000D01*
X122572047Y-86954380D01*
X122381571Y-86954380D01*
X122286333Y-87002000D01*
X122238714Y-87049619D01*
X122191095Y-87144857D01*
X122191095Y-87192476D01*
X122238714Y-87287714D01*
X122286333Y-87335333D01*
X122381571Y-87382952D01*
X122572047Y-87382952D01*
X122667285Y-87430571D01*
X122714904Y-87478190D01*
X122762523Y-87573428D01*
X122762523Y-87763904D01*
X122714904Y-87859142D01*
X122667285Y-87906761D01*
X122572047Y-87954380D01*
X122381571Y-87954380D01*
X122286333Y-87906761D01*
X122238714Y-87859142D01*
X122191095Y-87763904D01*
X122191095Y-87573428D01*
X122238714Y-87478190D01*
X122286333Y-87430571D01*
X122381571Y-87382952D01*
M02*
