G04 #@! TF.GenerationSoftware,KiCad,Pcbnew,(5.1.8)-1*
G04 #@! TF.CreationDate,2021-02-16T09:17:00-05:00*
G04 #@! TF.ProjectId,rlcs_power,726c6373-5f70-46f7-9765-722e6b696361,rev?*
G04 #@! TF.SameCoordinates,Original*
G04 #@! TF.FileFunction,Soldermask,Bot*
G04 #@! TF.FilePolarity,Negative*
%FSLAX46Y46*%
G04 Gerber Fmt 4.6, Leading zero omitted, Abs format (unit mm)*
G04 Created by KiCad (PCBNEW (5.1.8)-1) date 2021-02-16 09:17:00*
%MOMM*%
%LPD*%
G01*
G04 APERTURE LIST*
%ADD10O,2.100000X2.100000*%
%ADD11O,2.140000X2.600000*%
%ADD12C,2.750000*%
%ADD13O,2.350000X2.100000*%
%ADD14C,2.400000*%
%ADD15C,1.900000*%
%ADD16O,1.900000X2.900000*%
%ADD17C,3.000000*%
G04 APERTURE END LIST*
G36*
G01*
X145000000Y-113880000D02*
X145000000Y-112180000D01*
G75*
G02*
X145200000Y-111980000I200000J0D01*
G01*
X146900000Y-111980000D01*
G75*
G02*
X147100000Y-112180000I0J-200000D01*
G01*
X147100000Y-113880000D01*
G75*
G02*
X146900000Y-114080000I-200000J0D01*
G01*
X145200000Y-114080000D01*
G75*
G02*
X145000000Y-113880000I0J200000D01*
G01*
G37*
D10*
X146050000Y-115570000D03*
X146050000Y-118110000D03*
X146050000Y-120650000D03*
X146050000Y-123190000D03*
X146050000Y-125730000D03*
X146050000Y-128270000D03*
X146050000Y-130810000D03*
X146050000Y-107950000D03*
X146050000Y-105410000D03*
X146050000Y-102870000D03*
X146050000Y-100330000D03*
X146050000Y-97790000D03*
X146050000Y-95250000D03*
X146050000Y-92710000D03*
X146050000Y-90170000D03*
X146050000Y-87630000D03*
G36*
G01*
X145000000Y-85940000D02*
X145000000Y-84240000D01*
G75*
G02*
X145200000Y-84040000I200000J0D01*
G01*
X146900000Y-84040000D01*
G75*
G02*
X147100000Y-84240000I0J-200000D01*
G01*
X147100000Y-85940000D01*
G75*
G02*
X146900000Y-86140000I-200000J0D01*
G01*
X145200000Y-86140000D01*
G75*
G02*
X145000000Y-85940000I0J200000D01*
G01*
G37*
G36*
G01*
X145200000Y-162780000D02*
X146900000Y-162780000D01*
G75*
G02*
X147100000Y-162980000I0J-200000D01*
G01*
X147100000Y-164680000D01*
G75*
G02*
X146900000Y-164880000I-200000J0D01*
G01*
X145200000Y-164880000D01*
G75*
G02*
X145000000Y-164680000I0J200000D01*
G01*
X145000000Y-162980000D01*
G75*
G02*
X145200000Y-162780000I200000J0D01*
G01*
G37*
X146050000Y-161290000D03*
X143510000Y-163830000D03*
X143510000Y-161290000D03*
X140970000Y-163830000D03*
X140970000Y-161290000D03*
X138430000Y-163830000D03*
X138430000Y-161290000D03*
X135890000Y-163830000D03*
X135890000Y-161290000D03*
X133350000Y-163830000D03*
X133350000Y-161290000D03*
X130810000Y-163830000D03*
X130810000Y-161290000D03*
X128270000Y-163830000D03*
X128270000Y-161290000D03*
X125730000Y-163830000D03*
X125730000Y-161290000D03*
X123190000Y-163830000D03*
X123190000Y-161290000D03*
X120650000Y-163830000D03*
X120650000Y-161290000D03*
X118110000Y-163830000D03*
X118110000Y-161290000D03*
X115570000Y-163830000D03*
X115570000Y-161290000D03*
X113030000Y-163830000D03*
X113030000Y-161290000D03*
X110490000Y-163830000D03*
X110490000Y-161290000D03*
X107950000Y-163830000D03*
X107950000Y-161290000D03*
X105410000Y-163830000D03*
X105410000Y-161290000D03*
X102870000Y-163830000D03*
X102870000Y-161290000D03*
G36*
G01*
X94200000Y-141820000D02*
X94200000Y-140120000D01*
G75*
G02*
X94400000Y-139920000I200000J0D01*
G01*
X96100000Y-139920000D01*
G75*
G02*
X96300000Y-140120000I0J-200000D01*
G01*
X96300000Y-141820000D01*
G75*
G02*
X96100000Y-142020000I-200000J0D01*
G01*
X94400000Y-142020000D01*
G75*
G02*
X94200000Y-141820000I0J200000D01*
G01*
G37*
X95250000Y-143510000D03*
X95250000Y-146050000D03*
X95250000Y-148590000D03*
X95250000Y-151130000D03*
X95250000Y-153670000D03*
X95250000Y-156210000D03*
X95250000Y-158750000D03*
G36*
G01*
X94200000Y-118960000D02*
X94200000Y-117260000D01*
G75*
G02*
X94400000Y-117060000I200000J0D01*
G01*
X96100000Y-117060000D01*
G75*
G02*
X96300000Y-117260000I0J-200000D01*
G01*
X96300000Y-118960000D01*
G75*
G02*
X96100000Y-119160000I-200000J0D01*
G01*
X94400000Y-119160000D01*
G75*
G02*
X94200000Y-118960000I0J200000D01*
G01*
G37*
X95250000Y-120650000D03*
X95250000Y-123190000D03*
X95250000Y-125730000D03*
X95250000Y-128270000D03*
X95250000Y-130810000D03*
X95250000Y-133350000D03*
X95250000Y-135890000D03*
D11*
X136652000Y-131064000D03*
G36*
G01*
X133042000Y-132056530D02*
X133042000Y-130071470D01*
G75*
G02*
X133349470Y-129764000I307470J0D01*
G01*
X134874530Y-129764000D01*
G75*
G02*
X135182000Y-130071470I0J-307470D01*
G01*
X135182000Y-132056530D01*
G75*
G02*
X134874530Y-132364000I-307470J0D01*
G01*
X133349470Y-132364000D01*
G75*
G02*
X133042000Y-132056530I0J307470D01*
G01*
G37*
X102108000Y-128270000D03*
G36*
G01*
X105718000Y-127277470D02*
X105718000Y-129262530D01*
G75*
G02*
X105410530Y-129570000I-307470J0D01*
G01*
X103885470Y-129570000D01*
G75*
G02*
X103578000Y-129262530I0J307470D01*
G01*
X103578000Y-127277470D01*
G75*
G02*
X103885470Y-126970000I307470J0D01*
G01*
X105410530Y-126970000D01*
G75*
G02*
X105718000Y-127277470I0J-307470D01*
G01*
G37*
X101981000Y-119062500D03*
G36*
G01*
X105591000Y-118069970D02*
X105591000Y-120055030D01*
G75*
G02*
X105283530Y-120362500I-307470J0D01*
G01*
X103758470Y-120362500D01*
G75*
G02*
X103451000Y-120055030I0J307470D01*
G01*
X103451000Y-118069970D01*
G75*
G02*
X103758470Y-117762500I307470J0D01*
G01*
X105283530Y-117762500D01*
G75*
G02*
X105591000Y-118069970I0J-307470D01*
G01*
G37*
G36*
G01*
X145000000Y-136740000D02*
X145000000Y-135040000D01*
G75*
G02*
X145200000Y-134840000I200000J0D01*
G01*
X146900000Y-134840000D01*
G75*
G02*
X147100000Y-135040000I0J-200000D01*
G01*
X147100000Y-136740000D01*
G75*
G02*
X146900000Y-136940000I-200000J0D01*
G01*
X145200000Y-136940000D01*
G75*
G02*
X145000000Y-136740000I0J200000D01*
G01*
G37*
D10*
X146050000Y-138430000D03*
X146050000Y-140970000D03*
X146050000Y-143510000D03*
X146050000Y-146050000D03*
X146050000Y-148590000D03*
X146050000Y-151130000D03*
X146050000Y-153670000D03*
G36*
G01*
X94200000Y-96100000D02*
X94200000Y-94400000D01*
G75*
G02*
X94400000Y-94200000I200000J0D01*
G01*
X96100000Y-94200000D01*
G75*
G02*
X96300000Y-94400000I0J-200000D01*
G01*
X96300000Y-96100000D01*
G75*
G02*
X96100000Y-96300000I-200000J0D01*
G01*
X94400000Y-96300000D01*
G75*
G02*
X94200000Y-96100000I0J200000D01*
G01*
G37*
X95250000Y-97790000D03*
X95250000Y-100330000D03*
X95250000Y-102870000D03*
X95250000Y-105410000D03*
X95250000Y-107950000D03*
X95250000Y-110490000D03*
X95250000Y-113030000D03*
D12*
X105664000Y-91263500D03*
X105664000Y-96263500D03*
X105664000Y-81263500D03*
X105664000Y-76263500D03*
D13*
X134112000Y-142908000D03*
X134112000Y-145408000D03*
X134112000Y-147908000D03*
X134112000Y-150408000D03*
G36*
G01*
X134978177Y-153958000D02*
X133245823Y-153958000D01*
G75*
G02*
X132937000Y-153649177I0J308823D01*
G01*
X132937000Y-152166823D01*
G75*
G02*
X133245823Y-151858000I308823J0D01*
G01*
X134978177Y-151858000D01*
G75*
G02*
X135287000Y-152166823I0J-308823D01*
G01*
X135287000Y-153649177D01*
G75*
G02*
X134978177Y-153958000I-308823J0D01*
G01*
G37*
D14*
X139100000Y-67140000D03*
X114900000Y-67140000D03*
D10*
X116205000Y-100901500D03*
X113665000Y-100901500D03*
G36*
G01*
X111975000Y-101951500D02*
X110275000Y-101951500D01*
G75*
G02*
X110075000Y-101751500I0J200000D01*
G01*
X110075000Y-100051500D01*
G75*
G02*
X110275000Y-99851500I200000J0D01*
G01*
X111975000Y-99851500D01*
G75*
G02*
X112175000Y-100051500I0J-200000D01*
G01*
X112175000Y-101751500D01*
G75*
G02*
X111975000Y-101951500I-200000J0D01*
G01*
G37*
D13*
X139192000Y-142908000D03*
X139192000Y-145408000D03*
X139192000Y-147908000D03*
X139192000Y-150408000D03*
G36*
G01*
X140058177Y-153958000D02*
X138325823Y-153958000D01*
G75*
G02*
X138017000Y-153649177I0J308823D01*
G01*
X138017000Y-152166823D01*
G75*
G02*
X138325823Y-151858000I308823J0D01*
G01*
X140058177Y-151858000D01*
G75*
G02*
X140367000Y-152166823I0J-308823D01*
G01*
X140367000Y-153649177D01*
G75*
G02*
X140058177Y-153958000I-308823J0D01*
G01*
G37*
G36*
G01*
X123710000Y-138115000D02*
X125210000Y-138115000D01*
G75*
G02*
X125410000Y-138315000I0J-200000D01*
G01*
X125410000Y-139815000D01*
G75*
G02*
X125210000Y-140015000I-200000J0D01*
G01*
X123710000Y-140015000D01*
G75*
G02*
X123510000Y-139815000I0J200000D01*
G01*
X123510000Y-138315000D01*
G75*
G02*
X123710000Y-138115000I200000J0D01*
G01*
G37*
D15*
X121920000Y-139065000D03*
X119380000Y-139065000D03*
X116840000Y-139065000D03*
X114300000Y-139065000D03*
X114300000Y-149225000D03*
X116840000Y-149225000D03*
X119380000Y-149225000D03*
X121920000Y-149225000D03*
X124460000Y-149225000D03*
G36*
G01*
X121553000Y-109895000D02*
X121553000Y-108545000D01*
G75*
G02*
X121753000Y-108345000I200000J0D01*
G01*
X123103000Y-108345000D01*
G75*
G02*
X123303000Y-108545000I0J-200000D01*
G01*
X123303000Y-109895000D01*
G75*
G02*
X123103000Y-110095000I-200000J0D01*
G01*
X121753000Y-110095000D01*
G75*
G02*
X121553000Y-109895000I0J200000D01*
G01*
G37*
G36*
G01*
X135777000Y-109895000D02*
X135777000Y-108545000D01*
G75*
G02*
X135977000Y-108345000I200000J0D01*
G01*
X137327000Y-108345000D01*
G75*
G02*
X137527000Y-108545000I0J-200000D01*
G01*
X137527000Y-109895000D01*
G75*
G02*
X137327000Y-110095000I-200000J0D01*
G01*
X135977000Y-110095000D01*
G75*
G02*
X135777000Y-109895000I0J200000D01*
G01*
G37*
G36*
G01*
X114441000Y-109895000D02*
X114441000Y-108545000D01*
G75*
G02*
X114641000Y-108345000I200000J0D01*
G01*
X115991000Y-108345000D01*
G75*
G02*
X116191000Y-108545000I0J-200000D01*
G01*
X116191000Y-109895000D01*
G75*
G02*
X115991000Y-110095000I-200000J0D01*
G01*
X114641000Y-110095000D01*
G75*
G02*
X114441000Y-109895000I0J200000D01*
G01*
G37*
D16*
X121094500Y-113792000D03*
X118554500Y-113792000D03*
G36*
G01*
X115064500Y-115042000D02*
X115064500Y-112542000D01*
G75*
G02*
X115264500Y-112342000I200000J0D01*
G01*
X116764500Y-112342000D01*
G75*
G02*
X116964500Y-112542000I0J-200000D01*
G01*
X116964500Y-115042000D01*
G75*
G02*
X116764500Y-115242000I-200000J0D01*
G01*
X115264500Y-115242000D01*
G75*
G02*
X115064500Y-115042000I0J200000D01*
G01*
G37*
X136144000Y-113792000D03*
X133604000Y-113792000D03*
G36*
G01*
X130114000Y-115042000D02*
X130114000Y-112542000D01*
G75*
G02*
X130314000Y-112342000I200000J0D01*
G01*
X131814000Y-112342000D01*
G75*
G02*
X132014000Y-112542000I0J-200000D01*
G01*
X132014000Y-115042000D01*
G75*
G02*
X131814000Y-115242000I-200000J0D01*
G01*
X130314000Y-115242000D01*
G75*
G02*
X130114000Y-115042000I0J200000D01*
G01*
G37*
D17*
X96600000Y-66040000D03*
G36*
G01*
X103100000Y-64740000D02*
X103100000Y-67340000D01*
G75*
G02*
X102900000Y-67540000I-200000J0D01*
G01*
X100300000Y-67540000D01*
G75*
G02*
X100100000Y-67340000I0J200000D01*
G01*
X100100000Y-64740000D01*
G75*
G02*
X100300000Y-64540000I200000J0D01*
G01*
X102900000Y-64540000D01*
G75*
G02*
X103100000Y-64740000I0J-200000D01*
G01*
G37*
G36*
G01*
X103119000Y-133358455D02*
X103119000Y-134484545D01*
G75*
G02*
X102782045Y-134821500I-336955J0D01*
G01*
X101905955Y-134821500D01*
G75*
G02*
X101569000Y-134484545I0J336955D01*
G01*
X101569000Y-133358455D01*
G75*
G02*
X101905955Y-133021500I336955J0D01*
G01*
X102782045Y-133021500D01*
G75*
G02*
X103119000Y-133358455I0J-336955D01*
G01*
G37*
G36*
G01*
X105169000Y-133358455D02*
X105169000Y-134484545D01*
G75*
G02*
X104832045Y-134821500I-336955J0D01*
G01*
X103955955Y-134821500D01*
G75*
G02*
X103619000Y-134484545I0J336955D01*
G01*
X103619000Y-133358455D01*
G75*
G02*
X103955955Y-133021500I336955J0D01*
G01*
X104832045Y-133021500D01*
G75*
G02*
X105169000Y-133358455I0J-336955D01*
G01*
G37*
G36*
G01*
X132729000Y-109895000D02*
X132729000Y-108545000D01*
G75*
G02*
X132929000Y-108345000I200000J0D01*
G01*
X134279000Y-108345000D01*
G75*
G02*
X134479000Y-108545000I0J-200000D01*
G01*
X134479000Y-109895000D01*
G75*
G02*
X134279000Y-110095000I-200000J0D01*
G01*
X132929000Y-110095000D01*
G75*
G02*
X132729000Y-109895000I0J200000D01*
G01*
G37*
G36*
G01*
X121847000Y-103065332D02*
X121847000Y-104198668D01*
G75*
G02*
X121513668Y-104532000I-333332J0D01*
G01*
X120580332Y-104532000D01*
G75*
G02*
X120247000Y-104198668I0J333332D01*
G01*
X120247000Y-103065332D01*
G75*
G02*
X120580332Y-102732000I333332J0D01*
G01*
X121513668Y-102732000D01*
G75*
G02*
X121847000Y-103065332I0J-333332D01*
G01*
G37*
G36*
G01*
X123847000Y-103065332D02*
X123847000Y-104198668D01*
G75*
G02*
X123513668Y-104532000I-333332J0D01*
G01*
X122580332Y-104532000D01*
G75*
G02*
X122247000Y-104198668I0J333332D01*
G01*
X122247000Y-103065332D01*
G75*
G02*
X122580332Y-102732000I333332J0D01*
G01*
X123513668Y-102732000D01*
G75*
G02*
X123847000Y-103065332I0J-333332D01*
G01*
G37*
G36*
G01*
X129509000Y-104198668D02*
X129509000Y-103065332D01*
G75*
G02*
X129842332Y-102732000I333332J0D01*
G01*
X130775668Y-102732000D01*
G75*
G02*
X131109000Y-103065332I0J-333332D01*
G01*
X131109000Y-104198668D01*
G75*
G02*
X130775668Y-104532000I-333332J0D01*
G01*
X129842332Y-104532000D01*
G75*
G02*
X129509000Y-104198668I0J333332D01*
G01*
G37*
G36*
G01*
X131509000Y-104198668D02*
X131509000Y-103065332D01*
G75*
G02*
X131842332Y-102732000I333332J0D01*
G01*
X132775668Y-102732000D01*
G75*
G02*
X133109000Y-103065332I0J-333332D01*
G01*
X133109000Y-104198668D01*
G75*
G02*
X132775668Y-104532000I-333332J0D01*
G01*
X131842332Y-104532000D01*
G75*
G02*
X131509000Y-104198668I0J333332D01*
G01*
G37*
G36*
G01*
X131391000Y-100642668D02*
X131391000Y-99509332D01*
G75*
G02*
X131724332Y-99176000I333332J0D01*
G01*
X132657668Y-99176000D01*
G75*
G02*
X132991000Y-99509332I0J-333332D01*
G01*
X132991000Y-100642668D01*
G75*
G02*
X132657668Y-100976000I-333332J0D01*
G01*
X131724332Y-100976000D01*
G75*
G02*
X131391000Y-100642668I0J333332D01*
G01*
G37*
G36*
G01*
X129391000Y-100642668D02*
X129391000Y-99509332D01*
G75*
G02*
X129724332Y-99176000I333332J0D01*
G01*
X130657668Y-99176000D01*
G75*
G02*
X130991000Y-99509332I0J-333332D01*
G01*
X130991000Y-100642668D01*
G75*
G02*
X130657668Y-100976000I-333332J0D01*
G01*
X129724332Y-100976000D01*
G75*
G02*
X129391000Y-100642668I0J333332D01*
G01*
G37*
G36*
G01*
X123711000Y-100017332D02*
X123711000Y-101150668D01*
G75*
G02*
X123377668Y-101484000I-333332J0D01*
G01*
X122444332Y-101484000D01*
G75*
G02*
X122111000Y-101150668I0J333332D01*
G01*
X122111000Y-100017332D01*
G75*
G02*
X122444332Y-99684000I333332J0D01*
G01*
X123377668Y-99684000D01*
G75*
G02*
X123711000Y-100017332I0J-333332D01*
G01*
G37*
G36*
G01*
X121711000Y-100017332D02*
X121711000Y-101150668D01*
G75*
G02*
X121377668Y-101484000I-333332J0D01*
G01*
X120444332Y-101484000D01*
G75*
G02*
X120111000Y-101150668I0J333332D01*
G01*
X120111000Y-100017332D01*
G75*
G02*
X120444332Y-99684000I333332J0D01*
G01*
X121377668Y-99684000D01*
G75*
G02*
X121711000Y-100017332I0J-333332D01*
G01*
G37*
G36*
G01*
X115882668Y-158264000D02*
X114749332Y-158264000D01*
G75*
G02*
X114416000Y-157930668I0J333332D01*
G01*
X114416000Y-156997332D01*
G75*
G02*
X114749332Y-156664000I333332J0D01*
G01*
X115882668Y-156664000D01*
G75*
G02*
X116216000Y-156997332I0J-333332D01*
G01*
X116216000Y-157930668D01*
G75*
G02*
X115882668Y-158264000I-333332J0D01*
G01*
G37*
G36*
G01*
X115882668Y-156264000D02*
X114749332Y-156264000D01*
G75*
G02*
X114416000Y-155930668I0J333332D01*
G01*
X114416000Y-154997332D01*
G75*
G02*
X114749332Y-154664000I333332J0D01*
G01*
X115882668Y-154664000D01*
G75*
G02*
X116216000Y-154997332I0J-333332D01*
G01*
X116216000Y-155930668D01*
G75*
G02*
X115882668Y-156264000I-333332J0D01*
G01*
G37*
G36*
G01*
X111310668Y-156255000D02*
X110177332Y-156255000D01*
G75*
G02*
X109844000Y-155921668I0J333332D01*
G01*
X109844000Y-154988332D01*
G75*
G02*
X110177332Y-154655000I333332J0D01*
G01*
X111310668Y-154655000D01*
G75*
G02*
X111644000Y-154988332I0J-333332D01*
G01*
X111644000Y-155921668D01*
G75*
G02*
X111310668Y-156255000I-333332J0D01*
G01*
G37*
G36*
G01*
X111310668Y-158255000D02*
X110177332Y-158255000D01*
G75*
G02*
X109844000Y-157921668I0J333332D01*
G01*
X109844000Y-156988332D01*
G75*
G02*
X110177332Y-156655000I333332J0D01*
G01*
X111310668Y-156655000D01*
G75*
G02*
X111644000Y-156988332I0J-333332D01*
G01*
X111644000Y-157921668D01*
G75*
G02*
X111310668Y-158255000I-333332J0D01*
G01*
G37*
G36*
G01*
X120962668Y-156264000D02*
X119829332Y-156264000D01*
G75*
G02*
X119496000Y-155930668I0J333332D01*
G01*
X119496000Y-154997332D01*
G75*
G02*
X119829332Y-154664000I333332J0D01*
G01*
X120962668Y-154664000D01*
G75*
G02*
X121296000Y-154997332I0J-333332D01*
G01*
X121296000Y-155930668D01*
G75*
G02*
X120962668Y-156264000I-333332J0D01*
G01*
G37*
G36*
G01*
X120962668Y-158264000D02*
X119829332Y-158264000D01*
G75*
G02*
X119496000Y-157930668I0J333332D01*
G01*
X119496000Y-156997332D01*
G75*
G02*
X119829332Y-156664000I333332J0D01*
G01*
X120962668Y-156664000D01*
G75*
G02*
X121296000Y-156997332I0J-333332D01*
G01*
X121296000Y-157930668D01*
G75*
G02*
X120962668Y-158264000I-333332J0D01*
G01*
G37*
G36*
G01*
X130614668Y-158255000D02*
X129481332Y-158255000D01*
G75*
G02*
X129148000Y-157921668I0J333332D01*
G01*
X129148000Y-156988332D01*
G75*
G02*
X129481332Y-156655000I333332J0D01*
G01*
X130614668Y-156655000D01*
G75*
G02*
X130948000Y-156988332I0J-333332D01*
G01*
X130948000Y-157921668D01*
G75*
G02*
X130614668Y-158255000I-333332J0D01*
G01*
G37*
G36*
G01*
X130614668Y-156255000D02*
X129481332Y-156255000D01*
G75*
G02*
X129148000Y-155921668I0J333332D01*
G01*
X129148000Y-154988332D01*
G75*
G02*
X129481332Y-154655000I333332J0D01*
G01*
X130614668Y-154655000D01*
G75*
G02*
X130948000Y-154988332I0J-333332D01*
G01*
X130948000Y-155921668D01*
G75*
G02*
X130614668Y-156255000I-333332J0D01*
G01*
G37*
G36*
G01*
X125534668Y-156273000D02*
X124401332Y-156273000D01*
G75*
G02*
X124068000Y-155939668I0J333332D01*
G01*
X124068000Y-155006332D01*
G75*
G02*
X124401332Y-154673000I333332J0D01*
G01*
X125534668Y-154673000D01*
G75*
G02*
X125868000Y-155006332I0J-333332D01*
G01*
X125868000Y-155939668D01*
G75*
G02*
X125534668Y-156273000I-333332J0D01*
G01*
G37*
G36*
G01*
X125534668Y-158273000D02*
X124401332Y-158273000D01*
G75*
G02*
X124068000Y-157939668I0J333332D01*
G01*
X124068000Y-157006332D01*
G75*
G02*
X124401332Y-156673000I333332J0D01*
G01*
X125534668Y-156673000D01*
G75*
G02*
X125868000Y-157006332I0J-333332D01*
G01*
X125868000Y-157939668D01*
G75*
G02*
X125534668Y-158273000I-333332J0D01*
G01*
G37*
G36*
G01*
X133845000Y-86418668D02*
X133845000Y-85285332D01*
G75*
G02*
X134178332Y-84952000I333332J0D01*
G01*
X135111668Y-84952000D01*
G75*
G02*
X135445000Y-85285332I0J-333332D01*
G01*
X135445000Y-86418668D01*
G75*
G02*
X135111668Y-86752000I-333332J0D01*
G01*
X134178332Y-86752000D01*
G75*
G02*
X133845000Y-86418668I0J333332D01*
G01*
G37*
G36*
G01*
X135845000Y-86418668D02*
X135845000Y-85285332D01*
G75*
G02*
X136178332Y-84952000I333332J0D01*
G01*
X137111668Y-84952000D01*
G75*
G02*
X137445000Y-85285332I0J-333332D01*
G01*
X137445000Y-86418668D01*
G75*
G02*
X137111668Y-86752000I-333332J0D01*
G01*
X136178332Y-86752000D01*
G75*
G02*
X135845000Y-86418668I0J333332D01*
G01*
G37*
G36*
G01*
X118227500Y-85285332D02*
X118227500Y-86418668D01*
G75*
G02*
X117894168Y-86752000I-333332J0D01*
G01*
X116960832Y-86752000D01*
G75*
G02*
X116627500Y-86418668I0J333332D01*
G01*
X116627500Y-85285332D01*
G75*
G02*
X116960832Y-84952000I333332J0D01*
G01*
X117894168Y-84952000D01*
G75*
G02*
X118227500Y-85285332I0J-333332D01*
G01*
G37*
G36*
G01*
X120227500Y-85285332D02*
X120227500Y-86418668D01*
G75*
G02*
X119894168Y-86752000I-333332J0D01*
G01*
X118960832Y-86752000D01*
G75*
G02*
X118627500Y-86418668I0J333332D01*
G01*
X118627500Y-85285332D01*
G75*
G02*
X118960832Y-84952000I333332J0D01*
G01*
X119894168Y-84952000D01*
G75*
G02*
X120227500Y-85285332I0J-333332D01*
G01*
G37*
G36*
G01*
X136335000Y-100642668D02*
X136335000Y-99509332D01*
G75*
G02*
X136668332Y-99176000I333332J0D01*
G01*
X137601668Y-99176000D01*
G75*
G02*
X137935000Y-99509332I0J-333332D01*
G01*
X137935000Y-100642668D01*
G75*
G02*
X137601668Y-100976000I-333332J0D01*
G01*
X136668332Y-100976000D01*
G75*
G02*
X136335000Y-100642668I0J333332D01*
G01*
G37*
G36*
G01*
X134335000Y-100642668D02*
X134335000Y-99509332D01*
G75*
G02*
X134668332Y-99176000I333332J0D01*
G01*
X135601668Y-99176000D01*
G75*
G02*
X135935000Y-99509332I0J-333332D01*
G01*
X135935000Y-100642668D01*
G75*
G02*
X135601668Y-100976000I-333332J0D01*
G01*
X134668332Y-100976000D01*
G75*
G02*
X134335000Y-100642668I0J333332D01*
G01*
G37*
G36*
G01*
X121653000Y-86418668D02*
X121653000Y-85285332D01*
G75*
G02*
X121986332Y-84952000I333332J0D01*
G01*
X122919668Y-84952000D01*
G75*
G02*
X123253000Y-85285332I0J-333332D01*
G01*
X123253000Y-86418668D01*
G75*
G02*
X122919668Y-86752000I-333332J0D01*
G01*
X121986332Y-86752000D01*
G75*
G02*
X121653000Y-86418668I0J333332D01*
G01*
G37*
G36*
G01*
X123653000Y-86418668D02*
X123653000Y-85285332D01*
G75*
G02*
X123986332Y-84952000I333332J0D01*
G01*
X124919668Y-84952000D01*
G75*
G02*
X125253000Y-85285332I0J-333332D01*
G01*
X125253000Y-86418668D01*
G75*
G02*
X124919668Y-86752000I-333332J0D01*
G01*
X123986332Y-86752000D01*
G75*
G02*
X123653000Y-86418668I0J333332D01*
G01*
G37*
G36*
G01*
X142943332Y-148291000D02*
X144076668Y-148291000D01*
G75*
G02*
X144410000Y-148624332I0J-333332D01*
G01*
X144410000Y-149557668D01*
G75*
G02*
X144076668Y-149891000I-333332J0D01*
G01*
X142943332Y-149891000D01*
G75*
G02*
X142610000Y-149557668I0J333332D01*
G01*
X142610000Y-148624332D01*
G75*
G02*
X142943332Y-148291000I333332J0D01*
G01*
G37*
G36*
G01*
X142943332Y-146291000D02*
X144076668Y-146291000D01*
G75*
G02*
X144410000Y-146624332I0J-333332D01*
G01*
X144410000Y-147557668D01*
G75*
G02*
X144076668Y-147891000I-333332J0D01*
G01*
X142943332Y-147891000D01*
G75*
G02*
X142610000Y-147557668I0J333332D01*
G01*
X142610000Y-146624332D01*
G75*
G02*
X142943332Y-146291000I333332J0D01*
G01*
G37*
D14*
X99750000Y-82550000D03*
X95250000Y-82550000D03*
X99750000Y-76050000D03*
X95250000Y-76050000D03*
M02*
