M48
; DRILL file {KiCad (5.1.8)-1} date 02/16/21 09:16:51
; FORMAT={-:-/ absolute / inch / decimal}
; #@! TF.CreationDate,2021-02-16T09:16:51-05:00
; #@! TF.GenerationSoftware,Kicad,Pcbnew,(5.1.8)-1
; #@! TF.FileFunction,Plated,1,2,PTH
FMAT,2
INCH
T1C0.0150
T2C0.0300
T3C0.0315
T4C0.0374
T5C0.0394
T6C0.0433
T7C0.0472
T8C0.0512
T9C0.0531
T10C0.0591
%
G90
G05
T1
X4.29Y-4.34
X4.63Y-3.52
X4.71Y-3.46
X4.83Y-3.67
X4.93Y-3.68
X5.07Y-3.445
X5.123Y-3.66
X5.18Y-3.515
X5.29Y-3.46
X5.3807Y-3.53
X5.45Y-3.94
X5.7Y-6.25
T2
X4.75Y-5.77
T3
X4.82Y-4.3
X5.26Y-4.3
X4.54Y-4.3
X4.5Y-5.475
X4.5Y-5.875
X4.6Y-5.475
X4.6Y-5.875
X4.7Y-5.475
X4.7Y-5.875
X4.8Y-5.475
X4.8Y-5.875
X4.9Y-5.475
X4.9Y-5.875
X5.38Y-4.3
T4
X5.48Y-5.6263
X5.48Y-5.7247
X5.48Y-5.8231
X5.48Y-5.9216
X5.48Y-6.02
X5.28Y-5.6263
X5.28Y-5.7247
X5.28Y-5.8231
X5.28Y-5.9216
X5.28Y-6.02
T5
X5.75Y-5.35
X5.75Y-5.45
X5.75Y-5.55
X5.75Y-5.65
X5.75Y-5.75
X5.75Y-5.85
X5.75Y-5.95
X5.75Y-6.05
X3.75Y-5.55
X3.75Y-5.65
X3.75Y-5.75
X3.75Y-5.85
X3.75Y-5.95
X3.75Y-6.05
X3.75Y-6.15
X3.75Y-6.25
X4.375Y-3.9725
X4.475Y-3.9725
X4.575Y-3.9725
X3.75Y-3.75
X3.75Y-3.85
X3.75Y-3.95
X3.75Y-4.05
X3.75Y-4.15
X3.75Y-4.25
X3.75Y-4.35
X3.75Y-4.45
X5.75Y-4.45
X5.75Y-4.55
X5.75Y-4.65
X5.75Y-4.75
X5.75Y-4.85
X5.75Y-4.95
X5.75Y-5.05
X5.75Y-5.15
X3.75Y-4.65
X3.75Y-4.75
X3.75Y-4.85
X3.75Y-4.95
X3.75Y-5.05
X3.75Y-5.15
X3.75Y-5.25
X3.75Y-5.35
X5.75Y-3.35
X5.75Y-3.45
X5.75Y-3.55
X5.75Y-3.65
X5.75Y-3.75
X5.75Y-3.85
X5.75Y-3.95
X5.75Y-4.05
X5.75Y-4.15
X5.75Y-4.25
X4.05Y-6.35
X4.05Y-6.45
X4.15Y-6.35
X4.15Y-6.45
X4.25Y-6.35
X4.25Y-6.45
X4.35Y-6.35
X4.35Y-6.45
X4.45Y-6.35
X4.45Y-6.45
X4.55Y-6.35
X4.55Y-6.45
X4.65Y-6.35
X4.65Y-6.45
X4.75Y-6.35
X4.75Y-6.45
X4.85Y-6.35
X4.85Y-6.45
X4.95Y-6.35
X4.95Y-6.45
X5.05Y-6.35
X5.05Y-6.45
X5.15Y-6.35
X5.15Y-6.45
X5.25Y-6.35
X5.25Y-6.45
X5.35Y-6.35
X5.35Y-6.45
X5.45Y-6.35
X5.45Y-6.45
X5.55Y-6.35
X5.55Y-6.45
X5.65Y-6.35
X5.65Y-6.45
X5.75Y-6.35
X5.75Y-6.45
T6
X3.75Y-2.9941
X3.75Y-3.25
X3.9272Y-2.9941
X3.9272Y-3.25
T7
X4.015Y-4.6875
X4.115Y-4.6875
X4.5675Y-4.48
X4.6675Y-4.48
X4.7675Y-4.48
X5.16Y-4.48
X5.26Y-4.48
X5.36Y-4.48
X5.28Y-5.16
X5.38Y-5.16
X4.02Y-5.05
X4.12Y-5.05
T8
X3.8031Y-2.6
X4.0Y-2.6
T9
X4.16Y-3.0025
X4.16Y-3.1994
X4.16Y-3.5931
X4.16Y-3.7899
T10
X4.5236Y-2.6433
X5.4764Y-2.6433
T0
M30
