G04 #@! TF.GenerationSoftware,KiCad,Pcbnew,(5.1.8)-1*
G04 #@! TF.CreationDate,2021-02-09T17:12:27-05:00*
G04 #@! TF.ProjectId,rlcs_power,726c6373-5f70-46f7-9765-722e6b696361,rev?*
G04 #@! TF.SameCoordinates,Original*
G04 #@! TF.FileFunction,Soldermask,Bot*
G04 #@! TF.FilePolarity,Negative*
%FSLAX46Y46*%
G04 Gerber Fmt 4.6, Leading zero omitted, Abs format (unit mm)*
G04 Created by KiCad (PCBNEW (5.1.8)-1) date 2021-02-09 17:12:27*
%MOMM*%
%LPD*%
G01*
G04 APERTURE LIST*
%ADD10C,2.400000*%
%ADD11O,2.100000X2.100000*%
%ADD12O,2.350000X2.100000*%
%ADD13C,1.900000*%
%ADD14O,1.900000X2.900000*%
%ADD15O,2.140000X2.600000*%
%ADD16C,3.000000*%
%ADD17C,2.750000*%
G04 APERTURE END LIST*
D10*
X139100000Y-67140000D03*
X114900000Y-67140000D03*
G36*
G01*
X145000000Y-113880000D02*
X145000000Y-112180000D01*
G75*
G02*
X145200000Y-111980000I200000J0D01*
G01*
X146900000Y-111980000D01*
G75*
G02*
X147100000Y-112180000I0J-200000D01*
G01*
X147100000Y-113880000D01*
G75*
G02*
X146900000Y-114080000I-200000J0D01*
G01*
X145200000Y-114080000D01*
G75*
G02*
X145000000Y-113880000I0J200000D01*
G01*
G37*
D11*
X146050000Y-115570000D03*
X146050000Y-118110000D03*
X146050000Y-120650000D03*
X146050000Y-123190000D03*
X146050000Y-125730000D03*
X146050000Y-128270000D03*
X146050000Y-130810000D03*
X146050000Y-107950000D03*
X146050000Y-105410000D03*
X146050000Y-102870000D03*
X146050000Y-100330000D03*
X146050000Y-97790000D03*
X146050000Y-95250000D03*
X146050000Y-92710000D03*
X146050000Y-90170000D03*
X146050000Y-87630000D03*
G36*
G01*
X145000000Y-85940000D02*
X145000000Y-84240000D01*
G75*
G02*
X145200000Y-84040000I200000J0D01*
G01*
X146900000Y-84040000D01*
G75*
G02*
X147100000Y-84240000I0J-200000D01*
G01*
X147100000Y-85940000D01*
G75*
G02*
X146900000Y-86140000I-200000J0D01*
G01*
X145200000Y-86140000D01*
G75*
G02*
X145000000Y-85940000I0J200000D01*
G01*
G37*
G36*
G01*
X145000000Y-136740000D02*
X145000000Y-135040000D01*
G75*
G02*
X145200000Y-134840000I200000J0D01*
G01*
X146900000Y-134840000D01*
G75*
G02*
X147100000Y-135040000I0J-200000D01*
G01*
X147100000Y-136740000D01*
G75*
G02*
X146900000Y-136940000I-200000J0D01*
G01*
X145200000Y-136940000D01*
G75*
G02*
X145000000Y-136740000I0J200000D01*
G01*
G37*
X146050000Y-138430000D03*
X146050000Y-140970000D03*
X146050000Y-143510000D03*
X146050000Y-146050000D03*
X146050000Y-148590000D03*
X146050000Y-151130000D03*
X146050000Y-153670000D03*
G36*
G01*
X94200000Y-141820000D02*
X94200000Y-140120000D01*
G75*
G02*
X94400000Y-139920000I200000J0D01*
G01*
X96100000Y-139920000D01*
G75*
G02*
X96300000Y-140120000I0J-200000D01*
G01*
X96300000Y-141820000D01*
G75*
G02*
X96100000Y-142020000I-200000J0D01*
G01*
X94400000Y-142020000D01*
G75*
G02*
X94200000Y-141820000I0J200000D01*
G01*
G37*
X95250000Y-143510000D03*
X95250000Y-146050000D03*
X95250000Y-148590000D03*
X95250000Y-151130000D03*
X95250000Y-153670000D03*
X95250000Y-156210000D03*
X95250000Y-158750000D03*
G36*
G01*
X94200000Y-118960000D02*
X94200000Y-117260000D01*
G75*
G02*
X94400000Y-117060000I200000J0D01*
G01*
X96100000Y-117060000D01*
G75*
G02*
X96300000Y-117260000I0J-200000D01*
G01*
X96300000Y-118960000D01*
G75*
G02*
X96100000Y-119160000I-200000J0D01*
G01*
X94400000Y-119160000D01*
G75*
G02*
X94200000Y-118960000I0J200000D01*
G01*
G37*
X95250000Y-120650000D03*
X95250000Y-123190000D03*
X95250000Y-125730000D03*
X95250000Y-128270000D03*
X95250000Y-130810000D03*
X95250000Y-133350000D03*
X95250000Y-135890000D03*
G36*
G01*
X94200000Y-96100000D02*
X94200000Y-94400000D01*
G75*
G02*
X94400000Y-94200000I200000J0D01*
G01*
X96100000Y-94200000D01*
G75*
G02*
X96300000Y-94400000I0J-200000D01*
G01*
X96300000Y-96100000D01*
G75*
G02*
X96100000Y-96300000I-200000J0D01*
G01*
X94400000Y-96300000D01*
G75*
G02*
X94200000Y-96100000I0J200000D01*
G01*
G37*
X95250000Y-97790000D03*
X95250000Y-100330000D03*
X95250000Y-102870000D03*
X95250000Y-105410000D03*
X95250000Y-107950000D03*
X95250000Y-110490000D03*
X95250000Y-113030000D03*
G36*
G01*
X145200000Y-162780000D02*
X146900000Y-162780000D01*
G75*
G02*
X147100000Y-162980000I0J-200000D01*
G01*
X147100000Y-164680000D01*
G75*
G02*
X146900000Y-164880000I-200000J0D01*
G01*
X145200000Y-164880000D01*
G75*
G02*
X145000000Y-164680000I0J200000D01*
G01*
X145000000Y-162980000D01*
G75*
G02*
X145200000Y-162780000I200000J0D01*
G01*
G37*
X146050000Y-161290000D03*
X143510000Y-163830000D03*
X143510000Y-161290000D03*
X140970000Y-163830000D03*
X140970000Y-161290000D03*
X138430000Y-163830000D03*
X138430000Y-161290000D03*
X135890000Y-163830000D03*
X135890000Y-161290000D03*
X133350000Y-163830000D03*
X133350000Y-161290000D03*
X130810000Y-163830000D03*
X130810000Y-161290000D03*
X128270000Y-163830000D03*
X128270000Y-161290000D03*
X125730000Y-163830000D03*
X125730000Y-161290000D03*
X123190000Y-163830000D03*
X123190000Y-161290000D03*
X120650000Y-163830000D03*
X120650000Y-161290000D03*
X118110000Y-163830000D03*
X118110000Y-161290000D03*
X115570000Y-163830000D03*
X115570000Y-161290000D03*
X113030000Y-163830000D03*
X113030000Y-161290000D03*
X110490000Y-163830000D03*
X110490000Y-161290000D03*
X107950000Y-163830000D03*
X107950000Y-161290000D03*
X105410000Y-163830000D03*
X105410000Y-161290000D03*
X102870000Y-163830000D03*
X102870000Y-161290000D03*
X116205000Y-100901500D03*
X113665000Y-100901500D03*
G36*
G01*
X111975000Y-101951500D02*
X110275000Y-101951500D01*
G75*
G02*
X110075000Y-101751500I0J200000D01*
G01*
X110075000Y-100051500D01*
G75*
G02*
X110275000Y-99851500I200000J0D01*
G01*
X111975000Y-99851500D01*
G75*
G02*
X112175000Y-100051500I0J-200000D01*
G01*
X112175000Y-101751500D01*
G75*
G02*
X111975000Y-101951500I-200000J0D01*
G01*
G37*
D12*
X139827000Y-142908000D03*
X139827000Y-145408000D03*
X139827000Y-147908000D03*
X139827000Y-150408000D03*
G36*
G01*
X140693177Y-153958000D02*
X138960823Y-153958000D01*
G75*
G02*
X138652000Y-153649177I0J308823D01*
G01*
X138652000Y-152166823D01*
G75*
G02*
X138960823Y-151858000I308823J0D01*
G01*
X140693177Y-151858000D01*
G75*
G02*
X141002000Y-152166823I0J-308823D01*
G01*
X141002000Y-153649177D01*
G75*
G02*
X140693177Y-153958000I-308823J0D01*
G01*
G37*
X134112000Y-142908000D03*
X134112000Y-145408000D03*
X134112000Y-147908000D03*
X134112000Y-150408000D03*
G36*
G01*
X134978177Y-153958000D02*
X133245823Y-153958000D01*
G75*
G02*
X132937000Y-153649177I0J308823D01*
G01*
X132937000Y-152166823D01*
G75*
G02*
X133245823Y-151858000I308823J0D01*
G01*
X134978177Y-151858000D01*
G75*
G02*
X135287000Y-152166823I0J-308823D01*
G01*
X135287000Y-153649177D01*
G75*
G02*
X134978177Y-153958000I-308823J0D01*
G01*
G37*
G36*
G01*
X123710000Y-138115000D02*
X125210000Y-138115000D01*
G75*
G02*
X125410000Y-138315000I0J-200000D01*
G01*
X125410000Y-139815000D01*
G75*
G02*
X125210000Y-140015000I-200000J0D01*
G01*
X123710000Y-140015000D01*
G75*
G02*
X123510000Y-139815000I0J200000D01*
G01*
X123510000Y-138315000D01*
G75*
G02*
X123710000Y-138115000I200000J0D01*
G01*
G37*
D13*
X121920000Y-139065000D03*
X119380000Y-139065000D03*
X116840000Y-139065000D03*
X114300000Y-139065000D03*
X114300000Y-149225000D03*
X116840000Y-149225000D03*
X119380000Y-149225000D03*
X121920000Y-149225000D03*
X124460000Y-149225000D03*
G36*
G01*
X121661000Y-100020955D02*
X121661000Y-101147045D01*
G75*
G02*
X121324045Y-101484000I-336955J0D01*
G01*
X120447955Y-101484000D01*
G75*
G02*
X120111000Y-101147045I0J336955D01*
G01*
X120111000Y-100020955D01*
G75*
G02*
X120447955Y-99684000I336955J0D01*
G01*
X121324045Y-99684000D01*
G75*
G02*
X121661000Y-100020955I0J-336955D01*
G01*
G37*
G36*
G01*
X123711000Y-100020955D02*
X123711000Y-101147045D01*
G75*
G02*
X123374045Y-101484000I-336955J0D01*
G01*
X122497955Y-101484000D01*
G75*
G02*
X122161000Y-101147045I0J336955D01*
G01*
X122161000Y-100020955D01*
G75*
G02*
X122497955Y-99684000I336955J0D01*
G01*
X123374045Y-99684000D01*
G75*
G02*
X123711000Y-100020955I0J-336955D01*
G01*
G37*
G36*
G01*
X121553000Y-109895000D02*
X121553000Y-108545000D01*
G75*
G02*
X121753000Y-108345000I200000J0D01*
G01*
X123103000Y-108345000D01*
G75*
G02*
X123303000Y-108545000I0J-200000D01*
G01*
X123303000Y-109895000D01*
G75*
G02*
X123103000Y-110095000I-200000J0D01*
G01*
X121753000Y-110095000D01*
G75*
G02*
X121553000Y-109895000I0J200000D01*
G01*
G37*
G36*
G01*
X135777000Y-109895000D02*
X135777000Y-108545000D01*
G75*
G02*
X135977000Y-108345000I200000J0D01*
G01*
X137327000Y-108345000D01*
G75*
G02*
X137527000Y-108545000I0J-200000D01*
G01*
X137527000Y-109895000D01*
G75*
G02*
X137327000Y-110095000I-200000J0D01*
G01*
X135977000Y-110095000D01*
G75*
G02*
X135777000Y-109895000I0J200000D01*
G01*
G37*
G36*
G01*
X114441000Y-109895000D02*
X114441000Y-108545000D01*
G75*
G02*
X114641000Y-108345000I200000J0D01*
G01*
X115991000Y-108345000D01*
G75*
G02*
X116191000Y-108545000I0J-200000D01*
G01*
X116191000Y-109895000D01*
G75*
G02*
X115991000Y-110095000I-200000J0D01*
G01*
X114641000Y-110095000D01*
G75*
G02*
X114441000Y-109895000I0J200000D01*
G01*
G37*
D14*
X121094500Y-113792000D03*
X118554500Y-113792000D03*
G36*
G01*
X115064500Y-115042000D02*
X115064500Y-112542000D01*
G75*
G02*
X115264500Y-112342000I200000J0D01*
G01*
X116764500Y-112342000D01*
G75*
G02*
X116964500Y-112542000I0J-200000D01*
G01*
X116964500Y-115042000D01*
G75*
G02*
X116764500Y-115242000I-200000J0D01*
G01*
X115264500Y-115242000D01*
G75*
G02*
X115064500Y-115042000I0J200000D01*
G01*
G37*
X136144000Y-113792000D03*
X133604000Y-113792000D03*
G36*
G01*
X130114000Y-115042000D02*
X130114000Y-112542000D01*
G75*
G02*
X130314000Y-112342000I200000J0D01*
G01*
X131814000Y-112342000D01*
G75*
G02*
X132014000Y-112542000I0J-200000D01*
G01*
X132014000Y-115042000D01*
G75*
G02*
X131814000Y-115242000I-200000J0D01*
G01*
X130314000Y-115242000D01*
G75*
G02*
X130114000Y-115042000I0J200000D01*
G01*
G37*
G36*
G01*
X135895000Y-86415045D02*
X135895000Y-85288955D01*
G75*
G02*
X136231955Y-84952000I336955J0D01*
G01*
X137108045Y-84952000D01*
G75*
G02*
X137445000Y-85288955I0J-336955D01*
G01*
X137445000Y-86415045D01*
G75*
G02*
X137108045Y-86752000I-336955J0D01*
G01*
X136231955Y-86752000D01*
G75*
G02*
X135895000Y-86415045I0J336955D01*
G01*
G37*
G36*
G01*
X133845000Y-86415045D02*
X133845000Y-85288955D01*
G75*
G02*
X134181955Y-84952000I336955J0D01*
G01*
X135058045Y-84952000D01*
G75*
G02*
X135395000Y-85288955I0J-336955D01*
G01*
X135395000Y-86415045D01*
G75*
G02*
X135058045Y-86752000I-336955J0D01*
G01*
X134181955Y-86752000D01*
G75*
G02*
X133845000Y-86415045I0J336955D01*
G01*
G37*
G36*
G01*
X125531045Y-156223000D02*
X124404955Y-156223000D01*
G75*
G02*
X124068000Y-155886045I0J336955D01*
G01*
X124068000Y-155009955D01*
G75*
G02*
X124404955Y-154673000I336955J0D01*
G01*
X125531045Y-154673000D01*
G75*
G02*
X125868000Y-155009955I0J-336955D01*
G01*
X125868000Y-155886045D01*
G75*
G02*
X125531045Y-156223000I-336955J0D01*
G01*
G37*
G36*
G01*
X125531045Y-158273000D02*
X124404955Y-158273000D01*
G75*
G02*
X124068000Y-157936045I0J336955D01*
G01*
X124068000Y-157059955D01*
G75*
G02*
X124404955Y-156723000I336955J0D01*
G01*
X125531045Y-156723000D01*
G75*
G02*
X125868000Y-157059955I0J-336955D01*
G01*
X125868000Y-157936045D01*
G75*
G02*
X125531045Y-158273000I-336955J0D01*
G01*
G37*
G36*
G01*
X130611045Y-156205000D02*
X129484955Y-156205000D01*
G75*
G02*
X129148000Y-155868045I0J336955D01*
G01*
X129148000Y-154991955D01*
G75*
G02*
X129484955Y-154655000I336955J0D01*
G01*
X130611045Y-154655000D01*
G75*
G02*
X130948000Y-154991955I0J-336955D01*
G01*
X130948000Y-155868045D01*
G75*
G02*
X130611045Y-156205000I-336955J0D01*
G01*
G37*
G36*
G01*
X130611045Y-158255000D02*
X129484955Y-158255000D01*
G75*
G02*
X129148000Y-157918045I0J336955D01*
G01*
X129148000Y-157041955D01*
G75*
G02*
X129484955Y-156705000I336955J0D01*
G01*
X130611045Y-156705000D01*
G75*
G02*
X130948000Y-157041955I0J-336955D01*
G01*
X130948000Y-157918045D01*
G75*
G02*
X130611045Y-158255000I-336955J0D01*
G01*
G37*
G36*
G01*
X120959045Y-156214000D02*
X119832955Y-156214000D01*
G75*
G02*
X119496000Y-155877045I0J336955D01*
G01*
X119496000Y-155000955D01*
G75*
G02*
X119832955Y-154664000I336955J0D01*
G01*
X120959045Y-154664000D01*
G75*
G02*
X121296000Y-155000955I0J-336955D01*
G01*
X121296000Y-155877045D01*
G75*
G02*
X120959045Y-156214000I-336955J0D01*
G01*
G37*
G36*
G01*
X120959045Y-158264000D02*
X119832955Y-158264000D01*
G75*
G02*
X119496000Y-157927045I0J336955D01*
G01*
X119496000Y-157050955D01*
G75*
G02*
X119832955Y-156714000I336955J0D01*
G01*
X120959045Y-156714000D01*
G75*
G02*
X121296000Y-157050955I0J-336955D01*
G01*
X121296000Y-157927045D01*
G75*
G02*
X120959045Y-158264000I-336955J0D01*
G01*
G37*
G36*
G01*
X110926045Y-156214000D02*
X109799955Y-156214000D01*
G75*
G02*
X109463000Y-155877045I0J336955D01*
G01*
X109463000Y-155000955D01*
G75*
G02*
X109799955Y-154664000I336955J0D01*
G01*
X110926045Y-154664000D01*
G75*
G02*
X111263000Y-155000955I0J-336955D01*
G01*
X111263000Y-155877045D01*
G75*
G02*
X110926045Y-156214000I-336955J0D01*
G01*
G37*
G36*
G01*
X110926045Y-158264000D02*
X109799955Y-158264000D01*
G75*
G02*
X109463000Y-157927045I0J336955D01*
G01*
X109463000Y-157050955D01*
G75*
G02*
X109799955Y-156714000I336955J0D01*
G01*
X110926045Y-156714000D01*
G75*
G02*
X111263000Y-157050955I0J-336955D01*
G01*
X111263000Y-157927045D01*
G75*
G02*
X110926045Y-158264000I-336955J0D01*
G01*
G37*
G36*
G01*
X115879045Y-156214000D02*
X114752955Y-156214000D01*
G75*
G02*
X114416000Y-155877045I0J336955D01*
G01*
X114416000Y-155000955D01*
G75*
G02*
X114752955Y-154664000I336955J0D01*
G01*
X115879045Y-154664000D01*
G75*
G02*
X116216000Y-155000955I0J-336955D01*
G01*
X116216000Y-155877045D01*
G75*
G02*
X115879045Y-156214000I-336955J0D01*
G01*
G37*
G36*
G01*
X115879045Y-158264000D02*
X114752955Y-158264000D01*
G75*
G02*
X114416000Y-157927045I0J336955D01*
G01*
X114416000Y-157050955D01*
G75*
G02*
X114752955Y-156714000I336955J0D01*
G01*
X115879045Y-156714000D01*
G75*
G02*
X116216000Y-157050955I0J-336955D01*
G01*
X116216000Y-157927045D01*
G75*
G02*
X115879045Y-158264000I-336955J0D01*
G01*
G37*
G36*
G01*
X131559000Y-104195045D02*
X131559000Y-103068955D01*
G75*
G02*
X131895955Y-102732000I336955J0D01*
G01*
X132772045Y-102732000D01*
G75*
G02*
X133109000Y-103068955I0J-336955D01*
G01*
X133109000Y-104195045D01*
G75*
G02*
X132772045Y-104532000I-336955J0D01*
G01*
X131895955Y-104532000D01*
G75*
G02*
X131559000Y-104195045I0J336955D01*
G01*
G37*
G36*
G01*
X129509000Y-104195045D02*
X129509000Y-103068955D01*
G75*
G02*
X129845955Y-102732000I336955J0D01*
G01*
X130722045Y-102732000D01*
G75*
G02*
X131059000Y-103068955I0J-336955D01*
G01*
X131059000Y-104195045D01*
G75*
G02*
X130722045Y-104532000I-336955J0D01*
G01*
X129845955Y-104532000D01*
G75*
G02*
X129509000Y-104195045I0J336955D01*
G01*
G37*
G36*
G01*
X121797000Y-103068955D02*
X121797000Y-104195045D01*
G75*
G02*
X121460045Y-104532000I-336955J0D01*
G01*
X120583955Y-104532000D01*
G75*
G02*
X120247000Y-104195045I0J336955D01*
G01*
X120247000Y-103068955D01*
G75*
G02*
X120583955Y-102732000I336955J0D01*
G01*
X121460045Y-102732000D01*
G75*
G02*
X121797000Y-103068955I0J-336955D01*
G01*
G37*
G36*
G01*
X123847000Y-103068955D02*
X123847000Y-104195045D01*
G75*
G02*
X123510045Y-104532000I-336955J0D01*
G01*
X122633955Y-104532000D01*
G75*
G02*
X122297000Y-104195045I0J336955D01*
G01*
X122297000Y-103068955D01*
G75*
G02*
X122633955Y-102732000I336955J0D01*
G01*
X123510045Y-102732000D01*
G75*
G02*
X123847000Y-103068955I0J-336955D01*
G01*
G37*
D15*
X136652000Y-131064000D03*
G36*
G01*
X133042000Y-132056530D02*
X133042000Y-130071470D01*
G75*
G02*
X133349470Y-129764000I307470J0D01*
G01*
X134874530Y-129764000D01*
G75*
G02*
X135182000Y-130071470I0J-307470D01*
G01*
X135182000Y-132056530D01*
G75*
G02*
X134874530Y-132364000I-307470J0D01*
G01*
X133349470Y-132364000D01*
G75*
G02*
X133042000Y-132056530I0J307470D01*
G01*
G37*
X102108000Y-128270000D03*
G36*
G01*
X105718000Y-127277470D02*
X105718000Y-129262530D01*
G75*
G02*
X105410530Y-129570000I-307470J0D01*
G01*
X103885470Y-129570000D01*
G75*
G02*
X103578000Y-129262530I0J307470D01*
G01*
X103578000Y-127277470D01*
G75*
G02*
X103885470Y-126970000I307470J0D01*
G01*
X105410530Y-126970000D01*
G75*
G02*
X105718000Y-127277470I0J-307470D01*
G01*
G37*
X101981000Y-119062500D03*
G36*
G01*
X105591000Y-118069970D02*
X105591000Y-120055030D01*
G75*
G02*
X105283530Y-120362500I-307470J0D01*
G01*
X103758470Y-120362500D01*
G75*
G02*
X103451000Y-120055030I0J307470D01*
G01*
X103451000Y-118069970D01*
G75*
G02*
X103758470Y-117762500I307470J0D01*
G01*
X105283530Y-117762500D01*
G75*
G02*
X105591000Y-118069970I0J-307470D01*
G01*
G37*
D16*
X96600000Y-66040000D03*
G36*
G01*
X103100000Y-64740000D02*
X103100000Y-67340000D01*
G75*
G02*
X102900000Y-67540000I-200000J0D01*
G01*
X100300000Y-67540000D01*
G75*
G02*
X100100000Y-67340000I0J200000D01*
G01*
X100100000Y-64740000D01*
G75*
G02*
X100300000Y-64540000I200000J0D01*
G01*
X102900000Y-64540000D01*
G75*
G02*
X103100000Y-64740000I0J-200000D01*
G01*
G37*
G36*
G01*
X103119000Y-133358455D02*
X103119000Y-134484545D01*
G75*
G02*
X102782045Y-134821500I-336955J0D01*
G01*
X101905955Y-134821500D01*
G75*
G02*
X101569000Y-134484545I0J336955D01*
G01*
X101569000Y-133358455D01*
G75*
G02*
X101905955Y-133021500I336955J0D01*
G01*
X102782045Y-133021500D01*
G75*
G02*
X103119000Y-133358455I0J-336955D01*
G01*
G37*
G36*
G01*
X105169000Y-133358455D02*
X105169000Y-134484545D01*
G75*
G02*
X104832045Y-134821500I-336955J0D01*
G01*
X103955955Y-134821500D01*
G75*
G02*
X103619000Y-134484545I0J336955D01*
G01*
X103619000Y-133358455D01*
G75*
G02*
X103955955Y-133021500I336955J0D01*
G01*
X104832045Y-133021500D01*
G75*
G02*
X105169000Y-133358455I0J-336955D01*
G01*
G37*
G36*
G01*
X120227500Y-85288955D02*
X120227500Y-86415045D01*
G75*
G02*
X119890545Y-86752000I-336955J0D01*
G01*
X119014455Y-86752000D01*
G75*
G02*
X118677500Y-86415045I0J336955D01*
G01*
X118677500Y-85288955D01*
G75*
G02*
X119014455Y-84952000I336955J0D01*
G01*
X119890545Y-84952000D01*
G75*
G02*
X120227500Y-85288955I0J-336955D01*
G01*
G37*
G36*
G01*
X118177500Y-85288955D02*
X118177500Y-86415045D01*
G75*
G02*
X117840545Y-86752000I-336955J0D01*
G01*
X116964455Y-86752000D01*
G75*
G02*
X116627500Y-86415045I0J336955D01*
G01*
X116627500Y-85288955D01*
G75*
G02*
X116964455Y-84952000I336955J0D01*
G01*
X117840545Y-84952000D01*
G75*
G02*
X118177500Y-85288955I0J-336955D01*
G01*
G37*
D17*
X103822500Y-91263500D03*
X103822500Y-96263500D03*
X103822500Y-81263500D03*
X103822500Y-76263500D03*
G36*
G01*
X129391000Y-100639045D02*
X129391000Y-99512955D01*
G75*
G02*
X129727955Y-99176000I336955J0D01*
G01*
X130604045Y-99176000D01*
G75*
G02*
X130941000Y-99512955I0J-336955D01*
G01*
X130941000Y-100639045D01*
G75*
G02*
X130604045Y-100976000I-336955J0D01*
G01*
X129727955Y-100976000D01*
G75*
G02*
X129391000Y-100639045I0J336955D01*
G01*
G37*
G36*
G01*
X131441000Y-100639045D02*
X131441000Y-99512955D01*
G75*
G02*
X131777955Y-99176000I336955J0D01*
G01*
X132654045Y-99176000D01*
G75*
G02*
X132991000Y-99512955I0J-336955D01*
G01*
X132991000Y-100639045D01*
G75*
G02*
X132654045Y-100976000I-336955J0D01*
G01*
X131777955Y-100976000D01*
G75*
G02*
X131441000Y-100639045I0J336955D01*
G01*
G37*
G36*
G01*
X134335000Y-100639045D02*
X134335000Y-99512955D01*
G75*
G02*
X134671955Y-99176000I336955J0D01*
G01*
X135548045Y-99176000D01*
G75*
G02*
X135885000Y-99512955I0J-336955D01*
G01*
X135885000Y-100639045D01*
G75*
G02*
X135548045Y-100976000I-336955J0D01*
G01*
X134671955Y-100976000D01*
G75*
G02*
X134335000Y-100639045I0J336955D01*
G01*
G37*
G36*
G01*
X136385000Y-100639045D02*
X136385000Y-99512955D01*
G75*
G02*
X136721955Y-99176000I336955J0D01*
G01*
X137598045Y-99176000D01*
G75*
G02*
X137935000Y-99512955I0J-336955D01*
G01*
X137935000Y-100639045D01*
G75*
G02*
X137598045Y-100976000I-336955J0D01*
G01*
X136721955Y-100976000D01*
G75*
G02*
X136385000Y-100639045I0J336955D01*
G01*
G37*
G36*
G01*
X123703000Y-86415045D02*
X123703000Y-85288955D01*
G75*
G02*
X124039955Y-84952000I336955J0D01*
G01*
X124916045Y-84952000D01*
G75*
G02*
X125253000Y-85288955I0J-336955D01*
G01*
X125253000Y-86415045D01*
G75*
G02*
X124916045Y-86752000I-336955J0D01*
G01*
X124039955Y-86752000D01*
G75*
G02*
X123703000Y-86415045I0J336955D01*
G01*
G37*
G36*
G01*
X121653000Y-86415045D02*
X121653000Y-85288955D01*
G75*
G02*
X121989955Y-84952000I336955J0D01*
G01*
X122866045Y-84952000D01*
G75*
G02*
X123203000Y-85288955I0J-336955D01*
G01*
X123203000Y-86415045D01*
G75*
G02*
X122866045Y-86752000I-336955J0D01*
G01*
X121989955Y-86752000D01*
G75*
G02*
X121653000Y-86415045I0J336955D01*
G01*
G37*
G36*
G01*
X132729000Y-109895000D02*
X132729000Y-108545000D01*
G75*
G02*
X132929000Y-108345000I200000J0D01*
G01*
X134279000Y-108345000D01*
G75*
G02*
X134479000Y-108545000I0J-200000D01*
G01*
X134479000Y-109895000D01*
G75*
G02*
X134279000Y-110095000I-200000J0D01*
G01*
X132929000Y-110095000D01*
G75*
G02*
X132729000Y-109895000I0J200000D01*
G01*
G37*
M02*
