G04 #@! TF.GenerationSoftware,KiCad,Pcbnew,6.0.0*
G04 #@! TF.CreationDate,2022-01-27T20:05:15-05:00*
G04 #@! TF.ProjectId,rlcs_power,726c6373-5f70-46f7-9765-722e6b696361,rev?*
G04 #@! TF.SameCoordinates,Original*
G04 #@! TF.FileFunction,Legend,Top*
G04 #@! TF.FilePolarity,Positive*
%FSLAX46Y46*%
G04 Gerber Fmt 4.6, Leading zero omitted, Abs format (unit mm)*
G04 Created by KiCad (PCBNEW 6.0.0) date 2022-01-27 20:05:15*
%MOMM*%
%LPD*%
G01*
G04 APERTURE LIST*
G04 Aperture macros list*
%AMRoundRect*
0 Rectangle with rounded corners*
0 $1 Rounding radius*
0 $2 $3 $4 $5 $6 $7 $8 $9 X,Y pos of 4 corners*
0 Add a 4 corners polygon primitive as box body*
4,1,4,$2,$3,$4,$5,$6,$7,$8,$9,$2,$3,0*
0 Add four circle primitives for the rounded corners*
1,1,$1+$1,$2,$3*
1,1,$1+$1,$4,$5*
1,1,$1+$1,$6,$7*
1,1,$1+$1,$8,$9*
0 Add four rect primitives between the rounded corners*
20,1,$1+$1,$2,$3,$4,$5,0*
20,1,$1+$1,$4,$5,$6,$7,0*
20,1,$1+$1,$6,$7,$8,$9,0*
20,1,$1+$1,$8,$9,$2,$3,0*%
G04 Aperture macros list end*
%ADD10C,0.300000*%
%ADD11C,0.150000*%
%ADD12C,0.120000*%
%ADD13C,0.010000*%
%ADD14RoundRect,0.200000X-0.750000X0.750000X-0.750000X-0.750000X0.750000X-0.750000X0.750000X0.750000X0*%
%ADD15C,1.900000*%
%ADD16RoundRect,0.449999X-0.325001X-0.450001X0.325001X-0.450001X0.325001X0.450001X-0.325001X0.450001X0*%
%ADD17RoundRect,0.449999X0.325001X0.450001X-0.325001X0.450001X-0.325001X-0.450001X0.325001X-0.450001X0*%
%ADD18C,2.750000*%
%ADD19C,2.400000*%
%ADD20RoundRect,0.200000X0.500000X-0.750000X0.500000X0.750000X-0.500000X0.750000X-0.500000X-0.750000X0*%
%ADD21RoundRect,0.200000X0.600000X-1.100000X0.600000X1.100000X-0.600000X1.100000X-0.600000X-1.100000X0*%
%ADD22RoundRect,0.450000X0.725000X-0.600000X0.725000X0.600000X-0.725000X0.600000X-0.725000X-0.600000X0*%
%ADD23O,2.350000X2.100000*%
%ADD24RoundRect,0.200000X0.850000X0.850000X-0.850000X0.850000X-0.850000X-0.850000X0.850000X-0.850000X0*%
%ADD25O,2.100000X2.100000*%
%ADD26RoundRect,0.200000X-0.750000X-1.250000X0.750000X-1.250000X0.750000X1.250000X-0.750000X1.250000X0*%
%ADD27O,1.900000X2.900000*%
%ADD28RoundRect,0.200000X-0.675000X-0.675000X0.675000X-0.675000X0.675000X0.675000X-0.675000X0.675000X0*%
%ADD29RoundRect,0.200000X1.300000X1.300000X-1.300000X1.300000X-1.300000X-1.300000X1.300000X-1.300000X0*%
%ADD30C,3.000000*%
%ADD31RoundRect,0.449999X0.620001X0.850001X-0.620001X0.850001X-0.620001X-0.850001X0.620001X-0.850001X0*%
%ADD32O,2.140000X2.600000*%
%ADD33RoundRect,0.200000X-0.255000X-0.200000X0.255000X-0.200000X0.255000X0.200000X-0.255000X0.200000X0*%
%ADD34RoundRect,0.449999X-0.350001X-0.450001X0.350001X-0.450001X0.350001X0.450001X-0.350001X0.450001X0*%
%ADD35RoundRect,0.449999X0.350001X0.450001X-0.350001X0.450001X-0.350001X-0.450001X0.350001X-0.450001X0*%
%ADD36RoundRect,0.449999X0.450001X-0.350001X0.450001X0.350001X-0.450001X0.350001X-0.450001X-0.350001X0*%
%ADD37RoundRect,0.449999X-0.450001X0.350001X-0.450001X-0.350001X0.450001X-0.350001X0.450001X0.350001X0*%
%ADD38RoundRect,0.450000X0.350000X0.450000X-0.350000X0.450000X-0.350000X-0.450000X0.350000X-0.450000X0*%
%ADD39RoundRect,0.450000X-0.350000X-0.450000X0.350000X-0.450000X0.350000X0.450000X-0.350000X0.450000X0*%
%ADD40O,2.127200X2.127200*%
%ADD41RoundRect,0.450000X0.450000X-0.350000X0.450000X0.350000X-0.450000X0.350000X-0.450000X-0.350000X0*%
G04 APERTURE END LIST*
D10*
X101159857Y-74180000D02*
X101017000Y-74108571D01*
X100802714Y-74108571D01*
X100588428Y-74180000D01*
X100445571Y-74322857D01*
X100374142Y-74465714D01*
X100302714Y-74751428D01*
X100302714Y-74965714D01*
X100374142Y-75251428D01*
X100445571Y-75394285D01*
X100588428Y-75537142D01*
X100802714Y-75608571D01*
X100945571Y-75608571D01*
X101159857Y-75537142D01*
X101231285Y-75465714D01*
X101231285Y-74965714D01*
X100945571Y-74965714D01*
X101874142Y-75608571D02*
X101874142Y-74108571D01*
X102731285Y-75608571D01*
X102731285Y-74108571D01*
X103445571Y-75608571D02*
X103445571Y-74108571D01*
X103802714Y-74108571D01*
X104017000Y-74180000D01*
X104159857Y-74322857D01*
X104231285Y-74465714D01*
X104302714Y-74751428D01*
X104302714Y-74965714D01*
X104231285Y-75251428D01*
X104159857Y-75394285D01*
X104017000Y-75537142D01*
X103802714Y-75608571D01*
X103445571Y-75608571D01*
X115106142Y-165207142D02*
X116249000Y-165207142D01*
X115677571Y-165778571D02*
X115677571Y-164635714D01*
X117677571Y-164278571D02*
X116963285Y-164278571D01*
X116891857Y-164992857D01*
X116963285Y-164921428D01*
X117106142Y-164850000D01*
X117463285Y-164850000D01*
X117606142Y-164921428D01*
X117677571Y-164992857D01*
X117749000Y-165135714D01*
X117749000Y-165492857D01*
X117677571Y-165635714D01*
X117606142Y-165707142D01*
X117463285Y-165778571D01*
X117106142Y-165778571D01*
X116963285Y-165707142D01*
X116891857Y-165635714D01*
X118177571Y-164278571D02*
X118677571Y-165778571D01*
X119177571Y-164278571D01*
X119677571Y-165635714D02*
X119749000Y-165707142D01*
X119677571Y-165778571D01*
X119606142Y-165707142D01*
X119677571Y-165635714D01*
X119677571Y-165778571D01*
X119677571Y-164850000D02*
X119749000Y-164921428D01*
X119677571Y-164992857D01*
X119606142Y-164921428D01*
X119677571Y-164850000D01*
X119677571Y-164992857D01*
X103930142Y-165207142D02*
X105073000Y-165207142D01*
X104501571Y-165778571D02*
X104501571Y-164635714D01*
X106573000Y-165778571D02*
X105715857Y-165778571D01*
X106144428Y-165778571D02*
X106144428Y-164278571D01*
X106001571Y-164492857D01*
X105858714Y-164635714D01*
X105715857Y-164707142D01*
X107144428Y-164421428D02*
X107215857Y-164350000D01*
X107358714Y-164278571D01*
X107715857Y-164278571D01*
X107858714Y-164350000D01*
X107930142Y-164421428D01*
X108001571Y-164564285D01*
X108001571Y-164707142D01*
X107930142Y-164921428D01*
X107073000Y-165778571D01*
X108001571Y-165778571D01*
X108430142Y-164278571D02*
X108930142Y-165778571D01*
X109430142Y-164278571D01*
X109930142Y-165635714D02*
X110001571Y-165707142D01*
X109930142Y-165778571D01*
X109858714Y-165707142D01*
X109930142Y-165635714D01*
X109930142Y-165778571D01*
X109930142Y-164850000D02*
X110001571Y-164921428D01*
X109930142Y-164992857D01*
X109858714Y-164921428D01*
X109930142Y-164850000D01*
X109930142Y-164992857D01*
X124758142Y-165207142D02*
X125901000Y-165207142D01*
X125329571Y-165778571D02*
X125329571Y-164635714D01*
X126472428Y-164278571D02*
X127401000Y-164278571D01*
X126901000Y-164850000D01*
X127115285Y-164850000D01*
X127258142Y-164921428D01*
X127329571Y-164992857D01*
X127401000Y-165135714D01*
X127401000Y-165492857D01*
X127329571Y-165635714D01*
X127258142Y-165707142D01*
X127115285Y-165778571D01*
X126686714Y-165778571D01*
X126543857Y-165707142D01*
X126472428Y-165635714D01*
X127829571Y-164278571D02*
X128329571Y-165778571D01*
X128829571Y-164278571D01*
X129186714Y-164278571D02*
X130115285Y-164278571D01*
X129615285Y-164850000D01*
X129829571Y-164850000D01*
X129972428Y-164921428D01*
X130043857Y-164992857D01*
X130115285Y-165135714D01*
X130115285Y-165492857D01*
X130043857Y-165635714D01*
X129972428Y-165707142D01*
X129829571Y-165778571D01*
X129401000Y-165778571D01*
X129258142Y-165707142D01*
X129186714Y-165635714D01*
X130758142Y-165635714D02*
X130829571Y-165707142D01*
X130758142Y-165778571D01*
X130686714Y-165707142D01*
X130758142Y-165635714D01*
X130758142Y-165778571D01*
X130758142Y-164850000D02*
X130829571Y-164921428D01*
X130758142Y-164992857D01*
X130686714Y-164921428D01*
X130758142Y-164850000D01*
X130758142Y-164992857D01*
X95063857Y-164350000D02*
X94921000Y-164278571D01*
X94706714Y-164278571D01*
X94492428Y-164350000D01*
X94349571Y-164492857D01*
X94278142Y-164635714D01*
X94206714Y-164921428D01*
X94206714Y-165135714D01*
X94278142Y-165421428D01*
X94349571Y-165564285D01*
X94492428Y-165707142D01*
X94706714Y-165778571D01*
X94849571Y-165778571D01*
X95063857Y-165707142D01*
X95135285Y-165635714D01*
X95135285Y-165135714D01*
X94849571Y-165135714D01*
X95778142Y-165778571D02*
X95778142Y-164278571D01*
X96635285Y-165778571D01*
X96635285Y-164278571D01*
X97349571Y-165778571D02*
X97349571Y-164278571D01*
X97706714Y-164278571D01*
X97921000Y-164350000D01*
X98063857Y-164492857D01*
X98135285Y-164635714D01*
X98206714Y-164921428D01*
X98206714Y-165135714D01*
X98135285Y-165421428D01*
X98063857Y-165564285D01*
X97921000Y-165707142D01*
X97706714Y-165778571D01*
X97349571Y-165778571D01*
X98849571Y-165635714D02*
X98921000Y-165707142D01*
X98849571Y-165778571D01*
X98778142Y-165707142D01*
X98849571Y-165635714D01*
X98849571Y-165778571D01*
X98849571Y-164850000D02*
X98921000Y-164921428D01*
X98849571Y-164992857D01*
X98778142Y-164921428D01*
X98849571Y-164850000D01*
X98849571Y-164992857D01*
X138402714Y-75180000D02*
X139117000Y-75180000D01*
X138259857Y-75608571D02*
X138759857Y-74108571D01*
X139259857Y-75608571D01*
X140617000Y-75465714D02*
X140545571Y-75537142D01*
X140331285Y-75608571D01*
X140188428Y-75608571D01*
X139974142Y-75537142D01*
X139831285Y-75394285D01*
X139759857Y-75251428D01*
X139688428Y-74965714D01*
X139688428Y-74751428D01*
X139759857Y-74465714D01*
X139831285Y-74322857D01*
X139974142Y-74180000D01*
X140188428Y-74108571D01*
X140331285Y-74108571D01*
X140545571Y-74180000D01*
X140617000Y-74251428D01*
X141045571Y-74108571D02*
X141902714Y-74108571D01*
X141474142Y-75608571D02*
X141474142Y-74108571D01*
X145863857Y-74180000D02*
X145721000Y-74108571D01*
X145506714Y-74108571D01*
X145292428Y-74180000D01*
X145149571Y-74322857D01*
X145078142Y-74465714D01*
X145006714Y-74751428D01*
X145006714Y-74965714D01*
X145078142Y-75251428D01*
X145149571Y-75394285D01*
X145292428Y-75537142D01*
X145506714Y-75608571D01*
X145649571Y-75608571D01*
X145863857Y-75537142D01*
X145935285Y-75465714D01*
X145935285Y-74965714D01*
X145649571Y-74965714D01*
X146578142Y-75608571D02*
X146578142Y-74108571D01*
X147435285Y-75608571D01*
X147435285Y-74108571D01*
X148149571Y-75608571D02*
X148149571Y-74108571D01*
X148506714Y-74108571D01*
X148721000Y-74180000D01*
X148863857Y-74322857D01*
X148935285Y-74465714D01*
X149006714Y-74751428D01*
X149006714Y-74965714D01*
X148935285Y-75251428D01*
X148863857Y-75394285D01*
X148721000Y-75537142D01*
X148506714Y-75608571D01*
X148149571Y-75608571D01*
X94524142Y-74822857D02*
X94738428Y-74894285D01*
X94809857Y-74965714D01*
X94881285Y-75108571D01*
X94881285Y-75322857D01*
X94809857Y-75465714D01*
X94738428Y-75537142D01*
X94595571Y-75608571D01*
X94024142Y-75608571D01*
X94024142Y-74108571D01*
X94524142Y-74108571D01*
X94667000Y-74180000D01*
X94738428Y-74251428D01*
X94809857Y-74394285D01*
X94809857Y-74537142D01*
X94738428Y-74680000D01*
X94667000Y-74751428D01*
X94524142Y-74822857D01*
X94024142Y-74822857D01*
X95452714Y-75180000D02*
X96167000Y-75180000D01*
X95309857Y-75608571D02*
X95809857Y-74108571D01*
X96309857Y-75608571D01*
X96595571Y-74108571D02*
X97452714Y-74108571D01*
X97024142Y-75608571D02*
X97024142Y-74108571D01*
X95424857Y-89578571D02*
X94924857Y-88864285D01*
X94567714Y-89578571D02*
X94567714Y-88078571D01*
X95139142Y-88078571D01*
X95282000Y-88150000D01*
X95353428Y-88221428D01*
X95424857Y-88364285D01*
X95424857Y-88578571D01*
X95353428Y-88721428D01*
X95282000Y-88792857D01*
X95139142Y-88864285D01*
X94567714Y-88864285D01*
X96639142Y-89507142D02*
X96496285Y-89578571D01*
X96210571Y-89578571D01*
X96067714Y-89507142D01*
X95996285Y-89364285D01*
X95996285Y-88792857D01*
X96067714Y-88650000D01*
X96210571Y-88578571D01*
X96496285Y-88578571D01*
X96639142Y-88650000D01*
X96710571Y-88792857D01*
X96710571Y-88935714D01*
X95996285Y-89078571D01*
X97282000Y-89507142D02*
X97424857Y-89578571D01*
X97710571Y-89578571D01*
X97853428Y-89507142D01*
X97924857Y-89364285D01*
X97924857Y-89292857D01*
X97853428Y-89150000D01*
X97710571Y-89078571D01*
X97496285Y-89078571D01*
X97353428Y-89007142D01*
X97282000Y-88864285D01*
X97282000Y-88792857D01*
X97353428Y-88650000D01*
X97496285Y-88578571D01*
X97710571Y-88578571D01*
X97853428Y-88650000D01*
X99139142Y-89507142D02*
X98996285Y-89578571D01*
X98710571Y-89578571D01*
X98567714Y-89507142D01*
X98496285Y-89364285D01*
X98496285Y-88792857D01*
X98567714Y-88650000D01*
X98710571Y-88578571D01*
X98996285Y-88578571D01*
X99139142Y-88650000D01*
X99210571Y-88792857D01*
X99210571Y-88935714D01*
X98496285Y-89078571D01*
X99639142Y-88578571D02*
X100210571Y-88578571D01*
X99853428Y-88078571D02*
X99853428Y-89364285D01*
X99924857Y-89507142D01*
X100067714Y-89578571D01*
X100210571Y-89578571D01*
D11*
X122190666Y-131807928D02*
X122190666Y-131331738D01*
X122476380Y-131903166D02*
X121476380Y-131569833D01*
X122476380Y-131236500D01*
X121952571Y-130569833D02*
X121952571Y-130903166D01*
X122476380Y-130903166D02*
X121476380Y-130903166D01*
X121476380Y-130426976D01*
X121952571Y-129712690D02*
X121952571Y-130046023D01*
X122476380Y-130046023D02*
X121476380Y-130046023D01*
X121476380Y-129569833D01*
X122476380Y-128665071D02*
X122476380Y-129236500D01*
X122476380Y-128950785D02*
X121476380Y-128950785D01*
X121619238Y-129046023D01*
X121714476Y-129141261D01*
X121762095Y-129236500D01*
X131151333Y-112380142D02*
X131103714Y-112427761D01*
X130960857Y-112475380D01*
X130865619Y-112475380D01*
X130722761Y-112427761D01*
X130627523Y-112332523D01*
X130579904Y-112237285D01*
X130532285Y-112046809D01*
X130532285Y-111903952D01*
X130579904Y-111713476D01*
X130627523Y-111618238D01*
X130722761Y-111523000D01*
X130865619Y-111475380D01*
X130960857Y-111475380D01*
X131103714Y-111523000D01*
X131151333Y-111570619D01*
X132103714Y-112475380D02*
X131532285Y-112475380D01*
X131818000Y-112475380D02*
X131818000Y-111475380D01*
X131722761Y-111618238D01*
X131627523Y-111713476D01*
X131532285Y-111761095D01*
X139270333Y-112371142D02*
X139222714Y-112418761D01*
X139079857Y-112466380D01*
X138984619Y-112466380D01*
X138841761Y-112418761D01*
X138746523Y-112323523D01*
X138698904Y-112228285D01*
X138651285Y-112037809D01*
X138651285Y-111894952D01*
X138698904Y-111704476D01*
X138746523Y-111609238D01*
X138841761Y-111514000D01*
X138984619Y-111466380D01*
X139079857Y-111466380D01*
X139222714Y-111514000D01*
X139270333Y-111561619D01*
X139651285Y-111561619D02*
X139698904Y-111514000D01*
X139794142Y-111466380D01*
X140032238Y-111466380D01*
X140127476Y-111514000D01*
X140175095Y-111561619D01*
X140222714Y-111656857D01*
X140222714Y-111752095D01*
X140175095Y-111894952D01*
X139603666Y-112466380D01*
X140222714Y-112466380D01*
X115920333Y-112371142D02*
X115872714Y-112418761D01*
X115729857Y-112466380D01*
X115634619Y-112466380D01*
X115491761Y-112418761D01*
X115396523Y-112323523D01*
X115348904Y-112228285D01*
X115301285Y-112037809D01*
X115301285Y-111894952D01*
X115348904Y-111704476D01*
X115396523Y-111609238D01*
X115491761Y-111514000D01*
X115634619Y-111466380D01*
X115729857Y-111466380D01*
X115872714Y-111514000D01*
X115920333Y-111561619D01*
X116253666Y-111466380D02*
X116872714Y-111466380D01*
X116539380Y-111847333D01*
X116682238Y-111847333D01*
X116777476Y-111894952D01*
X116825095Y-111942571D01*
X116872714Y-112037809D01*
X116872714Y-112275904D01*
X116825095Y-112371142D01*
X116777476Y-112418761D01*
X116682238Y-112466380D01*
X116396523Y-112466380D01*
X116301285Y-112418761D01*
X116253666Y-112371142D01*
X103425666Y-94560071D02*
X103092333Y-94560071D01*
X103092333Y-95083880D02*
X103092333Y-94083880D01*
X103568523Y-94083880D01*
X104473285Y-95083880D02*
X103901857Y-95083880D01*
X104187571Y-95083880D02*
X104187571Y-94083880D01*
X104092333Y-94226738D01*
X103997095Y-94321976D01*
X103901857Y-94369595D01*
X106854666Y-92670380D02*
X106854666Y-93384666D01*
X106807047Y-93527523D01*
X106711809Y-93622761D01*
X106568952Y-93670380D01*
X106473714Y-93670380D01*
X107235619Y-92670380D02*
X107854666Y-92670380D01*
X107521333Y-93051333D01*
X107664190Y-93051333D01*
X107759428Y-93098952D01*
X107807047Y-93146571D01*
X107854666Y-93241809D01*
X107854666Y-93479904D01*
X107807047Y-93575142D01*
X107759428Y-93622761D01*
X107664190Y-93670380D01*
X107378476Y-93670380D01*
X107283238Y-93622761D01*
X107235619Y-93575142D01*
X130730666Y-137374380D02*
X130730666Y-138088666D01*
X130683047Y-138231523D01*
X130587809Y-138326761D01*
X130444952Y-138374380D01*
X130349714Y-138374380D01*
X131730666Y-138374380D02*
X131159238Y-138374380D01*
X131444952Y-138374380D02*
X131444952Y-137374380D01*
X131349714Y-137517238D01*
X131254476Y-137612476D01*
X131159238Y-137660095D01*
X134378761Y-141839904D02*
X133921619Y-141839904D01*
X134150190Y-141839904D02*
X134150190Y-141039904D01*
X134074000Y-141154190D01*
X133997809Y-141230380D01*
X133921619Y-141268476D01*
X134683523Y-141116095D02*
X134721619Y-141078000D01*
X134797809Y-141039904D01*
X134988285Y-141039904D01*
X135064476Y-141078000D01*
X135102571Y-141116095D01*
X135140666Y-141192285D01*
X135140666Y-141268476D01*
X135102571Y-141382761D01*
X134645428Y-141839904D01*
X135140666Y-141839904D01*
X135369238Y-141039904D02*
X135635904Y-141839904D01*
X135902571Y-141039904D01*
X134264476Y-146158000D02*
X134188285Y-146119904D01*
X134074000Y-146119904D01*
X133959714Y-146158000D01*
X133883523Y-146234190D01*
X133845428Y-146310380D01*
X133807333Y-146462761D01*
X133807333Y-146577047D01*
X133845428Y-146729428D01*
X133883523Y-146805619D01*
X133959714Y-146881809D01*
X134074000Y-146919904D01*
X134150190Y-146919904D01*
X134264476Y-146881809D01*
X134302571Y-146843714D01*
X134302571Y-146577047D01*
X134150190Y-146577047D01*
X134645428Y-146919904D02*
X134645428Y-146119904D01*
X135102571Y-146919904D01*
X135102571Y-146119904D01*
X135483523Y-146919904D02*
X135483523Y-146119904D01*
X135674000Y-146119904D01*
X135788285Y-146158000D01*
X135864476Y-146234190D01*
X135902571Y-146310380D01*
X135940666Y-146462761D01*
X135940666Y-146577047D01*
X135902571Y-146729428D01*
X135864476Y-146805619D01*
X135788285Y-146881809D01*
X135674000Y-146919904D01*
X135483523Y-146919904D01*
X134721619Y-143579904D02*
X134340666Y-143579904D01*
X134302571Y-143960857D01*
X134340666Y-143922761D01*
X134416857Y-143884666D01*
X134607333Y-143884666D01*
X134683523Y-143922761D01*
X134721619Y-143960857D01*
X134759714Y-144037047D01*
X134759714Y-144227523D01*
X134721619Y-144303714D01*
X134683523Y-144341809D01*
X134607333Y-144379904D01*
X134416857Y-144379904D01*
X134340666Y-144341809D01*
X134302571Y-144303714D01*
X134988285Y-143579904D02*
X135254952Y-144379904D01*
X135521619Y-143579904D01*
X133902571Y-151961809D02*
X134016857Y-151999904D01*
X134207333Y-151999904D01*
X134283523Y-151961809D01*
X134321619Y-151923714D01*
X134359714Y-151847523D01*
X134359714Y-151771333D01*
X134321619Y-151695142D01*
X134283523Y-151657047D01*
X134207333Y-151618952D01*
X134054952Y-151580857D01*
X133978761Y-151542761D01*
X133940666Y-151504666D01*
X133902571Y-151428476D01*
X133902571Y-151352285D01*
X133940666Y-151276095D01*
X133978761Y-151238000D01*
X134054952Y-151199904D01*
X134245428Y-151199904D01*
X134359714Y-151238000D01*
X134702571Y-151999904D02*
X134702571Y-151199904D01*
X134893047Y-151199904D01*
X135007333Y-151238000D01*
X135083523Y-151314190D01*
X135121619Y-151390380D01*
X135159714Y-151542761D01*
X135159714Y-151657047D01*
X135121619Y-151809428D01*
X135083523Y-151885619D01*
X135007333Y-151961809D01*
X134893047Y-151999904D01*
X134702571Y-151999904D01*
X135464476Y-151771333D02*
X135845428Y-151771333D01*
X135388285Y-151999904D02*
X135654952Y-151199904D01*
X135921619Y-151999904D01*
X133921619Y-149421809D02*
X134035904Y-149459904D01*
X134226380Y-149459904D01*
X134302571Y-149421809D01*
X134340666Y-149383714D01*
X134378761Y-149307523D01*
X134378761Y-149231333D01*
X134340666Y-149155142D01*
X134302571Y-149117047D01*
X134226380Y-149078952D01*
X134074000Y-149040857D01*
X133997809Y-149002761D01*
X133959714Y-148964666D01*
X133921619Y-148888476D01*
X133921619Y-148812285D01*
X133959714Y-148736095D01*
X133997809Y-148698000D01*
X134074000Y-148659904D01*
X134264476Y-148659904D01*
X134378761Y-148698000D01*
X135178761Y-149383714D02*
X135140666Y-149421809D01*
X135026380Y-149459904D01*
X134950190Y-149459904D01*
X134835904Y-149421809D01*
X134759714Y-149345619D01*
X134721619Y-149269428D01*
X134683523Y-149117047D01*
X134683523Y-149002761D01*
X134721619Y-148850380D01*
X134759714Y-148774190D01*
X134835904Y-148698000D01*
X134950190Y-148659904D01*
X135026380Y-148659904D01*
X135140666Y-148698000D01*
X135178761Y-148736095D01*
X135902571Y-149459904D02*
X135521619Y-149459904D01*
X135521619Y-148659904D01*
X110418666Y-111085380D02*
X110418666Y-111799666D01*
X110371047Y-111942523D01*
X110275809Y-112037761D01*
X110132952Y-112085380D01*
X110037714Y-112085380D01*
X110894857Y-112085380D02*
X110894857Y-111085380D01*
X111275809Y-111085380D01*
X111371047Y-111133000D01*
X111418666Y-111180619D01*
X111466285Y-111275857D01*
X111466285Y-111418714D01*
X111418666Y-111513952D01*
X111371047Y-111561571D01*
X111275809Y-111609190D01*
X110894857Y-111609190D01*
X112418666Y-112085380D02*
X111847238Y-112085380D01*
X112132952Y-112085380D02*
X112132952Y-111085380D01*
X112037714Y-111228238D01*
X111942476Y-111323476D01*
X111847238Y-111371095D01*
X134633595Y-114478380D02*
X135205023Y-114478380D01*
X134919309Y-115478380D02*
X134919309Y-114478380D01*
X136062166Y-115478380D02*
X135490738Y-115478380D01*
X135776452Y-115478380D02*
X135776452Y-114478380D01*
X135681214Y-114621238D01*
X135585976Y-114716476D01*
X135490738Y-114764095D01*
X134895500Y-121502904D02*
X134847880Y-121598142D01*
X134847880Y-121741000D01*
X134895500Y-121883857D01*
X134990738Y-121979095D01*
X135085976Y-122026714D01*
X135276452Y-122074333D01*
X135419309Y-122074333D01*
X135609785Y-122026714D01*
X135705023Y-121979095D01*
X135800261Y-121883857D01*
X135847880Y-121741000D01*
X135847880Y-121645761D01*
X135800261Y-121502904D01*
X135752642Y-121455285D01*
X135419309Y-121455285D01*
X135419309Y-121645761D01*
X135847880Y-121026714D02*
X134847880Y-121026714D01*
X135847880Y-120455285D01*
X134847880Y-120455285D01*
X135847880Y-119979095D02*
X134847880Y-119979095D01*
X134847880Y-119741000D01*
X134895500Y-119598142D01*
X134990738Y-119502904D01*
X135085976Y-119455285D01*
X135276452Y-119407666D01*
X135419309Y-119407666D01*
X135609785Y-119455285D01*
X135705023Y-119502904D01*
X135800261Y-119598142D01*
X135847880Y-119741000D01*
X135847880Y-119979095D01*
X132307880Y-121764809D02*
X133307880Y-121431476D01*
X132307880Y-121098142D01*
X133307880Y-120764809D02*
X132641214Y-120764809D01*
X132307880Y-120764809D02*
X132355500Y-120812428D01*
X132403119Y-120764809D01*
X132355500Y-120717190D01*
X132307880Y-120764809D01*
X132403119Y-120764809D01*
X132641214Y-120288619D02*
X133307880Y-120288619D01*
X132736452Y-120288619D02*
X132688833Y-120241000D01*
X132641214Y-120145761D01*
X132641214Y-120002904D01*
X132688833Y-119907666D01*
X132784071Y-119860047D01*
X133307880Y-119860047D01*
X137387880Y-122264809D02*
X138387880Y-121931476D01*
X137387880Y-121598142D01*
X138387880Y-121121952D02*
X138340261Y-121217190D01*
X138292642Y-121264809D01*
X138197404Y-121312428D01*
X137911690Y-121312428D01*
X137816452Y-121264809D01*
X137768833Y-121217190D01*
X137721214Y-121121952D01*
X137721214Y-120979095D01*
X137768833Y-120883857D01*
X137816452Y-120836238D01*
X137911690Y-120788619D01*
X138197404Y-120788619D01*
X138292642Y-120836238D01*
X138340261Y-120883857D01*
X138387880Y-120979095D01*
X138387880Y-121121952D01*
X137721214Y-119931476D02*
X138387880Y-119931476D01*
X137721214Y-120360047D02*
X138245023Y-120360047D01*
X138340261Y-120312428D01*
X138387880Y-120217190D01*
X138387880Y-120074333D01*
X138340261Y-119979095D01*
X138292642Y-119931476D01*
X137721214Y-119598142D02*
X137721214Y-119217190D01*
X137387880Y-119455285D02*
X138245023Y-119455285D01*
X138340261Y-119407666D01*
X138387880Y-119312428D01*
X138387880Y-119217190D01*
X119380095Y-114514380D02*
X119951523Y-114514380D01*
X119665809Y-115514380D02*
X119665809Y-114514380D01*
X120237238Y-114609619D02*
X120284857Y-114562000D01*
X120380095Y-114514380D01*
X120618190Y-114514380D01*
X120713428Y-114562000D01*
X120761047Y-114609619D01*
X120808666Y-114704857D01*
X120808666Y-114800095D01*
X120761047Y-114942952D01*
X120189619Y-115514380D01*
X120808666Y-115514380D01*
X117258380Y-121764809D02*
X118258380Y-121431476D01*
X117258380Y-121098142D01*
X118258380Y-120764809D02*
X117591714Y-120764809D01*
X117258380Y-120764809D02*
X117306000Y-120812428D01*
X117353619Y-120764809D01*
X117306000Y-120717190D01*
X117258380Y-120764809D01*
X117353619Y-120764809D01*
X117591714Y-120288619D02*
X118258380Y-120288619D01*
X117686952Y-120288619D02*
X117639333Y-120241000D01*
X117591714Y-120145761D01*
X117591714Y-120002904D01*
X117639333Y-119907666D01*
X117734571Y-119860047D01*
X118258380Y-119860047D01*
X119846000Y-121502904D02*
X119798380Y-121598142D01*
X119798380Y-121741000D01*
X119846000Y-121883857D01*
X119941238Y-121979095D01*
X120036476Y-122026714D01*
X120226952Y-122074333D01*
X120369809Y-122074333D01*
X120560285Y-122026714D01*
X120655523Y-121979095D01*
X120750761Y-121883857D01*
X120798380Y-121741000D01*
X120798380Y-121645761D01*
X120750761Y-121502904D01*
X120703142Y-121455285D01*
X120369809Y-121455285D01*
X120369809Y-121645761D01*
X120798380Y-121026714D02*
X119798380Y-121026714D01*
X120798380Y-120455285D01*
X119798380Y-120455285D01*
X120798380Y-119979095D02*
X119798380Y-119979095D01*
X119798380Y-119741000D01*
X119846000Y-119598142D01*
X119941238Y-119502904D01*
X120036476Y-119455285D01*
X120226952Y-119407666D01*
X120369809Y-119407666D01*
X120560285Y-119455285D01*
X120655523Y-119502904D01*
X120750761Y-119598142D01*
X120798380Y-119741000D01*
X120798380Y-119979095D01*
X122338380Y-122264809D02*
X123338380Y-121931476D01*
X122338380Y-121598142D01*
X123338380Y-121121952D02*
X123290761Y-121217190D01*
X123243142Y-121264809D01*
X123147904Y-121312428D01*
X122862190Y-121312428D01*
X122766952Y-121264809D01*
X122719333Y-121217190D01*
X122671714Y-121121952D01*
X122671714Y-120979095D01*
X122719333Y-120883857D01*
X122766952Y-120836238D01*
X122862190Y-120788619D01*
X123147904Y-120788619D01*
X123243142Y-120836238D01*
X123290761Y-120883857D01*
X123338380Y-120979095D01*
X123338380Y-121121952D01*
X122671714Y-119931476D02*
X123338380Y-119931476D01*
X122671714Y-120360047D02*
X123195523Y-120360047D01*
X123290761Y-120312428D01*
X123338380Y-120217190D01*
X123338380Y-120074333D01*
X123290761Y-119979095D01*
X123243142Y-119931476D01*
X122671714Y-119598142D02*
X122671714Y-119217190D01*
X122338380Y-119455285D02*
X123195523Y-119455285D01*
X123290761Y-119407666D01*
X123338380Y-119312428D01*
X123338380Y-119217190D01*
X138604666Y-137628380D02*
X138604666Y-138342666D01*
X138557047Y-138485523D01*
X138461809Y-138580761D01*
X138318952Y-138628380D01*
X138223714Y-138628380D01*
X139033238Y-137723619D02*
X139080857Y-137676000D01*
X139176095Y-137628380D01*
X139414190Y-137628380D01*
X139509428Y-137676000D01*
X139557047Y-137723619D01*
X139604666Y-137818857D01*
X139604666Y-137914095D01*
X139557047Y-138056952D01*
X138985619Y-138628380D01*
X139604666Y-138628380D01*
X98472666Y-73874380D02*
X98472666Y-74588666D01*
X98425047Y-74731523D01*
X98329809Y-74826761D01*
X98186952Y-74874380D01*
X98091714Y-74874380D01*
X99377428Y-74207714D02*
X99377428Y-74874380D01*
X99139333Y-73826761D02*
X98901238Y-74541047D01*
X99520285Y-74541047D01*
X122602666Y-107148380D02*
X122602666Y-107862666D01*
X122555047Y-108005523D01*
X122459809Y-108100761D01*
X122316952Y-108148380D01*
X122221714Y-108148380D01*
X123507428Y-107148380D02*
X123316952Y-107148380D01*
X123221714Y-107196000D01*
X123174095Y-107243619D01*
X123078857Y-107386476D01*
X123031238Y-107576952D01*
X123031238Y-107957904D01*
X123078857Y-108053142D01*
X123126476Y-108100761D01*
X123221714Y-108148380D01*
X123412190Y-108148380D01*
X123507428Y-108100761D01*
X123555047Y-108053142D01*
X123602666Y-107957904D01*
X123602666Y-107719809D01*
X123555047Y-107624571D01*
X123507428Y-107576952D01*
X123412190Y-107529333D01*
X123221714Y-107529333D01*
X123126476Y-107576952D01*
X123078857Y-107624571D01*
X123031238Y-107719809D01*
X124094952Y-100020380D02*
X123523523Y-100020380D01*
X123809238Y-100020380D02*
X123809238Y-99020380D01*
X123714000Y-99163238D01*
X123618761Y-99258476D01*
X123523523Y-99306095D01*
X124475904Y-99115619D02*
X124523523Y-99068000D01*
X124618761Y-99020380D01*
X124856857Y-99020380D01*
X124952095Y-99068000D01*
X124999714Y-99115619D01*
X125047333Y-99210857D01*
X125047333Y-99306095D01*
X124999714Y-99448952D01*
X124428285Y-100020380D01*
X125047333Y-100020380D01*
X125333047Y-99020380D02*
X125666380Y-100020380D01*
X125999714Y-99020380D01*
X120650095Y-99068000D02*
X120554857Y-99020380D01*
X120412000Y-99020380D01*
X120269142Y-99068000D01*
X120173904Y-99163238D01*
X120126285Y-99258476D01*
X120078666Y-99448952D01*
X120078666Y-99591809D01*
X120126285Y-99782285D01*
X120173904Y-99877523D01*
X120269142Y-99972761D01*
X120412000Y-100020380D01*
X120507238Y-100020380D01*
X120650095Y-99972761D01*
X120697714Y-99925142D01*
X120697714Y-99591809D01*
X120507238Y-99591809D01*
X121126285Y-100020380D02*
X121126285Y-99020380D01*
X121697714Y-100020380D01*
X121697714Y-99020380D01*
X122173904Y-100020380D02*
X122173904Y-99020380D01*
X122412000Y-99020380D01*
X122554857Y-99068000D01*
X122650095Y-99163238D01*
X122697714Y-99258476D01*
X122745333Y-99448952D01*
X122745333Y-99591809D01*
X122697714Y-99782285D01*
X122650095Y-99877523D01*
X122554857Y-99972761D01*
X122412000Y-100020380D01*
X122173904Y-100020380D01*
X130984666Y-107148380D02*
X130984666Y-107862666D01*
X130937047Y-108005523D01*
X130841809Y-108100761D01*
X130698952Y-108148380D01*
X130603714Y-108148380D01*
X131365619Y-107148380D02*
X132032285Y-107148380D01*
X131603714Y-108148380D01*
X133159523Y-99020380D02*
X132683333Y-99020380D01*
X132635714Y-99496571D01*
X132683333Y-99448952D01*
X132778571Y-99401333D01*
X133016666Y-99401333D01*
X133111904Y-99448952D01*
X133159523Y-99496571D01*
X133207142Y-99591809D01*
X133207142Y-99829904D01*
X133159523Y-99925142D01*
X133111904Y-99972761D01*
X133016666Y-100020380D01*
X132778571Y-100020380D01*
X132683333Y-99972761D01*
X132635714Y-99925142D01*
X133492857Y-99020380D02*
X133826190Y-100020380D01*
X134159523Y-99020380D01*
X129286095Y-99068000D02*
X129190857Y-99020380D01*
X129048000Y-99020380D01*
X128905142Y-99068000D01*
X128809904Y-99163238D01*
X128762285Y-99258476D01*
X128714666Y-99448952D01*
X128714666Y-99591809D01*
X128762285Y-99782285D01*
X128809904Y-99877523D01*
X128905142Y-99972761D01*
X129048000Y-100020380D01*
X129143238Y-100020380D01*
X129286095Y-99972761D01*
X129333714Y-99925142D01*
X129333714Y-99591809D01*
X129143238Y-99591809D01*
X129762285Y-100020380D02*
X129762285Y-99020380D01*
X130333714Y-100020380D01*
X130333714Y-99020380D01*
X130809904Y-100020380D02*
X130809904Y-99020380D01*
X131048000Y-99020380D01*
X131190857Y-99068000D01*
X131286095Y-99163238D01*
X131333714Y-99258476D01*
X131381333Y-99448952D01*
X131381333Y-99591809D01*
X131333714Y-99782285D01*
X131286095Y-99877523D01*
X131190857Y-99972761D01*
X131048000Y-100020380D01*
X130809904Y-100020380D01*
X139366666Y-107184380D02*
X139366666Y-107898666D01*
X139319047Y-108041523D01*
X139223809Y-108136761D01*
X139080952Y-108184380D01*
X138985714Y-108184380D01*
X139985714Y-107612952D02*
X139890476Y-107565333D01*
X139842857Y-107517714D01*
X139795238Y-107422476D01*
X139795238Y-107374857D01*
X139842857Y-107279619D01*
X139890476Y-107232000D01*
X139985714Y-107184380D01*
X140176190Y-107184380D01*
X140271428Y-107232000D01*
X140319047Y-107279619D01*
X140366666Y-107374857D01*
X140366666Y-107422476D01*
X140319047Y-107517714D01*
X140271428Y-107565333D01*
X140176190Y-107612952D01*
X139985714Y-107612952D01*
X139890476Y-107660571D01*
X139842857Y-107708190D01*
X139795238Y-107803428D01*
X139795238Y-107993904D01*
X139842857Y-108089142D01*
X139890476Y-108136761D01*
X139985714Y-108184380D01*
X140176190Y-108184380D01*
X140271428Y-108136761D01*
X140319047Y-108089142D01*
X140366666Y-107993904D01*
X140366666Y-107803428D01*
X140319047Y-107708190D01*
X140271428Y-107660571D01*
X140176190Y-107612952D01*
X137160095Y-99068000D02*
X137064857Y-99020380D01*
X136922000Y-99020380D01*
X136779142Y-99068000D01*
X136683904Y-99163238D01*
X136636285Y-99258476D01*
X136588666Y-99448952D01*
X136588666Y-99591809D01*
X136636285Y-99782285D01*
X136683904Y-99877523D01*
X136779142Y-99972761D01*
X136922000Y-100020380D01*
X137017238Y-100020380D01*
X137160095Y-99972761D01*
X137207714Y-99925142D01*
X137207714Y-99591809D01*
X137017238Y-99591809D01*
X137636285Y-100020380D02*
X137636285Y-99020380D01*
X138207714Y-100020380D01*
X138207714Y-99020380D01*
X138683904Y-100020380D02*
X138683904Y-99020380D01*
X138922000Y-99020380D01*
X139064857Y-99068000D01*
X139160095Y-99163238D01*
X139207714Y-99258476D01*
X139255333Y-99448952D01*
X139255333Y-99591809D01*
X139207714Y-99782285D01*
X139160095Y-99877523D01*
X139064857Y-99972761D01*
X138922000Y-100020380D01*
X138683904Y-100020380D01*
X140239904Y-99020380D02*
X140858952Y-99020380D01*
X140525619Y-99401333D01*
X140668476Y-99401333D01*
X140763714Y-99448952D01*
X140811333Y-99496571D01*
X140858952Y-99591809D01*
X140858952Y-99829904D01*
X140811333Y-99925142D01*
X140763714Y-99972761D01*
X140668476Y-100020380D01*
X140382761Y-100020380D01*
X140287523Y-99972761D01*
X140239904Y-99925142D01*
X141144666Y-99020380D02*
X141478000Y-100020380D01*
X141811333Y-99020380D01*
X142049428Y-99020380D02*
X142668476Y-99020380D01*
X142335142Y-99401333D01*
X142478000Y-99401333D01*
X142573238Y-99448952D01*
X142620857Y-99496571D01*
X142668476Y-99591809D01*
X142668476Y-99829904D01*
X142620857Y-99925142D01*
X142573238Y-99972761D01*
X142478000Y-100020380D01*
X142192285Y-100020380D01*
X142097047Y-99972761D01*
X142049428Y-99925142D01*
X118268761Y-150329619D02*
X118173523Y-150282000D01*
X118078285Y-150186761D01*
X117935428Y-150043904D01*
X117840190Y-149996285D01*
X117744952Y-149996285D01*
X117792571Y-150234380D02*
X117697333Y-150186761D01*
X117602095Y-150091523D01*
X117554476Y-149901047D01*
X117554476Y-149567714D01*
X117602095Y-149377238D01*
X117697333Y-149282000D01*
X117792571Y-149234380D01*
X117983047Y-149234380D01*
X118078285Y-149282000D01*
X118173523Y-149377238D01*
X118221142Y-149567714D01*
X118221142Y-149901047D01*
X118173523Y-150091523D01*
X118078285Y-150186761D01*
X117983047Y-150234380D01*
X117792571Y-150234380D01*
X119173523Y-150234380D02*
X118602095Y-150234380D01*
X118887809Y-150234380D02*
X118887809Y-149234380D01*
X118792571Y-149377238D01*
X118697333Y-149472476D01*
X118602095Y-149520095D01*
X124110761Y-139661619D02*
X124015523Y-139614000D01*
X123920285Y-139518761D01*
X123777428Y-139375904D01*
X123682190Y-139328285D01*
X123586952Y-139328285D01*
X123634571Y-139566380D02*
X123539333Y-139518761D01*
X123444095Y-139423523D01*
X123396476Y-139233047D01*
X123396476Y-138899714D01*
X123444095Y-138709238D01*
X123539333Y-138614000D01*
X123634571Y-138566380D01*
X123825047Y-138566380D01*
X123920285Y-138614000D01*
X124015523Y-138709238D01*
X124063142Y-138899714D01*
X124063142Y-139233047D01*
X124015523Y-139423523D01*
X123920285Y-139518761D01*
X123825047Y-139566380D01*
X123634571Y-139566380D01*
X124444095Y-138661619D02*
X124491714Y-138614000D01*
X124586952Y-138566380D01*
X124825047Y-138566380D01*
X124920285Y-138614000D01*
X124967904Y-138661619D01*
X125015523Y-138756857D01*
X125015523Y-138852095D01*
X124967904Y-138994952D01*
X124396476Y-139566380D01*
X125015523Y-139566380D01*
X124275333Y-112371142D02*
X124227714Y-112418761D01*
X124084857Y-112466380D01*
X123989619Y-112466380D01*
X123846761Y-112418761D01*
X123751523Y-112323523D01*
X123703904Y-112228285D01*
X123656285Y-112037809D01*
X123656285Y-111894952D01*
X123703904Y-111704476D01*
X123751523Y-111609238D01*
X123846761Y-111514000D01*
X123989619Y-111466380D01*
X124084857Y-111466380D01*
X124227714Y-111514000D01*
X124275333Y-111561619D01*
X125132476Y-111799714D02*
X125132476Y-112466380D01*
X124894380Y-111418761D02*
X124656285Y-112133047D01*
X125275333Y-112133047D01*
X115920333Y-110180380D02*
X115587000Y-109704190D01*
X115348904Y-110180380D02*
X115348904Y-109180380D01*
X115729857Y-109180380D01*
X115825095Y-109228000D01*
X115872714Y-109275619D01*
X115920333Y-109370857D01*
X115920333Y-109513714D01*
X115872714Y-109608952D01*
X115825095Y-109656571D01*
X115729857Y-109704190D01*
X115348904Y-109704190D01*
X116301285Y-109275619D02*
X116348904Y-109228000D01*
X116444142Y-109180380D01*
X116682238Y-109180380D01*
X116777476Y-109228000D01*
X116825095Y-109275619D01*
X116872714Y-109370857D01*
X116872714Y-109466095D01*
X116825095Y-109608952D01*
X116253666Y-110180380D01*
X116872714Y-110180380D01*
X115507642Y-106051880D02*
X115174309Y-105575690D01*
X114936214Y-106051880D02*
X114936214Y-105051880D01*
X115317166Y-105051880D01*
X115412404Y-105099500D01*
X115460023Y-105147119D01*
X115507642Y-105242357D01*
X115507642Y-105385214D01*
X115460023Y-105480452D01*
X115412404Y-105528071D01*
X115317166Y-105575690D01*
X114936214Y-105575690D01*
X116460023Y-106051880D02*
X115888595Y-106051880D01*
X116174309Y-106051880D02*
X116174309Y-105051880D01*
X116079071Y-105194738D01*
X115983833Y-105289976D01*
X115888595Y-105337595D01*
X117412404Y-106051880D02*
X116840976Y-106051880D01*
X117126690Y-106051880D02*
X117126690Y-105051880D01*
X117031452Y-105194738D01*
X116936214Y-105289976D01*
X116840976Y-105337595D01*
X115451142Y-102331780D02*
X115117809Y-101855590D01*
X114879714Y-102331780D02*
X114879714Y-101331780D01*
X115260666Y-101331780D01*
X115355904Y-101379400D01*
X115403523Y-101427019D01*
X115451142Y-101522257D01*
X115451142Y-101665114D01*
X115403523Y-101760352D01*
X115355904Y-101807971D01*
X115260666Y-101855590D01*
X114879714Y-101855590D01*
X116403523Y-102331780D02*
X115832095Y-102331780D01*
X116117809Y-102331780D02*
X116117809Y-101331780D01*
X116022571Y-101474638D01*
X115927333Y-101569876D01*
X115832095Y-101617495D01*
X116736857Y-101331780D02*
X117355904Y-101331780D01*
X117022571Y-101712733D01*
X117165428Y-101712733D01*
X117260666Y-101760352D01*
X117308285Y-101807971D01*
X117355904Y-101903209D01*
X117355904Y-102141304D01*
X117308285Y-102236542D01*
X117260666Y-102284161D01*
X117165428Y-102331780D01*
X116879714Y-102331780D01*
X116784476Y-102284161D01*
X116736857Y-102236542D01*
X139565142Y-82748380D02*
X139231809Y-82272190D01*
X138993714Y-82748380D02*
X138993714Y-81748380D01*
X139374666Y-81748380D01*
X139469904Y-81796000D01*
X139517523Y-81843619D01*
X139565142Y-81938857D01*
X139565142Y-82081714D01*
X139517523Y-82176952D01*
X139469904Y-82224571D01*
X139374666Y-82272190D01*
X138993714Y-82272190D01*
X140517523Y-82748380D02*
X139946095Y-82748380D01*
X140231809Y-82748380D02*
X140231809Y-81748380D01*
X140136571Y-81891238D01*
X140041333Y-81986476D01*
X139946095Y-82034095D01*
X141374666Y-82081714D02*
X141374666Y-82748380D01*
X141136571Y-81700761D02*
X140898476Y-82415047D01*
X141517523Y-82415047D01*
X139549142Y-86558380D02*
X139215809Y-86082190D01*
X138977714Y-86558380D02*
X138977714Y-85558380D01*
X139358666Y-85558380D01*
X139453904Y-85606000D01*
X139501523Y-85653619D01*
X139549142Y-85748857D01*
X139549142Y-85891714D01*
X139501523Y-85986952D01*
X139453904Y-86034571D01*
X139358666Y-86082190D01*
X138977714Y-86082190D01*
X140501523Y-86558380D02*
X139930095Y-86558380D01*
X140215809Y-86558380D02*
X140215809Y-85558380D01*
X140120571Y-85701238D01*
X140025333Y-85796476D01*
X139930095Y-85844095D01*
X141406285Y-85558380D02*
X140930095Y-85558380D01*
X140882476Y-86034571D01*
X140930095Y-85986952D01*
X141025333Y-85939333D01*
X141263428Y-85939333D01*
X141358666Y-85986952D01*
X141406285Y-86034571D01*
X141453904Y-86129809D01*
X141453904Y-86367904D01*
X141406285Y-86463142D01*
X141358666Y-86510761D01*
X141263428Y-86558380D01*
X141025333Y-86558380D01*
X140930095Y-86510761D01*
X140882476Y-86463142D01*
X115451142Y-98622380D02*
X115117809Y-98146190D01*
X114879714Y-98622380D02*
X114879714Y-97622380D01*
X115260666Y-97622380D01*
X115355904Y-97670000D01*
X115403523Y-97717619D01*
X115451142Y-97812857D01*
X115451142Y-97955714D01*
X115403523Y-98050952D01*
X115355904Y-98098571D01*
X115260666Y-98146190D01*
X114879714Y-98146190D01*
X116403523Y-98622380D02*
X115832095Y-98622380D01*
X116117809Y-98622380D02*
X116117809Y-97622380D01*
X116022571Y-97765238D01*
X115927333Y-97860476D01*
X115832095Y-97908095D01*
X117260666Y-97622380D02*
X117070190Y-97622380D01*
X116974952Y-97670000D01*
X116927333Y-97717619D01*
X116832095Y-97860476D01*
X116784476Y-98050952D01*
X116784476Y-98431904D01*
X116832095Y-98527142D01*
X116879714Y-98574761D01*
X116974952Y-98622380D01*
X117165428Y-98622380D01*
X117260666Y-98574761D01*
X117308285Y-98527142D01*
X117355904Y-98431904D01*
X117355904Y-98193809D01*
X117308285Y-98098571D01*
X117260666Y-98050952D01*
X117165428Y-98003333D01*
X116974952Y-98003333D01*
X116879714Y-98050952D01*
X116832095Y-98098571D01*
X116784476Y-98193809D01*
X104974380Y-153328666D02*
X104498190Y-153662000D01*
X104974380Y-153900095D02*
X103974380Y-153900095D01*
X103974380Y-153519142D01*
X104022000Y-153423904D01*
X104069619Y-153376285D01*
X104164857Y-153328666D01*
X104307714Y-153328666D01*
X104402952Y-153376285D01*
X104450571Y-153423904D01*
X104498190Y-153519142D01*
X104498190Y-153900095D01*
X103974380Y-152995333D02*
X103974380Y-152376285D01*
X104355333Y-152709619D01*
X104355333Y-152566761D01*
X104402952Y-152471523D01*
X104450571Y-152423904D01*
X104545809Y-152376285D01*
X104783904Y-152376285D01*
X104879142Y-152423904D01*
X104926761Y-152471523D01*
X104974380Y-152566761D01*
X104974380Y-152852476D01*
X104926761Y-152947714D01*
X104879142Y-152995333D01*
X101164380Y-153328666D02*
X100688190Y-153662000D01*
X101164380Y-153900095D02*
X100164380Y-153900095D01*
X100164380Y-153519142D01*
X100212000Y-153423904D01*
X100259619Y-153376285D01*
X100354857Y-153328666D01*
X100497714Y-153328666D01*
X100592952Y-153376285D01*
X100640571Y-153423904D01*
X100688190Y-153519142D01*
X100688190Y-153900095D01*
X100497714Y-152471523D02*
X101164380Y-152471523D01*
X100116761Y-152709619D02*
X100831047Y-152947714D01*
X100831047Y-152328666D01*
X104974380Y-148248666D02*
X104498190Y-148582000D01*
X104974380Y-148820095D02*
X103974380Y-148820095D01*
X103974380Y-148439142D01*
X104022000Y-148343904D01*
X104069619Y-148296285D01*
X104164857Y-148248666D01*
X104307714Y-148248666D01*
X104402952Y-148296285D01*
X104450571Y-148343904D01*
X104498190Y-148439142D01*
X104498190Y-148820095D01*
X103974380Y-147343904D02*
X103974380Y-147820095D01*
X104450571Y-147867714D01*
X104402952Y-147820095D01*
X104355333Y-147724857D01*
X104355333Y-147486761D01*
X104402952Y-147391523D01*
X104450571Y-147343904D01*
X104545809Y-147296285D01*
X104783904Y-147296285D01*
X104879142Y-147343904D01*
X104926761Y-147391523D01*
X104974380Y-147486761D01*
X104974380Y-147724857D01*
X104926761Y-147820095D01*
X104879142Y-147867714D01*
X101036380Y-148308466D02*
X100560190Y-148641800D01*
X101036380Y-148879895D02*
X100036380Y-148879895D01*
X100036380Y-148498942D01*
X100084000Y-148403704D01*
X100131619Y-148356085D01*
X100226857Y-148308466D01*
X100369714Y-148308466D01*
X100464952Y-148356085D01*
X100512571Y-148403704D01*
X100560190Y-148498942D01*
X100560190Y-148879895D01*
X100036380Y-147451323D02*
X100036380Y-147641800D01*
X100084000Y-147737038D01*
X100131619Y-147784657D01*
X100274476Y-147879895D01*
X100464952Y-147927514D01*
X100845904Y-147927514D01*
X100941142Y-147879895D01*
X100988761Y-147832276D01*
X101036380Y-147737038D01*
X101036380Y-147546561D01*
X100988761Y-147451323D01*
X100941142Y-147403704D01*
X100845904Y-147356085D01*
X100607809Y-147356085D01*
X100512571Y-147403704D01*
X100464952Y-147451323D01*
X100417333Y-147546561D01*
X100417333Y-147737038D01*
X100464952Y-147832276D01*
X100512571Y-147879895D01*
X100607809Y-147927514D01*
X112594380Y-148248666D02*
X112118190Y-148582000D01*
X112594380Y-148820095D02*
X111594380Y-148820095D01*
X111594380Y-148439142D01*
X111642000Y-148343904D01*
X111689619Y-148296285D01*
X111784857Y-148248666D01*
X111927714Y-148248666D01*
X112022952Y-148296285D01*
X112070571Y-148343904D01*
X112118190Y-148439142D01*
X112118190Y-148820095D01*
X111594380Y-147915333D02*
X111594380Y-147248666D01*
X112594380Y-147677238D01*
X108784380Y-153328666D02*
X108308190Y-153662000D01*
X108784380Y-153900095D02*
X107784380Y-153900095D01*
X107784380Y-153519142D01*
X107832000Y-153423904D01*
X107879619Y-153376285D01*
X107974857Y-153328666D01*
X108117714Y-153328666D01*
X108212952Y-153376285D01*
X108260571Y-153423904D01*
X108308190Y-153519142D01*
X108308190Y-153900095D01*
X108212952Y-152757238D02*
X108165333Y-152852476D01*
X108117714Y-152900095D01*
X108022476Y-152947714D01*
X107974857Y-152947714D01*
X107879619Y-152900095D01*
X107832000Y-152852476D01*
X107784380Y-152757238D01*
X107784380Y-152566761D01*
X107832000Y-152471523D01*
X107879619Y-152423904D01*
X107974857Y-152376285D01*
X108022476Y-152376285D01*
X108117714Y-152423904D01*
X108165333Y-152471523D01*
X108212952Y-152566761D01*
X108212952Y-152757238D01*
X108260571Y-152852476D01*
X108308190Y-152900095D01*
X108403428Y-152947714D01*
X108593904Y-152947714D01*
X108689142Y-152900095D01*
X108736761Y-152852476D01*
X108784380Y-152757238D01*
X108784380Y-152566761D01*
X108736761Y-152471523D01*
X108689142Y-152423904D01*
X108593904Y-152376285D01*
X108403428Y-152376285D01*
X108308190Y-152423904D01*
X108260571Y-152471523D01*
X108212952Y-152566761D01*
X112594380Y-153328666D02*
X112118190Y-153662000D01*
X112594380Y-153900095D02*
X111594380Y-153900095D01*
X111594380Y-153519142D01*
X111642000Y-153423904D01*
X111689619Y-153376285D01*
X111784857Y-153328666D01*
X111927714Y-153328666D01*
X112022952Y-153376285D01*
X112070571Y-153423904D01*
X112118190Y-153519142D01*
X112118190Y-153900095D01*
X112594380Y-152852476D02*
X112594380Y-152662000D01*
X112546761Y-152566761D01*
X112499142Y-152519142D01*
X112356285Y-152423904D01*
X112165809Y-152376285D01*
X111784857Y-152376285D01*
X111689619Y-152423904D01*
X111642000Y-152471523D01*
X111594380Y-152566761D01*
X111594380Y-152757238D01*
X111642000Y-152852476D01*
X111689619Y-152900095D01*
X111784857Y-152947714D01*
X112022952Y-152947714D01*
X112118190Y-152900095D01*
X112165809Y-152852476D01*
X112213428Y-152757238D01*
X112213428Y-152566761D01*
X112165809Y-152471523D01*
X112118190Y-152423904D01*
X112022952Y-152376285D01*
X108784380Y-148724857D02*
X108308190Y-149058190D01*
X108784380Y-149296285D02*
X107784380Y-149296285D01*
X107784380Y-148915333D01*
X107832000Y-148820095D01*
X107879619Y-148772476D01*
X107974857Y-148724857D01*
X108117714Y-148724857D01*
X108212952Y-148772476D01*
X108260571Y-148820095D01*
X108308190Y-148915333D01*
X108308190Y-149296285D01*
X108784380Y-147772476D02*
X108784380Y-148343904D01*
X108784380Y-148058190D02*
X107784380Y-148058190D01*
X107927238Y-148153428D01*
X108022476Y-148248666D01*
X108070095Y-148343904D01*
X107784380Y-147153428D02*
X107784380Y-147058190D01*
X107832000Y-146962952D01*
X107879619Y-146915333D01*
X107974857Y-146867714D01*
X108165333Y-146820095D01*
X108403428Y-146820095D01*
X108593904Y-146867714D01*
X108689142Y-146915333D01*
X108736761Y-146962952D01*
X108784380Y-147058190D01*
X108784380Y-147153428D01*
X108736761Y-147248666D01*
X108689142Y-147296285D01*
X108593904Y-147343904D01*
X108403428Y-147391523D01*
X108165333Y-147391523D01*
X107974857Y-147343904D01*
X107879619Y-147296285D01*
X107832000Y-147248666D01*
X107784380Y-147153428D01*
X139549142Y-90368380D02*
X139215809Y-89892190D01*
X138977714Y-90368380D02*
X138977714Y-89368380D01*
X139358666Y-89368380D01*
X139453904Y-89416000D01*
X139501523Y-89463619D01*
X139549142Y-89558857D01*
X139549142Y-89701714D01*
X139501523Y-89796952D01*
X139453904Y-89844571D01*
X139358666Y-89892190D01*
X138977714Y-89892190D01*
X140501523Y-90368380D02*
X139930095Y-90368380D01*
X140215809Y-90368380D02*
X140215809Y-89368380D01*
X140120571Y-89511238D01*
X140025333Y-89606476D01*
X139930095Y-89654095D01*
X140834857Y-89368380D02*
X141501523Y-89368380D01*
X141072952Y-90368380D01*
X110054380Y-98162857D02*
X109578190Y-98496190D01*
X110054380Y-98734285D02*
X109054380Y-98734285D01*
X109054380Y-98353333D01*
X109102000Y-98258095D01*
X109149619Y-98210476D01*
X109244857Y-98162857D01*
X109387714Y-98162857D01*
X109482952Y-98210476D01*
X109530571Y-98258095D01*
X109578190Y-98353333D01*
X109578190Y-98734285D01*
X110054380Y-97210476D02*
X110054380Y-97781904D01*
X110054380Y-97496190D02*
X109054380Y-97496190D01*
X109197238Y-97591428D01*
X109292476Y-97686666D01*
X109340095Y-97781904D01*
X109482952Y-96639047D02*
X109435333Y-96734285D01*
X109387714Y-96781904D01*
X109292476Y-96829523D01*
X109244857Y-96829523D01*
X109149619Y-96781904D01*
X109102000Y-96734285D01*
X109054380Y-96639047D01*
X109054380Y-96448571D01*
X109102000Y-96353333D01*
X109149619Y-96305714D01*
X109244857Y-96258095D01*
X109292476Y-96258095D01*
X109387714Y-96305714D01*
X109435333Y-96353333D01*
X109482952Y-96448571D01*
X109482952Y-96639047D01*
X109530571Y-96734285D01*
X109578190Y-96781904D01*
X109673428Y-96829523D01*
X109863904Y-96829523D01*
X109959142Y-96781904D01*
X110006761Y-96734285D01*
X110054380Y-96639047D01*
X110054380Y-96448571D01*
X110006761Y-96353333D01*
X109959142Y-96305714D01*
X109863904Y-96258095D01*
X109673428Y-96258095D01*
X109578190Y-96305714D01*
X109530571Y-96353333D01*
X109482952Y-96448571D01*
X139565142Y-94050380D02*
X139231809Y-93574190D01*
X138993714Y-94050380D02*
X138993714Y-93050380D01*
X139374666Y-93050380D01*
X139469904Y-93098000D01*
X139517523Y-93145619D01*
X139565142Y-93240857D01*
X139565142Y-93383714D01*
X139517523Y-93478952D01*
X139469904Y-93526571D01*
X139374666Y-93574190D01*
X138993714Y-93574190D01*
X139946095Y-93145619D02*
X139993714Y-93098000D01*
X140088952Y-93050380D01*
X140327047Y-93050380D01*
X140422285Y-93098000D01*
X140469904Y-93145619D01*
X140517523Y-93240857D01*
X140517523Y-93336095D01*
X140469904Y-93478952D01*
X139898476Y-94050380D01*
X140517523Y-94050380D01*
X141422285Y-93050380D02*
X140946095Y-93050380D01*
X140898476Y-93526571D01*
X140946095Y-93478952D01*
X141041333Y-93431333D01*
X141279428Y-93431333D01*
X141374666Y-93478952D01*
X141422285Y-93526571D01*
X141469904Y-93621809D01*
X141469904Y-93859904D01*
X141422285Y-93955142D01*
X141374666Y-94002761D01*
X141279428Y-94050380D01*
X141041333Y-94050380D01*
X140946095Y-94002761D01*
X140898476Y-93955142D01*
X144391142Y-80970380D02*
X144057809Y-80494190D01*
X143819714Y-80970380D02*
X143819714Y-79970380D01*
X144200666Y-79970380D01*
X144295904Y-80018000D01*
X144343523Y-80065619D01*
X144391142Y-80160857D01*
X144391142Y-80303714D01*
X144343523Y-80398952D01*
X144295904Y-80446571D01*
X144200666Y-80494190D01*
X143819714Y-80494190D01*
X144772095Y-80065619D02*
X144819714Y-80018000D01*
X144914952Y-79970380D01*
X145153047Y-79970380D01*
X145248285Y-80018000D01*
X145295904Y-80065619D01*
X145343523Y-80160857D01*
X145343523Y-80256095D01*
X145295904Y-80398952D01*
X144724476Y-80970380D01*
X145343523Y-80970380D01*
X146200666Y-79970380D02*
X146010190Y-79970380D01*
X145914952Y-80018000D01*
X145867333Y-80065619D01*
X145772095Y-80208476D01*
X145724476Y-80398952D01*
X145724476Y-80779904D01*
X145772095Y-80875142D01*
X145819714Y-80922761D01*
X145914952Y-80970380D01*
X146105428Y-80970380D01*
X146200666Y-80922761D01*
X146248285Y-80875142D01*
X146295904Y-80779904D01*
X146295904Y-80541809D01*
X146248285Y-80446571D01*
X146200666Y-80398952D01*
X146105428Y-80351333D01*
X145914952Y-80351333D01*
X145819714Y-80398952D01*
X145772095Y-80446571D01*
X145724476Y-80541809D01*
X125292380Y-153804857D02*
X124816190Y-154138190D01*
X125292380Y-154376285D02*
X124292380Y-154376285D01*
X124292380Y-153995333D01*
X124340000Y-153900095D01*
X124387619Y-153852476D01*
X124482857Y-153804857D01*
X124625714Y-153804857D01*
X124720952Y-153852476D01*
X124768571Y-153900095D01*
X124816190Y-153995333D01*
X124816190Y-154376285D01*
X124387619Y-153423904D02*
X124340000Y-153376285D01*
X124292380Y-153281047D01*
X124292380Y-153042952D01*
X124340000Y-152947714D01*
X124387619Y-152900095D01*
X124482857Y-152852476D01*
X124578095Y-152852476D01*
X124720952Y-152900095D01*
X125292380Y-153471523D01*
X125292380Y-152852476D01*
X125292380Y-151900095D02*
X125292380Y-152471523D01*
X125292380Y-152185809D02*
X124292380Y-152185809D01*
X124435238Y-152281047D01*
X124530476Y-152376285D01*
X124578095Y-152471523D01*
X125420380Y-148978857D02*
X124944190Y-149312190D01*
X125420380Y-149550285D02*
X124420380Y-149550285D01*
X124420380Y-149169333D01*
X124468000Y-149074095D01*
X124515619Y-149026476D01*
X124610857Y-148978857D01*
X124753714Y-148978857D01*
X124848952Y-149026476D01*
X124896571Y-149074095D01*
X124944190Y-149169333D01*
X124944190Y-149550285D01*
X124515619Y-148597904D02*
X124468000Y-148550285D01*
X124420380Y-148455047D01*
X124420380Y-148216952D01*
X124468000Y-148121714D01*
X124515619Y-148074095D01*
X124610857Y-148026476D01*
X124706095Y-148026476D01*
X124848952Y-148074095D01*
X125420380Y-148645523D01*
X125420380Y-148026476D01*
X124515619Y-147645523D02*
X124468000Y-147597904D01*
X124420380Y-147502666D01*
X124420380Y-147264571D01*
X124468000Y-147169333D01*
X124515619Y-147121714D01*
X124610857Y-147074095D01*
X124706095Y-147074095D01*
X124848952Y-147121714D01*
X125420380Y-147693142D01*
X125420380Y-147074095D01*
X133977142Y-133166380D02*
X133643809Y-132690190D01*
X133405714Y-133166380D02*
X133405714Y-132166380D01*
X133786666Y-132166380D01*
X133881904Y-132214000D01*
X133929523Y-132261619D01*
X133977142Y-132356857D01*
X133977142Y-132499714D01*
X133929523Y-132594952D01*
X133881904Y-132642571D01*
X133786666Y-132690190D01*
X133405714Y-132690190D01*
X134358095Y-132261619D02*
X134405714Y-132214000D01*
X134500952Y-132166380D01*
X134739047Y-132166380D01*
X134834285Y-132214000D01*
X134881904Y-132261619D01*
X134929523Y-132356857D01*
X134929523Y-132452095D01*
X134881904Y-132594952D01*
X134310476Y-133166380D01*
X134929523Y-133166380D01*
X135262857Y-132166380D02*
X135929523Y-132166380D01*
X135500952Y-133166380D01*
X124071142Y-141804380D02*
X123737809Y-141328190D01*
X123499714Y-141804380D02*
X123499714Y-140804380D01*
X123880666Y-140804380D01*
X123975904Y-140852000D01*
X124023523Y-140899619D01*
X124071142Y-140994857D01*
X124071142Y-141137714D01*
X124023523Y-141232952D01*
X123975904Y-141280571D01*
X123880666Y-141328190D01*
X123499714Y-141328190D01*
X125023523Y-141804380D02*
X124452095Y-141804380D01*
X124737809Y-141804380D02*
X124737809Y-140804380D01*
X124642571Y-140947238D01*
X124547333Y-141042476D01*
X124452095Y-141090095D01*
X125404476Y-140899619D02*
X125452095Y-140852000D01*
X125547333Y-140804380D01*
X125785428Y-140804380D01*
X125880666Y-140852000D01*
X125928285Y-140899619D01*
X125975904Y-140994857D01*
X125975904Y-141090095D01*
X125928285Y-141232952D01*
X125356857Y-141804380D01*
X125975904Y-141804380D01*
X128389142Y-136850380D02*
X128055809Y-136374190D01*
X127817714Y-136850380D02*
X127817714Y-135850380D01*
X128198666Y-135850380D01*
X128293904Y-135898000D01*
X128341523Y-135945619D01*
X128389142Y-136040857D01*
X128389142Y-136183714D01*
X128341523Y-136278952D01*
X128293904Y-136326571D01*
X128198666Y-136374190D01*
X127817714Y-136374190D01*
X128770095Y-135945619D02*
X128817714Y-135898000D01*
X128912952Y-135850380D01*
X129151047Y-135850380D01*
X129246285Y-135898000D01*
X129293904Y-135945619D01*
X129341523Y-136040857D01*
X129341523Y-136136095D01*
X129293904Y-136278952D01*
X128722476Y-136850380D01*
X129341523Y-136850380D01*
X129960571Y-135850380D02*
X130055809Y-135850380D01*
X130151047Y-135898000D01*
X130198666Y-135945619D01*
X130246285Y-136040857D01*
X130293904Y-136231333D01*
X130293904Y-136469428D01*
X130246285Y-136659904D01*
X130198666Y-136755142D01*
X130151047Y-136802761D01*
X130055809Y-136850380D01*
X129960571Y-136850380D01*
X129865333Y-136802761D01*
X129817714Y-136755142D01*
X129770095Y-136659904D01*
X129722476Y-136469428D01*
X129722476Y-136231333D01*
X129770095Y-136040857D01*
X129817714Y-135945619D01*
X129865333Y-135898000D01*
X129960571Y-135850380D01*
X128389142Y-133166380D02*
X128055809Y-132690190D01*
X127817714Y-133166380D02*
X127817714Y-132166380D01*
X128198666Y-132166380D01*
X128293904Y-132214000D01*
X128341523Y-132261619D01*
X128389142Y-132356857D01*
X128389142Y-132499714D01*
X128341523Y-132594952D01*
X128293904Y-132642571D01*
X128198666Y-132690190D01*
X127817714Y-132690190D01*
X128770095Y-132261619D02*
X128817714Y-132214000D01*
X128912952Y-132166380D01*
X129151047Y-132166380D01*
X129246285Y-132214000D01*
X129293904Y-132261619D01*
X129341523Y-132356857D01*
X129341523Y-132452095D01*
X129293904Y-132594952D01*
X128722476Y-133166380D01*
X129341523Y-133166380D01*
X129912952Y-132594952D02*
X129817714Y-132547333D01*
X129770095Y-132499714D01*
X129722476Y-132404476D01*
X129722476Y-132356857D01*
X129770095Y-132261619D01*
X129817714Y-132214000D01*
X129912952Y-132166380D01*
X130103428Y-132166380D01*
X130198666Y-132214000D01*
X130246285Y-132261619D01*
X130293904Y-132356857D01*
X130293904Y-132404476D01*
X130246285Y-132499714D01*
X130198666Y-132547333D01*
X130103428Y-132594952D01*
X129912952Y-132594952D01*
X129817714Y-132642571D01*
X129770095Y-132690190D01*
X129722476Y-132785428D01*
X129722476Y-132975904D01*
X129770095Y-133071142D01*
X129817714Y-133118761D01*
X129912952Y-133166380D01*
X130103428Y-133166380D01*
X130198666Y-133118761D01*
X130246285Y-133071142D01*
X130293904Y-132975904D01*
X130293904Y-132785428D01*
X130246285Y-132690190D01*
X130198666Y-132642571D01*
X130103428Y-132594952D01*
X143176666Y-73784380D02*
X143176666Y-74498666D01*
X143129047Y-74641523D01*
X143033809Y-74736761D01*
X142890952Y-74784380D01*
X142795714Y-74784380D01*
X144129047Y-73784380D02*
X143652857Y-73784380D01*
X143605238Y-74260571D01*
X143652857Y-74212952D01*
X143748095Y-74165333D01*
X143986190Y-74165333D01*
X144081428Y-74212952D01*
X144129047Y-74260571D01*
X144176666Y-74355809D01*
X144176666Y-74593904D01*
X144129047Y-74689142D01*
X144081428Y-74736761D01*
X143986190Y-74784380D01*
X143748095Y-74784380D01*
X143652857Y-74736761D01*
X143605238Y-74689142D01*
X102190761Y-83565904D02*
X102238380Y-83423047D01*
X102238380Y-83184952D01*
X102190761Y-83089714D01*
X102143142Y-83042095D01*
X102047904Y-82994476D01*
X101952666Y-82994476D01*
X101857428Y-83042095D01*
X101809809Y-83089714D01*
X101762190Y-83184952D01*
X101714571Y-83375428D01*
X101666952Y-83470666D01*
X101619333Y-83518285D01*
X101524095Y-83565904D01*
X101428857Y-83565904D01*
X101333619Y-83518285D01*
X101286000Y-83470666D01*
X101238380Y-83375428D01*
X101238380Y-83137333D01*
X101286000Y-82994476D01*
X102238380Y-82042095D02*
X102238380Y-82613523D01*
X102238380Y-82327809D02*
X101238380Y-82327809D01*
X101381238Y-82423047D01*
X101476476Y-82518285D01*
X101524095Y-82613523D01*
X133977142Y-129610380D02*
X133643809Y-129134190D01*
X133405714Y-129610380D02*
X133405714Y-128610380D01*
X133786666Y-128610380D01*
X133881904Y-128658000D01*
X133929523Y-128705619D01*
X133977142Y-128800857D01*
X133977142Y-128943714D01*
X133929523Y-129038952D01*
X133881904Y-129086571D01*
X133786666Y-129134190D01*
X133405714Y-129134190D01*
X134358095Y-128705619D02*
X134405714Y-128658000D01*
X134500952Y-128610380D01*
X134739047Y-128610380D01*
X134834285Y-128658000D01*
X134881904Y-128705619D01*
X134929523Y-128800857D01*
X134929523Y-128896095D01*
X134881904Y-129038952D01*
X134310476Y-129610380D01*
X134929523Y-129610380D01*
X135262857Y-128610380D02*
X135881904Y-128610380D01*
X135548571Y-128991333D01*
X135691428Y-128991333D01*
X135786666Y-129038952D01*
X135834285Y-129086571D01*
X135881904Y-129181809D01*
X135881904Y-129419904D01*
X135834285Y-129515142D01*
X135786666Y-129562761D01*
X135691428Y-129610380D01*
X135405714Y-129610380D01*
X135310476Y-129562761D01*
X135262857Y-129515142D01*
X133977142Y-136850380D02*
X133643809Y-136374190D01*
X133405714Y-136850380D02*
X133405714Y-135850380D01*
X133786666Y-135850380D01*
X133881904Y-135898000D01*
X133929523Y-135945619D01*
X133977142Y-136040857D01*
X133977142Y-136183714D01*
X133929523Y-136278952D01*
X133881904Y-136326571D01*
X133786666Y-136374190D01*
X133405714Y-136374190D01*
X134929523Y-136850380D02*
X134358095Y-136850380D01*
X134643809Y-136850380D02*
X134643809Y-135850380D01*
X134548571Y-135993238D01*
X134453333Y-136088476D01*
X134358095Y-136136095D01*
X135405714Y-136850380D02*
X135596190Y-136850380D01*
X135691428Y-136802761D01*
X135739047Y-136755142D01*
X135834285Y-136612285D01*
X135881904Y-136421809D01*
X135881904Y-136040857D01*
X135834285Y-135945619D01*
X135786666Y-135898000D01*
X135691428Y-135850380D01*
X135500952Y-135850380D01*
X135405714Y-135898000D01*
X135358095Y-135945619D01*
X135310476Y-136040857D01*
X135310476Y-136278952D01*
X135358095Y-136374190D01*
X135405714Y-136421809D01*
X135500952Y-136469428D01*
X135691428Y-136469428D01*
X135786666Y-136421809D01*
X135834285Y-136374190D01*
X135881904Y-136278952D01*
X117166380Y-153328666D02*
X116690190Y-153662000D01*
X117166380Y-153900095D02*
X116166380Y-153900095D01*
X116166380Y-153519142D01*
X116214000Y-153423904D01*
X116261619Y-153376285D01*
X116356857Y-153328666D01*
X116499714Y-153328666D01*
X116594952Y-153376285D01*
X116642571Y-153423904D01*
X116690190Y-153519142D01*
X116690190Y-153900095D01*
X117166380Y-152376285D02*
X117166380Y-152947714D01*
X117166380Y-152662000D02*
X116166380Y-152662000D01*
X116309238Y-152757238D01*
X116404476Y-152852476D01*
X116452095Y-152947714D01*
X128389142Y-129610380D02*
X128055809Y-129134190D01*
X127817714Y-129610380D02*
X127817714Y-128610380D01*
X128198666Y-128610380D01*
X128293904Y-128658000D01*
X128341523Y-128705619D01*
X128389142Y-128800857D01*
X128389142Y-128943714D01*
X128341523Y-129038952D01*
X128293904Y-129086571D01*
X128198666Y-129134190D01*
X127817714Y-129134190D01*
X128770095Y-128705619D02*
X128817714Y-128658000D01*
X128912952Y-128610380D01*
X129151047Y-128610380D01*
X129246285Y-128658000D01*
X129293904Y-128705619D01*
X129341523Y-128800857D01*
X129341523Y-128896095D01*
X129293904Y-129038952D01*
X128722476Y-129610380D01*
X129341523Y-129610380D01*
X130198666Y-128943714D02*
X130198666Y-129610380D01*
X129960571Y-128562761D02*
X129722476Y-129277047D01*
X130341523Y-129277047D01*
X120904000Y-128766500D02*
X120904000Y-141466500D01*
X100584000Y-128766500D02*
X100584000Y-141466500D01*
D12*
X120964000Y-141866500D02*
X100524000Y-141866500D01*
D11*
X100584000Y-128766500D02*
X100584000Y-141466500D01*
D12*
X100524000Y-128166500D02*
X120964000Y-128166500D01*
D11*
X100584000Y-141466500D02*
X100584000Y-128766500D01*
X100584000Y-128766500D02*
X100584000Y-141466500D01*
D12*
X117824000Y-127786500D02*
X113824000Y-127786500D01*
D11*
X100584000Y-141466500D02*
X100584000Y-128766500D01*
X100584000Y-141466500D02*
X100584000Y-128766500D01*
D12*
X131065748Y-114502000D02*
X131588252Y-114502000D01*
X131065748Y-113082000D02*
X131588252Y-113082000D01*
X139698252Y-114502000D02*
X139175748Y-114502000D01*
X139698252Y-113082000D02*
X139175748Y-113082000D01*
X115825748Y-113082000D02*
X116348252Y-113082000D01*
X115825748Y-114502000D02*
X116348252Y-114502000D01*
X100132000Y-105382000D02*
X100132000Y-95632000D01*
X107132000Y-111882000D02*
X100132000Y-111882000D01*
X101132000Y-97882000D02*
X101132000Y-96632000D01*
X107132000Y-105382000D02*
X107132000Y-95632000D01*
X107132000Y-121632000D02*
X100132000Y-121632000D01*
X106132000Y-120632000D02*
X101132000Y-120632000D01*
X107132000Y-95632000D02*
X100132000Y-95632000D01*
X100132000Y-120632000D02*
X100132000Y-111882000D01*
X103632000Y-111882000D02*
X103632000Y-105382000D01*
X106132000Y-98132000D02*
X106132000Y-96632000D01*
X106132000Y-109882000D02*
X106132000Y-98132000D01*
X101132000Y-120632000D02*
X101132000Y-110132000D01*
X106132000Y-96632000D02*
X101132000Y-96632000D01*
X106132000Y-120632000D02*
X106132000Y-109882000D01*
X107132000Y-121632000D02*
X107132000Y-120632000D01*
X101132000Y-110132000D02*
X101132000Y-97882000D01*
X100132000Y-121632000D02*
X100132000Y-120632000D01*
X107132000Y-105382000D02*
X100132000Y-105382000D01*
X107132000Y-120632000D02*
X107132000Y-111882000D01*
D11*
X136334500Y-63226000D02*
X106489500Y-63226000D01*
X106489500Y-92436000D02*
X106489500Y-63226000D01*
X136334500Y-92436000D02*
X106489500Y-92436000D01*
X136334500Y-63226000D02*
X136334500Y-92436000D01*
D12*
X133166000Y-154548000D02*
X133166000Y-152048000D01*
X132866000Y-154248000D02*
X132866000Y-139028000D01*
X131366000Y-140028000D02*
X132866000Y-140028000D01*
X131366000Y-154248000D02*
X131366000Y-153248000D01*
X131366000Y-153248000D02*
X132866000Y-153248000D01*
X128846000Y-139028000D02*
X128846000Y-154248000D01*
X130556000Y-154248000D02*
X130556000Y-153748000D01*
X130556000Y-139528000D02*
X130556000Y-139028000D01*
X130666000Y-154548000D02*
X133166000Y-154548000D01*
X129346000Y-139528000D02*
X130556000Y-139528000D01*
X131366000Y-139028000D02*
X131366000Y-140028000D01*
X130556000Y-153748000D02*
X129346000Y-153748000D01*
X132866000Y-139028000D02*
X128846000Y-139028000D01*
X128846000Y-154248000D02*
X132866000Y-154248000D01*
X129346000Y-153748000D02*
X129346000Y-139528000D01*
X112582000Y-107950000D02*
X109922000Y-107950000D01*
X112582000Y-107950000D02*
X112582000Y-102810000D01*
X112582000Y-109220000D02*
X112582000Y-110550000D01*
X112582000Y-102810000D02*
X109922000Y-102810000D01*
X112582000Y-110550000D02*
X111252000Y-110550000D01*
X109922000Y-107950000D02*
X109922000Y-102810000D01*
D11*
X129680500Y-116296000D02*
X129680500Y-123281000D01*
X141110500Y-116296000D02*
X141110500Y-123281000D01*
D12*
X141345500Y-116046000D02*
X129545500Y-116046000D01*
X129545500Y-123476000D02*
X141345500Y-123476000D01*
X126296000Y-116046000D02*
X114496000Y-116046000D01*
D11*
X126061000Y-116296000D02*
X126061000Y-123281000D01*
D12*
X114496000Y-123476000D02*
X126296000Y-123476000D01*
D11*
X114631000Y-116296000D02*
X114631000Y-123281000D01*
D12*
X113328000Y-166040000D02*
X113328000Y-166160000D01*
X111208000Y-166040000D02*
X111208000Y-166160000D01*
X113328000Y-164040000D02*
X113328000Y-165100000D01*
X112268000Y-164040000D02*
X113328000Y-164040000D01*
X111208000Y-166160000D02*
X113328000Y-166160000D01*
X134156000Y-166040000D02*
X134156000Y-166160000D01*
X132036000Y-166160000D02*
X134156000Y-166160000D01*
X133096000Y-164040000D02*
X134156000Y-164040000D01*
X132036000Y-166040000D02*
X132036000Y-166160000D01*
X134156000Y-164040000D02*
X134156000Y-165100000D01*
X123234000Y-166040000D02*
X123234000Y-166160000D01*
X122174000Y-164040000D02*
X123234000Y-164040000D01*
X121114000Y-166040000D02*
X121114000Y-166160000D01*
X123234000Y-164040000D02*
X123234000Y-165100000D01*
X121114000Y-166160000D02*
X123234000Y-166160000D01*
X139494000Y-139028000D02*
X139494000Y-140028000D01*
X136974000Y-154248000D02*
X140994000Y-154248000D01*
X139494000Y-140028000D02*
X140994000Y-140028000D01*
X137474000Y-153748000D02*
X137474000Y-139528000D01*
X138684000Y-139528000D02*
X138684000Y-139028000D01*
X138684000Y-154248000D02*
X138684000Y-153748000D01*
X141294000Y-154548000D02*
X141294000Y-152048000D01*
X138684000Y-153748000D02*
X137474000Y-153748000D01*
X140994000Y-154248000D02*
X140994000Y-139028000D01*
X138794000Y-154548000D02*
X141294000Y-154548000D01*
X139494000Y-153248000D02*
X140994000Y-153248000D01*
X139494000Y-154248000D02*
X139494000Y-153248000D01*
X136974000Y-139028000D02*
X136974000Y-154248000D01*
X140994000Y-139028000D02*
X136974000Y-139028000D01*
X137474000Y-139528000D02*
X138684000Y-139528000D01*
X97554000Y-66833000D02*
X97589000Y-66798000D01*
X104080000Y-65472000D02*
X93960000Y-65472000D01*
X104080000Y-73333000D02*
X104080000Y-63412000D01*
X93960000Y-73333000D02*
X93960000Y-63412000D01*
X104080000Y-73333000D02*
X93960000Y-73333000D01*
X104080000Y-63412000D02*
X93960000Y-63412000D01*
X104320000Y-63912000D02*
X104320000Y-63172000D01*
X104080000Y-63972000D02*
X93960000Y-63972000D01*
X97747000Y-67049000D02*
X97794000Y-67003000D01*
X104080000Y-70373000D02*
X93960000Y-70373000D01*
X95450000Y-69347000D02*
X95485000Y-69311000D01*
X104320000Y-63172000D02*
X103820000Y-63172000D01*
X95245000Y-69141000D02*
X95292000Y-69095000D01*
X100836000Y-69607000D02*
G75*
G03*
X102203042Y-69607427I684001J1534993D01*
G01*
X99985000Y-67388000D02*
G75*
G03*
X99984573Y-68755042I1534993J-684001D01*
G01*
X103055000Y-68756000D02*
G75*
G03*
X103055427Y-67388958I-1534993J684001D01*
G01*
X101520000Y-66392000D02*
G75*
G03*
X100836682Y-66537244I-1J-1679992D01*
G01*
X102204000Y-66537000D02*
G75*
G03*
X101491195Y-66391747I-683999J-1535001D01*
G01*
X98200000Y-68072000D02*
G75*
G03*
X98200000Y-68072000I-1680000J0D01*
G01*
X125006000Y-106042000D02*
X123406000Y-106042000D01*
X120286000Y-106642000D02*
X125586000Y-106642000D01*
X125876000Y-105612000D02*
X125876000Y-101612000D01*
X122466000Y-106642000D02*
X122466000Y-106042000D01*
X121916000Y-100622000D02*
X121916000Y-101622000D01*
X120286000Y-100622000D02*
X120286000Y-106642000D01*
X125586000Y-100622000D02*
X120286000Y-100622000D01*
X120866000Y-106042000D02*
X120866000Y-106642000D01*
X123956000Y-100622000D02*
X123956000Y-101622000D01*
X124206000Y-100622000D02*
X124206000Y-101622000D01*
X125006000Y-106642000D02*
X125006000Y-106042000D01*
X124206000Y-101622000D02*
X121666000Y-101622000D01*
X123956000Y-102152000D02*
X121916000Y-102152000D01*
X121916000Y-102152000D02*
X121666000Y-101622000D01*
X123406000Y-106042000D02*
X123406000Y-106642000D01*
X125586000Y-106642000D02*
X125586000Y-100622000D01*
X122466000Y-106042000D02*
X120866000Y-106042000D01*
X121666000Y-101622000D02*
X121666000Y-100622000D01*
X124206000Y-101622000D02*
X123956000Y-102152000D01*
X130298000Y-102172000D02*
X130048000Y-101642000D01*
X132588000Y-101642000D02*
X132338000Y-102172000D01*
X132588000Y-100642000D02*
X132588000Y-101642000D01*
X131788000Y-106062000D02*
X131788000Y-106662000D01*
X134258000Y-105632000D02*
X134258000Y-101632000D01*
X132588000Y-101642000D02*
X130048000Y-101642000D01*
X130298000Y-100642000D02*
X130298000Y-101642000D01*
X129248000Y-106062000D02*
X129248000Y-106662000D01*
X130848000Y-106062000D02*
X129248000Y-106062000D01*
X132338000Y-100642000D02*
X132338000Y-101642000D01*
X133388000Y-106662000D02*
X133388000Y-106062000D01*
X132338000Y-102172000D02*
X130298000Y-102172000D01*
X133388000Y-106062000D02*
X131788000Y-106062000D01*
X128668000Y-106662000D02*
X133968000Y-106662000D01*
X128668000Y-100642000D02*
X128668000Y-106662000D01*
X130848000Y-106662000D02*
X130848000Y-106062000D01*
X133968000Y-106662000D02*
X133968000Y-100642000D01*
X130048000Y-101642000D02*
X130048000Y-100642000D01*
X133968000Y-100642000D02*
X128668000Y-100642000D01*
X142640000Y-105612000D02*
X142640000Y-101612000D01*
X140720000Y-100622000D02*
X140720000Y-101622000D01*
X138430000Y-101622000D02*
X138430000Y-100622000D01*
X140970000Y-101622000D02*
X138430000Y-101622000D01*
X142350000Y-106642000D02*
X142350000Y-100622000D01*
X142350000Y-100622000D02*
X137050000Y-100622000D01*
X137050000Y-106642000D02*
X142350000Y-106642000D01*
X138680000Y-100622000D02*
X138680000Y-101622000D01*
X141770000Y-106042000D02*
X140170000Y-106042000D01*
X140720000Y-102152000D02*
X138680000Y-102152000D01*
X139230000Y-106042000D02*
X137630000Y-106042000D01*
X137050000Y-100622000D02*
X137050000Y-106642000D01*
X137630000Y-106042000D02*
X137630000Y-106642000D01*
X140970000Y-101622000D02*
X140720000Y-102152000D01*
X140970000Y-100622000D02*
X140970000Y-101622000D01*
X139230000Y-106642000D02*
X139230000Y-106042000D01*
X140170000Y-106042000D02*
X140170000Y-106642000D01*
X138680000Y-102152000D02*
X138430000Y-101622000D01*
X141770000Y-106642000D02*
X141770000Y-106042000D01*
X119364000Y-148982000D02*
X117714000Y-148982000D01*
X117714000Y-147182000D02*
X119014000Y-147182000D01*
X123556000Y-136514000D02*
X124856000Y-136514000D01*
X125206000Y-138314000D02*
X123556000Y-138314000D01*
X124712252Y-114502000D02*
X124189748Y-114502000D01*
X124712252Y-113082000D02*
X124189748Y-113082000D01*
X100032000Y-166040000D02*
X100032000Y-166160000D01*
X102152000Y-166040000D02*
X102152000Y-166160000D01*
X101092000Y-164040000D02*
X102152000Y-164040000D01*
X100032000Y-166160000D02*
X102152000Y-166160000D01*
X102152000Y-164040000D02*
X102152000Y-165100000D01*
X115850936Y-108685000D02*
X116305064Y-108685000D01*
X115850936Y-107215000D02*
X116305064Y-107215000D01*
X116377564Y-104684500D02*
X115923436Y-104684500D01*
X116377564Y-103214500D02*
X115923436Y-103214500D01*
X116321064Y-99595000D02*
X115866936Y-99595000D01*
X116321064Y-101065000D02*
X115866936Y-101065000D01*
X139980936Y-81253000D02*
X140435064Y-81253000D01*
X139980936Y-79783000D02*
X140435064Y-79783000D01*
X139964936Y-83593000D02*
X140419064Y-83593000D01*
X139964936Y-85063000D02*
X140419064Y-85063000D01*
X116321064Y-95785000D02*
X115866936Y-95785000D01*
X116321064Y-97255000D02*
X115866936Y-97255000D01*
X106907000Y-153389064D02*
X106907000Y-152934936D01*
X105437000Y-153389064D02*
X105437000Y-152934936D01*
X101627000Y-153389064D02*
X101627000Y-152934936D01*
X103097000Y-153389064D02*
X103097000Y-152934936D01*
X105437000Y-148309064D02*
X105437000Y-147854936D01*
X106907000Y-148309064D02*
X106907000Y-147854936D01*
X101627000Y-148309064D02*
X101627000Y-147854936D01*
X103097000Y-148309064D02*
X103097000Y-147854936D01*
X113057000Y-148309064D02*
X113057000Y-147854936D01*
X114527000Y-148309064D02*
X114527000Y-147854936D01*
X109247000Y-153389064D02*
X109247000Y-152934936D01*
X110717000Y-153389064D02*
X110717000Y-152934936D01*
X113057000Y-153389064D02*
X113057000Y-152934936D01*
X114527000Y-153389064D02*
X114527000Y-152934936D01*
X110717000Y-148309064D02*
X110717000Y-147854936D01*
X109247000Y-148309064D02*
X109247000Y-147854936D01*
X140419064Y-88873000D02*
X139964936Y-88873000D01*
X140419064Y-87403000D02*
X139964936Y-87403000D01*
X111987000Y-97747064D02*
X111987000Y-97292936D01*
X110517000Y-97747064D02*
X110517000Y-97292936D01*
X140435064Y-91213000D02*
X139980936Y-91213000D01*
X140435064Y-92683000D02*
X139980936Y-92683000D01*
X145245064Y-79475000D02*
X144790936Y-79475000D01*
X145245064Y-78005000D02*
X144790936Y-78005000D01*
X122455000Y-152934936D02*
X122455000Y-153389064D01*
X123925000Y-152934936D02*
X123925000Y-153389064D01*
X122455000Y-148563064D02*
X122455000Y-148108936D01*
X123925000Y-148563064D02*
X123925000Y-148108936D01*
X134847064Y-131799000D02*
X134392936Y-131799000D01*
X134847064Y-130329000D02*
X134392936Y-130329000D01*
X124486936Y-143737000D02*
X124941064Y-143737000D01*
X124486936Y-142267000D02*
X124941064Y-142267000D01*
X129259064Y-133885000D02*
X128804936Y-133885000D01*
X129259064Y-135355000D02*
X128804936Y-135355000D01*
D13*
X121176053Y-72166595D02*
X121200237Y-72205750D01*
X121200237Y-72205750D02*
X121237234Y-72268313D01*
X121237234Y-72268313D02*
X121285788Y-72352084D01*
X121285788Y-72352084D02*
X121344645Y-72454862D01*
X121344645Y-72454862D02*
X121412549Y-72574448D01*
X121412549Y-72574448D02*
X121488245Y-72708642D01*
X121488245Y-72708642D02*
X121570479Y-72855243D01*
X121570479Y-72855243D02*
X121657995Y-73012052D01*
X121657995Y-73012052D02*
X121733894Y-73148647D01*
X121733894Y-73148647D02*
X121824966Y-73312835D01*
X121824966Y-73312835D02*
X121911719Y-73469165D01*
X121911719Y-73469165D02*
X121992898Y-73615377D01*
X121992898Y-73615377D02*
X122067245Y-73749213D01*
X122067245Y-73749213D02*
X122133505Y-73868414D01*
X122133505Y-73868414D02*
X122190422Y-73970720D01*
X122190422Y-73970720D02*
X122236740Y-74053873D01*
X122236740Y-74053873D02*
X122271202Y-74115614D01*
X122271202Y-74115614D02*
X122292554Y-74153684D01*
X122292554Y-74153684D02*
X122299385Y-74165636D01*
X122299385Y-74165636D02*
X122309021Y-74168838D01*
X122309021Y-74168838D02*
X122331497Y-74165073D01*
X122331497Y-74165073D02*
X122369145Y-74153440D01*
X122369145Y-74153440D02*
X122424298Y-74133040D01*
X122424298Y-74133040D02*
X122499287Y-74102973D01*
X122499287Y-74102973D02*
X122596444Y-74062338D01*
X122596444Y-74062338D02*
X122718100Y-74010235D01*
X122718100Y-74010235D02*
X122847909Y-73953908D01*
X122847909Y-73953908D02*
X122969834Y-73901153D01*
X122969834Y-73901153D02*
X123082536Y-73853107D01*
X123082536Y-73853107D02*
X123182734Y-73811114D01*
X123182734Y-73811114D02*
X123267144Y-73776519D01*
X123267144Y-73776519D02*
X123332484Y-73750666D01*
X123332484Y-73750666D02*
X123375473Y-73734901D01*
X123375473Y-73734901D02*
X123392827Y-73730567D01*
X123392827Y-73730567D02*
X123392939Y-73730647D01*
X123392939Y-73730647D02*
X123392895Y-73747542D01*
X123392895Y-73747542D02*
X123389963Y-73793818D01*
X123389963Y-73793818D02*
X123384339Y-73867252D01*
X123384339Y-73867252D02*
X123376221Y-73965627D01*
X123376221Y-73965627D02*
X123365804Y-74086721D01*
X123365804Y-74086721D02*
X123353286Y-74228315D01*
X123353286Y-74228315D02*
X123338863Y-74388188D01*
X123338863Y-74388188D02*
X123322732Y-74564121D01*
X123322732Y-74564121D02*
X123305089Y-74753894D01*
X123305089Y-74753894D02*
X123286131Y-74955286D01*
X123286131Y-74955286D02*
X123266055Y-75166077D01*
X123266055Y-75166077D02*
X123262694Y-75201132D01*
X123262694Y-75201132D02*
X123242424Y-75413162D01*
X123242424Y-75413162D02*
X123223174Y-75616092D01*
X123223174Y-75616092D02*
X123205145Y-75807710D01*
X123205145Y-75807710D02*
X123188538Y-75985800D01*
X123188538Y-75985800D02*
X123173555Y-76148150D01*
X123173555Y-76148150D02*
X123160398Y-76292546D01*
X123160398Y-76292546D02*
X123149268Y-76416774D01*
X123149268Y-76416774D02*
X123140366Y-76518621D01*
X123140366Y-76518621D02*
X123133894Y-76595874D01*
X123133894Y-76595874D02*
X123130053Y-76646317D01*
X123130053Y-76646317D02*
X123129045Y-76667739D01*
X123129045Y-76667739D02*
X123129165Y-76668331D01*
X123129165Y-76668331D02*
X123141892Y-76659301D01*
X123141892Y-76659301D02*
X123176193Y-76630959D01*
X123176193Y-76630959D02*
X123229959Y-76585142D01*
X123229959Y-76585142D02*
X123301083Y-76523686D01*
X123301083Y-76523686D02*
X123387455Y-76448427D01*
X123387455Y-76448427D02*
X123486967Y-76361200D01*
X123486967Y-76361200D02*
X123597512Y-76263843D01*
X123597512Y-76263843D02*
X123716980Y-76158190D01*
X123716980Y-76158190D02*
X123822639Y-76064418D01*
X123822639Y-76064418D02*
X123948215Y-75952987D01*
X123948215Y-75952987D02*
X124066820Y-75848117D01*
X124066820Y-75848117D02*
X124176322Y-75751671D01*
X124176322Y-75751671D02*
X124274583Y-75665510D01*
X124274583Y-75665510D02*
X124359471Y-75591498D01*
X124359471Y-75591498D02*
X124428849Y-75531497D01*
X124428849Y-75531497D02*
X124480582Y-75487369D01*
X124480582Y-75487369D02*
X124512537Y-75460977D01*
X124512537Y-75460977D02*
X124522508Y-75453875D01*
X124522508Y-75453875D02*
X124527355Y-75457429D01*
X124527355Y-75457429D02*
X124534802Y-75469851D01*
X124534802Y-75469851D02*
X124545882Y-75493781D01*
X124545882Y-75493781D02*
X124561627Y-75531857D01*
X124561627Y-75531857D02*
X124583069Y-75586720D01*
X124583069Y-75586720D02*
X124611242Y-75661007D01*
X124611242Y-75661007D02*
X124647178Y-75757358D01*
X124647178Y-75757358D02*
X124691909Y-75878413D01*
X124691909Y-75878413D02*
X124743561Y-76018892D01*
X124743561Y-76018892D02*
X124790722Y-76147346D01*
X124790722Y-76147346D02*
X124655443Y-76303407D01*
X124655443Y-76303407D02*
X124480904Y-76509868D01*
X124480904Y-76509868D02*
X124297836Y-76735916D01*
X124297836Y-76735916D02*
X124108805Y-76977877D01*
X124108805Y-76977877D02*
X123916379Y-77232079D01*
X123916379Y-77232079D02*
X123723127Y-77494849D01*
X123723127Y-77494849D02*
X123531616Y-77762514D01*
X123531616Y-77762514D02*
X123344415Y-78031401D01*
X123344415Y-78031401D02*
X123164090Y-78297838D01*
X123164090Y-78297838D02*
X122993210Y-78558151D01*
X122993210Y-78558151D02*
X122834344Y-78808667D01*
X122834344Y-78808667D02*
X122690058Y-79045715D01*
X122690058Y-79045715D02*
X122562920Y-79265620D01*
X122562920Y-79265620D02*
X122486125Y-79406214D01*
X122486125Y-79406214D02*
X122399913Y-79568607D01*
X122399913Y-79568607D02*
X122347545Y-79492493D01*
X122347545Y-79492493D02*
X122247715Y-79336541D01*
X122247715Y-79336541D02*
X122144272Y-79154787D01*
X122144272Y-79154787D02*
X122039701Y-78952588D01*
X122039701Y-78952588D02*
X121936492Y-78735299D01*
X121936492Y-78735299D02*
X121837132Y-78508279D01*
X121837132Y-78508279D02*
X121744109Y-78276882D01*
X121744109Y-78276882D02*
X121659909Y-78046465D01*
X121659909Y-78046465D02*
X121618373Y-77922437D01*
X121618373Y-77922437D02*
X121543473Y-77678266D01*
X121543473Y-77678266D02*
X121468503Y-77410029D01*
X121468503Y-77410029D02*
X121395351Y-77125349D01*
X121395351Y-77125349D02*
X121325910Y-76831849D01*
X121325910Y-76831849D02*
X121262067Y-76537152D01*
X121262067Y-76537152D02*
X121212398Y-76284917D01*
X121212398Y-76284917D02*
X121167419Y-76044397D01*
X121167419Y-76044397D02*
X121085692Y-76451604D01*
X121085692Y-76451604D02*
X120995376Y-76875659D01*
X120995376Y-76875659D02*
X120900234Y-77270629D01*
X120900234Y-77270629D02*
X120799410Y-77638932D01*
X120799410Y-77638932D02*
X120692047Y-77982986D01*
X120692047Y-77982986D02*
X120577290Y-78305205D01*
X120577290Y-78305205D02*
X120454283Y-78608009D01*
X120454283Y-78608009D02*
X120322171Y-78893812D01*
X120322171Y-78893812D02*
X120180096Y-79165033D01*
X120180096Y-79165033D02*
X120040800Y-79402226D01*
X120040800Y-79402226D02*
X120002873Y-79462487D01*
X120002873Y-79462487D02*
X119970453Y-79512107D01*
X119970453Y-79512107D02*
X119947470Y-79545186D01*
X119947470Y-79545186D02*
X119938548Y-79555755D01*
X119938548Y-79555755D02*
X119926765Y-79545831D01*
X119926765Y-79545831D02*
X119904830Y-79513211D01*
X119904830Y-79513211D02*
X119876477Y-79463753D01*
X119876477Y-79463753D02*
X119859882Y-79432247D01*
X119859882Y-79432247D02*
X119767612Y-79260322D01*
X119767612Y-79260322D02*
X119656689Y-79067732D01*
X119656689Y-79067732D02*
X119529367Y-78857706D01*
X119529367Y-78857706D02*
X119387900Y-78633475D01*
X119387900Y-78633475D02*
X119234542Y-78398267D01*
X119234542Y-78398267D02*
X119071547Y-78155313D01*
X119071547Y-78155313D02*
X118901168Y-77907842D01*
X118901168Y-77907842D02*
X118725660Y-77659085D01*
X118725660Y-77659085D02*
X118547277Y-77412270D01*
X118547277Y-77412270D02*
X118368272Y-77170629D01*
X118368272Y-77170629D02*
X118190899Y-76937390D01*
X118190899Y-76937390D02*
X118017412Y-76715783D01*
X118017412Y-76715783D02*
X117850065Y-76509038D01*
X117850065Y-76509038D02*
X117691112Y-76320385D01*
X117691112Y-76320385D02*
X117676431Y-76303407D01*
X117676431Y-76303407D02*
X117541152Y-76147346D01*
X117541152Y-76147346D02*
X117588313Y-76018892D01*
X117588313Y-76018892D02*
X117642375Y-75871871D01*
X117642375Y-75871871D02*
X117686656Y-75752065D01*
X117686656Y-75752065D02*
X117722190Y-75656836D01*
X117722190Y-75656836D02*
X117750005Y-75583548D01*
X117750005Y-75583548D02*
X117771134Y-75529561D01*
X117771134Y-75529561D02*
X117786608Y-75492239D01*
X117786608Y-75492239D02*
X117797457Y-75468944D01*
X117797457Y-75468944D02*
X117804713Y-75457038D01*
X117804713Y-75457038D02*
X117809197Y-75453875D01*
X117809197Y-75453875D02*
X117823091Y-75464131D01*
X117823091Y-75464131D02*
X117858544Y-75493660D01*
X117858544Y-75493660D02*
X117913422Y-75540599D01*
X117913422Y-75540599D02*
X117985590Y-75603088D01*
X117985590Y-75603088D02*
X118072913Y-75679265D01*
X118072913Y-75679265D02*
X118173257Y-75767269D01*
X118173257Y-75767269D02*
X118284486Y-75865237D01*
X118284486Y-75865237D02*
X118404465Y-75971310D01*
X118404465Y-75971310D02*
X118509243Y-76064241D01*
X118509243Y-76064241D02*
X118634625Y-76175402D01*
X118634625Y-76175402D02*
X118752847Y-76279819D01*
X118752847Y-76279819D02*
X118861798Y-76375656D01*
X118861798Y-76375656D02*
X118959372Y-76461076D01*
X118959372Y-76461076D02*
X119043459Y-76534245D01*
X119043459Y-76534245D02*
X119111951Y-76593327D01*
X119111951Y-76593327D02*
X119162740Y-76636486D01*
X119162740Y-76636486D02*
X119193717Y-76661886D01*
X119193717Y-76661886D02*
X119202886Y-76668155D01*
X119202886Y-76668155D02*
X119202340Y-76651769D01*
X119202340Y-76651769D02*
X119198929Y-76605996D01*
X119198929Y-76605996D02*
X119192855Y-76533047D01*
X119192855Y-76533047D02*
X119184319Y-76435136D01*
X119184319Y-76435136D02*
X119173524Y-76314477D01*
X119173524Y-76314477D02*
X119160671Y-76173282D01*
X119160671Y-76173282D02*
X119145961Y-76013765D01*
X119145961Y-76013765D02*
X119129597Y-75838140D01*
X119129597Y-75838140D02*
X119111780Y-75648619D01*
X119111780Y-75648619D02*
X119092712Y-75447415D01*
X119092712Y-75447415D02*
X119090248Y-75421605D01*
X119090248Y-75421605D02*
X120589101Y-75421605D01*
X120589101Y-75421605D02*
X120594901Y-75423298D01*
X120594901Y-75423298D02*
X120618228Y-75406119D01*
X120618228Y-75406119D02*
X120654226Y-75373710D01*
X120654226Y-75373710D02*
X120658884Y-75369243D01*
X120658884Y-75369243D02*
X120715043Y-75322494D01*
X120715043Y-75322494D02*
X120784828Y-75274576D01*
X120784828Y-75274576D02*
X120848437Y-75238351D01*
X120848437Y-75238351D02*
X120990127Y-75184549D01*
X120990127Y-75184549D02*
X121133958Y-75161577D01*
X121133958Y-75161577D02*
X121276791Y-75168959D01*
X121276791Y-75168959D02*
X121415488Y-75206218D01*
X121415488Y-75206218D02*
X121546908Y-75272876D01*
X121546908Y-75272876D02*
X121660906Y-75361823D01*
X121660906Y-75361823D02*
X121701533Y-75398018D01*
X121701533Y-75398018D02*
X121730373Y-75420157D01*
X121730373Y-75420157D02*
X121742665Y-75424718D01*
X121742665Y-75424718D02*
X121742412Y-75422125D01*
X121742412Y-75422125D02*
X121736288Y-75403031D01*
X121736288Y-75403031D02*
X121721574Y-75356343D01*
X121721574Y-75356343D02*
X121699120Y-75284780D01*
X121699120Y-75284780D02*
X121669776Y-75191061D01*
X121669776Y-75191061D02*
X121634392Y-75077904D01*
X121634392Y-75077904D02*
X121593819Y-74948030D01*
X121593819Y-74948030D02*
X121548907Y-74804157D01*
X121548907Y-74804157D02*
X121500506Y-74649004D01*
X121500506Y-74649004D02*
X121452005Y-74493437D01*
X121452005Y-74493437D02*
X121401288Y-74330805D01*
X121401288Y-74330805D02*
X121353405Y-74177439D01*
X121353405Y-74177439D02*
X121309184Y-74035979D01*
X121309184Y-74035979D02*
X121269453Y-73909066D01*
X121269453Y-73909066D02*
X121235040Y-73799338D01*
X121235040Y-73799338D02*
X121206772Y-73709436D01*
X121206772Y-73709436D02*
X121185478Y-73642000D01*
X121185478Y-73642000D02*
X121171986Y-73599670D01*
X121171986Y-73599670D02*
X121167134Y-73585092D01*
X121167134Y-73585092D02*
X121162037Y-73599180D01*
X121162037Y-73599180D02*
X121148338Y-73640978D01*
X121148338Y-73640978D02*
X121126864Y-73707878D01*
X121126864Y-73707878D02*
X121098438Y-73797271D01*
X121098438Y-73797271D02*
X121063885Y-73906548D01*
X121063885Y-73906548D02*
X121024031Y-74033101D01*
X121024031Y-74033101D02*
X120979699Y-74174321D01*
X120979699Y-74174321D02*
X120931715Y-74327601D01*
X120931715Y-74327601D02*
X120881017Y-74489967D01*
X120881017Y-74489967D02*
X120829958Y-74653622D01*
X120829958Y-74653622D02*
X120781571Y-74808572D01*
X120781571Y-74808572D02*
X120736707Y-74952105D01*
X120736707Y-74952105D02*
X120696213Y-75081512D01*
X120696213Y-75081512D02*
X120660941Y-75194078D01*
X120660941Y-75194078D02*
X120631740Y-75287094D01*
X120631740Y-75287094D02*
X120609459Y-75357848D01*
X120609459Y-75357848D02*
X120594948Y-75403628D01*
X120594948Y-75403628D02*
X120589101Y-75421605D01*
X120589101Y-75421605D02*
X119090248Y-75421605D01*
X119090248Y-75421605D02*
X119072595Y-75236743D01*
X119072595Y-75236743D02*
X119069180Y-75201132D01*
X119069180Y-75201132D02*
X119048941Y-74989017D01*
X119048941Y-74989017D02*
X119029792Y-74785937D01*
X119029792Y-74785937D02*
X119011929Y-74594113D01*
X119011929Y-74594113D02*
X118995548Y-74415765D01*
X118995548Y-74415765D02*
X118980845Y-74253113D01*
X118980845Y-74253113D02*
X118968018Y-74108378D01*
X118968018Y-74108378D02*
X118957261Y-73983779D01*
X118957261Y-73983779D02*
X118948773Y-73881538D01*
X118948773Y-73881538D02*
X118942749Y-73803875D01*
X118942749Y-73803875D02*
X118939385Y-73753009D01*
X118939385Y-73753009D02*
X118938879Y-73731161D01*
X118938879Y-73731161D02*
X118939080Y-73730502D01*
X118939080Y-73730502D02*
X118955419Y-73734323D01*
X118955419Y-73734323D02*
X118997513Y-73749615D01*
X118997513Y-73749615D02*
X119062070Y-73775034D01*
X119062070Y-73775034D02*
X119145795Y-73809234D01*
X119145795Y-73809234D02*
X119245396Y-73850870D01*
X119245396Y-73850870D02*
X119357580Y-73898596D01*
X119357580Y-73898596D02*
X119479054Y-73951066D01*
X119479054Y-73951066D02*
X119481565Y-73952159D01*
X119481565Y-73952159D02*
X119603067Y-74004975D01*
X119603067Y-74004975D02*
X119715121Y-74053563D01*
X119715121Y-74053563D02*
X119814463Y-74096518D01*
X119814463Y-74096518D02*
X119897828Y-74132433D01*
X119897828Y-74132433D02*
X119961952Y-74159901D01*
X119961952Y-74159901D02*
X120003569Y-74177516D01*
X120003569Y-74177516D02*
X120019416Y-74183872D01*
X120019416Y-74183872D02*
X120019448Y-74183874D01*
X120019448Y-74183874D02*
X120027832Y-74170344D01*
X120027832Y-74170344D02*
X120050361Y-74131202D01*
X120050361Y-74131202D02*
X120085816Y-74068625D01*
X120085816Y-74068625D02*
X120132982Y-73984789D01*
X120132982Y-73984789D02*
X120190640Y-73881869D01*
X120190640Y-73881869D02*
X120257574Y-73762041D01*
X120257574Y-73762041D02*
X120332567Y-73627480D01*
X120332567Y-73627480D02*
X120414402Y-73480363D01*
X120414402Y-73480363D02*
X120501861Y-73322865D01*
X120501861Y-73322865D02*
X120587484Y-73168431D01*
X120587484Y-73168431D02*
X120679276Y-73003131D01*
X120679276Y-73003131D02*
X120766837Y-72846192D01*
X120766837Y-72846192D02*
X120848927Y-72699793D01*
X120848927Y-72699793D02*
X120924304Y-72566112D01*
X120924304Y-72566112D02*
X120991726Y-72447328D01*
X120991726Y-72447328D02*
X121049954Y-72345620D01*
X121049954Y-72345620D02*
X121097745Y-72263167D01*
X121097745Y-72263167D02*
X121133858Y-72202146D01*
X121133858Y-72202146D02*
X121157052Y-72164738D01*
X121157052Y-72164738D02*
X121165937Y-72153048D01*
X121165937Y-72153048D02*
X121176053Y-72166595D01*
X121176053Y-72166595D02*
X121176053Y-72166595D01*
G36*
X119069180Y-75201132D02*
G01*
X119048941Y-74989017D01*
X119029792Y-74785937D01*
X119011929Y-74594113D01*
X118995548Y-74415765D01*
X118980845Y-74253113D01*
X118968018Y-74108378D01*
X118957261Y-73983779D01*
X118948773Y-73881538D01*
X118942749Y-73803875D01*
X118939385Y-73753009D01*
X118938879Y-73731161D01*
X118939080Y-73730502D01*
X118955419Y-73734323D01*
X118997513Y-73749615D01*
X119062070Y-73775034D01*
X119145795Y-73809234D01*
X119245396Y-73850870D01*
X119357580Y-73898596D01*
X119479054Y-73951066D01*
X119481565Y-73952159D01*
X119603067Y-74004975D01*
X119715121Y-74053563D01*
X119814463Y-74096518D01*
X119897828Y-74132433D01*
X119961952Y-74159901D01*
X120003569Y-74177516D01*
X120019416Y-74183872D01*
X120019448Y-74183874D01*
X120027832Y-74170344D01*
X120050361Y-74131202D01*
X120085816Y-74068625D01*
X120132982Y-73984789D01*
X120190640Y-73881869D01*
X120257574Y-73762041D01*
X120332567Y-73627480D01*
X120414402Y-73480363D01*
X120501861Y-73322865D01*
X120587484Y-73168431D01*
X120679276Y-73003131D01*
X120766837Y-72846192D01*
X120848927Y-72699793D01*
X120924304Y-72566112D01*
X120991726Y-72447328D01*
X121049954Y-72345620D01*
X121097745Y-72263167D01*
X121133858Y-72202146D01*
X121157052Y-72164738D01*
X121165937Y-72153048D01*
X121176053Y-72166595D01*
X121200237Y-72205750D01*
X121237234Y-72268313D01*
X121285788Y-72352084D01*
X121344645Y-72454862D01*
X121412549Y-72574448D01*
X121488245Y-72708642D01*
X121570479Y-72855243D01*
X121657995Y-73012052D01*
X121733894Y-73148647D01*
X121824966Y-73312835D01*
X121911719Y-73469165D01*
X121992898Y-73615377D01*
X122067245Y-73749213D01*
X122133505Y-73868414D01*
X122190422Y-73970720D01*
X122236740Y-74053873D01*
X122271202Y-74115614D01*
X122292554Y-74153684D01*
X122299385Y-74165636D01*
X122309021Y-74168838D01*
X122331497Y-74165073D01*
X122369145Y-74153440D01*
X122424298Y-74133040D01*
X122499287Y-74102973D01*
X122596444Y-74062338D01*
X122718100Y-74010235D01*
X122847909Y-73953908D01*
X122969834Y-73901153D01*
X123082536Y-73853107D01*
X123182734Y-73811114D01*
X123267144Y-73776519D01*
X123332484Y-73750666D01*
X123375473Y-73734901D01*
X123392827Y-73730567D01*
X123392939Y-73730647D01*
X123392895Y-73747542D01*
X123389963Y-73793818D01*
X123384339Y-73867252D01*
X123376221Y-73965627D01*
X123365804Y-74086721D01*
X123353286Y-74228315D01*
X123338863Y-74388188D01*
X123322732Y-74564121D01*
X123305089Y-74753894D01*
X123286131Y-74955286D01*
X123266055Y-75166077D01*
X123262694Y-75201132D01*
X123242424Y-75413162D01*
X123223174Y-75616092D01*
X123205145Y-75807710D01*
X123188538Y-75985800D01*
X123173555Y-76148150D01*
X123160398Y-76292546D01*
X123149268Y-76416774D01*
X123140366Y-76518621D01*
X123133894Y-76595874D01*
X123130053Y-76646317D01*
X123129045Y-76667739D01*
X123129165Y-76668331D01*
X123141892Y-76659301D01*
X123176193Y-76630959D01*
X123229959Y-76585142D01*
X123301083Y-76523686D01*
X123387455Y-76448427D01*
X123486967Y-76361200D01*
X123597512Y-76263843D01*
X123716980Y-76158190D01*
X123822639Y-76064418D01*
X123948215Y-75952987D01*
X124066820Y-75848117D01*
X124176322Y-75751671D01*
X124274583Y-75665510D01*
X124359471Y-75591498D01*
X124428849Y-75531497D01*
X124480582Y-75487369D01*
X124512537Y-75460977D01*
X124522508Y-75453875D01*
X124527355Y-75457429D01*
X124534802Y-75469851D01*
X124545882Y-75493781D01*
X124561627Y-75531857D01*
X124583069Y-75586720D01*
X124611242Y-75661007D01*
X124647178Y-75757358D01*
X124691909Y-75878413D01*
X124743561Y-76018892D01*
X124790722Y-76147346D01*
X124655443Y-76303407D01*
X124480904Y-76509868D01*
X124297836Y-76735916D01*
X124108805Y-76977877D01*
X123916379Y-77232079D01*
X123723127Y-77494849D01*
X123531616Y-77762514D01*
X123344415Y-78031401D01*
X123164090Y-78297838D01*
X122993210Y-78558151D01*
X122834344Y-78808667D01*
X122690058Y-79045715D01*
X122562920Y-79265620D01*
X122486125Y-79406214D01*
X122399913Y-79568607D01*
X122347545Y-79492493D01*
X122247715Y-79336541D01*
X122144272Y-79154787D01*
X122039701Y-78952588D01*
X121936492Y-78735299D01*
X121837132Y-78508279D01*
X121744109Y-78276882D01*
X121659909Y-78046465D01*
X121618373Y-77922437D01*
X121543473Y-77678266D01*
X121468503Y-77410029D01*
X121395351Y-77125349D01*
X121325910Y-76831849D01*
X121262067Y-76537152D01*
X121212398Y-76284917D01*
X121167419Y-76044397D01*
X121085692Y-76451604D01*
X120995376Y-76875659D01*
X120900234Y-77270629D01*
X120799410Y-77638932D01*
X120692047Y-77982986D01*
X120577290Y-78305205D01*
X120454283Y-78608009D01*
X120322171Y-78893812D01*
X120180096Y-79165033D01*
X120040800Y-79402226D01*
X120002873Y-79462487D01*
X119970453Y-79512107D01*
X119947470Y-79545186D01*
X119938548Y-79555755D01*
X119926765Y-79545831D01*
X119904830Y-79513211D01*
X119876477Y-79463753D01*
X119859882Y-79432247D01*
X119767612Y-79260322D01*
X119656689Y-79067732D01*
X119529367Y-78857706D01*
X119387900Y-78633475D01*
X119234542Y-78398267D01*
X119071547Y-78155313D01*
X118901168Y-77907842D01*
X118725660Y-77659085D01*
X118547277Y-77412270D01*
X118368272Y-77170629D01*
X118190899Y-76937390D01*
X118017412Y-76715783D01*
X117850065Y-76509038D01*
X117691112Y-76320385D01*
X117676431Y-76303407D01*
X117541152Y-76147346D01*
X117588313Y-76018892D01*
X117642375Y-75871871D01*
X117686656Y-75752065D01*
X117722190Y-75656836D01*
X117750005Y-75583548D01*
X117771134Y-75529561D01*
X117786608Y-75492239D01*
X117797457Y-75468944D01*
X117804713Y-75457038D01*
X117809197Y-75453875D01*
X117823091Y-75464131D01*
X117858544Y-75493660D01*
X117913422Y-75540599D01*
X117985590Y-75603088D01*
X118072913Y-75679265D01*
X118173257Y-75767269D01*
X118284486Y-75865237D01*
X118404465Y-75971310D01*
X118509243Y-76064241D01*
X118634625Y-76175402D01*
X118752847Y-76279819D01*
X118861798Y-76375656D01*
X118959372Y-76461076D01*
X119043459Y-76534245D01*
X119111951Y-76593327D01*
X119162740Y-76636486D01*
X119193717Y-76661886D01*
X119202886Y-76668155D01*
X119202340Y-76651769D01*
X119198929Y-76605996D01*
X119192855Y-76533047D01*
X119184319Y-76435136D01*
X119173524Y-76314477D01*
X119160671Y-76173282D01*
X119145961Y-76013765D01*
X119129597Y-75838140D01*
X119111780Y-75648619D01*
X119092712Y-75447415D01*
X119090248Y-75421605D01*
X120589101Y-75421605D01*
X120594901Y-75423298D01*
X120618228Y-75406119D01*
X120654226Y-75373710D01*
X120658884Y-75369243D01*
X120715043Y-75322494D01*
X120784828Y-75274576D01*
X120848437Y-75238351D01*
X120990127Y-75184549D01*
X121133958Y-75161577D01*
X121276791Y-75168959D01*
X121415488Y-75206218D01*
X121546908Y-75272876D01*
X121660906Y-75361823D01*
X121701533Y-75398018D01*
X121730373Y-75420157D01*
X121742665Y-75424718D01*
X121742412Y-75422125D01*
X121736288Y-75403031D01*
X121721574Y-75356343D01*
X121699120Y-75284780D01*
X121669776Y-75191061D01*
X121634392Y-75077904D01*
X121593819Y-74948030D01*
X121548907Y-74804157D01*
X121500506Y-74649004D01*
X121452005Y-74493437D01*
X121401288Y-74330805D01*
X121353405Y-74177439D01*
X121309184Y-74035979D01*
X121269453Y-73909066D01*
X121235040Y-73799338D01*
X121206772Y-73709436D01*
X121185478Y-73642000D01*
X121171986Y-73599670D01*
X121167134Y-73585092D01*
X121162037Y-73599180D01*
X121148338Y-73640978D01*
X121126864Y-73707878D01*
X121098438Y-73797271D01*
X121063885Y-73906548D01*
X121024031Y-74033101D01*
X120979699Y-74174321D01*
X120931715Y-74327601D01*
X120881017Y-74489967D01*
X120829958Y-74653622D01*
X120781571Y-74808572D01*
X120736707Y-74952105D01*
X120696213Y-75081512D01*
X120660941Y-75194078D01*
X120631740Y-75287094D01*
X120609459Y-75357848D01*
X120594948Y-75403628D01*
X120589101Y-75421605D01*
X119090248Y-75421605D01*
X119072595Y-75236743D01*
X119069180Y-75201132D01*
G37*
X119069180Y-75201132D02*
X119048941Y-74989017D01*
X119029792Y-74785937D01*
X119011929Y-74594113D01*
X118995548Y-74415765D01*
X118980845Y-74253113D01*
X118968018Y-74108378D01*
X118957261Y-73983779D01*
X118948773Y-73881538D01*
X118942749Y-73803875D01*
X118939385Y-73753009D01*
X118938879Y-73731161D01*
X118939080Y-73730502D01*
X118955419Y-73734323D01*
X118997513Y-73749615D01*
X119062070Y-73775034D01*
X119145795Y-73809234D01*
X119245396Y-73850870D01*
X119357580Y-73898596D01*
X119479054Y-73951066D01*
X119481565Y-73952159D01*
X119603067Y-74004975D01*
X119715121Y-74053563D01*
X119814463Y-74096518D01*
X119897828Y-74132433D01*
X119961952Y-74159901D01*
X120003569Y-74177516D01*
X120019416Y-74183872D01*
X120019448Y-74183874D01*
X120027832Y-74170344D01*
X120050361Y-74131202D01*
X120085816Y-74068625D01*
X120132982Y-73984789D01*
X120190640Y-73881869D01*
X120257574Y-73762041D01*
X120332567Y-73627480D01*
X120414402Y-73480363D01*
X120501861Y-73322865D01*
X120587484Y-73168431D01*
X120679276Y-73003131D01*
X120766837Y-72846192D01*
X120848927Y-72699793D01*
X120924304Y-72566112D01*
X120991726Y-72447328D01*
X121049954Y-72345620D01*
X121097745Y-72263167D01*
X121133858Y-72202146D01*
X121157052Y-72164738D01*
X121165937Y-72153048D01*
X121176053Y-72166595D01*
X121200237Y-72205750D01*
X121237234Y-72268313D01*
X121285788Y-72352084D01*
X121344645Y-72454862D01*
X121412549Y-72574448D01*
X121488245Y-72708642D01*
X121570479Y-72855243D01*
X121657995Y-73012052D01*
X121733894Y-73148647D01*
X121824966Y-73312835D01*
X121911719Y-73469165D01*
X121992898Y-73615377D01*
X122067245Y-73749213D01*
X122133505Y-73868414D01*
X122190422Y-73970720D01*
X122236740Y-74053873D01*
X122271202Y-74115614D01*
X122292554Y-74153684D01*
X122299385Y-74165636D01*
X122309021Y-74168838D01*
X122331497Y-74165073D01*
X122369145Y-74153440D01*
X122424298Y-74133040D01*
X122499287Y-74102973D01*
X122596444Y-74062338D01*
X122718100Y-74010235D01*
X122847909Y-73953908D01*
X122969834Y-73901153D01*
X123082536Y-73853107D01*
X123182734Y-73811114D01*
X123267144Y-73776519D01*
X123332484Y-73750666D01*
X123375473Y-73734901D01*
X123392827Y-73730567D01*
X123392939Y-73730647D01*
X123392895Y-73747542D01*
X123389963Y-73793818D01*
X123384339Y-73867252D01*
X123376221Y-73965627D01*
X123365804Y-74086721D01*
X123353286Y-74228315D01*
X123338863Y-74388188D01*
X123322732Y-74564121D01*
X123305089Y-74753894D01*
X123286131Y-74955286D01*
X123266055Y-75166077D01*
X123262694Y-75201132D01*
X123242424Y-75413162D01*
X123223174Y-75616092D01*
X123205145Y-75807710D01*
X123188538Y-75985800D01*
X123173555Y-76148150D01*
X123160398Y-76292546D01*
X123149268Y-76416774D01*
X123140366Y-76518621D01*
X123133894Y-76595874D01*
X123130053Y-76646317D01*
X123129045Y-76667739D01*
X123129165Y-76668331D01*
X123141892Y-76659301D01*
X123176193Y-76630959D01*
X123229959Y-76585142D01*
X123301083Y-76523686D01*
X123387455Y-76448427D01*
X123486967Y-76361200D01*
X123597512Y-76263843D01*
X123716980Y-76158190D01*
X123822639Y-76064418D01*
X123948215Y-75952987D01*
X124066820Y-75848117D01*
X124176322Y-75751671D01*
X124274583Y-75665510D01*
X124359471Y-75591498D01*
X124428849Y-75531497D01*
X124480582Y-75487369D01*
X124512537Y-75460977D01*
X124522508Y-75453875D01*
X124527355Y-75457429D01*
X124534802Y-75469851D01*
X124545882Y-75493781D01*
X124561627Y-75531857D01*
X124583069Y-75586720D01*
X124611242Y-75661007D01*
X124647178Y-75757358D01*
X124691909Y-75878413D01*
X124743561Y-76018892D01*
X124790722Y-76147346D01*
X124655443Y-76303407D01*
X124480904Y-76509868D01*
X124297836Y-76735916D01*
X124108805Y-76977877D01*
X123916379Y-77232079D01*
X123723127Y-77494849D01*
X123531616Y-77762514D01*
X123344415Y-78031401D01*
X123164090Y-78297838D01*
X122993210Y-78558151D01*
X122834344Y-78808667D01*
X122690058Y-79045715D01*
X122562920Y-79265620D01*
X122486125Y-79406214D01*
X122399913Y-79568607D01*
X122347545Y-79492493D01*
X122247715Y-79336541D01*
X122144272Y-79154787D01*
X122039701Y-78952588D01*
X121936492Y-78735299D01*
X121837132Y-78508279D01*
X121744109Y-78276882D01*
X121659909Y-78046465D01*
X121618373Y-77922437D01*
X121543473Y-77678266D01*
X121468503Y-77410029D01*
X121395351Y-77125349D01*
X121325910Y-76831849D01*
X121262067Y-76537152D01*
X121212398Y-76284917D01*
X121167419Y-76044397D01*
X121085692Y-76451604D01*
X120995376Y-76875659D01*
X120900234Y-77270629D01*
X120799410Y-77638932D01*
X120692047Y-77982986D01*
X120577290Y-78305205D01*
X120454283Y-78608009D01*
X120322171Y-78893812D01*
X120180096Y-79165033D01*
X120040800Y-79402226D01*
X120002873Y-79462487D01*
X119970453Y-79512107D01*
X119947470Y-79545186D01*
X119938548Y-79555755D01*
X119926765Y-79545831D01*
X119904830Y-79513211D01*
X119876477Y-79463753D01*
X119859882Y-79432247D01*
X119767612Y-79260322D01*
X119656689Y-79067732D01*
X119529367Y-78857706D01*
X119387900Y-78633475D01*
X119234542Y-78398267D01*
X119071547Y-78155313D01*
X118901168Y-77907842D01*
X118725660Y-77659085D01*
X118547277Y-77412270D01*
X118368272Y-77170629D01*
X118190899Y-76937390D01*
X118017412Y-76715783D01*
X117850065Y-76509038D01*
X117691112Y-76320385D01*
X117676431Y-76303407D01*
X117541152Y-76147346D01*
X117588313Y-76018892D01*
X117642375Y-75871871D01*
X117686656Y-75752065D01*
X117722190Y-75656836D01*
X117750005Y-75583548D01*
X117771134Y-75529561D01*
X117786608Y-75492239D01*
X117797457Y-75468944D01*
X117804713Y-75457038D01*
X117809197Y-75453875D01*
X117823091Y-75464131D01*
X117858544Y-75493660D01*
X117913422Y-75540599D01*
X117985590Y-75603088D01*
X118072913Y-75679265D01*
X118173257Y-75767269D01*
X118284486Y-75865237D01*
X118404465Y-75971310D01*
X118509243Y-76064241D01*
X118634625Y-76175402D01*
X118752847Y-76279819D01*
X118861798Y-76375656D01*
X118959372Y-76461076D01*
X119043459Y-76534245D01*
X119111951Y-76593327D01*
X119162740Y-76636486D01*
X119193717Y-76661886D01*
X119202886Y-76668155D01*
X119202340Y-76651769D01*
X119198929Y-76605996D01*
X119192855Y-76533047D01*
X119184319Y-76435136D01*
X119173524Y-76314477D01*
X119160671Y-76173282D01*
X119145961Y-76013765D01*
X119129597Y-75838140D01*
X119111780Y-75648619D01*
X119092712Y-75447415D01*
X119090248Y-75421605D01*
X120589101Y-75421605D01*
X120594901Y-75423298D01*
X120618228Y-75406119D01*
X120654226Y-75373710D01*
X120658884Y-75369243D01*
X120715043Y-75322494D01*
X120784828Y-75274576D01*
X120848437Y-75238351D01*
X120990127Y-75184549D01*
X121133958Y-75161577D01*
X121276791Y-75168959D01*
X121415488Y-75206218D01*
X121546908Y-75272876D01*
X121660906Y-75361823D01*
X121701533Y-75398018D01*
X121730373Y-75420157D01*
X121742665Y-75424718D01*
X121742412Y-75422125D01*
X121736288Y-75403031D01*
X121721574Y-75356343D01*
X121699120Y-75284780D01*
X121669776Y-75191061D01*
X121634392Y-75077904D01*
X121593819Y-74948030D01*
X121548907Y-74804157D01*
X121500506Y-74649004D01*
X121452005Y-74493437D01*
X121401288Y-74330805D01*
X121353405Y-74177439D01*
X121309184Y-74035979D01*
X121269453Y-73909066D01*
X121235040Y-73799338D01*
X121206772Y-73709436D01*
X121185478Y-73642000D01*
X121171986Y-73599670D01*
X121167134Y-73585092D01*
X121162037Y-73599180D01*
X121148338Y-73640978D01*
X121126864Y-73707878D01*
X121098438Y-73797271D01*
X121063885Y-73906548D01*
X121024031Y-74033101D01*
X120979699Y-74174321D01*
X120931715Y-74327601D01*
X120881017Y-74489967D01*
X120829958Y-74653622D01*
X120781571Y-74808572D01*
X120736707Y-74952105D01*
X120696213Y-75081512D01*
X120660941Y-75194078D01*
X120631740Y-75287094D01*
X120609459Y-75357848D01*
X120594948Y-75403628D01*
X120589101Y-75421605D01*
X119090248Y-75421605D01*
X119072595Y-75236743D01*
X119069180Y-75201132D01*
X115684589Y-76035742D02*
X115728700Y-76043567D01*
X115728700Y-76043567D02*
X115797865Y-76056411D01*
X115797865Y-76056411D02*
X115889040Y-76073692D01*
X115889040Y-76073692D02*
X115999179Y-76094829D01*
X115999179Y-76094829D02*
X116125239Y-76119242D01*
X116125239Y-76119242D02*
X116264175Y-76146348D01*
X116264175Y-76146348D02*
X116412943Y-76175568D01*
X116412943Y-76175568D02*
X116415495Y-76176071D01*
X116415495Y-76176071D02*
X116599325Y-76212548D01*
X116599325Y-76212548D02*
X116753989Y-76243820D01*
X116753989Y-76243820D02*
X116881559Y-76270358D01*
X116881559Y-76270358D02*
X116984105Y-76292634D01*
X116984105Y-76292634D02*
X117063701Y-76311119D01*
X117063701Y-76311119D02*
X117122419Y-76326283D01*
X117122419Y-76326283D02*
X117162329Y-76338598D01*
X117162329Y-76338598D02*
X117185505Y-76348536D01*
X117185505Y-76348536D02*
X117191138Y-76352458D01*
X117191138Y-76352458D02*
X117219589Y-76383078D01*
X117219589Y-76383078D02*
X117263280Y-76436525D01*
X117263280Y-76436525D02*
X117319675Y-76509321D01*
X117319675Y-76509321D02*
X117386234Y-76597986D01*
X117386234Y-76597986D02*
X117460422Y-76699043D01*
X117460422Y-76699043D02*
X117539700Y-76809011D01*
X117539700Y-76809011D02*
X117621530Y-76924414D01*
X117621530Y-76924414D02*
X117703375Y-77041771D01*
X117703375Y-77041771D02*
X117782696Y-77157605D01*
X117782696Y-77157605D02*
X117832560Y-77231720D01*
X117832560Y-77231720D02*
X118068141Y-77594668D01*
X118068141Y-77594668D02*
X118298951Y-77969801D01*
X118298951Y-77969801D02*
X118522367Y-78352259D01*
X118522367Y-78352259D02*
X118735764Y-78737183D01*
X118735764Y-78737183D02*
X118936521Y-79119713D01*
X118936521Y-79119713D02*
X119122014Y-79494989D01*
X119122014Y-79494989D02*
X119289619Y-79858151D01*
X119289619Y-79858151D02*
X119435158Y-80200500D01*
X119435158Y-80200500D02*
X119471850Y-80294061D01*
X119471850Y-80294061D02*
X119511734Y-80400841D01*
X119511734Y-80400841D02*
X119552936Y-80515315D01*
X119552936Y-80515315D02*
X119593587Y-80631957D01*
X119593587Y-80631957D02*
X119631813Y-80745244D01*
X119631813Y-80745244D02*
X119665743Y-80849651D01*
X119665743Y-80849651D02*
X119693506Y-80939652D01*
X119693506Y-80939652D02*
X119713230Y-81009725D01*
X119713230Y-81009725D02*
X119721698Y-81046286D01*
X119721698Y-81046286D02*
X119731412Y-81084252D01*
X119731412Y-81084252D02*
X119741617Y-81104394D01*
X119741617Y-81104394D02*
X119743798Y-81105375D01*
X119743798Y-81105375D02*
X119759032Y-81093877D01*
X119759032Y-81093877D02*
X119791696Y-81061729D01*
X119791696Y-81061729D02*
X119838628Y-81012451D01*
X119838628Y-81012451D02*
X119896669Y-80949562D01*
X119896669Y-80949562D02*
X119962660Y-80876581D01*
X119962660Y-80876581D02*
X120033439Y-80797027D01*
X120033439Y-80797027D02*
X120105846Y-80714419D01*
X120105846Y-80714419D02*
X120176722Y-80632277D01*
X120176722Y-80632277D02*
X120242906Y-80554119D01*
X120242906Y-80554119D02*
X120291236Y-80495745D01*
X120291236Y-80495745D02*
X120439249Y-80308913D01*
X120439249Y-80308913D02*
X120575549Y-80124091D01*
X120575549Y-80124091D02*
X120704982Y-79934039D01*
X120704982Y-79934039D02*
X120832390Y-79731515D01*
X120832390Y-79731515D02*
X120962618Y-79509276D01*
X120962618Y-79509276D02*
X121022975Y-79401729D01*
X121022975Y-79401729D02*
X121067919Y-79322537D01*
X121067919Y-79322537D02*
X121108190Y-79255034D01*
X121108190Y-79255034D02*
X121141164Y-79203338D01*
X121141164Y-79203338D02*
X121164221Y-79171569D01*
X121164221Y-79171569D02*
X121174559Y-79163604D01*
X121174559Y-79163604D02*
X121186574Y-79181988D01*
X121186574Y-79181988D02*
X121210109Y-79222369D01*
X121210109Y-79222369D02*
X121241733Y-79278736D01*
X121241733Y-79278736D02*
X121277030Y-79343250D01*
X121277030Y-79343250D02*
X121452483Y-79653226D01*
X121452483Y-79653226D02*
X121630781Y-79938596D01*
X121630781Y-79938596D02*
X121816619Y-80206449D01*
X121816619Y-80206449D02*
X122014694Y-80463876D01*
X122014694Y-80463876D02*
X122039331Y-80494187D01*
X122039331Y-80494187D02*
X122099655Y-80566854D01*
X122099655Y-80566854D02*
X122167188Y-80646309D01*
X122167188Y-80646309D02*
X122238779Y-80729039D01*
X122238779Y-80729039D02*
X122311274Y-80811535D01*
X122311274Y-80811535D02*
X122381523Y-80890286D01*
X122381523Y-80890286D02*
X122446372Y-80961779D01*
X122446372Y-80961779D02*
X122502669Y-81022506D01*
X122502669Y-81022506D02*
X122547263Y-81068953D01*
X122547263Y-81068953D02*
X122577000Y-81097612D01*
X122577000Y-81097612D02*
X122588076Y-81105375D01*
X122588076Y-81105375D02*
X122597761Y-81091474D01*
X122597761Y-81091474D02*
X122607984Y-81057000D01*
X122607984Y-81057000D02*
X122610176Y-81046286D01*
X122610176Y-81046286D02*
X122622529Y-80995079D01*
X122622529Y-80995079D02*
X122644345Y-80919739D01*
X122644345Y-80919739D02*
X122673753Y-80825791D01*
X122673753Y-80825791D02*
X122708880Y-80718759D01*
X122708880Y-80718759D02*
X122747856Y-80604167D01*
X122747856Y-80604167D02*
X122788809Y-80487540D01*
X122788809Y-80487540D02*
X122829866Y-80374404D01*
X122829866Y-80374404D02*
X122869157Y-80270282D01*
X122869157Y-80270282D02*
X122896716Y-80200500D01*
X122896716Y-80200500D02*
X123041154Y-79860785D01*
X123041154Y-79860785D02*
X123205783Y-79503906D01*
X123205783Y-79503906D02*
X123387961Y-79134756D01*
X123387961Y-79134756D02*
X123585048Y-78758231D01*
X123585048Y-78758231D02*
X123794400Y-78379227D01*
X123794400Y-78379227D02*
X124013376Y-78002639D01*
X124013376Y-78002639D02*
X124239334Y-77633361D01*
X124239334Y-77633361D02*
X124469631Y-77276291D01*
X124469631Y-77276291D02*
X124497738Y-77234039D01*
X124497738Y-77234039D02*
X124573892Y-77121281D01*
X124573892Y-77121281D02*
X124654268Y-77004645D01*
X124654268Y-77004645D02*
X124736333Y-76887605D01*
X124736333Y-76887605D02*
X124817554Y-76773636D01*
X124817554Y-76773636D02*
X124895398Y-76666210D01*
X124895398Y-76666210D02*
X124967334Y-76568801D01*
X124967334Y-76568801D02*
X125030827Y-76484883D01*
X125030827Y-76484883D02*
X125083347Y-76417930D01*
X125083347Y-76417930D02*
X125122359Y-76371416D01*
X125122359Y-76371416D02*
X125140042Y-76353085D01*
X125140042Y-76353085D02*
X125156816Y-76344032D01*
X125156816Y-76344032D02*
X125190772Y-76332524D01*
X125190772Y-76332524D02*
X125243847Y-76318121D01*
X125243847Y-76318121D02*
X125317976Y-76300383D01*
X125317976Y-76300383D02*
X125415095Y-76278872D01*
X125415095Y-76278872D02*
X125537140Y-76253147D01*
X125537140Y-76253147D02*
X125686047Y-76222770D01*
X125686047Y-76222770D02*
X125863751Y-76187302D01*
X125863751Y-76187302D02*
X125915686Y-76177039D01*
X125915686Y-76177039D02*
X126064662Y-76147738D01*
X126064662Y-76147738D02*
X126203859Y-76120529D01*
X126203859Y-76120529D02*
X126330234Y-76095995D01*
X126330234Y-76095995D02*
X126440743Y-76074718D01*
X126440743Y-76074718D02*
X126532345Y-76057282D01*
X126532345Y-76057282D02*
X126601995Y-76044269D01*
X126601995Y-76044269D02*
X126646652Y-76036262D01*
X126646652Y-76036262D02*
X126663272Y-76033843D01*
X126663272Y-76033843D02*
X126663298Y-76033856D01*
X126663298Y-76033856D02*
X126660079Y-76049140D01*
X126660079Y-76049140D02*
X126649783Y-76092034D01*
X126649783Y-76092034D02*
X126633208Y-76159389D01*
X126633208Y-76159389D02*
X126611153Y-76248056D01*
X126611153Y-76248056D02*
X126584417Y-76354888D01*
X126584417Y-76354888D02*
X126553799Y-76476736D01*
X126553799Y-76476736D02*
X126520096Y-76610451D01*
X126520096Y-76610451D02*
X126484109Y-76752886D01*
X126484109Y-76752886D02*
X126446636Y-76900892D01*
X126446636Y-76900892D02*
X126408475Y-77051321D01*
X126408475Y-77051321D02*
X126370426Y-77201025D01*
X126370426Y-77201025D02*
X126333286Y-77346854D01*
X126333286Y-77346854D02*
X126297855Y-77485662D01*
X126297855Y-77485662D02*
X126264931Y-77614299D01*
X126264931Y-77614299D02*
X126235313Y-77729618D01*
X126235313Y-77729618D02*
X126209801Y-77828469D01*
X126209801Y-77828469D02*
X126189191Y-77907706D01*
X126189191Y-77907706D02*
X126174284Y-77964178D01*
X126174284Y-77964178D02*
X126165878Y-77994739D01*
X126165878Y-77994739D02*
X126165515Y-77995954D01*
X126165515Y-77995954D02*
X126169370Y-78008046D01*
X126169370Y-78008046D02*
X126188310Y-78026425D01*
X126188310Y-78026425D02*
X126224789Y-78052702D01*
X126224789Y-78052702D02*
X126281265Y-78088489D01*
X126281265Y-78088489D02*
X126360191Y-78135397D01*
X126360191Y-78135397D02*
X126464025Y-78195039D01*
X126464025Y-78195039D02*
X126499467Y-78215128D01*
X126499467Y-78215128D02*
X126593522Y-78268790D01*
X126593522Y-78268790D02*
X126677676Y-78317711D01*
X126677676Y-78317711D02*
X126748189Y-78359643D01*
X126748189Y-78359643D02*
X126801324Y-78392336D01*
X126801324Y-78392336D02*
X126833340Y-78413545D01*
X126833340Y-78413545D02*
X126841250Y-78420629D01*
X126841250Y-78420629D02*
X126828216Y-78430693D01*
X126828216Y-78430693D02*
X126790198Y-78457009D01*
X126790198Y-78457009D02*
X126728818Y-78498507D01*
X126728818Y-78498507D02*
X126645698Y-78554113D01*
X126645698Y-78554113D02*
X126542460Y-78622758D01*
X126542460Y-78622758D02*
X126420728Y-78703368D01*
X126420728Y-78703368D02*
X126282124Y-78794874D01*
X126282124Y-78794874D02*
X126128269Y-78896203D01*
X126128269Y-78896203D02*
X125960787Y-79006283D01*
X125960787Y-79006283D02*
X125781301Y-79124044D01*
X125781301Y-79124044D02*
X125591432Y-79248414D01*
X125591432Y-79248414D02*
X125392803Y-79378321D01*
X125392803Y-79378321D02*
X125238059Y-79479393D01*
X125238059Y-79479393D02*
X125033863Y-79612816D01*
X125033863Y-79612816D02*
X124837200Y-79741568D01*
X124837200Y-79741568D02*
X124649693Y-79864570D01*
X124649693Y-79864570D02*
X124472965Y-79980748D01*
X124472965Y-79980748D02*
X124308639Y-80089027D01*
X124308639Y-80089027D02*
X124158340Y-80188330D01*
X124158340Y-80188330D02*
X124023691Y-80277583D01*
X124023691Y-80277583D02*
X123906314Y-80355708D01*
X123906314Y-80355708D02*
X123807834Y-80421631D01*
X123807834Y-80421631D02*
X123729875Y-80474277D01*
X123729875Y-80474277D02*
X123674058Y-80512568D01*
X123674058Y-80512568D02*
X123642009Y-80535431D01*
X123642009Y-80535431D02*
X123634545Y-80541812D01*
X123634545Y-80541812D02*
X123639125Y-80559952D01*
X123639125Y-80559952D02*
X123652329Y-80605036D01*
X123652329Y-80605036D02*
X123673140Y-80673758D01*
X123673140Y-80673758D02*
X123700536Y-80762810D01*
X123700536Y-80762810D02*
X123733500Y-80868888D01*
X123733500Y-80868888D02*
X123771012Y-80988684D01*
X123771012Y-80988684D02*
X123812052Y-81118893D01*
X123812052Y-81118893D02*
X123826830Y-81165583D01*
X123826830Y-81165583D02*
X123868550Y-81298294D01*
X123868550Y-81298294D02*
X123906656Y-81421517D01*
X123906656Y-81421517D02*
X123940185Y-81531990D01*
X123940185Y-81531990D02*
X123968176Y-81626450D01*
X123968176Y-81626450D02*
X123989666Y-81701635D01*
X123989666Y-81701635D02*
X124003695Y-81754280D01*
X124003695Y-81754280D02*
X124009300Y-81781125D01*
X124009300Y-81781125D02*
X124009082Y-81783834D01*
X124009082Y-81783834D02*
X123992146Y-81783505D01*
X123992146Y-81783505D02*
X123945941Y-81779581D01*
X123945941Y-81779581D02*
X123872714Y-81772313D01*
X123872714Y-81772313D02*
X123774711Y-81761954D01*
X123774711Y-81761954D02*
X123654181Y-81748756D01*
X123654181Y-81748756D02*
X123513370Y-81732970D01*
X123513370Y-81732970D02*
X123354524Y-81714848D01*
X123354524Y-81714848D02*
X123179892Y-81694643D01*
X123179892Y-81694643D02*
X122991719Y-81672606D01*
X122991719Y-81672606D02*
X122792254Y-81648990D01*
X122792254Y-81648990D02*
X122583742Y-81624045D01*
X122583742Y-81624045D02*
X122582331Y-81623875D01*
X122582331Y-81623875D02*
X121165937Y-81453561D01*
X121165937Y-81453561D02*
X119778568Y-81620780D01*
X119778568Y-81620780D02*
X119571437Y-81645696D01*
X119571437Y-81645696D02*
X119372827Y-81669488D01*
X119372827Y-81669488D02*
X119185069Y-81691884D01*
X119185069Y-81691884D02*
X119010494Y-81712610D01*
X119010494Y-81712610D02*
X118851431Y-81731393D01*
X118851431Y-81731393D02*
X118710211Y-81747960D01*
X118710211Y-81747960D02*
X118589164Y-81762035D01*
X118589164Y-81762035D02*
X118490621Y-81773348D01*
X118490621Y-81773348D02*
X118416911Y-81781623D01*
X118416911Y-81781623D02*
X118370365Y-81786587D01*
X118370365Y-81786587D02*
X118353787Y-81788000D01*
X118353787Y-81788000D02*
X118325045Y-81783235D01*
X118325045Y-81783235D02*
X118316375Y-81774824D01*
X118316375Y-81774824D02*
X118321024Y-81757273D01*
X118321024Y-81757273D02*
X118334286Y-81712779D01*
X118334286Y-81712779D02*
X118355137Y-81644650D01*
X118355137Y-81644650D02*
X118382548Y-81556194D01*
X118382548Y-81556194D02*
X118415493Y-81450719D01*
X118415493Y-81450719D02*
X118452946Y-81331532D01*
X118452946Y-81331532D02*
X118493880Y-81201942D01*
X118493880Y-81201942D02*
X118506875Y-81160937D01*
X118506875Y-81160937D02*
X118548689Y-81028655D01*
X118548689Y-81028655D02*
X118587324Y-80905605D01*
X118587324Y-80905605D02*
X118621752Y-80795122D01*
X118621752Y-80795122D02*
X118650946Y-80700542D01*
X118650946Y-80700542D02*
X118673877Y-80625202D01*
X118673877Y-80625202D02*
X118689517Y-80572438D01*
X118689517Y-80572438D02*
X118696839Y-80545584D01*
X118696839Y-80545584D02*
X118697260Y-80543082D01*
X118697260Y-80543082D02*
X118684209Y-80532386D01*
X118684209Y-80532386D02*
X118646167Y-80505454D01*
X118646167Y-80505454D02*
X118584758Y-80463362D01*
X118584758Y-80463362D02*
X118501605Y-80407187D01*
X118501605Y-80407187D02*
X118398331Y-80338007D01*
X118398331Y-80338007D02*
X118276559Y-80256898D01*
X118276559Y-80256898D02*
X118137913Y-80164938D01*
X118137913Y-80164938D02*
X117984015Y-80063204D01*
X117984015Y-80063204D02*
X117816489Y-79952773D01*
X117816489Y-79952773D02*
X117636959Y-79834723D01*
X117636959Y-79834723D02*
X117447046Y-79710129D01*
X117447046Y-79710129D02*
X117248375Y-79580070D01*
X117248375Y-79580070D02*
X117093885Y-79479119D01*
X117093885Y-79479119D02*
X116889722Y-79345718D01*
X116889722Y-79345718D02*
X116693094Y-79217050D01*
X116693094Y-79217050D02*
X116505622Y-79094186D01*
X116505622Y-79094186D02*
X116328930Y-78978199D01*
X116328930Y-78978199D02*
X116164638Y-78870159D01*
X116164638Y-78870159D02*
X116014371Y-78771138D01*
X116014371Y-78771138D02*
X115879748Y-78682206D01*
X115879748Y-78682206D02*
X115762394Y-78604436D01*
X115762394Y-78604436D02*
X115663931Y-78538898D01*
X115663931Y-78538898D02*
X115585979Y-78486664D01*
X115585979Y-78486664D02*
X115530163Y-78448805D01*
X115530163Y-78448805D02*
X115498103Y-78426392D01*
X115498103Y-78426392D02*
X115490625Y-78420355D01*
X115490625Y-78420355D02*
X115503866Y-78409580D01*
X115503866Y-78409580D02*
X115541097Y-78385584D01*
X115541097Y-78385584D02*
X115598581Y-78350612D01*
X115598581Y-78350612D02*
X115672577Y-78306909D01*
X115672577Y-78306909D02*
X115759349Y-78256720D01*
X115759349Y-78256720D02*
X115832407Y-78215128D01*
X115832407Y-78215128D02*
X115943992Y-78151456D01*
X115943992Y-78151456D02*
X116029952Y-78100989D01*
X116029952Y-78100989D02*
X116092741Y-78062115D01*
X116092741Y-78062115D02*
X116134817Y-78033223D01*
X116134817Y-78033223D02*
X116158633Y-78012700D01*
X116158633Y-78012700D02*
X116166647Y-77998936D01*
X116166647Y-77998936D02*
X116166359Y-77995954D01*
X116166359Y-77995954D02*
X116158448Y-77967399D01*
X116158448Y-77967399D02*
X116143980Y-77912700D01*
X116143980Y-77912700D02*
X116123752Y-77835003D01*
X116123752Y-77835003D02*
X116098564Y-77737459D01*
X116098564Y-77737459D02*
X116069213Y-77623216D01*
X116069213Y-77623216D02*
X116036500Y-77495422D01*
X116036500Y-77495422D02*
X116001221Y-77357226D01*
X116001221Y-77357226D02*
X115964177Y-77211777D01*
X115964177Y-77211777D02*
X115926165Y-77062223D01*
X115926165Y-77062223D02*
X115887985Y-76911713D01*
X115887985Y-76911713D02*
X115850435Y-76763396D01*
X115850435Y-76763396D02*
X115814313Y-76620420D01*
X115814313Y-76620420D02*
X115780419Y-76485934D01*
X115780419Y-76485934D02*
X115749551Y-76363087D01*
X115749551Y-76363087D02*
X115722507Y-76255026D01*
X115722507Y-76255026D02*
X115700087Y-76164902D01*
X115700087Y-76164902D02*
X115683089Y-76095862D01*
X115683089Y-76095862D02*
X115672312Y-76051055D01*
X115672312Y-76051055D02*
X115668554Y-76033630D01*
X115668554Y-76033630D02*
X115668576Y-76033515D01*
X115668576Y-76033515D02*
X115684589Y-76035742D01*
X115684589Y-76035742D02*
X115684589Y-76035742D01*
G36*
X115684589Y-76035742D02*
G01*
X115728700Y-76043567D01*
X115797865Y-76056411D01*
X115889040Y-76073692D01*
X115999179Y-76094829D01*
X116125239Y-76119242D01*
X116264175Y-76146348D01*
X116412943Y-76175568D01*
X116415495Y-76176071D01*
X116599325Y-76212548D01*
X116753989Y-76243820D01*
X116881559Y-76270358D01*
X116984105Y-76292634D01*
X117063701Y-76311119D01*
X117122419Y-76326283D01*
X117162329Y-76338598D01*
X117185505Y-76348536D01*
X117191138Y-76352458D01*
X117219589Y-76383078D01*
X117263280Y-76436525D01*
X117319675Y-76509321D01*
X117386234Y-76597986D01*
X117460422Y-76699043D01*
X117539700Y-76809011D01*
X117621530Y-76924414D01*
X117703375Y-77041771D01*
X117782696Y-77157605D01*
X117832560Y-77231720D01*
X118068141Y-77594668D01*
X118298951Y-77969801D01*
X118522367Y-78352259D01*
X118735764Y-78737183D01*
X118936521Y-79119713D01*
X119122014Y-79494989D01*
X119289619Y-79858151D01*
X119435158Y-80200500D01*
X119471850Y-80294061D01*
X119511734Y-80400841D01*
X119552936Y-80515315D01*
X119593587Y-80631957D01*
X119631813Y-80745244D01*
X119665743Y-80849651D01*
X119693506Y-80939652D01*
X119713230Y-81009725D01*
X119721698Y-81046286D01*
X119731412Y-81084252D01*
X119741617Y-81104394D01*
X119743798Y-81105375D01*
X119759032Y-81093877D01*
X119791696Y-81061729D01*
X119838628Y-81012451D01*
X119896669Y-80949562D01*
X119962660Y-80876581D01*
X120033439Y-80797027D01*
X120105846Y-80714419D01*
X120176722Y-80632277D01*
X120242906Y-80554119D01*
X120291236Y-80495745D01*
X120439249Y-80308913D01*
X120575549Y-80124091D01*
X120704982Y-79934039D01*
X120832390Y-79731515D01*
X120962618Y-79509276D01*
X121022975Y-79401729D01*
X121067919Y-79322537D01*
X121108190Y-79255034D01*
X121141164Y-79203338D01*
X121164221Y-79171569D01*
X121174559Y-79163604D01*
X121186574Y-79181988D01*
X121210109Y-79222369D01*
X121241733Y-79278736D01*
X121277030Y-79343250D01*
X121452483Y-79653226D01*
X121630781Y-79938596D01*
X121816619Y-80206449D01*
X122014694Y-80463876D01*
X122039331Y-80494187D01*
X122099655Y-80566854D01*
X122167188Y-80646309D01*
X122238779Y-80729039D01*
X122311274Y-80811535D01*
X122381523Y-80890286D01*
X122446372Y-80961779D01*
X122502669Y-81022506D01*
X122547263Y-81068953D01*
X122577000Y-81097612D01*
X122588076Y-81105375D01*
X122597761Y-81091474D01*
X122607984Y-81057000D01*
X122610176Y-81046286D01*
X122622529Y-80995079D01*
X122644345Y-80919739D01*
X122673753Y-80825791D01*
X122708880Y-80718759D01*
X122747856Y-80604167D01*
X122788809Y-80487540D01*
X122829866Y-80374404D01*
X122869157Y-80270282D01*
X122896716Y-80200500D01*
X123041154Y-79860785D01*
X123205783Y-79503906D01*
X123387961Y-79134756D01*
X123585048Y-78758231D01*
X123794400Y-78379227D01*
X124013376Y-78002639D01*
X124239334Y-77633361D01*
X124469631Y-77276291D01*
X124497738Y-77234039D01*
X124573892Y-77121281D01*
X124654268Y-77004645D01*
X124736333Y-76887605D01*
X124817554Y-76773636D01*
X124895398Y-76666210D01*
X124967334Y-76568801D01*
X125030827Y-76484883D01*
X125083347Y-76417930D01*
X125122359Y-76371416D01*
X125140042Y-76353085D01*
X125156816Y-76344032D01*
X125190772Y-76332524D01*
X125243847Y-76318121D01*
X125317976Y-76300383D01*
X125415095Y-76278872D01*
X125537140Y-76253147D01*
X125686047Y-76222770D01*
X125863751Y-76187302D01*
X125915686Y-76177039D01*
X126064662Y-76147738D01*
X126203859Y-76120529D01*
X126330234Y-76095995D01*
X126440743Y-76074718D01*
X126532345Y-76057282D01*
X126601995Y-76044269D01*
X126646652Y-76036262D01*
X126663272Y-76033843D01*
X126663298Y-76033856D01*
X126660079Y-76049140D01*
X126649783Y-76092034D01*
X126633208Y-76159389D01*
X126611153Y-76248056D01*
X126584417Y-76354888D01*
X126553799Y-76476736D01*
X126520096Y-76610451D01*
X126484109Y-76752886D01*
X126446636Y-76900892D01*
X126408475Y-77051321D01*
X126370426Y-77201025D01*
X126333286Y-77346854D01*
X126297855Y-77485662D01*
X126264931Y-77614299D01*
X126235313Y-77729618D01*
X126209801Y-77828469D01*
X126189191Y-77907706D01*
X126174284Y-77964178D01*
X126165878Y-77994739D01*
X126165515Y-77995954D01*
X126169370Y-78008046D01*
X126188310Y-78026425D01*
X126224789Y-78052702D01*
X126281265Y-78088489D01*
X126360191Y-78135397D01*
X126464025Y-78195039D01*
X126499467Y-78215128D01*
X126593522Y-78268790D01*
X126677676Y-78317711D01*
X126748189Y-78359643D01*
X126801324Y-78392336D01*
X126833340Y-78413545D01*
X126841250Y-78420629D01*
X126828216Y-78430693D01*
X126790198Y-78457009D01*
X126728818Y-78498507D01*
X126645698Y-78554113D01*
X126542460Y-78622758D01*
X126420728Y-78703368D01*
X126282124Y-78794874D01*
X126128269Y-78896203D01*
X125960787Y-79006283D01*
X125781301Y-79124044D01*
X125591432Y-79248414D01*
X125392803Y-79378321D01*
X125238059Y-79479393D01*
X125033863Y-79612816D01*
X124837200Y-79741568D01*
X124649693Y-79864570D01*
X124472965Y-79980748D01*
X124308639Y-80089027D01*
X124158340Y-80188330D01*
X124023691Y-80277583D01*
X123906314Y-80355708D01*
X123807834Y-80421631D01*
X123729875Y-80474277D01*
X123674058Y-80512568D01*
X123642009Y-80535431D01*
X123634545Y-80541812D01*
X123639125Y-80559952D01*
X123652329Y-80605036D01*
X123673140Y-80673758D01*
X123700536Y-80762810D01*
X123733500Y-80868888D01*
X123771012Y-80988684D01*
X123812052Y-81118893D01*
X123826830Y-81165583D01*
X123868550Y-81298294D01*
X123906656Y-81421517D01*
X123940185Y-81531990D01*
X123968176Y-81626450D01*
X123989666Y-81701635D01*
X124003695Y-81754280D01*
X124009300Y-81781125D01*
X124009082Y-81783834D01*
X123992146Y-81783505D01*
X123945941Y-81779581D01*
X123872714Y-81772313D01*
X123774711Y-81761954D01*
X123654181Y-81748756D01*
X123513370Y-81732970D01*
X123354524Y-81714848D01*
X123179892Y-81694643D01*
X122991719Y-81672606D01*
X122792254Y-81648990D01*
X122583742Y-81624045D01*
X122582331Y-81623875D01*
X121165937Y-81453561D01*
X119778568Y-81620780D01*
X119571437Y-81645696D01*
X119372827Y-81669488D01*
X119185069Y-81691884D01*
X119010494Y-81712610D01*
X118851431Y-81731393D01*
X118710211Y-81747960D01*
X118589164Y-81762035D01*
X118490621Y-81773348D01*
X118416911Y-81781623D01*
X118370365Y-81786587D01*
X118353787Y-81788000D01*
X118325045Y-81783235D01*
X118316375Y-81774824D01*
X118321024Y-81757273D01*
X118334286Y-81712779D01*
X118355137Y-81644650D01*
X118382548Y-81556194D01*
X118415493Y-81450719D01*
X118452946Y-81331532D01*
X118493880Y-81201942D01*
X118506875Y-81160937D01*
X118548689Y-81028655D01*
X118587324Y-80905605D01*
X118621752Y-80795122D01*
X118650946Y-80700542D01*
X118673877Y-80625202D01*
X118689517Y-80572438D01*
X118696839Y-80545584D01*
X118697260Y-80543082D01*
X118684209Y-80532386D01*
X118646167Y-80505454D01*
X118584758Y-80463362D01*
X118501605Y-80407187D01*
X118398331Y-80338007D01*
X118276559Y-80256898D01*
X118137913Y-80164938D01*
X117984015Y-80063204D01*
X117816489Y-79952773D01*
X117636959Y-79834723D01*
X117447046Y-79710129D01*
X117248375Y-79580070D01*
X117093885Y-79479119D01*
X116889722Y-79345718D01*
X116693094Y-79217050D01*
X116505622Y-79094186D01*
X116328930Y-78978199D01*
X116164638Y-78870159D01*
X116014371Y-78771138D01*
X115879748Y-78682206D01*
X115762394Y-78604436D01*
X115663931Y-78538898D01*
X115585979Y-78486664D01*
X115530163Y-78448805D01*
X115498103Y-78426392D01*
X115490625Y-78420355D01*
X115503866Y-78409580D01*
X115541097Y-78385584D01*
X115598581Y-78350612D01*
X115672577Y-78306909D01*
X115759349Y-78256720D01*
X115832407Y-78215128D01*
X115943992Y-78151456D01*
X116029952Y-78100989D01*
X116092741Y-78062115D01*
X116134817Y-78033223D01*
X116158633Y-78012700D01*
X116166647Y-77998936D01*
X116166359Y-77995954D01*
X116158448Y-77967399D01*
X116143980Y-77912700D01*
X116123752Y-77835003D01*
X116098564Y-77737459D01*
X116069213Y-77623216D01*
X116036500Y-77495422D01*
X116001221Y-77357226D01*
X115964177Y-77211777D01*
X115926165Y-77062223D01*
X115887985Y-76911713D01*
X115850435Y-76763396D01*
X115814313Y-76620420D01*
X115780419Y-76485934D01*
X115749551Y-76363087D01*
X115722507Y-76255026D01*
X115700087Y-76164902D01*
X115683089Y-76095862D01*
X115672312Y-76051055D01*
X115668554Y-76033630D01*
X115668576Y-76033515D01*
X115684589Y-76035742D01*
G37*
X115684589Y-76035742D02*
X115728700Y-76043567D01*
X115797865Y-76056411D01*
X115889040Y-76073692D01*
X115999179Y-76094829D01*
X116125239Y-76119242D01*
X116264175Y-76146348D01*
X116412943Y-76175568D01*
X116415495Y-76176071D01*
X116599325Y-76212548D01*
X116753989Y-76243820D01*
X116881559Y-76270358D01*
X116984105Y-76292634D01*
X117063701Y-76311119D01*
X117122419Y-76326283D01*
X117162329Y-76338598D01*
X117185505Y-76348536D01*
X117191138Y-76352458D01*
X117219589Y-76383078D01*
X117263280Y-76436525D01*
X117319675Y-76509321D01*
X117386234Y-76597986D01*
X117460422Y-76699043D01*
X117539700Y-76809011D01*
X117621530Y-76924414D01*
X117703375Y-77041771D01*
X117782696Y-77157605D01*
X117832560Y-77231720D01*
X118068141Y-77594668D01*
X118298951Y-77969801D01*
X118522367Y-78352259D01*
X118735764Y-78737183D01*
X118936521Y-79119713D01*
X119122014Y-79494989D01*
X119289619Y-79858151D01*
X119435158Y-80200500D01*
X119471850Y-80294061D01*
X119511734Y-80400841D01*
X119552936Y-80515315D01*
X119593587Y-80631957D01*
X119631813Y-80745244D01*
X119665743Y-80849651D01*
X119693506Y-80939652D01*
X119713230Y-81009725D01*
X119721698Y-81046286D01*
X119731412Y-81084252D01*
X119741617Y-81104394D01*
X119743798Y-81105375D01*
X119759032Y-81093877D01*
X119791696Y-81061729D01*
X119838628Y-81012451D01*
X119896669Y-80949562D01*
X119962660Y-80876581D01*
X120033439Y-80797027D01*
X120105846Y-80714419D01*
X120176722Y-80632277D01*
X120242906Y-80554119D01*
X120291236Y-80495745D01*
X120439249Y-80308913D01*
X120575549Y-80124091D01*
X120704982Y-79934039D01*
X120832390Y-79731515D01*
X120962618Y-79509276D01*
X121022975Y-79401729D01*
X121067919Y-79322537D01*
X121108190Y-79255034D01*
X121141164Y-79203338D01*
X121164221Y-79171569D01*
X121174559Y-79163604D01*
X121186574Y-79181988D01*
X121210109Y-79222369D01*
X121241733Y-79278736D01*
X121277030Y-79343250D01*
X121452483Y-79653226D01*
X121630781Y-79938596D01*
X121816619Y-80206449D01*
X122014694Y-80463876D01*
X122039331Y-80494187D01*
X122099655Y-80566854D01*
X122167188Y-80646309D01*
X122238779Y-80729039D01*
X122311274Y-80811535D01*
X122381523Y-80890286D01*
X122446372Y-80961779D01*
X122502669Y-81022506D01*
X122547263Y-81068953D01*
X122577000Y-81097612D01*
X122588076Y-81105375D01*
X122597761Y-81091474D01*
X122607984Y-81057000D01*
X122610176Y-81046286D01*
X122622529Y-80995079D01*
X122644345Y-80919739D01*
X122673753Y-80825791D01*
X122708880Y-80718759D01*
X122747856Y-80604167D01*
X122788809Y-80487540D01*
X122829866Y-80374404D01*
X122869157Y-80270282D01*
X122896716Y-80200500D01*
X123041154Y-79860785D01*
X123205783Y-79503906D01*
X123387961Y-79134756D01*
X123585048Y-78758231D01*
X123794400Y-78379227D01*
X124013376Y-78002639D01*
X124239334Y-77633361D01*
X124469631Y-77276291D01*
X124497738Y-77234039D01*
X124573892Y-77121281D01*
X124654268Y-77004645D01*
X124736333Y-76887605D01*
X124817554Y-76773636D01*
X124895398Y-76666210D01*
X124967334Y-76568801D01*
X125030827Y-76484883D01*
X125083347Y-76417930D01*
X125122359Y-76371416D01*
X125140042Y-76353085D01*
X125156816Y-76344032D01*
X125190772Y-76332524D01*
X125243847Y-76318121D01*
X125317976Y-76300383D01*
X125415095Y-76278872D01*
X125537140Y-76253147D01*
X125686047Y-76222770D01*
X125863751Y-76187302D01*
X125915686Y-76177039D01*
X126064662Y-76147738D01*
X126203859Y-76120529D01*
X126330234Y-76095995D01*
X126440743Y-76074718D01*
X126532345Y-76057282D01*
X126601995Y-76044269D01*
X126646652Y-76036262D01*
X126663272Y-76033843D01*
X126663298Y-76033856D01*
X126660079Y-76049140D01*
X126649783Y-76092034D01*
X126633208Y-76159389D01*
X126611153Y-76248056D01*
X126584417Y-76354888D01*
X126553799Y-76476736D01*
X126520096Y-76610451D01*
X126484109Y-76752886D01*
X126446636Y-76900892D01*
X126408475Y-77051321D01*
X126370426Y-77201025D01*
X126333286Y-77346854D01*
X126297855Y-77485662D01*
X126264931Y-77614299D01*
X126235313Y-77729618D01*
X126209801Y-77828469D01*
X126189191Y-77907706D01*
X126174284Y-77964178D01*
X126165878Y-77994739D01*
X126165515Y-77995954D01*
X126169370Y-78008046D01*
X126188310Y-78026425D01*
X126224789Y-78052702D01*
X126281265Y-78088489D01*
X126360191Y-78135397D01*
X126464025Y-78195039D01*
X126499467Y-78215128D01*
X126593522Y-78268790D01*
X126677676Y-78317711D01*
X126748189Y-78359643D01*
X126801324Y-78392336D01*
X126833340Y-78413545D01*
X126841250Y-78420629D01*
X126828216Y-78430693D01*
X126790198Y-78457009D01*
X126728818Y-78498507D01*
X126645698Y-78554113D01*
X126542460Y-78622758D01*
X126420728Y-78703368D01*
X126282124Y-78794874D01*
X126128269Y-78896203D01*
X125960787Y-79006283D01*
X125781301Y-79124044D01*
X125591432Y-79248414D01*
X125392803Y-79378321D01*
X125238059Y-79479393D01*
X125033863Y-79612816D01*
X124837200Y-79741568D01*
X124649693Y-79864570D01*
X124472965Y-79980748D01*
X124308639Y-80089027D01*
X124158340Y-80188330D01*
X124023691Y-80277583D01*
X123906314Y-80355708D01*
X123807834Y-80421631D01*
X123729875Y-80474277D01*
X123674058Y-80512568D01*
X123642009Y-80535431D01*
X123634545Y-80541812D01*
X123639125Y-80559952D01*
X123652329Y-80605036D01*
X123673140Y-80673758D01*
X123700536Y-80762810D01*
X123733500Y-80868888D01*
X123771012Y-80988684D01*
X123812052Y-81118893D01*
X123826830Y-81165583D01*
X123868550Y-81298294D01*
X123906656Y-81421517D01*
X123940185Y-81531990D01*
X123968176Y-81626450D01*
X123989666Y-81701635D01*
X124003695Y-81754280D01*
X124009300Y-81781125D01*
X124009082Y-81783834D01*
X123992146Y-81783505D01*
X123945941Y-81779581D01*
X123872714Y-81772313D01*
X123774711Y-81761954D01*
X123654181Y-81748756D01*
X123513370Y-81732970D01*
X123354524Y-81714848D01*
X123179892Y-81694643D01*
X122991719Y-81672606D01*
X122792254Y-81648990D01*
X122583742Y-81624045D01*
X122582331Y-81623875D01*
X121165937Y-81453561D01*
X119778568Y-81620780D01*
X119571437Y-81645696D01*
X119372827Y-81669488D01*
X119185069Y-81691884D01*
X119010494Y-81712610D01*
X118851431Y-81731393D01*
X118710211Y-81747960D01*
X118589164Y-81762035D01*
X118490621Y-81773348D01*
X118416911Y-81781623D01*
X118370365Y-81786587D01*
X118353787Y-81788000D01*
X118325045Y-81783235D01*
X118316375Y-81774824D01*
X118321024Y-81757273D01*
X118334286Y-81712779D01*
X118355137Y-81644650D01*
X118382548Y-81556194D01*
X118415493Y-81450719D01*
X118452946Y-81331532D01*
X118493880Y-81201942D01*
X118506875Y-81160937D01*
X118548689Y-81028655D01*
X118587324Y-80905605D01*
X118621752Y-80795122D01*
X118650946Y-80700542D01*
X118673877Y-80625202D01*
X118689517Y-80572438D01*
X118696839Y-80545584D01*
X118697260Y-80543082D01*
X118684209Y-80532386D01*
X118646167Y-80505454D01*
X118584758Y-80463362D01*
X118501605Y-80407187D01*
X118398331Y-80338007D01*
X118276559Y-80256898D01*
X118137913Y-80164938D01*
X117984015Y-80063204D01*
X117816489Y-79952773D01*
X117636959Y-79834723D01*
X117447046Y-79710129D01*
X117248375Y-79580070D01*
X117093885Y-79479119D01*
X116889722Y-79345718D01*
X116693094Y-79217050D01*
X116505622Y-79094186D01*
X116328930Y-78978199D01*
X116164638Y-78870159D01*
X116014371Y-78771138D01*
X115879748Y-78682206D01*
X115762394Y-78604436D01*
X115663931Y-78538898D01*
X115585979Y-78486664D01*
X115530163Y-78448805D01*
X115498103Y-78426392D01*
X115490625Y-78420355D01*
X115503866Y-78409580D01*
X115541097Y-78385584D01*
X115598581Y-78350612D01*
X115672577Y-78306909D01*
X115759349Y-78256720D01*
X115832407Y-78215128D01*
X115943992Y-78151456D01*
X116029952Y-78100989D01*
X116092741Y-78062115D01*
X116134817Y-78033223D01*
X116158633Y-78012700D01*
X116166647Y-77998936D01*
X116166359Y-77995954D01*
X116158448Y-77967399D01*
X116143980Y-77912700D01*
X116123752Y-77835003D01*
X116098564Y-77737459D01*
X116069213Y-77623216D01*
X116036500Y-77495422D01*
X116001221Y-77357226D01*
X115964177Y-77211777D01*
X115926165Y-77062223D01*
X115887985Y-76911713D01*
X115850435Y-76763396D01*
X115814313Y-76620420D01*
X115780419Y-76485934D01*
X115749551Y-76363087D01*
X115722507Y-76255026D01*
X115700087Y-76164902D01*
X115683089Y-76095862D01*
X115672312Y-76051055D01*
X115668554Y-76033630D01*
X115668576Y-76033515D01*
X115684589Y-76035742D01*
D12*
X129259064Y-131799000D02*
X128804936Y-131799000D01*
X129259064Y-130329000D02*
X128804936Y-130329000D01*
X148610000Y-70373000D02*
X138490000Y-70373000D01*
X148610000Y-73333000D02*
X148610000Y-63412000D01*
X148610000Y-63412000D02*
X138490000Y-63412000D01*
X148610000Y-65472000D02*
X138490000Y-65472000D01*
X148610000Y-63972000D02*
X138490000Y-63972000D01*
X139775000Y-69141000D02*
X139822000Y-69095000D01*
X142277000Y-67049000D02*
X142324000Y-67003000D01*
X138490000Y-73333000D02*
X138490000Y-63412000D01*
X148850000Y-63172000D02*
X148350000Y-63172000D01*
X148850000Y-63912000D02*
X148850000Y-63172000D01*
X148610000Y-73333000D02*
X138490000Y-73333000D01*
X139980000Y-69347000D02*
X140015000Y-69311000D01*
X142084000Y-66833000D02*
X142119000Y-66798000D01*
X147585000Y-68756000D02*
G75*
G03*
X147585427Y-67388958I-1534993J684001D01*
G01*
X146050000Y-66392000D02*
G75*
G03*
X145366682Y-66537244I-1J-1679992D01*
G01*
X144515000Y-67388000D02*
G75*
G03*
X144514573Y-68755042I1534993J-684001D01*
G01*
X146734000Y-66537000D02*
G75*
G03*
X146021195Y-66391747I-683999J-1535001D01*
G01*
X145366000Y-69607000D02*
G75*
G03*
X146733042Y-69607427I684001J1534993D01*
G01*
X142730000Y-68072000D02*
G75*
G03*
X142730000Y-68072000I-1680000J0D01*
G01*
X94286000Y-80554000D02*
X94286000Y-85054000D01*
X98286000Y-79304000D02*
X96786000Y-79304000D01*
X96786000Y-86304000D02*
X98286000Y-86304000D01*
X100786000Y-85054000D02*
X100786000Y-80554000D01*
X134847064Y-126773000D02*
X134392936Y-126773000D01*
X134847064Y-128243000D02*
X134392936Y-128243000D01*
X134847064Y-135355000D02*
X134392936Y-135355000D01*
X134847064Y-133885000D02*
X134392936Y-133885000D01*
X119099000Y-153389064D02*
X119099000Y-152934936D01*
X117629000Y-153389064D02*
X117629000Y-152934936D01*
X129259064Y-126773000D02*
X128804936Y-126773000D01*
X129259064Y-128243000D02*
X128804936Y-128243000D01*
%LPC*%
D14*
X115824000Y-130036500D03*
D15*
X113284000Y-130036500D03*
X110744000Y-130036500D03*
X108204000Y-130036500D03*
X105664000Y-130036500D03*
X105664000Y-140196500D03*
X108204000Y-140196500D03*
X110744000Y-140196500D03*
X113284000Y-140196500D03*
X115824000Y-140196500D03*
D16*
X130302000Y-113792000D03*
X132352000Y-113792000D03*
D17*
X140462000Y-113792000D03*
X138412000Y-113792000D03*
D16*
X115062000Y-113792000D03*
X117112000Y-113792000D03*
D18*
X103632000Y-98632000D03*
X103632000Y-103632000D03*
X103632000Y-118632000D03*
X103632000Y-113632000D03*
D19*
X109629500Y-68771000D03*
X133829500Y-68771000D03*
D20*
X114854500Y-93071000D03*
X117354500Y-93071000D03*
X120654500Y-93071000D03*
X122354500Y-93071000D03*
X124854500Y-93071000D03*
X127354500Y-93071000D03*
X129779500Y-93071000D03*
X131479500Y-93071000D03*
X112354500Y-93071000D03*
X119004500Y-93071000D03*
X134829500Y-93071000D03*
D21*
X107329500Y-72071000D03*
X135729500Y-70871000D03*
D22*
X130556000Y-151638000D03*
D23*
X130556000Y-149138000D03*
X130556000Y-146638000D03*
X130556000Y-144138000D03*
X130556000Y-141638000D03*
D24*
X111252000Y-109220000D03*
D25*
X111252000Y-106680000D03*
X111252000Y-104140000D03*
D26*
X132855500Y-117566000D03*
D27*
X135395500Y-117566000D03*
X137935500Y-117566000D03*
D26*
X117806000Y-117566000D03*
D27*
X120346000Y-117566000D03*
X122886000Y-117566000D03*
D28*
X112268000Y-165100000D03*
X133096000Y-165100000D03*
X122174000Y-165100000D03*
D22*
X138684000Y-151638000D03*
D23*
X138684000Y-149138000D03*
X138684000Y-146638000D03*
X138684000Y-144138000D03*
X138684000Y-141638000D03*
D29*
X101520000Y-68072000D03*
D30*
X96520000Y-68072000D03*
D31*
X124206000Y-103612000D03*
D32*
X121666000Y-103612000D03*
D31*
X132588000Y-103632000D03*
D32*
X130048000Y-103632000D03*
D31*
X140970000Y-103612000D03*
D32*
X138430000Y-103612000D03*
D33*
X119009000Y-148582000D03*
X119009000Y-147582000D03*
X117719000Y-148082000D03*
X124851000Y-137914000D03*
X124851000Y-136914000D03*
X123561000Y-137414000D03*
D17*
X125476000Y-113792000D03*
X123426000Y-113792000D03*
D28*
X101092000Y-165100000D03*
D34*
X115078000Y-107950000D03*
X117078000Y-107950000D03*
D35*
X117150500Y-103949500D03*
X115150500Y-103949500D03*
X117094000Y-100330000D03*
X115094000Y-100330000D03*
D34*
X139208000Y-80518000D03*
X141208000Y-80518000D03*
X139192000Y-84328000D03*
X141192000Y-84328000D03*
D35*
X117094000Y-96520000D03*
X115094000Y-96520000D03*
D36*
X106172000Y-154162000D03*
X106172000Y-152162000D03*
X102362000Y-154162000D03*
X102362000Y-152162000D03*
X106172000Y-149082000D03*
X106172000Y-147082000D03*
X102362000Y-149082000D03*
X102362000Y-147082000D03*
X113792000Y-149082000D03*
X113792000Y-147082000D03*
X109982000Y-154162000D03*
X109982000Y-152162000D03*
X113792000Y-154162000D03*
X113792000Y-152162000D03*
X109982000Y-149082000D03*
X109982000Y-147082000D03*
D35*
X141192000Y-88138000D03*
X139192000Y-88138000D03*
D36*
X111252000Y-98520000D03*
X111252000Y-96520000D03*
D35*
X141208000Y-91948000D03*
X139208000Y-91948000D03*
X146018000Y-78740000D03*
X144018000Y-78740000D03*
D37*
X123190000Y-152162000D03*
X123190000Y-154162000D03*
D36*
X123190000Y-149336000D03*
X123190000Y-147336000D03*
D38*
X135620000Y-131064000D03*
X133620000Y-131064000D03*
D39*
X123714000Y-143002000D03*
X125714000Y-143002000D03*
D38*
X130032000Y-134620000D03*
X128032000Y-134620000D03*
D40*
X97028000Y-92202000D03*
X97028000Y-99822000D03*
X97028000Y-102362000D03*
X145288000Y-158242000D03*
X145288000Y-160782000D03*
X97028000Y-115062000D03*
X97028000Y-117602000D03*
X97028000Y-120142000D03*
X97028000Y-122682000D03*
X97028000Y-125222000D03*
X97028000Y-127762000D03*
X97028000Y-130302000D03*
X97028000Y-132842000D03*
X97028000Y-137922000D03*
X97028000Y-140462000D03*
X97028000Y-143002000D03*
X97028000Y-145542000D03*
X97028000Y-148082000D03*
X97028000Y-150622000D03*
X97028000Y-153162000D03*
X97028000Y-155702000D03*
X145288000Y-88138000D03*
X145288000Y-127762000D03*
X145288000Y-125222000D03*
X145288000Y-122682000D03*
X145288000Y-120142000D03*
X145288000Y-117602000D03*
X145288000Y-115062000D03*
X145288000Y-112522000D03*
X145288000Y-109982000D03*
X145288000Y-105918000D03*
X145288000Y-103378000D03*
X145288000Y-100838000D03*
X145288000Y-98298000D03*
X145288000Y-95758000D03*
X145288000Y-93218000D03*
X145288000Y-132842000D03*
X145288000Y-135382000D03*
X145288000Y-137922000D03*
X145288000Y-140462000D03*
X145288000Y-143002000D03*
X145288000Y-145542000D03*
X145288000Y-148082000D03*
X145288000Y-150622000D03*
X142748000Y-158242000D03*
X142748000Y-160782000D03*
X140208000Y-158242000D03*
X140208000Y-160782000D03*
X137668000Y-158242000D03*
X137668000Y-160782000D03*
X135128000Y-158242000D03*
X135128000Y-160782000D03*
X132588000Y-158242000D03*
X132588000Y-160782000D03*
X130048000Y-158242000D03*
X130048000Y-160782000D03*
X127508000Y-158242000D03*
X127508000Y-160782000D03*
X124968000Y-158242000D03*
X124968000Y-160782000D03*
X122428000Y-158242000D03*
X122428000Y-160782000D03*
X119888000Y-158242000D03*
X119888000Y-160782000D03*
X117348000Y-158242000D03*
X117348000Y-160782000D03*
X114808000Y-158242000D03*
X114808000Y-160782000D03*
X112268000Y-158242000D03*
X112268000Y-160782000D03*
X109728000Y-158242000D03*
X109728000Y-160782000D03*
X107188000Y-158242000D03*
X107188000Y-160782000D03*
X104648000Y-158242000D03*
X104648000Y-160782000D03*
X145288000Y-90678000D03*
X97028000Y-104902000D03*
X97028000Y-107442000D03*
X102108000Y-158242000D03*
X102108000Y-160782000D03*
X97028000Y-94742000D03*
X97028000Y-97282000D03*
X145288000Y-83058000D03*
X145288000Y-85598000D03*
X97028000Y-109982000D03*
D38*
X130032000Y-131064000D03*
X128032000Y-131064000D03*
D29*
X146050000Y-68072000D03*
D30*
X141050000Y-68072000D03*
D19*
X99786000Y-79554000D03*
X99786000Y-86054000D03*
X95286000Y-86054000D03*
X95286000Y-79554000D03*
D38*
X135620000Y-127508000D03*
X133620000Y-127508000D03*
X135620000Y-134620000D03*
X133620000Y-134620000D03*
D41*
X118364000Y-154162000D03*
X118364000Y-152162000D03*
D38*
X130032000Y-127508000D03*
X128032000Y-127508000D03*
M02*
