%FSLAX45Y45*%
G04 Gerber Fmt 4.5, Leading zero omitted, Abs format (unit mm)*
G04 Created by KiCad (PCBNEW 6.0.0) date 2022-01-27 20:05:20*
%MOMM*%
%LPD*%
G01*
G04 APERTURE LIST*
%TA.AperFunction,Profile*%
%ADD10C,0.150000*%
%TD*%
%ADD11C,0.200000*%
%ADD12C,0.038100*%
%ADD13C,0.080000*%
%ADD14C,0.095000*%
%ADD15C,0.100000*%
%ADD16C,0.101600*%
%ADD17C,0.110000*%
%ADD18C,0.120000*%
%ADD19C,0.130000*%
%ADD20C,0.135000*%
%ADD21C,0.150000*%
G04 APERTURE END LIST*
D10*
X14986000Y-6223000D02*
X9271000Y-6223000D01*
X14986000Y-16764000D02*
X14986000Y-6223000D01*
X9271000Y-16764000D02*
X14986000Y-16764000D01*
X9271000Y-6223000D02*
X9271000Y-16764000D01*
D11*
D12*
X9531350Y-11309350D02*
X9569450Y-11347450D01*
X9569450Y-11309350D02*
X9531350Y-11347450D01*
X10217150Y-15043150D02*
X10255250Y-15081250D01*
X10255250Y-15043150D02*
X10217150Y-15081250D01*
X10598150Y-15043150D02*
X10636250Y-15081250D01*
X10636250Y-15043150D02*
X10598150Y-15081250D01*
X10979150Y-15043150D02*
X11017250Y-15081250D01*
X11017250Y-15043150D02*
X10979150Y-15081250D01*
X11106150Y-10039350D02*
X11144250Y-10077450D01*
X11144250Y-10039350D02*
X11106150Y-10077450D01*
X11360150Y-15043150D02*
X11398250Y-15081250D01*
X11398250Y-15043150D02*
X11360150Y-15081250D01*
X11385550Y-10191750D02*
X11423650Y-10229850D01*
X11423650Y-10191750D02*
X11385550Y-10229850D01*
X11639550Y-14789150D02*
X11677650Y-14827250D01*
X11677650Y-14789150D02*
X11639550Y-14827250D01*
X11918950Y-9912350D02*
X11957050Y-9950450D01*
X11957050Y-9912350D02*
X11918950Y-9950450D01*
X12020550Y-11131550D02*
X12058650Y-11169650D01*
X12058650Y-11131550D02*
X12020550Y-11169650D01*
X12172950Y-11512550D02*
X12211050Y-11550650D01*
X12211050Y-11512550D02*
X12172950Y-11550650D01*
X12223750Y-13722350D02*
X12261850Y-13760450D01*
X12261850Y-13722350D02*
X12223750Y-13760450D01*
X12299950Y-15068550D02*
X12338050Y-15106650D01*
X12338050Y-15068550D02*
X12299950Y-15106650D01*
X12325350Y-9531350D02*
X12363450Y-9569450D01*
X12363450Y-9531350D02*
X12325350Y-9569450D01*
X12325350Y-12680950D02*
X12363450Y-12719050D01*
X12363450Y-12680950D02*
X12325350Y-12719050D01*
X12376150Y-9759950D02*
X12414250Y-9798050D01*
X12414250Y-9759950D02*
X12376150Y-9798050D01*
X12376150Y-12960350D02*
X12414250Y-12998450D01*
X12414250Y-12960350D02*
X12376150Y-12998450D01*
X12604750Y-12401550D02*
X12642850Y-12439650D01*
X12642850Y-12401550D02*
X12604750Y-12439650D01*
X12604750Y-12960350D02*
X12642850Y-12998450D01*
X12642850Y-12960350D02*
X12604750Y-12998450D01*
X12706350Y-10547350D02*
X12744450Y-10585450D01*
X12744450Y-10547350D02*
X12706350Y-10585450D01*
X12960350Y-9429750D02*
X12998450Y-9467850D01*
X12998450Y-9429750D02*
X12960350Y-9467850D01*
X13696950Y-13087350D02*
X13735050Y-13125450D01*
X13735050Y-13087350D02*
X13696950Y-13125450D01*
X13773150Y-9429750D02*
X13811250Y-9467850D01*
X13811250Y-9429750D02*
X13773150Y-9467850D01*
X13900150Y-13442950D02*
X13938250Y-13481050D01*
X13938250Y-13442950D02*
X13900150Y-13481050D01*
X14103350Y-7880350D02*
X14141450Y-7918450D01*
X14141450Y-7880350D02*
X14103350Y-7918450D01*
X14103350Y-9455150D02*
X14141450Y-9493250D01*
X14141450Y-9455150D02*
X14103350Y-9493250D01*
X14306550Y-9785350D02*
X14344650Y-9823450D01*
X14344650Y-9785350D02*
X14306550Y-9823450D01*
X14763750Y-7854950D02*
X14801850Y-7893050D01*
X14801850Y-7854950D02*
X14763750Y-7893050D01*
D13*
X10149200Y-16510000D02*
G75*
G03*
X10149200Y-16510000I-40000J0D01*
G01*
X10606400Y-13003650D02*
G75*
G03*
X10606400Y-13003650I-40000J0D01*
G01*
X10606400Y-14019650D02*
G75*
G03*
X10606400Y-14019650I-40000J0D01*
G01*
X10860400Y-13003650D02*
G75*
G03*
X10860400Y-13003650I-40000J0D01*
G01*
X10860400Y-14019650D02*
G75*
G03*
X10860400Y-14019650I-40000J0D01*
G01*
X11114400Y-13003650D02*
G75*
G03*
X11114400Y-13003650I-40000J0D01*
G01*
X11114400Y-14019650D02*
G75*
G03*
X11114400Y-14019650I-40000J0D01*
G01*
X11266800Y-16510000D02*
G75*
G03*
X11266800Y-16510000I-40000J0D01*
G01*
X11368400Y-13003650D02*
G75*
G03*
X11368400Y-13003650I-40000J0D01*
G01*
X11368400Y-14019650D02*
G75*
G03*
X11368400Y-14019650I-40000J0D01*
G01*
X11622400Y-13003650D02*
G75*
G03*
X11622400Y-13003650I-40000J0D01*
G01*
X11622400Y-14019650D02*
G75*
G03*
X11622400Y-14019650I-40000J0D01*
G01*
X12257400Y-16510000D02*
G75*
G03*
X12257400Y-16510000I-40000J0D01*
G01*
X13349600Y-16510000D02*
G75*
G03*
X13349600Y-16510000I-40000J0D01*
G01*
D14*
X13055600Y-14116300D02*
X13055600Y-14211300D01*
X13008100Y-14163800D02*
X13103100Y-14163800D01*
X13055600Y-14366300D02*
X13055600Y-14461300D01*
X13008100Y-14413800D02*
X13103100Y-14413800D01*
X13055600Y-14616300D02*
X13055600Y-14711300D01*
X13008100Y-14663800D02*
X13103100Y-14663800D01*
X13055600Y-14866300D02*
X13055600Y-14961300D01*
X13008100Y-14913800D02*
X13103100Y-14913800D01*
X13055600Y-15116300D02*
X13055600Y-15211300D01*
X13008100Y-15163800D02*
X13103100Y-15163800D01*
X13868400Y-14116300D02*
X13868400Y-14211300D01*
X13820900Y-14163800D02*
X13915900Y-14163800D01*
X13868400Y-14366300D02*
X13868400Y-14461300D01*
X13820900Y-14413800D02*
X13915900Y-14413800D01*
X13868400Y-14616300D02*
X13868400Y-14711300D01*
X13820900Y-14663800D02*
X13915900Y-14663800D01*
X13868400Y-14866300D02*
X13868400Y-14961300D01*
X13820900Y-14913800D02*
X13915900Y-14913800D01*
X13868400Y-15116300D02*
X13868400Y-15211300D01*
X13820900Y-15163800D02*
X13915900Y-15163800D01*
D15*
X11160556Y-10449356D02*
X11160556Y-10378644D01*
X11089844Y-10378644D01*
X11089844Y-10449356D01*
X11160556Y-10449356D01*
X11160556Y-10703356D02*
X11160556Y-10632644D01*
X11089844Y-10632644D01*
X11089844Y-10703356D01*
X11160556Y-10703356D01*
X11160556Y-10957356D02*
X11160556Y-10886644D01*
X11089844Y-10886644D01*
X11089844Y-10957356D01*
X11160556Y-10957356D01*
D16*
X9702800Y-9271000D02*
X9753600Y-9220200D01*
X9702800Y-9169400D01*
X9652000Y-9220200D01*
X9702800Y-9271000D01*
X9702800Y-9525000D02*
X9753600Y-9474200D01*
X9702800Y-9423400D01*
X9652000Y-9474200D01*
X9702800Y-9525000D01*
X9702800Y-9779000D02*
X9753600Y-9728200D01*
X9702800Y-9677400D01*
X9652000Y-9728200D01*
X9702800Y-9779000D01*
X9702800Y-10033000D02*
X9753600Y-9982200D01*
X9702800Y-9931400D01*
X9652000Y-9982200D01*
X9702800Y-10033000D01*
X9702800Y-10287000D02*
X9753600Y-10236200D01*
X9702800Y-10185400D01*
X9652000Y-10236200D01*
X9702800Y-10287000D01*
X9702800Y-10541000D02*
X9753600Y-10490200D01*
X9702800Y-10439400D01*
X9652000Y-10490200D01*
X9702800Y-10541000D01*
X9702800Y-10795000D02*
X9753600Y-10744200D01*
X9702800Y-10693400D01*
X9652000Y-10744200D01*
X9702800Y-10795000D01*
X9702800Y-11049000D02*
X9753600Y-10998200D01*
X9702800Y-10947400D01*
X9652000Y-10998200D01*
X9702800Y-11049000D01*
X9702800Y-11557000D02*
X9753600Y-11506200D01*
X9702800Y-11455400D01*
X9652000Y-11506200D01*
X9702800Y-11557000D01*
X9702800Y-11811000D02*
X9753600Y-11760200D01*
X9702800Y-11709400D01*
X9652000Y-11760200D01*
X9702800Y-11811000D01*
X9702800Y-12065000D02*
X9753600Y-12014200D01*
X9702800Y-11963400D01*
X9652000Y-12014200D01*
X9702800Y-12065000D01*
X9702800Y-12319000D02*
X9753600Y-12268200D01*
X9702800Y-12217400D01*
X9652000Y-12268200D01*
X9702800Y-12319000D01*
X9702800Y-12573000D02*
X9753600Y-12522200D01*
X9702800Y-12471400D01*
X9652000Y-12522200D01*
X9702800Y-12573000D01*
X9702800Y-12827000D02*
X9753600Y-12776200D01*
X9702800Y-12725400D01*
X9652000Y-12776200D01*
X9702800Y-12827000D01*
X9702800Y-13081000D02*
X9753600Y-13030200D01*
X9702800Y-12979400D01*
X9652000Y-13030200D01*
X9702800Y-13081000D01*
X9702800Y-13335000D02*
X9753600Y-13284200D01*
X9702800Y-13233400D01*
X9652000Y-13284200D01*
X9702800Y-13335000D01*
X9702800Y-13843000D02*
X9753600Y-13792200D01*
X9702800Y-13741400D01*
X9652000Y-13792200D01*
X9702800Y-13843000D01*
X9702800Y-14097000D02*
X9753600Y-14046200D01*
X9702800Y-13995400D01*
X9652000Y-14046200D01*
X9702800Y-14097000D01*
X9702800Y-14351000D02*
X9753600Y-14300200D01*
X9702800Y-14249400D01*
X9652000Y-14300200D01*
X9702800Y-14351000D01*
X9702800Y-14605000D02*
X9753600Y-14554200D01*
X9702800Y-14503400D01*
X9652000Y-14554200D01*
X9702800Y-14605000D01*
X9702800Y-14859000D02*
X9753600Y-14808200D01*
X9702800Y-14757400D01*
X9652000Y-14808200D01*
X9702800Y-14859000D01*
X9702800Y-15113000D02*
X9753600Y-15062200D01*
X9702800Y-15011400D01*
X9652000Y-15062200D01*
X9702800Y-15113000D01*
X9702800Y-15367000D02*
X9753600Y-15316200D01*
X9702800Y-15265400D01*
X9652000Y-15316200D01*
X9702800Y-15367000D01*
X9702800Y-15621000D02*
X9753600Y-15570200D01*
X9702800Y-15519400D01*
X9652000Y-15570200D01*
X9702800Y-15621000D01*
X10210800Y-15875000D02*
X10261600Y-15824200D01*
X10210800Y-15773400D01*
X10160000Y-15824200D01*
X10210800Y-15875000D01*
X10210800Y-16129000D02*
X10261600Y-16078200D01*
X10210800Y-16027400D01*
X10160000Y-16078200D01*
X10210800Y-16129000D01*
X10464800Y-15875000D02*
X10515600Y-15824200D01*
X10464800Y-15773400D01*
X10414000Y-15824200D01*
X10464800Y-15875000D01*
X10464800Y-16129000D02*
X10515600Y-16078200D01*
X10464800Y-16027400D01*
X10414000Y-16078200D01*
X10464800Y-16129000D01*
X10718800Y-15875000D02*
X10769600Y-15824200D01*
X10718800Y-15773400D01*
X10668000Y-15824200D01*
X10718800Y-15875000D01*
X10718800Y-16129000D02*
X10769600Y-16078200D01*
X10718800Y-16027400D01*
X10668000Y-16078200D01*
X10718800Y-16129000D01*
X10972800Y-15875000D02*
X11023600Y-15824200D01*
X10972800Y-15773400D01*
X10922000Y-15824200D01*
X10972800Y-15875000D01*
X10972800Y-16129000D02*
X11023600Y-16078200D01*
X10972800Y-16027400D01*
X10922000Y-16078200D01*
X10972800Y-16129000D01*
X11226800Y-15875000D02*
X11277600Y-15824200D01*
X11226800Y-15773400D01*
X11176000Y-15824200D01*
X11226800Y-15875000D01*
X11226800Y-16129000D02*
X11277600Y-16078200D01*
X11226800Y-16027400D01*
X11176000Y-16078200D01*
X11226800Y-16129000D01*
X11480800Y-15875000D02*
X11531600Y-15824200D01*
X11480800Y-15773400D01*
X11430000Y-15824200D01*
X11480800Y-15875000D01*
X11480800Y-16129000D02*
X11531600Y-16078200D01*
X11480800Y-16027400D01*
X11430000Y-16078200D01*
X11480800Y-16129000D01*
X11734800Y-15875000D02*
X11785600Y-15824200D01*
X11734800Y-15773400D01*
X11684000Y-15824200D01*
X11734800Y-15875000D01*
X11734800Y-16129000D02*
X11785600Y-16078200D01*
X11734800Y-16027400D01*
X11684000Y-16078200D01*
X11734800Y-16129000D01*
X11988800Y-15875000D02*
X12039600Y-15824200D01*
X11988800Y-15773400D01*
X11938000Y-15824200D01*
X11988800Y-15875000D01*
X11988800Y-16129000D02*
X12039600Y-16078200D01*
X11988800Y-16027400D01*
X11938000Y-16078200D01*
X11988800Y-16129000D01*
X12242800Y-15875000D02*
X12293600Y-15824200D01*
X12242800Y-15773400D01*
X12192000Y-15824200D01*
X12242800Y-15875000D01*
X12242800Y-16129000D02*
X12293600Y-16078200D01*
X12242800Y-16027400D01*
X12192000Y-16078200D01*
X12242800Y-16129000D01*
X12496800Y-15875000D02*
X12547600Y-15824200D01*
X12496800Y-15773400D01*
X12446000Y-15824200D01*
X12496800Y-15875000D01*
X12496800Y-16129000D02*
X12547600Y-16078200D01*
X12496800Y-16027400D01*
X12446000Y-16078200D01*
X12496800Y-16129000D01*
X12750800Y-15875000D02*
X12801600Y-15824200D01*
X12750800Y-15773400D01*
X12700000Y-15824200D01*
X12750800Y-15875000D01*
X12750800Y-16129000D02*
X12801600Y-16078200D01*
X12750800Y-16027400D01*
X12700000Y-16078200D01*
X12750800Y-16129000D01*
X13004800Y-15875000D02*
X13055600Y-15824200D01*
X13004800Y-15773400D01*
X12954000Y-15824200D01*
X13004800Y-15875000D01*
X13004800Y-16129000D02*
X13055600Y-16078200D01*
X13004800Y-16027400D01*
X12954000Y-16078200D01*
X13004800Y-16129000D01*
X13258800Y-15875000D02*
X13309600Y-15824200D01*
X13258800Y-15773400D01*
X13208000Y-15824200D01*
X13258800Y-15875000D01*
X13258800Y-16129000D02*
X13309600Y-16078200D01*
X13258800Y-16027400D01*
X13208000Y-16078200D01*
X13258800Y-16129000D01*
X13512800Y-15875000D02*
X13563600Y-15824200D01*
X13512800Y-15773400D01*
X13462000Y-15824200D01*
X13512800Y-15875000D01*
X13512800Y-16129000D02*
X13563600Y-16078200D01*
X13512800Y-16027400D01*
X13462000Y-16078200D01*
X13512800Y-16129000D01*
X13766800Y-15875000D02*
X13817600Y-15824200D01*
X13766800Y-15773400D01*
X13716000Y-15824200D01*
X13766800Y-15875000D01*
X13766800Y-16129000D02*
X13817600Y-16078200D01*
X13766800Y-16027400D01*
X13716000Y-16078200D01*
X13766800Y-16129000D01*
X14020800Y-15875000D02*
X14071600Y-15824200D01*
X14020800Y-15773400D01*
X13970000Y-15824200D01*
X14020800Y-15875000D01*
X14020800Y-16129000D02*
X14071600Y-16078200D01*
X14020800Y-16027400D01*
X13970000Y-16078200D01*
X14020800Y-16129000D01*
X14274800Y-15875000D02*
X14325600Y-15824200D01*
X14274800Y-15773400D01*
X14224000Y-15824200D01*
X14274800Y-15875000D01*
X14274800Y-16129000D02*
X14325600Y-16078200D01*
X14274800Y-16027400D01*
X14224000Y-16078200D01*
X14274800Y-16129000D01*
X14528800Y-8356600D02*
X14579600Y-8305800D01*
X14528800Y-8255000D01*
X14478000Y-8305800D01*
X14528800Y-8356600D01*
X14528800Y-8610600D02*
X14579600Y-8559800D01*
X14528800Y-8509000D01*
X14478000Y-8559800D01*
X14528800Y-8610600D01*
X14528800Y-8864600D02*
X14579600Y-8813800D01*
X14528800Y-8763000D01*
X14478000Y-8813800D01*
X14528800Y-8864600D01*
X14528800Y-9118600D02*
X14579600Y-9067800D01*
X14528800Y-9017000D01*
X14478000Y-9067800D01*
X14528800Y-9118600D01*
X14528800Y-9372600D02*
X14579600Y-9321800D01*
X14528800Y-9271000D01*
X14478000Y-9321800D01*
X14528800Y-9372600D01*
X14528800Y-9626600D02*
X14579600Y-9575800D01*
X14528800Y-9525000D01*
X14478000Y-9575800D01*
X14528800Y-9626600D01*
X14528800Y-9880600D02*
X14579600Y-9829800D01*
X14528800Y-9779000D01*
X14478000Y-9829800D01*
X14528800Y-9880600D01*
X14528800Y-10134600D02*
X14579600Y-10083800D01*
X14528800Y-10033000D01*
X14478000Y-10083800D01*
X14528800Y-10134600D01*
X14528800Y-10388600D02*
X14579600Y-10337800D01*
X14528800Y-10287000D01*
X14478000Y-10337800D01*
X14528800Y-10388600D01*
X14528800Y-10642600D02*
X14579600Y-10591800D01*
X14528800Y-10541000D01*
X14478000Y-10591800D01*
X14528800Y-10642600D01*
X14528800Y-11049000D02*
X14579600Y-10998200D01*
X14528800Y-10947400D01*
X14478000Y-10998200D01*
X14528800Y-11049000D01*
X14528800Y-11303000D02*
X14579600Y-11252200D01*
X14528800Y-11201400D01*
X14478000Y-11252200D01*
X14528800Y-11303000D01*
X14528800Y-11557000D02*
X14579600Y-11506200D01*
X14528800Y-11455400D01*
X14478000Y-11506200D01*
X14528800Y-11557000D01*
X14528800Y-11811000D02*
X14579600Y-11760200D01*
X14528800Y-11709400D01*
X14478000Y-11760200D01*
X14528800Y-11811000D01*
X14528800Y-12065000D02*
X14579600Y-12014200D01*
X14528800Y-11963400D01*
X14478000Y-12014200D01*
X14528800Y-12065000D01*
X14528800Y-12319000D02*
X14579600Y-12268200D01*
X14528800Y-12217400D01*
X14478000Y-12268200D01*
X14528800Y-12319000D01*
X14528800Y-12573000D02*
X14579600Y-12522200D01*
X14528800Y-12471400D01*
X14478000Y-12522200D01*
X14528800Y-12573000D01*
X14528800Y-12827000D02*
X14579600Y-12776200D01*
X14528800Y-12725400D01*
X14478000Y-12776200D01*
X14528800Y-12827000D01*
X14528800Y-13335000D02*
X14579600Y-13284200D01*
X14528800Y-13233400D01*
X14478000Y-13284200D01*
X14528800Y-13335000D01*
X14528800Y-13589000D02*
X14579600Y-13538200D01*
X14528800Y-13487400D01*
X14478000Y-13538200D01*
X14528800Y-13589000D01*
X14528800Y-13843000D02*
X14579600Y-13792200D01*
X14528800Y-13741400D01*
X14478000Y-13792200D01*
X14528800Y-13843000D01*
X14528800Y-14097000D02*
X14579600Y-14046200D01*
X14528800Y-13995400D01*
X14478000Y-14046200D01*
X14528800Y-14097000D01*
X14528800Y-14351000D02*
X14579600Y-14300200D01*
X14528800Y-14249400D01*
X14478000Y-14300200D01*
X14528800Y-14351000D01*
X14528800Y-14605000D02*
X14579600Y-14554200D01*
X14528800Y-14503400D01*
X14478000Y-14554200D01*
X14528800Y-14605000D01*
X14528800Y-14859000D02*
X14579600Y-14808200D01*
X14528800Y-14757400D01*
X14478000Y-14808200D01*
X14528800Y-14859000D01*
X14528800Y-15113000D02*
X14579600Y-15062200D01*
X14528800Y-15011400D01*
X14478000Y-15062200D01*
X14528800Y-15113000D01*
X14528800Y-15875000D02*
X14579600Y-15824200D01*
X14528800Y-15773400D01*
X14478000Y-15824200D01*
X14528800Y-15875000D01*
X14528800Y-16129000D02*
X14579600Y-16078200D01*
X14528800Y-16027400D01*
X14478000Y-16078200D01*
X14528800Y-16129000D01*
D17*
X9473600Y-7900400D02*
X9583600Y-8010400D01*
X9583600Y-7900400D02*
X9473600Y-8010400D01*
X9583600Y-7955400D02*
G75*
G03*
X9583600Y-7955400I-55000J0D01*
G01*
X9473600Y-8550400D02*
X9583600Y-8660400D01*
X9583600Y-8550400D02*
X9473600Y-8660400D01*
X9583600Y-8605400D02*
G75*
G03*
X9583600Y-8605400I-55000J0D01*
G01*
X9923600Y-7900400D02*
X10033600Y-8010400D01*
X10033600Y-7900400D02*
X9923600Y-8010400D01*
X10033600Y-7955400D02*
G75*
G03*
X10033600Y-7955400I-55000J0D01*
G01*
X9923600Y-8550400D02*
X10033600Y-8660400D01*
X10033600Y-8550400D02*
X9923600Y-8660400D01*
X10033600Y-8605400D02*
G75*
G03*
X10033600Y-8605400I-55000J0D01*
G01*
D18*
X11720600Y-11696600D02*
X11840600Y-11816600D01*
X11840600Y-11696600D02*
X11720600Y-11816600D01*
X11780600Y-11696600D02*
X11780600Y-11816600D01*
X11720600Y-11756600D02*
X11840600Y-11756600D01*
X11974600Y-11696600D02*
X12094600Y-11816600D01*
X12094600Y-11696600D02*
X11974600Y-11816600D01*
X12034600Y-11696600D02*
X12034600Y-11816600D01*
X11974600Y-11756600D02*
X12094600Y-11756600D01*
X12106600Y-10301200D02*
X12226600Y-10421200D01*
X12226600Y-10301200D02*
X12106600Y-10421200D01*
X12166600Y-10301200D02*
X12166600Y-10421200D01*
X12106600Y-10361200D02*
X12226600Y-10361200D01*
X12228600Y-11696600D02*
X12348600Y-11816600D01*
X12348600Y-11696600D02*
X12228600Y-11816600D01*
X12288600Y-11696600D02*
X12288600Y-11816600D01*
X12228600Y-11756600D02*
X12348600Y-11756600D01*
X12360600Y-10301200D02*
X12480600Y-10421200D01*
X12480600Y-10301200D02*
X12360600Y-10421200D01*
X12420600Y-10301200D02*
X12420600Y-10421200D01*
X12360600Y-10361200D02*
X12480600Y-10361200D01*
X12944800Y-10303200D02*
X13064800Y-10423200D01*
X13064800Y-10303200D02*
X12944800Y-10423200D01*
X13004800Y-10303200D02*
X13004800Y-10423200D01*
X12944800Y-10363200D02*
X13064800Y-10363200D01*
X13198800Y-10303200D02*
X13318800Y-10423200D01*
X13318800Y-10303200D02*
X13198800Y-10423200D01*
X13258800Y-10303200D02*
X13258800Y-10423200D01*
X13198800Y-10363200D02*
X13318800Y-10363200D01*
X13225550Y-11696600D02*
X13345550Y-11816600D01*
X13345550Y-11696600D02*
X13225550Y-11816600D01*
X13285550Y-11696600D02*
X13285550Y-11816600D01*
X13225550Y-11756600D02*
X13345550Y-11756600D01*
X13479550Y-11696600D02*
X13599550Y-11816600D01*
X13599550Y-11696600D02*
X13479550Y-11816600D01*
X13539550Y-11696600D02*
X13539550Y-11816600D01*
X13479550Y-11756600D02*
X13599550Y-11756600D01*
X13733550Y-11696600D02*
X13853550Y-11816600D01*
X13853550Y-11696600D02*
X13733550Y-11816600D01*
X13793550Y-11696600D02*
X13793550Y-11816600D01*
X13733550Y-11756600D02*
X13853550Y-11756600D01*
X13783000Y-10301200D02*
X13903000Y-10421200D01*
X13903000Y-10301200D02*
X13783000Y-10421200D01*
X13843000Y-10301200D02*
X13843000Y-10421200D01*
X13783000Y-10361200D02*
X13903000Y-10361200D01*
X14037000Y-10301200D02*
X14157000Y-10421200D01*
X14157000Y-10301200D02*
X14037000Y-10421200D01*
X14097000Y-10301200D02*
X14097000Y-10421200D01*
X14037000Y-10361200D02*
X14157000Y-10361200D01*
D19*
X9587000Y-6742200D02*
X9717000Y-6872200D01*
X9717000Y-6742200D02*
X9587000Y-6872200D01*
X9697962Y-6853162D02*
X9697962Y-6761238D01*
X9606038Y-6761238D01*
X9606038Y-6853162D01*
X9697962Y-6853162D01*
X10087000Y-6742200D02*
X10217000Y-6872200D01*
X10217000Y-6742200D02*
X10087000Y-6872200D01*
X10197962Y-6853162D02*
X10197962Y-6761238D01*
X10106038Y-6761238D01*
X10106038Y-6853162D01*
X10197962Y-6853162D01*
X14040000Y-6742200D02*
X14170000Y-6872200D01*
X14170000Y-6742200D02*
X14040000Y-6872200D01*
X14150962Y-6853162D02*
X14150962Y-6761238D01*
X14059038Y-6761238D01*
X14059038Y-6853162D01*
X14150962Y-6853162D01*
X14540000Y-6742200D02*
X14670000Y-6872200D01*
X14670000Y-6742200D02*
X14540000Y-6872200D01*
X14650962Y-6853162D02*
X14650962Y-6761238D01*
X14559038Y-6761238D01*
X14559038Y-6853162D01*
X14650962Y-6853162D01*
D20*
X10295700Y-9795700D02*
X10430700Y-9930700D01*
X10430700Y-9795700D02*
X10295700Y-9930700D01*
X10363200Y-9930700D02*
X10430700Y-9863200D01*
X10363200Y-9795700D01*
X10295700Y-9863200D01*
X10363200Y-9930700D01*
X10295700Y-10295700D02*
X10430700Y-10430700D01*
X10430700Y-10295700D02*
X10295700Y-10430700D01*
X10363200Y-10430700D02*
X10430700Y-10363200D01*
X10363200Y-10295700D01*
X10295700Y-10363200D01*
X10363200Y-10430700D01*
X10295700Y-11295700D02*
X10430700Y-11430700D01*
X10430700Y-11295700D02*
X10295700Y-11430700D01*
X10363200Y-11430700D02*
X10430700Y-11363200D01*
X10363200Y-11295700D01*
X10295700Y-11363200D01*
X10363200Y-11430700D01*
X10295700Y-11795700D02*
X10430700Y-11930700D01*
X10430700Y-11795700D02*
X10295700Y-11930700D01*
X10363200Y-11930700D02*
X10430700Y-11863200D01*
X10363200Y-11795700D01*
X10295700Y-11863200D01*
X10363200Y-11930700D01*
D21*
X10962950Y-6802100D02*
X10962950Y-6952100D01*
X10887950Y-6877100D02*
X11037950Y-6877100D01*
X11037950Y-6877100D02*
G75*
G03*
X11037950Y-6877100I-75000J0D01*
G01*
X13382950Y-6802100D02*
X13382950Y-6952100D01*
X13307950Y-6877100D02*
X13457950Y-6877100D01*
X13457950Y-6877100D02*
G75*
G03*
X13457950Y-6877100I-75000J0D01*
G01*
D11*
X9521119Y-17081976D02*
X9521119Y-16881976D01*
X9568738Y-16881976D01*
X9597310Y-16891500D01*
X9616357Y-16910548D01*
X9625881Y-16929595D01*
X9635405Y-16967690D01*
X9635405Y-16996262D01*
X9625881Y-17034357D01*
X9616357Y-17053405D01*
X9597310Y-17072452D01*
X9568738Y-17081976D01*
X9521119Y-17081976D01*
X9721119Y-17081976D02*
X9721119Y-16948643D01*
X9721119Y-16986738D02*
X9730643Y-16967690D01*
X9740167Y-16958167D01*
X9759214Y-16948643D01*
X9778262Y-16948643D01*
X9844929Y-17081976D02*
X9844929Y-16948643D01*
X9844929Y-16881976D02*
X9835405Y-16891500D01*
X9844929Y-16901024D01*
X9854452Y-16891500D01*
X9844929Y-16881976D01*
X9844929Y-16901024D01*
X9968738Y-17081976D02*
X9949690Y-17072452D01*
X9940167Y-17053405D01*
X9940167Y-16881976D01*
X10073500Y-17081976D02*
X10054452Y-17072452D01*
X10044929Y-17053405D01*
X10044929Y-16881976D01*
X10302071Y-17081976D02*
X10302071Y-16881976D01*
X10368738Y-17024833D01*
X10435405Y-16881976D01*
X10435405Y-17081976D01*
X10616357Y-17081976D02*
X10616357Y-16977214D01*
X10606833Y-16958167D01*
X10587786Y-16948643D01*
X10549690Y-16948643D01*
X10530643Y-16958167D01*
X10616357Y-17072452D02*
X10597310Y-17081976D01*
X10549690Y-17081976D01*
X10530643Y-17072452D01*
X10521119Y-17053405D01*
X10521119Y-17034357D01*
X10530643Y-17015310D01*
X10549690Y-17005786D01*
X10597310Y-17005786D01*
X10616357Y-16996262D01*
X10711595Y-16948643D02*
X10711595Y-17148643D01*
X10711595Y-16958167D02*
X10730643Y-16948643D01*
X10768738Y-16948643D01*
X10787786Y-16958167D01*
X10797310Y-16967690D01*
X10806833Y-16986738D01*
X10806833Y-17043881D01*
X10797310Y-17062929D01*
X10787786Y-17072452D01*
X10768738Y-17081976D01*
X10730643Y-17081976D01*
X10711595Y-17072452D01*
X10892548Y-17062929D02*
X10902071Y-17072452D01*
X10892548Y-17081976D01*
X10883024Y-17072452D01*
X10892548Y-17062929D01*
X10892548Y-17081976D01*
X10892548Y-16958167D02*
X10902071Y-16967690D01*
X10892548Y-16977214D01*
X10883024Y-16967690D01*
X10892548Y-16958167D01*
X10892548Y-16977214D01*
D12*
X9225400Y-17392450D02*
X9263500Y-17430550D01*
X9263500Y-17392450D02*
X9225400Y-17430550D01*
D11*
X9559214Y-17301976D02*
X9578262Y-17301976D01*
X9597310Y-17311500D01*
X9606833Y-17321024D01*
X9616357Y-17340071D01*
X9625881Y-17378167D01*
X9625881Y-17425786D01*
X9616357Y-17463881D01*
X9606833Y-17482929D01*
X9597310Y-17492452D01*
X9578262Y-17501976D01*
X9559214Y-17501976D01*
X9540167Y-17492452D01*
X9530643Y-17482929D01*
X9521119Y-17463881D01*
X9511595Y-17425786D01*
X9511595Y-17378167D01*
X9521119Y-17340071D01*
X9530643Y-17321024D01*
X9540167Y-17311500D01*
X9559214Y-17301976D01*
X9711595Y-17482929D02*
X9721119Y-17492452D01*
X9711595Y-17501976D01*
X9702071Y-17492452D01*
X9711595Y-17482929D01*
X9711595Y-17501976D01*
X9787786Y-17301976D02*
X9911595Y-17301976D01*
X9844929Y-17378167D01*
X9873500Y-17378167D01*
X9892548Y-17387690D01*
X9902071Y-17397214D01*
X9911595Y-17416262D01*
X9911595Y-17463881D01*
X9902071Y-17482929D01*
X9892548Y-17492452D01*
X9873500Y-17501976D01*
X9816357Y-17501976D01*
X9797310Y-17492452D01*
X9787786Y-17482929D01*
X10025881Y-17387690D02*
X10006833Y-17378167D01*
X9997310Y-17368643D01*
X9987786Y-17349595D01*
X9987786Y-17340071D01*
X9997310Y-17321024D01*
X10006833Y-17311500D01*
X10025881Y-17301976D01*
X10063976Y-17301976D01*
X10083024Y-17311500D01*
X10092548Y-17321024D01*
X10102071Y-17340071D01*
X10102071Y-17349595D01*
X10092548Y-17368643D01*
X10083024Y-17378167D01*
X10063976Y-17387690D01*
X10025881Y-17387690D01*
X10006833Y-17397214D01*
X9997310Y-17406738D01*
X9987786Y-17425786D01*
X9987786Y-17463881D01*
X9997310Y-17482929D01*
X10006833Y-17492452D01*
X10025881Y-17501976D01*
X10063976Y-17501976D01*
X10083024Y-17492452D01*
X10092548Y-17482929D01*
X10102071Y-17463881D01*
X10102071Y-17425786D01*
X10092548Y-17406738D01*
X10083024Y-17397214D01*
X10063976Y-17387690D01*
X10292548Y-17501976D02*
X10178262Y-17501976D01*
X10235405Y-17501976D02*
X10235405Y-17301976D01*
X10216357Y-17330548D01*
X10197310Y-17349595D01*
X10178262Y-17359119D01*
X10378262Y-17501976D02*
X10378262Y-17368643D01*
X10378262Y-17387690D02*
X10387786Y-17378167D01*
X10406833Y-17368643D01*
X10435405Y-17368643D01*
X10454452Y-17378167D01*
X10463976Y-17397214D01*
X10463976Y-17501976D01*
X10463976Y-17397214D02*
X10473500Y-17378167D01*
X10492548Y-17368643D01*
X10521119Y-17368643D01*
X10540167Y-17378167D01*
X10549690Y-17397214D01*
X10549690Y-17501976D01*
X10644929Y-17501976D02*
X10644929Y-17368643D01*
X10644929Y-17387690D02*
X10654452Y-17378167D01*
X10673500Y-17368643D01*
X10702071Y-17368643D01*
X10721119Y-17378167D01*
X10730643Y-17397214D01*
X10730643Y-17501976D01*
X10730643Y-17397214D02*
X10740167Y-17378167D01*
X10759214Y-17368643D01*
X10787786Y-17368643D01*
X10806833Y-17378167D01*
X10816357Y-17397214D01*
X10816357Y-17501976D01*
X11206833Y-17292452D02*
X11035405Y-17549595D01*
X11463976Y-17301976D02*
X11483024Y-17301976D01*
X11502071Y-17311500D01*
X11511595Y-17321024D01*
X11521119Y-17340071D01*
X11530643Y-17378167D01*
X11530643Y-17425786D01*
X11521119Y-17463881D01*
X11511595Y-17482929D01*
X11502071Y-17492452D01*
X11483024Y-17501976D01*
X11463976Y-17501976D01*
X11444928Y-17492452D01*
X11435405Y-17482929D01*
X11425881Y-17463881D01*
X11416357Y-17425786D01*
X11416357Y-17378167D01*
X11425881Y-17340071D01*
X11435405Y-17321024D01*
X11444928Y-17311500D01*
X11463976Y-17301976D01*
X11616357Y-17482929D02*
X11625881Y-17492452D01*
X11616357Y-17501976D01*
X11606833Y-17492452D01*
X11616357Y-17482929D01*
X11616357Y-17501976D01*
X11749690Y-17301976D02*
X11768738Y-17301976D01*
X11787786Y-17311500D01*
X11797309Y-17321024D01*
X11806833Y-17340071D01*
X11816357Y-17378167D01*
X11816357Y-17425786D01*
X11806833Y-17463881D01*
X11797309Y-17482929D01*
X11787786Y-17492452D01*
X11768738Y-17501976D01*
X11749690Y-17501976D01*
X11730643Y-17492452D01*
X11721119Y-17482929D01*
X11711595Y-17463881D01*
X11702071Y-17425786D01*
X11702071Y-17378167D01*
X11711595Y-17340071D01*
X11721119Y-17321024D01*
X11730643Y-17311500D01*
X11749690Y-17301976D01*
X12006833Y-17501976D02*
X11892548Y-17501976D01*
X11949690Y-17501976D02*
X11949690Y-17301976D01*
X11930643Y-17330548D01*
X11911595Y-17349595D01*
X11892548Y-17359119D01*
X12187786Y-17301976D02*
X12092548Y-17301976D01*
X12083024Y-17397214D01*
X12092548Y-17387690D01*
X12111595Y-17378167D01*
X12159214Y-17378167D01*
X12178262Y-17387690D01*
X12187786Y-17397214D01*
X12197309Y-17416262D01*
X12197309Y-17463881D01*
X12187786Y-17482929D01*
X12178262Y-17492452D01*
X12159214Y-17501976D01*
X12111595Y-17501976D01*
X12092548Y-17492452D01*
X12083024Y-17482929D01*
X12321119Y-17301976D02*
X12340167Y-17301976D01*
X12359214Y-17311500D01*
X12368738Y-17321024D01*
X12378262Y-17340071D01*
X12387786Y-17378167D01*
X12387786Y-17425786D01*
X12378262Y-17463881D01*
X12368738Y-17482929D01*
X12359214Y-17492452D01*
X12340167Y-17501976D01*
X12321119Y-17501976D01*
X12302071Y-17492452D01*
X12292548Y-17482929D01*
X12283024Y-17463881D01*
X12273500Y-17425786D01*
X12273500Y-17378167D01*
X12283024Y-17340071D01*
X12292548Y-17321024D01*
X12302071Y-17311500D01*
X12321119Y-17301976D01*
X12463976Y-17301976D02*
X12463976Y-17340071D01*
X12540167Y-17301976D02*
X12540167Y-17340071D01*
X12835405Y-17578167D02*
X12825881Y-17568643D01*
X12806833Y-17540071D01*
X12797309Y-17521024D01*
X12787786Y-17492452D01*
X12778262Y-17444833D01*
X12778262Y-17406738D01*
X12787786Y-17359119D01*
X12797309Y-17330548D01*
X12806833Y-17311500D01*
X12825881Y-17282929D01*
X12835405Y-17273405D01*
X12902071Y-17321024D02*
X12911595Y-17311500D01*
X12930643Y-17301976D01*
X12978262Y-17301976D01*
X12997309Y-17311500D01*
X13006833Y-17321024D01*
X13016357Y-17340071D01*
X13016357Y-17359119D01*
X13006833Y-17387690D01*
X12892548Y-17501976D01*
X13016357Y-17501976D01*
X13130643Y-17387690D02*
X13111595Y-17378167D01*
X13102071Y-17368643D01*
X13092548Y-17349595D01*
X13092548Y-17340071D01*
X13102071Y-17321024D01*
X13111595Y-17311500D01*
X13130643Y-17301976D01*
X13168738Y-17301976D01*
X13187786Y-17311500D01*
X13197309Y-17321024D01*
X13206833Y-17340071D01*
X13206833Y-17349595D01*
X13197309Y-17368643D01*
X13187786Y-17378167D01*
X13168738Y-17387690D01*
X13130643Y-17387690D01*
X13111595Y-17397214D01*
X13102071Y-17406738D01*
X13092548Y-17425786D01*
X13092548Y-17463881D01*
X13102071Y-17482929D01*
X13111595Y-17492452D01*
X13130643Y-17501976D01*
X13168738Y-17501976D01*
X13187786Y-17492452D01*
X13197309Y-17482929D01*
X13206833Y-17463881D01*
X13206833Y-17425786D01*
X13197309Y-17406738D01*
X13187786Y-17397214D01*
X13168738Y-17387690D01*
X13444928Y-17501976D02*
X13444928Y-17301976D01*
X13530643Y-17501976D02*
X13530643Y-17397214D01*
X13521119Y-17378167D01*
X13502071Y-17368643D01*
X13473500Y-17368643D01*
X13454452Y-17378167D01*
X13444928Y-17387690D01*
X13654452Y-17501976D02*
X13635405Y-17492452D01*
X13625881Y-17482929D01*
X13616357Y-17463881D01*
X13616357Y-17406738D01*
X13625881Y-17387690D01*
X13635405Y-17378167D01*
X13654452Y-17368643D01*
X13683024Y-17368643D01*
X13702071Y-17378167D01*
X13711595Y-17387690D01*
X13721119Y-17406738D01*
X13721119Y-17463881D01*
X13711595Y-17482929D01*
X13702071Y-17492452D01*
X13683024Y-17501976D01*
X13654452Y-17501976D01*
X13835405Y-17501976D02*
X13816357Y-17492452D01*
X13806833Y-17473405D01*
X13806833Y-17301976D01*
X13987786Y-17492452D02*
X13968738Y-17501976D01*
X13930643Y-17501976D01*
X13911595Y-17492452D01*
X13902071Y-17473405D01*
X13902071Y-17397214D01*
X13911595Y-17378167D01*
X13930643Y-17368643D01*
X13968738Y-17368643D01*
X13987786Y-17378167D01*
X13997309Y-17397214D01*
X13997309Y-17416262D01*
X13902071Y-17435310D01*
X14073500Y-17492452D02*
X14092548Y-17501976D01*
X14130643Y-17501976D01*
X14149690Y-17492452D01*
X14159214Y-17473405D01*
X14159214Y-17463881D01*
X14149690Y-17444833D01*
X14130643Y-17435310D01*
X14102071Y-17435310D01*
X14083024Y-17425786D01*
X14073500Y-17406738D01*
X14073500Y-17397214D01*
X14083024Y-17378167D01*
X14102071Y-17368643D01*
X14130643Y-17368643D01*
X14149690Y-17378167D01*
X14225881Y-17578167D02*
X14235405Y-17568643D01*
X14254452Y-17540071D01*
X14263976Y-17521024D01*
X14273500Y-17492452D01*
X14283024Y-17444833D01*
X14283024Y-17406738D01*
X14273500Y-17359119D01*
X14263976Y-17330548D01*
X14254452Y-17311500D01*
X14235405Y-17282929D01*
X14225881Y-17273405D01*
D13*
X9263500Y-17675500D02*
G75*
G03*
X9263500Y-17675500I-40000J0D01*
G01*
D11*
X9559214Y-17565976D02*
X9578262Y-17565976D01*
X9597310Y-17575500D01*
X9606833Y-17585024D01*
X9616357Y-17604071D01*
X9625881Y-17642167D01*
X9625881Y-17689786D01*
X9616357Y-17727881D01*
X9606833Y-17746929D01*
X9597310Y-17756452D01*
X9578262Y-17765976D01*
X9559214Y-17765976D01*
X9540167Y-17756452D01*
X9530643Y-17746929D01*
X9521119Y-17727881D01*
X9511595Y-17689786D01*
X9511595Y-17642167D01*
X9521119Y-17604071D01*
X9530643Y-17585024D01*
X9540167Y-17575500D01*
X9559214Y-17565976D01*
X9711595Y-17746929D02*
X9721119Y-17756452D01*
X9711595Y-17765976D01*
X9702071Y-17756452D01*
X9711595Y-17746929D01*
X9711595Y-17765976D01*
X9835405Y-17651690D02*
X9816357Y-17642167D01*
X9806833Y-17632643D01*
X9797310Y-17613595D01*
X9797310Y-17604071D01*
X9806833Y-17585024D01*
X9816357Y-17575500D01*
X9835405Y-17565976D01*
X9873500Y-17565976D01*
X9892548Y-17575500D01*
X9902071Y-17585024D01*
X9911595Y-17604071D01*
X9911595Y-17613595D01*
X9902071Y-17632643D01*
X9892548Y-17642167D01*
X9873500Y-17651690D01*
X9835405Y-17651690D01*
X9816357Y-17661214D01*
X9806833Y-17670738D01*
X9797310Y-17689786D01*
X9797310Y-17727881D01*
X9806833Y-17746929D01*
X9816357Y-17756452D01*
X9835405Y-17765976D01*
X9873500Y-17765976D01*
X9892548Y-17756452D01*
X9902071Y-17746929D01*
X9911595Y-17727881D01*
X9911595Y-17689786D01*
X9902071Y-17670738D01*
X9892548Y-17661214D01*
X9873500Y-17651690D01*
X10035405Y-17565976D02*
X10054452Y-17565976D01*
X10073500Y-17575500D01*
X10083024Y-17585024D01*
X10092548Y-17604071D01*
X10102071Y-17642167D01*
X10102071Y-17689786D01*
X10092548Y-17727881D01*
X10083024Y-17746929D01*
X10073500Y-17756452D01*
X10054452Y-17765976D01*
X10035405Y-17765976D01*
X10016357Y-17756452D01*
X10006833Y-17746929D01*
X9997310Y-17727881D01*
X9987786Y-17689786D01*
X9987786Y-17642167D01*
X9997310Y-17604071D01*
X10006833Y-17585024D01*
X10016357Y-17575500D01*
X10035405Y-17565976D01*
X10225881Y-17565976D02*
X10244929Y-17565976D01*
X10263976Y-17575500D01*
X10273500Y-17585024D01*
X10283024Y-17604071D01*
X10292548Y-17642167D01*
X10292548Y-17689786D01*
X10283024Y-17727881D01*
X10273500Y-17746929D01*
X10263976Y-17756452D01*
X10244929Y-17765976D01*
X10225881Y-17765976D01*
X10206833Y-17756452D01*
X10197310Y-17746929D01*
X10187786Y-17727881D01*
X10178262Y-17689786D01*
X10178262Y-17642167D01*
X10187786Y-17604071D01*
X10197310Y-17585024D01*
X10206833Y-17575500D01*
X10225881Y-17565976D01*
X10378262Y-17765976D02*
X10378262Y-17632643D01*
X10378262Y-17651690D02*
X10387786Y-17642167D01*
X10406833Y-17632643D01*
X10435405Y-17632643D01*
X10454452Y-17642167D01*
X10463976Y-17661214D01*
X10463976Y-17765976D01*
X10463976Y-17661214D02*
X10473500Y-17642167D01*
X10492548Y-17632643D01*
X10521119Y-17632643D01*
X10540167Y-17642167D01*
X10549690Y-17661214D01*
X10549690Y-17765976D01*
X10644929Y-17765976D02*
X10644929Y-17632643D01*
X10644929Y-17651690D02*
X10654452Y-17642167D01*
X10673500Y-17632643D01*
X10702071Y-17632643D01*
X10721119Y-17642167D01*
X10730643Y-17661214D01*
X10730643Y-17765976D01*
X10730643Y-17661214D02*
X10740167Y-17642167D01*
X10759214Y-17632643D01*
X10787786Y-17632643D01*
X10806833Y-17642167D01*
X10816357Y-17661214D01*
X10816357Y-17765976D01*
X11206833Y-17556452D02*
X11035405Y-17813595D01*
X11463976Y-17565976D02*
X11483024Y-17565976D01*
X11502071Y-17575500D01*
X11511595Y-17585024D01*
X11521119Y-17604071D01*
X11530643Y-17642167D01*
X11530643Y-17689786D01*
X11521119Y-17727881D01*
X11511595Y-17746929D01*
X11502071Y-17756452D01*
X11483024Y-17765976D01*
X11463976Y-17765976D01*
X11444928Y-17756452D01*
X11435405Y-17746929D01*
X11425881Y-17727881D01*
X11416357Y-17689786D01*
X11416357Y-17642167D01*
X11425881Y-17604071D01*
X11435405Y-17585024D01*
X11444928Y-17575500D01*
X11463976Y-17565976D01*
X11616357Y-17746929D02*
X11625881Y-17756452D01*
X11616357Y-17765976D01*
X11606833Y-17756452D01*
X11616357Y-17746929D01*
X11616357Y-17765976D01*
X11749690Y-17565976D02*
X11768738Y-17565976D01*
X11787786Y-17575500D01*
X11797309Y-17585024D01*
X11806833Y-17604071D01*
X11816357Y-17642167D01*
X11816357Y-17689786D01*
X11806833Y-17727881D01*
X11797309Y-17746929D01*
X11787786Y-17756452D01*
X11768738Y-17765976D01*
X11749690Y-17765976D01*
X11730643Y-17756452D01*
X11721119Y-17746929D01*
X11711595Y-17727881D01*
X11702071Y-17689786D01*
X11702071Y-17642167D01*
X11711595Y-17604071D01*
X11721119Y-17585024D01*
X11730643Y-17575500D01*
X11749690Y-17565976D01*
X11883024Y-17565976D02*
X12006833Y-17565976D01*
X11940167Y-17642167D01*
X11968738Y-17642167D01*
X11987786Y-17651690D01*
X11997309Y-17661214D01*
X12006833Y-17680262D01*
X12006833Y-17727881D01*
X11997309Y-17746929D01*
X11987786Y-17756452D01*
X11968738Y-17765976D01*
X11911595Y-17765976D01*
X11892548Y-17756452D01*
X11883024Y-17746929D01*
X12197309Y-17765976D02*
X12083024Y-17765976D01*
X12140167Y-17765976D02*
X12140167Y-17565976D01*
X12121119Y-17594548D01*
X12102071Y-17613595D01*
X12083024Y-17623119D01*
X12378262Y-17565976D02*
X12283024Y-17565976D01*
X12273500Y-17661214D01*
X12283024Y-17651690D01*
X12302071Y-17642167D01*
X12349690Y-17642167D01*
X12368738Y-17651690D01*
X12378262Y-17661214D01*
X12387786Y-17680262D01*
X12387786Y-17727881D01*
X12378262Y-17746929D01*
X12368738Y-17756452D01*
X12349690Y-17765976D01*
X12302071Y-17765976D01*
X12283024Y-17756452D01*
X12273500Y-17746929D01*
X12463976Y-17565976D02*
X12463976Y-17604071D01*
X12540167Y-17565976D02*
X12540167Y-17604071D01*
X12835405Y-17842167D02*
X12825881Y-17832643D01*
X12806833Y-17804071D01*
X12797309Y-17785024D01*
X12787786Y-17756452D01*
X12778262Y-17708833D01*
X12778262Y-17670738D01*
X12787786Y-17623119D01*
X12797309Y-17594548D01*
X12806833Y-17575500D01*
X12825881Y-17546929D01*
X12835405Y-17537405D01*
X13016357Y-17765976D02*
X12902071Y-17765976D01*
X12959214Y-17765976D02*
X12959214Y-17565976D01*
X12940167Y-17594548D01*
X12921119Y-17613595D01*
X12902071Y-17623119D01*
X13187786Y-17632643D02*
X13187786Y-17765976D01*
X13140167Y-17556452D02*
X13092548Y-17699310D01*
X13216357Y-17699310D01*
X13444928Y-17765976D02*
X13444928Y-17565976D01*
X13530643Y-17765976D02*
X13530643Y-17661214D01*
X13521119Y-17642167D01*
X13502071Y-17632643D01*
X13473500Y-17632643D01*
X13454452Y-17642167D01*
X13444928Y-17651690D01*
X13654452Y-17765976D02*
X13635405Y-17756452D01*
X13625881Y-17746929D01*
X13616357Y-17727881D01*
X13616357Y-17670738D01*
X13625881Y-17651690D01*
X13635405Y-17642167D01*
X13654452Y-17632643D01*
X13683024Y-17632643D01*
X13702071Y-17642167D01*
X13711595Y-17651690D01*
X13721119Y-17670738D01*
X13721119Y-17727881D01*
X13711595Y-17746929D01*
X13702071Y-17756452D01*
X13683024Y-17765976D01*
X13654452Y-17765976D01*
X13835405Y-17765976D02*
X13816357Y-17756452D01*
X13806833Y-17737405D01*
X13806833Y-17565976D01*
X13987786Y-17756452D02*
X13968738Y-17765976D01*
X13930643Y-17765976D01*
X13911595Y-17756452D01*
X13902071Y-17737405D01*
X13902071Y-17661214D01*
X13911595Y-17642167D01*
X13930643Y-17632643D01*
X13968738Y-17632643D01*
X13987786Y-17642167D01*
X13997309Y-17661214D01*
X13997309Y-17680262D01*
X13902071Y-17699310D01*
X14073500Y-17756452D02*
X14092548Y-17765976D01*
X14130643Y-17765976D01*
X14149690Y-17756452D01*
X14159214Y-17737405D01*
X14159214Y-17727881D01*
X14149690Y-17708833D01*
X14130643Y-17699310D01*
X14102071Y-17699310D01*
X14083024Y-17689786D01*
X14073500Y-17670738D01*
X14073500Y-17661214D01*
X14083024Y-17642167D01*
X14102071Y-17632643D01*
X14130643Y-17632643D01*
X14149690Y-17642167D01*
X14225881Y-17842167D02*
X14235405Y-17832643D01*
X14254452Y-17804071D01*
X14263976Y-17785024D01*
X14273500Y-17756452D01*
X14283024Y-17708833D01*
X14283024Y-17670738D01*
X14273500Y-17623119D01*
X14263976Y-17594548D01*
X14254452Y-17575500D01*
X14235405Y-17546929D01*
X14225881Y-17537405D01*
D14*
X9216000Y-17892000D02*
X9216000Y-17987000D01*
X9168500Y-17939500D02*
X9263500Y-17939500D01*
D11*
X9559214Y-17829976D02*
X9578262Y-17829976D01*
X9597310Y-17839500D01*
X9606833Y-17849024D01*
X9616357Y-17868071D01*
X9625881Y-17906167D01*
X9625881Y-17953786D01*
X9616357Y-17991881D01*
X9606833Y-18010929D01*
X9597310Y-18020452D01*
X9578262Y-18029976D01*
X9559214Y-18029976D01*
X9540167Y-18020452D01*
X9530643Y-18010929D01*
X9521119Y-17991881D01*
X9511595Y-17953786D01*
X9511595Y-17906167D01*
X9521119Y-17868071D01*
X9530643Y-17849024D01*
X9540167Y-17839500D01*
X9559214Y-17829976D01*
X9711595Y-18010929D02*
X9721119Y-18020452D01*
X9711595Y-18029976D01*
X9702071Y-18020452D01*
X9711595Y-18010929D01*
X9711595Y-18029976D01*
X9816357Y-18029976D02*
X9854452Y-18029976D01*
X9873500Y-18020452D01*
X9883024Y-18010929D01*
X9902071Y-17982357D01*
X9911595Y-17944262D01*
X9911595Y-17868071D01*
X9902071Y-17849024D01*
X9892548Y-17839500D01*
X9873500Y-17829976D01*
X9835405Y-17829976D01*
X9816357Y-17839500D01*
X9806833Y-17849024D01*
X9797310Y-17868071D01*
X9797310Y-17915690D01*
X9806833Y-17934738D01*
X9816357Y-17944262D01*
X9835405Y-17953786D01*
X9873500Y-17953786D01*
X9892548Y-17944262D01*
X9902071Y-17934738D01*
X9911595Y-17915690D01*
X10092548Y-17829976D02*
X9997310Y-17829976D01*
X9987786Y-17925214D01*
X9997310Y-17915690D01*
X10016357Y-17906167D01*
X10063976Y-17906167D01*
X10083024Y-17915690D01*
X10092548Y-17925214D01*
X10102071Y-17944262D01*
X10102071Y-17991881D01*
X10092548Y-18010929D01*
X10083024Y-18020452D01*
X10063976Y-18029976D01*
X10016357Y-18029976D01*
X9997310Y-18020452D01*
X9987786Y-18010929D01*
X10225881Y-17829976D02*
X10244929Y-17829976D01*
X10263976Y-17839500D01*
X10273500Y-17849024D01*
X10283024Y-17868071D01*
X10292548Y-17906167D01*
X10292548Y-17953786D01*
X10283024Y-17991881D01*
X10273500Y-18010929D01*
X10263976Y-18020452D01*
X10244929Y-18029976D01*
X10225881Y-18029976D01*
X10206833Y-18020452D01*
X10197310Y-18010929D01*
X10187786Y-17991881D01*
X10178262Y-17953786D01*
X10178262Y-17906167D01*
X10187786Y-17868071D01*
X10197310Y-17849024D01*
X10206833Y-17839500D01*
X10225881Y-17829976D01*
X10378262Y-18029976D02*
X10378262Y-17896643D01*
X10378262Y-17915690D02*
X10387786Y-17906167D01*
X10406833Y-17896643D01*
X10435405Y-17896643D01*
X10454452Y-17906167D01*
X10463976Y-17925214D01*
X10463976Y-18029976D01*
X10463976Y-17925214D02*
X10473500Y-17906167D01*
X10492548Y-17896643D01*
X10521119Y-17896643D01*
X10540167Y-17906167D01*
X10549690Y-17925214D01*
X10549690Y-18029976D01*
X10644929Y-18029976D02*
X10644929Y-17896643D01*
X10644929Y-17915690D02*
X10654452Y-17906167D01*
X10673500Y-17896643D01*
X10702071Y-17896643D01*
X10721119Y-17906167D01*
X10730643Y-17925214D01*
X10730643Y-18029976D01*
X10730643Y-17925214D02*
X10740167Y-17906167D01*
X10759214Y-17896643D01*
X10787786Y-17896643D01*
X10806833Y-17906167D01*
X10816357Y-17925214D01*
X10816357Y-18029976D01*
X11206833Y-17820452D02*
X11035405Y-18077595D01*
X11463976Y-17829976D02*
X11483024Y-17829976D01*
X11502071Y-17839500D01*
X11511595Y-17849024D01*
X11521119Y-17868071D01*
X11530643Y-17906167D01*
X11530643Y-17953786D01*
X11521119Y-17991881D01*
X11511595Y-18010929D01*
X11502071Y-18020452D01*
X11483024Y-18029976D01*
X11463976Y-18029976D01*
X11444928Y-18020452D01*
X11435405Y-18010929D01*
X11425881Y-17991881D01*
X11416357Y-17953786D01*
X11416357Y-17906167D01*
X11425881Y-17868071D01*
X11435405Y-17849024D01*
X11444928Y-17839500D01*
X11463976Y-17829976D01*
X11616357Y-18010929D02*
X11625881Y-18020452D01*
X11616357Y-18029976D01*
X11606833Y-18020452D01*
X11616357Y-18010929D01*
X11616357Y-18029976D01*
X11749690Y-17829976D02*
X11768738Y-17829976D01*
X11787786Y-17839500D01*
X11797309Y-17849024D01*
X11806833Y-17868071D01*
X11816357Y-17906167D01*
X11816357Y-17953786D01*
X11806833Y-17991881D01*
X11797309Y-18010929D01*
X11787786Y-18020452D01*
X11768738Y-18029976D01*
X11749690Y-18029976D01*
X11730643Y-18020452D01*
X11721119Y-18010929D01*
X11711595Y-17991881D01*
X11702071Y-17953786D01*
X11702071Y-17906167D01*
X11711595Y-17868071D01*
X11721119Y-17849024D01*
X11730643Y-17839500D01*
X11749690Y-17829976D01*
X11883024Y-17829976D02*
X12006833Y-17829976D01*
X11940167Y-17906167D01*
X11968738Y-17906167D01*
X11987786Y-17915690D01*
X11997309Y-17925214D01*
X12006833Y-17944262D01*
X12006833Y-17991881D01*
X11997309Y-18010929D01*
X11987786Y-18020452D01*
X11968738Y-18029976D01*
X11911595Y-18029976D01*
X11892548Y-18020452D01*
X11883024Y-18010929D01*
X12073500Y-17829976D02*
X12206833Y-17829976D01*
X12121119Y-18029976D01*
X12368738Y-17896643D02*
X12368738Y-18029976D01*
X12321119Y-17820452D02*
X12273500Y-17963310D01*
X12397309Y-17963310D01*
X12463976Y-17829976D02*
X12463976Y-17868071D01*
X12540167Y-17829976D02*
X12540167Y-17868071D01*
X12835405Y-18106167D02*
X12825881Y-18096643D01*
X12806833Y-18068071D01*
X12797309Y-18049024D01*
X12787786Y-18020452D01*
X12778262Y-17972833D01*
X12778262Y-17934738D01*
X12787786Y-17887119D01*
X12797309Y-17858548D01*
X12806833Y-17839500D01*
X12825881Y-17810929D01*
X12835405Y-17801405D01*
X13016357Y-18029976D02*
X12902071Y-18029976D01*
X12959214Y-18029976D02*
X12959214Y-17829976D01*
X12940167Y-17858548D01*
X12921119Y-17877595D01*
X12902071Y-17887119D01*
X13140167Y-17829976D02*
X13159214Y-17829976D01*
X13178262Y-17839500D01*
X13187786Y-17849024D01*
X13197309Y-17868071D01*
X13206833Y-17906167D01*
X13206833Y-17953786D01*
X13197309Y-17991881D01*
X13187786Y-18010929D01*
X13178262Y-18020452D01*
X13159214Y-18029976D01*
X13140167Y-18029976D01*
X13121119Y-18020452D01*
X13111595Y-18010929D01*
X13102071Y-17991881D01*
X13092548Y-17953786D01*
X13092548Y-17906167D01*
X13102071Y-17868071D01*
X13111595Y-17849024D01*
X13121119Y-17839500D01*
X13140167Y-17829976D01*
X13444928Y-18029976D02*
X13444928Y-17829976D01*
X13530643Y-18029976D02*
X13530643Y-17925214D01*
X13521119Y-17906167D01*
X13502071Y-17896643D01*
X13473500Y-17896643D01*
X13454452Y-17906167D01*
X13444928Y-17915690D01*
X13654452Y-18029976D02*
X13635405Y-18020452D01*
X13625881Y-18010929D01*
X13616357Y-17991881D01*
X13616357Y-17934738D01*
X13625881Y-17915690D01*
X13635405Y-17906167D01*
X13654452Y-17896643D01*
X13683024Y-17896643D01*
X13702071Y-17906167D01*
X13711595Y-17915690D01*
X13721119Y-17934738D01*
X13721119Y-17991881D01*
X13711595Y-18010929D01*
X13702071Y-18020452D01*
X13683024Y-18029976D01*
X13654452Y-18029976D01*
X13835405Y-18029976D02*
X13816357Y-18020452D01*
X13806833Y-18001405D01*
X13806833Y-17829976D01*
X13987786Y-18020452D02*
X13968738Y-18029976D01*
X13930643Y-18029976D01*
X13911595Y-18020452D01*
X13902071Y-18001405D01*
X13902071Y-17925214D01*
X13911595Y-17906167D01*
X13930643Y-17896643D01*
X13968738Y-17896643D01*
X13987786Y-17906167D01*
X13997309Y-17925214D01*
X13997309Y-17944262D01*
X13902071Y-17963310D01*
X14073500Y-18020452D02*
X14092548Y-18029976D01*
X14130643Y-18029976D01*
X14149690Y-18020452D01*
X14159214Y-18001405D01*
X14159214Y-17991881D01*
X14149690Y-17972833D01*
X14130643Y-17963310D01*
X14102071Y-17963310D01*
X14083024Y-17953786D01*
X14073500Y-17934738D01*
X14073500Y-17925214D01*
X14083024Y-17906167D01*
X14102071Y-17896643D01*
X14130643Y-17896643D01*
X14149690Y-17906167D01*
X14225881Y-18106167D02*
X14235405Y-18096643D01*
X14254452Y-18068071D01*
X14263976Y-18049024D01*
X14273500Y-18020452D01*
X14283024Y-17972833D01*
X14283024Y-17934738D01*
X14273500Y-17887119D01*
X14263976Y-17858548D01*
X14254452Y-17839500D01*
X14235405Y-17810929D01*
X14225881Y-17801405D01*
D15*
X9248856Y-18238856D02*
X9248856Y-18168144D01*
X9178144Y-18168144D01*
X9178144Y-18238856D01*
X9248856Y-18238856D01*
D11*
X9625881Y-18293976D02*
X9511595Y-18293976D01*
X9568738Y-18293976D02*
X9568738Y-18093976D01*
X9549690Y-18122548D01*
X9530643Y-18141595D01*
X9511595Y-18151119D01*
X9711595Y-18274929D02*
X9721119Y-18284452D01*
X9711595Y-18293976D01*
X9702071Y-18284452D01*
X9711595Y-18274929D01*
X9711595Y-18293976D01*
X9844929Y-18093976D02*
X9863976Y-18093976D01*
X9883024Y-18103500D01*
X9892548Y-18113024D01*
X9902071Y-18132071D01*
X9911595Y-18170167D01*
X9911595Y-18217786D01*
X9902071Y-18255881D01*
X9892548Y-18274929D01*
X9883024Y-18284452D01*
X9863976Y-18293976D01*
X9844929Y-18293976D01*
X9825881Y-18284452D01*
X9816357Y-18274929D01*
X9806833Y-18255881D01*
X9797310Y-18217786D01*
X9797310Y-18170167D01*
X9806833Y-18132071D01*
X9816357Y-18113024D01*
X9825881Y-18103500D01*
X9844929Y-18093976D01*
X10035405Y-18093976D02*
X10054452Y-18093976D01*
X10073500Y-18103500D01*
X10083024Y-18113024D01*
X10092548Y-18132071D01*
X10102071Y-18170167D01*
X10102071Y-18217786D01*
X10092548Y-18255881D01*
X10083024Y-18274929D01*
X10073500Y-18284452D01*
X10054452Y-18293976D01*
X10035405Y-18293976D01*
X10016357Y-18284452D01*
X10006833Y-18274929D01*
X9997310Y-18255881D01*
X9987786Y-18217786D01*
X9987786Y-18170167D01*
X9997310Y-18132071D01*
X10006833Y-18113024D01*
X10016357Y-18103500D01*
X10035405Y-18093976D01*
X10225881Y-18093976D02*
X10244929Y-18093976D01*
X10263976Y-18103500D01*
X10273500Y-18113024D01*
X10283024Y-18132071D01*
X10292548Y-18170167D01*
X10292548Y-18217786D01*
X10283024Y-18255881D01*
X10273500Y-18274929D01*
X10263976Y-18284452D01*
X10244929Y-18293976D01*
X10225881Y-18293976D01*
X10206833Y-18284452D01*
X10197310Y-18274929D01*
X10187786Y-18255881D01*
X10178262Y-18217786D01*
X10178262Y-18170167D01*
X10187786Y-18132071D01*
X10197310Y-18113024D01*
X10206833Y-18103500D01*
X10225881Y-18093976D01*
X10378262Y-18293976D02*
X10378262Y-18160643D01*
X10378262Y-18179690D02*
X10387786Y-18170167D01*
X10406833Y-18160643D01*
X10435405Y-18160643D01*
X10454452Y-18170167D01*
X10463976Y-18189214D01*
X10463976Y-18293976D01*
X10463976Y-18189214D02*
X10473500Y-18170167D01*
X10492548Y-18160643D01*
X10521119Y-18160643D01*
X10540167Y-18170167D01*
X10549690Y-18189214D01*
X10549690Y-18293976D01*
X10644929Y-18293976D02*
X10644929Y-18160643D01*
X10644929Y-18179690D02*
X10654452Y-18170167D01*
X10673500Y-18160643D01*
X10702071Y-18160643D01*
X10721119Y-18170167D01*
X10730643Y-18189214D01*
X10730643Y-18293976D01*
X10730643Y-18189214D02*
X10740167Y-18170167D01*
X10759214Y-18160643D01*
X10787786Y-18160643D01*
X10806833Y-18170167D01*
X10816357Y-18189214D01*
X10816357Y-18293976D01*
X11206833Y-18084452D02*
X11035405Y-18341595D01*
X11463976Y-18093976D02*
X11483024Y-18093976D01*
X11502071Y-18103500D01*
X11511595Y-18113024D01*
X11521119Y-18132071D01*
X11530643Y-18170167D01*
X11530643Y-18217786D01*
X11521119Y-18255881D01*
X11511595Y-18274929D01*
X11502071Y-18284452D01*
X11483024Y-18293976D01*
X11463976Y-18293976D01*
X11444928Y-18284452D01*
X11435405Y-18274929D01*
X11425881Y-18255881D01*
X11416357Y-18217786D01*
X11416357Y-18170167D01*
X11425881Y-18132071D01*
X11435405Y-18113024D01*
X11444928Y-18103500D01*
X11463976Y-18093976D01*
X11616357Y-18274929D02*
X11625881Y-18284452D01*
X11616357Y-18293976D01*
X11606833Y-18284452D01*
X11616357Y-18274929D01*
X11616357Y-18293976D01*
X11749690Y-18093976D02*
X11768738Y-18093976D01*
X11787786Y-18103500D01*
X11797309Y-18113024D01*
X11806833Y-18132071D01*
X11816357Y-18170167D01*
X11816357Y-18217786D01*
X11806833Y-18255881D01*
X11797309Y-18274929D01*
X11787786Y-18284452D01*
X11768738Y-18293976D01*
X11749690Y-18293976D01*
X11730643Y-18284452D01*
X11721119Y-18274929D01*
X11711595Y-18255881D01*
X11702071Y-18217786D01*
X11702071Y-18170167D01*
X11711595Y-18132071D01*
X11721119Y-18113024D01*
X11730643Y-18103500D01*
X11749690Y-18093976D01*
X11883024Y-18093976D02*
X12006833Y-18093976D01*
X11940167Y-18170167D01*
X11968738Y-18170167D01*
X11987786Y-18179690D01*
X11997309Y-18189214D01*
X12006833Y-18208262D01*
X12006833Y-18255881D01*
X11997309Y-18274929D01*
X11987786Y-18284452D01*
X11968738Y-18293976D01*
X11911595Y-18293976D01*
X11892548Y-18284452D01*
X11883024Y-18274929D01*
X12102071Y-18293976D02*
X12140167Y-18293976D01*
X12159214Y-18284452D01*
X12168738Y-18274929D01*
X12187786Y-18246357D01*
X12197309Y-18208262D01*
X12197309Y-18132071D01*
X12187786Y-18113024D01*
X12178262Y-18103500D01*
X12159214Y-18093976D01*
X12121119Y-18093976D01*
X12102071Y-18103500D01*
X12092548Y-18113024D01*
X12083024Y-18132071D01*
X12083024Y-18179690D01*
X12092548Y-18198738D01*
X12102071Y-18208262D01*
X12121119Y-18217786D01*
X12159214Y-18217786D01*
X12178262Y-18208262D01*
X12187786Y-18198738D01*
X12197309Y-18179690D01*
X12368738Y-18160643D02*
X12368738Y-18293976D01*
X12321119Y-18084452D02*
X12273500Y-18227310D01*
X12397309Y-18227310D01*
X12463976Y-18093976D02*
X12463976Y-18132071D01*
X12540167Y-18093976D02*
X12540167Y-18132071D01*
X12835405Y-18370167D02*
X12825881Y-18360643D01*
X12806833Y-18332071D01*
X12797309Y-18313024D01*
X12787786Y-18284452D01*
X12778262Y-18236833D01*
X12778262Y-18198738D01*
X12787786Y-18151119D01*
X12797309Y-18122548D01*
X12806833Y-18103500D01*
X12825881Y-18074929D01*
X12835405Y-18065405D01*
X12892548Y-18093976D02*
X13016357Y-18093976D01*
X12949690Y-18170167D01*
X12978262Y-18170167D01*
X12997309Y-18179690D01*
X13006833Y-18189214D01*
X13016357Y-18208262D01*
X13016357Y-18255881D01*
X13006833Y-18274929D01*
X12997309Y-18284452D01*
X12978262Y-18293976D01*
X12921119Y-18293976D01*
X12902071Y-18284452D01*
X12892548Y-18274929D01*
X13254452Y-18293976D02*
X13254452Y-18093976D01*
X13340167Y-18293976D02*
X13340167Y-18189214D01*
X13330643Y-18170167D01*
X13311595Y-18160643D01*
X13283024Y-18160643D01*
X13263976Y-18170167D01*
X13254452Y-18179690D01*
X13463976Y-18293976D02*
X13444928Y-18284452D01*
X13435405Y-18274929D01*
X13425881Y-18255881D01*
X13425881Y-18198738D01*
X13435405Y-18179690D01*
X13444928Y-18170167D01*
X13463976Y-18160643D01*
X13492548Y-18160643D01*
X13511595Y-18170167D01*
X13521119Y-18179690D01*
X13530643Y-18198738D01*
X13530643Y-18255881D01*
X13521119Y-18274929D01*
X13511595Y-18284452D01*
X13492548Y-18293976D01*
X13463976Y-18293976D01*
X13644928Y-18293976D02*
X13625881Y-18284452D01*
X13616357Y-18265405D01*
X13616357Y-18093976D01*
X13797309Y-18284452D02*
X13778262Y-18293976D01*
X13740167Y-18293976D01*
X13721119Y-18284452D01*
X13711595Y-18265405D01*
X13711595Y-18189214D01*
X13721119Y-18170167D01*
X13740167Y-18160643D01*
X13778262Y-18160643D01*
X13797309Y-18170167D01*
X13806833Y-18189214D01*
X13806833Y-18208262D01*
X13711595Y-18227310D01*
X13883024Y-18284452D02*
X13902071Y-18293976D01*
X13940167Y-18293976D01*
X13959214Y-18284452D01*
X13968738Y-18265405D01*
X13968738Y-18255881D01*
X13959214Y-18236833D01*
X13940167Y-18227310D01*
X13911595Y-18227310D01*
X13892548Y-18217786D01*
X13883024Y-18198738D01*
X13883024Y-18189214D01*
X13892548Y-18170167D01*
X13911595Y-18160643D01*
X13940167Y-18160643D01*
X13959214Y-18170167D01*
X14035405Y-18370167D02*
X14044928Y-18360643D01*
X14063976Y-18332071D01*
X14073500Y-18313024D01*
X14083024Y-18284452D01*
X14092548Y-18236833D01*
X14092548Y-18198738D01*
X14083024Y-18151119D01*
X14073500Y-18122548D01*
X14063976Y-18103500D01*
X14044928Y-18074929D01*
X14035405Y-18065405D01*
D16*
X9212700Y-18518300D02*
X9263500Y-18467500D01*
X9212700Y-18416700D01*
X9161900Y-18467500D01*
X9212700Y-18518300D01*
D11*
X9625881Y-18557976D02*
X9511595Y-18557976D01*
X9568738Y-18557976D02*
X9568738Y-18357976D01*
X9549690Y-18386548D01*
X9530643Y-18405595D01*
X9511595Y-18415119D01*
X9711595Y-18538929D02*
X9721119Y-18548452D01*
X9711595Y-18557976D01*
X9702071Y-18548452D01*
X9711595Y-18538929D01*
X9711595Y-18557976D01*
X9844929Y-18357976D02*
X9863976Y-18357976D01*
X9883024Y-18367500D01*
X9892548Y-18377024D01*
X9902071Y-18396071D01*
X9911595Y-18434167D01*
X9911595Y-18481786D01*
X9902071Y-18519881D01*
X9892548Y-18538929D01*
X9883024Y-18548452D01*
X9863976Y-18557976D01*
X9844929Y-18557976D01*
X9825881Y-18548452D01*
X9816357Y-18538929D01*
X9806833Y-18519881D01*
X9797310Y-18481786D01*
X9797310Y-18434167D01*
X9806833Y-18396071D01*
X9816357Y-18377024D01*
X9825881Y-18367500D01*
X9844929Y-18357976D01*
X10102071Y-18557976D02*
X9987786Y-18557976D01*
X10044929Y-18557976D02*
X10044929Y-18357976D01*
X10025881Y-18386548D01*
X10006833Y-18405595D01*
X9987786Y-18415119D01*
X10273500Y-18357976D02*
X10235405Y-18357976D01*
X10216357Y-18367500D01*
X10206833Y-18377024D01*
X10187786Y-18405595D01*
X10178262Y-18443690D01*
X10178262Y-18519881D01*
X10187786Y-18538929D01*
X10197310Y-18548452D01*
X10216357Y-18557976D01*
X10254452Y-18557976D01*
X10273500Y-18548452D01*
X10283024Y-18538929D01*
X10292548Y-18519881D01*
X10292548Y-18472262D01*
X10283024Y-18453214D01*
X10273500Y-18443690D01*
X10254452Y-18434167D01*
X10216357Y-18434167D01*
X10197310Y-18443690D01*
X10187786Y-18453214D01*
X10178262Y-18472262D01*
X10378262Y-18557976D02*
X10378262Y-18424643D01*
X10378262Y-18443690D02*
X10387786Y-18434167D01*
X10406833Y-18424643D01*
X10435405Y-18424643D01*
X10454452Y-18434167D01*
X10463976Y-18453214D01*
X10463976Y-18557976D01*
X10463976Y-18453214D02*
X10473500Y-18434167D01*
X10492548Y-18424643D01*
X10521119Y-18424643D01*
X10540167Y-18434167D01*
X10549690Y-18453214D01*
X10549690Y-18557976D01*
X10644929Y-18557976D02*
X10644929Y-18424643D01*
X10644929Y-18443690D02*
X10654452Y-18434167D01*
X10673500Y-18424643D01*
X10702071Y-18424643D01*
X10721119Y-18434167D01*
X10730643Y-18453214D01*
X10730643Y-18557976D01*
X10730643Y-18453214D02*
X10740167Y-18434167D01*
X10759214Y-18424643D01*
X10787786Y-18424643D01*
X10806833Y-18434167D01*
X10816357Y-18453214D01*
X10816357Y-18557976D01*
X11206833Y-18348452D02*
X11035405Y-18605595D01*
X11463976Y-18357976D02*
X11483024Y-18357976D01*
X11502071Y-18367500D01*
X11511595Y-18377024D01*
X11521119Y-18396071D01*
X11530643Y-18434167D01*
X11530643Y-18481786D01*
X11521119Y-18519881D01*
X11511595Y-18538929D01*
X11502071Y-18548452D01*
X11483024Y-18557976D01*
X11463976Y-18557976D01*
X11444928Y-18548452D01*
X11435405Y-18538929D01*
X11425881Y-18519881D01*
X11416357Y-18481786D01*
X11416357Y-18434167D01*
X11425881Y-18396071D01*
X11435405Y-18377024D01*
X11444928Y-18367500D01*
X11463976Y-18357976D01*
X11616357Y-18538929D02*
X11625881Y-18548452D01*
X11616357Y-18557976D01*
X11606833Y-18548452D01*
X11616357Y-18538929D01*
X11616357Y-18557976D01*
X11749690Y-18357976D02*
X11768738Y-18357976D01*
X11787786Y-18367500D01*
X11797309Y-18377024D01*
X11806833Y-18396071D01*
X11816357Y-18434167D01*
X11816357Y-18481786D01*
X11806833Y-18519881D01*
X11797309Y-18538929D01*
X11787786Y-18548452D01*
X11768738Y-18557976D01*
X11749690Y-18557976D01*
X11730643Y-18548452D01*
X11721119Y-18538929D01*
X11711595Y-18519881D01*
X11702071Y-18481786D01*
X11702071Y-18434167D01*
X11711595Y-18396071D01*
X11721119Y-18377024D01*
X11730643Y-18367500D01*
X11749690Y-18357976D01*
X11987786Y-18424643D02*
X11987786Y-18557976D01*
X11940167Y-18348452D02*
X11892548Y-18491310D01*
X12016357Y-18491310D01*
X12130643Y-18357976D02*
X12149690Y-18357976D01*
X12168738Y-18367500D01*
X12178262Y-18377024D01*
X12187786Y-18396071D01*
X12197309Y-18434167D01*
X12197309Y-18481786D01*
X12187786Y-18519881D01*
X12178262Y-18538929D01*
X12168738Y-18548452D01*
X12149690Y-18557976D01*
X12130643Y-18557976D01*
X12111595Y-18548452D01*
X12102071Y-18538929D01*
X12092548Y-18519881D01*
X12083024Y-18481786D01*
X12083024Y-18434167D01*
X12092548Y-18396071D01*
X12102071Y-18377024D01*
X12111595Y-18367500D01*
X12130643Y-18357976D01*
X12321119Y-18357976D02*
X12340167Y-18357976D01*
X12359214Y-18367500D01*
X12368738Y-18377024D01*
X12378262Y-18396071D01*
X12387786Y-18434167D01*
X12387786Y-18481786D01*
X12378262Y-18519881D01*
X12368738Y-18538929D01*
X12359214Y-18548452D01*
X12340167Y-18557976D01*
X12321119Y-18557976D01*
X12302071Y-18548452D01*
X12292548Y-18538929D01*
X12283024Y-18519881D01*
X12273500Y-18481786D01*
X12273500Y-18434167D01*
X12283024Y-18396071D01*
X12292548Y-18377024D01*
X12302071Y-18367500D01*
X12321119Y-18357976D01*
X12463976Y-18357976D02*
X12463976Y-18396071D01*
X12540167Y-18357976D02*
X12540167Y-18396071D01*
X12835405Y-18634167D02*
X12825881Y-18624643D01*
X12806833Y-18596071D01*
X12797309Y-18577024D01*
X12787786Y-18548452D01*
X12778262Y-18500833D01*
X12778262Y-18462738D01*
X12787786Y-18415119D01*
X12797309Y-18386548D01*
X12806833Y-18367500D01*
X12825881Y-18338929D01*
X12835405Y-18329405D01*
X12940167Y-18443690D02*
X12921119Y-18434167D01*
X12911595Y-18424643D01*
X12902071Y-18405595D01*
X12902071Y-18396071D01*
X12911595Y-18377024D01*
X12921119Y-18367500D01*
X12940167Y-18357976D01*
X12978262Y-18357976D01*
X12997309Y-18367500D01*
X13006833Y-18377024D01*
X13016357Y-18396071D01*
X13016357Y-18405595D01*
X13006833Y-18424643D01*
X12997309Y-18434167D01*
X12978262Y-18443690D01*
X12940167Y-18443690D01*
X12921119Y-18453214D01*
X12911595Y-18462738D01*
X12902071Y-18481786D01*
X12902071Y-18519881D01*
X12911595Y-18538929D01*
X12921119Y-18548452D01*
X12940167Y-18557976D01*
X12978262Y-18557976D01*
X12997309Y-18548452D01*
X13006833Y-18538929D01*
X13016357Y-18519881D01*
X13016357Y-18481786D01*
X13006833Y-18462738D01*
X12997309Y-18453214D01*
X12978262Y-18443690D01*
X13187786Y-18357976D02*
X13149690Y-18357976D01*
X13130643Y-18367500D01*
X13121119Y-18377024D01*
X13102071Y-18405595D01*
X13092548Y-18443690D01*
X13092548Y-18519881D01*
X13102071Y-18538929D01*
X13111595Y-18548452D01*
X13130643Y-18557976D01*
X13168738Y-18557976D01*
X13187786Y-18548452D01*
X13197309Y-18538929D01*
X13206833Y-18519881D01*
X13206833Y-18472262D01*
X13197309Y-18453214D01*
X13187786Y-18443690D01*
X13168738Y-18434167D01*
X13130643Y-18434167D01*
X13111595Y-18443690D01*
X13102071Y-18453214D01*
X13092548Y-18472262D01*
X13444928Y-18557976D02*
X13444928Y-18357976D01*
X13530643Y-18557976D02*
X13530643Y-18453214D01*
X13521119Y-18434167D01*
X13502071Y-18424643D01*
X13473500Y-18424643D01*
X13454452Y-18434167D01*
X13444928Y-18443690D01*
X13654452Y-18557976D02*
X13635405Y-18548452D01*
X13625881Y-18538929D01*
X13616357Y-18519881D01*
X13616357Y-18462738D01*
X13625881Y-18443690D01*
X13635405Y-18434167D01*
X13654452Y-18424643D01*
X13683024Y-18424643D01*
X13702071Y-18434167D01*
X13711595Y-18443690D01*
X13721119Y-18462738D01*
X13721119Y-18519881D01*
X13711595Y-18538929D01*
X13702071Y-18548452D01*
X13683024Y-18557976D01*
X13654452Y-18557976D01*
X13835405Y-18557976D02*
X13816357Y-18548452D01*
X13806833Y-18529405D01*
X13806833Y-18357976D01*
X13987786Y-18548452D02*
X13968738Y-18557976D01*
X13930643Y-18557976D01*
X13911595Y-18548452D01*
X13902071Y-18529405D01*
X13902071Y-18453214D01*
X13911595Y-18434167D01*
X13930643Y-18424643D01*
X13968738Y-18424643D01*
X13987786Y-18434167D01*
X13997309Y-18453214D01*
X13997309Y-18472262D01*
X13902071Y-18491310D01*
X14073500Y-18548452D02*
X14092548Y-18557976D01*
X14130643Y-18557976D01*
X14149690Y-18548452D01*
X14159214Y-18529405D01*
X14159214Y-18519881D01*
X14149690Y-18500833D01*
X14130643Y-18491310D01*
X14102071Y-18491310D01*
X14083024Y-18481786D01*
X14073500Y-18462738D01*
X14073500Y-18453214D01*
X14083024Y-18434167D01*
X14102071Y-18424643D01*
X14130643Y-18424643D01*
X14149690Y-18434167D01*
X14225881Y-18634167D02*
X14235405Y-18624643D01*
X14254452Y-18596071D01*
X14263976Y-18577024D01*
X14273500Y-18548452D01*
X14283024Y-18500833D01*
X14283024Y-18462738D01*
X14273500Y-18415119D01*
X14263976Y-18386548D01*
X14254452Y-18367500D01*
X14235405Y-18338929D01*
X14225881Y-18329405D01*
D17*
X9153500Y-18676500D02*
X9263500Y-18786500D01*
X9263500Y-18676500D02*
X9153500Y-18786500D01*
X9263500Y-18731500D02*
G75*
G03*
X9263500Y-18731500I-55000J0D01*
G01*
D11*
X9625881Y-18821976D02*
X9511595Y-18821976D01*
X9568738Y-18821976D02*
X9568738Y-18621976D01*
X9549690Y-18650548D01*
X9530643Y-18669595D01*
X9511595Y-18679119D01*
X9711595Y-18802929D02*
X9721119Y-18812452D01*
X9711595Y-18821976D01*
X9702071Y-18812452D01*
X9711595Y-18802929D01*
X9711595Y-18821976D01*
X9911595Y-18821976D02*
X9797310Y-18821976D01*
X9854452Y-18821976D02*
X9854452Y-18621976D01*
X9835405Y-18650548D01*
X9816357Y-18669595D01*
X9797310Y-18679119D01*
X10035405Y-18621976D02*
X10054452Y-18621976D01*
X10073500Y-18631500D01*
X10083024Y-18641024D01*
X10092548Y-18660071D01*
X10102071Y-18698167D01*
X10102071Y-18745786D01*
X10092548Y-18783881D01*
X10083024Y-18802929D01*
X10073500Y-18812452D01*
X10054452Y-18821976D01*
X10035405Y-18821976D01*
X10016357Y-18812452D01*
X10006833Y-18802929D01*
X9997310Y-18783881D01*
X9987786Y-18745786D01*
X9987786Y-18698167D01*
X9997310Y-18660071D01*
X10006833Y-18641024D01*
X10016357Y-18631500D01*
X10035405Y-18621976D01*
X10225881Y-18621976D02*
X10244929Y-18621976D01*
X10263976Y-18631500D01*
X10273500Y-18641024D01*
X10283024Y-18660071D01*
X10292548Y-18698167D01*
X10292548Y-18745786D01*
X10283024Y-18783881D01*
X10273500Y-18802929D01*
X10263976Y-18812452D01*
X10244929Y-18821976D01*
X10225881Y-18821976D01*
X10206833Y-18812452D01*
X10197310Y-18802929D01*
X10187786Y-18783881D01*
X10178262Y-18745786D01*
X10178262Y-18698167D01*
X10187786Y-18660071D01*
X10197310Y-18641024D01*
X10206833Y-18631500D01*
X10225881Y-18621976D01*
X10378262Y-18821976D02*
X10378262Y-18688643D01*
X10378262Y-18707690D02*
X10387786Y-18698167D01*
X10406833Y-18688643D01*
X10435405Y-18688643D01*
X10454452Y-18698167D01*
X10463976Y-18717214D01*
X10463976Y-18821976D01*
X10463976Y-18717214D02*
X10473500Y-18698167D01*
X10492548Y-18688643D01*
X10521119Y-18688643D01*
X10540167Y-18698167D01*
X10549690Y-18717214D01*
X10549690Y-18821976D01*
X10644929Y-18821976D02*
X10644929Y-18688643D01*
X10644929Y-18707690D02*
X10654452Y-18698167D01*
X10673500Y-18688643D01*
X10702071Y-18688643D01*
X10721119Y-18698167D01*
X10730643Y-18717214D01*
X10730643Y-18821976D01*
X10730643Y-18717214D02*
X10740167Y-18698167D01*
X10759214Y-18688643D01*
X10787786Y-18688643D01*
X10806833Y-18698167D01*
X10816357Y-18717214D01*
X10816357Y-18821976D01*
X11206833Y-18612452D02*
X11035405Y-18869595D01*
X11463976Y-18621976D02*
X11483024Y-18621976D01*
X11502071Y-18631500D01*
X11511595Y-18641024D01*
X11521119Y-18660071D01*
X11530643Y-18698167D01*
X11530643Y-18745786D01*
X11521119Y-18783881D01*
X11511595Y-18802929D01*
X11502071Y-18812452D01*
X11483024Y-18821976D01*
X11463976Y-18821976D01*
X11444928Y-18812452D01*
X11435405Y-18802929D01*
X11425881Y-18783881D01*
X11416357Y-18745786D01*
X11416357Y-18698167D01*
X11425881Y-18660071D01*
X11435405Y-18641024D01*
X11444928Y-18631500D01*
X11463976Y-18621976D01*
X11616357Y-18802929D02*
X11625881Y-18812452D01*
X11616357Y-18821976D01*
X11606833Y-18812452D01*
X11616357Y-18802929D01*
X11616357Y-18821976D01*
X11749690Y-18621976D02*
X11768738Y-18621976D01*
X11787786Y-18631500D01*
X11797309Y-18641024D01*
X11806833Y-18660071D01*
X11816357Y-18698167D01*
X11816357Y-18745786D01*
X11806833Y-18783881D01*
X11797309Y-18802929D01*
X11787786Y-18812452D01*
X11768738Y-18821976D01*
X11749690Y-18821976D01*
X11730643Y-18812452D01*
X11721119Y-18802929D01*
X11711595Y-18783881D01*
X11702071Y-18745786D01*
X11702071Y-18698167D01*
X11711595Y-18660071D01*
X11721119Y-18641024D01*
X11730643Y-18631500D01*
X11749690Y-18621976D01*
X11987786Y-18688643D02*
X11987786Y-18821976D01*
X11940167Y-18612452D02*
X11892548Y-18755310D01*
X12016357Y-18755310D01*
X12073500Y-18621976D02*
X12197309Y-18621976D01*
X12130643Y-18698167D01*
X12159214Y-18698167D01*
X12178262Y-18707690D01*
X12187786Y-18717214D01*
X12197309Y-18736262D01*
X12197309Y-18783881D01*
X12187786Y-18802929D01*
X12178262Y-18812452D01*
X12159214Y-18821976D01*
X12102071Y-18821976D01*
X12083024Y-18812452D01*
X12073500Y-18802929D01*
X12263976Y-18621976D02*
X12387786Y-18621976D01*
X12321119Y-18698167D01*
X12349690Y-18698167D01*
X12368738Y-18707690D01*
X12378262Y-18717214D01*
X12387786Y-18736262D01*
X12387786Y-18783881D01*
X12378262Y-18802929D01*
X12368738Y-18812452D01*
X12349690Y-18821976D01*
X12292548Y-18821976D01*
X12273500Y-18812452D01*
X12263976Y-18802929D01*
X12463976Y-18621976D02*
X12463976Y-18660071D01*
X12540167Y-18621976D02*
X12540167Y-18660071D01*
X12835405Y-18898167D02*
X12825881Y-18888643D01*
X12806833Y-18860071D01*
X12797309Y-18841024D01*
X12787786Y-18812452D01*
X12778262Y-18764833D01*
X12778262Y-18726738D01*
X12787786Y-18679119D01*
X12797309Y-18650548D01*
X12806833Y-18631500D01*
X12825881Y-18602929D01*
X12835405Y-18593405D01*
X12997309Y-18688643D02*
X12997309Y-18821976D01*
X12949690Y-18612452D02*
X12902071Y-18755310D01*
X13025881Y-18755310D01*
X13254452Y-18821976D02*
X13254452Y-18621976D01*
X13340167Y-18821976D02*
X13340167Y-18717214D01*
X13330643Y-18698167D01*
X13311595Y-18688643D01*
X13283024Y-18688643D01*
X13263976Y-18698167D01*
X13254452Y-18707690D01*
X13463976Y-18821976D02*
X13444928Y-18812452D01*
X13435405Y-18802929D01*
X13425881Y-18783881D01*
X13425881Y-18726738D01*
X13435405Y-18707690D01*
X13444928Y-18698167D01*
X13463976Y-18688643D01*
X13492548Y-18688643D01*
X13511595Y-18698167D01*
X13521119Y-18707690D01*
X13530643Y-18726738D01*
X13530643Y-18783881D01*
X13521119Y-18802929D01*
X13511595Y-18812452D01*
X13492548Y-18821976D01*
X13463976Y-18821976D01*
X13644928Y-18821976D02*
X13625881Y-18812452D01*
X13616357Y-18793405D01*
X13616357Y-18621976D01*
X13797309Y-18812452D02*
X13778262Y-18821976D01*
X13740167Y-18821976D01*
X13721119Y-18812452D01*
X13711595Y-18793405D01*
X13711595Y-18717214D01*
X13721119Y-18698167D01*
X13740167Y-18688643D01*
X13778262Y-18688643D01*
X13797309Y-18698167D01*
X13806833Y-18717214D01*
X13806833Y-18736262D01*
X13711595Y-18755310D01*
X13883024Y-18812452D02*
X13902071Y-18821976D01*
X13940167Y-18821976D01*
X13959214Y-18812452D01*
X13968738Y-18793405D01*
X13968738Y-18783881D01*
X13959214Y-18764833D01*
X13940167Y-18755310D01*
X13911595Y-18755310D01*
X13892548Y-18745786D01*
X13883024Y-18726738D01*
X13883024Y-18717214D01*
X13892548Y-18698167D01*
X13911595Y-18688643D01*
X13940167Y-18688643D01*
X13959214Y-18698167D01*
X14035405Y-18898167D02*
X14044928Y-18888643D01*
X14063976Y-18860071D01*
X14073500Y-18841024D01*
X14083024Y-18812452D01*
X14092548Y-18764833D01*
X14092548Y-18726738D01*
X14083024Y-18679119D01*
X14073500Y-18650548D01*
X14063976Y-18631500D01*
X14044928Y-18602929D01*
X14035405Y-18593405D01*
D18*
X9143500Y-18935500D02*
X9263500Y-19055500D01*
X9263500Y-18935500D02*
X9143500Y-19055500D01*
X9203500Y-18935500D02*
X9203500Y-19055500D01*
X9143500Y-18995500D02*
X9263500Y-18995500D01*
D11*
X9625881Y-19085976D02*
X9511595Y-19085976D01*
X9568738Y-19085976D02*
X9568738Y-18885976D01*
X9549690Y-18914548D01*
X9530643Y-18933595D01*
X9511595Y-18943119D01*
X9711595Y-19066929D02*
X9721119Y-19076452D01*
X9711595Y-19085976D01*
X9702071Y-19076452D01*
X9711595Y-19066929D01*
X9711595Y-19085976D01*
X9797310Y-18905024D02*
X9806833Y-18895500D01*
X9825881Y-18885976D01*
X9873500Y-18885976D01*
X9892548Y-18895500D01*
X9902071Y-18905024D01*
X9911595Y-18924071D01*
X9911595Y-18943119D01*
X9902071Y-18971690D01*
X9787786Y-19085976D01*
X9911595Y-19085976D01*
X10035405Y-18885976D02*
X10054452Y-18885976D01*
X10073500Y-18895500D01*
X10083024Y-18905024D01*
X10092548Y-18924071D01*
X10102071Y-18962167D01*
X10102071Y-19009786D01*
X10092548Y-19047881D01*
X10083024Y-19066929D01*
X10073500Y-19076452D01*
X10054452Y-19085976D01*
X10035405Y-19085976D01*
X10016357Y-19076452D01*
X10006833Y-19066929D01*
X9997310Y-19047881D01*
X9987786Y-19009786D01*
X9987786Y-18962167D01*
X9997310Y-18924071D01*
X10006833Y-18905024D01*
X10016357Y-18895500D01*
X10035405Y-18885976D01*
X10225881Y-18885976D02*
X10244929Y-18885976D01*
X10263976Y-18895500D01*
X10273500Y-18905024D01*
X10283024Y-18924071D01*
X10292548Y-18962167D01*
X10292548Y-19009786D01*
X10283024Y-19047881D01*
X10273500Y-19066929D01*
X10263976Y-19076452D01*
X10244929Y-19085976D01*
X10225881Y-19085976D01*
X10206833Y-19076452D01*
X10197310Y-19066929D01*
X10187786Y-19047881D01*
X10178262Y-19009786D01*
X10178262Y-18962167D01*
X10187786Y-18924071D01*
X10197310Y-18905024D01*
X10206833Y-18895500D01*
X10225881Y-18885976D01*
X10378262Y-19085976D02*
X10378262Y-18952643D01*
X10378262Y-18971690D02*
X10387786Y-18962167D01*
X10406833Y-18952643D01*
X10435405Y-18952643D01*
X10454452Y-18962167D01*
X10463976Y-18981214D01*
X10463976Y-19085976D01*
X10463976Y-18981214D02*
X10473500Y-18962167D01*
X10492548Y-18952643D01*
X10521119Y-18952643D01*
X10540167Y-18962167D01*
X10549690Y-18981214D01*
X10549690Y-19085976D01*
X10644929Y-19085976D02*
X10644929Y-18952643D01*
X10644929Y-18971690D02*
X10654452Y-18962167D01*
X10673500Y-18952643D01*
X10702071Y-18952643D01*
X10721119Y-18962167D01*
X10730643Y-18981214D01*
X10730643Y-19085976D01*
X10730643Y-18981214D02*
X10740167Y-18962167D01*
X10759214Y-18952643D01*
X10787786Y-18952643D01*
X10806833Y-18962167D01*
X10816357Y-18981214D01*
X10816357Y-19085976D01*
X11206833Y-18876452D02*
X11035405Y-19133595D01*
X11463976Y-18885976D02*
X11483024Y-18885976D01*
X11502071Y-18895500D01*
X11511595Y-18905024D01*
X11521119Y-18924071D01*
X11530643Y-18962167D01*
X11530643Y-19009786D01*
X11521119Y-19047881D01*
X11511595Y-19066929D01*
X11502071Y-19076452D01*
X11483024Y-19085976D01*
X11463976Y-19085976D01*
X11444928Y-19076452D01*
X11435405Y-19066929D01*
X11425881Y-19047881D01*
X11416357Y-19009786D01*
X11416357Y-18962167D01*
X11425881Y-18924071D01*
X11435405Y-18905024D01*
X11444928Y-18895500D01*
X11463976Y-18885976D01*
X11616357Y-19066929D02*
X11625881Y-19076452D01*
X11616357Y-19085976D01*
X11606833Y-19076452D01*
X11616357Y-19066929D01*
X11616357Y-19085976D01*
X11749690Y-18885976D02*
X11768738Y-18885976D01*
X11787786Y-18895500D01*
X11797309Y-18905024D01*
X11806833Y-18924071D01*
X11816357Y-18962167D01*
X11816357Y-19009786D01*
X11806833Y-19047881D01*
X11797309Y-19066929D01*
X11787786Y-19076452D01*
X11768738Y-19085976D01*
X11749690Y-19085976D01*
X11730643Y-19076452D01*
X11721119Y-19066929D01*
X11711595Y-19047881D01*
X11702071Y-19009786D01*
X11702071Y-18962167D01*
X11711595Y-18924071D01*
X11721119Y-18905024D01*
X11730643Y-18895500D01*
X11749690Y-18885976D01*
X11987786Y-18952643D02*
X11987786Y-19085976D01*
X11940167Y-18876452D02*
X11892548Y-19019310D01*
X12016357Y-19019310D01*
X12073500Y-18885976D02*
X12206833Y-18885976D01*
X12121119Y-19085976D01*
X12273500Y-18905024D02*
X12283024Y-18895500D01*
X12302071Y-18885976D01*
X12349690Y-18885976D01*
X12368738Y-18895500D01*
X12378262Y-18905024D01*
X12387786Y-18924071D01*
X12387786Y-18943119D01*
X12378262Y-18971690D01*
X12263976Y-19085976D01*
X12387786Y-19085976D01*
X12463976Y-18885976D02*
X12463976Y-18924071D01*
X12540167Y-18885976D02*
X12540167Y-18924071D01*
X12835405Y-19162167D02*
X12825881Y-19152643D01*
X12806833Y-19124071D01*
X12797309Y-19105024D01*
X12787786Y-19076452D01*
X12778262Y-19028833D01*
X12778262Y-18990738D01*
X12787786Y-18943119D01*
X12797309Y-18914548D01*
X12806833Y-18895500D01*
X12825881Y-18866929D01*
X12835405Y-18857405D01*
X13016357Y-19085976D02*
X12902071Y-19085976D01*
X12959214Y-19085976D02*
X12959214Y-18885976D01*
X12940167Y-18914548D01*
X12921119Y-18933595D01*
X12902071Y-18943119D01*
X13092548Y-18905024D02*
X13102071Y-18895500D01*
X13121119Y-18885976D01*
X13168738Y-18885976D01*
X13187786Y-18895500D01*
X13197309Y-18905024D01*
X13206833Y-18924071D01*
X13206833Y-18943119D01*
X13197309Y-18971690D01*
X13083024Y-19085976D01*
X13206833Y-19085976D01*
X13444928Y-19085976D02*
X13444928Y-18885976D01*
X13530643Y-19085976D02*
X13530643Y-18981214D01*
X13521119Y-18962167D01*
X13502071Y-18952643D01*
X13473500Y-18952643D01*
X13454452Y-18962167D01*
X13444928Y-18971690D01*
X13654452Y-19085976D02*
X13635405Y-19076452D01*
X13625881Y-19066929D01*
X13616357Y-19047881D01*
X13616357Y-18990738D01*
X13625881Y-18971690D01*
X13635405Y-18962167D01*
X13654452Y-18952643D01*
X13683024Y-18952643D01*
X13702071Y-18962167D01*
X13711595Y-18971690D01*
X13721119Y-18990738D01*
X13721119Y-19047881D01*
X13711595Y-19066929D01*
X13702071Y-19076452D01*
X13683024Y-19085976D01*
X13654452Y-19085976D01*
X13835405Y-19085976D02*
X13816357Y-19076452D01*
X13806833Y-19057405D01*
X13806833Y-18885976D01*
X13987786Y-19076452D02*
X13968738Y-19085976D01*
X13930643Y-19085976D01*
X13911595Y-19076452D01*
X13902071Y-19057405D01*
X13902071Y-18981214D01*
X13911595Y-18962167D01*
X13930643Y-18952643D01*
X13968738Y-18952643D01*
X13987786Y-18962167D01*
X13997309Y-18981214D01*
X13997309Y-19000262D01*
X13902071Y-19019310D01*
X14073500Y-19076452D02*
X14092548Y-19085976D01*
X14130643Y-19085976D01*
X14149690Y-19076452D01*
X14159214Y-19057405D01*
X14159214Y-19047881D01*
X14149690Y-19028833D01*
X14130643Y-19019310D01*
X14102071Y-19019310D01*
X14083024Y-19009786D01*
X14073500Y-18990738D01*
X14073500Y-18981214D01*
X14083024Y-18962167D01*
X14102071Y-18952643D01*
X14130643Y-18952643D01*
X14149690Y-18962167D01*
X14225881Y-19162167D02*
X14235405Y-19152643D01*
X14254452Y-19124071D01*
X14263976Y-19105024D01*
X14273500Y-19076452D01*
X14283024Y-19028833D01*
X14283024Y-18990738D01*
X14273500Y-18943119D01*
X14263976Y-18914548D01*
X14254452Y-18895500D01*
X14235405Y-18866929D01*
X14225881Y-18857405D01*
D19*
X9133500Y-19194500D02*
X9263500Y-19324500D01*
X9263500Y-19194500D02*
X9133500Y-19324500D01*
X9244462Y-19305462D02*
X9244462Y-19213538D01*
X9152538Y-19213538D01*
X9152538Y-19305462D01*
X9244462Y-19305462D01*
D11*
X9625881Y-19349976D02*
X9511595Y-19349976D01*
X9568738Y-19349976D02*
X9568738Y-19149976D01*
X9549690Y-19178548D01*
X9530643Y-19197595D01*
X9511595Y-19207119D01*
X9711595Y-19330929D02*
X9721119Y-19340452D01*
X9711595Y-19349976D01*
X9702071Y-19340452D01*
X9711595Y-19330929D01*
X9711595Y-19349976D01*
X9787786Y-19149976D02*
X9911595Y-19149976D01*
X9844929Y-19226167D01*
X9873500Y-19226167D01*
X9892548Y-19235690D01*
X9902071Y-19245214D01*
X9911595Y-19264262D01*
X9911595Y-19311881D01*
X9902071Y-19330929D01*
X9892548Y-19340452D01*
X9873500Y-19349976D01*
X9816357Y-19349976D01*
X9797310Y-19340452D01*
X9787786Y-19330929D01*
X10035405Y-19149976D02*
X10054452Y-19149976D01*
X10073500Y-19159500D01*
X10083024Y-19169024D01*
X10092548Y-19188071D01*
X10102071Y-19226167D01*
X10102071Y-19273786D01*
X10092548Y-19311881D01*
X10083024Y-19330929D01*
X10073500Y-19340452D01*
X10054452Y-19349976D01*
X10035405Y-19349976D01*
X10016357Y-19340452D01*
X10006833Y-19330929D01*
X9997310Y-19311881D01*
X9987786Y-19273786D01*
X9987786Y-19226167D01*
X9997310Y-19188071D01*
X10006833Y-19169024D01*
X10016357Y-19159500D01*
X10035405Y-19149976D01*
X10225881Y-19149976D02*
X10244929Y-19149976D01*
X10263976Y-19159500D01*
X10273500Y-19169024D01*
X10283024Y-19188071D01*
X10292548Y-19226167D01*
X10292548Y-19273786D01*
X10283024Y-19311881D01*
X10273500Y-19330929D01*
X10263976Y-19340452D01*
X10244929Y-19349976D01*
X10225881Y-19349976D01*
X10206833Y-19340452D01*
X10197310Y-19330929D01*
X10187786Y-19311881D01*
X10178262Y-19273786D01*
X10178262Y-19226167D01*
X10187786Y-19188071D01*
X10197310Y-19169024D01*
X10206833Y-19159500D01*
X10225881Y-19149976D01*
X10378262Y-19349976D02*
X10378262Y-19216643D01*
X10378262Y-19235690D02*
X10387786Y-19226167D01*
X10406833Y-19216643D01*
X10435405Y-19216643D01*
X10454452Y-19226167D01*
X10463976Y-19245214D01*
X10463976Y-19349976D01*
X10463976Y-19245214D02*
X10473500Y-19226167D01*
X10492548Y-19216643D01*
X10521119Y-19216643D01*
X10540167Y-19226167D01*
X10549690Y-19245214D01*
X10549690Y-19349976D01*
X10644929Y-19349976D02*
X10644929Y-19216643D01*
X10644929Y-19235690D02*
X10654452Y-19226167D01*
X10673500Y-19216643D01*
X10702071Y-19216643D01*
X10721119Y-19226167D01*
X10730643Y-19245214D01*
X10730643Y-19349976D01*
X10730643Y-19245214D02*
X10740167Y-19226167D01*
X10759214Y-19216643D01*
X10787786Y-19216643D01*
X10806833Y-19226167D01*
X10816357Y-19245214D01*
X10816357Y-19349976D01*
X11206833Y-19140452D02*
X11035405Y-19397595D01*
X11463976Y-19149976D02*
X11483024Y-19149976D01*
X11502071Y-19159500D01*
X11511595Y-19169024D01*
X11521119Y-19188071D01*
X11530643Y-19226167D01*
X11530643Y-19273786D01*
X11521119Y-19311881D01*
X11511595Y-19330929D01*
X11502071Y-19340452D01*
X11483024Y-19349976D01*
X11463976Y-19349976D01*
X11444928Y-19340452D01*
X11435405Y-19330929D01*
X11425881Y-19311881D01*
X11416357Y-19273786D01*
X11416357Y-19226167D01*
X11425881Y-19188071D01*
X11435405Y-19169024D01*
X11444928Y-19159500D01*
X11463976Y-19149976D01*
X11616357Y-19330929D02*
X11625881Y-19340452D01*
X11616357Y-19349976D01*
X11606833Y-19340452D01*
X11616357Y-19330929D01*
X11616357Y-19349976D01*
X11749690Y-19149976D02*
X11768738Y-19149976D01*
X11787786Y-19159500D01*
X11797309Y-19169024D01*
X11806833Y-19188071D01*
X11816357Y-19226167D01*
X11816357Y-19273786D01*
X11806833Y-19311881D01*
X11797309Y-19330929D01*
X11787786Y-19340452D01*
X11768738Y-19349976D01*
X11749690Y-19349976D01*
X11730643Y-19340452D01*
X11721119Y-19330929D01*
X11711595Y-19311881D01*
X11702071Y-19273786D01*
X11702071Y-19226167D01*
X11711595Y-19188071D01*
X11721119Y-19169024D01*
X11730643Y-19159500D01*
X11749690Y-19149976D01*
X11997309Y-19149976D02*
X11902071Y-19149976D01*
X11892548Y-19245214D01*
X11902071Y-19235690D01*
X11921119Y-19226167D01*
X11968738Y-19226167D01*
X11987786Y-19235690D01*
X11997309Y-19245214D01*
X12006833Y-19264262D01*
X12006833Y-19311881D01*
X11997309Y-19330929D01*
X11987786Y-19340452D01*
X11968738Y-19349976D01*
X11921119Y-19349976D01*
X11902071Y-19340452D01*
X11892548Y-19330929D01*
X12197309Y-19349976D02*
X12083024Y-19349976D01*
X12140167Y-19349976D02*
X12140167Y-19149976D01*
X12121119Y-19178548D01*
X12102071Y-19197595D01*
X12083024Y-19207119D01*
X12273500Y-19169024D02*
X12283024Y-19159500D01*
X12302071Y-19149976D01*
X12349690Y-19149976D01*
X12368738Y-19159500D01*
X12378262Y-19169024D01*
X12387786Y-19188071D01*
X12387786Y-19207119D01*
X12378262Y-19235690D01*
X12263976Y-19349976D01*
X12387786Y-19349976D01*
X12463976Y-19149976D02*
X12463976Y-19188071D01*
X12540167Y-19149976D02*
X12540167Y-19188071D01*
X12835405Y-19426167D02*
X12825881Y-19416643D01*
X12806833Y-19388071D01*
X12797309Y-19369024D01*
X12787786Y-19340452D01*
X12778262Y-19292833D01*
X12778262Y-19254738D01*
X12787786Y-19207119D01*
X12797309Y-19178548D01*
X12806833Y-19159500D01*
X12825881Y-19130929D01*
X12835405Y-19121405D01*
X12997309Y-19216643D02*
X12997309Y-19349976D01*
X12949690Y-19140452D02*
X12902071Y-19283310D01*
X13025881Y-19283310D01*
X13254452Y-19349976D02*
X13254452Y-19149976D01*
X13340167Y-19349976D02*
X13340167Y-19245214D01*
X13330643Y-19226167D01*
X13311595Y-19216643D01*
X13283024Y-19216643D01*
X13263976Y-19226167D01*
X13254452Y-19235690D01*
X13463976Y-19349976D02*
X13444928Y-19340452D01*
X13435405Y-19330929D01*
X13425881Y-19311881D01*
X13425881Y-19254738D01*
X13435405Y-19235690D01*
X13444928Y-19226167D01*
X13463976Y-19216643D01*
X13492548Y-19216643D01*
X13511595Y-19226167D01*
X13521119Y-19235690D01*
X13530643Y-19254738D01*
X13530643Y-19311881D01*
X13521119Y-19330929D01*
X13511595Y-19340452D01*
X13492548Y-19349976D01*
X13463976Y-19349976D01*
X13644928Y-19349976D02*
X13625881Y-19340452D01*
X13616357Y-19321405D01*
X13616357Y-19149976D01*
X13797309Y-19340452D02*
X13778262Y-19349976D01*
X13740167Y-19349976D01*
X13721119Y-19340452D01*
X13711595Y-19321405D01*
X13711595Y-19245214D01*
X13721119Y-19226167D01*
X13740167Y-19216643D01*
X13778262Y-19216643D01*
X13797309Y-19226167D01*
X13806833Y-19245214D01*
X13806833Y-19264262D01*
X13711595Y-19283310D01*
X13883024Y-19340452D02*
X13902071Y-19349976D01*
X13940167Y-19349976D01*
X13959214Y-19340452D01*
X13968738Y-19321405D01*
X13968738Y-19311881D01*
X13959214Y-19292833D01*
X13940167Y-19283310D01*
X13911595Y-19283310D01*
X13892548Y-19273786D01*
X13883024Y-19254738D01*
X13883024Y-19245214D01*
X13892548Y-19226167D01*
X13911595Y-19216643D01*
X13940167Y-19216643D01*
X13959214Y-19226167D01*
X14035405Y-19426167D02*
X14044928Y-19416643D01*
X14063976Y-19388071D01*
X14073500Y-19369024D01*
X14083024Y-19340452D01*
X14092548Y-19292833D01*
X14092548Y-19254738D01*
X14083024Y-19207119D01*
X14073500Y-19178548D01*
X14063976Y-19159500D01*
X14044928Y-19130929D01*
X14035405Y-19121405D01*
D20*
X9128500Y-19456000D02*
X9263500Y-19591000D01*
X9263500Y-19456000D02*
X9128500Y-19591000D01*
X9196000Y-19591000D02*
X9263500Y-19523500D01*
X9196000Y-19456000D01*
X9128500Y-19523500D01*
X9196000Y-19591000D01*
D11*
X9625881Y-19613976D02*
X9511595Y-19613976D01*
X9568738Y-19613976D02*
X9568738Y-19413976D01*
X9549690Y-19442548D01*
X9530643Y-19461595D01*
X9511595Y-19471119D01*
X9711595Y-19594929D02*
X9721119Y-19604452D01*
X9711595Y-19613976D01*
X9702071Y-19604452D01*
X9711595Y-19594929D01*
X9711595Y-19613976D01*
X9787786Y-19413976D02*
X9911595Y-19413976D01*
X9844929Y-19490167D01*
X9873500Y-19490167D01*
X9892548Y-19499690D01*
X9902071Y-19509214D01*
X9911595Y-19528262D01*
X9911595Y-19575881D01*
X9902071Y-19594929D01*
X9892548Y-19604452D01*
X9873500Y-19613976D01*
X9816357Y-19613976D01*
X9797310Y-19604452D01*
X9787786Y-19594929D01*
X10092548Y-19413976D02*
X9997310Y-19413976D01*
X9987786Y-19509214D01*
X9997310Y-19499690D01*
X10016357Y-19490167D01*
X10063976Y-19490167D01*
X10083024Y-19499690D01*
X10092548Y-19509214D01*
X10102071Y-19528262D01*
X10102071Y-19575881D01*
X10092548Y-19594929D01*
X10083024Y-19604452D01*
X10063976Y-19613976D01*
X10016357Y-19613976D01*
X9997310Y-19604452D01*
X9987786Y-19594929D01*
X10225881Y-19413976D02*
X10244929Y-19413976D01*
X10263976Y-19423500D01*
X10273500Y-19433024D01*
X10283024Y-19452071D01*
X10292548Y-19490167D01*
X10292548Y-19537786D01*
X10283024Y-19575881D01*
X10273500Y-19594929D01*
X10263976Y-19604452D01*
X10244929Y-19613976D01*
X10225881Y-19613976D01*
X10206833Y-19604452D01*
X10197310Y-19594929D01*
X10187786Y-19575881D01*
X10178262Y-19537786D01*
X10178262Y-19490167D01*
X10187786Y-19452071D01*
X10197310Y-19433024D01*
X10206833Y-19423500D01*
X10225881Y-19413976D01*
X10378262Y-19613976D02*
X10378262Y-19480643D01*
X10378262Y-19499690D02*
X10387786Y-19490167D01*
X10406833Y-19480643D01*
X10435405Y-19480643D01*
X10454452Y-19490167D01*
X10463976Y-19509214D01*
X10463976Y-19613976D01*
X10463976Y-19509214D02*
X10473500Y-19490167D01*
X10492548Y-19480643D01*
X10521119Y-19480643D01*
X10540167Y-19490167D01*
X10549690Y-19509214D01*
X10549690Y-19613976D01*
X10644929Y-19613976D02*
X10644929Y-19480643D01*
X10644929Y-19499690D02*
X10654452Y-19490167D01*
X10673500Y-19480643D01*
X10702071Y-19480643D01*
X10721119Y-19490167D01*
X10730643Y-19509214D01*
X10730643Y-19613976D01*
X10730643Y-19509214D02*
X10740167Y-19490167D01*
X10759214Y-19480643D01*
X10787786Y-19480643D01*
X10806833Y-19490167D01*
X10816357Y-19509214D01*
X10816357Y-19613976D01*
X11206833Y-19404452D02*
X11035405Y-19661595D01*
X11463976Y-19413976D02*
X11483024Y-19413976D01*
X11502071Y-19423500D01*
X11511595Y-19433024D01*
X11521119Y-19452071D01*
X11530643Y-19490167D01*
X11530643Y-19537786D01*
X11521119Y-19575881D01*
X11511595Y-19594929D01*
X11502071Y-19604452D01*
X11483024Y-19613976D01*
X11463976Y-19613976D01*
X11444928Y-19604452D01*
X11435405Y-19594929D01*
X11425881Y-19575881D01*
X11416357Y-19537786D01*
X11416357Y-19490167D01*
X11425881Y-19452071D01*
X11435405Y-19433024D01*
X11444928Y-19423500D01*
X11463976Y-19413976D01*
X11616357Y-19594929D02*
X11625881Y-19604452D01*
X11616357Y-19613976D01*
X11606833Y-19604452D01*
X11616357Y-19594929D01*
X11616357Y-19613976D01*
X11749690Y-19413976D02*
X11768738Y-19413976D01*
X11787786Y-19423500D01*
X11797309Y-19433024D01*
X11806833Y-19452071D01*
X11816357Y-19490167D01*
X11816357Y-19537786D01*
X11806833Y-19575881D01*
X11797309Y-19594929D01*
X11787786Y-19604452D01*
X11768738Y-19613976D01*
X11749690Y-19613976D01*
X11730643Y-19604452D01*
X11721119Y-19594929D01*
X11711595Y-19575881D01*
X11702071Y-19537786D01*
X11702071Y-19490167D01*
X11711595Y-19452071D01*
X11721119Y-19433024D01*
X11730643Y-19423500D01*
X11749690Y-19413976D01*
X11997309Y-19413976D02*
X11902071Y-19413976D01*
X11892548Y-19509214D01*
X11902071Y-19499690D01*
X11921119Y-19490167D01*
X11968738Y-19490167D01*
X11987786Y-19499690D01*
X11997309Y-19509214D01*
X12006833Y-19528262D01*
X12006833Y-19575881D01*
X11997309Y-19594929D01*
X11987786Y-19604452D01*
X11968738Y-19613976D01*
X11921119Y-19613976D01*
X11902071Y-19604452D01*
X11892548Y-19594929D01*
X12073500Y-19413976D02*
X12197309Y-19413976D01*
X12130643Y-19490167D01*
X12159214Y-19490167D01*
X12178262Y-19499690D01*
X12187786Y-19509214D01*
X12197309Y-19528262D01*
X12197309Y-19575881D01*
X12187786Y-19594929D01*
X12178262Y-19604452D01*
X12159214Y-19613976D01*
X12102071Y-19613976D01*
X12083024Y-19604452D01*
X12073500Y-19594929D01*
X12387786Y-19613976D02*
X12273500Y-19613976D01*
X12330643Y-19613976D02*
X12330643Y-19413976D01*
X12311595Y-19442548D01*
X12292548Y-19461595D01*
X12273500Y-19471119D01*
X12463976Y-19413976D02*
X12463976Y-19452071D01*
X12540167Y-19413976D02*
X12540167Y-19452071D01*
X12835405Y-19690167D02*
X12825881Y-19680643D01*
X12806833Y-19652071D01*
X12797309Y-19633024D01*
X12787786Y-19604452D01*
X12778262Y-19556833D01*
X12778262Y-19518738D01*
X12787786Y-19471119D01*
X12797309Y-19442548D01*
X12806833Y-19423500D01*
X12825881Y-19394929D01*
X12835405Y-19385405D01*
X12997309Y-19480643D02*
X12997309Y-19613976D01*
X12949690Y-19404452D02*
X12902071Y-19547310D01*
X13025881Y-19547310D01*
X13254452Y-19613976D02*
X13254452Y-19413976D01*
X13340167Y-19613976D02*
X13340167Y-19509214D01*
X13330643Y-19490167D01*
X13311595Y-19480643D01*
X13283024Y-19480643D01*
X13263976Y-19490167D01*
X13254452Y-19499690D01*
X13463976Y-19613976D02*
X13444928Y-19604452D01*
X13435405Y-19594929D01*
X13425881Y-19575881D01*
X13425881Y-19518738D01*
X13435405Y-19499690D01*
X13444928Y-19490167D01*
X13463976Y-19480643D01*
X13492548Y-19480643D01*
X13511595Y-19490167D01*
X13521119Y-19499690D01*
X13530643Y-19518738D01*
X13530643Y-19575881D01*
X13521119Y-19594929D01*
X13511595Y-19604452D01*
X13492548Y-19613976D01*
X13463976Y-19613976D01*
X13644928Y-19613976D02*
X13625881Y-19604452D01*
X13616357Y-19585405D01*
X13616357Y-19413976D01*
X13797309Y-19604452D02*
X13778262Y-19613976D01*
X13740167Y-19613976D01*
X13721119Y-19604452D01*
X13711595Y-19585405D01*
X13711595Y-19509214D01*
X13721119Y-19490167D01*
X13740167Y-19480643D01*
X13778262Y-19480643D01*
X13797309Y-19490167D01*
X13806833Y-19509214D01*
X13806833Y-19528262D01*
X13711595Y-19547310D01*
X13883024Y-19604452D02*
X13902071Y-19613976D01*
X13940167Y-19613976D01*
X13959214Y-19604452D01*
X13968738Y-19585405D01*
X13968738Y-19575881D01*
X13959214Y-19556833D01*
X13940167Y-19547310D01*
X13911595Y-19547310D01*
X13892548Y-19537786D01*
X13883024Y-19518738D01*
X13883024Y-19509214D01*
X13892548Y-19490167D01*
X13911595Y-19480643D01*
X13940167Y-19480643D01*
X13959214Y-19490167D01*
X14035405Y-19690167D02*
X14044928Y-19680643D01*
X14063976Y-19652071D01*
X14073500Y-19633024D01*
X14083024Y-19604452D01*
X14092548Y-19556833D01*
X14092548Y-19518738D01*
X14083024Y-19471119D01*
X14073500Y-19442548D01*
X14063976Y-19423500D01*
X14044928Y-19394929D01*
X14035405Y-19385405D01*
D21*
X9188500Y-19712500D02*
X9188500Y-19862500D01*
X9113500Y-19787500D02*
X9263500Y-19787500D01*
X9263500Y-19787500D02*
G75*
G03*
X9263500Y-19787500I-75000J0D01*
G01*
D11*
X9625881Y-19877976D02*
X9511595Y-19877976D01*
X9568738Y-19877976D02*
X9568738Y-19677976D01*
X9549690Y-19706548D01*
X9530643Y-19725595D01*
X9511595Y-19735119D01*
X9711595Y-19858929D02*
X9721119Y-19868452D01*
X9711595Y-19877976D01*
X9702071Y-19868452D01*
X9711595Y-19858929D01*
X9711595Y-19877976D01*
X9902071Y-19677976D02*
X9806833Y-19677976D01*
X9797310Y-19773214D01*
X9806833Y-19763690D01*
X9825881Y-19754167D01*
X9873500Y-19754167D01*
X9892548Y-19763690D01*
X9902071Y-19773214D01*
X9911595Y-19792262D01*
X9911595Y-19839881D01*
X9902071Y-19858929D01*
X9892548Y-19868452D01*
X9873500Y-19877976D01*
X9825881Y-19877976D01*
X9806833Y-19868452D01*
X9797310Y-19858929D01*
X10035405Y-19677976D02*
X10054452Y-19677976D01*
X10073500Y-19687500D01*
X10083024Y-19697024D01*
X10092548Y-19716071D01*
X10102071Y-19754167D01*
X10102071Y-19801786D01*
X10092548Y-19839881D01*
X10083024Y-19858929D01*
X10073500Y-19868452D01*
X10054452Y-19877976D01*
X10035405Y-19877976D01*
X10016357Y-19868452D01*
X10006833Y-19858929D01*
X9997310Y-19839881D01*
X9987786Y-19801786D01*
X9987786Y-19754167D01*
X9997310Y-19716071D01*
X10006833Y-19697024D01*
X10016357Y-19687500D01*
X10035405Y-19677976D01*
X10225881Y-19677976D02*
X10244929Y-19677976D01*
X10263976Y-19687500D01*
X10273500Y-19697024D01*
X10283024Y-19716071D01*
X10292548Y-19754167D01*
X10292548Y-19801786D01*
X10283024Y-19839881D01*
X10273500Y-19858929D01*
X10263976Y-19868452D01*
X10244929Y-19877976D01*
X10225881Y-19877976D01*
X10206833Y-19868452D01*
X10197310Y-19858929D01*
X10187786Y-19839881D01*
X10178262Y-19801786D01*
X10178262Y-19754167D01*
X10187786Y-19716071D01*
X10197310Y-19697024D01*
X10206833Y-19687500D01*
X10225881Y-19677976D01*
X10378262Y-19877976D02*
X10378262Y-19744643D01*
X10378262Y-19763690D02*
X10387786Y-19754167D01*
X10406833Y-19744643D01*
X10435405Y-19744643D01*
X10454452Y-19754167D01*
X10463976Y-19773214D01*
X10463976Y-19877976D01*
X10463976Y-19773214D02*
X10473500Y-19754167D01*
X10492548Y-19744643D01*
X10521119Y-19744643D01*
X10540167Y-19754167D01*
X10549690Y-19773214D01*
X10549690Y-19877976D01*
X10644929Y-19877976D02*
X10644929Y-19744643D01*
X10644929Y-19763690D02*
X10654452Y-19754167D01*
X10673500Y-19744643D01*
X10702071Y-19744643D01*
X10721119Y-19754167D01*
X10730643Y-19773214D01*
X10730643Y-19877976D01*
X10730643Y-19773214D02*
X10740167Y-19754167D01*
X10759214Y-19744643D01*
X10787786Y-19744643D01*
X10806833Y-19754167D01*
X10816357Y-19773214D01*
X10816357Y-19877976D01*
X11206833Y-19668452D02*
X11035405Y-19925595D01*
X11463976Y-19677976D02*
X11483024Y-19677976D01*
X11502071Y-19687500D01*
X11511595Y-19697024D01*
X11521119Y-19716071D01*
X11530643Y-19754167D01*
X11530643Y-19801786D01*
X11521119Y-19839881D01*
X11511595Y-19858929D01*
X11502071Y-19868452D01*
X11483024Y-19877976D01*
X11463976Y-19877976D01*
X11444928Y-19868452D01*
X11435405Y-19858929D01*
X11425881Y-19839881D01*
X11416357Y-19801786D01*
X11416357Y-19754167D01*
X11425881Y-19716071D01*
X11435405Y-19697024D01*
X11444928Y-19687500D01*
X11463976Y-19677976D01*
X11616357Y-19858929D02*
X11625881Y-19868452D01*
X11616357Y-19877976D01*
X11606833Y-19868452D01*
X11616357Y-19858929D01*
X11616357Y-19877976D01*
X11749690Y-19677976D02*
X11768738Y-19677976D01*
X11787786Y-19687500D01*
X11797309Y-19697024D01*
X11806833Y-19716071D01*
X11816357Y-19754167D01*
X11816357Y-19801786D01*
X11806833Y-19839881D01*
X11797309Y-19858929D01*
X11787786Y-19868452D01*
X11768738Y-19877976D01*
X11749690Y-19877976D01*
X11730643Y-19868452D01*
X11721119Y-19858929D01*
X11711595Y-19839881D01*
X11702071Y-19801786D01*
X11702071Y-19754167D01*
X11711595Y-19716071D01*
X11721119Y-19697024D01*
X11730643Y-19687500D01*
X11749690Y-19677976D01*
X11997309Y-19677976D02*
X11902071Y-19677976D01*
X11892548Y-19773214D01*
X11902071Y-19763690D01*
X11921119Y-19754167D01*
X11968738Y-19754167D01*
X11987786Y-19763690D01*
X11997309Y-19773214D01*
X12006833Y-19792262D01*
X12006833Y-19839881D01*
X11997309Y-19858929D01*
X11987786Y-19868452D01*
X11968738Y-19877976D01*
X11921119Y-19877976D01*
X11902071Y-19868452D01*
X11892548Y-19858929D01*
X12102071Y-19877976D02*
X12140167Y-19877976D01*
X12159214Y-19868452D01*
X12168738Y-19858929D01*
X12187786Y-19830357D01*
X12197309Y-19792262D01*
X12197309Y-19716071D01*
X12187786Y-19697024D01*
X12178262Y-19687500D01*
X12159214Y-19677976D01*
X12121119Y-19677976D01*
X12102071Y-19687500D01*
X12092548Y-19697024D01*
X12083024Y-19716071D01*
X12083024Y-19763690D01*
X12092548Y-19782738D01*
X12102071Y-19792262D01*
X12121119Y-19801786D01*
X12159214Y-19801786D01*
X12178262Y-19792262D01*
X12187786Y-19782738D01*
X12197309Y-19763690D01*
X12387786Y-19877976D02*
X12273500Y-19877976D01*
X12330643Y-19877976D02*
X12330643Y-19677976D01*
X12311595Y-19706548D01*
X12292548Y-19725595D01*
X12273500Y-19735119D01*
X12463976Y-19677976D02*
X12463976Y-19716071D01*
X12540167Y-19677976D02*
X12540167Y-19716071D01*
X12835405Y-19954167D02*
X12825881Y-19944643D01*
X12806833Y-19916071D01*
X12797309Y-19897024D01*
X12787786Y-19868452D01*
X12778262Y-19820833D01*
X12778262Y-19782738D01*
X12787786Y-19735119D01*
X12797309Y-19706548D01*
X12806833Y-19687500D01*
X12825881Y-19658929D01*
X12835405Y-19649405D01*
X12902071Y-19697024D02*
X12911595Y-19687500D01*
X12930643Y-19677976D01*
X12978262Y-19677976D01*
X12997309Y-19687500D01*
X13006833Y-19697024D01*
X13016357Y-19716071D01*
X13016357Y-19735119D01*
X13006833Y-19763690D01*
X12892548Y-19877976D01*
X13016357Y-19877976D01*
X13254452Y-19877976D02*
X13254452Y-19677976D01*
X13340167Y-19877976D02*
X13340167Y-19773214D01*
X13330643Y-19754167D01*
X13311595Y-19744643D01*
X13283024Y-19744643D01*
X13263976Y-19754167D01*
X13254452Y-19763690D01*
X13463976Y-19877976D02*
X13444928Y-19868452D01*
X13435405Y-19858929D01*
X13425881Y-19839881D01*
X13425881Y-19782738D01*
X13435405Y-19763690D01*
X13444928Y-19754167D01*
X13463976Y-19744643D01*
X13492548Y-19744643D01*
X13511595Y-19754167D01*
X13521119Y-19763690D01*
X13530643Y-19782738D01*
X13530643Y-19839881D01*
X13521119Y-19858929D01*
X13511595Y-19868452D01*
X13492548Y-19877976D01*
X13463976Y-19877976D01*
X13644928Y-19877976D02*
X13625881Y-19868452D01*
X13616357Y-19849405D01*
X13616357Y-19677976D01*
X13797309Y-19868452D02*
X13778262Y-19877976D01*
X13740167Y-19877976D01*
X13721119Y-19868452D01*
X13711595Y-19849405D01*
X13711595Y-19773214D01*
X13721119Y-19754167D01*
X13740167Y-19744643D01*
X13778262Y-19744643D01*
X13797309Y-19754167D01*
X13806833Y-19773214D01*
X13806833Y-19792262D01*
X13711595Y-19811310D01*
X13883024Y-19868452D02*
X13902071Y-19877976D01*
X13940167Y-19877976D01*
X13959214Y-19868452D01*
X13968738Y-19849405D01*
X13968738Y-19839881D01*
X13959214Y-19820833D01*
X13940167Y-19811310D01*
X13911595Y-19811310D01*
X13892548Y-19801786D01*
X13883024Y-19782738D01*
X13883024Y-19773214D01*
X13892548Y-19754167D01*
X13911595Y-19744643D01*
X13940167Y-19744643D01*
X13959214Y-19754167D01*
X14035405Y-19954167D02*
X14044928Y-19944643D01*
X14063976Y-19916071D01*
X14073500Y-19897024D01*
X14083024Y-19868452D01*
X14092548Y-19820833D01*
X14092548Y-19782738D01*
X14083024Y-19735119D01*
X14073500Y-19706548D01*
X14063976Y-19687500D01*
X14044928Y-19658929D01*
X14035405Y-19649405D01*
M02*
