%FSLAX45Y45*%
G04 Gerber Fmt 4.5, Leading zero omitted, Abs format (unit mm)*
G04 Created by KiCad (PCBNEW 6.0.0) date 2022-01-27 20:05:20*
%MOMM*%
%LPD*%
G01*
G04 APERTURE LIST*
%TA.AperFunction,Profile*%
%ADD10C,0.150000*%
%TD*%
%ADD11C,0.200000*%
G04 APERTURE END LIST*
D10*
X14986000Y-6223000D02*
X9271000Y-6223000D01*
X14986000Y-16764000D02*
X14986000Y-6223000D01*
X9271000Y-16764000D02*
X14986000Y-16764000D01*
X9271000Y-6223000D02*
X9271000Y-16764000D01*
D11*
X9521119Y-17081976D02*
X9521119Y-16881976D01*
X9568738Y-16881976D01*
X9597310Y-16891500D01*
X9616357Y-16910548D01*
X9625881Y-16929595D01*
X9635405Y-16967690D01*
X9635405Y-16996262D01*
X9625881Y-17034357D01*
X9616357Y-17053405D01*
X9597310Y-17072452D01*
X9568738Y-17081976D01*
X9521119Y-17081976D01*
X9721119Y-17081976D02*
X9721119Y-16948643D01*
X9721119Y-16986738D02*
X9730643Y-16967690D01*
X9740167Y-16958167D01*
X9759214Y-16948643D01*
X9778262Y-16948643D01*
X9844929Y-17081976D02*
X9844929Y-16948643D01*
X9844929Y-16881976D02*
X9835405Y-16891500D01*
X9844929Y-16901024D01*
X9854452Y-16891500D01*
X9844929Y-16881976D01*
X9844929Y-16901024D01*
X9968738Y-17081976D02*
X9949690Y-17072452D01*
X9940167Y-17053405D01*
X9940167Y-16881976D01*
X10073500Y-17081976D02*
X10054452Y-17072452D01*
X10044929Y-17053405D01*
X10044929Y-16881976D01*
X10302071Y-17081976D02*
X10302071Y-16881976D01*
X10368738Y-17024833D01*
X10435405Y-16881976D01*
X10435405Y-17081976D01*
X10616357Y-17081976D02*
X10616357Y-16977214D01*
X10606833Y-16958167D01*
X10587786Y-16948643D01*
X10549690Y-16948643D01*
X10530643Y-16958167D01*
X10616357Y-17072452D02*
X10597310Y-17081976D01*
X10549690Y-17081976D01*
X10530643Y-17072452D01*
X10521119Y-17053405D01*
X10521119Y-17034357D01*
X10530643Y-17015310D01*
X10549690Y-17005786D01*
X10597310Y-17005786D01*
X10616357Y-16996262D01*
X10711595Y-16948643D02*
X10711595Y-17148643D01*
X10711595Y-16958167D02*
X10730643Y-16948643D01*
X10768738Y-16948643D01*
X10787786Y-16958167D01*
X10797310Y-16967690D01*
X10806833Y-16986738D01*
X10806833Y-17043881D01*
X10797310Y-17062929D01*
X10787786Y-17072452D01*
X10768738Y-17081976D01*
X10730643Y-17081976D01*
X10711595Y-17072452D01*
X10892548Y-17062929D02*
X10902071Y-17072452D01*
X10892548Y-17081976D01*
X10883024Y-17072452D01*
X10892548Y-17062929D01*
X10892548Y-17081976D01*
X10892548Y-16958167D02*
X10902071Y-16967690D01*
X10892548Y-16977214D01*
X10883024Y-16967690D01*
X10892548Y-16958167D01*
X10892548Y-16977214D01*
M02*
