G04 #@! TF.GenerationSoftware,KiCad,Pcbnew,6.0.0*
G04 #@! TF.CreationDate,2022-01-27T20:05:15-05:00*
G04 #@! TF.ProjectId,rlcs_power,726c6373-5f70-46f7-9765-722e6b696361,rev?*
G04 #@! TF.SameCoordinates,Original*
G04 #@! TF.FileFunction,Legend,Bot*
G04 #@! TF.FilePolarity,Positive*
%FSLAX46Y46*%
G04 Gerber Fmt 4.6, Leading zero omitted, Abs format (unit mm)*
G04 Created by KiCad (PCBNEW 6.0.0) date 2022-01-27 20:05:15*
%MOMM*%
%LPD*%
G01*
G04 APERTURE LIST*
G04 Aperture macros list*
%AMRoundRect*
0 Rectangle with rounded corners*
0 $1 Rounding radius*
0 $2 $3 $4 $5 $6 $7 $8 $9 X,Y pos of 4 corners*
0 Add a 4 corners polygon primitive as box body*
4,1,4,$2,$3,$4,$5,$6,$7,$8,$9,$2,$3,0*
0 Add four circle primitives for the rounded corners*
1,1,$1+$1,$2,$3*
1,1,$1+$1,$4,$5*
1,1,$1+$1,$6,$7*
1,1,$1+$1,$8,$9*
0 Add four rect primitives between the rounded corners*
20,1,$1+$1,$2,$3,$4,$5,0*
20,1,$1+$1,$4,$5,$6,$7,0*
20,1,$1+$1,$6,$7,$8,$9,0*
20,1,$1+$1,$8,$9,$2,$3,0*%
G04 Aperture macros list end*
%ADD10C,0.150000*%
%ADD11C,0.010000*%
%ADD12RoundRect,0.200000X-0.750000X0.750000X-0.750000X-0.750000X0.750000X-0.750000X0.750000X0.750000X0*%
%ADD13C,1.900000*%
%ADD14C,2.750000*%
%ADD15C,2.400000*%
%ADD16RoundRect,0.450000X0.725000X-0.600000X0.725000X0.600000X-0.725000X0.600000X-0.725000X-0.600000X0*%
%ADD17O,2.350000X2.100000*%
%ADD18RoundRect,0.200000X0.850000X0.850000X-0.850000X0.850000X-0.850000X-0.850000X0.850000X-0.850000X0*%
%ADD19O,2.100000X2.100000*%
%ADD20RoundRect,0.200000X-0.750000X-1.250000X0.750000X-1.250000X0.750000X1.250000X-0.750000X1.250000X0*%
%ADD21O,1.900000X2.900000*%
%ADD22RoundRect,0.200000X-0.675000X-0.675000X0.675000X-0.675000X0.675000X0.675000X-0.675000X0.675000X0*%
%ADD23RoundRect,0.200000X1.300000X1.300000X-1.300000X1.300000X-1.300000X-1.300000X1.300000X-1.300000X0*%
%ADD24C,3.000000*%
%ADD25RoundRect,0.449999X0.620001X0.850001X-0.620001X0.850001X-0.620001X-0.850001X0.620001X-0.850001X0*%
%ADD26O,2.140000X2.600000*%
%ADD27O,2.127200X2.127200*%
G04 APERTURE END LIST*
D10*
X123391071Y-75622857D02*
X123791071Y-75051428D01*
X124076785Y-75622857D02*
X124076785Y-74422857D01*
X123619642Y-74422857D01*
X123505357Y-74480000D01*
X123448214Y-74537142D01*
X123391071Y-74651428D01*
X123391071Y-74822857D01*
X123448214Y-74937142D01*
X123505357Y-74994285D01*
X123619642Y-75051428D01*
X124076785Y-75051428D01*
X122305357Y-75622857D02*
X122876785Y-75622857D01*
X122876785Y-74422857D01*
X121219642Y-75508571D02*
X121276785Y-75565714D01*
X121448214Y-75622857D01*
X121562500Y-75622857D01*
X121733928Y-75565714D01*
X121848214Y-75451428D01*
X121905357Y-75337142D01*
X121962500Y-75108571D01*
X121962500Y-74937142D01*
X121905357Y-74708571D01*
X121848214Y-74594285D01*
X121733928Y-74480000D01*
X121562500Y-74422857D01*
X121448214Y-74422857D01*
X121276785Y-74480000D01*
X121219642Y-74537142D01*
X120762500Y-75565714D02*
X120591071Y-75622857D01*
X120305357Y-75622857D01*
X120191071Y-75565714D01*
X120133928Y-75508571D01*
X120076785Y-75394285D01*
X120076785Y-75280000D01*
X120133928Y-75165714D01*
X120191071Y-75108571D01*
X120305357Y-75051428D01*
X120533928Y-74994285D01*
X120648214Y-74937142D01*
X120705357Y-74880000D01*
X120762500Y-74765714D01*
X120762500Y-74651428D01*
X120705357Y-74537142D01*
X120648214Y-74480000D01*
X120533928Y-74422857D01*
X120248214Y-74422857D01*
X120076785Y-74480000D01*
X119676785Y-74822857D02*
X119391071Y-75622857D01*
X119105357Y-74822857D01*
X118762500Y-74422857D02*
X118019642Y-74422857D01*
X118419642Y-74880000D01*
X118248214Y-74880000D01*
X118133928Y-74937142D01*
X118076785Y-74994285D01*
X118019642Y-75108571D01*
X118019642Y-75394285D01*
X118076785Y-75508571D01*
X118133928Y-75565714D01*
X118248214Y-75622857D01*
X118591071Y-75622857D01*
X118705357Y-75565714D01*
X118762500Y-75508571D01*
X116591071Y-75622857D02*
X116591071Y-74422857D01*
X116133928Y-74422857D01*
X116019642Y-74480000D01*
X115962500Y-74537142D01*
X115905357Y-74651428D01*
X115905357Y-74822857D01*
X115962500Y-74937142D01*
X116019642Y-74994285D01*
X116133928Y-75051428D01*
X116591071Y-75051428D01*
X115219642Y-75622857D02*
X115333928Y-75565714D01*
X115391071Y-75508571D01*
X115448214Y-75394285D01*
X115448214Y-75051428D01*
X115391071Y-74937142D01*
X115333928Y-74880000D01*
X115219642Y-74822857D01*
X115048214Y-74822857D01*
X114933928Y-74880000D01*
X114876785Y-74937142D01*
X114819642Y-75051428D01*
X114819642Y-75394285D01*
X114876785Y-75508571D01*
X114933928Y-75565714D01*
X115048214Y-75622857D01*
X115219642Y-75622857D01*
X114419642Y-74822857D02*
X114191071Y-75622857D01*
X113962500Y-75051428D01*
X113733928Y-75622857D01*
X113505357Y-74822857D01*
X112591071Y-75565714D02*
X112705357Y-75622857D01*
X112933928Y-75622857D01*
X113048214Y-75565714D01*
X113105357Y-75451428D01*
X113105357Y-74994285D01*
X113048214Y-74880000D01*
X112933928Y-74822857D01*
X112705357Y-74822857D01*
X112591071Y-74880000D01*
X112533928Y-74994285D01*
X112533928Y-75108571D01*
X113105357Y-75222857D01*
X112019642Y-75622857D02*
X112019642Y-74822857D01*
X112019642Y-75051428D02*
X111962500Y-74937142D01*
X111905357Y-74880000D01*
X111791071Y-74822857D01*
X111676785Y-74822857D01*
X109962500Y-74994285D02*
X109791071Y-75051428D01*
X109733928Y-75108571D01*
X109676785Y-75222857D01*
X109676785Y-75394285D01*
X109733928Y-75508571D01*
X109791071Y-75565714D01*
X109905357Y-75622857D01*
X110362500Y-75622857D01*
X110362500Y-74422857D01*
X109962500Y-74422857D01*
X109848214Y-74480000D01*
X109791071Y-74537142D01*
X109733928Y-74651428D01*
X109733928Y-74765714D01*
X109791071Y-74880000D01*
X109848214Y-74937142D01*
X109962500Y-74994285D01*
X110362500Y-74994285D01*
X108991071Y-75622857D02*
X109105357Y-75565714D01*
X109162500Y-75508571D01*
X109219642Y-75394285D01*
X109219642Y-75051428D01*
X109162500Y-74937142D01*
X109105357Y-74880000D01*
X108991071Y-74822857D01*
X108819642Y-74822857D01*
X108705357Y-74880000D01*
X108648214Y-74937142D01*
X108591071Y-75051428D01*
X108591071Y-75394285D01*
X108648214Y-75508571D01*
X108705357Y-75565714D01*
X108819642Y-75622857D01*
X108991071Y-75622857D01*
X107562500Y-75622857D02*
X107562500Y-74994285D01*
X107619642Y-74880000D01*
X107733928Y-74822857D01*
X107962500Y-74822857D01*
X108076785Y-74880000D01*
X107562500Y-75565714D02*
X107676785Y-75622857D01*
X107962500Y-75622857D01*
X108076785Y-75565714D01*
X108133928Y-75451428D01*
X108133928Y-75337142D01*
X108076785Y-75222857D01*
X107962500Y-75165714D01*
X107676785Y-75165714D01*
X107562500Y-75108571D01*
X106991071Y-75622857D02*
X106991071Y-74822857D01*
X106991071Y-75051428D02*
X106933928Y-74937142D01*
X106876785Y-74880000D01*
X106762500Y-74822857D01*
X106648214Y-74822857D01*
X105733928Y-75622857D02*
X105733928Y-74422857D01*
X105733928Y-75565714D02*
X105848214Y-75622857D01*
X106076785Y-75622857D01*
X106191071Y-75565714D01*
X106248214Y-75508571D01*
X106305357Y-75394285D01*
X106305357Y-75051428D01*
X106248214Y-74937142D01*
X106191071Y-74880000D01*
X106076785Y-74822857D01*
X105848214Y-74822857D01*
X105733928Y-74880000D01*
X124133928Y-76354857D02*
X124133928Y-76583428D01*
X123676785Y-76354857D02*
X123676785Y-76583428D01*
X123333928Y-76354857D02*
X122648214Y-76354857D01*
X122991071Y-77554857D02*
X122991071Y-76354857D01*
X122248214Y-77554857D02*
X122248214Y-76354857D01*
X121733928Y-77554857D02*
X121733928Y-76926285D01*
X121791071Y-76812000D01*
X121905357Y-76754857D01*
X122076785Y-76754857D01*
X122191071Y-76812000D01*
X122248214Y-76869142D01*
X120705357Y-77497714D02*
X120819642Y-77554857D01*
X121048214Y-77554857D01*
X121162500Y-77497714D01*
X121219642Y-77383428D01*
X121219642Y-76926285D01*
X121162500Y-76812000D01*
X121048214Y-76754857D01*
X120819642Y-76754857D01*
X120705357Y-76812000D01*
X120648214Y-76926285D01*
X120648214Y-77040571D01*
X121219642Y-77154857D01*
X118876785Y-76354857D02*
X118876785Y-77212000D01*
X118933928Y-77383428D01*
X119048214Y-77497714D01*
X119219642Y-77554857D01*
X119333928Y-77554857D01*
X117791071Y-76754857D02*
X117791071Y-77554857D01*
X118305357Y-76754857D02*
X118305357Y-77383428D01*
X118248214Y-77497714D01*
X118133928Y-77554857D01*
X117962500Y-77554857D01*
X117848214Y-77497714D01*
X117791071Y-77440571D01*
X117219642Y-77554857D02*
X117219642Y-76754857D01*
X117219642Y-76354857D02*
X117276785Y-76412000D01*
X117219642Y-76469142D01*
X117162500Y-76412000D01*
X117219642Y-76354857D01*
X117219642Y-76469142D01*
X116133928Y-77497714D02*
X116248214Y-77554857D01*
X116476785Y-77554857D01*
X116591071Y-77497714D01*
X116648214Y-77440571D01*
X116705357Y-77326285D01*
X116705357Y-76983428D01*
X116648214Y-76869142D01*
X116591071Y-76812000D01*
X116476785Y-76754857D01*
X116248214Y-76754857D01*
X116133928Y-76812000D01*
X115162500Y-77497714D02*
X115276785Y-77554857D01*
X115505357Y-77554857D01*
X115619642Y-77497714D01*
X115676785Y-77383428D01*
X115676785Y-76926285D01*
X115619642Y-76812000D01*
X115505357Y-76754857D01*
X115276785Y-76754857D01*
X115162500Y-76812000D01*
X115105357Y-76926285D01*
X115105357Y-77040571D01*
X115676785Y-77154857D01*
X114648214Y-76354857D02*
X114648214Y-76583428D01*
X114191071Y-76354857D02*
X114191071Y-76583428D01*
X123391071Y-79486857D02*
X123791071Y-78915428D01*
X124076785Y-79486857D02*
X124076785Y-78286857D01*
X123619642Y-78286857D01*
X123505357Y-78344000D01*
X123448214Y-78401142D01*
X123391071Y-78515428D01*
X123391071Y-78686857D01*
X123448214Y-78801142D01*
X123505357Y-78858285D01*
X123619642Y-78915428D01*
X124076785Y-78915428D01*
X122991071Y-78286857D02*
X122248214Y-78286857D01*
X122648214Y-78744000D01*
X122476785Y-78744000D01*
X122362500Y-78801142D01*
X122305357Y-78858285D01*
X122248214Y-78972571D01*
X122248214Y-79258285D01*
X122305357Y-79372571D01*
X122362500Y-79429714D01*
X122476785Y-79486857D01*
X122819642Y-79486857D01*
X122933928Y-79429714D01*
X122991071Y-79372571D01*
X120876785Y-78401142D02*
X120819642Y-78344000D01*
X120705357Y-78286857D01*
X120419642Y-78286857D01*
X120305357Y-78344000D01*
X120248214Y-78401142D01*
X120191071Y-78515428D01*
X120191071Y-78629714D01*
X120248214Y-78801142D01*
X120933928Y-79486857D01*
X120191071Y-79486857D01*
X119448214Y-78286857D02*
X119333928Y-78286857D01*
X119219642Y-78344000D01*
X119162500Y-78401142D01*
X119105357Y-78515428D01*
X119048214Y-78744000D01*
X119048214Y-79029714D01*
X119105357Y-79258285D01*
X119162500Y-79372571D01*
X119219642Y-79429714D01*
X119333928Y-79486857D01*
X119448214Y-79486857D01*
X119562500Y-79429714D01*
X119619642Y-79372571D01*
X119676785Y-79258285D01*
X119733928Y-79029714D01*
X119733928Y-78744000D01*
X119676785Y-78515428D01*
X119619642Y-78401142D01*
X119562500Y-78344000D01*
X119448214Y-78286857D01*
X118591071Y-78401142D02*
X118533928Y-78344000D01*
X118419642Y-78286857D01*
X118133928Y-78286857D01*
X118019642Y-78344000D01*
X117962500Y-78401142D01*
X117905357Y-78515428D01*
X117905357Y-78629714D01*
X117962500Y-78801142D01*
X118648214Y-79486857D01*
X117905357Y-79486857D01*
X117448214Y-78401142D02*
X117391071Y-78344000D01*
X117276785Y-78286857D01*
X116991071Y-78286857D01*
X116876785Y-78344000D01*
X116819642Y-78401142D01*
X116762500Y-78515428D01*
X116762500Y-78629714D01*
X116819642Y-78801142D01*
X117505357Y-79486857D01*
X116762500Y-79486857D01*
X116248214Y-79029714D02*
X115333928Y-79029714D01*
X114533928Y-78286857D02*
X114419642Y-78286857D01*
X114305357Y-78344000D01*
X114248214Y-78401142D01*
X114191071Y-78515428D01*
X114133928Y-78744000D01*
X114133928Y-79029714D01*
X114191071Y-79258285D01*
X114248214Y-79372571D01*
X114305357Y-79429714D01*
X114419642Y-79486857D01*
X114533928Y-79486857D01*
X114648214Y-79429714D01*
X114705357Y-79372571D01*
X114762500Y-79258285D01*
X114819642Y-79029714D01*
X114819642Y-78744000D01*
X114762500Y-78515428D01*
X114705357Y-78401142D01*
X114648214Y-78344000D01*
X114533928Y-78286857D01*
X112991071Y-79486857D02*
X113676785Y-79486857D01*
X113333928Y-79486857D02*
X113333928Y-78286857D01*
X113448214Y-78458285D01*
X113562500Y-78572571D01*
X113676785Y-78629714D01*
X112476785Y-79029714D02*
X111562500Y-79029714D01*
X111048214Y-78401142D02*
X110991071Y-78344000D01*
X110876785Y-78286857D01*
X110591071Y-78286857D01*
X110476785Y-78344000D01*
X110419642Y-78401142D01*
X110362500Y-78515428D01*
X110362500Y-78629714D01*
X110419642Y-78801142D01*
X111105357Y-79486857D01*
X110362500Y-79486857D01*
X109962500Y-78286857D02*
X109162500Y-78286857D01*
X109676785Y-79486857D01*
X123733928Y-80218857D02*
X123733928Y-81076000D01*
X123791071Y-81247428D01*
X123905357Y-81361714D01*
X124076785Y-81418857D01*
X124191071Y-81418857D01*
X122648214Y-81418857D02*
X122648214Y-80790285D01*
X122705357Y-80676000D01*
X122819642Y-80618857D01*
X123048214Y-80618857D01*
X123162500Y-80676000D01*
X122648214Y-81361714D02*
X122762500Y-81418857D01*
X123048214Y-81418857D01*
X123162500Y-81361714D01*
X123219642Y-81247428D01*
X123219642Y-81133142D01*
X123162500Y-81018857D01*
X123048214Y-80961714D01*
X122762500Y-80961714D01*
X122648214Y-80904571D01*
X121562500Y-81361714D02*
X121676785Y-81418857D01*
X121905357Y-81418857D01*
X122019642Y-81361714D01*
X122076785Y-81304571D01*
X122133928Y-81190285D01*
X122133928Y-80847428D01*
X122076785Y-80733142D01*
X122019642Y-80676000D01*
X121905357Y-80618857D01*
X121676785Y-80618857D01*
X121562500Y-80676000D01*
X121048214Y-81418857D02*
X121048214Y-80218857D01*
X120933928Y-80961714D02*
X120591071Y-81418857D01*
X120591071Y-80618857D02*
X121048214Y-81076000D01*
X118476785Y-81304571D02*
X118533928Y-81361714D01*
X118705357Y-81418857D01*
X118819642Y-81418857D01*
X118991071Y-81361714D01*
X119105357Y-81247428D01*
X119162500Y-81133142D01*
X119219642Y-80904571D01*
X119219642Y-80733142D01*
X119162500Y-80504571D01*
X119105357Y-80390285D01*
X118991071Y-80276000D01*
X118819642Y-80218857D01*
X118705357Y-80218857D01*
X118533928Y-80276000D01*
X118476785Y-80333142D01*
X117962500Y-81418857D02*
X117962500Y-80218857D01*
X117448214Y-81418857D02*
X117448214Y-80790285D01*
X117505357Y-80676000D01*
X117619642Y-80618857D01*
X117791071Y-80618857D01*
X117905357Y-80676000D01*
X117962500Y-80733142D01*
X116876785Y-81418857D02*
X116876785Y-80618857D01*
X116876785Y-80847428D02*
X116819642Y-80733142D01*
X116762500Y-80676000D01*
X116648214Y-80618857D01*
X116533928Y-80618857D01*
X116133928Y-81418857D02*
X116133928Y-80618857D01*
X116133928Y-80218857D02*
X116191071Y-80276000D01*
X116133928Y-80333142D01*
X116076785Y-80276000D01*
X116133928Y-80218857D01*
X116133928Y-80333142D01*
X115619642Y-81361714D02*
X115505357Y-81418857D01*
X115276785Y-81418857D01*
X115162500Y-81361714D01*
X115105357Y-81247428D01*
X115105357Y-81190285D01*
X115162500Y-81076000D01*
X115276785Y-81018857D01*
X115448214Y-81018857D01*
X115562500Y-80961714D01*
X115619642Y-80847428D01*
X115619642Y-80790285D01*
X115562500Y-80676000D01*
X115448214Y-80618857D01*
X115276785Y-80618857D01*
X115162500Y-80676000D01*
X114762500Y-80618857D02*
X114305357Y-80618857D01*
X114591071Y-80218857D02*
X114591071Y-81247428D01*
X114533928Y-81361714D01*
X114419642Y-81418857D01*
X114305357Y-81418857D01*
X113448214Y-81361714D02*
X113562500Y-81418857D01*
X113791071Y-81418857D01*
X113905357Y-81361714D01*
X113962500Y-81247428D01*
X113962500Y-80790285D01*
X113905357Y-80676000D01*
X113791071Y-80618857D01*
X113562500Y-80618857D01*
X113448214Y-80676000D01*
X113391071Y-80790285D01*
X113391071Y-80904571D01*
X113962500Y-81018857D01*
X112876785Y-80618857D02*
X112876785Y-81418857D01*
X112876785Y-80733142D02*
X112819642Y-80676000D01*
X112705357Y-80618857D01*
X112533928Y-80618857D01*
X112419642Y-80676000D01*
X112362500Y-80790285D01*
X112362500Y-81418857D01*
X111848214Y-81361714D02*
X111733928Y-81418857D01*
X111505357Y-81418857D01*
X111391071Y-81361714D01*
X111333928Y-81247428D01*
X111333928Y-81190285D01*
X111391071Y-81076000D01*
X111505357Y-81018857D01*
X111676785Y-81018857D01*
X111791071Y-80961714D01*
X111848214Y-80847428D01*
X111848214Y-80790285D01*
X111791071Y-80676000D01*
X111676785Y-80618857D01*
X111505357Y-80618857D01*
X111391071Y-80676000D01*
X110362500Y-81361714D02*
X110476785Y-81418857D01*
X110705357Y-81418857D01*
X110819642Y-81361714D01*
X110876785Y-81247428D01*
X110876785Y-80790285D01*
X110819642Y-80676000D01*
X110705357Y-80618857D01*
X110476785Y-80618857D01*
X110362500Y-80676000D01*
X110305357Y-80790285D01*
X110305357Y-80904571D01*
X110876785Y-81018857D01*
X109791071Y-80618857D02*
X109791071Y-81418857D01*
X109791071Y-80733142D02*
X109733928Y-80676000D01*
X109619642Y-80618857D01*
X109448214Y-80618857D01*
X109333928Y-80676000D01*
X109276785Y-80790285D01*
X109276785Y-81418857D01*
D11*
X137045411Y-76797742D02*
X137001300Y-76805567D01*
X137001300Y-76805567D02*
X136932135Y-76818411D01*
X136932135Y-76818411D02*
X136840960Y-76835692D01*
X136840960Y-76835692D02*
X136730821Y-76856829D01*
X136730821Y-76856829D02*
X136604761Y-76881242D01*
X136604761Y-76881242D02*
X136465825Y-76908348D01*
X136465825Y-76908348D02*
X136317057Y-76937568D01*
X136317057Y-76937568D02*
X136314505Y-76938071D01*
X136314505Y-76938071D02*
X136130675Y-76974548D01*
X136130675Y-76974548D02*
X135976011Y-77005820D01*
X135976011Y-77005820D02*
X135848441Y-77032358D01*
X135848441Y-77032358D02*
X135745895Y-77054634D01*
X135745895Y-77054634D02*
X135666299Y-77073119D01*
X135666299Y-77073119D02*
X135607581Y-77088283D01*
X135607581Y-77088283D02*
X135567671Y-77100598D01*
X135567671Y-77100598D02*
X135544495Y-77110536D01*
X135544495Y-77110536D02*
X135538862Y-77114458D01*
X135538862Y-77114458D02*
X135510411Y-77145078D01*
X135510411Y-77145078D02*
X135466720Y-77198525D01*
X135466720Y-77198525D02*
X135410325Y-77271321D01*
X135410325Y-77271321D02*
X135343766Y-77359986D01*
X135343766Y-77359986D02*
X135269578Y-77461043D01*
X135269578Y-77461043D02*
X135190300Y-77571011D01*
X135190300Y-77571011D02*
X135108470Y-77686414D01*
X135108470Y-77686414D02*
X135026625Y-77803771D01*
X135026625Y-77803771D02*
X134947304Y-77919605D01*
X134947304Y-77919605D02*
X134897440Y-77993720D01*
X134897440Y-77993720D02*
X134661859Y-78356668D01*
X134661859Y-78356668D02*
X134431049Y-78731801D01*
X134431049Y-78731801D02*
X134207633Y-79114259D01*
X134207633Y-79114259D02*
X133994236Y-79499183D01*
X133994236Y-79499183D02*
X133793479Y-79881713D01*
X133793479Y-79881713D02*
X133607986Y-80256989D01*
X133607986Y-80256989D02*
X133440381Y-80620151D01*
X133440381Y-80620151D02*
X133294842Y-80962500D01*
X133294842Y-80962500D02*
X133258150Y-81056061D01*
X133258150Y-81056061D02*
X133218266Y-81162841D01*
X133218266Y-81162841D02*
X133177064Y-81277315D01*
X133177064Y-81277315D02*
X133136413Y-81393957D01*
X133136413Y-81393957D02*
X133098187Y-81507244D01*
X133098187Y-81507244D02*
X133064257Y-81611651D01*
X133064257Y-81611651D02*
X133036494Y-81701652D01*
X133036494Y-81701652D02*
X133016770Y-81771725D01*
X133016770Y-81771725D02*
X133008302Y-81808286D01*
X133008302Y-81808286D02*
X132998588Y-81846252D01*
X132998588Y-81846252D02*
X132988383Y-81866394D01*
X132988383Y-81866394D02*
X132986202Y-81867375D01*
X132986202Y-81867375D02*
X132970968Y-81855877D01*
X132970968Y-81855877D02*
X132938304Y-81823729D01*
X132938304Y-81823729D02*
X132891372Y-81774451D01*
X132891372Y-81774451D02*
X132833331Y-81711562D01*
X132833331Y-81711562D02*
X132767340Y-81638581D01*
X132767340Y-81638581D02*
X132696561Y-81559027D01*
X132696561Y-81559027D02*
X132624154Y-81476419D01*
X132624154Y-81476419D02*
X132553278Y-81394277D01*
X132553278Y-81394277D02*
X132487094Y-81316119D01*
X132487094Y-81316119D02*
X132438764Y-81257745D01*
X132438764Y-81257745D02*
X132290751Y-81070913D01*
X132290751Y-81070913D02*
X132154451Y-80886091D01*
X132154451Y-80886091D02*
X132025018Y-80696039D01*
X132025018Y-80696039D02*
X131897610Y-80493515D01*
X131897610Y-80493515D02*
X131767382Y-80271276D01*
X131767382Y-80271276D02*
X131707025Y-80163729D01*
X131707025Y-80163729D02*
X131662081Y-80084537D01*
X131662081Y-80084537D02*
X131621810Y-80017034D01*
X131621810Y-80017034D02*
X131588836Y-79965338D01*
X131588836Y-79965338D02*
X131565779Y-79933569D01*
X131565779Y-79933569D02*
X131555441Y-79925604D01*
X131555441Y-79925604D02*
X131543426Y-79943988D01*
X131543426Y-79943988D02*
X131519891Y-79984369D01*
X131519891Y-79984369D02*
X131488267Y-80040736D01*
X131488267Y-80040736D02*
X131452970Y-80105250D01*
X131452970Y-80105250D02*
X131277517Y-80415226D01*
X131277517Y-80415226D02*
X131099219Y-80700596D01*
X131099219Y-80700596D02*
X130913381Y-80968449D01*
X130913381Y-80968449D02*
X130715306Y-81225876D01*
X130715306Y-81225876D02*
X130690669Y-81256187D01*
X130690669Y-81256187D02*
X130630345Y-81328854D01*
X130630345Y-81328854D02*
X130562812Y-81408309D01*
X130562812Y-81408309D02*
X130491221Y-81491039D01*
X130491221Y-81491039D02*
X130418726Y-81573535D01*
X130418726Y-81573535D02*
X130348477Y-81652286D01*
X130348477Y-81652286D02*
X130283628Y-81723779D01*
X130283628Y-81723779D02*
X130227331Y-81784506D01*
X130227331Y-81784506D02*
X130182737Y-81830953D01*
X130182737Y-81830953D02*
X130153000Y-81859612D01*
X130153000Y-81859612D02*
X130141924Y-81867375D01*
X130141924Y-81867375D02*
X130132239Y-81853474D01*
X130132239Y-81853474D02*
X130122016Y-81819000D01*
X130122016Y-81819000D02*
X130119824Y-81808286D01*
X130119824Y-81808286D02*
X130107471Y-81757079D01*
X130107471Y-81757079D02*
X130085655Y-81681739D01*
X130085655Y-81681739D02*
X130056247Y-81587791D01*
X130056247Y-81587791D02*
X130021120Y-81480759D01*
X130021120Y-81480759D02*
X129982144Y-81366167D01*
X129982144Y-81366167D02*
X129941191Y-81249540D01*
X129941191Y-81249540D02*
X129900134Y-81136404D01*
X129900134Y-81136404D02*
X129860843Y-81032282D01*
X129860843Y-81032282D02*
X129833284Y-80962500D01*
X129833284Y-80962500D02*
X129688846Y-80622785D01*
X129688846Y-80622785D02*
X129524217Y-80265906D01*
X129524217Y-80265906D02*
X129342039Y-79896756D01*
X129342039Y-79896756D02*
X129144952Y-79520231D01*
X129144952Y-79520231D02*
X128935600Y-79141227D01*
X128935600Y-79141227D02*
X128716624Y-78764639D01*
X128716624Y-78764639D02*
X128490666Y-78395361D01*
X128490666Y-78395361D02*
X128260369Y-78038291D01*
X128260369Y-78038291D02*
X128232262Y-77996039D01*
X128232262Y-77996039D02*
X128156108Y-77883281D01*
X128156108Y-77883281D02*
X128075732Y-77766645D01*
X128075732Y-77766645D02*
X127993667Y-77649605D01*
X127993667Y-77649605D02*
X127912446Y-77535636D01*
X127912446Y-77535636D02*
X127834602Y-77428210D01*
X127834602Y-77428210D02*
X127762666Y-77330801D01*
X127762666Y-77330801D02*
X127699173Y-77246883D01*
X127699173Y-77246883D02*
X127646653Y-77179930D01*
X127646653Y-77179930D02*
X127607641Y-77133416D01*
X127607641Y-77133416D02*
X127589958Y-77115085D01*
X127589958Y-77115085D02*
X127573184Y-77106032D01*
X127573184Y-77106032D02*
X127539228Y-77094524D01*
X127539228Y-77094524D02*
X127486153Y-77080121D01*
X127486153Y-77080121D02*
X127412024Y-77062383D01*
X127412024Y-77062383D02*
X127314905Y-77040872D01*
X127314905Y-77040872D02*
X127192860Y-77015147D01*
X127192860Y-77015147D02*
X127043953Y-76984770D01*
X127043953Y-76984770D02*
X126866249Y-76949302D01*
X126866249Y-76949302D02*
X126814314Y-76939039D01*
X126814314Y-76939039D02*
X126665338Y-76909738D01*
X126665338Y-76909738D02*
X126526141Y-76882529D01*
X126526141Y-76882529D02*
X126399766Y-76857995D01*
X126399766Y-76857995D02*
X126289257Y-76836718D01*
X126289257Y-76836718D02*
X126197655Y-76819282D01*
X126197655Y-76819282D02*
X126128005Y-76806269D01*
X126128005Y-76806269D02*
X126083348Y-76798262D01*
X126083348Y-76798262D02*
X126066728Y-76795843D01*
X126066728Y-76795843D02*
X126066702Y-76795856D01*
X126066702Y-76795856D02*
X126069921Y-76811140D01*
X126069921Y-76811140D02*
X126080217Y-76854034D01*
X126080217Y-76854034D02*
X126096792Y-76921389D01*
X126096792Y-76921389D02*
X126118847Y-77010056D01*
X126118847Y-77010056D02*
X126145583Y-77116888D01*
X126145583Y-77116888D02*
X126176201Y-77238736D01*
X126176201Y-77238736D02*
X126209904Y-77372451D01*
X126209904Y-77372451D02*
X126245891Y-77514886D01*
X126245891Y-77514886D02*
X126283364Y-77662892D01*
X126283364Y-77662892D02*
X126321525Y-77813321D01*
X126321525Y-77813321D02*
X126359574Y-77963025D01*
X126359574Y-77963025D02*
X126396714Y-78108854D01*
X126396714Y-78108854D02*
X126432145Y-78247662D01*
X126432145Y-78247662D02*
X126465069Y-78376299D01*
X126465069Y-78376299D02*
X126494687Y-78491618D01*
X126494687Y-78491618D02*
X126520199Y-78590469D01*
X126520199Y-78590469D02*
X126540809Y-78669706D01*
X126540809Y-78669706D02*
X126555716Y-78726178D01*
X126555716Y-78726178D02*
X126564122Y-78756739D01*
X126564122Y-78756739D02*
X126564485Y-78757954D01*
X126564485Y-78757954D02*
X126560630Y-78770046D01*
X126560630Y-78770046D02*
X126541690Y-78788425D01*
X126541690Y-78788425D02*
X126505211Y-78814702D01*
X126505211Y-78814702D02*
X126448735Y-78850489D01*
X126448735Y-78850489D02*
X126369809Y-78897397D01*
X126369809Y-78897397D02*
X126265975Y-78957039D01*
X126265975Y-78957039D02*
X126230533Y-78977128D01*
X126230533Y-78977128D02*
X126136478Y-79030790D01*
X126136478Y-79030790D02*
X126052324Y-79079711D01*
X126052324Y-79079711D02*
X125981811Y-79121643D01*
X125981811Y-79121643D02*
X125928676Y-79154336D01*
X125928676Y-79154336D02*
X125896660Y-79175545D01*
X125896660Y-79175545D02*
X125888750Y-79182629D01*
X125888750Y-79182629D02*
X125901784Y-79192693D01*
X125901784Y-79192693D02*
X125939802Y-79219009D01*
X125939802Y-79219009D02*
X126001182Y-79260507D01*
X126001182Y-79260507D02*
X126084302Y-79316113D01*
X126084302Y-79316113D02*
X126187540Y-79384758D01*
X126187540Y-79384758D02*
X126309272Y-79465368D01*
X126309272Y-79465368D02*
X126447876Y-79556874D01*
X126447876Y-79556874D02*
X126601731Y-79658203D01*
X126601731Y-79658203D02*
X126769213Y-79768283D01*
X126769213Y-79768283D02*
X126948699Y-79886044D01*
X126948699Y-79886044D02*
X127138568Y-80010414D01*
X127138568Y-80010414D02*
X127337197Y-80140321D01*
X127337197Y-80140321D02*
X127491941Y-80241393D01*
X127491941Y-80241393D02*
X127696137Y-80374816D01*
X127696137Y-80374816D02*
X127892800Y-80503568D01*
X127892800Y-80503568D02*
X128080307Y-80626570D01*
X128080307Y-80626570D02*
X128257035Y-80742748D01*
X128257035Y-80742748D02*
X128421361Y-80851027D01*
X128421361Y-80851027D02*
X128571660Y-80950330D01*
X128571660Y-80950330D02*
X128706309Y-81039583D01*
X128706309Y-81039583D02*
X128823686Y-81117708D01*
X128823686Y-81117708D02*
X128922166Y-81183631D01*
X128922166Y-81183631D02*
X129000125Y-81236277D01*
X129000125Y-81236277D02*
X129055942Y-81274568D01*
X129055942Y-81274568D02*
X129087991Y-81297431D01*
X129087991Y-81297431D02*
X129095455Y-81303812D01*
X129095455Y-81303812D02*
X129090875Y-81321952D01*
X129090875Y-81321952D02*
X129077671Y-81367036D01*
X129077671Y-81367036D02*
X129056860Y-81435758D01*
X129056860Y-81435758D02*
X129029464Y-81524810D01*
X129029464Y-81524810D02*
X128996500Y-81630888D01*
X128996500Y-81630888D02*
X128958988Y-81750684D01*
X128958988Y-81750684D02*
X128917948Y-81880893D01*
X128917948Y-81880893D02*
X128903170Y-81927583D01*
X128903170Y-81927583D02*
X128861450Y-82060294D01*
X128861450Y-82060294D02*
X128823344Y-82183517D01*
X128823344Y-82183517D02*
X128789815Y-82293990D01*
X128789815Y-82293990D02*
X128761824Y-82388450D01*
X128761824Y-82388450D02*
X128740334Y-82463635D01*
X128740334Y-82463635D02*
X128726305Y-82516280D01*
X128726305Y-82516280D02*
X128720700Y-82543125D01*
X128720700Y-82543125D02*
X128720918Y-82545834D01*
X128720918Y-82545834D02*
X128737854Y-82545505D01*
X128737854Y-82545505D02*
X128784059Y-82541581D01*
X128784059Y-82541581D02*
X128857286Y-82534313D01*
X128857286Y-82534313D02*
X128955289Y-82523954D01*
X128955289Y-82523954D02*
X129075819Y-82510756D01*
X129075819Y-82510756D02*
X129216630Y-82494970D01*
X129216630Y-82494970D02*
X129375476Y-82476848D01*
X129375476Y-82476848D02*
X129550108Y-82456643D01*
X129550108Y-82456643D02*
X129738281Y-82434606D01*
X129738281Y-82434606D02*
X129937746Y-82410990D01*
X129937746Y-82410990D02*
X130146258Y-82386045D01*
X130146258Y-82386045D02*
X130147669Y-82385875D01*
X130147669Y-82385875D02*
X131564063Y-82215561D01*
X131564063Y-82215561D02*
X132951432Y-82382780D01*
X132951432Y-82382780D02*
X133158563Y-82407696D01*
X133158563Y-82407696D02*
X133357173Y-82431488D01*
X133357173Y-82431488D02*
X133544931Y-82453884D01*
X133544931Y-82453884D02*
X133719506Y-82474610D01*
X133719506Y-82474610D02*
X133878569Y-82493393D01*
X133878569Y-82493393D02*
X134019789Y-82509960D01*
X134019789Y-82509960D02*
X134140836Y-82524035D01*
X134140836Y-82524035D02*
X134239379Y-82535348D01*
X134239379Y-82535348D02*
X134313089Y-82543623D01*
X134313089Y-82543623D02*
X134359635Y-82548587D01*
X134359635Y-82548587D02*
X134376213Y-82550000D01*
X134376213Y-82550000D02*
X134404955Y-82545235D01*
X134404955Y-82545235D02*
X134413625Y-82536824D01*
X134413625Y-82536824D02*
X134408976Y-82519273D01*
X134408976Y-82519273D02*
X134395714Y-82474779D01*
X134395714Y-82474779D02*
X134374863Y-82406650D01*
X134374863Y-82406650D02*
X134347452Y-82318194D01*
X134347452Y-82318194D02*
X134314507Y-82212719D01*
X134314507Y-82212719D02*
X134277054Y-82093532D01*
X134277054Y-82093532D02*
X134236120Y-81963942D01*
X134236120Y-81963942D02*
X134223125Y-81922937D01*
X134223125Y-81922937D02*
X134181311Y-81790655D01*
X134181311Y-81790655D02*
X134142676Y-81667605D01*
X134142676Y-81667605D02*
X134108248Y-81557122D01*
X134108248Y-81557122D02*
X134079054Y-81462542D01*
X134079054Y-81462542D02*
X134056123Y-81387202D01*
X134056123Y-81387202D02*
X134040483Y-81334438D01*
X134040483Y-81334438D02*
X134033161Y-81307584D01*
X134033161Y-81307584D02*
X134032740Y-81305082D01*
X134032740Y-81305082D02*
X134045791Y-81294386D01*
X134045791Y-81294386D02*
X134083833Y-81267454D01*
X134083833Y-81267454D02*
X134145242Y-81225362D01*
X134145242Y-81225362D02*
X134228395Y-81169187D01*
X134228395Y-81169187D02*
X134331669Y-81100007D01*
X134331669Y-81100007D02*
X134453441Y-81018898D01*
X134453441Y-81018898D02*
X134592087Y-80926938D01*
X134592087Y-80926938D02*
X134745985Y-80825204D01*
X134745985Y-80825204D02*
X134913511Y-80714773D01*
X134913511Y-80714773D02*
X135093041Y-80596723D01*
X135093041Y-80596723D02*
X135282954Y-80472129D01*
X135282954Y-80472129D02*
X135481625Y-80342070D01*
X135481625Y-80342070D02*
X135636115Y-80241119D01*
X135636115Y-80241119D02*
X135840278Y-80107718D01*
X135840278Y-80107718D02*
X136036906Y-79979050D01*
X136036906Y-79979050D02*
X136224378Y-79856186D01*
X136224378Y-79856186D02*
X136401070Y-79740199D01*
X136401070Y-79740199D02*
X136565362Y-79632159D01*
X136565362Y-79632159D02*
X136715629Y-79533138D01*
X136715629Y-79533138D02*
X136850252Y-79444206D01*
X136850252Y-79444206D02*
X136967606Y-79366436D01*
X136967606Y-79366436D02*
X137066069Y-79300898D01*
X137066069Y-79300898D02*
X137144021Y-79248664D01*
X137144021Y-79248664D02*
X137199837Y-79210805D01*
X137199837Y-79210805D02*
X137231897Y-79188392D01*
X137231897Y-79188392D02*
X137239375Y-79182355D01*
X137239375Y-79182355D02*
X137226134Y-79171580D01*
X137226134Y-79171580D02*
X137188903Y-79147584D01*
X137188903Y-79147584D02*
X137131419Y-79112612D01*
X137131419Y-79112612D02*
X137057423Y-79068909D01*
X137057423Y-79068909D02*
X136970651Y-79018720D01*
X136970651Y-79018720D02*
X136897593Y-78977128D01*
X136897593Y-78977128D02*
X136786008Y-78913456D01*
X136786008Y-78913456D02*
X136700048Y-78862989D01*
X136700048Y-78862989D02*
X136637259Y-78824115D01*
X136637259Y-78824115D02*
X136595183Y-78795223D01*
X136595183Y-78795223D02*
X136571367Y-78774700D01*
X136571367Y-78774700D02*
X136563353Y-78760936D01*
X136563353Y-78760936D02*
X136563641Y-78757954D01*
X136563641Y-78757954D02*
X136571552Y-78729399D01*
X136571552Y-78729399D02*
X136586020Y-78674700D01*
X136586020Y-78674700D02*
X136606248Y-78597003D01*
X136606248Y-78597003D02*
X136631436Y-78499459D01*
X136631436Y-78499459D02*
X136660787Y-78385216D01*
X136660787Y-78385216D02*
X136693500Y-78257422D01*
X136693500Y-78257422D02*
X136728779Y-78119226D01*
X136728779Y-78119226D02*
X136765823Y-77973777D01*
X136765823Y-77973777D02*
X136803835Y-77824223D01*
X136803835Y-77824223D02*
X136842015Y-77673713D01*
X136842015Y-77673713D02*
X136879565Y-77525396D01*
X136879565Y-77525396D02*
X136915687Y-77382420D01*
X136915687Y-77382420D02*
X136949581Y-77247934D01*
X136949581Y-77247934D02*
X136980449Y-77125087D01*
X136980449Y-77125087D02*
X137007493Y-77017026D01*
X137007493Y-77017026D02*
X137029913Y-76926902D01*
X137029913Y-76926902D02*
X137046911Y-76857862D01*
X137046911Y-76857862D02*
X137057688Y-76813055D01*
X137057688Y-76813055D02*
X137061446Y-76795630D01*
X137061446Y-76795630D02*
X137061424Y-76795515D01*
X137061424Y-76795515D02*
X137045411Y-76797742D01*
X137045411Y-76797742D02*
X137045411Y-76797742D01*
G36*
X137061446Y-76795630D02*
G01*
X137057688Y-76813055D01*
X137046911Y-76857862D01*
X137029913Y-76926902D01*
X137007493Y-77017026D01*
X136980449Y-77125087D01*
X136949581Y-77247934D01*
X136915687Y-77382420D01*
X136879565Y-77525396D01*
X136842015Y-77673713D01*
X136803835Y-77824223D01*
X136765823Y-77973777D01*
X136728779Y-78119226D01*
X136693500Y-78257422D01*
X136660787Y-78385216D01*
X136631436Y-78499459D01*
X136606248Y-78597003D01*
X136586020Y-78674700D01*
X136571552Y-78729399D01*
X136563641Y-78757954D01*
X136563353Y-78760936D01*
X136571367Y-78774700D01*
X136595183Y-78795223D01*
X136637259Y-78824115D01*
X136700048Y-78862989D01*
X136786008Y-78913456D01*
X136897593Y-78977128D01*
X136970651Y-79018720D01*
X137057423Y-79068909D01*
X137131419Y-79112612D01*
X137188903Y-79147584D01*
X137226134Y-79171580D01*
X137239375Y-79182355D01*
X137231897Y-79188392D01*
X137199837Y-79210805D01*
X137144021Y-79248664D01*
X137066069Y-79300898D01*
X136967606Y-79366436D01*
X136850252Y-79444206D01*
X136715629Y-79533138D01*
X136565362Y-79632159D01*
X136401070Y-79740199D01*
X136224378Y-79856186D01*
X136036906Y-79979050D01*
X135840278Y-80107718D01*
X135636115Y-80241119D01*
X135481625Y-80342070D01*
X135282954Y-80472129D01*
X135093041Y-80596723D01*
X134913511Y-80714773D01*
X134745985Y-80825204D01*
X134592087Y-80926938D01*
X134453441Y-81018898D01*
X134331669Y-81100007D01*
X134228395Y-81169187D01*
X134145242Y-81225362D01*
X134083833Y-81267454D01*
X134045791Y-81294386D01*
X134032740Y-81305082D01*
X134033161Y-81307584D01*
X134040483Y-81334438D01*
X134056123Y-81387202D01*
X134079054Y-81462542D01*
X134108248Y-81557122D01*
X134142676Y-81667605D01*
X134181311Y-81790655D01*
X134223125Y-81922937D01*
X134236120Y-81963942D01*
X134277054Y-82093532D01*
X134314507Y-82212719D01*
X134347452Y-82318194D01*
X134374863Y-82406650D01*
X134395714Y-82474779D01*
X134408976Y-82519273D01*
X134413625Y-82536824D01*
X134404955Y-82545235D01*
X134376213Y-82550000D01*
X134359635Y-82548587D01*
X134313089Y-82543623D01*
X134239379Y-82535348D01*
X134140836Y-82524035D01*
X134019789Y-82509960D01*
X133878569Y-82493393D01*
X133719506Y-82474610D01*
X133544931Y-82453884D01*
X133357173Y-82431488D01*
X133158563Y-82407696D01*
X132951432Y-82382780D01*
X131564063Y-82215561D01*
X130147669Y-82385875D01*
X130146258Y-82386045D01*
X129937746Y-82410990D01*
X129738281Y-82434606D01*
X129550108Y-82456643D01*
X129375476Y-82476848D01*
X129216630Y-82494970D01*
X129075819Y-82510756D01*
X128955289Y-82523954D01*
X128857286Y-82534313D01*
X128784059Y-82541581D01*
X128737854Y-82545505D01*
X128720918Y-82545834D01*
X128720700Y-82543125D01*
X128726305Y-82516280D01*
X128740334Y-82463635D01*
X128761824Y-82388450D01*
X128789815Y-82293990D01*
X128823344Y-82183517D01*
X128861450Y-82060294D01*
X128903170Y-81927583D01*
X128917948Y-81880893D01*
X128958988Y-81750684D01*
X128996500Y-81630888D01*
X129029464Y-81524810D01*
X129056860Y-81435758D01*
X129077671Y-81367036D01*
X129090875Y-81321952D01*
X129095455Y-81303812D01*
X129087991Y-81297431D01*
X129055942Y-81274568D01*
X129000125Y-81236277D01*
X128922166Y-81183631D01*
X128823686Y-81117708D01*
X128706309Y-81039583D01*
X128571660Y-80950330D01*
X128421361Y-80851027D01*
X128257035Y-80742748D01*
X128080307Y-80626570D01*
X127892800Y-80503568D01*
X127696137Y-80374816D01*
X127491941Y-80241393D01*
X127337197Y-80140321D01*
X127138568Y-80010414D01*
X126948699Y-79886044D01*
X126769213Y-79768283D01*
X126601731Y-79658203D01*
X126447876Y-79556874D01*
X126309272Y-79465368D01*
X126187540Y-79384758D01*
X126084302Y-79316113D01*
X126001182Y-79260507D01*
X125939802Y-79219009D01*
X125901784Y-79192693D01*
X125888750Y-79182629D01*
X125896660Y-79175545D01*
X125928676Y-79154336D01*
X125981811Y-79121643D01*
X126052324Y-79079711D01*
X126136478Y-79030790D01*
X126230533Y-78977128D01*
X126265975Y-78957039D01*
X126369809Y-78897397D01*
X126448735Y-78850489D01*
X126505211Y-78814702D01*
X126541690Y-78788425D01*
X126560630Y-78770046D01*
X126564485Y-78757954D01*
X126564122Y-78756739D01*
X126555716Y-78726178D01*
X126540809Y-78669706D01*
X126520199Y-78590469D01*
X126494687Y-78491618D01*
X126465069Y-78376299D01*
X126432145Y-78247662D01*
X126396714Y-78108854D01*
X126359574Y-77963025D01*
X126321525Y-77813321D01*
X126283364Y-77662892D01*
X126245891Y-77514886D01*
X126209904Y-77372451D01*
X126176201Y-77238736D01*
X126145583Y-77116888D01*
X126118847Y-77010056D01*
X126096792Y-76921389D01*
X126080217Y-76854034D01*
X126069921Y-76811140D01*
X126066702Y-76795856D01*
X126066728Y-76795843D01*
X126083348Y-76798262D01*
X126128005Y-76806269D01*
X126197655Y-76819282D01*
X126289257Y-76836718D01*
X126399766Y-76857995D01*
X126526141Y-76882529D01*
X126665338Y-76909738D01*
X126814314Y-76939039D01*
X126866249Y-76949302D01*
X127043953Y-76984770D01*
X127192860Y-77015147D01*
X127314905Y-77040872D01*
X127412024Y-77062383D01*
X127486153Y-77080121D01*
X127539228Y-77094524D01*
X127573184Y-77106032D01*
X127589958Y-77115085D01*
X127607641Y-77133416D01*
X127646653Y-77179930D01*
X127699173Y-77246883D01*
X127762666Y-77330801D01*
X127834602Y-77428210D01*
X127912446Y-77535636D01*
X127993667Y-77649605D01*
X128075732Y-77766645D01*
X128156108Y-77883281D01*
X128232262Y-77996039D01*
X128260369Y-78038291D01*
X128490666Y-78395361D01*
X128716624Y-78764639D01*
X128935600Y-79141227D01*
X129144952Y-79520231D01*
X129342039Y-79896756D01*
X129524217Y-80265906D01*
X129688846Y-80622785D01*
X129833284Y-80962500D01*
X129860843Y-81032282D01*
X129900134Y-81136404D01*
X129941191Y-81249540D01*
X129982144Y-81366167D01*
X130021120Y-81480759D01*
X130056247Y-81587791D01*
X130085655Y-81681739D01*
X130107471Y-81757079D01*
X130119824Y-81808286D01*
X130122016Y-81819000D01*
X130132239Y-81853474D01*
X130141924Y-81867375D01*
X130153000Y-81859612D01*
X130182737Y-81830953D01*
X130227331Y-81784506D01*
X130283628Y-81723779D01*
X130348477Y-81652286D01*
X130418726Y-81573535D01*
X130491221Y-81491039D01*
X130562812Y-81408309D01*
X130630345Y-81328854D01*
X130690669Y-81256187D01*
X130715306Y-81225876D01*
X130913381Y-80968449D01*
X131099219Y-80700596D01*
X131277517Y-80415226D01*
X131452970Y-80105250D01*
X131488267Y-80040736D01*
X131519891Y-79984369D01*
X131543426Y-79943988D01*
X131555441Y-79925604D01*
X131565779Y-79933569D01*
X131588836Y-79965338D01*
X131621810Y-80017034D01*
X131662081Y-80084537D01*
X131707025Y-80163729D01*
X131767382Y-80271276D01*
X131897610Y-80493515D01*
X132025018Y-80696039D01*
X132154451Y-80886091D01*
X132290751Y-81070913D01*
X132438764Y-81257745D01*
X132487094Y-81316119D01*
X132553278Y-81394277D01*
X132624154Y-81476419D01*
X132696561Y-81559027D01*
X132767340Y-81638581D01*
X132833331Y-81711562D01*
X132891372Y-81774451D01*
X132938304Y-81823729D01*
X132970968Y-81855877D01*
X132986202Y-81867375D01*
X132988383Y-81866394D01*
X132998588Y-81846252D01*
X133008302Y-81808286D01*
X133016770Y-81771725D01*
X133036494Y-81701652D01*
X133064257Y-81611651D01*
X133098187Y-81507244D01*
X133136413Y-81393957D01*
X133177064Y-81277315D01*
X133218266Y-81162841D01*
X133258150Y-81056061D01*
X133294842Y-80962500D01*
X133440381Y-80620151D01*
X133607986Y-80256989D01*
X133793479Y-79881713D01*
X133994236Y-79499183D01*
X134207633Y-79114259D01*
X134431049Y-78731801D01*
X134661859Y-78356668D01*
X134897440Y-77993720D01*
X134947304Y-77919605D01*
X135026625Y-77803771D01*
X135108470Y-77686414D01*
X135190300Y-77571011D01*
X135269578Y-77461043D01*
X135343766Y-77359986D01*
X135410325Y-77271321D01*
X135466720Y-77198525D01*
X135510411Y-77145078D01*
X135538862Y-77114458D01*
X135544495Y-77110536D01*
X135567671Y-77100598D01*
X135607581Y-77088283D01*
X135666299Y-77073119D01*
X135745895Y-77054634D01*
X135848441Y-77032358D01*
X135976011Y-77005820D01*
X136130675Y-76974548D01*
X136314505Y-76938071D01*
X136317057Y-76937568D01*
X136465825Y-76908348D01*
X136604761Y-76881242D01*
X136730821Y-76856829D01*
X136840960Y-76835692D01*
X136932135Y-76818411D01*
X137001300Y-76805567D01*
X137045411Y-76797742D01*
X137061424Y-76795515D01*
X137061446Y-76795630D01*
G37*
X137061446Y-76795630D02*
X137057688Y-76813055D01*
X137046911Y-76857862D01*
X137029913Y-76926902D01*
X137007493Y-77017026D01*
X136980449Y-77125087D01*
X136949581Y-77247934D01*
X136915687Y-77382420D01*
X136879565Y-77525396D01*
X136842015Y-77673713D01*
X136803835Y-77824223D01*
X136765823Y-77973777D01*
X136728779Y-78119226D01*
X136693500Y-78257422D01*
X136660787Y-78385216D01*
X136631436Y-78499459D01*
X136606248Y-78597003D01*
X136586020Y-78674700D01*
X136571552Y-78729399D01*
X136563641Y-78757954D01*
X136563353Y-78760936D01*
X136571367Y-78774700D01*
X136595183Y-78795223D01*
X136637259Y-78824115D01*
X136700048Y-78862989D01*
X136786008Y-78913456D01*
X136897593Y-78977128D01*
X136970651Y-79018720D01*
X137057423Y-79068909D01*
X137131419Y-79112612D01*
X137188903Y-79147584D01*
X137226134Y-79171580D01*
X137239375Y-79182355D01*
X137231897Y-79188392D01*
X137199837Y-79210805D01*
X137144021Y-79248664D01*
X137066069Y-79300898D01*
X136967606Y-79366436D01*
X136850252Y-79444206D01*
X136715629Y-79533138D01*
X136565362Y-79632159D01*
X136401070Y-79740199D01*
X136224378Y-79856186D01*
X136036906Y-79979050D01*
X135840278Y-80107718D01*
X135636115Y-80241119D01*
X135481625Y-80342070D01*
X135282954Y-80472129D01*
X135093041Y-80596723D01*
X134913511Y-80714773D01*
X134745985Y-80825204D01*
X134592087Y-80926938D01*
X134453441Y-81018898D01*
X134331669Y-81100007D01*
X134228395Y-81169187D01*
X134145242Y-81225362D01*
X134083833Y-81267454D01*
X134045791Y-81294386D01*
X134032740Y-81305082D01*
X134033161Y-81307584D01*
X134040483Y-81334438D01*
X134056123Y-81387202D01*
X134079054Y-81462542D01*
X134108248Y-81557122D01*
X134142676Y-81667605D01*
X134181311Y-81790655D01*
X134223125Y-81922937D01*
X134236120Y-81963942D01*
X134277054Y-82093532D01*
X134314507Y-82212719D01*
X134347452Y-82318194D01*
X134374863Y-82406650D01*
X134395714Y-82474779D01*
X134408976Y-82519273D01*
X134413625Y-82536824D01*
X134404955Y-82545235D01*
X134376213Y-82550000D01*
X134359635Y-82548587D01*
X134313089Y-82543623D01*
X134239379Y-82535348D01*
X134140836Y-82524035D01*
X134019789Y-82509960D01*
X133878569Y-82493393D01*
X133719506Y-82474610D01*
X133544931Y-82453884D01*
X133357173Y-82431488D01*
X133158563Y-82407696D01*
X132951432Y-82382780D01*
X131564063Y-82215561D01*
X130147669Y-82385875D01*
X130146258Y-82386045D01*
X129937746Y-82410990D01*
X129738281Y-82434606D01*
X129550108Y-82456643D01*
X129375476Y-82476848D01*
X129216630Y-82494970D01*
X129075819Y-82510756D01*
X128955289Y-82523954D01*
X128857286Y-82534313D01*
X128784059Y-82541581D01*
X128737854Y-82545505D01*
X128720918Y-82545834D01*
X128720700Y-82543125D01*
X128726305Y-82516280D01*
X128740334Y-82463635D01*
X128761824Y-82388450D01*
X128789815Y-82293990D01*
X128823344Y-82183517D01*
X128861450Y-82060294D01*
X128903170Y-81927583D01*
X128917948Y-81880893D01*
X128958988Y-81750684D01*
X128996500Y-81630888D01*
X129029464Y-81524810D01*
X129056860Y-81435758D01*
X129077671Y-81367036D01*
X129090875Y-81321952D01*
X129095455Y-81303812D01*
X129087991Y-81297431D01*
X129055942Y-81274568D01*
X129000125Y-81236277D01*
X128922166Y-81183631D01*
X128823686Y-81117708D01*
X128706309Y-81039583D01*
X128571660Y-80950330D01*
X128421361Y-80851027D01*
X128257035Y-80742748D01*
X128080307Y-80626570D01*
X127892800Y-80503568D01*
X127696137Y-80374816D01*
X127491941Y-80241393D01*
X127337197Y-80140321D01*
X127138568Y-80010414D01*
X126948699Y-79886044D01*
X126769213Y-79768283D01*
X126601731Y-79658203D01*
X126447876Y-79556874D01*
X126309272Y-79465368D01*
X126187540Y-79384758D01*
X126084302Y-79316113D01*
X126001182Y-79260507D01*
X125939802Y-79219009D01*
X125901784Y-79192693D01*
X125888750Y-79182629D01*
X125896660Y-79175545D01*
X125928676Y-79154336D01*
X125981811Y-79121643D01*
X126052324Y-79079711D01*
X126136478Y-79030790D01*
X126230533Y-78977128D01*
X126265975Y-78957039D01*
X126369809Y-78897397D01*
X126448735Y-78850489D01*
X126505211Y-78814702D01*
X126541690Y-78788425D01*
X126560630Y-78770046D01*
X126564485Y-78757954D01*
X126564122Y-78756739D01*
X126555716Y-78726178D01*
X126540809Y-78669706D01*
X126520199Y-78590469D01*
X126494687Y-78491618D01*
X126465069Y-78376299D01*
X126432145Y-78247662D01*
X126396714Y-78108854D01*
X126359574Y-77963025D01*
X126321525Y-77813321D01*
X126283364Y-77662892D01*
X126245891Y-77514886D01*
X126209904Y-77372451D01*
X126176201Y-77238736D01*
X126145583Y-77116888D01*
X126118847Y-77010056D01*
X126096792Y-76921389D01*
X126080217Y-76854034D01*
X126069921Y-76811140D01*
X126066702Y-76795856D01*
X126066728Y-76795843D01*
X126083348Y-76798262D01*
X126128005Y-76806269D01*
X126197655Y-76819282D01*
X126289257Y-76836718D01*
X126399766Y-76857995D01*
X126526141Y-76882529D01*
X126665338Y-76909738D01*
X126814314Y-76939039D01*
X126866249Y-76949302D01*
X127043953Y-76984770D01*
X127192860Y-77015147D01*
X127314905Y-77040872D01*
X127412024Y-77062383D01*
X127486153Y-77080121D01*
X127539228Y-77094524D01*
X127573184Y-77106032D01*
X127589958Y-77115085D01*
X127607641Y-77133416D01*
X127646653Y-77179930D01*
X127699173Y-77246883D01*
X127762666Y-77330801D01*
X127834602Y-77428210D01*
X127912446Y-77535636D01*
X127993667Y-77649605D01*
X128075732Y-77766645D01*
X128156108Y-77883281D01*
X128232262Y-77996039D01*
X128260369Y-78038291D01*
X128490666Y-78395361D01*
X128716624Y-78764639D01*
X128935600Y-79141227D01*
X129144952Y-79520231D01*
X129342039Y-79896756D01*
X129524217Y-80265906D01*
X129688846Y-80622785D01*
X129833284Y-80962500D01*
X129860843Y-81032282D01*
X129900134Y-81136404D01*
X129941191Y-81249540D01*
X129982144Y-81366167D01*
X130021120Y-81480759D01*
X130056247Y-81587791D01*
X130085655Y-81681739D01*
X130107471Y-81757079D01*
X130119824Y-81808286D01*
X130122016Y-81819000D01*
X130132239Y-81853474D01*
X130141924Y-81867375D01*
X130153000Y-81859612D01*
X130182737Y-81830953D01*
X130227331Y-81784506D01*
X130283628Y-81723779D01*
X130348477Y-81652286D01*
X130418726Y-81573535D01*
X130491221Y-81491039D01*
X130562812Y-81408309D01*
X130630345Y-81328854D01*
X130690669Y-81256187D01*
X130715306Y-81225876D01*
X130913381Y-80968449D01*
X131099219Y-80700596D01*
X131277517Y-80415226D01*
X131452970Y-80105250D01*
X131488267Y-80040736D01*
X131519891Y-79984369D01*
X131543426Y-79943988D01*
X131555441Y-79925604D01*
X131565779Y-79933569D01*
X131588836Y-79965338D01*
X131621810Y-80017034D01*
X131662081Y-80084537D01*
X131707025Y-80163729D01*
X131767382Y-80271276D01*
X131897610Y-80493515D01*
X132025018Y-80696039D01*
X132154451Y-80886091D01*
X132290751Y-81070913D01*
X132438764Y-81257745D01*
X132487094Y-81316119D01*
X132553278Y-81394277D01*
X132624154Y-81476419D01*
X132696561Y-81559027D01*
X132767340Y-81638581D01*
X132833331Y-81711562D01*
X132891372Y-81774451D01*
X132938304Y-81823729D01*
X132970968Y-81855877D01*
X132986202Y-81867375D01*
X132988383Y-81866394D01*
X132998588Y-81846252D01*
X133008302Y-81808286D01*
X133016770Y-81771725D01*
X133036494Y-81701652D01*
X133064257Y-81611651D01*
X133098187Y-81507244D01*
X133136413Y-81393957D01*
X133177064Y-81277315D01*
X133218266Y-81162841D01*
X133258150Y-81056061D01*
X133294842Y-80962500D01*
X133440381Y-80620151D01*
X133607986Y-80256989D01*
X133793479Y-79881713D01*
X133994236Y-79499183D01*
X134207633Y-79114259D01*
X134431049Y-78731801D01*
X134661859Y-78356668D01*
X134897440Y-77993720D01*
X134947304Y-77919605D01*
X135026625Y-77803771D01*
X135108470Y-77686414D01*
X135190300Y-77571011D01*
X135269578Y-77461043D01*
X135343766Y-77359986D01*
X135410325Y-77271321D01*
X135466720Y-77198525D01*
X135510411Y-77145078D01*
X135538862Y-77114458D01*
X135544495Y-77110536D01*
X135567671Y-77100598D01*
X135607581Y-77088283D01*
X135666299Y-77073119D01*
X135745895Y-77054634D01*
X135848441Y-77032358D01*
X135976011Y-77005820D01*
X136130675Y-76974548D01*
X136314505Y-76938071D01*
X136317057Y-76937568D01*
X136465825Y-76908348D01*
X136604761Y-76881242D01*
X136730821Y-76856829D01*
X136840960Y-76835692D01*
X136932135Y-76818411D01*
X137001300Y-76805567D01*
X137045411Y-76797742D01*
X137061424Y-76795515D01*
X137061446Y-76795630D01*
X131553947Y-72928595D02*
X131529763Y-72967750D01*
X131529763Y-72967750D02*
X131492766Y-73030313D01*
X131492766Y-73030313D02*
X131444212Y-73114084D01*
X131444212Y-73114084D02*
X131385355Y-73216862D01*
X131385355Y-73216862D02*
X131317451Y-73336448D01*
X131317451Y-73336448D02*
X131241755Y-73470642D01*
X131241755Y-73470642D02*
X131159521Y-73617243D01*
X131159521Y-73617243D02*
X131072005Y-73774052D01*
X131072005Y-73774052D02*
X130996106Y-73910647D01*
X130996106Y-73910647D02*
X130905034Y-74074835D01*
X130905034Y-74074835D02*
X130818281Y-74231165D01*
X130818281Y-74231165D02*
X130737102Y-74377377D01*
X130737102Y-74377377D02*
X130662755Y-74511213D01*
X130662755Y-74511213D02*
X130596495Y-74630414D01*
X130596495Y-74630414D02*
X130539578Y-74732720D01*
X130539578Y-74732720D02*
X130493260Y-74815873D01*
X130493260Y-74815873D02*
X130458798Y-74877614D01*
X130458798Y-74877614D02*
X130437446Y-74915684D01*
X130437446Y-74915684D02*
X130430615Y-74927636D01*
X130430615Y-74927636D02*
X130420979Y-74930838D01*
X130420979Y-74930838D02*
X130398503Y-74927073D01*
X130398503Y-74927073D02*
X130360855Y-74915440D01*
X130360855Y-74915440D02*
X130305702Y-74895040D01*
X130305702Y-74895040D02*
X130230713Y-74864973D01*
X130230713Y-74864973D02*
X130133556Y-74824338D01*
X130133556Y-74824338D02*
X130011900Y-74772235D01*
X130011900Y-74772235D02*
X129882091Y-74715908D01*
X129882091Y-74715908D02*
X129760166Y-74663153D01*
X129760166Y-74663153D02*
X129647464Y-74615107D01*
X129647464Y-74615107D02*
X129547266Y-74573114D01*
X129547266Y-74573114D02*
X129462856Y-74538519D01*
X129462856Y-74538519D02*
X129397516Y-74512666D01*
X129397516Y-74512666D02*
X129354527Y-74496901D01*
X129354527Y-74496901D02*
X129337173Y-74492567D01*
X129337173Y-74492567D02*
X129337061Y-74492647D01*
X129337061Y-74492647D02*
X129337105Y-74509542D01*
X129337105Y-74509542D02*
X129340037Y-74555818D01*
X129340037Y-74555818D02*
X129345661Y-74629252D01*
X129345661Y-74629252D02*
X129353779Y-74727627D01*
X129353779Y-74727627D02*
X129364196Y-74848721D01*
X129364196Y-74848721D02*
X129376714Y-74990315D01*
X129376714Y-74990315D02*
X129391137Y-75150188D01*
X129391137Y-75150188D02*
X129407268Y-75326121D01*
X129407268Y-75326121D02*
X129424911Y-75515894D01*
X129424911Y-75515894D02*
X129443869Y-75717286D01*
X129443869Y-75717286D02*
X129463945Y-75928077D01*
X129463945Y-75928077D02*
X129467306Y-75963132D01*
X129467306Y-75963132D02*
X129487576Y-76175162D01*
X129487576Y-76175162D02*
X129506826Y-76378092D01*
X129506826Y-76378092D02*
X129524855Y-76569710D01*
X129524855Y-76569710D02*
X129541462Y-76747800D01*
X129541462Y-76747800D02*
X129556445Y-76910150D01*
X129556445Y-76910150D02*
X129569602Y-77054546D01*
X129569602Y-77054546D02*
X129580732Y-77178774D01*
X129580732Y-77178774D02*
X129589634Y-77280621D01*
X129589634Y-77280621D02*
X129596106Y-77357874D01*
X129596106Y-77357874D02*
X129599947Y-77408317D01*
X129599947Y-77408317D02*
X129600955Y-77429739D01*
X129600955Y-77429739D02*
X129600835Y-77430331D01*
X129600835Y-77430331D02*
X129588108Y-77421301D01*
X129588108Y-77421301D02*
X129553807Y-77392959D01*
X129553807Y-77392959D02*
X129500041Y-77347142D01*
X129500041Y-77347142D02*
X129428917Y-77285686D01*
X129428917Y-77285686D02*
X129342545Y-77210427D01*
X129342545Y-77210427D02*
X129243033Y-77123200D01*
X129243033Y-77123200D02*
X129132488Y-77025843D01*
X129132488Y-77025843D02*
X129013020Y-76920190D01*
X129013020Y-76920190D02*
X128907361Y-76826418D01*
X128907361Y-76826418D02*
X128781785Y-76714987D01*
X128781785Y-76714987D02*
X128663180Y-76610117D01*
X128663180Y-76610117D02*
X128553678Y-76513671D01*
X128553678Y-76513671D02*
X128455417Y-76427510D01*
X128455417Y-76427510D02*
X128370529Y-76353498D01*
X128370529Y-76353498D02*
X128301151Y-76293497D01*
X128301151Y-76293497D02*
X128249418Y-76249369D01*
X128249418Y-76249369D02*
X128217463Y-76222977D01*
X128217463Y-76222977D02*
X128207492Y-76215875D01*
X128207492Y-76215875D02*
X128202645Y-76219429D01*
X128202645Y-76219429D02*
X128195198Y-76231851D01*
X128195198Y-76231851D02*
X128184118Y-76255781D01*
X128184118Y-76255781D02*
X128168373Y-76293857D01*
X128168373Y-76293857D02*
X128146931Y-76348720D01*
X128146931Y-76348720D02*
X128118758Y-76423007D01*
X128118758Y-76423007D02*
X128082822Y-76519358D01*
X128082822Y-76519358D02*
X128038091Y-76640413D01*
X128038091Y-76640413D02*
X127986439Y-76780892D01*
X127986439Y-76780892D02*
X127939278Y-76909346D01*
X127939278Y-76909346D02*
X128074557Y-77065407D01*
X128074557Y-77065407D02*
X128249096Y-77271868D01*
X128249096Y-77271868D02*
X128432164Y-77497916D01*
X128432164Y-77497916D02*
X128621195Y-77739877D01*
X128621195Y-77739877D02*
X128813621Y-77994079D01*
X128813621Y-77994079D02*
X129006873Y-78256849D01*
X129006873Y-78256849D02*
X129198384Y-78524514D01*
X129198384Y-78524514D02*
X129385585Y-78793401D01*
X129385585Y-78793401D02*
X129565910Y-79059838D01*
X129565910Y-79059838D02*
X129736790Y-79320151D01*
X129736790Y-79320151D02*
X129895656Y-79570667D01*
X129895656Y-79570667D02*
X130039942Y-79807715D01*
X130039942Y-79807715D02*
X130167080Y-80027620D01*
X130167080Y-80027620D02*
X130243875Y-80168214D01*
X130243875Y-80168214D02*
X130330087Y-80330607D01*
X130330087Y-80330607D02*
X130382455Y-80254493D01*
X130382455Y-80254493D02*
X130482285Y-80098541D01*
X130482285Y-80098541D02*
X130585728Y-79916787D01*
X130585728Y-79916787D02*
X130690299Y-79714588D01*
X130690299Y-79714588D02*
X130793508Y-79497299D01*
X130793508Y-79497299D02*
X130892868Y-79270279D01*
X130892868Y-79270279D02*
X130985891Y-79038882D01*
X130985891Y-79038882D02*
X131070091Y-78808465D01*
X131070091Y-78808465D02*
X131111627Y-78684437D01*
X131111627Y-78684437D02*
X131186527Y-78440266D01*
X131186527Y-78440266D02*
X131261497Y-78172029D01*
X131261497Y-78172029D02*
X131334649Y-77887349D01*
X131334649Y-77887349D02*
X131404090Y-77593849D01*
X131404090Y-77593849D02*
X131467933Y-77299152D01*
X131467933Y-77299152D02*
X131517602Y-77046917D01*
X131517602Y-77046917D02*
X131562581Y-76806397D01*
X131562581Y-76806397D02*
X131644308Y-77213604D01*
X131644308Y-77213604D02*
X131734624Y-77637659D01*
X131734624Y-77637659D02*
X131829766Y-78032629D01*
X131829766Y-78032629D02*
X131930590Y-78400932D01*
X131930590Y-78400932D02*
X132037953Y-78744986D01*
X132037953Y-78744986D02*
X132152710Y-79067205D01*
X132152710Y-79067205D02*
X132275717Y-79370009D01*
X132275717Y-79370009D02*
X132407829Y-79655812D01*
X132407829Y-79655812D02*
X132549904Y-79927033D01*
X132549904Y-79927033D02*
X132689200Y-80164226D01*
X132689200Y-80164226D02*
X132727127Y-80224487D01*
X132727127Y-80224487D02*
X132759547Y-80274107D01*
X132759547Y-80274107D02*
X132782530Y-80307186D01*
X132782530Y-80307186D02*
X132791452Y-80317755D01*
X132791452Y-80317755D02*
X132803235Y-80307831D01*
X132803235Y-80307831D02*
X132825170Y-80275211D01*
X132825170Y-80275211D02*
X132853523Y-80225753D01*
X132853523Y-80225753D02*
X132870118Y-80194247D01*
X132870118Y-80194247D02*
X132962388Y-80022322D01*
X132962388Y-80022322D02*
X133073311Y-79829732D01*
X133073311Y-79829732D02*
X133200633Y-79619706D01*
X133200633Y-79619706D02*
X133342100Y-79395475D01*
X133342100Y-79395475D02*
X133495458Y-79160267D01*
X133495458Y-79160267D02*
X133658453Y-78917313D01*
X133658453Y-78917313D02*
X133828832Y-78669842D01*
X133828832Y-78669842D02*
X134004340Y-78421085D01*
X134004340Y-78421085D02*
X134182723Y-78174270D01*
X134182723Y-78174270D02*
X134361728Y-77932629D01*
X134361728Y-77932629D02*
X134539101Y-77699390D01*
X134539101Y-77699390D02*
X134712588Y-77477783D01*
X134712588Y-77477783D02*
X134879935Y-77271038D01*
X134879935Y-77271038D02*
X135038888Y-77082385D01*
X135038888Y-77082385D02*
X135053569Y-77065407D01*
X135053569Y-77065407D02*
X135188848Y-76909346D01*
X135188848Y-76909346D02*
X135141687Y-76780892D01*
X135141687Y-76780892D02*
X135087625Y-76633871D01*
X135087625Y-76633871D02*
X135043344Y-76514065D01*
X135043344Y-76514065D02*
X135007810Y-76418836D01*
X135007810Y-76418836D02*
X134979995Y-76345548D01*
X134979995Y-76345548D02*
X134958866Y-76291561D01*
X134958866Y-76291561D02*
X134943392Y-76254239D01*
X134943392Y-76254239D02*
X134932543Y-76230944D01*
X134932543Y-76230944D02*
X134925287Y-76219038D01*
X134925287Y-76219038D02*
X134920803Y-76215875D01*
X134920803Y-76215875D02*
X134906909Y-76226131D01*
X134906909Y-76226131D02*
X134871456Y-76255660D01*
X134871456Y-76255660D02*
X134816578Y-76302599D01*
X134816578Y-76302599D02*
X134744410Y-76365088D01*
X134744410Y-76365088D02*
X134657087Y-76441265D01*
X134657087Y-76441265D02*
X134556743Y-76529269D01*
X134556743Y-76529269D02*
X134445514Y-76627237D01*
X134445514Y-76627237D02*
X134325535Y-76733310D01*
X134325535Y-76733310D02*
X134220757Y-76826241D01*
X134220757Y-76826241D02*
X134095375Y-76937402D01*
X134095375Y-76937402D02*
X133977153Y-77041819D01*
X133977153Y-77041819D02*
X133868202Y-77137656D01*
X133868202Y-77137656D02*
X133770628Y-77223076D01*
X133770628Y-77223076D02*
X133686541Y-77296245D01*
X133686541Y-77296245D02*
X133618049Y-77355327D01*
X133618049Y-77355327D02*
X133567260Y-77398486D01*
X133567260Y-77398486D02*
X133536283Y-77423886D01*
X133536283Y-77423886D02*
X133527114Y-77430155D01*
X133527114Y-77430155D02*
X133527660Y-77413769D01*
X133527660Y-77413769D02*
X133531071Y-77367996D01*
X133531071Y-77367996D02*
X133537145Y-77295047D01*
X133537145Y-77295047D02*
X133545681Y-77197136D01*
X133545681Y-77197136D02*
X133556476Y-77076477D01*
X133556476Y-77076477D02*
X133569329Y-76935282D01*
X133569329Y-76935282D02*
X133584039Y-76775765D01*
X133584039Y-76775765D02*
X133600403Y-76600140D01*
X133600403Y-76600140D02*
X133618220Y-76410619D01*
X133618220Y-76410619D02*
X133637288Y-76209415D01*
X133637288Y-76209415D02*
X133639752Y-76183605D01*
X133639752Y-76183605D02*
X132140899Y-76183605D01*
X132140899Y-76183605D02*
X132135099Y-76185298D01*
X132135099Y-76185298D02*
X132111772Y-76168119D01*
X132111772Y-76168119D02*
X132075774Y-76135710D01*
X132075774Y-76135710D02*
X132071116Y-76131243D01*
X132071116Y-76131243D02*
X132014957Y-76084494D01*
X132014957Y-76084494D02*
X131945172Y-76036576D01*
X131945172Y-76036576D02*
X131881563Y-76000351D01*
X131881563Y-76000351D02*
X131739873Y-75946549D01*
X131739873Y-75946549D02*
X131596042Y-75923577D01*
X131596042Y-75923577D02*
X131453209Y-75930959D01*
X131453209Y-75930959D02*
X131314512Y-75968218D01*
X131314512Y-75968218D02*
X131183092Y-76034876D01*
X131183092Y-76034876D02*
X131069094Y-76123823D01*
X131069094Y-76123823D02*
X131028467Y-76160018D01*
X131028467Y-76160018D02*
X130999627Y-76182157D01*
X130999627Y-76182157D02*
X130987335Y-76186718D01*
X130987335Y-76186718D02*
X130987588Y-76184125D01*
X130987588Y-76184125D02*
X130993712Y-76165031D01*
X130993712Y-76165031D02*
X131008426Y-76118343D01*
X131008426Y-76118343D02*
X131030880Y-76046780D01*
X131030880Y-76046780D02*
X131060224Y-75953061D01*
X131060224Y-75953061D02*
X131095608Y-75839904D01*
X131095608Y-75839904D02*
X131136181Y-75710030D01*
X131136181Y-75710030D02*
X131181093Y-75566157D01*
X131181093Y-75566157D02*
X131229494Y-75411004D01*
X131229494Y-75411004D02*
X131277995Y-75255437D01*
X131277995Y-75255437D02*
X131328712Y-75092805D01*
X131328712Y-75092805D02*
X131376595Y-74939439D01*
X131376595Y-74939439D02*
X131420816Y-74797979D01*
X131420816Y-74797979D02*
X131460547Y-74671066D01*
X131460547Y-74671066D02*
X131494960Y-74561338D01*
X131494960Y-74561338D02*
X131523228Y-74471436D01*
X131523228Y-74471436D02*
X131544522Y-74404000D01*
X131544522Y-74404000D02*
X131558014Y-74361670D01*
X131558014Y-74361670D02*
X131562866Y-74347092D01*
X131562866Y-74347092D02*
X131567963Y-74361180D01*
X131567963Y-74361180D02*
X131581662Y-74402978D01*
X131581662Y-74402978D02*
X131603136Y-74469878D01*
X131603136Y-74469878D02*
X131631562Y-74559271D01*
X131631562Y-74559271D02*
X131666115Y-74668548D01*
X131666115Y-74668548D02*
X131705969Y-74795101D01*
X131705969Y-74795101D02*
X131750301Y-74936321D01*
X131750301Y-74936321D02*
X131798285Y-75089601D01*
X131798285Y-75089601D02*
X131848983Y-75251967D01*
X131848983Y-75251967D02*
X131900042Y-75415622D01*
X131900042Y-75415622D02*
X131948429Y-75570572D01*
X131948429Y-75570572D02*
X131993293Y-75714105D01*
X131993293Y-75714105D02*
X132033787Y-75843512D01*
X132033787Y-75843512D02*
X132069059Y-75956078D01*
X132069059Y-75956078D02*
X132098260Y-76049094D01*
X132098260Y-76049094D02*
X132120541Y-76119848D01*
X132120541Y-76119848D02*
X132135052Y-76165628D01*
X132135052Y-76165628D02*
X132140899Y-76183605D01*
X132140899Y-76183605D02*
X133639752Y-76183605D01*
X133639752Y-76183605D02*
X133657405Y-75998743D01*
X133657405Y-75998743D02*
X133660820Y-75963132D01*
X133660820Y-75963132D02*
X133681059Y-75751017D01*
X133681059Y-75751017D02*
X133700208Y-75547937D01*
X133700208Y-75547937D02*
X133718071Y-75356113D01*
X133718071Y-75356113D02*
X133734452Y-75177765D01*
X133734452Y-75177765D02*
X133749155Y-75015113D01*
X133749155Y-75015113D02*
X133761982Y-74870378D01*
X133761982Y-74870378D02*
X133772739Y-74745779D01*
X133772739Y-74745779D02*
X133781227Y-74643538D01*
X133781227Y-74643538D02*
X133787251Y-74565875D01*
X133787251Y-74565875D02*
X133790615Y-74515009D01*
X133790615Y-74515009D02*
X133791121Y-74493161D01*
X133791121Y-74493161D02*
X133790920Y-74492502D01*
X133790920Y-74492502D02*
X133774581Y-74496323D01*
X133774581Y-74496323D02*
X133732487Y-74511615D01*
X133732487Y-74511615D02*
X133667930Y-74537034D01*
X133667930Y-74537034D02*
X133584205Y-74571234D01*
X133584205Y-74571234D02*
X133484604Y-74612870D01*
X133484604Y-74612870D02*
X133372420Y-74660596D01*
X133372420Y-74660596D02*
X133250946Y-74713066D01*
X133250946Y-74713066D02*
X133248435Y-74714159D01*
X133248435Y-74714159D02*
X133126933Y-74766975D01*
X133126933Y-74766975D02*
X133014879Y-74815563D01*
X133014879Y-74815563D02*
X132915537Y-74858518D01*
X132915537Y-74858518D02*
X132832172Y-74894433D01*
X132832172Y-74894433D02*
X132768048Y-74921901D01*
X132768048Y-74921901D02*
X132726431Y-74939516D01*
X132726431Y-74939516D02*
X132710584Y-74945872D01*
X132710584Y-74945872D02*
X132710552Y-74945874D01*
X132710552Y-74945874D02*
X132702168Y-74932344D01*
X132702168Y-74932344D02*
X132679639Y-74893202D01*
X132679639Y-74893202D02*
X132644184Y-74830625D01*
X132644184Y-74830625D02*
X132597018Y-74746789D01*
X132597018Y-74746789D02*
X132539360Y-74643869D01*
X132539360Y-74643869D02*
X132472426Y-74524041D01*
X132472426Y-74524041D02*
X132397433Y-74389480D01*
X132397433Y-74389480D02*
X132315598Y-74242363D01*
X132315598Y-74242363D02*
X132228139Y-74084865D01*
X132228139Y-74084865D02*
X132142516Y-73930431D01*
X132142516Y-73930431D02*
X132050724Y-73765131D01*
X132050724Y-73765131D02*
X131963163Y-73608192D01*
X131963163Y-73608192D02*
X131881073Y-73461793D01*
X131881073Y-73461793D02*
X131805696Y-73328112D01*
X131805696Y-73328112D02*
X131738274Y-73209328D01*
X131738274Y-73209328D02*
X131680046Y-73107620D01*
X131680046Y-73107620D02*
X131632255Y-73025167D01*
X131632255Y-73025167D02*
X131596142Y-72964146D01*
X131596142Y-72964146D02*
X131572948Y-72926738D01*
X131572948Y-72926738D02*
X131564063Y-72915048D01*
X131564063Y-72915048D02*
X131553947Y-72928595D01*
X131553947Y-72928595D02*
X131553947Y-72928595D01*
G36*
X133618220Y-76410619D02*
G01*
X133600403Y-76600140D01*
X133584039Y-76775765D01*
X133569329Y-76935282D01*
X133556476Y-77076477D01*
X133545681Y-77197136D01*
X133537145Y-77295047D01*
X133531071Y-77367996D01*
X133527660Y-77413769D01*
X133527114Y-77430155D01*
X133536283Y-77423886D01*
X133567260Y-77398486D01*
X133618049Y-77355327D01*
X133686541Y-77296245D01*
X133770628Y-77223076D01*
X133868202Y-77137656D01*
X133977153Y-77041819D01*
X134095375Y-76937402D01*
X134220757Y-76826241D01*
X134325535Y-76733310D01*
X134445514Y-76627237D01*
X134556743Y-76529269D01*
X134657087Y-76441265D01*
X134744410Y-76365088D01*
X134816578Y-76302599D01*
X134871456Y-76255660D01*
X134906909Y-76226131D01*
X134920803Y-76215875D01*
X134925287Y-76219038D01*
X134932543Y-76230944D01*
X134943392Y-76254239D01*
X134958866Y-76291561D01*
X134979995Y-76345548D01*
X135007810Y-76418836D01*
X135043344Y-76514065D01*
X135087625Y-76633871D01*
X135141687Y-76780892D01*
X135188848Y-76909346D01*
X135053569Y-77065407D01*
X135038888Y-77082385D01*
X134879935Y-77271038D01*
X134712588Y-77477783D01*
X134539101Y-77699390D01*
X134361728Y-77932629D01*
X134182723Y-78174270D01*
X134004340Y-78421085D01*
X133828832Y-78669842D01*
X133658453Y-78917313D01*
X133495458Y-79160267D01*
X133342100Y-79395475D01*
X133200633Y-79619706D01*
X133073311Y-79829732D01*
X132962388Y-80022322D01*
X132870118Y-80194247D01*
X132853523Y-80225753D01*
X132825170Y-80275211D01*
X132803235Y-80307831D01*
X132791452Y-80317755D01*
X132782530Y-80307186D01*
X132759547Y-80274107D01*
X132727127Y-80224487D01*
X132689200Y-80164226D01*
X132549904Y-79927033D01*
X132407829Y-79655812D01*
X132275717Y-79370009D01*
X132152710Y-79067205D01*
X132037953Y-78744986D01*
X131930590Y-78400932D01*
X131829766Y-78032629D01*
X131734624Y-77637659D01*
X131644308Y-77213604D01*
X131562581Y-76806397D01*
X131517602Y-77046917D01*
X131467933Y-77299152D01*
X131404090Y-77593849D01*
X131334649Y-77887349D01*
X131261497Y-78172029D01*
X131186527Y-78440266D01*
X131111627Y-78684437D01*
X131070091Y-78808465D01*
X130985891Y-79038882D01*
X130892868Y-79270279D01*
X130793508Y-79497299D01*
X130690299Y-79714588D01*
X130585728Y-79916787D01*
X130482285Y-80098541D01*
X130382455Y-80254493D01*
X130330087Y-80330607D01*
X130243875Y-80168214D01*
X130167080Y-80027620D01*
X130039942Y-79807715D01*
X129895656Y-79570667D01*
X129736790Y-79320151D01*
X129565910Y-79059838D01*
X129385585Y-78793401D01*
X129198384Y-78524514D01*
X129006873Y-78256849D01*
X128813621Y-77994079D01*
X128621195Y-77739877D01*
X128432164Y-77497916D01*
X128249096Y-77271868D01*
X128074557Y-77065407D01*
X127939278Y-76909346D01*
X127986439Y-76780892D01*
X128038091Y-76640413D01*
X128082822Y-76519358D01*
X128118758Y-76423007D01*
X128146931Y-76348720D01*
X128168373Y-76293857D01*
X128184118Y-76255781D01*
X128195198Y-76231851D01*
X128202645Y-76219429D01*
X128207492Y-76215875D01*
X128217463Y-76222977D01*
X128249418Y-76249369D01*
X128301151Y-76293497D01*
X128370529Y-76353498D01*
X128455417Y-76427510D01*
X128553678Y-76513671D01*
X128663180Y-76610117D01*
X128781785Y-76714987D01*
X128907361Y-76826418D01*
X129013020Y-76920190D01*
X129132488Y-77025843D01*
X129243033Y-77123200D01*
X129342545Y-77210427D01*
X129428917Y-77285686D01*
X129500041Y-77347142D01*
X129553807Y-77392959D01*
X129588108Y-77421301D01*
X129600835Y-77430331D01*
X129600955Y-77429739D01*
X129599947Y-77408317D01*
X129596106Y-77357874D01*
X129589634Y-77280621D01*
X129580732Y-77178774D01*
X129569602Y-77054546D01*
X129556445Y-76910150D01*
X129541462Y-76747800D01*
X129524855Y-76569710D01*
X129506826Y-76378092D01*
X129488672Y-76186718D01*
X130987335Y-76186718D01*
X130999627Y-76182157D01*
X131028467Y-76160018D01*
X131069094Y-76123823D01*
X131183092Y-76034876D01*
X131314512Y-75968218D01*
X131453209Y-75930959D01*
X131596042Y-75923577D01*
X131739873Y-75946549D01*
X131881563Y-76000351D01*
X131945172Y-76036576D01*
X132014957Y-76084494D01*
X132071116Y-76131243D01*
X132075774Y-76135710D01*
X132111772Y-76168119D01*
X132135099Y-76185298D01*
X132140899Y-76183605D01*
X132135052Y-76165628D01*
X132120541Y-76119848D01*
X132098260Y-76049094D01*
X132069059Y-75956078D01*
X132033787Y-75843512D01*
X131993293Y-75714105D01*
X131948429Y-75570572D01*
X131900042Y-75415622D01*
X131848983Y-75251967D01*
X131798285Y-75089601D01*
X131750301Y-74936321D01*
X131705969Y-74795101D01*
X131666115Y-74668548D01*
X131631562Y-74559271D01*
X131603136Y-74469878D01*
X131581662Y-74402978D01*
X131567963Y-74361180D01*
X131562866Y-74347092D01*
X131558014Y-74361670D01*
X131544522Y-74404000D01*
X131523228Y-74471436D01*
X131494960Y-74561338D01*
X131460547Y-74671066D01*
X131420816Y-74797979D01*
X131376595Y-74939439D01*
X131328712Y-75092805D01*
X131277995Y-75255437D01*
X131229494Y-75411004D01*
X131181093Y-75566157D01*
X131136181Y-75710030D01*
X131095608Y-75839904D01*
X131060224Y-75953061D01*
X131030880Y-76046780D01*
X131008426Y-76118343D01*
X130993712Y-76165031D01*
X130987588Y-76184125D01*
X130987335Y-76186718D01*
X129488672Y-76186718D01*
X129487576Y-76175162D01*
X129467306Y-75963132D01*
X129463945Y-75928077D01*
X129443869Y-75717286D01*
X129424911Y-75515894D01*
X129407268Y-75326121D01*
X129391137Y-75150188D01*
X129376714Y-74990315D01*
X129364196Y-74848721D01*
X129353779Y-74727627D01*
X129345661Y-74629252D01*
X129340037Y-74555818D01*
X129337105Y-74509542D01*
X129337061Y-74492647D01*
X129337173Y-74492567D01*
X129354527Y-74496901D01*
X129397516Y-74512666D01*
X129462856Y-74538519D01*
X129547266Y-74573114D01*
X129647464Y-74615107D01*
X129760166Y-74663153D01*
X129882091Y-74715908D01*
X130011900Y-74772235D01*
X130133556Y-74824338D01*
X130230713Y-74864973D01*
X130305702Y-74895040D01*
X130360855Y-74915440D01*
X130398503Y-74927073D01*
X130420979Y-74930838D01*
X130430615Y-74927636D01*
X130437446Y-74915684D01*
X130458798Y-74877614D01*
X130493260Y-74815873D01*
X130539578Y-74732720D01*
X130596495Y-74630414D01*
X130662755Y-74511213D01*
X130737102Y-74377377D01*
X130818281Y-74231165D01*
X130905034Y-74074835D01*
X130996106Y-73910647D01*
X131072005Y-73774052D01*
X131159521Y-73617243D01*
X131241755Y-73470642D01*
X131317451Y-73336448D01*
X131385355Y-73216862D01*
X131444212Y-73114084D01*
X131492766Y-73030313D01*
X131529763Y-72967750D01*
X131553947Y-72928595D01*
X131564063Y-72915048D01*
X131572948Y-72926738D01*
X131596142Y-72964146D01*
X131632255Y-73025167D01*
X131680046Y-73107620D01*
X131738274Y-73209328D01*
X131805696Y-73328112D01*
X131881073Y-73461793D01*
X131963163Y-73608192D01*
X132050724Y-73765131D01*
X132142516Y-73930431D01*
X132228139Y-74084865D01*
X132315598Y-74242363D01*
X132397433Y-74389480D01*
X132472426Y-74524041D01*
X132539360Y-74643869D01*
X132597018Y-74746789D01*
X132644184Y-74830625D01*
X132679639Y-74893202D01*
X132702168Y-74932344D01*
X132710552Y-74945874D01*
X132710584Y-74945872D01*
X132726431Y-74939516D01*
X132768048Y-74921901D01*
X132832172Y-74894433D01*
X132915537Y-74858518D01*
X133014879Y-74815563D01*
X133126933Y-74766975D01*
X133248435Y-74714159D01*
X133250946Y-74713066D01*
X133372420Y-74660596D01*
X133484604Y-74612870D01*
X133584205Y-74571234D01*
X133667930Y-74537034D01*
X133732487Y-74511615D01*
X133774581Y-74496323D01*
X133790920Y-74492502D01*
X133791121Y-74493161D01*
X133790615Y-74515009D01*
X133787251Y-74565875D01*
X133781227Y-74643538D01*
X133772739Y-74745779D01*
X133761982Y-74870378D01*
X133749155Y-75015113D01*
X133734452Y-75177765D01*
X133718071Y-75356113D01*
X133700208Y-75547937D01*
X133681059Y-75751017D01*
X133660820Y-75963132D01*
X133657405Y-75998743D01*
X133639752Y-76183605D01*
X133637288Y-76209415D01*
X133618220Y-76410619D01*
G37*
X133618220Y-76410619D02*
X133600403Y-76600140D01*
X133584039Y-76775765D01*
X133569329Y-76935282D01*
X133556476Y-77076477D01*
X133545681Y-77197136D01*
X133537145Y-77295047D01*
X133531071Y-77367996D01*
X133527660Y-77413769D01*
X133527114Y-77430155D01*
X133536283Y-77423886D01*
X133567260Y-77398486D01*
X133618049Y-77355327D01*
X133686541Y-77296245D01*
X133770628Y-77223076D01*
X133868202Y-77137656D01*
X133977153Y-77041819D01*
X134095375Y-76937402D01*
X134220757Y-76826241D01*
X134325535Y-76733310D01*
X134445514Y-76627237D01*
X134556743Y-76529269D01*
X134657087Y-76441265D01*
X134744410Y-76365088D01*
X134816578Y-76302599D01*
X134871456Y-76255660D01*
X134906909Y-76226131D01*
X134920803Y-76215875D01*
X134925287Y-76219038D01*
X134932543Y-76230944D01*
X134943392Y-76254239D01*
X134958866Y-76291561D01*
X134979995Y-76345548D01*
X135007810Y-76418836D01*
X135043344Y-76514065D01*
X135087625Y-76633871D01*
X135141687Y-76780892D01*
X135188848Y-76909346D01*
X135053569Y-77065407D01*
X135038888Y-77082385D01*
X134879935Y-77271038D01*
X134712588Y-77477783D01*
X134539101Y-77699390D01*
X134361728Y-77932629D01*
X134182723Y-78174270D01*
X134004340Y-78421085D01*
X133828832Y-78669842D01*
X133658453Y-78917313D01*
X133495458Y-79160267D01*
X133342100Y-79395475D01*
X133200633Y-79619706D01*
X133073311Y-79829732D01*
X132962388Y-80022322D01*
X132870118Y-80194247D01*
X132853523Y-80225753D01*
X132825170Y-80275211D01*
X132803235Y-80307831D01*
X132791452Y-80317755D01*
X132782530Y-80307186D01*
X132759547Y-80274107D01*
X132727127Y-80224487D01*
X132689200Y-80164226D01*
X132549904Y-79927033D01*
X132407829Y-79655812D01*
X132275717Y-79370009D01*
X132152710Y-79067205D01*
X132037953Y-78744986D01*
X131930590Y-78400932D01*
X131829766Y-78032629D01*
X131734624Y-77637659D01*
X131644308Y-77213604D01*
X131562581Y-76806397D01*
X131517602Y-77046917D01*
X131467933Y-77299152D01*
X131404090Y-77593849D01*
X131334649Y-77887349D01*
X131261497Y-78172029D01*
X131186527Y-78440266D01*
X131111627Y-78684437D01*
X131070091Y-78808465D01*
X130985891Y-79038882D01*
X130892868Y-79270279D01*
X130793508Y-79497299D01*
X130690299Y-79714588D01*
X130585728Y-79916787D01*
X130482285Y-80098541D01*
X130382455Y-80254493D01*
X130330087Y-80330607D01*
X130243875Y-80168214D01*
X130167080Y-80027620D01*
X130039942Y-79807715D01*
X129895656Y-79570667D01*
X129736790Y-79320151D01*
X129565910Y-79059838D01*
X129385585Y-78793401D01*
X129198384Y-78524514D01*
X129006873Y-78256849D01*
X128813621Y-77994079D01*
X128621195Y-77739877D01*
X128432164Y-77497916D01*
X128249096Y-77271868D01*
X128074557Y-77065407D01*
X127939278Y-76909346D01*
X127986439Y-76780892D01*
X128038091Y-76640413D01*
X128082822Y-76519358D01*
X128118758Y-76423007D01*
X128146931Y-76348720D01*
X128168373Y-76293857D01*
X128184118Y-76255781D01*
X128195198Y-76231851D01*
X128202645Y-76219429D01*
X128207492Y-76215875D01*
X128217463Y-76222977D01*
X128249418Y-76249369D01*
X128301151Y-76293497D01*
X128370529Y-76353498D01*
X128455417Y-76427510D01*
X128553678Y-76513671D01*
X128663180Y-76610117D01*
X128781785Y-76714987D01*
X128907361Y-76826418D01*
X129013020Y-76920190D01*
X129132488Y-77025843D01*
X129243033Y-77123200D01*
X129342545Y-77210427D01*
X129428917Y-77285686D01*
X129500041Y-77347142D01*
X129553807Y-77392959D01*
X129588108Y-77421301D01*
X129600835Y-77430331D01*
X129600955Y-77429739D01*
X129599947Y-77408317D01*
X129596106Y-77357874D01*
X129589634Y-77280621D01*
X129580732Y-77178774D01*
X129569602Y-77054546D01*
X129556445Y-76910150D01*
X129541462Y-76747800D01*
X129524855Y-76569710D01*
X129506826Y-76378092D01*
X129488672Y-76186718D01*
X130987335Y-76186718D01*
X130999627Y-76182157D01*
X131028467Y-76160018D01*
X131069094Y-76123823D01*
X131183092Y-76034876D01*
X131314512Y-75968218D01*
X131453209Y-75930959D01*
X131596042Y-75923577D01*
X131739873Y-75946549D01*
X131881563Y-76000351D01*
X131945172Y-76036576D01*
X132014957Y-76084494D01*
X132071116Y-76131243D01*
X132075774Y-76135710D01*
X132111772Y-76168119D01*
X132135099Y-76185298D01*
X132140899Y-76183605D01*
X132135052Y-76165628D01*
X132120541Y-76119848D01*
X132098260Y-76049094D01*
X132069059Y-75956078D01*
X132033787Y-75843512D01*
X131993293Y-75714105D01*
X131948429Y-75570572D01*
X131900042Y-75415622D01*
X131848983Y-75251967D01*
X131798285Y-75089601D01*
X131750301Y-74936321D01*
X131705969Y-74795101D01*
X131666115Y-74668548D01*
X131631562Y-74559271D01*
X131603136Y-74469878D01*
X131581662Y-74402978D01*
X131567963Y-74361180D01*
X131562866Y-74347092D01*
X131558014Y-74361670D01*
X131544522Y-74404000D01*
X131523228Y-74471436D01*
X131494960Y-74561338D01*
X131460547Y-74671066D01*
X131420816Y-74797979D01*
X131376595Y-74939439D01*
X131328712Y-75092805D01*
X131277995Y-75255437D01*
X131229494Y-75411004D01*
X131181093Y-75566157D01*
X131136181Y-75710030D01*
X131095608Y-75839904D01*
X131060224Y-75953061D01*
X131030880Y-76046780D01*
X131008426Y-76118343D01*
X130993712Y-76165031D01*
X130987588Y-76184125D01*
X130987335Y-76186718D01*
X129488672Y-76186718D01*
X129487576Y-76175162D01*
X129467306Y-75963132D01*
X129463945Y-75928077D01*
X129443869Y-75717286D01*
X129424911Y-75515894D01*
X129407268Y-75326121D01*
X129391137Y-75150188D01*
X129376714Y-74990315D01*
X129364196Y-74848721D01*
X129353779Y-74727627D01*
X129345661Y-74629252D01*
X129340037Y-74555818D01*
X129337105Y-74509542D01*
X129337061Y-74492647D01*
X129337173Y-74492567D01*
X129354527Y-74496901D01*
X129397516Y-74512666D01*
X129462856Y-74538519D01*
X129547266Y-74573114D01*
X129647464Y-74615107D01*
X129760166Y-74663153D01*
X129882091Y-74715908D01*
X130011900Y-74772235D01*
X130133556Y-74824338D01*
X130230713Y-74864973D01*
X130305702Y-74895040D01*
X130360855Y-74915440D01*
X130398503Y-74927073D01*
X130420979Y-74930838D01*
X130430615Y-74927636D01*
X130437446Y-74915684D01*
X130458798Y-74877614D01*
X130493260Y-74815873D01*
X130539578Y-74732720D01*
X130596495Y-74630414D01*
X130662755Y-74511213D01*
X130737102Y-74377377D01*
X130818281Y-74231165D01*
X130905034Y-74074835D01*
X130996106Y-73910647D01*
X131072005Y-73774052D01*
X131159521Y-73617243D01*
X131241755Y-73470642D01*
X131317451Y-73336448D01*
X131385355Y-73216862D01*
X131444212Y-73114084D01*
X131492766Y-73030313D01*
X131529763Y-72967750D01*
X131553947Y-72928595D01*
X131564063Y-72915048D01*
X131572948Y-72926738D01*
X131596142Y-72964146D01*
X131632255Y-73025167D01*
X131680046Y-73107620D01*
X131738274Y-73209328D01*
X131805696Y-73328112D01*
X131881073Y-73461793D01*
X131963163Y-73608192D01*
X132050724Y-73765131D01*
X132142516Y-73930431D01*
X132228139Y-74084865D01*
X132315598Y-74242363D01*
X132397433Y-74389480D01*
X132472426Y-74524041D01*
X132539360Y-74643869D01*
X132597018Y-74746789D01*
X132644184Y-74830625D01*
X132679639Y-74893202D01*
X132702168Y-74932344D01*
X132710552Y-74945874D01*
X132710584Y-74945872D01*
X132726431Y-74939516D01*
X132768048Y-74921901D01*
X132832172Y-74894433D01*
X132915537Y-74858518D01*
X133014879Y-74815563D01*
X133126933Y-74766975D01*
X133248435Y-74714159D01*
X133250946Y-74713066D01*
X133372420Y-74660596D01*
X133484604Y-74612870D01*
X133584205Y-74571234D01*
X133667930Y-74537034D01*
X133732487Y-74511615D01*
X133774581Y-74496323D01*
X133790920Y-74492502D01*
X133791121Y-74493161D01*
X133790615Y-74515009D01*
X133787251Y-74565875D01*
X133781227Y-74643538D01*
X133772739Y-74745779D01*
X133761982Y-74870378D01*
X133749155Y-75015113D01*
X133734452Y-75177765D01*
X133718071Y-75356113D01*
X133700208Y-75547937D01*
X133681059Y-75751017D01*
X133660820Y-75963132D01*
X133657405Y-75998743D01*
X133639752Y-76183605D01*
X133637288Y-76209415D01*
X133618220Y-76410619D01*
%LPC*%
D12*
X115824000Y-130036500D03*
D13*
X113284000Y-130036500D03*
X110744000Y-130036500D03*
X108204000Y-130036500D03*
X105664000Y-130036500D03*
X105664000Y-140196500D03*
X108204000Y-140196500D03*
X110744000Y-140196500D03*
X113284000Y-140196500D03*
X115824000Y-140196500D03*
D14*
X103632000Y-98632000D03*
X103632000Y-103632000D03*
X103632000Y-118632000D03*
X103632000Y-113632000D03*
D15*
X109629500Y-68771000D03*
X133829500Y-68771000D03*
D16*
X130556000Y-151638000D03*
D17*
X130556000Y-149138000D03*
X130556000Y-146638000D03*
X130556000Y-144138000D03*
X130556000Y-141638000D03*
D18*
X111252000Y-109220000D03*
D19*
X111252000Y-106680000D03*
X111252000Y-104140000D03*
D20*
X132855500Y-117566000D03*
D21*
X135395500Y-117566000D03*
X137935500Y-117566000D03*
D20*
X117806000Y-117566000D03*
D21*
X120346000Y-117566000D03*
X122886000Y-117566000D03*
D22*
X112268000Y-165100000D03*
X133096000Y-165100000D03*
X122174000Y-165100000D03*
D16*
X138684000Y-151638000D03*
D17*
X138684000Y-149138000D03*
X138684000Y-146638000D03*
X138684000Y-144138000D03*
X138684000Y-141638000D03*
D23*
X101520000Y-68072000D03*
D24*
X96520000Y-68072000D03*
D25*
X124206000Y-103612000D03*
D26*
X121666000Y-103612000D03*
D25*
X132588000Y-103632000D03*
D26*
X130048000Y-103632000D03*
D25*
X140970000Y-103612000D03*
D26*
X138430000Y-103612000D03*
D22*
X101092000Y-165100000D03*
D27*
X97028000Y-92202000D03*
X97028000Y-99822000D03*
X97028000Y-102362000D03*
X145288000Y-158242000D03*
X145288000Y-160782000D03*
X97028000Y-115062000D03*
X97028000Y-117602000D03*
X97028000Y-120142000D03*
X97028000Y-122682000D03*
X97028000Y-125222000D03*
X97028000Y-127762000D03*
X97028000Y-130302000D03*
X97028000Y-132842000D03*
X97028000Y-137922000D03*
X97028000Y-140462000D03*
X97028000Y-143002000D03*
X97028000Y-145542000D03*
X97028000Y-148082000D03*
X97028000Y-150622000D03*
X97028000Y-153162000D03*
X97028000Y-155702000D03*
X145288000Y-88138000D03*
X145288000Y-127762000D03*
X145288000Y-125222000D03*
X145288000Y-122682000D03*
X145288000Y-120142000D03*
X145288000Y-117602000D03*
X145288000Y-115062000D03*
X145288000Y-112522000D03*
X145288000Y-109982000D03*
X145288000Y-105918000D03*
X145288000Y-103378000D03*
X145288000Y-100838000D03*
X145288000Y-98298000D03*
X145288000Y-95758000D03*
X145288000Y-93218000D03*
X145288000Y-132842000D03*
X145288000Y-135382000D03*
X145288000Y-137922000D03*
X145288000Y-140462000D03*
X145288000Y-143002000D03*
X145288000Y-145542000D03*
X145288000Y-148082000D03*
X145288000Y-150622000D03*
X142748000Y-158242000D03*
X142748000Y-160782000D03*
X140208000Y-158242000D03*
X140208000Y-160782000D03*
X137668000Y-158242000D03*
X137668000Y-160782000D03*
X135128000Y-158242000D03*
X135128000Y-160782000D03*
X132588000Y-158242000D03*
X132588000Y-160782000D03*
X130048000Y-158242000D03*
X130048000Y-160782000D03*
X127508000Y-158242000D03*
X127508000Y-160782000D03*
X124968000Y-158242000D03*
X124968000Y-160782000D03*
X122428000Y-158242000D03*
X122428000Y-160782000D03*
X119888000Y-158242000D03*
X119888000Y-160782000D03*
X117348000Y-158242000D03*
X117348000Y-160782000D03*
X114808000Y-158242000D03*
X114808000Y-160782000D03*
X112268000Y-158242000D03*
X112268000Y-160782000D03*
X109728000Y-158242000D03*
X109728000Y-160782000D03*
X107188000Y-158242000D03*
X107188000Y-160782000D03*
X104648000Y-158242000D03*
X104648000Y-160782000D03*
X145288000Y-90678000D03*
X97028000Y-104902000D03*
X97028000Y-107442000D03*
X102108000Y-158242000D03*
X102108000Y-160782000D03*
X97028000Y-94742000D03*
X97028000Y-97282000D03*
X145288000Y-83058000D03*
X145288000Y-85598000D03*
X97028000Y-109982000D03*
D23*
X146050000Y-68072000D03*
D24*
X141050000Y-68072000D03*
D15*
X99786000Y-79554000D03*
X99786000Y-86054000D03*
X95286000Y-86054000D03*
X95286000Y-79554000D03*
M02*
