M48
; DRILL file {KiCad 6.0.0} date Thu 27 Jan 2022 08:05:19 PM EST
; FORMAT={-:-/ absolute / metric / decimal}
; #@! TF.CreationDate,2022-01-27T20:05:19-05:00
; #@! TF.GenerationSoftware,Kicad,Pcbnew,6.0.0
; #@! TF.FileFunction,Plated,1,2,PTH
FMAT,2
METRIC
; #@! TA.AperFunction,Plated,PTH,ViaDrill
T1C0.381
; #@! TA.AperFunction,Plated,PTH,ComponentDrill
T2C0.800
; #@! TA.AperFunction,Plated,PTH,ComponentDrill
T3C0.950
; #@! TA.AperFunction,Plated,PTH,ComponentDrill
T4C1.000
; #@! TA.AperFunction,Plated,PTH,ComponentDrill
T5C1.016
; #@! TA.AperFunction,Plated,PTH,ComponentDrill
T6C1.100
; #@! TA.AperFunction,Plated,PTH,ComponentDrill
T7C1.200
; #@! TA.AperFunction,Plated,PTH,ComponentDrill
T8C1.300
; #@! TA.AperFunction,Plated,PTH,ComponentDrill
T9C1.350
; #@! TA.AperFunction,Plated,PTH,ComponentDrill
T10C1.500
%
G90
G05
T1
X95.504Y-113.284
X102.362Y-150.622
X106.172Y-150.622
X109.982Y-150.622
X111.252Y-100.584
X113.792Y-150.622
X114.046Y-102.108
X116.586Y-148.082
X119.38Y-99.314
X120.396Y-111.506
X121.92Y-115.316
X122.428Y-137.414
X123.19Y-150.876
X123.444Y-95.504
X123.444Y-127.0
X123.952Y-97.79
X123.952Y-129.794
X126.238Y-124.206
X126.238Y-129.794
X127.254Y-105.664
X129.794Y-94.488
X137.16Y-131.064
X137.922Y-94.488
X139.192Y-134.62
X141.224Y-78.994
X141.224Y-94.742
X143.256Y-98.044
X147.828Y-78.74
T2
X101.092Y-165.1
X105.664Y-130.036
X105.664Y-140.196
X108.204Y-130.036
X108.204Y-140.196
X110.744Y-130.036
X110.744Y-140.196
X112.268Y-165.1
X113.284Y-130.036
X113.284Y-140.196
X115.824Y-130.036
X115.824Y-140.196
X122.174Y-165.1
X133.096Y-165.1
T3
X130.556Y-141.638
X130.556Y-144.138
X130.556Y-146.638
X130.556Y-149.138
X130.556Y-151.638
X138.684Y-141.638
X138.684Y-144.138
X138.684Y-146.638
X138.684Y-149.138
X138.684Y-151.638
T4
X111.252Y-104.14
X111.252Y-106.68
X111.252Y-109.22
T5
X97.028Y-92.202
X97.028Y-94.742
X97.028Y-97.282
X97.028Y-99.822
X97.028Y-102.362
X97.028Y-104.902
X97.028Y-107.442
X97.028Y-109.982
X97.028Y-115.062
X97.028Y-117.602
X97.028Y-120.142
X97.028Y-122.682
X97.028Y-125.222
X97.028Y-127.762
X97.028Y-130.302
X97.028Y-132.842
X97.028Y-137.922
X97.028Y-140.462
X97.028Y-143.002
X97.028Y-145.542
X97.028Y-148.082
X97.028Y-150.622
X97.028Y-153.162
X97.028Y-155.702
X102.108Y-158.242
X102.108Y-160.782
X104.648Y-158.242
X104.648Y-160.782
X107.188Y-158.242
X107.188Y-160.782
X109.728Y-158.242
X109.728Y-160.782
X112.268Y-158.242
X112.268Y-160.782
X114.808Y-158.242
X114.808Y-160.782
X117.348Y-158.242
X117.348Y-160.782
X119.888Y-158.242
X119.888Y-160.782
X122.428Y-158.242
X122.428Y-160.782
X124.968Y-158.242
X124.968Y-160.782
X127.508Y-158.242
X127.508Y-160.782
X130.048Y-158.242
X130.048Y-160.782
X132.588Y-158.242
X132.588Y-160.782
X135.128Y-158.242
X135.128Y-160.782
X137.668Y-158.242
X137.668Y-160.782
X140.208Y-158.242
X140.208Y-160.782
X142.748Y-158.242
X142.748Y-160.782
X145.288Y-83.058
X145.288Y-85.598
X145.288Y-88.138
X145.288Y-90.678
X145.288Y-93.218
X145.288Y-95.758
X145.288Y-98.298
X145.288Y-100.838
X145.288Y-103.378
X145.288Y-105.918
X145.288Y-109.982
X145.288Y-112.522
X145.288Y-115.062
X145.288Y-117.602
X145.288Y-120.142
X145.288Y-122.682
X145.288Y-125.222
X145.288Y-127.762
X145.288Y-132.842
X145.288Y-135.382
X145.288Y-137.922
X145.288Y-140.462
X145.288Y-143.002
X145.288Y-145.542
X145.288Y-148.082
X145.288Y-150.622
X145.288Y-158.242
X145.288Y-160.782
T6
X95.286Y-79.554
X95.286Y-86.054
X99.786Y-79.554
X99.786Y-86.054
T7
X117.806Y-117.566
X120.346Y-117.566
X121.666Y-103.612
X122.886Y-117.566
X124.206Y-103.612
X130.048Y-103.632
X132.588Y-103.632
X132.856Y-117.566
X135.395Y-117.566
X137.935Y-117.566
X138.43Y-103.612
X140.97Y-103.612
T8
X96.52Y-68.072
X101.52Y-68.072
X141.05Y-68.072
X146.05Y-68.072
T9
X103.632Y-98.632
X103.632Y-103.632
X103.632Y-113.632
X103.632Y-118.632
T10
X109.629Y-68.771
X133.829Y-68.771
T0
M30
