G04 #@! TF.GenerationSoftware,KiCad,Pcbnew,(5.1.5-0-10_14)*
G04 #@! TF.CreationDate,2020-02-19T14:52:08-05:00*
G04 #@! TF.ProjectId,rlcsv3_modular,726c6373-7633-45f6-9d6f-64756c61722e,rev?*
G04 #@! TF.SameCoordinates,Original*
G04 #@! TF.FileFunction,Copper,L2,Bot*
G04 #@! TF.FilePolarity,Positive*
%FSLAX46Y46*%
G04 Gerber Fmt 4.6, Leading zero omitted, Abs format (unit mm)*
G04 Created by KiCad (PCBNEW (5.1.5-0-10_14)) date 2020-02-19 14:52:08*
%MOMM*%
%LPD*%
G04 APERTURE LIST*
%ADD10C,2.600000*%
%ADD11R,2.600000X2.600000*%
%ADD12R,1.000000X2.000000*%
%ADD13R,2.000000X0.600000*%
%ADD14O,1.950000X1.700000*%
%ADD15C,0.100000*%
%ADD16C,3.000000*%
%ADD17C,6.400000*%
%ADD18R,1.560000X0.650000*%
%ADD19R,1.700000X1.700000*%
%ADD20R,1.600000X1.600000*%
%ADD21O,1.600000X1.600000*%
%ADD22C,2.350000*%
%ADD23C,1.600000*%
%ADD24R,1.900000X0.800000*%
%ADD25C,1.000000*%
%ADD26C,3.500000*%
%ADD27C,0.800000*%
%ADD28C,1.000000*%
%ADD29C,0.400000*%
%ADD30C,3.000000*%
%ADD31C,0.254000*%
G04 APERTURE END LIST*
D10*
X134750000Y-128580000D03*
D11*
X134750000Y-123500000D03*
D12*
X141000000Y-132500000D03*
X143540000Y-132500000D03*
X146080000Y-132500000D03*
X148620000Y-132500000D03*
X151160000Y-132500000D03*
D13*
X143300000Y-104420000D03*
X143300000Y-105690000D03*
X143300000Y-106960000D03*
X143300000Y-108230000D03*
X143300000Y-109500000D03*
X143300000Y-110770000D03*
X143300000Y-112040000D03*
X143300000Y-113310000D03*
X143300000Y-114580000D03*
X152700000Y-114580000D03*
X152700000Y-113310000D03*
X152700000Y-112040000D03*
X152700000Y-110770000D03*
X152700000Y-109500000D03*
X152700000Y-108230000D03*
X152700000Y-106960000D03*
X152700000Y-105690000D03*
X152700000Y-104420000D03*
D10*
X140250000Y-72500000D03*
X145250000Y-72500000D03*
X150250000Y-72500000D03*
X155250000Y-72500000D03*
X160250000Y-72500000D03*
D11*
X165250000Y-72500000D03*
D14*
X137000000Y-117000000D03*
X137000000Y-114500000D03*
X137000000Y-112000000D03*
X137000000Y-109500000D03*
G04 #@! TA.AperFunction,ComponentPad*
D15*
G36*
X137749504Y-106151204D02*
G01*
X137773773Y-106154804D01*
X137797571Y-106160765D01*
X137820671Y-106169030D01*
X137842849Y-106179520D01*
X137863893Y-106192133D01*
X137883598Y-106206747D01*
X137901777Y-106223223D01*
X137918253Y-106241402D01*
X137932867Y-106261107D01*
X137945480Y-106282151D01*
X137955970Y-106304329D01*
X137964235Y-106327429D01*
X137970196Y-106351227D01*
X137973796Y-106375496D01*
X137975000Y-106400000D01*
X137975000Y-107600000D01*
X137973796Y-107624504D01*
X137970196Y-107648773D01*
X137964235Y-107672571D01*
X137955970Y-107695671D01*
X137945480Y-107717849D01*
X137932867Y-107738893D01*
X137918253Y-107758598D01*
X137901777Y-107776777D01*
X137883598Y-107793253D01*
X137863893Y-107807867D01*
X137842849Y-107820480D01*
X137820671Y-107830970D01*
X137797571Y-107839235D01*
X137773773Y-107845196D01*
X137749504Y-107848796D01*
X137725000Y-107850000D01*
X136275000Y-107850000D01*
X136250496Y-107848796D01*
X136226227Y-107845196D01*
X136202429Y-107839235D01*
X136179329Y-107830970D01*
X136157151Y-107820480D01*
X136136107Y-107807867D01*
X136116402Y-107793253D01*
X136098223Y-107776777D01*
X136081747Y-107758598D01*
X136067133Y-107738893D01*
X136054520Y-107717849D01*
X136044030Y-107695671D01*
X136035765Y-107672571D01*
X136029804Y-107648773D01*
X136026204Y-107624504D01*
X136025000Y-107600000D01*
X136025000Y-106400000D01*
X136026204Y-106375496D01*
X136029804Y-106351227D01*
X136035765Y-106327429D01*
X136044030Y-106304329D01*
X136054520Y-106282151D01*
X136067133Y-106261107D01*
X136081747Y-106241402D01*
X136098223Y-106223223D01*
X136116402Y-106206747D01*
X136136107Y-106192133D01*
X136157151Y-106179520D01*
X136179329Y-106169030D01*
X136202429Y-106160765D01*
X136226227Y-106154804D01*
X136250496Y-106151204D01*
X136275000Y-106150000D01*
X137725000Y-106150000D01*
X137749504Y-106151204D01*
G37*
G04 #@! TD.AperFunction*
D16*
X144500000Y-117000000D03*
X152000000Y-117000000D03*
X144500000Y-96680000D03*
X152000000Y-91640000D03*
X152000000Y-101720000D03*
X144500000Y-101720000D03*
X152000000Y-96680000D03*
X144500000Y-91640000D03*
D17*
X134000000Y-139000000D03*
X171000000Y-139000000D03*
X171000000Y-74000000D03*
X134000000Y-74000000D03*
D16*
X169500000Y-99000000D03*
X169500000Y-86800000D03*
X157500000Y-99000000D03*
X163500000Y-101000000D03*
D18*
X135100000Y-85950000D03*
X135100000Y-84050000D03*
X132400000Y-84050000D03*
X132400000Y-85000000D03*
X132400000Y-85950000D03*
D19*
X133000000Y-96000000D03*
X133000000Y-102000000D03*
X133000000Y-90500000D03*
X173500000Y-93750000D03*
G04 #@! TA.AperFunction,SMDPad,CuDef*
D15*
G36*
X135994505Y-98361204D02*
G01*
X136018773Y-98364804D01*
X136042572Y-98370765D01*
X136065671Y-98379030D01*
X136087850Y-98389520D01*
X136108893Y-98402132D01*
X136128599Y-98416747D01*
X136146777Y-98433223D01*
X136163253Y-98451401D01*
X136177868Y-98471107D01*
X136190480Y-98492150D01*
X136200970Y-98514329D01*
X136209235Y-98537428D01*
X136215196Y-98561227D01*
X136218796Y-98585495D01*
X136220000Y-98609999D01*
X136220000Y-99510001D01*
X136218796Y-99534505D01*
X136215196Y-99558773D01*
X136209235Y-99582572D01*
X136200970Y-99605671D01*
X136190480Y-99627850D01*
X136177868Y-99648893D01*
X136163253Y-99668599D01*
X136146777Y-99686777D01*
X136128599Y-99703253D01*
X136108893Y-99717868D01*
X136087850Y-99730480D01*
X136065671Y-99740970D01*
X136042572Y-99749235D01*
X136018773Y-99755196D01*
X135994505Y-99758796D01*
X135970001Y-99760000D01*
X135319999Y-99760000D01*
X135295495Y-99758796D01*
X135271227Y-99755196D01*
X135247428Y-99749235D01*
X135224329Y-99740970D01*
X135202150Y-99730480D01*
X135181107Y-99717868D01*
X135161401Y-99703253D01*
X135143223Y-99686777D01*
X135126747Y-99668599D01*
X135112132Y-99648893D01*
X135099520Y-99627850D01*
X135089030Y-99605671D01*
X135080765Y-99582572D01*
X135074804Y-99558773D01*
X135071204Y-99534505D01*
X135070000Y-99510001D01*
X135070000Y-98609999D01*
X135071204Y-98585495D01*
X135074804Y-98561227D01*
X135080765Y-98537428D01*
X135089030Y-98514329D01*
X135099520Y-98492150D01*
X135112132Y-98471107D01*
X135126747Y-98451401D01*
X135143223Y-98433223D01*
X135161401Y-98416747D01*
X135181107Y-98402132D01*
X135202150Y-98389520D01*
X135224329Y-98379030D01*
X135247428Y-98370765D01*
X135271227Y-98364804D01*
X135295495Y-98361204D01*
X135319999Y-98360000D01*
X135970001Y-98360000D01*
X135994505Y-98361204D01*
G37*
G04 #@! TD.AperFunction*
G04 #@! TA.AperFunction,SMDPad,CuDef*
G36*
X133944505Y-98361204D02*
G01*
X133968773Y-98364804D01*
X133992572Y-98370765D01*
X134015671Y-98379030D01*
X134037850Y-98389520D01*
X134058893Y-98402132D01*
X134078599Y-98416747D01*
X134096777Y-98433223D01*
X134113253Y-98451401D01*
X134127868Y-98471107D01*
X134140480Y-98492150D01*
X134150970Y-98514329D01*
X134159235Y-98537428D01*
X134165196Y-98561227D01*
X134168796Y-98585495D01*
X134170000Y-98609999D01*
X134170000Y-99510001D01*
X134168796Y-99534505D01*
X134165196Y-99558773D01*
X134159235Y-99582572D01*
X134150970Y-99605671D01*
X134140480Y-99627850D01*
X134127868Y-99648893D01*
X134113253Y-99668599D01*
X134096777Y-99686777D01*
X134078599Y-99703253D01*
X134058893Y-99717868D01*
X134037850Y-99730480D01*
X134015671Y-99740970D01*
X133992572Y-99749235D01*
X133968773Y-99755196D01*
X133944505Y-99758796D01*
X133920001Y-99760000D01*
X133269999Y-99760000D01*
X133245495Y-99758796D01*
X133221227Y-99755196D01*
X133197428Y-99749235D01*
X133174329Y-99740970D01*
X133152150Y-99730480D01*
X133131107Y-99717868D01*
X133111401Y-99703253D01*
X133093223Y-99686777D01*
X133076747Y-99668599D01*
X133062132Y-99648893D01*
X133049520Y-99627850D01*
X133039030Y-99605671D01*
X133030765Y-99582572D01*
X133024804Y-99558773D01*
X133021204Y-99534505D01*
X133020000Y-99510001D01*
X133020000Y-98609999D01*
X133021204Y-98585495D01*
X133024804Y-98561227D01*
X133030765Y-98537428D01*
X133039030Y-98514329D01*
X133049520Y-98492150D01*
X133062132Y-98471107D01*
X133076747Y-98451401D01*
X133093223Y-98433223D01*
X133111401Y-98416747D01*
X133131107Y-98402132D01*
X133152150Y-98389520D01*
X133174329Y-98379030D01*
X133197428Y-98370765D01*
X133221227Y-98364804D01*
X133245495Y-98361204D01*
X133269999Y-98360000D01*
X133920001Y-98360000D01*
X133944505Y-98361204D01*
G37*
G04 #@! TD.AperFunction*
G04 #@! TA.AperFunction,SMDPad,CuDef*
G36*
X138474505Y-87151204D02*
G01*
X138498773Y-87154804D01*
X138522572Y-87160765D01*
X138545671Y-87169030D01*
X138567850Y-87179520D01*
X138588893Y-87192132D01*
X138608599Y-87206747D01*
X138626777Y-87223223D01*
X138643253Y-87241401D01*
X138657868Y-87261107D01*
X138670480Y-87282150D01*
X138680970Y-87304329D01*
X138689235Y-87327428D01*
X138695196Y-87351227D01*
X138698796Y-87375495D01*
X138700000Y-87399999D01*
X138700000Y-88050001D01*
X138698796Y-88074505D01*
X138695196Y-88098773D01*
X138689235Y-88122572D01*
X138680970Y-88145671D01*
X138670480Y-88167850D01*
X138657868Y-88188893D01*
X138643253Y-88208599D01*
X138626777Y-88226777D01*
X138608599Y-88243253D01*
X138588893Y-88257868D01*
X138567850Y-88270480D01*
X138545671Y-88280970D01*
X138522572Y-88289235D01*
X138498773Y-88295196D01*
X138474505Y-88298796D01*
X138450001Y-88300000D01*
X137549999Y-88300000D01*
X137525495Y-88298796D01*
X137501227Y-88295196D01*
X137477428Y-88289235D01*
X137454329Y-88280970D01*
X137432150Y-88270480D01*
X137411107Y-88257868D01*
X137391401Y-88243253D01*
X137373223Y-88226777D01*
X137356747Y-88208599D01*
X137342132Y-88188893D01*
X137329520Y-88167850D01*
X137319030Y-88145671D01*
X137310765Y-88122572D01*
X137304804Y-88098773D01*
X137301204Y-88074505D01*
X137300000Y-88050001D01*
X137300000Y-87399999D01*
X137301204Y-87375495D01*
X137304804Y-87351227D01*
X137310765Y-87327428D01*
X137319030Y-87304329D01*
X137329520Y-87282150D01*
X137342132Y-87261107D01*
X137356747Y-87241401D01*
X137373223Y-87223223D01*
X137391401Y-87206747D01*
X137411107Y-87192132D01*
X137432150Y-87179520D01*
X137454329Y-87169030D01*
X137477428Y-87160765D01*
X137501227Y-87154804D01*
X137525495Y-87151204D01*
X137549999Y-87150000D01*
X138450001Y-87150000D01*
X138474505Y-87151204D01*
G37*
G04 #@! TD.AperFunction*
G04 #@! TA.AperFunction,SMDPad,CuDef*
G36*
X138474505Y-89201204D02*
G01*
X138498773Y-89204804D01*
X138522572Y-89210765D01*
X138545671Y-89219030D01*
X138567850Y-89229520D01*
X138588893Y-89242132D01*
X138608599Y-89256747D01*
X138626777Y-89273223D01*
X138643253Y-89291401D01*
X138657868Y-89311107D01*
X138670480Y-89332150D01*
X138680970Y-89354329D01*
X138689235Y-89377428D01*
X138695196Y-89401227D01*
X138698796Y-89425495D01*
X138700000Y-89449999D01*
X138700000Y-90100001D01*
X138698796Y-90124505D01*
X138695196Y-90148773D01*
X138689235Y-90172572D01*
X138680970Y-90195671D01*
X138670480Y-90217850D01*
X138657868Y-90238893D01*
X138643253Y-90258599D01*
X138626777Y-90276777D01*
X138608599Y-90293253D01*
X138588893Y-90307868D01*
X138567850Y-90320480D01*
X138545671Y-90330970D01*
X138522572Y-90339235D01*
X138498773Y-90345196D01*
X138474505Y-90348796D01*
X138450001Y-90350000D01*
X137549999Y-90350000D01*
X137525495Y-90348796D01*
X137501227Y-90345196D01*
X137477428Y-90339235D01*
X137454329Y-90330970D01*
X137432150Y-90320480D01*
X137411107Y-90307868D01*
X137391401Y-90293253D01*
X137373223Y-90276777D01*
X137356747Y-90258599D01*
X137342132Y-90238893D01*
X137329520Y-90217850D01*
X137319030Y-90195671D01*
X137310765Y-90172572D01*
X137304804Y-90148773D01*
X137301204Y-90124505D01*
X137300000Y-90100001D01*
X137300000Y-89449999D01*
X137301204Y-89425495D01*
X137304804Y-89401227D01*
X137310765Y-89377428D01*
X137319030Y-89354329D01*
X137329520Y-89332150D01*
X137342132Y-89311107D01*
X137356747Y-89291401D01*
X137373223Y-89273223D01*
X137391401Y-89256747D01*
X137411107Y-89242132D01*
X137432150Y-89229520D01*
X137454329Y-89219030D01*
X137477428Y-89210765D01*
X137501227Y-89204804D01*
X137525495Y-89201204D01*
X137549999Y-89200000D01*
X138450001Y-89200000D01*
X138474505Y-89201204D01*
G37*
G04 #@! TD.AperFunction*
G04 #@! TA.AperFunction,SMDPad,CuDef*
G36*
X149974505Y-81376204D02*
G01*
X149998773Y-81379804D01*
X150022572Y-81385765D01*
X150045671Y-81394030D01*
X150067850Y-81404520D01*
X150088893Y-81417132D01*
X150108599Y-81431747D01*
X150126777Y-81448223D01*
X150143253Y-81466401D01*
X150157868Y-81486107D01*
X150170480Y-81507150D01*
X150180970Y-81529329D01*
X150189235Y-81552428D01*
X150195196Y-81576227D01*
X150198796Y-81600495D01*
X150200000Y-81624999D01*
X150200000Y-82275001D01*
X150198796Y-82299505D01*
X150195196Y-82323773D01*
X150189235Y-82347572D01*
X150180970Y-82370671D01*
X150170480Y-82392850D01*
X150157868Y-82413893D01*
X150143253Y-82433599D01*
X150126777Y-82451777D01*
X150108599Y-82468253D01*
X150088893Y-82482868D01*
X150067850Y-82495480D01*
X150045671Y-82505970D01*
X150022572Y-82514235D01*
X149998773Y-82520196D01*
X149974505Y-82523796D01*
X149950001Y-82525000D01*
X149049999Y-82525000D01*
X149025495Y-82523796D01*
X149001227Y-82520196D01*
X148977428Y-82514235D01*
X148954329Y-82505970D01*
X148932150Y-82495480D01*
X148911107Y-82482868D01*
X148891401Y-82468253D01*
X148873223Y-82451777D01*
X148856747Y-82433599D01*
X148842132Y-82413893D01*
X148829520Y-82392850D01*
X148819030Y-82370671D01*
X148810765Y-82347572D01*
X148804804Y-82323773D01*
X148801204Y-82299505D01*
X148800000Y-82275001D01*
X148800000Y-81624999D01*
X148801204Y-81600495D01*
X148804804Y-81576227D01*
X148810765Y-81552428D01*
X148819030Y-81529329D01*
X148829520Y-81507150D01*
X148842132Y-81486107D01*
X148856747Y-81466401D01*
X148873223Y-81448223D01*
X148891401Y-81431747D01*
X148911107Y-81417132D01*
X148932150Y-81404520D01*
X148954329Y-81394030D01*
X148977428Y-81385765D01*
X149001227Y-81379804D01*
X149025495Y-81376204D01*
X149049999Y-81375000D01*
X149950001Y-81375000D01*
X149974505Y-81376204D01*
G37*
G04 #@! TD.AperFunction*
G04 #@! TA.AperFunction,SMDPad,CuDef*
G36*
X149974505Y-83426204D02*
G01*
X149998773Y-83429804D01*
X150022572Y-83435765D01*
X150045671Y-83444030D01*
X150067850Y-83454520D01*
X150088893Y-83467132D01*
X150108599Y-83481747D01*
X150126777Y-83498223D01*
X150143253Y-83516401D01*
X150157868Y-83536107D01*
X150170480Y-83557150D01*
X150180970Y-83579329D01*
X150189235Y-83602428D01*
X150195196Y-83626227D01*
X150198796Y-83650495D01*
X150200000Y-83674999D01*
X150200000Y-84325001D01*
X150198796Y-84349505D01*
X150195196Y-84373773D01*
X150189235Y-84397572D01*
X150180970Y-84420671D01*
X150170480Y-84442850D01*
X150157868Y-84463893D01*
X150143253Y-84483599D01*
X150126777Y-84501777D01*
X150108599Y-84518253D01*
X150088893Y-84532868D01*
X150067850Y-84545480D01*
X150045671Y-84555970D01*
X150022572Y-84564235D01*
X149998773Y-84570196D01*
X149974505Y-84573796D01*
X149950001Y-84575000D01*
X149049999Y-84575000D01*
X149025495Y-84573796D01*
X149001227Y-84570196D01*
X148977428Y-84564235D01*
X148954329Y-84555970D01*
X148932150Y-84545480D01*
X148911107Y-84532868D01*
X148891401Y-84518253D01*
X148873223Y-84501777D01*
X148856747Y-84483599D01*
X148842132Y-84463893D01*
X148829520Y-84442850D01*
X148819030Y-84420671D01*
X148810765Y-84397572D01*
X148804804Y-84373773D01*
X148801204Y-84349505D01*
X148800000Y-84325001D01*
X148800000Y-83674999D01*
X148801204Y-83650495D01*
X148804804Y-83626227D01*
X148810765Y-83602428D01*
X148819030Y-83579329D01*
X148829520Y-83557150D01*
X148842132Y-83536107D01*
X148856747Y-83516401D01*
X148873223Y-83498223D01*
X148891401Y-83481747D01*
X148911107Y-83467132D01*
X148932150Y-83454520D01*
X148954329Y-83444030D01*
X148977428Y-83435765D01*
X149001227Y-83429804D01*
X149025495Y-83426204D01*
X149049999Y-83425000D01*
X149950001Y-83425000D01*
X149974505Y-83426204D01*
G37*
G04 #@! TD.AperFunction*
D20*
X173500000Y-90750000D03*
D21*
X173500000Y-83130000D03*
X144380000Y-121500000D03*
D20*
X152000000Y-121500000D03*
D22*
X159000000Y-110100000D03*
X159000000Y-105500000D03*
X159000000Y-121400000D03*
X159000000Y-126000000D03*
D11*
X169750000Y-128750000D03*
D10*
X169750000Y-123670000D03*
G04 #@! TA.AperFunction,SMDPad,CuDef*
D15*
G36*
X154974505Y-138951204D02*
G01*
X154998773Y-138954804D01*
X155022572Y-138960765D01*
X155045671Y-138969030D01*
X155067850Y-138979520D01*
X155088893Y-138992132D01*
X155108599Y-139006747D01*
X155126777Y-139023223D01*
X155143253Y-139041401D01*
X155157868Y-139061107D01*
X155170480Y-139082150D01*
X155180970Y-139104329D01*
X155189235Y-139127428D01*
X155195196Y-139151227D01*
X155198796Y-139175495D01*
X155200000Y-139199999D01*
X155200000Y-139850001D01*
X155198796Y-139874505D01*
X155195196Y-139898773D01*
X155189235Y-139922572D01*
X155180970Y-139945671D01*
X155170480Y-139967850D01*
X155157868Y-139988893D01*
X155143253Y-140008599D01*
X155126777Y-140026777D01*
X155108599Y-140043253D01*
X155088893Y-140057868D01*
X155067850Y-140070480D01*
X155045671Y-140080970D01*
X155022572Y-140089235D01*
X154998773Y-140095196D01*
X154974505Y-140098796D01*
X154950001Y-140100000D01*
X154049999Y-140100000D01*
X154025495Y-140098796D01*
X154001227Y-140095196D01*
X153977428Y-140089235D01*
X153954329Y-140080970D01*
X153932150Y-140070480D01*
X153911107Y-140057868D01*
X153891401Y-140043253D01*
X153873223Y-140026777D01*
X153856747Y-140008599D01*
X153842132Y-139988893D01*
X153829520Y-139967850D01*
X153819030Y-139945671D01*
X153810765Y-139922572D01*
X153804804Y-139898773D01*
X153801204Y-139874505D01*
X153800000Y-139850001D01*
X153800000Y-139199999D01*
X153801204Y-139175495D01*
X153804804Y-139151227D01*
X153810765Y-139127428D01*
X153819030Y-139104329D01*
X153829520Y-139082150D01*
X153842132Y-139061107D01*
X153856747Y-139041401D01*
X153873223Y-139023223D01*
X153891401Y-139006747D01*
X153911107Y-138992132D01*
X153932150Y-138979520D01*
X153954329Y-138969030D01*
X153977428Y-138960765D01*
X154001227Y-138954804D01*
X154025495Y-138951204D01*
X154049999Y-138950000D01*
X154950001Y-138950000D01*
X154974505Y-138951204D01*
G37*
G04 #@! TD.AperFunction*
G04 #@! TA.AperFunction,SMDPad,CuDef*
G36*
X154974505Y-136901204D02*
G01*
X154998773Y-136904804D01*
X155022572Y-136910765D01*
X155045671Y-136919030D01*
X155067850Y-136929520D01*
X155088893Y-136942132D01*
X155108599Y-136956747D01*
X155126777Y-136973223D01*
X155143253Y-136991401D01*
X155157868Y-137011107D01*
X155170480Y-137032150D01*
X155180970Y-137054329D01*
X155189235Y-137077428D01*
X155195196Y-137101227D01*
X155198796Y-137125495D01*
X155200000Y-137149999D01*
X155200000Y-137800001D01*
X155198796Y-137824505D01*
X155195196Y-137848773D01*
X155189235Y-137872572D01*
X155180970Y-137895671D01*
X155170480Y-137917850D01*
X155157868Y-137938893D01*
X155143253Y-137958599D01*
X155126777Y-137976777D01*
X155108599Y-137993253D01*
X155088893Y-138007868D01*
X155067850Y-138020480D01*
X155045671Y-138030970D01*
X155022572Y-138039235D01*
X154998773Y-138045196D01*
X154974505Y-138048796D01*
X154950001Y-138050000D01*
X154049999Y-138050000D01*
X154025495Y-138048796D01*
X154001227Y-138045196D01*
X153977428Y-138039235D01*
X153954329Y-138030970D01*
X153932150Y-138020480D01*
X153911107Y-138007868D01*
X153891401Y-137993253D01*
X153873223Y-137976777D01*
X153856747Y-137958599D01*
X153842132Y-137938893D01*
X153829520Y-137917850D01*
X153819030Y-137895671D01*
X153810765Y-137872572D01*
X153804804Y-137848773D01*
X153801204Y-137824505D01*
X153800000Y-137800001D01*
X153800000Y-137149999D01*
X153801204Y-137125495D01*
X153804804Y-137101227D01*
X153810765Y-137077428D01*
X153819030Y-137054329D01*
X153829520Y-137032150D01*
X153842132Y-137011107D01*
X153856747Y-136991401D01*
X153873223Y-136973223D01*
X153891401Y-136956747D01*
X153911107Y-136942132D01*
X153932150Y-136929520D01*
X153954329Y-136919030D01*
X153977428Y-136910765D01*
X154001227Y-136904804D01*
X154025495Y-136901204D01*
X154049999Y-136900000D01*
X154950001Y-136900000D01*
X154974505Y-136901204D01*
G37*
G04 #@! TD.AperFunction*
G04 #@! TA.AperFunction,SMDPad,CuDef*
G36*
X158474505Y-138951204D02*
G01*
X158498773Y-138954804D01*
X158522572Y-138960765D01*
X158545671Y-138969030D01*
X158567850Y-138979520D01*
X158588893Y-138992132D01*
X158608599Y-139006747D01*
X158626777Y-139023223D01*
X158643253Y-139041401D01*
X158657868Y-139061107D01*
X158670480Y-139082150D01*
X158680970Y-139104329D01*
X158689235Y-139127428D01*
X158695196Y-139151227D01*
X158698796Y-139175495D01*
X158700000Y-139199999D01*
X158700000Y-139850001D01*
X158698796Y-139874505D01*
X158695196Y-139898773D01*
X158689235Y-139922572D01*
X158680970Y-139945671D01*
X158670480Y-139967850D01*
X158657868Y-139988893D01*
X158643253Y-140008599D01*
X158626777Y-140026777D01*
X158608599Y-140043253D01*
X158588893Y-140057868D01*
X158567850Y-140070480D01*
X158545671Y-140080970D01*
X158522572Y-140089235D01*
X158498773Y-140095196D01*
X158474505Y-140098796D01*
X158450001Y-140100000D01*
X157549999Y-140100000D01*
X157525495Y-140098796D01*
X157501227Y-140095196D01*
X157477428Y-140089235D01*
X157454329Y-140080970D01*
X157432150Y-140070480D01*
X157411107Y-140057868D01*
X157391401Y-140043253D01*
X157373223Y-140026777D01*
X157356747Y-140008599D01*
X157342132Y-139988893D01*
X157329520Y-139967850D01*
X157319030Y-139945671D01*
X157310765Y-139922572D01*
X157304804Y-139898773D01*
X157301204Y-139874505D01*
X157300000Y-139850001D01*
X157300000Y-139199999D01*
X157301204Y-139175495D01*
X157304804Y-139151227D01*
X157310765Y-139127428D01*
X157319030Y-139104329D01*
X157329520Y-139082150D01*
X157342132Y-139061107D01*
X157356747Y-139041401D01*
X157373223Y-139023223D01*
X157391401Y-139006747D01*
X157411107Y-138992132D01*
X157432150Y-138979520D01*
X157454329Y-138969030D01*
X157477428Y-138960765D01*
X157501227Y-138954804D01*
X157525495Y-138951204D01*
X157549999Y-138950000D01*
X158450001Y-138950000D01*
X158474505Y-138951204D01*
G37*
G04 #@! TD.AperFunction*
G04 #@! TA.AperFunction,SMDPad,CuDef*
G36*
X158474505Y-136901204D02*
G01*
X158498773Y-136904804D01*
X158522572Y-136910765D01*
X158545671Y-136919030D01*
X158567850Y-136929520D01*
X158588893Y-136942132D01*
X158608599Y-136956747D01*
X158626777Y-136973223D01*
X158643253Y-136991401D01*
X158657868Y-137011107D01*
X158670480Y-137032150D01*
X158680970Y-137054329D01*
X158689235Y-137077428D01*
X158695196Y-137101227D01*
X158698796Y-137125495D01*
X158700000Y-137149999D01*
X158700000Y-137800001D01*
X158698796Y-137824505D01*
X158695196Y-137848773D01*
X158689235Y-137872572D01*
X158680970Y-137895671D01*
X158670480Y-137917850D01*
X158657868Y-137938893D01*
X158643253Y-137958599D01*
X158626777Y-137976777D01*
X158608599Y-137993253D01*
X158588893Y-138007868D01*
X158567850Y-138020480D01*
X158545671Y-138030970D01*
X158522572Y-138039235D01*
X158498773Y-138045196D01*
X158474505Y-138048796D01*
X158450001Y-138050000D01*
X157549999Y-138050000D01*
X157525495Y-138048796D01*
X157501227Y-138045196D01*
X157477428Y-138039235D01*
X157454329Y-138030970D01*
X157432150Y-138020480D01*
X157411107Y-138007868D01*
X157391401Y-137993253D01*
X157373223Y-137976777D01*
X157356747Y-137958599D01*
X157342132Y-137938893D01*
X157329520Y-137917850D01*
X157319030Y-137895671D01*
X157310765Y-137872572D01*
X157304804Y-137848773D01*
X157301204Y-137824505D01*
X157300000Y-137800001D01*
X157300000Y-137149999D01*
X157301204Y-137125495D01*
X157304804Y-137101227D01*
X157310765Y-137077428D01*
X157319030Y-137054329D01*
X157329520Y-137032150D01*
X157342132Y-137011107D01*
X157356747Y-136991401D01*
X157373223Y-136973223D01*
X157391401Y-136956747D01*
X157411107Y-136942132D01*
X157432150Y-136929520D01*
X157454329Y-136919030D01*
X157477428Y-136910765D01*
X157501227Y-136904804D01*
X157525495Y-136901204D01*
X157549999Y-136900000D01*
X158450001Y-136900000D01*
X158474505Y-136901204D01*
G37*
G04 #@! TD.AperFunction*
G04 #@! TA.AperFunction,SMDPad,CuDef*
G36*
X161974505Y-136901204D02*
G01*
X161998773Y-136904804D01*
X162022572Y-136910765D01*
X162045671Y-136919030D01*
X162067850Y-136929520D01*
X162088893Y-136942132D01*
X162108599Y-136956747D01*
X162126777Y-136973223D01*
X162143253Y-136991401D01*
X162157868Y-137011107D01*
X162170480Y-137032150D01*
X162180970Y-137054329D01*
X162189235Y-137077428D01*
X162195196Y-137101227D01*
X162198796Y-137125495D01*
X162200000Y-137149999D01*
X162200000Y-137800001D01*
X162198796Y-137824505D01*
X162195196Y-137848773D01*
X162189235Y-137872572D01*
X162180970Y-137895671D01*
X162170480Y-137917850D01*
X162157868Y-137938893D01*
X162143253Y-137958599D01*
X162126777Y-137976777D01*
X162108599Y-137993253D01*
X162088893Y-138007868D01*
X162067850Y-138020480D01*
X162045671Y-138030970D01*
X162022572Y-138039235D01*
X161998773Y-138045196D01*
X161974505Y-138048796D01*
X161950001Y-138050000D01*
X161049999Y-138050000D01*
X161025495Y-138048796D01*
X161001227Y-138045196D01*
X160977428Y-138039235D01*
X160954329Y-138030970D01*
X160932150Y-138020480D01*
X160911107Y-138007868D01*
X160891401Y-137993253D01*
X160873223Y-137976777D01*
X160856747Y-137958599D01*
X160842132Y-137938893D01*
X160829520Y-137917850D01*
X160819030Y-137895671D01*
X160810765Y-137872572D01*
X160804804Y-137848773D01*
X160801204Y-137824505D01*
X160800000Y-137800001D01*
X160800000Y-137149999D01*
X160801204Y-137125495D01*
X160804804Y-137101227D01*
X160810765Y-137077428D01*
X160819030Y-137054329D01*
X160829520Y-137032150D01*
X160842132Y-137011107D01*
X160856747Y-136991401D01*
X160873223Y-136973223D01*
X160891401Y-136956747D01*
X160911107Y-136942132D01*
X160932150Y-136929520D01*
X160954329Y-136919030D01*
X160977428Y-136910765D01*
X161001227Y-136904804D01*
X161025495Y-136901204D01*
X161049999Y-136900000D01*
X161950001Y-136900000D01*
X161974505Y-136901204D01*
G37*
G04 #@! TD.AperFunction*
G04 #@! TA.AperFunction,SMDPad,CuDef*
G36*
X161974505Y-138951204D02*
G01*
X161998773Y-138954804D01*
X162022572Y-138960765D01*
X162045671Y-138969030D01*
X162067850Y-138979520D01*
X162088893Y-138992132D01*
X162108599Y-139006747D01*
X162126777Y-139023223D01*
X162143253Y-139041401D01*
X162157868Y-139061107D01*
X162170480Y-139082150D01*
X162180970Y-139104329D01*
X162189235Y-139127428D01*
X162195196Y-139151227D01*
X162198796Y-139175495D01*
X162200000Y-139199999D01*
X162200000Y-139850001D01*
X162198796Y-139874505D01*
X162195196Y-139898773D01*
X162189235Y-139922572D01*
X162180970Y-139945671D01*
X162170480Y-139967850D01*
X162157868Y-139988893D01*
X162143253Y-140008599D01*
X162126777Y-140026777D01*
X162108599Y-140043253D01*
X162088893Y-140057868D01*
X162067850Y-140070480D01*
X162045671Y-140080970D01*
X162022572Y-140089235D01*
X161998773Y-140095196D01*
X161974505Y-140098796D01*
X161950001Y-140100000D01*
X161049999Y-140100000D01*
X161025495Y-140098796D01*
X161001227Y-140095196D01*
X160977428Y-140089235D01*
X160954329Y-140080970D01*
X160932150Y-140070480D01*
X160911107Y-140057868D01*
X160891401Y-140043253D01*
X160873223Y-140026777D01*
X160856747Y-140008599D01*
X160842132Y-139988893D01*
X160829520Y-139967850D01*
X160819030Y-139945671D01*
X160810765Y-139922572D01*
X160804804Y-139898773D01*
X160801204Y-139874505D01*
X160800000Y-139850001D01*
X160800000Y-139199999D01*
X160801204Y-139175495D01*
X160804804Y-139151227D01*
X160810765Y-139127428D01*
X160819030Y-139104329D01*
X160829520Y-139082150D01*
X160842132Y-139061107D01*
X160856747Y-139041401D01*
X160873223Y-139023223D01*
X160891401Y-139006747D01*
X160911107Y-138992132D01*
X160932150Y-138979520D01*
X160954329Y-138969030D01*
X160977428Y-138960765D01*
X161001227Y-138954804D01*
X161025495Y-138951204D01*
X161049999Y-138950000D01*
X161950001Y-138950000D01*
X161974505Y-138951204D01*
G37*
G04 #@! TD.AperFunction*
G04 #@! TA.AperFunction,SMDPad,CuDef*
G36*
X165474505Y-136901204D02*
G01*
X165498773Y-136904804D01*
X165522572Y-136910765D01*
X165545671Y-136919030D01*
X165567850Y-136929520D01*
X165588893Y-136942132D01*
X165608599Y-136956747D01*
X165626777Y-136973223D01*
X165643253Y-136991401D01*
X165657868Y-137011107D01*
X165670480Y-137032150D01*
X165680970Y-137054329D01*
X165689235Y-137077428D01*
X165695196Y-137101227D01*
X165698796Y-137125495D01*
X165700000Y-137149999D01*
X165700000Y-137800001D01*
X165698796Y-137824505D01*
X165695196Y-137848773D01*
X165689235Y-137872572D01*
X165680970Y-137895671D01*
X165670480Y-137917850D01*
X165657868Y-137938893D01*
X165643253Y-137958599D01*
X165626777Y-137976777D01*
X165608599Y-137993253D01*
X165588893Y-138007868D01*
X165567850Y-138020480D01*
X165545671Y-138030970D01*
X165522572Y-138039235D01*
X165498773Y-138045196D01*
X165474505Y-138048796D01*
X165450001Y-138050000D01*
X164549999Y-138050000D01*
X164525495Y-138048796D01*
X164501227Y-138045196D01*
X164477428Y-138039235D01*
X164454329Y-138030970D01*
X164432150Y-138020480D01*
X164411107Y-138007868D01*
X164391401Y-137993253D01*
X164373223Y-137976777D01*
X164356747Y-137958599D01*
X164342132Y-137938893D01*
X164329520Y-137917850D01*
X164319030Y-137895671D01*
X164310765Y-137872572D01*
X164304804Y-137848773D01*
X164301204Y-137824505D01*
X164300000Y-137800001D01*
X164300000Y-137149999D01*
X164301204Y-137125495D01*
X164304804Y-137101227D01*
X164310765Y-137077428D01*
X164319030Y-137054329D01*
X164329520Y-137032150D01*
X164342132Y-137011107D01*
X164356747Y-136991401D01*
X164373223Y-136973223D01*
X164391401Y-136956747D01*
X164411107Y-136942132D01*
X164432150Y-136929520D01*
X164454329Y-136919030D01*
X164477428Y-136910765D01*
X164501227Y-136904804D01*
X164525495Y-136901204D01*
X164549999Y-136900000D01*
X165450001Y-136900000D01*
X165474505Y-136901204D01*
G37*
G04 #@! TD.AperFunction*
G04 #@! TA.AperFunction,SMDPad,CuDef*
G36*
X165474505Y-138951204D02*
G01*
X165498773Y-138954804D01*
X165522572Y-138960765D01*
X165545671Y-138969030D01*
X165567850Y-138979520D01*
X165588893Y-138992132D01*
X165608599Y-139006747D01*
X165626777Y-139023223D01*
X165643253Y-139041401D01*
X165657868Y-139061107D01*
X165670480Y-139082150D01*
X165680970Y-139104329D01*
X165689235Y-139127428D01*
X165695196Y-139151227D01*
X165698796Y-139175495D01*
X165700000Y-139199999D01*
X165700000Y-139850001D01*
X165698796Y-139874505D01*
X165695196Y-139898773D01*
X165689235Y-139922572D01*
X165680970Y-139945671D01*
X165670480Y-139967850D01*
X165657868Y-139988893D01*
X165643253Y-140008599D01*
X165626777Y-140026777D01*
X165608599Y-140043253D01*
X165588893Y-140057868D01*
X165567850Y-140070480D01*
X165545671Y-140080970D01*
X165522572Y-140089235D01*
X165498773Y-140095196D01*
X165474505Y-140098796D01*
X165450001Y-140100000D01*
X164549999Y-140100000D01*
X164525495Y-140098796D01*
X164501227Y-140095196D01*
X164477428Y-140089235D01*
X164454329Y-140080970D01*
X164432150Y-140070480D01*
X164411107Y-140057868D01*
X164391401Y-140043253D01*
X164373223Y-140026777D01*
X164356747Y-140008599D01*
X164342132Y-139988893D01*
X164329520Y-139967850D01*
X164319030Y-139945671D01*
X164310765Y-139922572D01*
X164304804Y-139898773D01*
X164301204Y-139874505D01*
X164300000Y-139850001D01*
X164300000Y-139199999D01*
X164301204Y-139175495D01*
X164304804Y-139151227D01*
X164310765Y-139127428D01*
X164319030Y-139104329D01*
X164329520Y-139082150D01*
X164342132Y-139061107D01*
X164356747Y-139041401D01*
X164373223Y-139023223D01*
X164391401Y-139006747D01*
X164411107Y-138992132D01*
X164432150Y-138979520D01*
X164454329Y-138969030D01*
X164477428Y-138960765D01*
X164501227Y-138954804D01*
X164525495Y-138951204D01*
X164549999Y-138950000D01*
X165450001Y-138950000D01*
X165474505Y-138951204D01*
G37*
G04 #@! TD.AperFunction*
G04 #@! TA.AperFunction,SMDPad,CuDef*
G36*
X164224505Y-88901204D02*
G01*
X164248773Y-88904804D01*
X164272572Y-88910765D01*
X164295671Y-88919030D01*
X164317850Y-88929520D01*
X164338893Y-88942132D01*
X164358599Y-88956747D01*
X164376777Y-88973223D01*
X164393253Y-88991401D01*
X164407868Y-89011107D01*
X164420480Y-89032150D01*
X164430970Y-89054329D01*
X164439235Y-89077428D01*
X164445196Y-89101227D01*
X164448796Y-89125495D01*
X164450000Y-89149999D01*
X164450000Y-89800001D01*
X164448796Y-89824505D01*
X164445196Y-89848773D01*
X164439235Y-89872572D01*
X164430970Y-89895671D01*
X164420480Y-89917850D01*
X164407868Y-89938893D01*
X164393253Y-89958599D01*
X164376777Y-89976777D01*
X164358599Y-89993253D01*
X164338893Y-90007868D01*
X164317850Y-90020480D01*
X164295671Y-90030970D01*
X164272572Y-90039235D01*
X164248773Y-90045196D01*
X164224505Y-90048796D01*
X164200001Y-90050000D01*
X163299999Y-90050000D01*
X163275495Y-90048796D01*
X163251227Y-90045196D01*
X163227428Y-90039235D01*
X163204329Y-90030970D01*
X163182150Y-90020480D01*
X163161107Y-90007868D01*
X163141401Y-89993253D01*
X163123223Y-89976777D01*
X163106747Y-89958599D01*
X163092132Y-89938893D01*
X163079520Y-89917850D01*
X163069030Y-89895671D01*
X163060765Y-89872572D01*
X163054804Y-89848773D01*
X163051204Y-89824505D01*
X163050000Y-89800001D01*
X163050000Y-89149999D01*
X163051204Y-89125495D01*
X163054804Y-89101227D01*
X163060765Y-89077428D01*
X163069030Y-89054329D01*
X163079520Y-89032150D01*
X163092132Y-89011107D01*
X163106747Y-88991401D01*
X163123223Y-88973223D01*
X163141401Y-88956747D01*
X163161107Y-88942132D01*
X163182150Y-88929520D01*
X163204329Y-88919030D01*
X163227428Y-88910765D01*
X163251227Y-88904804D01*
X163275495Y-88901204D01*
X163299999Y-88900000D01*
X164200001Y-88900000D01*
X164224505Y-88901204D01*
G37*
G04 #@! TD.AperFunction*
G04 #@! TA.AperFunction,SMDPad,CuDef*
G36*
X164224505Y-90951204D02*
G01*
X164248773Y-90954804D01*
X164272572Y-90960765D01*
X164295671Y-90969030D01*
X164317850Y-90979520D01*
X164338893Y-90992132D01*
X164358599Y-91006747D01*
X164376777Y-91023223D01*
X164393253Y-91041401D01*
X164407868Y-91061107D01*
X164420480Y-91082150D01*
X164430970Y-91104329D01*
X164439235Y-91127428D01*
X164445196Y-91151227D01*
X164448796Y-91175495D01*
X164450000Y-91199999D01*
X164450000Y-91850001D01*
X164448796Y-91874505D01*
X164445196Y-91898773D01*
X164439235Y-91922572D01*
X164430970Y-91945671D01*
X164420480Y-91967850D01*
X164407868Y-91988893D01*
X164393253Y-92008599D01*
X164376777Y-92026777D01*
X164358599Y-92043253D01*
X164338893Y-92057868D01*
X164317850Y-92070480D01*
X164295671Y-92080970D01*
X164272572Y-92089235D01*
X164248773Y-92095196D01*
X164224505Y-92098796D01*
X164200001Y-92100000D01*
X163299999Y-92100000D01*
X163275495Y-92098796D01*
X163251227Y-92095196D01*
X163227428Y-92089235D01*
X163204329Y-92080970D01*
X163182150Y-92070480D01*
X163161107Y-92057868D01*
X163141401Y-92043253D01*
X163123223Y-92026777D01*
X163106747Y-92008599D01*
X163092132Y-91988893D01*
X163079520Y-91967850D01*
X163069030Y-91945671D01*
X163060765Y-91922572D01*
X163054804Y-91898773D01*
X163051204Y-91874505D01*
X163050000Y-91850001D01*
X163050000Y-91199999D01*
X163051204Y-91175495D01*
X163054804Y-91151227D01*
X163060765Y-91127428D01*
X163069030Y-91104329D01*
X163079520Y-91082150D01*
X163092132Y-91061107D01*
X163106747Y-91041401D01*
X163123223Y-91023223D01*
X163141401Y-91006747D01*
X163161107Y-90992132D01*
X163182150Y-90979520D01*
X163204329Y-90969030D01*
X163227428Y-90960765D01*
X163251227Y-90954804D01*
X163275495Y-90951204D01*
X163299999Y-90950000D01*
X164200001Y-90950000D01*
X164224505Y-90951204D01*
G37*
G04 #@! TD.AperFunction*
G04 #@! TA.AperFunction,SMDPad,CuDef*
G36*
X136824505Y-132801204D02*
G01*
X136848773Y-132804804D01*
X136872572Y-132810765D01*
X136895671Y-132819030D01*
X136917850Y-132829520D01*
X136938893Y-132842132D01*
X136958599Y-132856747D01*
X136976777Y-132873223D01*
X136993253Y-132891401D01*
X137007868Y-132911107D01*
X137020480Y-132932150D01*
X137030970Y-132954329D01*
X137039235Y-132977428D01*
X137045196Y-133001227D01*
X137048796Y-133025495D01*
X137050000Y-133049999D01*
X137050000Y-133950001D01*
X137048796Y-133974505D01*
X137045196Y-133998773D01*
X137039235Y-134022572D01*
X137030970Y-134045671D01*
X137020480Y-134067850D01*
X137007868Y-134088893D01*
X136993253Y-134108599D01*
X136976777Y-134126777D01*
X136958599Y-134143253D01*
X136938893Y-134157868D01*
X136917850Y-134170480D01*
X136895671Y-134180970D01*
X136872572Y-134189235D01*
X136848773Y-134195196D01*
X136824505Y-134198796D01*
X136800001Y-134200000D01*
X136149999Y-134200000D01*
X136125495Y-134198796D01*
X136101227Y-134195196D01*
X136077428Y-134189235D01*
X136054329Y-134180970D01*
X136032150Y-134170480D01*
X136011107Y-134157868D01*
X135991401Y-134143253D01*
X135973223Y-134126777D01*
X135956747Y-134108599D01*
X135942132Y-134088893D01*
X135929520Y-134067850D01*
X135919030Y-134045671D01*
X135910765Y-134022572D01*
X135904804Y-133998773D01*
X135901204Y-133974505D01*
X135900000Y-133950001D01*
X135900000Y-133049999D01*
X135901204Y-133025495D01*
X135904804Y-133001227D01*
X135910765Y-132977428D01*
X135919030Y-132954329D01*
X135929520Y-132932150D01*
X135942132Y-132911107D01*
X135956747Y-132891401D01*
X135973223Y-132873223D01*
X135991401Y-132856747D01*
X136011107Y-132842132D01*
X136032150Y-132829520D01*
X136054329Y-132819030D01*
X136077428Y-132810765D01*
X136101227Y-132804804D01*
X136125495Y-132801204D01*
X136149999Y-132800000D01*
X136800001Y-132800000D01*
X136824505Y-132801204D01*
G37*
G04 #@! TD.AperFunction*
G04 #@! TA.AperFunction,SMDPad,CuDef*
G36*
X138874505Y-132801204D02*
G01*
X138898773Y-132804804D01*
X138922572Y-132810765D01*
X138945671Y-132819030D01*
X138967850Y-132829520D01*
X138988893Y-132842132D01*
X139008599Y-132856747D01*
X139026777Y-132873223D01*
X139043253Y-132891401D01*
X139057868Y-132911107D01*
X139070480Y-132932150D01*
X139080970Y-132954329D01*
X139089235Y-132977428D01*
X139095196Y-133001227D01*
X139098796Y-133025495D01*
X139100000Y-133049999D01*
X139100000Y-133950001D01*
X139098796Y-133974505D01*
X139095196Y-133998773D01*
X139089235Y-134022572D01*
X139080970Y-134045671D01*
X139070480Y-134067850D01*
X139057868Y-134088893D01*
X139043253Y-134108599D01*
X139026777Y-134126777D01*
X139008599Y-134143253D01*
X138988893Y-134157868D01*
X138967850Y-134170480D01*
X138945671Y-134180970D01*
X138922572Y-134189235D01*
X138898773Y-134195196D01*
X138874505Y-134198796D01*
X138850001Y-134200000D01*
X138199999Y-134200000D01*
X138175495Y-134198796D01*
X138151227Y-134195196D01*
X138127428Y-134189235D01*
X138104329Y-134180970D01*
X138082150Y-134170480D01*
X138061107Y-134157868D01*
X138041401Y-134143253D01*
X138023223Y-134126777D01*
X138006747Y-134108599D01*
X137992132Y-134088893D01*
X137979520Y-134067850D01*
X137969030Y-134045671D01*
X137960765Y-134022572D01*
X137954804Y-133998773D01*
X137951204Y-133974505D01*
X137950000Y-133950001D01*
X137950000Y-133049999D01*
X137951204Y-133025495D01*
X137954804Y-133001227D01*
X137960765Y-132977428D01*
X137969030Y-132954329D01*
X137979520Y-132932150D01*
X137992132Y-132911107D01*
X138006747Y-132891401D01*
X138023223Y-132873223D01*
X138041401Y-132856747D01*
X138061107Y-132842132D01*
X138082150Y-132829520D01*
X138104329Y-132819030D01*
X138127428Y-132810765D01*
X138151227Y-132804804D01*
X138175495Y-132801204D01*
X138199999Y-132800000D01*
X138850001Y-132800000D01*
X138874505Y-132801204D01*
G37*
G04 #@! TD.AperFunction*
G04 #@! TA.AperFunction,SMDPad,CuDef*
G36*
X161224505Y-79951204D02*
G01*
X161248773Y-79954804D01*
X161272572Y-79960765D01*
X161295671Y-79969030D01*
X161317850Y-79979520D01*
X161338893Y-79992132D01*
X161358599Y-80006747D01*
X161376777Y-80023223D01*
X161393253Y-80041401D01*
X161407868Y-80061107D01*
X161420480Y-80082150D01*
X161430970Y-80104329D01*
X161439235Y-80127428D01*
X161445196Y-80151227D01*
X161448796Y-80175495D01*
X161450000Y-80199999D01*
X161450000Y-80850001D01*
X161448796Y-80874505D01*
X161445196Y-80898773D01*
X161439235Y-80922572D01*
X161430970Y-80945671D01*
X161420480Y-80967850D01*
X161407868Y-80988893D01*
X161393253Y-81008599D01*
X161376777Y-81026777D01*
X161358599Y-81043253D01*
X161338893Y-81057868D01*
X161317850Y-81070480D01*
X161295671Y-81080970D01*
X161272572Y-81089235D01*
X161248773Y-81095196D01*
X161224505Y-81098796D01*
X161200001Y-81100000D01*
X160299999Y-81100000D01*
X160275495Y-81098796D01*
X160251227Y-81095196D01*
X160227428Y-81089235D01*
X160204329Y-81080970D01*
X160182150Y-81070480D01*
X160161107Y-81057868D01*
X160141401Y-81043253D01*
X160123223Y-81026777D01*
X160106747Y-81008599D01*
X160092132Y-80988893D01*
X160079520Y-80967850D01*
X160069030Y-80945671D01*
X160060765Y-80922572D01*
X160054804Y-80898773D01*
X160051204Y-80874505D01*
X160050000Y-80850001D01*
X160050000Y-80199999D01*
X160051204Y-80175495D01*
X160054804Y-80151227D01*
X160060765Y-80127428D01*
X160069030Y-80104329D01*
X160079520Y-80082150D01*
X160092132Y-80061107D01*
X160106747Y-80041401D01*
X160123223Y-80023223D01*
X160141401Y-80006747D01*
X160161107Y-79992132D01*
X160182150Y-79979520D01*
X160204329Y-79969030D01*
X160227428Y-79960765D01*
X160251227Y-79954804D01*
X160275495Y-79951204D01*
X160299999Y-79950000D01*
X161200001Y-79950000D01*
X161224505Y-79951204D01*
G37*
G04 #@! TD.AperFunction*
G04 #@! TA.AperFunction,SMDPad,CuDef*
G36*
X161224505Y-77901204D02*
G01*
X161248773Y-77904804D01*
X161272572Y-77910765D01*
X161295671Y-77919030D01*
X161317850Y-77929520D01*
X161338893Y-77942132D01*
X161358599Y-77956747D01*
X161376777Y-77973223D01*
X161393253Y-77991401D01*
X161407868Y-78011107D01*
X161420480Y-78032150D01*
X161430970Y-78054329D01*
X161439235Y-78077428D01*
X161445196Y-78101227D01*
X161448796Y-78125495D01*
X161450000Y-78149999D01*
X161450000Y-78800001D01*
X161448796Y-78824505D01*
X161445196Y-78848773D01*
X161439235Y-78872572D01*
X161430970Y-78895671D01*
X161420480Y-78917850D01*
X161407868Y-78938893D01*
X161393253Y-78958599D01*
X161376777Y-78976777D01*
X161358599Y-78993253D01*
X161338893Y-79007868D01*
X161317850Y-79020480D01*
X161295671Y-79030970D01*
X161272572Y-79039235D01*
X161248773Y-79045196D01*
X161224505Y-79048796D01*
X161200001Y-79050000D01*
X160299999Y-79050000D01*
X160275495Y-79048796D01*
X160251227Y-79045196D01*
X160227428Y-79039235D01*
X160204329Y-79030970D01*
X160182150Y-79020480D01*
X160161107Y-79007868D01*
X160141401Y-78993253D01*
X160123223Y-78976777D01*
X160106747Y-78958599D01*
X160092132Y-78938893D01*
X160079520Y-78917850D01*
X160069030Y-78895671D01*
X160060765Y-78872572D01*
X160054804Y-78848773D01*
X160051204Y-78824505D01*
X160050000Y-78800001D01*
X160050000Y-78149999D01*
X160051204Y-78125495D01*
X160054804Y-78101227D01*
X160060765Y-78077428D01*
X160069030Y-78054329D01*
X160079520Y-78032150D01*
X160092132Y-78011107D01*
X160106747Y-77991401D01*
X160123223Y-77973223D01*
X160141401Y-77956747D01*
X160161107Y-77942132D01*
X160182150Y-77929520D01*
X160204329Y-77919030D01*
X160227428Y-77910765D01*
X160251227Y-77904804D01*
X160275495Y-77901204D01*
X160299999Y-77900000D01*
X161200001Y-77900000D01*
X161224505Y-77901204D01*
G37*
G04 #@! TD.AperFunction*
G04 #@! TA.AperFunction,SMDPad,CuDef*
G36*
X157224505Y-79951204D02*
G01*
X157248773Y-79954804D01*
X157272572Y-79960765D01*
X157295671Y-79969030D01*
X157317850Y-79979520D01*
X157338893Y-79992132D01*
X157358599Y-80006747D01*
X157376777Y-80023223D01*
X157393253Y-80041401D01*
X157407868Y-80061107D01*
X157420480Y-80082150D01*
X157430970Y-80104329D01*
X157439235Y-80127428D01*
X157445196Y-80151227D01*
X157448796Y-80175495D01*
X157450000Y-80199999D01*
X157450000Y-80850001D01*
X157448796Y-80874505D01*
X157445196Y-80898773D01*
X157439235Y-80922572D01*
X157430970Y-80945671D01*
X157420480Y-80967850D01*
X157407868Y-80988893D01*
X157393253Y-81008599D01*
X157376777Y-81026777D01*
X157358599Y-81043253D01*
X157338893Y-81057868D01*
X157317850Y-81070480D01*
X157295671Y-81080970D01*
X157272572Y-81089235D01*
X157248773Y-81095196D01*
X157224505Y-81098796D01*
X157200001Y-81100000D01*
X156299999Y-81100000D01*
X156275495Y-81098796D01*
X156251227Y-81095196D01*
X156227428Y-81089235D01*
X156204329Y-81080970D01*
X156182150Y-81070480D01*
X156161107Y-81057868D01*
X156141401Y-81043253D01*
X156123223Y-81026777D01*
X156106747Y-81008599D01*
X156092132Y-80988893D01*
X156079520Y-80967850D01*
X156069030Y-80945671D01*
X156060765Y-80922572D01*
X156054804Y-80898773D01*
X156051204Y-80874505D01*
X156050000Y-80850001D01*
X156050000Y-80199999D01*
X156051204Y-80175495D01*
X156054804Y-80151227D01*
X156060765Y-80127428D01*
X156069030Y-80104329D01*
X156079520Y-80082150D01*
X156092132Y-80061107D01*
X156106747Y-80041401D01*
X156123223Y-80023223D01*
X156141401Y-80006747D01*
X156161107Y-79992132D01*
X156182150Y-79979520D01*
X156204329Y-79969030D01*
X156227428Y-79960765D01*
X156251227Y-79954804D01*
X156275495Y-79951204D01*
X156299999Y-79950000D01*
X157200001Y-79950000D01*
X157224505Y-79951204D01*
G37*
G04 #@! TD.AperFunction*
G04 #@! TA.AperFunction,SMDPad,CuDef*
G36*
X157224505Y-77901204D02*
G01*
X157248773Y-77904804D01*
X157272572Y-77910765D01*
X157295671Y-77919030D01*
X157317850Y-77929520D01*
X157338893Y-77942132D01*
X157358599Y-77956747D01*
X157376777Y-77973223D01*
X157393253Y-77991401D01*
X157407868Y-78011107D01*
X157420480Y-78032150D01*
X157430970Y-78054329D01*
X157439235Y-78077428D01*
X157445196Y-78101227D01*
X157448796Y-78125495D01*
X157450000Y-78149999D01*
X157450000Y-78800001D01*
X157448796Y-78824505D01*
X157445196Y-78848773D01*
X157439235Y-78872572D01*
X157430970Y-78895671D01*
X157420480Y-78917850D01*
X157407868Y-78938893D01*
X157393253Y-78958599D01*
X157376777Y-78976777D01*
X157358599Y-78993253D01*
X157338893Y-79007868D01*
X157317850Y-79020480D01*
X157295671Y-79030970D01*
X157272572Y-79039235D01*
X157248773Y-79045196D01*
X157224505Y-79048796D01*
X157200001Y-79050000D01*
X156299999Y-79050000D01*
X156275495Y-79048796D01*
X156251227Y-79045196D01*
X156227428Y-79039235D01*
X156204329Y-79030970D01*
X156182150Y-79020480D01*
X156161107Y-79007868D01*
X156141401Y-78993253D01*
X156123223Y-78976777D01*
X156106747Y-78958599D01*
X156092132Y-78938893D01*
X156079520Y-78917850D01*
X156069030Y-78895671D01*
X156060765Y-78872572D01*
X156054804Y-78848773D01*
X156051204Y-78824505D01*
X156050000Y-78800001D01*
X156050000Y-78149999D01*
X156051204Y-78125495D01*
X156054804Y-78101227D01*
X156060765Y-78077428D01*
X156069030Y-78054329D01*
X156079520Y-78032150D01*
X156092132Y-78011107D01*
X156106747Y-77991401D01*
X156123223Y-77973223D01*
X156141401Y-77956747D01*
X156161107Y-77942132D01*
X156182150Y-77929520D01*
X156204329Y-77919030D01*
X156227428Y-77910765D01*
X156251227Y-77904804D01*
X156275495Y-77901204D01*
X156299999Y-77900000D01*
X157200001Y-77900000D01*
X157224505Y-77901204D01*
G37*
G04 #@! TD.AperFunction*
G04 #@! TA.AperFunction,SMDPad,CuDef*
G36*
X169224505Y-77876204D02*
G01*
X169248773Y-77879804D01*
X169272572Y-77885765D01*
X169295671Y-77894030D01*
X169317850Y-77904520D01*
X169338893Y-77917132D01*
X169358599Y-77931747D01*
X169376777Y-77948223D01*
X169393253Y-77966401D01*
X169407868Y-77986107D01*
X169420480Y-78007150D01*
X169430970Y-78029329D01*
X169439235Y-78052428D01*
X169445196Y-78076227D01*
X169448796Y-78100495D01*
X169450000Y-78124999D01*
X169450000Y-78775001D01*
X169448796Y-78799505D01*
X169445196Y-78823773D01*
X169439235Y-78847572D01*
X169430970Y-78870671D01*
X169420480Y-78892850D01*
X169407868Y-78913893D01*
X169393253Y-78933599D01*
X169376777Y-78951777D01*
X169358599Y-78968253D01*
X169338893Y-78982868D01*
X169317850Y-78995480D01*
X169295671Y-79005970D01*
X169272572Y-79014235D01*
X169248773Y-79020196D01*
X169224505Y-79023796D01*
X169200001Y-79025000D01*
X168299999Y-79025000D01*
X168275495Y-79023796D01*
X168251227Y-79020196D01*
X168227428Y-79014235D01*
X168204329Y-79005970D01*
X168182150Y-78995480D01*
X168161107Y-78982868D01*
X168141401Y-78968253D01*
X168123223Y-78951777D01*
X168106747Y-78933599D01*
X168092132Y-78913893D01*
X168079520Y-78892850D01*
X168069030Y-78870671D01*
X168060765Y-78847572D01*
X168054804Y-78823773D01*
X168051204Y-78799505D01*
X168050000Y-78775001D01*
X168050000Y-78124999D01*
X168051204Y-78100495D01*
X168054804Y-78076227D01*
X168060765Y-78052428D01*
X168069030Y-78029329D01*
X168079520Y-78007150D01*
X168092132Y-77986107D01*
X168106747Y-77966401D01*
X168123223Y-77948223D01*
X168141401Y-77931747D01*
X168161107Y-77917132D01*
X168182150Y-77904520D01*
X168204329Y-77894030D01*
X168227428Y-77885765D01*
X168251227Y-77879804D01*
X168275495Y-77876204D01*
X168299999Y-77875000D01*
X169200001Y-77875000D01*
X169224505Y-77876204D01*
G37*
G04 #@! TD.AperFunction*
G04 #@! TA.AperFunction,SMDPad,CuDef*
G36*
X169224505Y-79926204D02*
G01*
X169248773Y-79929804D01*
X169272572Y-79935765D01*
X169295671Y-79944030D01*
X169317850Y-79954520D01*
X169338893Y-79967132D01*
X169358599Y-79981747D01*
X169376777Y-79998223D01*
X169393253Y-80016401D01*
X169407868Y-80036107D01*
X169420480Y-80057150D01*
X169430970Y-80079329D01*
X169439235Y-80102428D01*
X169445196Y-80126227D01*
X169448796Y-80150495D01*
X169450000Y-80174999D01*
X169450000Y-80825001D01*
X169448796Y-80849505D01*
X169445196Y-80873773D01*
X169439235Y-80897572D01*
X169430970Y-80920671D01*
X169420480Y-80942850D01*
X169407868Y-80963893D01*
X169393253Y-80983599D01*
X169376777Y-81001777D01*
X169358599Y-81018253D01*
X169338893Y-81032868D01*
X169317850Y-81045480D01*
X169295671Y-81055970D01*
X169272572Y-81064235D01*
X169248773Y-81070196D01*
X169224505Y-81073796D01*
X169200001Y-81075000D01*
X168299999Y-81075000D01*
X168275495Y-81073796D01*
X168251227Y-81070196D01*
X168227428Y-81064235D01*
X168204329Y-81055970D01*
X168182150Y-81045480D01*
X168161107Y-81032868D01*
X168141401Y-81018253D01*
X168123223Y-81001777D01*
X168106747Y-80983599D01*
X168092132Y-80963893D01*
X168079520Y-80942850D01*
X168069030Y-80920671D01*
X168060765Y-80897572D01*
X168054804Y-80873773D01*
X168051204Y-80849505D01*
X168050000Y-80825001D01*
X168050000Y-80174999D01*
X168051204Y-80150495D01*
X168054804Y-80126227D01*
X168060765Y-80102428D01*
X168069030Y-80079329D01*
X168079520Y-80057150D01*
X168092132Y-80036107D01*
X168106747Y-80016401D01*
X168123223Y-79998223D01*
X168141401Y-79981747D01*
X168161107Y-79967132D01*
X168182150Y-79954520D01*
X168204329Y-79944030D01*
X168227428Y-79935765D01*
X168251227Y-79929804D01*
X168275495Y-79926204D01*
X168299999Y-79925000D01*
X169200001Y-79925000D01*
X169224505Y-79926204D01*
G37*
G04 #@! TD.AperFunction*
G04 #@! TA.AperFunction,SMDPad,CuDef*
G36*
X165224505Y-77901204D02*
G01*
X165248773Y-77904804D01*
X165272572Y-77910765D01*
X165295671Y-77919030D01*
X165317850Y-77929520D01*
X165338893Y-77942132D01*
X165358599Y-77956747D01*
X165376777Y-77973223D01*
X165393253Y-77991401D01*
X165407868Y-78011107D01*
X165420480Y-78032150D01*
X165430970Y-78054329D01*
X165439235Y-78077428D01*
X165445196Y-78101227D01*
X165448796Y-78125495D01*
X165450000Y-78149999D01*
X165450000Y-78800001D01*
X165448796Y-78824505D01*
X165445196Y-78848773D01*
X165439235Y-78872572D01*
X165430970Y-78895671D01*
X165420480Y-78917850D01*
X165407868Y-78938893D01*
X165393253Y-78958599D01*
X165376777Y-78976777D01*
X165358599Y-78993253D01*
X165338893Y-79007868D01*
X165317850Y-79020480D01*
X165295671Y-79030970D01*
X165272572Y-79039235D01*
X165248773Y-79045196D01*
X165224505Y-79048796D01*
X165200001Y-79050000D01*
X164299999Y-79050000D01*
X164275495Y-79048796D01*
X164251227Y-79045196D01*
X164227428Y-79039235D01*
X164204329Y-79030970D01*
X164182150Y-79020480D01*
X164161107Y-79007868D01*
X164141401Y-78993253D01*
X164123223Y-78976777D01*
X164106747Y-78958599D01*
X164092132Y-78938893D01*
X164079520Y-78917850D01*
X164069030Y-78895671D01*
X164060765Y-78872572D01*
X164054804Y-78848773D01*
X164051204Y-78824505D01*
X164050000Y-78800001D01*
X164050000Y-78149999D01*
X164051204Y-78125495D01*
X164054804Y-78101227D01*
X164060765Y-78077428D01*
X164069030Y-78054329D01*
X164079520Y-78032150D01*
X164092132Y-78011107D01*
X164106747Y-77991401D01*
X164123223Y-77973223D01*
X164141401Y-77956747D01*
X164161107Y-77942132D01*
X164182150Y-77929520D01*
X164204329Y-77919030D01*
X164227428Y-77910765D01*
X164251227Y-77904804D01*
X164275495Y-77901204D01*
X164299999Y-77900000D01*
X165200001Y-77900000D01*
X165224505Y-77901204D01*
G37*
G04 #@! TD.AperFunction*
G04 #@! TA.AperFunction,SMDPad,CuDef*
G36*
X165224505Y-79951204D02*
G01*
X165248773Y-79954804D01*
X165272572Y-79960765D01*
X165295671Y-79969030D01*
X165317850Y-79979520D01*
X165338893Y-79992132D01*
X165358599Y-80006747D01*
X165376777Y-80023223D01*
X165393253Y-80041401D01*
X165407868Y-80061107D01*
X165420480Y-80082150D01*
X165430970Y-80104329D01*
X165439235Y-80127428D01*
X165445196Y-80151227D01*
X165448796Y-80175495D01*
X165450000Y-80199999D01*
X165450000Y-80850001D01*
X165448796Y-80874505D01*
X165445196Y-80898773D01*
X165439235Y-80922572D01*
X165430970Y-80945671D01*
X165420480Y-80967850D01*
X165407868Y-80988893D01*
X165393253Y-81008599D01*
X165376777Y-81026777D01*
X165358599Y-81043253D01*
X165338893Y-81057868D01*
X165317850Y-81070480D01*
X165295671Y-81080970D01*
X165272572Y-81089235D01*
X165248773Y-81095196D01*
X165224505Y-81098796D01*
X165200001Y-81100000D01*
X164299999Y-81100000D01*
X164275495Y-81098796D01*
X164251227Y-81095196D01*
X164227428Y-81089235D01*
X164204329Y-81080970D01*
X164182150Y-81070480D01*
X164161107Y-81057868D01*
X164141401Y-81043253D01*
X164123223Y-81026777D01*
X164106747Y-81008599D01*
X164092132Y-80988893D01*
X164079520Y-80967850D01*
X164069030Y-80945671D01*
X164060765Y-80922572D01*
X164054804Y-80898773D01*
X164051204Y-80874505D01*
X164050000Y-80850001D01*
X164050000Y-80199999D01*
X164051204Y-80175495D01*
X164054804Y-80151227D01*
X164060765Y-80127428D01*
X164069030Y-80104329D01*
X164079520Y-80082150D01*
X164092132Y-80061107D01*
X164106747Y-80041401D01*
X164123223Y-80023223D01*
X164141401Y-80006747D01*
X164161107Y-79992132D01*
X164182150Y-79979520D01*
X164204329Y-79969030D01*
X164227428Y-79960765D01*
X164251227Y-79954804D01*
X164275495Y-79951204D01*
X164299999Y-79950000D01*
X165200001Y-79950000D01*
X165224505Y-79951204D01*
G37*
G04 #@! TD.AperFunction*
G04 #@! TA.AperFunction,SMDPad,CuDef*
G36*
X166974505Y-90951204D02*
G01*
X166998773Y-90954804D01*
X167022572Y-90960765D01*
X167045671Y-90969030D01*
X167067850Y-90979520D01*
X167088893Y-90992132D01*
X167108599Y-91006747D01*
X167126777Y-91023223D01*
X167143253Y-91041401D01*
X167157868Y-91061107D01*
X167170480Y-91082150D01*
X167180970Y-91104329D01*
X167189235Y-91127428D01*
X167195196Y-91151227D01*
X167198796Y-91175495D01*
X167200000Y-91199999D01*
X167200000Y-91850001D01*
X167198796Y-91874505D01*
X167195196Y-91898773D01*
X167189235Y-91922572D01*
X167180970Y-91945671D01*
X167170480Y-91967850D01*
X167157868Y-91988893D01*
X167143253Y-92008599D01*
X167126777Y-92026777D01*
X167108599Y-92043253D01*
X167088893Y-92057868D01*
X167067850Y-92070480D01*
X167045671Y-92080970D01*
X167022572Y-92089235D01*
X166998773Y-92095196D01*
X166974505Y-92098796D01*
X166950001Y-92100000D01*
X166049999Y-92100000D01*
X166025495Y-92098796D01*
X166001227Y-92095196D01*
X165977428Y-92089235D01*
X165954329Y-92080970D01*
X165932150Y-92070480D01*
X165911107Y-92057868D01*
X165891401Y-92043253D01*
X165873223Y-92026777D01*
X165856747Y-92008599D01*
X165842132Y-91988893D01*
X165829520Y-91967850D01*
X165819030Y-91945671D01*
X165810765Y-91922572D01*
X165804804Y-91898773D01*
X165801204Y-91874505D01*
X165800000Y-91850001D01*
X165800000Y-91199999D01*
X165801204Y-91175495D01*
X165804804Y-91151227D01*
X165810765Y-91127428D01*
X165819030Y-91104329D01*
X165829520Y-91082150D01*
X165842132Y-91061107D01*
X165856747Y-91041401D01*
X165873223Y-91023223D01*
X165891401Y-91006747D01*
X165911107Y-90992132D01*
X165932150Y-90979520D01*
X165954329Y-90969030D01*
X165977428Y-90960765D01*
X166001227Y-90954804D01*
X166025495Y-90951204D01*
X166049999Y-90950000D01*
X166950001Y-90950000D01*
X166974505Y-90951204D01*
G37*
G04 #@! TD.AperFunction*
G04 #@! TA.AperFunction,SMDPad,CuDef*
G36*
X166974505Y-88901204D02*
G01*
X166998773Y-88904804D01*
X167022572Y-88910765D01*
X167045671Y-88919030D01*
X167067850Y-88929520D01*
X167088893Y-88942132D01*
X167108599Y-88956747D01*
X167126777Y-88973223D01*
X167143253Y-88991401D01*
X167157868Y-89011107D01*
X167170480Y-89032150D01*
X167180970Y-89054329D01*
X167189235Y-89077428D01*
X167195196Y-89101227D01*
X167198796Y-89125495D01*
X167200000Y-89149999D01*
X167200000Y-89800001D01*
X167198796Y-89824505D01*
X167195196Y-89848773D01*
X167189235Y-89872572D01*
X167180970Y-89895671D01*
X167170480Y-89917850D01*
X167157868Y-89938893D01*
X167143253Y-89958599D01*
X167126777Y-89976777D01*
X167108599Y-89993253D01*
X167088893Y-90007868D01*
X167067850Y-90020480D01*
X167045671Y-90030970D01*
X167022572Y-90039235D01*
X166998773Y-90045196D01*
X166974505Y-90048796D01*
X166950001Y-90050000D01*
X166049999Y-90050000D01*
X166025495Y-90048796D01*
X166001227Y-90045196D01*
X165977428Y-90039235D01*
X165954329Y-90030970D01*
X165932150Y-90020480D01*
X165911107Y-90007868D01*
X165891401Y-89993253D01*
X165873223Y-89976777D01*
X165856747Y-89958599D01*
X165842132Y-89938893D01*
X165829520Y-89917850D01*
X165819030Y-89895671D01*
X165810765Y-89872572D01*
X165804804Y-89848773D01*
X165801204Y-89824505D01*
X165800000Y-89800001D01*
X165800000Y-89149999D01*
X165801204Y-89125495D01*
X165804804Y-89101227D01*
X165810765Y-89077428D01*
X165819030Y-89054329D01*
X165829520Y-89032150D01*
X165842132Y-89011107D01*
X165856747Y-88991401D01*
X165873223Y-88973223D01*
X165891401Y-88956747D01*
X165911107Y-88942132D01*
X165932150Y-88929520D01*
X165954329Y-88919030D01*
X165977428Y-88910765D01*
X166001227Y-88904804D01*
X166025495Y-88901204D01*
X166049999Y-88900000D01*
X166950001Y-88900000D01*
X166974505Y-88901204D01*
G37*
G04 #@! TD.AperFunction*
G04 #@! TA.AperFunction,SMDPad,CuDef*
G36*
X138874505Y-130551204D02*
G01*
X138898773Y-130554804D01*
X138922572Y-130560765D01*
X138945671Y-130569030D01*
X138967850Y-130579520D01*
X138988893Y-130592132D01*
X139008599Y-130606747D01*
X139026777Y-130623223D01*
X139043253Y-130641401D01*
X139057868Y-130661107D01*
X139070480Y-130682150D01*
X139080970Y-130704329D01*
X139089235Y-130727428D01*
X139095196Y-130751227D01*
X139098796Y-130775495D01*
X139100000Y-130799999D01*
X139100000Y-131700001D01*
X139098796Y-131724505D01*
X139095196Y-131748773D01*
X139089235Y-131772572D01*
X139080970Y-131795671D01*
X139070480Y-131817850D01*
X139057868Y-131838893D01*
X139043253Y-131858599D01*
X139026777Y-131876777D01*
X139008599Y-131893253D01*
X138988893Y-131907868D01*
X138967850Y-131920480D01*
X138945671Y-131930970D01*
X138922572Y-131939235D01*
X138898773Y-131945196D01*
X138874505Y-131948796D01*
X138850001Y-131950000D01*
X138199999Y-131950000D01*
X138175495Y-131948796D01*
X138151227Y-131945196D01*
X138127428Y-131939235D01*
X138104329Y-131930970D01*
X138082150Y-131920480D01*
X138061107Y-131907868D01*
X138041401Y-131893253D01*
X138023223Y-131876777D01*
X138006747Y-131858599D01*
X137992132Y-131838893D01*
X137979520Y-131817850D01*
X137969030Y-131795671D01*
X137960765Y-131772572D01*
X137954804Y-131748773D01*
X137951204Y-131724505D01*
X137950000Y-131700001D01*
X137950000Y-130799999D01*
X137951204Y-130775495D01*
X137954804Y-130751227D01*
X137960765Y-130727428D01*
X137969030Y-130704329D01*
X137979520Y-130682150D01*
X137992132Y-130661107D01*
X138006747Y-130641401D01*
X138023223Y-130623223D01*
X138041401Y-130606747D01*
X138061107Y-130592132D01*
X138082150Y-130579520D01*
X138104329Y-130569030D01*
X138127428Y-130560765D01*
X138151227Y-130554804D01*
X138175495Y-130551204D01*
X138199999Y-130550000D01*
X138850001Y-130550000D01*
X138874505Y-130551204D01*
G37*
G04 #@! TD.AperFunction*
G04 #@! TA.AperFunction,SMDPad,CuDef*
G36*
X136824505Y-130551204D02*
G01*
X136848773Y-130554804D01*
X136872572Y-130560765D01*
X136895671Y-130569030D01*
X136917850Y-130579520D01*
X136938893Y-130592132D01*
X136958599Y-130606747D01*
X136976777Y-130623223D01*
X136993253Y-130641401D01*
X137007868Y-130661107D01*
X137020480Y-130682150D01*
X137030970Y-130704329D01*
X137039235Y-130727428D01*
X137045196Y-130751227D01*
X137048796Y-130775495D01*
X137050000Y-130799999D01*
X137050000Y-131700001D01*
X137048796Y-131724505D01*
X137045196Y-131748773D01*
X137039235Y-131772572D01*
X137030970Y-131795671D01*
X137020480Y-131817850D01*
X137007868Y-131838893D01*
X136993253Y-131858599D01*
X136976777Y-131876777D01*
X136958599Y-131893253D01*
X136938893Y-131907868D01*
X136917850Y-131920480D01*
X136895671Y-131930970D01*
X136872572Y-131939235D01*
X136848773Y-131945196D01*
X136824505Y-131948796D01*
X136800001Y-131950000D01*
X136149999Y-131950000D01*
X136125495Y-131948796D01*
X136101227Y-131945196D01*
X136077428Y-131939235D01*
X136054329Y-131930970D01*
X136032150Y-131920480D01*
X136011107Y-131907868D01*
X135991401Y-131893253D01*
X135973223Y-131876777D01*
X135956747Y-131858599D01*
X135942132Y-131838893D01*
X135929520Y-131817850D01*
X135919030Y-131795671D01*
X135910765Y-131772572D01*
X135904804Y-131748773D01*
X135901204Y-131724505D01*
X135900000Y-131700001D01*
X135900000Y-130799999D01*
X135901204Y-130775495D01*
X135904804Y-130751227D01*
X135910765Y-130727428D01*
X135919030Y-130704329D01*
X135929520Y-130682150D01*
X135942132Y-130661107D01*
X135956747Y-130641401D01*
X135973223Y-130623223D01*
X135991401Y-130606747D01*
X136011107Y-130592132D01*
X136032150Y-130579520D01*
X136054329Y-130569030D01*
X136077428Y-130560765D01*
X136101227Y-130554804D01*
X136125495Y-130551204D01*
X136149999Y-130550000D01*
X136800001Y-130550000D01*
X136824505Y-130551204D01*
G37*
G04 #@! TD.AperFunction*
G04 #@! TA.AperFunction,SMDPad,CuDef*
G36*
X157974505Y-114451204D02*
G01*
X157998773Y-114454804D01*
X158022572Y-114460765D01*
X158045671Y-114469030D01*
X158067850Y-114479520D01*
X158088893Y-114492132D01*
X158108599Y-114506747D01*
X158126777Y-114523223D01*
X158143253Y-114541401D01*
X158157868Y-114561107D01*
X158170480Y-114582150D01*
X158180970Y-114604329D01*
X158189235Y-114627428D01*
X158195196Y-114651227D01*
X158198796Y-114675495D01*
X158200000Y-114699999D01*
X158200000Y-115350001D01*
X158198796Y-115374505D01*
X158195196Y-115398773D01*
X158189235Y-115422572D01*
X158180970Y-115445671D01*
X158170480Y-115467850D01*
X158157868Y-115488893D01*
X158143253Y-115508599D01*
X158126777Y-115526777D01*
X158108599Y-115543253D01*
X158088893Y-115557868D01*
X158067850Y-115570480D01*
X158045671Y-115580970D01*
X158022572Y-115589235D01*
X157998773Y-115595196D01*
X157974505Y-115598796D01*
X157950001Y-115600000D01*
X157049999Y-115600000D01*
X157025495Y-115598796D01*
X157001227Y-115595196D01*
X156977428Y-115589235D01*
X156954329Y-115580970D01*
X156932150Y-115570480D01*
X156911107Y-115557868D01*
X156891401Y-115543253D01*
X156873223Y-115526777D01*
X156856747Y-115508599D01*
X156842132Y-115488893D01*
X156829520Y-115467850D01*
X156819030Y-115445671D01*
X156810765Y-115422572D01*
X156804804Y-115398773D01*
X156801204Y-115374505D01*
X156800000Y-115350001D01*
X156800000Y-114699999D01*
X156801204Y-114675495D01*
X156804804Y-114651227D01*
X156810765Y-114627428D01*
X156819030Y-114604329D01*
X156829520Y-114582150D01*
X156842132Y-114561107D01*
X156856747Y-114541401D01*
X156873223Y-114523223D01*
X156891401Y-114506747D01*
X156911107Y-114492132D01*
X156932150Y-114479520D01*
X156954329Y-114469030D01*
X156977428Y-114460765D01*
X157001227Y-114454804D01*
X157025495Y-114451204D01*
X157049999Y-114450000D01*
X157950001Y-114450000D01*
X157974505Y-114451204D01*
G37*
G04 #@! TD.AperFunction*
G04 #@! TA.AperFunction,SMDPad,CuDef*
G36*
X157974505Y-112401204D02*
G01*
X157998773Y-112404804D01*
X158022572Y-112410765D01*
X158045671Y-112419030D01*
X158067850Y-112429520D01*
X158088893Y-112442132D01*
X158108599Y-112456747D01*
X158126777Y-112473223D01*
X158143253Y-112491401D01*
X158157868Y-112511107D01*
X158170480Y-112532150D01*
X158180970Y-112554329D01*
X158189235Y-112577428D01*
X158195196Y-112601227D01*
X158198796Y-112625495D01*
X158200000Y-112649999D01*
X158200000Y-113300001D01*
X158198796Y-113324505D01*
X158195196Y-113348773D01*
X158189235Y-113372572D01*
X158180970Y-113395671D01*
X158170480Y-113417850D01*
X158157868Y-113438893D01*
X158143253Y-113458599D01*
X158126777Y-113476777D01*
X158108599Y-113493253D01*
X158088893Y-113507868D01*
X158067850Y-113520480D01*
X158045671Y-113530970D01*
X158022572Y-113539235D01*
X157998773Y-113545196D01*
X157974505Y-113548796D01*
X157950001Y-113550000D01*
X157049999Y-113550000D01*
X157025495Y-113548796D01*
X157001227Y-113545196D01*
X156977428Y-113539235D01*
X156954329Y-113530970D01*
X156932150Y-113520480D01*
X156911107Y-113507868D01*
X156891401Y-113493253D01*
X156873223Y-113476777D01*
X156856747Y-113458599D01*
X156842132Y-113438893D01*
X156829520Y-113417850D01*
X156819030Y-113395671D01*
X156810765Y-113372572D01*
X156804804Y-113348773D01*
X156801204Y-113324505D01*
X156800000Y-113300001D01*
X156800000Y-112649999D01*
X156801204Y-112625495D01*
X156804804Y-112601227D01*
X156810765Y-112577428D01*
X156819030Y-112554329D01*
X156829520Y-112532150D01*
X156842132Y-112511107D01*
X156856747Y-112491401D01*
X156873223Y-112473223D01*
X156891401Y-112456747D01*
X156911107Y-112442132D01*
X156932150Y-112429520D01*
X156954329Y-112419030D01*
X156977428Y-112410765D01*
X157001227Y-112404804D01*
X157025495Y-112401204D01*
X157049999Y-112400000D01*
X157950001Y-112400000D01*
X157974505Y-112401204D01*
G37*
G04 #@! TD.AperFunction*
D23*
X156500000Y-134880000D03*
X159040000Y-134880000D03*
X161580000Y-134880000D03*
X164120000Y-134880000D03*
X164120000Y-142500000D03*
X161580000Y-142500000D03*
X159040000Y-142500000D03*
D20*
X156500000Y-142500000D03*
G04 #@! TA.AperFunction,ComponentPad*
D15*
G36*
X168749504Y-116151204D02*
G01*
X168773773Y-116154804D01*
X168797571Y-116160765D01*
X168820671Y-116169030D01*
X168842849Y-116179520D01*
X168863893Y-116192133D01*
X168883598Y-116206747D01*
X168901777Y-116223223D01*
X168918253Y-116241402D01*
X168932867Y-116261107D01*
X168945480Y-116282151D01*
X168955970Y-116304329D01*
X168964235Y-116327429D01*
X168970196Y-116351227D01*
X168973796Y-116375496D01*
X168975000Y-116400000D01*
X168975000Y-117600000D01*
X168973796Y-117624504D01*
X168970196Y-117648773D01*
X168964235Y-117672571D01*
X168955970Y-117695671D01*
X168945480Y-117717849D01*
X168932867Y-117738893D01*
X168918253Y-117758598D01*
X168901777Y-117776777D01*
X168883598Y-117793253D01*
X168863893Y-117807867D01*
X168842849Y-117820480D01*
X168820671Y-117830970D01*
X168797571Y-117839235D01*
X168773773Y-117845196D01*
X168749504Y-117848796D01*
X168725000Y-117850000D01*
X167275000Y-117850000D01*
X167250496Y-117848796D01*
X167226227Y-117845196D01*
X167202429Y-117839235D01*
X167179329Y-117830970D01*
X167157151Y-117820480D01*
X167136107Y-117807867D01*
X167116402Y-117793253D01*
X167098223Y-117776777D01*
X167081747Y-117758598D01*
X167067133Y-117738893D01*
X167054520Y-117717849D01*
X167044030Y-117695671D01*
X167035765Y-117672571D01*
X167029804Y-117648773D01*
X167026204Y-117624504D01*
X167025000Y-117600000D01*
X167025000Y-116400000D01*
X167026204Y-116375496D01*
X167029804Y-116351227D01*
X167035765Y-116327429D01*
X167044030Y-116304329D01*
X167054520Y-116282151D01*
X167067133Y-116261107D01*
X167081747Y-116241402D01*
X167098223Y-116223223D01*
X167116402Y-116206747D01*
X167136107Y-116192133D01*
X167157151Y-116179520D01*
X167179329Y-116169030D01*
X167202429Y-116160765D01*
X167226227Y-116154804D01*
X167250496Y-116151204D01*
X167275000Y-116150000D01*
X168725000Y-116150000D01*
X168749504Y-116151204D01*
G37*
G04 #@! TD.AperFunction*
D14*
X168000000Y-114500000D03*
X168000000Y-112000000D03*
X168000000Y-109500000D03*
X168000000Y-107000000D03*
D18*
X140900000Y-86950000D03*
X140900000Y-86000000D03*
X140900000Y-85050000D03*
X143600000Y-85050000D03*
X143600000Y-86950000D03*
D24*
X161060000Y-96520000D03*
X164060000Y-97470000D03*
X164060000Y-95570000D03*
X139500000Y-126450000D03*
X139500000Y-124550000D03*
X142500000Y-125500000D03*
D25*
X166750000Y-97750000D03*
X140500000Y-123000000D03*
X140000000Y-120250000D03*
D26*
X159000000Y-87000000D03*
D27*
X162250000Y-92750000D03*
X168250000Y-90250000D03*
X130741999Y-94750000D03*
X147250000Y-138500000D03*
X154436166Y-110417836D03*
X137750000Y-128000000D03*
X147250000Y-84750000D03*
X170250000Y-114750000D03*
X138000000Y-94500000D03*
X132080000Y-92710000D03*
X135820492Y-91509508D03*
X163604000Y-111623017D03*
X169750000Y-111500000D03*
X152500000Y-130500000D03*
X155250000Y-127250000D03*
X142750000Y-82000000D03*
X135890000Y-77470000D03*
X156000000Y-107000000D03*
X162750000Y-112500000D03*
X162750000Y-123000000D03*
X132080000Y-77470000D03*
X140000000Y-82550000D03*
X138000000Y-96000000D03*
X136000000Y-94000000D03*
X141750000Y-114000000D03*
X154786426Y-113183574D03*
X146500000Y-110354000D03*
X145818870Y-108318870D03*
X134000000Y-131750000D03*
D28*
X140500000Y-123000000D02*
X140500000Y-122000000D01*
X140000000Y-121500000D02*
X140500000Y-122000000D01*
X140000000Y-120250000D02*
X140000000Y-121500000D01*
X166750000Y-97750000D02*
X166750000Y-94950000D01*
X170950000Y-90750000D02*
X173500000Y-90750000D01*
X166750000Y-94950000D02*
X170950000Y-90750000D01*
D29*
X164060000Y-94770000D02*
X165000000Y-93830000D01*
X164060000Y-95570000D02*
X164060000Y-94770000D01*
X165800000Y-89475000D02*
X166500000Y-89475000D01*
X165000000Y-90275000D02*
X165800000Y-89475000D01*
X165000000Y-93830000D02*
X165000000Y-90275000D01*
X165000000Y-90025000D02*
X165000000Y-90275000D01*
X164450000Y-89475000D02*
X165000000Y-90025000D01*
X163750000Y-89475000D02*
X164450000Y-89475000D01*
X139100000Y-133500000D02*
X138525000Y-133500000D01*
X139500000Y-133100000D02*
X139100000Y-133500000D01*
X139100000Y-131250000D02*
X139500000Y-130850000D01*
X138525000Y-131250000D02*
X139100000Y-131250000D01*
X139500000Y-130850000D02*
X139500000Y-130500000D01*
X139500000Y-130500000D02*
X139500000Y-133100000D01*
X139500000Y-126450000D02*
X139500000Y-130500000D01*
D30*
X146621320Y-96680000D02*
X144500000Y-96680000D01*
X148100001Y-90211997D02*
X148100001Y-95201319D01*
X151311998Y-87000000D02*
X148100001Y-90211997D01*
X148100001Y-95201319D02*
X146621320Y-96680000D01*
X151311998Y-87000000D02*
X159000000Y-87000000D01*
D29*
X162655999Y-93155999D02*
X162250000Y-92750000D01*
X162655999Y-97415999D02*
X162655999Y-93155999D01*
X162710000Y-97470000D02*
X162655999Y-97415999D01*
X164060000Y-97470000D02*
X162710000Y-97470000D01*
X167775000Y-90250000D02*
X166500000Y-91525000D01*
X168250000Y-90250000D02*
X167775000Y-90250000D01*
X130765999Y-94726000D02*
X130741999Y-94750000D01*
X146080000Y-137330000D02*
X147250000Y-138500000D01*
X146080000Y-132500000D02*
X146080000Y-137330000D01*
X153518330Y-109500000D02*
X154436166Y-110417836D01*
X152700000Y-109500000D02*
X153518330Y-109500000D01*
X133595000Y-96595000D02*
X133000000Y-96000000D01*
X133595000Y-99060000D02*
X133595000Y-96595000D01*
X138150000Y-124550000D02*
X137738714Y-124961286D01*
X139500000Y-124550000D02*
X138150000Y-124550000D01*
X137738714Y-127988714D02*
X137750000Y-128000000D01*
X137738714Y-124961286D02*
X137738714Y-127988714D01*
X137750000Y-129975000D02*
X137750000Y-128000000D01*
X136475000Y-131250000D02*
X137750000Y-129975000D01*
X130741999Y-94184315D02*
X130741999Y-94750000D01*
X131220000Y-85000000D02*
X130741999Y-85478001D01*
X130741999Y-85478001D02*
X130741999Y-94184315D01*
X146000000Y-86000000D02*
X147250000Y-84750000D01*
X140900000Y-86000000D02*
X146000000Y-86000000D01*
X132400000Y-85000000D02*
X131220000Y-85000000D01*
X135901203Y-84829001D02*
X132570999Y-84829001D01*
X138000000Y-86927798D02*
X135901203Y-84829001D01*
X132570999Y-84829001D02*
X132400000Y-85000000D01*
X138000000Y-87725000D02*
X138000000Y-86927798D01*
X168000000Y-109500000D02*
X167647295Y-109500000D01*
X154500000Y-139525000D02*
X153800000Y-139525000D01*
X167000000Y-134500000D02*
X167000000Y-140340000D01*
X173800009Y-130617193D02*
X171417202Y-133000000D01*
X168500000Y-133000000D02*
X167000000Y-134500000D01*
X168000000Y-109500000D02*
X169375000Y-109500000D01*
X173800009Y-113925009D02*
X173800009Y-130617193D01*
X167000000Y-140340000D02*
X166370000Y-140970000D01*
X171417202Y-133000000D02*
X168500000Y-133000000D01*
X151160000Y-139730000D02*
X152400000Y-140970000D01*
X152400000Y-140970000D02*
X141377922Y-140970000D01*
X154500000Y-139525000D02*
X154500000Y-140530000D01*
X154500000Y-140530000D02*
X154940000Y-140970000D01*
X154940000Y-140970000D02*
X152400000Y-140970000D01*
X158000000Y-140220000D02*
X158750000Y-140970000D01*
X158000000Y-139525000D02*
X158000000Y-140220000D01*
X158750000Y-140970000D02*
X154940000Y-140970000D01*
X161500000Y-139525000D02*
X161500000Y-140760000D01*
X161500000Y-140760000D02*
X161290000Y-140970000D01*
X161290000Y-140970000D02*
X158750000Y-140970000D01*
X165000000Y-140870000D02*
X165100000Y-140970000D01*
X165000000Y-139525000D02*
X165000000Y-140870000D01*
X165100000Y-140970000D02*
X161290000Y-140970000D01*
X166370000Y-140970000D02*
X165100000Y-140970000D01*
X131595999Y-113529001D02*
X131595999Y-100886799D01*
X131595999Y-93194001D02*
X132080000Y-92710000D01*
X131595999Y-100886799D02*
X131595999Y-99544001D01*
X131595999Y-99544001D02*
X131595999Y-93194001D01*
X137125000Y-114500000D02*
X137000000Y-114500000D01*
X133500000Y-114500000D02*
X137000000Y-114500000D01*
X131595999Y-116404001D02*
X133500000Y-114500000D01*
X131595999Y-116404001D02*
X131595999Y-113529001D01*
X141900000Y-109500000D02*
X143300000Y-109500000D01*
X139750000Y-117250000D02*
X139750000Y-111650000D01*
X136750000Y-120250000D02*
X139750000Y-117250000D01*
X133941998Y-120250000D02*
X136750000Y-120250000D01*
X139750000Y-111650000D02*
X141900000Y-109500000D01*
X131595999Y-122595999D02*
X131595999Y-116404001D01*
X131595999Y-122595999D02*
X133941998Y-120250000D01*
X131595999Y-131188077D02*
X131595999Y-122595999D01*
X135104010Y-90793026D02*
X135104010Y-88439010D01*
X135820492Y-91509508D02*
X135104010Y-90793026D01*
X135100000Y-88435000D02*
X135100000Y-85950000D01*
X135104010Y-88439010D02*
X135100000Y-88435000D01*
X135645000Y-103324378D02*
X135645000Y-99760000D01*
X135645000Y-99760000D02*
X135645000Y-99060000D01*
X141820622Y-109500000D02*
X135645000Y-103324378D01*
X143300000Y-109500000D02*
X141820622Y-109500000D01*
X143600000Y-88900000D02*
X138000000Y-94500000D01*
X143600000Y-86950000D02*
X143600000Y-88900000D01*
X144780000Y-86950000D02*
X143600000Y-86950000D01*
X147125000Y-86950000D02*
X144780000Y-86950000D01*
X149500000Y-84575000D02*
X147125000Y-86950000D01*
X149500000Y-84000000D02*
X149500000Y-84575000D01*
X137555000Y-89775000D02*
X135820492Y-91509508D01*
X138000000Y-89775000D02*
X137555000Y-89775000D01*
X148620000Y-137190000D02*
X151160000Y-139730000D01*
X148620000Y-132500000D02*
X148620000Y-137190000D01*
X134453961Y-134046039D02*
X134500000Y-134000000D01*
X141377922Y-140970000D02*
X134453961Y-134046039D01*
X134453961Y-134046039D02*
X131595999Y-131188077D01*
X161601983Y-111623017D02*
X163604000Y-111623017D01*
X158200000Y-115025000D02*
X161601983Y-111623017D01*
X157500000Y-115025000D02*
X158200000Y-115025000D01*
X170149999Y-110600001D02*
X170250000Y-110500000D01*
X170149999Y-111100001D02*
X170149999Y-110600001D01*
X169750000Y-111500000D02*
X170149999Y-111100001D01*
X170250000Y-110500000D02*
X173800009Y-113925009D01*
X169375000Y-109500000D02*
X170250000Y-110500000D01*
D30*
X159000000Y-121400000D02*
X159000000Y-126000000D01*
X168450001Y-124969999D02*
X169750000Y-123670000D01*
X167380000Y-124969999D02*
X168450001Y-124969999D01*
X166349999Y-126000000D02*
X167380000Y-124969999D01*
X159000000Y-126000000D02*
X166349999Y-126000000D01*
D29*
X168050000Y-78450000D02*
X168750000Y-78450000D01*
X165250000Y-75650000D02*
X168050000Y-78450000D01*
X165250000Y-72500000D02*
X165250000Y-75650000D01*
X160250000Y-77975000D02*
X160750000Y-78475000D01*
X160250000Y-72500000D02*
X160250000Y-77975000D01*
X167378680Y-99000000D02*
X169500000Y-99000000D01*
X161060000Y-97320000D02*
X162740000Y-99000000D01*
X161060000Y-96520000D02*
X161060000Y-97320000D01*
X162740000Y-99000000D02*
X165500000Y-99000000D01*
X165500000Y-99000000D02*
X167378680Y-99000000D01*
X171800001Y-88199999D02*
X165500000Y-94500000D01*
X165500000Y-94500000D02*
X165500000Y-99000000D01*
X171800001Y-84829999D02*
X173500000Y-83130000D01*
X171800001Y-88199999D02*
X171800001Y-84829999D01*
X144500000Y-121380000D02*
X144380000Y-121500000D01*
X144500000Y-117000000D02*
X144500000Y-121380000D01*
X144500000Y-117000000D02*
X144754001Y-116745999D01*
D28*
X144500000Y-117000000D02*
X143500000Y-117000000D01*
X142500000Y-117500000D02*
X142500000Y-123950000D01*
X144500000Y-117000000D02*
X143000000Y-117000000D01*
X143000000Y-117000000D02*
X142500000Y-117500000D01*
X142500000Y-123950000D02*
X142500000Y-125500000D01*
D30*
X163500000Y-101000000D02*
X159000000Y-105500000D01*
X163500000Y-101000000D02*
X164999999Y-102499999D01*
X159000000Y-105500000D02*
X159000000Y-110100000D01*
X170815923Y-102499999D02*
X173195990Y-100119932D01*
X164999999Y-102499999D02*
X170815923Y-102499999D01*
X173195990Y-100119932D02*
X173195990Y-93750000D01*
D29*
X154808011Y-108938011D02*
X154100000Y-108230000D01*
X154100000Y-108230000D02*
X152700000Y-108230000D01*
X157500000Y-111630000D02*
X157500000Y-112975000D01*
X155650000Y-109780000D02*
X155650000Y-117166830D01*
X154808011Y-108938011D02*
X155650000Y-109780000D01*
X155650000Y-109780000D02*
X157500000Y-111630000D01*
X155650000Y-126850000D02*
X155250000Y-127250000D01*
X155650000Y-117166830D02*
X155650000Y-126850000D01*
X151160000Y-131840000D02*
X152500000Y-130500000D01*
X151160000Y-132500000D02*
X151160000Y-131840000D01*
X143300000Y-110770000D02*
X144147202Y-110770000D01*
X144700000Y-110770000D02*
X143300000Y-110770000D01*
X147108011Y-113178011D02*
X144700000Y-110770000D01*
X147108011Y-127531989D02*
X147108011Y-113178011D01*
X143540000Y-131100000D02*
X147108011Y-127531989D01*
X143540000Y-132500000D02*
X143540000Y-131100000D01*
X141000000Y-131100000D02*
X141000000Y-132500000D01*
X146454001Y-114346799D02*
X146454001Y-125645999D01*
X144147202Y-112040000D02*
X146454001Y-114346799D01*
X146454001Y-125645999D02*
X141000000Y-131100000D01*
X143300000Y-112040000D02*
X144147202Y-112040000D01*
X143600000Y-82850000D02*
X142750000Y-82000000D01*
X143600000Y-85050000D02*
X143600000Y-82850000D01*
X135100000Y-78260000D02*
X135890000Y-77470000D01*
X135100000Y-84050000D02*
X135100000Y-78260000D01*
X156500000Y-135475000D02*
X154500000Y-137475000D01*
X156500000Y-134880000D02*
X156500000Y-135475000D01*
X152700000Y-106960000D02*
X155960000Y-106960000D01*
X155960000Y-106960000D02*
X156000000Y-107000000D01*
X162750000Y-112500000D02*
X162750000Y-123000000D01*
X159040000Y-136435000D02*
X158000000Y-137475000D01*
X159040000Y-134880000D02*
X159040000Y-136435000D01*
X158240001Y-134080001D02*
X159040000Y-134880000D01*
X148416031Y-124256031D02*
X158240001Y-134080001D01*
X148416031Y-113653969D02*
X148416031Y-124256031D01*
X151300000Y-110770000D02*
X148416031Y-113653969D01*
X152700000Y-110770000D02*
X151300000Y-110770000D01*
X161580000Y-137395000D02*
X161500000Y-137475000D01*
X161580000Y-134880000D02*
X161580000Y-137395000D01*
X151190000Y-113310000D02*
X151300000Y-113310000D01*
X151300000Y-113310000D02*
X152700000Y-113310000D01*
X149391989Y-115108011D02*
X151190000Y-113310000D01*
X149391989Y-124253805D02*
X149391989Y-115108011D01*
X157292193Y-132154008D02*
X149391989Y-124253805D01*
X159985378Y-132154008D02*
X157292193Y-132154008D01*
X161580000Y-133748630D02*
X159985378Y-132154008D01*
X161580000Y-134880000D02*
X161580000Y-133748630D01*
X164120000Y-136595000D02*
X165000000Y-137475000D01*
X164120000Y-134880000D02*
X164120000Y-136595000D01*
X150045999Y-123982906D02*
X157563093Y-131500000D01*
X152700000Y-114580000D02*
X152700000Y-114800000D01*
X152700000Y-114800000D02*
X152454001Y-115045999D01*
X152454001Y-115045999D02*
X151062079Y-115045999D01*
X151062079Y-115045999D02*
X150045999Y-116062079D01*
X150045999Y-116062079D02*
X150045999Y-123982906D01*
X157563093Y-131500000D02*
X160740000Y-131500000D01*
X160740000Y-131500000D02*
X164120000Y-134880000D01*
X154100000Y-103720000D02*
X153400000Y-104420000D01*
X154100000Y-99321739D02*
X154100000Y-103720000D01*
X153400000Y-104420000D02*
X152700000Y-104420000D01*
X161896739Y-91525000D02*
X154100000Y-99321739D01*
X163750000Y-91525000D02*
X161896739Y-91525000D01*
X147762021Y-127802888D02*
X147762021Y-110262021D01*
X145125999Y-130438909D02*
X147762021Y-127802888D01*
X145125999Y-133231203D02*
X145125999Y-130438909D01*
X151300000Y-105690000D02*
X152700000Y-105690000D01*
X150524042Y-106465958D02*
X151300000Y-105690000D01*
X150524042Y-107500000D02*
X150524042Y-106465958D01*
X147762021Y-110262021D02*
X150524042Y-107500000D01*
X145125999Y-133231203D02*
X141857202Y-136500000D01*
X136475000Y-134200000D02*
X136475000Y-133500000D01*
X138775000Y-136500000D02*
X136475000Y-134200000D01*
X141857202Y-136500000D02*
X138775000Y-136500000D01*
X160750000Y-80525000D02*
X158775000Y-80525000D01*
X158775000Y-80525000D02*
X156750000Y-80525000D01*
X157775000Y-80525000D02*
X156750000Y-80525000D01*
X161550001Y-84300001D02*
X157775000Y-80525000D01*
X161550001Y-90021921D02*
X161550001Y-84300001D01*
X149391989Y-100183102D02*
X150941090Y-98634001D01*
X152937921Y-98634001D02*
X161550001Y-90021921D01*
X149391989Y-102608011D02*
X149391989Y-100183102D01*
X146840000Y-105160000D02*
X149391989Y-102608011D01*
X143300000Y-106960000D02*
X144700000Y-106960000D01*
X144700000Y-106960000D02*
X146500000Y-105160000D01*
X150941090Y-98634001D02*
X152937921Y-98634001D01*
X146500000Y-105160000D02*
X146840000Y-105160000D01*
X153208820Y-99288011D02*
X162204011Y-90292820D01*
X144700000Y-108230000D02*
X150045999Y-102884001D01*
X150045999Y-102884001D02*
X150045999Y-100454001D01*
X143300000Y-108230000D02*
X144700000Y-108230000D01*
X150045999Y-100454001D02*
X151211989Y-99288011D01*
X151211989Y-99288011D02*
X153208820Y-99288011D01*
X164775000Y-80500000D02*
X164750000Y-80525000D01*
X168750000Y-80500000D02*
X167000000Y-80500000D01*
X162204011Y-85295989D02*
X162204011Y-90292820D01*
X167000000Y-80500000D02*
X162204011Y-85295989D01*
X167000000Y-80500000D02*
X164775000Y-80500000D01*
X132400000Y-77790000D02*
X132080000Y-77470000D01*
X132400000Y-84050000D02*
X132400000Y-77790000D01*
X140900000Y-83450000D02*
X140000000Y-82550000D01*
X140900000Y-85050000D02*
X140900000Y-83450000D01*
X138000000Y-98420000D02*
X138000000Y-96000000D01*
X143300000Y-104420000D02*
X143300000Y-103720000D01*
X143300000Y-103720000D02*
X138000000Y-98420000D01*
X134450000Y-92450000D02*
X136000000Y-94000000D01*
X134450000Y-88725000D02*
X134450000Y-92450000D01*
X132400000Y-86675000D02*
X134450000Y-88725000D01*
X132400000Y-85950000D02*
X132400000Y-86675000D01*
X137145999Y-94090079D02*
X140900000Y-90336078D01*
X137145999Y-100935999D02*
X137145999Y-94090079D01*
X141900000Y-105690000D02*
X137145999Y-100935999D01*
X140900000Y-90336078D02*
X140900000Y-86950000D01*
X143300000Y-105690000D02*
X141900000Y-105690000D01*
X143220000Y-114500000D02*
X143300000Y-114580000D01*
X142330000Y-114580000D02*
X141750000Y-114000000D01*
X143300000Y-114580000D02*
X142330000Y-114580000D01*
X153642852Y-112040000D02*
X152700000Y-112040000D01*
X154786426Y-113183574D02*
X153642852Y-112040000D01*
X146500000Y-109000000D02*
X145818870Y-108318870D01*
X146500000Y-110354000D02*
X146500000Y-109000000D01*
X132649999Y-130399999D02*
X134000000Y-131750000D01*
X133086799Y-125254001D02*
X132649999Y-125690801D01*
X140895999Y-117444801D02*
X136504001Y-121836799D01*
X136413201Y-125254001D02*
X133086799Y-125254001D01*
X136504001Y-125163201D02*
X136413201Y-125254001D01*
X136504001Y-121836799D02*
X136504001Y-125163201D01*
X132649999Y-125690801D02*
X132649999Y-130399999D01*
X141340079Y-113145999D02*
X140895999Y-113590079D01*
X140895999Y-113590079D02*
X140895999Y-117444801D01*
X142435999Y-113145999D02*
X141340079Y-113145999D01*
X142600000Y-113310000D02*
X142435999Y-113145999D01*
X143300000Y-113310000D02*
X142600000Y-113310000D01*
D31*
G36*
X140616054Y-141660530D02*
G01*
X140648210Y-141699712D01*
X140687392Y-141731868D01*
X140687397Y-141731873D01*
X140804590Y-141828051D01*
X140983004Y-141923415D01*
X141176594Y-141982140D01*
X141194753Y-141983928D01*
X141327471Y-141997000D01*
X141327478Y-141997000D01*
X141377922Y-142001968D01*
X141428365Y-141997000D01*
X152349556Y-141997000D01*
X152400000Y-142001968D01*
X152450443Y-141997000D01*
X154889559Y-141997000D01*
X154940000Y-142001968D01*
X154990441Y-141997000D01*
X155063702Y-141997000D01*
X155065000Y-142214250D01*
X155223750Y-142373000D01*
X156373000Y-142373000D01*
X156373000Y-142353000D01*
X156627000Y-142353000D01*
X156627000Y-142373000D01*
X156647000Y-142373000D01*
X156647000Y-142627000D01*
X156627000Y-142627000D01*
X156627000Y-142647000D01*
X156373000Y-142647000D01*
X156373000Y-142627000D01*
X155223750Y-142627000D01*
X155065000Y-142785750D01*
X155062985Y-143123000D01*
X130877000Y-143123000D01*
X130877000Y-141572038D01*
X131432937Y-142127975D01*
X132092500Y-142568681D01*
X132825367Y-142872245D01*
X133603375Y-143027000D01*
X134396625Y-143027000D01*
X135174633Y-142872245D01*
X135907500Y-142568681D01*
X136567063Y-142127975D01*
X137127975Y-141567063D01*
X137568681Y-140907500D01*
X137872245Y-140174633D01*
X138027000Y-139396625D01*
X138027000Y-139071475D01*
X140616054Y-141660530D01*
G37*
X140616054Y-141660530D02*
X140648210Y-141699712D01*
X140687392Y-141731868D01*
X140687397Y-141731873D01*
X140804590Y-141828051D01*
X140983004Y-141923415D01*
X141176594Y-141982140D01*
X141194753Y-141983928D01*
X141327471Y-141997000D01*
X141327478Y-141997000D01*
X141377922Y-142001968D01*
X141428365Y-141997000D01*
X152349556Y-141997000D01*
X152400000Y-142001968D01*
X152450443Y-141997000D01*
X154889559Y-141997000D01*
X154940000Y-142001968D01*
X154990441Y-141997000D01*
X155063702Y-141997000D01*
X155065000Y-142214250D01*
X155223750Y-142373000D01*
X156373000Y-142373000D01*
X156373000Y-142353000D01*
X156627000Y-142353000D01*
X156627000Y-142373000D01*
X156647000Y-142373000D01*
X156647000Y-142627000D01*
X156627000Y-142627000D01*
X156627000Y-142647000D01*
X156373000Y-142647000D01*
X156373000Y-142627000D01*
X155223750Y-142627000D01*
X155065000Y-142785750D01*
X155062985Y-143123000D01*
X130877000Y-143123000D01*
X130877000Y-141572038D01*
X131432937Y-142127975D01*
X132092500Y-142568681D01*
X132825367Y-142872245D01*
X133603375Y-143027000D01*
X134396625Y-143027000D01*
X135174633Y-142872245D01*
X135907500Y-142568681D01*
X136567063Y-142127975D01*
X137127975Y-141567063D01*
X137568681Y-140907500D01*
X137872245Y-140174633D01*
X138027000Y-139396625D01*
X138027000Y-139071475D01*
X140616054Y-141660530D01*
G36*
X159233748Y-142485858D02*
G01*
X159219605Y-142500000D01*
X159233748Y-142514143D01*
X159054143Y-142693748D01*
X159040000Y-142679605D01*
X159025858Y-142693748D01*
X158846253Y-142514143D01*
X158860395Y-142500000D01*
X158846253Y-142485858D01*
X159025858Y-142306253D01*
X159040000Y-142320395D01*
X159054143Y-142306253D01*
X159233748Y-142485858D01*
G37*
X159233748Y-142485858D02*
X159219605Y-142500000D01*
X159233748Y-142514143D01*
X159054143Y-142693748D01*
X159040000Y-142679605D01*
X159025858Y-142693748D01*
X158846253Y-142514143D01*
X158860395Y-142500000D01*
X158846253Y-142485858D01*
X159025858Y-142306253D01*
X159040000Y-142320395D01*
X159054143Y-142306253D01*
X159233748Y-142485858D01*
G36*
X161773748Y-142485858D02*
G01*
X161759605Y-142500000D01*
X161773748Y-142514143D01*
X161594143Y-142693748D01*
X161580000Y-142679605D01*
X161565858Y-142693748D01*
X161386253Y-142514143D01*
X161400395Y-142500000D01*
X161386253Y-142485858D01*
X161565858Y-142306253D01*
X161580000Y-142320395D01*
X161594143Y-142306253D01*
X161773748Y-142485858D01*
G37*
X161773748Y-142485858D02*
X161759605Y-142500000D01*
X161773748Y-142514143D01*
X161594143Y-142693748D01*
X161580000Y-142679605D01*
X161565858Y-142693748D01*
X161386253Y-142514143D01*
X161400395Y-142500000D01*
X161386253Y-142485858D01*
X161565858Y-142306253D01*
X161580000Y-142320395D01*
X161594143Y-142306253D01*
X161773748Y-142485858D01*
G36*
X164313748Y-142485858D02*
G01*
X164299605Y-142500000D01*
X164313748Y-142514143D01*
X164134143Y-142693748D01*
X164120000Y-142679605D01*
X164105858Y-142693748D01*
X163926253Y-142514143D01*
X163940395Y-142500000D01*
X163926253Y-142485858D01*
X164105858Y-142306253D01*
X164120000Y-142320395D01*
X164134143Y-142306253D01*
X164313748Y-142485858D01*
G37*
X164313748Y-142485858D02*
X164299605Y-142500000D01*
X164313748Y-142514143D01*
X164134143Y-142693748D01*
X164120000Y-142679605D01*
X164105858Y-142693748D01*
X163926253Y-142514143D01*
X163940395Y-142500000D01*
X163926253Y-142485858D01*
X164105858Y-142306253D01*
X164120000Y-142320395D01*
X164134143Y-142306253D01*
X164313748Y-142485858D01*
G36*
X152061246Y-129353643D02*
G01*
X151918798Y-129412647D01*
X151717833Y-129546927D01*
X151546927Y-129717833D01*
X151412647Y-129918798D01*
X151320153Y-130142097D01*
X151298959Y-130248644D01*
X150878605Y-130668999D01*
X150660000Y-130668999D01*
X150497880Y-130684966D01*
X150341990Y-130732255D01*
X150198321Y-130809048D01*
X150072394Y-130912394D01*
X149969048Y-131038321D01*
X149892255Y-131181990D01*
X149890000Y-131189424D01*
X149887745Y-131181990D01*
X149810952Y-131038321D01*
X149707606Y-130912394D01*
X149581679Y-130809048D01*
X149438010Y-130732255D01*
X149282120Y-130684966D01*
X149120000Y-130668999D01*
X148120000Y-130668999D01*
X147957880Y-130684966D01*
X147801990Y-130732255D01*
X147658321Y-130809048D01*
X147532394Y-130912394D01*
X147429048Y-131038321D01*
X147352255Y-131181990D01*
X147304966Y-131337880D01*
X147288999Y-131500000D01*
X147288999Y-133500000D01*
X147304966Y-133662120D01*
X147352255Y-133818010D01*
X147429048Y-133961679D01*
X147532394Y-134087606D01*
X147593000Y-134137345D01*
X147593001Y-137139549D01*
X147588032Y-137190000D01*
X147593001Y-137240451D01*
X147607861Y-137391327D01*
X147666586Y-137584917D01*
X147761950Y-137763331D01*
X147890289Y-137919712D01*
X147929476Y-137951872D01*
X149920603Y-139943000D01*
X141803320Y-139943000D01*
X139387319Y-137527000D01*
X141806761Y-137527000D01*
X141857202Y-137531968D01*
X141907643Y-137527000D01*
X141907653Y-137527000D01*
X142058529Y-137512140D01*
X142252119Y-137453415D01*
X142430533Y-137358051D01*
X142586914Y-137229712D01*
X142619079Y-137190519D01*
X145672858Y-134136741D01*
X145794250Y-134135000D01*
X145953000Y-133976250D01*
X145953000Y-133842368D01*
X145984050Y-133804534D01*
X146079414Y-133626120D01*
X146138139Y-133432530D01*
X146152999Y-133281654D01*
X146152999Y-133281645D01*
X146157967Y-133231204D01*
X146152999Y-133180763D01*
X146152999Y-132627000D01*
X146207000Y-132627000D01*
X146207000Y-133976250D01*
X146365750Y-134135000D01*
X146580000Y-134138072D01*
X146704482Y-134125812D01*
X146824180Y-134089502D01*
X146934494Y-134030537D01*
X147031185Y-133951185D01*
X147110537Y-133854494D01*
X147169502Y-133744180D01*
X147205812Y-133624482D01*
X147218072Y-133500000D01*
X147215000Y-132785750D01*
X147056250Y-132627000D01*
X146207000Y-132627000D01*
X146152999Y-132627000D01*
X146152999Y-132353000D01*
X146207000Y-132353000D01*
X146207000Y-132373000D01*
X147056250Y-132373000D01*
X147215000Y-132214250D01*
X147218072Y-131500000D01*
X147205812Y-131375518D01*
X147169502Y-131255820D01*
X147110537Y-131145506D01*
X147031185Y-131048815D01*
X146934494Y-130969463D01*
X146824180Y-130910498D01*
X146704482Y-130874188D01*
X146580000Y-130861928D01*
X146365750Y-130865000D01*
X146207002Y-131023748D01*
X146207002Y-130865000D01*
X146152999Y-130865000D01*
X146152999Y-130864306D01*
X148452546Y-128564760D01*
X148491733Y-128532600D01*
X148620072Y-128376219D01*
X148715436Y-128197805D01*
X148774161Y-128004215D01*
X148789021Y-127853339D01*
X148789021Y-127853330D01*
X148793989Y-127802889D01*
X148789021Y-127752448D01*
X148789021Y-126081417D01*
X152061246Y-129353643D01*
G37*
X152061246Y-129353643D02*
X151918798Y-129412647D01*
X151717833Y-129546927D01*
X151546927Y-129717833D01*
X151412647Y-129918798D01*
X151320153Y-130142097D01*
X151298959Y-130248644D01*
X150878605Y-130668999D01*
X150660000Y-130668999D01*
X150497880Y-130684966D01*
X150341990Y-130732255D01*
X150198321Y-130809048D01*
X150072394Y-130912394D01*
X149969048Y-131038321D01*
X149892255Y-131181990D01*
X149890000Y-131189424D01*
X149887745Y-131181990D01*
X149810952Y-131038321D01*
X149707606Y-130912394D01*
X149581679Y-130809048D01*
X149438010Y-130732255D01*
X149282120Y-130684966D01*
X149120000Y-130668999D01*
X148120000Y-130668999D01*
X147957880Y-130684966D01*
X147801990Y-130732255D01*
X147658321Y-130809048D01*
X147532394Y-130912394D01*
X147429048Y-131038321D01*
X147352255Y-131181990D01*
X147304966Y-131337880D01*
X147288999Y-131500000D01*
X147288999Y-133500000D01*
X147304966Y-133662120D01*
X147352255Y-133818010D01*
X147429048Y-133961679D01*
X147532394Y-134087606D01*
X147593000Y-134137345D01*
X147593001Y-137139549D01*
X147588032Y-137190000D01*
X147593001Y-137240451D01*
X147607861Y-137391327D01*
X147666586Y-137584917D01*
X147761950Y-137763331D01*
X147890289Y-137919712D01*
X147929476Y-137951872D01*
X149920603Y-139943000D01*
X141803320Y-139943000D01*
X139387319Y-137527000D01*
X141806761Y-137527000D01*
X141857202Y-137531968D01*
X141907643Y-137527000D01*
X141907653Y-137527000D01*
X142058529Y-137512140D01*
X142252119Y-137453415D01*
X142430533Y-137358051D01*
X142586914Y-137229712D01*
X142619079Y-137190519D01*
X145672858Y-134136741D01*
X145794250Y-134135000D01*
X145953000Y-133976250D01*
X145953000Y-133842368D01*
X145984050Y-133804534D01*
X146079414Y-133626120D01*
X146138139Y-133432530D01*
X146152999Y-133281654D01*
X146152999Y-133281645D01*
X146157967Y-133231204D01*
X146152999Y-133180763D01*
X146152999Y-132627000D01*
X146207000Y-132627000D01*
X146207000Y-133976250D01*
X146365750Y-134135000D01*
X146580000Y-134138072D01*
X146704482Y-134125812D01*
X146824180Y-134089502D01*
X146934494Y-134030537D01*
X147031185Y-133951185D01*
X147110537Y-133854494D01*
X147169502Y-133744180D01*
X147205812Y-133624482D01*
X147218072Y-133500000D01*
X147215000Y-132785750D01*
X147056250Y-132627000D01*
X146207000Y-132627000D01*
X146152999Y-132627000D01*
X146152999Y-132353000D01*
X146207000Y-132353000D01*
X146207000Y-132373000D01*
X147056250Y-132373000D01*
X147215000Y-132214250D01*
X147218072Y-131500000D01*
X147205812Y-131375518D01*
X147169502Y-131255820D01*
X147110537Y-131145506D01*
X147031185Y-131048815D01*
X146934494Y-130969463D01*
X146824180Y-130910498D01*
X146704482Y-130874188D01*
X146580000Y-130861928D01*
X146365750Y-130865000D01*
X146207002Y-131023748D01*
X146207002Y-130865000D01*
X146152999Y-130865000D01*
X146152999Y-130864306D01*
X148452546Y-128564760D01*
X148491733Y-128532600D01*
X148620072Y-128376219D01*
X148715436Y-128197805D01*
X148774161Y-128004215D01*
X148789021Y-127853339D01*
X148789021Y-127853330D01*
X148793989Y-127802889D01*
X148789021Y-127752448D01*
X148789021Y-126081417D01*
X152061246Y-129353643D01*
G36*
X174123000Y-112809571D02*
G01*
X171006019Y-109802343D01*
X170979712Y-109770288D01*
X170967067Y-109759911D01*
X170158581Y-108835928D01*
X170104712Y-108770288D01*
X170052951Y-108727809D01*
X170004138Y-108681988D01*
X169974938Y-108663785D01*
X169948331Y-108641949D01*
X169889273Y-108610382D01*
X169832463Y-108574967D01*
X169800271Y-108562810D01*
X169769917Y-108546585D01*
X169705842Y-108527148D01*
X169643208Y-108503494D01*
X169609262Y-108497851D01*
X169576327Y-108487860D01*
X169509679Y-108481296D01*
X169450311Y-108471426D01*
X169316556Y-108308444D01*
X169245341Y-108250000D01*
X169316556Y-108191556D01*
X169526121Y-107936199D01*
X169681842Y-107644865D01*
X169777735Y-107328749D01*
X169810114Y-107000000D01*
X169777735Y-106671251D01*
X169681842Y-106355135D01*
X169526121Y-106063801D01*
X169316556Y-105808444D01*
X169061199Y-105598879D01*
X168769865Y-105443158D01*
X168453749Y-105347265D01*
X168207383Y-105323000D01*
X167792617Y-105323000D01*
X167546251Y-105347265D01*
X167230135Y-105443158D01*
X166938801Y-105598879D01*
X166683444Y-105808444D01*
X166473879Y-106063801D01*
X166318158Y-106355135D01*
X166222265Y-106671251D01*
X166189886Y-107000000D01*
X166222265Y-107328749D01*
X166318158Y-107644865D01*
X166473879Y-107936199D01*
X166683444Y-108191556D01*
X166754659Y-108250000D01*
X166683444Y-108308444D01*
X166473879Y-108563801D01*
X166318158Y-108855135D01*
X166222265Y-109171251D01*
X166189886Y-109500000D01*
X166222265Y-109828749D01*
X166318158Y-110144865D01*
X166473879Y-110436199D01*
X166683444Y-110691556D01*
X166909836Y-110877350D01*
X166865571Y-110910951D01*
X166672504Y-111128807D01*
X166525648Y-111380142D01*
X166433524Y-111643110D01*
X166554845Y-111873000D01*
X167873000Y-111873000D01*
X167873000Y-111853000D01*
X168127000Y-111853000D01*
X168127000Y-111873000D01*
X168147000Y-111873000D01*
X168147000Y-112127000D01*
X168127000Y-112127000D01*
X168127000Y-112147000D01*
X167873000Y-112147000D01*
X167873000Y-112127000D01*
X166554845Y-112127000D01*
X166433524Y-112356890D01*
X166525648Y-112619858D01*
X166672504Y-112871193D01*
X166865571Y-113089049D01*
X166909836Y-113122650D01*
X166683444Y-113308444D01*
X166473879Y-113563801D01*
X166318158Y-113855135D01*
X166222265Y-114171251D01*
X166189886Y-114500000D01*
X166222265Y-114828749D01*
X166318158Y-115144865D01*
X166473879Y-115436199D01*
X166586457Y-115573377D01*
X166510617Y-115635617D01*
X166376181Y-115799428D01*
X166276285Y-115986319D01*
X166214770Y-116189107D01*
X166193999Y-116400000D01*
X166193999Y-117600000D01*
X166214770Y-117810893D01*
X166276285Y-118013681D01*
X166376181Y-118200572D01*
X166510617Y-118364383D01*
X166674428Y-118498819D01*
X166861319Y-118598715D01*
X167064107Y-118660230D01*
X167275000Y-118681001D01*
X168725000Y-118681001D01*
X168935893Y-118660230D01*
X169138681Y-118598715D01*
X169325572Y-118498819D01*
X169489383Y-118364383D01*
X169623819Y-118200572D01*
X169723715Y-118013681D01*
X169785230Y-117810893D01*
X169806001Y-117600000D01*
X169806001Y-116400000D01*
X169785230Y-116189107D01*
X169723715Y-115986319D01*
X169623819Y-115799428D01*
X169489383Y-115635617D01*
X169413543Y-115573377D01*
X169526121Y-115436199D01*
X169681842Y-115144865D01*
X169777735Y-114828749D01*
X169810114Y-114500000D01*
X169777735Y-114171251D01*
X169681842Y-113855135D01*
X169526121Y-113563801D01*
X169316556Y-113308444D01*
X169090164Y-113122650D01*
X169134429Y-113089049D01*
X169327496Y-112871193D01*
X169434385Y-112688259D01*
X169629151Y-112727000D01*
X169870849Y-112727000D01*
X170107903Y-112679847D01*
X170331202Y-112587353D01*
X170532167Y-112453073D01*
X170661334Y-112323906D01*
X172773009Y-114361227D01*
X172773010Y-130191795D01*
X170991806Y-131973000D01*
X168550440Y-131973000D01*
X168499999Y-131968032D01*
X168449558Y-131973000D01*
X168449549Y-131973000D01*
X168298673Y-131987860D01*
X168105083Y-132046585D01*
X167926669Y-132141949D01*
X167770288Y-132270288D01*
X167738128Y-132309476D01*
X166309481Y-133738123D01*
X166270288Y-133770288D01*
X166141949Y-133926669D01*
X166046585Y-134105084D01*
X165987860Y-134298674D01*
X165973000Y-134449550D01*
X165973000Y-134449559D01*
X165968032Y-134500000D01*
X165973000Y-134550441D01*
X165973000Y-136209717D01*
X165863682Y-136151285D01*
X165660894Y-136089770D01*
X165450001Y-136068999D01*
X165231926Y-136068999D01*
X165383773Y-135917152D01*
X165561828Y-135650673D01*
X165684475Y-135354578D01*
X165747000Y-135040245D01*
X165747000Y-134719755D01*
X165684475Y-134405422D01*
X165561828Y-134109327D01*
X165383773Y-133842848D01*
X165157152Y-133616227D01*
X164890673Y-133438172D01*
X164594578Y-133315525D01*
X164280245Y-133253000D01*
X163959755Y-133253000D01*
X163947780Y-133255382D01*
X161501877Y-130809481D01*
X161469712Y-130770288D01*
X161313331Y-130641949D01*
X161134917Y-130546585D01*
X160941327Y-130487860D01*
X160790451Y-130473000D01*
X160790441Y-130473000D01*
X160740000Y-130468032D01*
X160689559Y-130473000D01*
X157988490Y-130473000D01*
X157565490Y-130050000D01*
X167811928Y-130050000D01*
X167824188Y-130174482D01*
X167860498Y-130294180D01*
X167919463Y-130404494D01*
X167998815Y-130501185D01*
X168095506Y-130580537D01*
X168205820Y-130639502D01*
X168325518Y-130675812D01*
X168450000Y-130688072D01*
X169464250Y-130685000D01*
X169623000Y-130526250D01*
X169623000Y-128877000D01*
X169877000Y-128877000D01*
X169877000Y-130526250D01*
X170035750Y-130685000D01*
X171050000Y-130688072D01*
X171174482Y-130675812D01*
X171294180Y-130639502D01*
X171404494Y-130580537D01*
X171501185Y-130501185D01*
X171580537Y-130404494D01*
X171639502Y-130294180D01*
X171675812Y-130174482D01*
X171688072Y-130050000D01*
X171685000Y-129035750D01*
X171526250Y-128877000D01*
X169877000Y-128877000D01*
X169623000Y-128877000D01*
X167973750Y-128877000D01*
X167815000Y-129035750D01*
X167811928Y-130050000D01*
X157565490Y-130050000D01*
X155844175Y-128328685D01*
X156032167Y-128203073D01*
X156203073Y-128032167D01*
X156337353Y-127831202D01*
X156429847Y-127607903D01*
X156453287Y-127490060D01*
X156508051Y-127423331D01*
X156603415Y-127244917D01*
X156662140Y-127051327D01*
X156677000Y-126900451D01*
X156677000Y-126900442D01*
X156681968Y-126850001D01*
X156677000Y-126799560D01*
X156677000Y-126154927D01*
X156706670Y-126456172D01*
X156839730Y-126894813D01*
X157055809Y-127299067D01*
X157346601Y-127653399D01*
X157700933Y-127944191D01*
X158105187Y-128160270D01*
X158543828Y-128293330D01*
X158885685Y-128327000D01*
X158885686Y-128327000D01*
X159000000Y-128338259D01*
X159114315Y-128327000D01*
X166235687Y-128327000D01*
X166349999Y-128338259D01*
X166464311Y-128327000D01*
X166464314Y-128327000D01*
X166806171Y-128293330D01*
X167244812Y-128160270D01*
X167649066Y-127944191D01*
X167813017Y-127809640D01*
X167815000Y-128464250D01*
X167973750Y-128623000D01*
X169623000Y-128623000D01*
X169623000Y-128603000D01*
X169877000Y-128603000D01*
X169877000Y-128623000D01*
X171526250Y-128623000D01*
X171685000Y-128464250D01*
X171688072Y-127450000D01*
X171675812Y-127325518D01*
X171639502Y-127205820D01*
X171580537Y-127095506D01*
X171501185Y-126998815D01*
X171404494Y-126919463D01*
X171294180Y-126860498D01*
X171174482Y-126824188D01*
X171050000Y-126811928D01*
X170035750Y-126815000D01*
X169877002Y-126973748D01*
X169877002Y-126815000D01*
X169869932Y-126815000D01*
X170103400Y-126623398D01*
X170176276Y-126534598D01*
X171476270Y-125234604D01*
X171694191Y-124969068D01*
X171910269Y-124564814D01*
X172043329Y-124126172D01*
X172088259Y-123670001D01*
X172043329Y-123213829D01*
X171910269Y-122775187D01*
X171694191Y-122370934D01*
X171403398Y-122016602D01*
X171049066Y-121725809D01*
X170644813Y-121509731D01*
X170206171Y-121376671D01*
X169749999Y-121331741D01*
X169293828Y-121376671D01*
X168855186Y-121509731D01*
X168450932Y-121725809D01*
X168185396Y-121943730D01*
X167486861Y-122642265D01*
X167379999Y-122631740D01*
X167265687Y-122642999D01*
X167265685Y-122642999D01*
X166923828Y-122676669D01*
X166485187Y-122809729D01*
X166080933Y-123025808D01*
X165726601Y-123316600D01*
X165653725Y-123405400D01*
X165386125Y-123673000D01*
X163776016Y-123673000D01*
X163837353Y-123581202D01*
X163929847Y-123357903D01*
X163977000Y-123120849D01*
X163977000Y-122879151D01*
X163929847Y-122642097D01*
X163837353Y-122418798D01*
X163777000Y-122328473D01*
X163777000Y-113171527D01*
X163837353Y-113081202D01*
X163929847Y-112857903D01*
X163939925Y-112807236D01*
X163961903Y-112802864D01*
X164185202Y-112710370D01*
X164386167Y-112576090D01*
X164557073Y-112405184D01*
X164691353Y-112204219D01*
X164783847Y-111980920D01*
X164831000Y-111743866D01*
X164831000Y-111502168D01*
X164783847Y-111265114D01*
X164691353Y-111041815D01*
X164557073Y-110840850D01*
X164386167Y-110669944D01*
X164185202Y-110535664D01*
X163961903Y-110443170D01*
X163724849Y-110396017D01*
X163483151Y-110396017D01*
X163246097Y-110443170D01*
X163022798Y-110535664D01*
X162932473Y-110596017D01*
X161652423Y-110596017D01*
X161601982Y-110591049D01*
X161551541Y-110596017D01*
X161551532Y-110596017D01*
X161400656Y-110610877D01*
X161264177Y-110652278D01*
X161293330Y-110556172D01*
X161327000Y-110214315D01*
X161327000Y-106463874D01*
X163506363Y-104284512D01*
X163700932Y-104444190D01*
X164105186Y-104660269D01*
X164543827Y-104793329D01*
X164885684Y-104826999D01*
X164885687Y-104826999D01*
X164999999Y-104838258D01*
X165114311Y-104826999D01*
X170701611Y-104826999D01*
X170815923Y-104838258D01*
X170930235Y-104826999D01*
X170930238Y-104826999D01*
X171272095Y-104793329D01*
X171710736Y-104660269D01*
X172114990Y-104444190D01*
X172469322Y-104153398D01*
X172542198Y-104064598D01*
X174123001Y-102483796D01*
X174123000Y-112809571D01*
G37*
X174123000Y-112809571D02*
X171006019Y-109802343D01*
X170979712Y-109770288D01*
X170967067Y-109759911D01*
X170158581Y-108835928D01*
X170104712Y-108770288D01*
X170052951Y-108727809D01*
X170004138Y-108681988D01*
X169974938Y-108663785D01*
X169948331Y-108641949D01*
X169889273Y-108610382D01*
X169832463Y-108574967D01*
X169800271Y-108562810D01*
X169769917Y-108546585D01*
X169705842Y-108527148D01*
X169643208Y-108503494D01*
X169609262Y-108497851D01*
X169576327Y-108487860D01*
X169509679Y-108481296D01*
X169450311Y-108471426D01*
X169316556Y-108308444D01*
X169245341Y-108250000D01*
X169316556Y-108191556D01*
X169526121Y-107936199D01*
X169681842Y-107644865D01*
X169777735Y-107328749D01*
X169810114Y-107000000D01*
X169777735Y-106671251D01*
X169681842Y-106355135D01*
X169526121Y-106063801D01*
X169316556Y-105808444D01*
X169061199Y-105598879D01*
X168769865Y-105443158D01*
X168453749Y-105347265D01*
X168207383Y-105323000D01*
X167792617Y-105323000D01*
X167546251Y-105347265D01*
X167230135Y-105443158D01*
X166938801Y-105598879D01*
X166683444Y-105808444D01*
X166473879Y-106063801D01*
X166318158Y-106355135D01*
X166222265Y-106671251D01*
X166189886Y-107000000D01*
X166222265Y-107328749D01*
X166318158Y-107644865D01*
X166473879Y-107936199D01*
X166683444Y-108191556D01*
X166754659Y-108250000D01*
X166683444Y-108308444D01*
X166473879Y-108563801D01*
X166318158Y-108855135D01*
X166222265Y-109171251D01*
X166189886Y-109500000D01*
X166222265Y-109828749D01*
X166318158Y-110144865D01*
X166473879Y-110436199D01*
X166683444Y-110691556D01*
X166909836Y-110877350D01*
X166865571Y-110910951D01*
X166672504Y-111128807D01*
X166525648Y-111380142D01*
X166433524Y-111643110D01*
X166554845Y-111873000D01*
X167873000Y-111873000D01*
X167873000Y-111853000D01*
X168127000Y-111853000D01*
X168127000Y-111873000D01*
X168147000Y-111873000D01*
X168147000Y-112127000D01*
X168127000Y-112127000D01*
X168127000Y-112147000D01*
X167873000Y-112147000D01*
X167873000Y-112127000D01*
X166554845Y-112127000D01*
X166433524Y-112356890D01*
X166525648Y-112619858D01*
X166672504Y-112871193D01*
X166865571Y-113089049D01*
X166909836Y-113122650D01*
X166683444Y-113308444D01*
X166473879Y-113563801D01*
X166318158Y-113855135D01*
X166222265Y-114171251D01*
X166189886Y-114500000D01*
X166222265Y-114828749D01*
X166318158Y-115144865D01*
X166473879Y-115436199D01*
X166586457Y-115573377D01*
X166510617Y-115635617D01*
X166376181Y-115799428D01*
X166276285Y-115986319D01*
X166214770Y-116189107D01*
X166193999Y-116400000D01*
X166193999Y-117600000D01*
X166214770Y-117810893D01*
X166276285Y-118013681D01*
X166376181Y-118200572D01*
X166510617Y-118364383D01*
X166674428Y-118498819D01*
X166861319Y-118598715D01*
X167064107Y-118660230D01*
X167275000Y-118681001D01*
X168725000Y-118681001D01*
X168935893Y-118660230D01*
X169138681Y-118598715D01*
X169325572Y-118498819D01*
X169489383Y-118364383D01*
X169623819Y-118200572D01*
X169723715Y-118013681D01*
X169785230Y-117810893D01*
X169806001Y-117600000D01*
X169806001Y-116400000D01*
X169785230Y-116189107D01*
X169723715Y-115986319D01*
X169623819Y-115799428D01*
X169489383Y-115635617D01*
X169413543Y-115573377D01*
X169526121Y-115436199D01*
X169681842Y-115144865D01*
X169777735Y-114828749D01*
X169810114Y-114500000D01*
X169777735Y-114171251D01*
X169681842Y-113855135D01*
X169526121Y-113563801D01*
X169316556Y-113308444D01*
X169090164Y-113122650D01*
X169134429Y-113089049D01*
X169327496Y-112871193D01*
X169434385Y-112688259D01*
X169629151Y-112727000D01*
X169870849Y-112727000D01*
X170107903Y-112679847D01*
X170331202Y-112587353D01*
X170532167Y-112453073D01*
X170661334Y-112323906D01*
X172773009Y-114361227D01*
X172773010Y-130191795D01*
X170991806Y-131973000D01*
X168550440Y-131973000D01*
X168499999Y-131968032D01*
X168449558Y-131973000D01*
X168449549Y-131973000D01*
X168298673Y-131987860D01*
X168105083Y-132046585D01*
X167926669Y-132141949D01*
X167770288Y-132270288D01*
X167738128Y-132309476D01*
X166309481Y-133738123D01*
X166270288Y-133770288D01*
X166141949Y-133926669D01*
X166046585Y-134105084D01*
X165987860Y-134298674D01*
X165973000Y-134449550D01*
X165973000Y-134449559D01*
X165968032Y-134500000D01*
X165973000Y-134550441D01*
X165973000Y-136209717D01*
X165863682Y-136151285D01*
X165660894Y-136089770D01*
X165450001Y-136068999D01*
X165231926Y-136068999D01*
X165383773Y-135917152D01*
X165561828Y-135650673D01*
X165684475Y-135354578D01*
X165747000Y-135040245D01*
X165747000Y-134719755D01*
X165684475Y-134405422D01*
X165561828Y-134109327D01*
X165383773Y-133842848D01*
X165157152Y-133616227D01*
X164890673Y-133438172D01*
X164594578Y-133315525D01*
X164280245Y-133253000D01*
X163959755Y-133253000D01*
X163947780Y-133255382D01*
X161501877Y-130809481D01*
X161469712Y-130770288D01*
X161313331Y-130641949D01*
X161134917Y-130546585D01*
X160941327Y-130487860D01*
X160790451Y-130473000D01*
X160790441Y-130473000D01*
X160740000Y-130468032D01*
X160689559Y-130473000D01*
X157988490Y-130473000D01*
X157565490Y-130050000D01*
X167811928Y-130050000D01*
X167824188Y-130174482D01*
X167860498Y-130294180D01*
X167919463Y-130404494D01*
X167998815Y-130501185D01*
X168095506Y-130580537D01*
X168205820Y-130639502D01*
X168325518Y-130675812D01*
X168450000Y-130688072D01*
X169464250Y-130685000D01*
X169623000Y-130526250D01*
X169623000Y-128877000D01*
X169877000Y-128877000D01*
X169877000Y-130526250D01*
X170035750Y-130685000D01*
X171050000Y-130688072D01*
X171174482Y-130675812D01*
X171294180Y-130639502D01*
X171404494Y-130580537D01*
X171501185Y-130501185D01*
X171580537Y-130404494D01*
X171639502Y-130294180D01*
X171675812Y-130174482D01*
X171688072Y-130050000D01*
X171685000Y-129035750D01*
X171526250Y-128877000D01*
X169877000Y-128877000D01*
X169623000Y-128877000D01*
X167973750Y-128877000D01*
X167815000Y-129035750D01*
X167811928Y-130050000D01*
X157565490Y-130050000D01*
X155844175Y-128328685D01*
X156032167Y-128203073D01*
X156203073Y-128032167D01*
X156337353Y-127831202D01*
X156429847Y-127607903D01*
X156453287Y-127490060D01*
X156508051Y-127423331D01*
X156603415Y-127244917D01*
X156662140Y-127051327D01*
X156677000Y-126900451D01*
X156677000Y-126900442D01*
X156681968Y-126850001D01*
X156677000Y-126799560D01*
X156677000Y-126154927D01*
X156706670Y-126456172D01*
X156839730Y-126894813D01*
X157055809Y-127299067D01*
X157346601Y-127653399D01*
X157700933Y-127944191D01*
X158105187Y-128160270D01*
X158543828Y-128293330D01*
X158885685Y-128327000D01*
X158885686Y-128327000D01*
X159000000Y-128338259D01*
X159114315Y-128327000D01*
X166235687Y-128327000D01*
X166349999Y-128338259D01*
X166464311Y-128327000D01*
X166464314Y-128327000D01*
X166806171Y-128293330D01*
X167244812Y-128160270D01*
X167649066Y-127944191D01*
X167813017Y-127809640D01*
X167815000Y-128464250D01*
X167973750Y-128623000D01*
X169623000Y-128623000D01*
X169623000Y-128603000D01*
X169877000Y-128603000D01*
X169877000Y-128623000D01*
X171526250Y-128623000D01*
X171685000Y-128464250D01*
X171688072Y-127450000D01*
X171675812Y-127325518D01*
X171639502Y-127205820D01*
X171580537Y-127095506D01*
X171501185Y-126998815D01*
X171404494Y-126919463D01*
X171294180Y-126860498D01*
X171174482Y-126824188D01*
X171050000Y-126811928D01*
X170035750Y-126815000D01*
X169877002Y-126973748D01*
X169877002Y-126815000D01*
X169869932Y-126815000D01*
X170103400Y-126623398D01*
X170176276Y-126534598D01*
X171476270Y-125234604D01*
X171694191Y-124969068D01*
X171910269Y-124564814D01*
X172043329Y-124126172D01*
X172088259Y-123670001D01*
X172043329Y-123213829D01*
X171910269Y-122775187D01*
X171694191Y-122370934D01*
X171403398Y-122016602D01*
X171049066Y-121725809D01*
X170644813Y-121509731D01*
X170206171Y-121376671D01*
X169749999Y-121331741D01*
X169293828Y-121376671D01*
X168855186Y-121509731D01*
X168450932Y-121725809D01*
X168185396Y-121943730D01*
X167486861Y-122642265D01*
X167379999Y-122631740D01*
X167265687Y-122642999D01*
X167265685Y-122642999D01*
X166923828Y-122676669D01*
X166485187Y-122809729D01*
X166080933Y-123025808D01*
X165726601Y-123316600D01*
X165653725Y-123405400D01*
X165386125Y-123673000D01*
X163776016Y-123673000D01*
X163837353Y-123581202D01*
X163929847Y-123357903D01*
X163977000Y-123120849D01*
X163977000Y-122879151D01*
X163929847Y-122642097D01*
X163837353Y-122418798D01*
X163777000Y-122328473D01*
X163777000Y-113171527D01*
X163837353Y-113081202D01*
X163929847Y-112857903D01*
X163939925Y-112807236D01*
X163961903Y-112802864D01*
X164185202Y-112710370D01*
X164386167Y-112576090D01*
X164557073Y-112405184D01*
X164691353Y-112204219D01*
X164783847Y-111980920D01*
X164831000Y-111743866D01*
X164831000Y-111502168D01*
X164783847Y-111265114D01*
X164691353Y-111041815D01*
X164557073Y-110840850D01*
X164386167Y-110669944D01*
X164185202Y-110535664D01*
X163961903Y-110443170D01*
X163724849Y-110396017D01*
X163483151Y-110396017D01*
X163246097Y-110443170D01*
X163022798Y-110535664D01*
X162932473Y-110596017D01*
X161652423Y-110596017D01*
X161601982Y-110591049D01*
X161551541Y-110596017D01*
X161551532Y-110596017D01*
X161400656Y-110610877D01*
X161264177Y-110652278D01*
X161293330Y-110556172D01*
X161327000Y-110214315D01*
X161327000Y-106463874D01*
X163506363Y-104284512D01*
X163700932Y-104444190D01*
X164105186Y-104660269D01*
X164543827Y-104793329D01*
X164885684Y-104826999D01*
X164885687Y-104826999D01*
X164999999Y-104838258D01*
X165114311Y-104826999D01*
X170701611Y-104826999D01*
X170815923Y-104838258D01*
X170930235Y-104826999D01*
X170930238Y-104826999D01*
X171272095Y-104793329D01*
X171710736Y-104660269D01*
X172114990Y-104444190D01*
X172469322Y-104153398D01*
X172542198Y-104064598D01*
X174123001Y-102483796D01*
X174123000Y-112809571D01*
G36*
X138673000Y-121434826D02*
G01*
X138666581Y-121500000D01*
X138673000Y-121565174D01*
X138673000Y-121565184D01*
X138692201Y-121760137D01*
X138768081Y-122010278D01*
X138801784Y-122073331D01*
X138891302Y-122240808D01*
X139015498Y-122392140D01*
X139057131Y-122442870D01*
X139107761Y-122484421D01*
X139173000Y-122549660D01*
X139173000Y-123130698D01*
X139185781Y-123194953D01*
X139192201Y-123260136D01*
X139211214Y-123322814D01*
X139223996Y-123387072D01*
X139249069Y-123447604D01*
X139268081Y-123510277D01*
X139298954Y-123568037D01*
X139321347Y-123622097D01*
X139214250Y-123515000D01*
X138550000Y-123511928D01*
X138425518Y-123524188D01*
X138305820Y-123560498D01*
X138195506Y-123619463D01*
X138098815Y-123698815D01*
X138019463Y-123795506D01*
X137960498Y-123905820D01*
X137924188Y-124025518D01*
X137911928Y-124150000D01*
X137915000Y-124264250D01*
X138073750Y-124423000D01*
X139373000Y-124423000D01*
X139373000Y-124403000D01*
X139627000Y-124403000D01*
X139627000Y-124423000D01*
X139647000Y-124423000D01*
X139647000Y-124677000D01*
X139627000Y-124677000D01*
X139627000Y-124697000D01*
X139373000Y-124697000D01*
X139373000Y-124677000D01*
X138073750Y-124677000D01*
X137915000Y-124835750D01*
X137911928Y-124950000D01*
X137924188Y-125074482D01*
X137960498Y-125194180D01*
X138019463Y-125304494D01*
X138073928Y-125370860D01*
X137962394Y-125462394D01*
X137859048Y-125588321D01*
X137782255Y-125731990D01*
X137734966Y-125887880D01*
X137718999Y-126050000D01*
X137718999Y-126850000D01*
X137734966Y-127012120D01*
X137782255Y-127168010D01*
X137859048Y-127311679D01*
X137962394Y-127437606D01*
X138088321Y-127540952D01*
X138231990Y-127617745D01*
X138387880Y-127665034D01*
X138473000Y-127673417D01*
X138473001Y-129718999D01*
X138199999Y-129718999D01*
X137989106Y-129739770D01*
X137786318Y-129801285D01*
X137599428Y-129901180D01*
X137435617Y-130035617D01*
X137431013Y-130041227D01*
X137404494Y-130019463D01*
X137294180Y-129960498D01*
X137174482Y-129924188D01*
X137050000Y-129911928D01*
X136760750Y-129915000D01*
X136602000Y-130073750D01*
X136602000Y-131123000D01*
X136622000Y-131123000D01*
X136622000Y-131377000D01*
X136602000Y-131377000D01*
X136602000Y-131397000D01*
X136348000Y-131397000D01*
X136348000Y-131377000D01*
X135423750Y-131377000D01*
X135265000Y-131535750D01*
X135261928Y-131950000D01*
X135274188Y-132074482D01*
X135310498Y-132194180D01*
X135369463Y-132304494D01*
X135369794Y-132304897D01*
X135251180Y-132449428D01*
X135151285Y-132636318D01*
X135089770Y-132839106D01*
X135068999Y-133049999D01*
X135068999Y-133139635D01*
X134920672Y-133060352D01*
X134651021Y-132790702D01*
X134782167Y-132703073D01*
X134953073Y-132532167D01*
X135087353Y-132331202D01*
X135179847Y-132107903D01*
X135227000Y-131870849D01*
X135227000Y-131629151D01*
X135179847Y-131392097D01*
X135087353Y-131168798D01*
X134953073Y-130967833D01*
X134782167Y-130796927D01*
X134647581Y-130707000D01*
X134959491Y-130707000D01*
X135262645Y-130646699D01*
X135265000Y-130964250D01*
X135423750Y-131123000D01*
X136348000Y-131123000D01*
X136348000Y-130073750D01*
X136306142Y-130031892D01*
X136402149Y-129935884D01*
X136634923Y-129587512D01*
X136795261Y-129200423D01*
X136877000Y-128789491D01*
X136877000Y-128370509D01*
X136795261Y-127959577D01*
X136634923Y-127572488D01*
X136402149Y-127224116D01*
X136105884Y-126927851D01*
X135757512Y-126695077D01*
X135370423Y-126534739D01*
X134959491Y-126453000D01*
X134540509Y-126453000D01*
X134129577Y-126534739D01*
X133742488Y-126695077D01*
X133676999Y-126738835D01*
X133676999Y-126281001D01*
X136362760Y-126281001D01*
X136413201Y-126285969D01*
X136463642Y-126281001D01*
X136463652Y-126281001D01*
X136614528Y-126266141D01*
X136808118Y-126207416D01*
X136986532Y-126112052D01*
X137142913Y-125983713D01*
X137175076Y-125944523D01*
X137194523Y-125925075D01*
X137233713Y-125892913D01*
X137271126Y-125847326D01*
X137362052Y-125736532D01*
X137364480Y-125731990D01*
X137457416Y-125558118D01*
X137516141Y-125364528D01*
X137531001Y-125213652D01*
X137531001Y-125213644D01*
X137535969Y-125163201D01*
X137531001Y-125112758D01*
X137531001Y-122262195D01*
X138673000Y-121120196D01*
X138673000Y-121434826D01*
G37*
X138673000Y-121434826D02*
X138666581Y-121500000D01*
X138673000Y-121565174D01*
X138673000Y-121565184D01*
X138692201Y-121760137D01*
X138768081Y-122010278D01*
X138801784Y-122073331D01*
X138891302Y-122240808D01*
X139015498Y-122392140D01*
X139057131Y-122442870D01*
X139107761Y-122484421D01*
X139173000Y-122549660D01*
X139173000Y-123130698D01*
X139185781Y-123194953D01*
X139192201Y-123260136D01*
X139211214Y-123322814D01*
X139223996Y-123387072D01*
X139249069Y-123447604D01*
X139268081Y-123510277D01*
X139298954Y-123568037D01*
X139321347Y-123622097D01*
X139214250Y-123515000D01*
X138550000Y-123511928D01*
X138425518Y-123524188D01*
X138305820Y-123560498D01*
X138195506Y-123619463D01*
X138098815Y-123698815D01*
X138019463Y-123795506D01*
X137960498Y-123905820D01*
X137924188Y-124025518D01*
X137911928Y-124150000D01*
X137915000Y-124264250D01*
X138073750Y-124423000D01*
X139373000Y-124423000D01*
X139373000Y-124403000D01*
X139627000Y-124403000D01*
X139627000Y-124423000D01*
X139647000Y-124423000D01*
X139647000Y-124677000D01*
X139627000Y-124677000D01*
X139627000Y-124697000D01*
X139373000Y-124697000D01*
X139373000Y-124677000D01*
X138073750Y-124677000D01*
X137915000Y-124835750D01*
X137911928Y-124950000D01*
X137924188Y-125074482D01*
X137960498Y-125194180D01*
X138019463Y-125304494D01*
X138073928Y-125370860D01*
X137962394Y-125462394D01*
X137859048Y-125588321D01*
X137782255Y-125731990D01*
X137734966Y-125887880D01*
X137718999Y-126050000D01*
X137718999Y-126850000D01*
X137734966Y-127012120D01*
X137782255Y-127168010D01*
X137859048Y-127311679D01*
X137962394Y-127437606D01*
X138088321Y-127540952D01*
X138231990Y-127617745D01*
X138387880Y-127665034D01*
X138473000Y-127673417D01*
X138473001Y-129718999D01*
X138199999Y-129718999D01*
X137989106Y-129739770D01*
X137786318Y-129801285D01*
X137599428Y-129901180D01*
X137435617Y-130035617D01*
X137431013Y-130041227D01*
X137404494Y-130019463D01*
X137294180Y-129960498D01*
X137174482Y-129924188D01*
X137050000Y-129911928D01*
X136760750Y-129915000D01*
X136602000Y-130073750D01*
X136602000Y-131123000D01*
X136622000Y-131123000D01*
X136622000Y-131377000D01*
X136602000Y-131377000D01*
X136602000Y-131397000D01*
X136348000Y-131397000D01*
X136348000Y-131377000D01*
X135423750Y-131377000D01*
X135265000Y-131535750D01*
X135261928Y-131950000D01*
X135274188Y-132074482D01*
X135310498Y-132194180D01*
X135369463Y-132304494D01*
X135369794Y-132304897D01*
X135251180Y-132449428D01*
X135151285Y-132636318D01*
X135089770Y-132839106D01*
X135068999Y-133049999D01*
X135068999Y-133139635D01*
X134920672Y-133060352D01*
X134651021Y-132790702D01*
X134782167Y-132703073D01*
X134953073Y-132532167D01*
X135087353Y-132331202D01*
X135179847Y-132107903D01*
X135227000Y-131870849D01*
X135227000Y-131629151D01*
X135179847Y-131392097D01*
X135087353Y-131168798D01*
X134953073Y-130967833D01*
X134782167Y-130796927D01*
X134647581Y-130707000D01*
X134959491Y-130707000D01*
X135262645Y-130646699D01*
X135265000Y-130964250D01*
X135423750Y-131123000D01*
X136348000Y-131123000D01*
X136348000Y-130073750D01*
X136306142Y-130031892D01*
X136402149Y-129935884D01*
X136634923Y-129587512D01*
X136795261Y-129200423D01*
X136877000Y-128789491D01*
X136877000Y-128370509D01*
X136795261Y-127959577D01*
X136634923Y-127572488D01*
X136402149Y-127224116D01*
X136105884Y-126927851D01*
X135757512Y-126695077D01*
X135370423Y-126534739D01*
X134959491Y-126453000D01*
X134540509Y-126453000D01*
X134129577Y-126534739D01*
X133742488Y-126695077D01*
X133676999Y-126738835D01*
X133676999Y-126281001D01*
X136362760Y-126281001D01*
X136413201Y-126285969D01*
X136463642Y-126281001D01*
X136463652Y-126281001D01*
X136614528Y-126266141D01*
X136808118Y-126207416D01*
X136986532Y-126112052D01*
X137142913Y-125983713D01*
X137175076Y-125944523D01*
X137194523Y-125925075D01*
X137233713Y-125892913D01*
X137271126Y-125847326D01*
X137362052Y-125736532D01*
X137364480Y-125731990D01*
X137457416Y-125558118D01*
X137516141Y-125364528D01*
X137531001Y-125213652D01*
X137531001Y-125213644D01*
X137535969Y-125163201D01*
X137531001Y-125112758D01*
X137531001Y-122262195D01*
X138673000Y-121120196D01*
X138673000Y-121434826D01*
G36*
X135550586Y-121441883D02*
G01*
X135513678Y-121563552D01*
X135035750Y-121565000D01*
X134877000Y-121723750D01*
X134877000Y-123373000D01*
X134897000Y-123373000D01*
X134897000Y-123627000D01*
X134877000Y-123627000D01*
X134877000Y-123647000D01*
X134623000Y-123647000D01*
X134623000Y-123627000D01*
X132973750Y-123627000D01*
X132815000Y-123785750D01*
X132813552Y-124263678D01*
X132691882Y-124300586D01*
X132622999Y-124337405D01*
X132622999Y-123021395D01*
X132813838Y-122830557D01*
X132815000Y-123214250D01*
X132973750Y-123373000D01*
X134623000Y-123373000D01*
X134623000Y-121723750D01*
X134464250Y-121565000D01*
X134080558Y-121563838D01*
X134367396Y-121277000D01*
X135638717Y-121277000D01*
X135550586Y-121441883D01*
G37*
X135550586Y-121441883D02*
X135513678Y-121563552D01*
X135035750Y-121565000D01*
X134877000Y-121723750D01*
X134877000Y-123373000D01*
X134897000Y-123373000D01*
X134897000Y-123627000D01*
X134877000Y-123627000D01*
X134877000Y-123647000D01*
X134623000Y-123647000D01*
X134623000Y-123627000D01*
X132973750Y-123627000D01*
X132815000Y-123785750D01*
X132813552Y-124263678D01*
X132691882Y-124300586D01*
X132622999Y-124337405D01*
X132622999Y-123021395D01*
X132813838Y-122830557D01*
X132815000Y-123214250D01*
X132973750Y-123373000D01*
X134623000Y-123373000D01*
X134623000Y-121723750D01*
X134464250Y-121565000D01*
X134080558Y-121563838D01*
X134367396Y-121277000D01*
X135638717Y-121277000D01*
X135550586Y-121441883D01*
G36*
X134618000Y-103273937D02*
G01*
X134613032Y-103324378D01*
X134618000Y-103374819D01*
X134618000Y-103374828D01*
X134632860Y-103525704D01*
X134691585Y-103719294D01*
X134786949Y-103897709D01*
X134915288Y-104054090D01*
X134954481Y-104086255D01*
X136195095Y-105326869D01*
X136064107Y-105339770D01*
X135861319Y-105401285D01*
X135674428Y-105501181D01*
X135510617Y-105635617D01*
X135376181Y-105799428D01*
X135276285Y-105986319D01*
X135214770Y-106189107D01*
X135193999Y-106400000D01*
X135193999Y-107600000D01*
X135214770Y-107810893D01*
X135276285Y-108013681D01*
X135376181Y-108200572D01*
X135510617Y-108364383D01*
X135586457Y-108426623D01*
X135473879Y-108563801D01*
X135318158Y-108855135D01*
X135222265Y-109171251D01*
X135189886Y-109500000D01*
X135222265Y-109828749D01*
X135318158Y-110144865D01*
X135473879Y-110436199D01*
X135683444Y-110691556D01*
X135909836Y-110877350D01*
X135865571Y-110910951D01*
X135672504Y-111128807D01*
X135525648Y-111380142D01*
X135433524Y-111643110D01*
X135554845Y-111873000D01*
X136873000Y-111873000D01*
X136873000Y-111853000D01*
X137127000Y-111853000D01*
X137127000Y-111873000D01*
X138445155Y-111873000D01*
X138566476Y-111643110D01*
X138474352Y-111380142D01*
X138327496Y-111128807D01*
X138134429Y-110910951D01*
X138090164Y-110877350D01*
X138316556Y-110691556D01*
X138526121Y-110436199D01*
X138681842Y-110144865D01*
X138777735Y-109828749D01*
X138810114Y-109500000D01*
X138777735Y-109171251D01*
X138681842Y-108855135D01*
X138526121Y-108563801D01*
X138413543Y-108426623D01*
X138489383Y-108364383D01*
X138623819Y-108200572D01*
X138723715Y-108013681D01*
X138760533Y-107892308D01*
X140407914Y-109539689D01*
X139059476Y-110888128D01*
X139020289Y-110920288D01*
X138988129Y-110959475D01*
X138988128Y-110959476D01*
X138891950Y-111076669D01*
X138796586Y-111255083D01*
X138737861Y-111448673D01*
X138718032Y-111650000D01*
X138723001Y-111700451D01*
X138723001Y-113990816D01*
X138681842Y-113855135D01*
X138526121Y-113563801D01*
X138316556Y-113308444D01*
X138090164Y-113122650D01*
X138134429Y-113089049D01*
X138327496Y-112871193D01*
X138474352Y-112619858D01*
X138566476Y-112356890D01*
X138445155Y-112127000D01*
X137127000Y-112127000D01*
X137127000Y-112147000D01*
X136873000Y-112147000D01*
X136873000Y-112127000D01*
X135554845Y-112127000D01*
X135433524Y-112356890D01*
X135525648Y-112619858D01*
X135672504Y-112871193D01*
X135865571Y-113089049D01*
X135909836Y-113122650D01*
X135683444Y-113308444D01*
X135548397Y-113473000D01*
X133550440Y-113473000D01*
X133499999Y-113468032D01*
X133449558Y-113473000D01*
X133449549Y-113473000D01*
X133298673Y-113487860D01*
X133105083Y-113546585D01*
X132926669Y-113641949D01*
X132770288Y-113770288D01*
X132738128Y-113809475D01*
X132622999Y-113924604D01*
X132622999Y-103681001D01*
X133850000Y-103681001D01*
X134012120Y-103665034D01*
X134168010Y-103617745D01*
X134311679Y-103540952D01*
X134437606Y-103437606D01*
X134540952Y-103311679D01*
X134617745Y-103168010D01*
X134618000Y-103167169D01*
X134618000Y-103273937D01*
G37*
X134618000Y-103273937D02*
X134613032Y-103324378D01*
X134618000Y-103374819D01*
X134618000Y-103374828D01*
X134632860Y-103525704D01*
X134691585Y-103719294D01*
X134786949Y-103897709D01*
X134915288Y-104054090D01*
X134954481Y-104086255D01*
X136195095Y-105326869D01*
X136064107Y-105339770D01*
X135861319Y-105401285D01*
X135674428Y-105501181D01*
X135510617Y-105635617D01*
X135376181Y-105799428D01*
X135276285Y-105986319D01*
X135214770Y-106189107D01*
X135193999Y-106400000D01*
X135193999Y-107600000D01*
X135214770Y-107810893D01*
X135276285Y-108013681D01*
X135376181Y-108200572D01*
X135510617Y-108364383D01*
X135586457Y-108426623D01*
X135473879Y-108563801D01*
X135318158Y-108855135D01*
X135222265Y-109171251D01*
X135189886Y-109500000D01*
X135222265Y-109828749D01*
X135318158Y-110144865D01*
X135473879Y-110436199D01*
X135683444Y-110691556D01*
X135909836Y-110877350D01*
X135865571Y-110910951D01*
X135672504Y-111128807D01*
X135525648Y-111380142D01*
X135433524Y-111643110D01*
X135554845Y-111873000D01*
X136873000Y-111873000D01*
X136873000Y-111853000D01*
X137127000Y-111853000D01*
X137127000Y-111873000D01*
X138445155Y-111873000D01*
X138566476Y-111643110D01*
X138474352Y-111380142D01*
X138327496Y-111128807D01*
X138134429Y-110910951D01*
X138090164Y-110877350D01*
X138316556Y-110691556D01*
X138526121Y-110436199D01*
X138681842Y-110144865D01*
X138777735Y-109828749D01*
X138810114Y-109500000D01*
X138777735Y-109171251D01*
X138681842Y-108855135D01*
X138526121Y-108563801D01*
X138413543Y-108426623D01*
X138489383Y-108364383D01*
X138623819Y-108200572D01*
X138723715Y-108013681D01*
X138760533Y-107892308D01*
X140407914Y-109539689D01*
X139059476Y-110888128D01*
X139020289Y-110920288D01*
X138988129Y-110959475D01*
X138988128Y-110959476D01*
X138891950Y-111076669D01*
X138796586Y-111255083D01*
X138737861Y-111448673D01*
X138718032Y-111650000D01*
X138723001Y-111700451D01*
X138723001Y-113990816D01*
X138681842Y-113855135D01*
X138526121Y-113563801D01*
X138316556Y-113308444D01*
X138090164Y-113122650D01*
X138134429Y-113089049D01*
X138327496Y-112871193D01*
X138474352Y-112619858D01*
X138566476Y-112356890D01*
X138445155Y-112127000D01*
X137127000Y-112127000D01*
X137127000Y-112147000D01*
X136873000Y-112147000D01*
X136873000Y-112127000D01*
X135554845Y-112127000D01*
X135433524Y-112356890D01*
X135525648Y-112619858D01*
X135672504Y-112871193D01*
X135865571Y-113089049D01*
X135909836Y-113122650D01*
X135683444Y-113308444D01*
X135548397Y-113473000D01*
X133550440Y-113473000D01*
X133499999Y-113468032D01*
X133449558Y-113473000D01*
X133449549Y-113473000D01*
X133298673Y-113487860D01*
X133105083Y-113546585D01*
X132926669Y-113641949D01*
X132770288Y-113770288D01*
X132738128Y-113809475D01*
X132622999Y-113924604D01*
X132622999Y-103681001D01*
X133850000Y-103681001D01*
X134012120Y-103665034D01*
X134168010Y-103617745D01*
X134311679Y-103540952D01*
X134437606Y-103437606D01*
X134540952Y-103311679D01*
X134617745Y-103168010D01*
X134618000Y-103167169D01*
X134618000Y-103273937D01*
G36*
X150884966Y-108692120D02*
G01*
X150932255Y-108848010D01*
X151009048Y-108991679D01*
X151075177Y-109072257D01*
X151074188Y-109075518D01*
X151061928Y-109200000D01*
X151065000Y-109214250D01*
X151223750Y-109373000D01*
X152573000Y-109373000D01*
X152573000Y-109361001D01*
X152827000Y-109361001D01*
X152827000Y-109373000D01*
X152847000Y-109373000D01*
X152847000Y-109627000D01*
X152827000Y-109627000D01*
X152827000Y-109638999D01*
X152573000Y-109638999D01*
X152573000Y-109627000D01*
X151223750Y-109627000D01*
X151090372Y-109760378D01*
X150905083Y-109816585D01*
X150726669Y-109911949D01*
X150570288Y-110040288D01*
X150538128Y-110079475D01*
X148789021Y-111828583D01*
X148789021Y-110687417D01*
X150875942Y-108600497D01*
X150884966Y-108692120D01*
G37*
X150884966Y-108692120D02*
X150932255Y-108848010D01*
X151009048Y-108991679D01*
X151075177Y-109072257D01*
X151074188Y-109075518D01*
X151061928Y-109200000D01*
X151065000Y-109214250D01*
X151223750Y-109373000D01*
X152573000Y-109373000D01*
X152573000Y-109361001D01*
X152827000Y-109361001D01*
X152827000Y-109373000D01*
X152847000Y-109373000D01*
X152847000Y-109627000D01*
X152827000Y-109627000D01*
X152827000Y-109638999D01*
X152573000Y-109638999D01*
X152573000Y-109627000D01*
X151223750Y-109627000D01*
X151090372Y-109760378D01*
X150905083Y-109816585D01*
X150726669Y-109911949D01*
X150570288Y-110040288D01*
X150538128Y-110079475D01*
X148789021Y-111828583D01*
X148789021Y-110687417D01*
X150875942Y-108600497D01*
X150884966Y-108692120D01*
G36*
X154623000Y-110205397D02*
G01*
X154623000Y-111567752D01*
X154459216Y-111403967D01*
X154467745Y-111388010D01*
X154515034Y-111232120D01*
X154531001Y-111070000D01*
X154531001Y-110470000D01*
X154515034Y-110307880D01*
X154467745Y-110151990D01*
X154390952Y-110008321D01*
X154324823Y-109927743D01*
X154325812Y-109924482D01*
X154327271Y-109909667D01*
X154623000Y-110205397D01*
G37*
X154623000Y-110205397D02*
X154623000Y-111567752D01*
X154459216Y-111403967D01*
X154467745Y-111388010D01*
X154515034Y-111232120D01*
X154531001Y-111070000D01*
X154531001Y-110470000D01*
X154515034Y-110307880D01*
X154467745Y-110151990D01*
X154390952Y-110008321D01*
X154324823Y-109927743D01*
X154325812Y-109924482D01*
X154327271Y-109909667D01*
X154623000Y-110205397D01*
G36*
X162535617Y-92614383D02*
G01*
X162699428Y-92748820D01*
X162886318Y-92848715D01*
X163089106Y-92910230D01*
X163299999Y-92931001D01*
X163973000Y-92931001D01*
X163973000Y-93404603D01*
X163369475Y-94008128D01*
X163330289Y-94040288D01*
X163201950Y-94196669D01*
X163125873Y-94338999D01*
X163110000Y-94338999D01*
X162947880Y-94354966D01*
X162791990Y-94402255D01*
X162648321Y-94479048D01*
X162522394Y-94582394D01*
X162419048Y-94708321D01*
X162342255Y-94851990D01*
X162294966Y-95007880D01*
X162278999Y-95170000D01*
X162278999Y-95337388D01*
X162172120Y-95304966D01*
X162010000Y-95288999D01*
X160110000Y-95288999D01*
X159947880Y-95304966D01*
X159791990Y-95352255D01*
X159648321Y-95429048D01*
X159522394Y-95532394D01*
X159419048Y-95658321D01*
X159342255Y-95801990D01*
X159294966Y-95957880D01*
X159278999Y-96120000D01*
X159278999Y-96920000D01*
X159294966Y-97082120D01*
X159342255Y-97238010D01*
X159419048Y-97381679D01*
X159522394Y-97507606D01*
X159648321Y-97610952D01*
X159791990Y-97687745D01*
X159947880Y-97735034D01*
X160110000Y-97751001D01*
X160125873Y-97751001D01*
X160201950Y-97893331D01*
X160297811Y-98010137D01*
X160330289Y-98049712D01*
X160369476Y-98081872D01*
X161748364Y-99460761D01*
X157435401Y-103773725D01*
X157346601Y-103846601D01*
X157055809Y-104200934D01*
X156839730Y-104605188D01*
X156706670Y-105043829D01*
X156676784Y-105347265D01*
X156661741Y-105500000D01*
X156673000Y-105614312D01*
X156673000Y-105973984D01*
X156581202Y-105912647D01*
X156357903Y-105820153D01*
X156120849Y-105773000D01*
X155879151Y-105773000D01*
X155642097Y-105820153D01*
X155418798Y-105912647D01*
X155388337Y-105933000D01*
X154531001Y-105933000D01*
X154531001Y-105390000D01*
X154515034Y-105227880D01*
X154467745Y-105071990D01*
X154458664Y-105055000D01*
X154467745Y-105038010D01*
X154515034Y-104882120D01*
X154528664Y-104743733D01*
X154790525Y-104481872D01*
X154829712Y-104449712D01*
X154958051Y-104293331D01*
X155053415Y-104114917D01*
X155112140Y-103921327D01*
X155127000Y-103770451D01*
X155127000Y-103770442D01*
X155131968Y-103720001D01*
X155127000Y-103669560D01*
X155127000Y-99747135D01*
X155251301Y-99622834D01*
X155262426Y-99678761D01*
X155437840Y-100102248D01*
X155692501Y-100483376D01*
X156016624Y-100807499D01*
X156397752Y-101062160D01*
X156821239Y-101237574D01*
X157270811Y-101327000D01*
X157729189Y-101327000D01*
X158178761Y-101237574D01*
X158602248Y-101062160D01*
X158983376Y-100807499D01*
X159307499Y-100483376D01*
X159562160Y-100102248D01*
X159737574Y-99678761D01*
X159827000Y-99229189D01*
X159827000Y-98770811D01*
X159737574Y-98321239D01*
X159562160Y-97897752D01*
X159307499Y-97516624D01*
X158983376Y-97192501D01*
X158602248Y-96937840D01*
X158178761Y-96762426D01*
X158122834Y-96751301D01*
X162322136Y-92552000D01*
X162484420Y-92552000D01*
X162535617Y-92614383D01*
G37*
X162535617Y-92614383D02*
X162699428Y-92748820D01*
X162886318Y-92848715D01*
X163089106Y-92910230D01*
X163299999Y-92931001D01*
X163973000Y-92931001D01*
X163973000Y-93404603D01*
X163369475Y-94008128D01*
X163330289Y-94040288D01*
X163201950Y-94196669D01*
X163125873Y-94338999D01*
X163110000Y-94338999D01*
X162947880Y-94354966D01*
X162791990Y-94402255D01*
X162648321Y-94479048D01*
X162522394Y-94582394D01*
X162419048Y-94708321D01*
X162342255Y-94851990D01*
X162294966Y-95007880D01*
X162278999Y-95170000D01*
X162278999Y-95337388D01*
X162172120Y-95304966D01*
X162010000Y-95288999D01*
X160110000Y-95288999D01*
X159947880Y-95304966D01*
X159791990Y-95352255D01*
X159648321Y-95429048D01*
X159522394Y-95532394D01*
X159419048Y-95658321D01*
X159342255Y-95801990D01*
X159294966Y-95957880D01*
X159278999Y-96120000D01*
X159278999Y-96920000D01*
X159294966Y-97082120D01*
X159342255Y-97238010D01*
X159419048Y-97381679D01*
X159522394Y-97507606D01*
X159648321Y-97610952D01*
X159791990Y-97687745D01*
X159947880Y-97735034D01*
X160110000Y-97751001D01*
X160125873Y-97751001D01*
X160201950Y-97893331D01*
X160297811Y-98010137D01*
X160330289Y-98049712D01*
X160369476Y-98081872D01*
X161748364Y-99460761D01*
X157435401Y-103773725D01*
X157346601Y-103846601D01*
X157055809Y-104200934D01*
X156839730Y-104605188D01*
X156706670Y-105043829D01*
X156676784Y-105347265D01*
X156661741Y-105500000D01*
X156673000Y-105614312D01*
X156673000Y-105973984D01*
X156581202Y-105912647D01*
X156357903Y-105820153D01*
X156120849Y-105773000D01*
X155879151Y-105773000D01*
X155642097Y-105820153D01*
X155418798Y-105912647D01*
X155388337Y-105933000D01*
X154531001Y-105933000D01*
X154531001Y-105390000D01*
X154515034Y-105227880D01*
X154467745Y-105071990D01*
X154458664Y-105055000D01*
X154467745Y-105038010D01*
X154515034Y-104882120D01*
X154528664Y-104743733D01*
X154790525Y-104481872D01*
X154829712Y-104449712D01*
X154958051Y-104293331D01*
X155053415Y-104114917D01*
X155112140Y-103921327D01*
X155127000Y-103770451D01*
X155127000Y-103770442D01*
X155131968Y-103720001D01*
X155127000Y-103669560D01*
X155127000Y-99747135D01*
X155251301Y-99622834D01*
X155262426Y-99678761D01*
X155437840Y-100102248D01*
X155692501Y-100483376D01*
X156016624Y-100807499D01*
X156397752Y-101062160D01*
X156821239Y-101237574D01*
X157270811Y-101327000D01*
X157729189Y-101327000D01*
X158178761Y-101237574D01*
X158602248Y-101062160D01*
X158983376Y-100807499D01*
X159307499Y-100483376D01*
X159562160Y-100102248D01*
X159737574Y-99678761D01*
X159827000Y-99229189D01*
X159827000Y-98770811D01*
X159737574Y-98321239D01*
X159562160Y-97897752D01*
X159307499Y-97516624D01*
X158983376Y-97192501D01*
X158602248Y-96937840D01*
X158178761Y-96762426D01*
X158122834Y-96751301D01*
X162322136Y-92552000D01*
X162484420Y-92552000D01*
X162535617Y-92614383D01*
G36*
X133423001Y-92399549D02*
G01*
X133418032Y-92450000D01*
X133423001Y-92500451D01*
X133437861Y-92651327D01*
X133496586Y-92844917D01*
X133591950Y-93023331D01*
X133720289Y-93179712D01*
X133759476Y-93211872D01*
X134798960Y-94251356D01*
X134820153Y-94357903D01*
X134912647Y-94581202D01*
X135046927Y-94782167D01*
X135217833Y-94953073D01*
X135418798Y-95087353D01*
X135642097Y-95179847D01*
X135879151Y-95227000D01*
X136119000Y-95227000D01*
X136118999Y-97543674D01*
X135970001Y-97528999D01*
X135319999Y-97528999D01*
X135109106Y-97549770D01*
X134906318Y-97611285D01*
X134719428Y-97711180D01*
X134555617Y-97845617D01*
X134551013Y-97851227D01*
X134524494Y-97829463D01*
X134414180Y-97770498D01*
X134294482Y-97734188D01*
X134170000Y-97721928D01*
X133880750Y-97725000D01*
X133722000Y-97883750D01*
X133722000Y-98933000D01*
X133742000Y-98933000D01*
X133742000Y-99187000D01*
X133722000Y-99187000D01*
X133722000Y-99207000D01*
X133468000Y-99207000D01*
X133468000Y-99187000D01*
X133448000Y-99187000D01*
X133448000Y-98933000D01*
X133468000Y-98933000D01*
X133468000Y-97883750D01*
X133309250Y-97725000D01*
X133020000Y-97721928D01*
X132895518Y-97734188D01*
X132775820Y-97770498D01*
X132665506Y-97829463D01*
X132622999Y-97864347D01*
X132622999Y-97485497D01*
X132714250Y-97485000D01*
X132873000Y-97326250D01*
X132873000Y-96127000D01*
X133127000Y-96127000D01*
X133127000Y-97326250D01*
X133285750Y-97485000D01*
X133850000Y-97488072D01*
X133974482Y-97475812D01*
X134094180Y-97439502D01*
X134204494Y-97380537D01*
X134301185Y-97301185D01*
X134380537Y-97204494D01*
X134439502Y-97094180D01*
X134475812Y-96974482D01*
X134488072Y-96850000D01*
X134485000Y-96285750D01*
X134326250Y-96127000D01*
X133127000Y-96127000D01*
X132873000Y-96127000D01*
X132853000Y-96127000D01*
X132853000Y-95873000D01*
X132873000Y-95873000D01*
X132873000Y-94673750D01*
X133127000Y-94673750D01*
X133127000Y-95873000D01*
X134326250Y-95873000D01*
X134485000Y-95714250D01*
X134488072Y-95150000D01*
X134475812Y-95025518D01*
X134439502Y-94905820D01*
X134380537Y-94795506D01*
X134301185Y-94698815D01*
X134204494Y-94619463D01*
X134094180Y-94560498D01*
X133974482Y-94524188D01*
X133850000Y-94511928D01*
X133285750Y-94515000D01*
X133127000Y-94673750D01*
X132873000Y-94673750D01*
X132714250Y-94515000D01*
X132622999Y-94514503D01*
X132622999Y-93813177D01*
X132661202Y-93797353D01*
X132862167Y-93663073D01*
X133033073Y-93492167D01*
X133167353Y-93291202D01*
X133259847Y-93067903D01*
X133307000Y-92830849D01*
X133307000Y-92589151D01*
X133259847Y-92352097D01*
X133188976Y-92181001D01*
X133423001Y-92181001D01*
X133423001Y-92399549D01*
G37*
X133423001Y-92399549D02*
X133418032Y-92450000D01*
X133423001Y-92500451D01*
X133437861Y-92651327D01*
X133496586Y-92844917D01*
X133591950Y-93023331D01*
X133720289Y-93179712D01*
X133759476Y-93211872D01*
X134798960Y-94251356D01*
X134820153Y-94357903D01*
X134912647Y-94581202D01*
X135046927Y-94782167D01*
X135217833Y-94953073D01*
X135418798Y-95087353D01*
X135642097Y-95179847D01*
X135879151Y-95227000D01*
X136119000Y-95227000D01*
X136118999Y-97543674D01*
X135970001Y-97528999D01*
X135319999Y-97528999D01*
X135109106Y-97549770D01*
X134906318Y-97611285D01*
X134719428Y-97711180D01*
X134555617Y-97845617D01*
X134551013Y-97851227D01*
X134524494Y-97829463D01*
X134414180Y-97770498D01*
X134294482Y-97734188D01*
X134170000Y-97721928D01*
X133880750Y-97725000D01*
X133722000Y-97883750D01*
X133722000Y-98933000D01*
X133742000Y-98933000D01*
X133742000Y-99187000D01*
X133722000Y-99187000D01*
X133722000Y-99207000D01*
X133468000Y-99207000D01*
X133468000Y-99187000D01*
X133448000Y-99187000D01*
X133448000Y-98933000D01*
X133468000Y-98933000D01*
X133468000Y-97883750D01*
X133309250Y-97725000D01*
X133020000Y-97721928D01*
X132895518Y-97734188D01*
X132775820Y-97770498D01*
X132665506Y-97829463D01*
X132622999Y-97864347D01*
X132622999Y-97485497D01*
X132714250Y-97485000D01*
X132873000Y-97326250D01*
X132873000Y-96127000D01*
X133127000Y-96127000D01*
X133127000Y-97326250D01*
X133285750Y-97485000D01*
X133850000Y-97488072D01*
X133974482Y-97475812D01*
X134094180Y-97439502D01*
X134204494Y-97380537D01*
X134301185Y-97301185D01*
X134380537Y-97204494D01*
X134439502Y-97094180D01*
X134475812Y-96974482D01*
X134488072Y-96850000D01*
X134485000Y-96285750D01*
X134326250Y-96127000D01*
X133127000Y-96127000D01*
X132873000Y-96127000D01*
X132853000Y-96127000D01*
X132853000Y-95873000D01*
X132873000Y-95873000D01*
X132873000Y-94673750D01*
X133127000Y-94673750D01*
X133127000Y-95873000D01*
X134326250Y-95873000D01*
X134485000Y-95714250D01*
X134488072Y-95150000D01*
X134475812Y-95025518D01*
X134439502Y-94905820D01*
X134380537Y-94795506D01*
X134301185Y-94698815D01*
X134204494Y-94619463D01*
X134094180Y-94560498D01*
X133974482Y-94524188D01*
X133850000Y-94511928D01*
X133285750Y-94515000D01*
X133127000Y-94673750D01*
X132873000Y-94673750D01*
X132714250Y-94515000D01*
X132622999Y-94514503D01*
X132622999Y-93813177D01*
X132661202Y-93797353D01*
X132862167Y-93663073D01*
X133033073Y-93492167D01*
X133167353Y-93291202D01*
X133259847Y-93067903D01*
X133307000Y-92830849D01*
X133307000Y-92589151D01*
X133259847Y-92352097D01*
X133188976Y-92181001D01*
X133423001Y-92181001D01*
X133423001Y-92399549D01*
G36*
X164187000Y-97343000D02*
G01*
X164207000Y-97343000D01*
X164207000Y-97597000D01*
X164187000Y-97597000D01*
X164187000Y-97617000D01*
X163933000Y-97617000D01*
X163933000Y-97597000D01*
X163913000Y-97597000D01*
X163913000Y-97343000D01*
X163933000Y-97343000D01*
X163933000Y-97323000D01*
X164187000Y-97323000D01*
X164187000Y-97343000D01*
G37*
X164187000Y-97343000D02*
X164207000Y-97343000D01*
X164207000Y-97597000D01*
X164187000Y-97597000D01*
X164187000Y-97617000D01*
X163933000Y-97617000D01*
X163933000Y-97597000D01*
X163913000Y-97597000D01*
X163913000Y-97343000D01*
X163933000Y-97343000D01*
X163933000Y-97323000D01*
X164187000Y-97323000D01*
X164187000Y-97343000D01*
G36*
X160523001Y-89596524D02*
G01*
X154047385Y-96072141D01*
X153965243Y-95819617D01*
X153807214Y-95523962D01*
X153491653Y-95367952D01*
X152179605Y-96680000D01*
X152193748Y-96694143D01*
X152014143Y-96873748D01*
X152000000Y-96859605D01*
X151985858Y-96873748D01*
X151806253Y-96694143D01*
X151820395Y-96680000D01*
X150508347Y-95367952D01*
X150417421Y-95412905D01*
X150427001Y-95315634D01*
X150427001Y-95315631D01*
X150438260Y-95201319D01*
X150436983Y-95188347D01*
X150687952Y-95188347D01*
X152000000Y-96500395D01*
X153312048Y-95188347D01*
X153156038Y-94872786D01*
X152781255Y-94681980D01*
X152376449Y-94567956D01*
X151957176Y-94535098D01*
X151539549Y-94584666D01*
X151139617Y-94714757D01*
X150843962Y-94872786D01*
X150687952Y-95188347D01*
X150436983Y-95188347D01*
X150427001Y-95087007D01*
X150427001Y-93357876D01*
X150516624Y-93447499D01*
X150897752Y-93702160D01*
X151321239Y-93877574D01*
X151770811Y-93967000D01*
X152229189Y-93967000D01*
X152678761Y-93877574D01*
X153102248Y-93702160D01*
X153483376Y-93447499D01*
X153807499Y-93123376D01*
X154062160Y-92742248D01*
X154237574Y-92318761D01*
X154327000Y-91869189D01*
X154327000Y-91410811D01*
X154237574Y-90961239D01*
X154062160Y-90537752D01*
X153807499Y-90156624D01*
X153483376Y-89832501D01*
X153102248Y-89577840D01*
X152678761Y-89402426D01*
X152299571Y-89327000D01*
X157883849Y-89327000D01*
X158248317Y-89477967D01*
X158746188Y-89577000D01*
X159253812Y-89577000D01*
X159751683Y-89477967D01*
X160220667Y-89283708D01*
X160523001Y-89081695D01*
X160523001Y-89596524D01*
G37*
X160523001Y-89596524D02*
X154047385Y-96072141D01*
X153965243Y-95819617D01*
X153807214Y-95523962D01*
X153491653Y-95367952D01*
X152179605Y-96680000D01*
X152193748Y-96694143D01*
X152014143Y-96873748D01*
X152000000Y-96859605D01*
X151985858Y-96873748D01*
X151806253Y-96694143D01*
X151820395Y-96680000D01*
X150508347Y-95367952D01*
X150417421Y-95412905D01*
X150427001Y-95315634D01*
X150427001Y-95315631D01*
X150438260Y-95201319D01*
X150436983Y-95188347D01*
X150687952Y-95188347D01*
X152000000Y-96500395D01*
X153312048Y-95188347D01*
X153156038Y-94872786D01*
X152781255Y-94681980D01*
X152376449Y-94567956D01*
X151957176Y-94535098D01*
X151539549Y-94584666D01*
X151139617Y-94714757D01*
X150843962Y-94872786D01*
X150687952Y-95188347D01*
X150436983Y-95188347D01*
X150427001Y-95087007D01*
X150427001Y-93357876D01*
X150516624Y-93447499D01*
X150897752Y-93702160D01*
X151321239Y-93877574D01*
X151770811Y-93967000D01*
X152229189Y-93967000D01*
X152678761Y-93877574D01*
X153102248Y-93702160D01*
X153483376Y-93447499D01*
X153807499Y-93123376D01*
X154062160Y-92742248D01*
X154237574Y-92318761D01*
X154327000Y-91869189D01*
X154327000Y-91410811D01*
X154237574Y-90961239D01*
X154062160Y-90537752D01*
X153807499Y-90156624D01*
X153483376Y-89832501D01*
X153102248Y-89577840D01*
X152678761Y-89402426D01*
X152299571Y-89327000D01*
X157883849Y-89327000D01*
X158248317Y-89477967D01*
X158746188Y-89577000D01*
X159253812Y-89577000D01*
X159751683Y-89477967D01*
X160220667Y-89283708D01*
X160523001Y-89081695D01*
X160523001Y-89596524D01*
G36*
X166627000Y-91398000D02*
G01*
X166647000Y-91398000D01*
X166647000Y-91652000D01*
X166627000Y-91652000D01*
X166627000Y-91672000D01*
X166373000Y-91672000D01*
X166373000Y-91652000D01*
X166353000Y-91652000D01*
X166353000Y-91398000D01*
X166373000Y-91398000D01*
X166373000Y-91378000D01*
X166627000Y-91378000D01*
X166627000Y-91398000D01*
G37*
X166627000Y-91398000D02*
X166647000Y-91398000D01*
X166647000Y-91652000D01*
X166627000Y-91652000D01*
X166627000Y-91672000D01*
X166373000Y-91672000D01*
X166373000Y-91652000D01*
X166353000Y-91652000D01*
X166353000Y-91398000D01*
X166373000Y-91398000D01*
X166373000Y-91378000D01*
X166627000Y-91378000D01*
X166627000Y-91398000D01*
G36*
X174123001Y-81627004D02*
G01*
X173974578Y-81565525D01*
X173660245Y-81503000D01*
X173339755Y-81503000D01*
X173025422Y-81565525D01*
X172729327Y-81688172D01*
X172462848Y-81866227D01*
X172236227Y-82092848D01*
X172058172Y-82359327D01*
X171935525Y-82655422D01*
X171873000Y-82969755D01*
X171873000Y-83290245D01*
X171875382Y-83302221D01*
X171109477Y-84068127D01*
X171070290Y-84100287D01*
X171038130Y-84139474D01*
X171038129Y-84139475D01*
X170941951Y-84256668D01*
X170846587Y-84435082D01*
X170787862Y-84628672D01*
X170768033Y-84829999D01*
X170769996Y-84849925D01*
X170602248Y-84737840D01*
X170178761Y-84562426D01*
X169729189Y-84473000D01*
X169270811Y-84473000D01*
X168821239Y-84562426D01*
X168397752Y-84737840D01*
X168016624Y-84992501D01*
X167692501Y-85316624D01*
X167437840Y-85697752D01*
X167262426Y-86121239D01*
X167173000Y-86570811D01*
X167173000Y-87029189D01*
X167262426Y-87478761D01*
X167437840Y-87902248D01*
X167692501Y-88283376D01*
X168016624Y-88607499D01*
X168397752Y-88862160D01*
X168821239Y-89037574D01*
X169270811Y-89127000D01*
X169420603Y-89127000D01*
X167801670Y-90745933D01*
X167789502Y-90705820D01*
X167730537Y-90595506D01*
X167708773Y-90568987D01*
X167714383Y-90564383D01*
X167848820Y-90400572D01*
X167948715Y-90213682D01*
X168010230Y-90010894D01*
X168031001Y-89800001D01*
X168031001Y-89149999D01*
X168010230Y-88939106D01*
X167948715Y-88736318D01*
X167848820Y-88549428D01*
X167714383Y-88385617D01*
X167550572Y-88251180D01*
X167363682Y-88151285D01*
X167160894Y-88089770D01*
X166950001Y-88068999D01*
X166049999Y-88068999D01*
X165839106Y-88089770D01*
X165636318Y-88151285D01*
X165449428Y-88251180D01*
X165285617Y-88385617D01*
X165151180Y-88549428D01*
X165125000Y-88598407D01*
X165098820Y-88549428D01*
X164964383Y-88385617D01*
X164800572Y-88251180D01*
X164613682Y-88151285D01*
X164410894Y-88089770D01*
X164200001Y-88068999D01*
X163299999Y-88068999D01*
X163231011Y-88075794D01*
X163231011Y-85721385D01*
X167425398Y-81527000D01*
X167484420Y-81527000D01*
X167535617Y-81589383D01*
X167699428Y-81723820D01*
X167886318Y-81823715D01*
X168089106Y-81885230D01*
X168299999Y-81906001D01*
X169200001Y-81906001D01*
X169410894Y-81885230D01*
X169613682Y-81823715D01*
X169800572Y-81723820D01*
X169964383Y-81589383D01*
X170098820Y-81425572D01*
X170198715Y-81238682D01*
X170260230Y-81035894D01*
X170281001Y-80825001D01*
X170281001Y-80174999D01*
X170260230Y-79964106D01*
X170198715Y-79761318D01*
X170098820Y-79574428D01*
X170017221Y-79475000D01*
X170098820Y-79375572D01*
X170198715Y-79188682D01*
X170260230Y-78985894D01*
X170281001Y-78775001D01*
X170281001Y-78124999D01*
X170264714Y-77959636D01*
X170603375Y-78027000D01*
X171396625Y-78027000D01*
X172174633Y-77872245D01*
X172907500Y-77568681D01*
X173567063Y-77127975D01*
X174123001Y-76572037D01*
X174123001Y-81627004D01*
G37*
X174123001Y-81627004D02*
X173974578Y-81565525D01*
X173660245Y-81503000D01*
X173339755Y-81503000D01*
X173025422Y-81565525D01*
X172729327Y-81688172D01*
X172462848Y-81866227D01*
X172236227Y-82092848D01*
X172058172Y-82359327D01*
X171935525Y-82655422D01*
X171873000Y-82969755D01*
X171873000Y-83290245D01*
X171875382Y-83302221D01*
X171109477Y-84068127D01*
X171070290Y-84100287D01*
X171038130Y-84139474D01*
X171038129Y-84139475D01*
X170941951Y-84256668D01*
X170846587Y-84435082D01*
X170787862Y-84628672D01*
X170768033Y-84829999D01*
X170769996Y-84849925D01*
X170602248Y-84737840D01*
X170178761Y-84562426D01*
X169729189Y-84473000D01*
X169270811Y-84473000D01*
X168821239Y-84562426D01*
X168397752Y-84737840D01*
X168016624Y-84992501D01*
X167692501Y-85316624D01*
X167437840Y-85697752D01*
X167262426Y-86121239D01*
X167173000Y-86570811D01*
X167173000Y-87029189D01*
X167262426Y-87478761D01*
X167437840Y-87902248D01*
X167692501Y-88283376D01*
X168016624Y-88607499D01*
X168397752Y-88862160D01*
X168821239Y-89037574D01*
X169270811Y-89127000D01*
X169420603Y-89127000D01*
X167801670Y-90745933D01*
X167789502Y-90705820D01*
X167730537Y-90595506D01*
X167708773Y-90568987D01*
X167714383Y-90564383D01*
X167848820Y-90400572D01*
X167948715Y-90213682D01*
X168010230Y-90010894D01*
X168031001Y-89800001D01*
X168031001Y-89149999D01*
X168010230Y-88939106D01*
X167948715Y-88736318D01*
X167848820Y-88549428D01*
X167714383Y-88385617D01*
X167550572Y-88251180D01*
X167363682Y-88151285D01*
X167160894Y-88089770D01*
X166950001Y-88068999D01*
X166049999Y-88068999D01*
X165839106Y-88089770D01*
X165636318Y-88151285D01*
X165449428Y-88251180D01*
X165285617Y-88385617D01*
X165151180Y-88549428D01*
X165125000Y-88598407D01*
X165098820Y-88549428D01*
X164964383Y-88385617D01*
X164800572Y-88251180D01*
X164613682Y-88151285D01*
X164410894Y-88089770D01*
X164200001Y-88068999D01*
X163299999Y-88068999D01*
X163231011Y-88075794D01*
X163231011Y-85721385D01*
X167425398Y-81527000D01*
X167484420Y-81527000D01*
X167535617Y-81589383D01*
X167699428Y-81723820D01*
X167886318Y-81823715D01*
X168089106Y-81885230D01*
X168299999Y-81906001D01*
X169200001Y-81906001D01*
X169410894Y-81885230D01*
X169613682Y-81823715D01*
X169800572Y-81723820D01*
X169964383Y-81589383D01*
X170098820Y-81425572D01*
X170198715Y-81238682D01*
X170260230Y-81035894D01*
X170281001Y-80825001D01*
X170281001Y-80174999D01*
X170260230Y-79964106D01*
X170198715Y-79761318D01*
X170098820Y-79574428D01*
X170017221Y-79475000D01*
X170098820Y-79375572D01*
X170198715Y-79188682D01*
X170260230Y-78985894D01*
X170281001Y-78775001D01*
X170281001Y-78124999D01*
X170264714Y-77959636D01*
X170603375Y-78027000D01*
X171396625Y-78027000D01*
X172174633Y-77872245D01*
X172907500Y-77568681D01*
X173567063Y-77127975D01*
X174123001Y-76572037D01*
X174123001Y-81627004D01*
G36*
X174123001Y-71427963D02*
G01*
X173567063Y-70872025D01*
X172907500Y-70431319D01*
X172174633Y-70127755D01*
X171396625Y-69973000D01*
X170603375Y-69973000D01*
X169825367Y-70127755D01*
X169092500Y-70431319D01*
X168432937Y-70872025D01*
X167872025Y-71432937D01*
X167431319Y-72092500D01*
X167381001Y-72213978D01*
X167381001Y-71200000D01*
X167365034Y-71037880D01*
X167317745Y-70881990D01*
X167240952Y-70738321D01*
X167137606Y-70612394D01*
X167011679Y-70509048D01*
X166868010Y-70432255D01*
X166712120Y-70384966D01*
X166550000Y-70368999D01*
X163950000Y-70368999D01*
X163787880Y-70384966D01*
X163631990Y-70432255D01*
X163488321Y-70509048D01*
X163362394Y-70612394D01*
X163259048Y-70738321D01*
X163182255Y-70881990D01*
X163134966Y-71037880D01*
X163118999Y-71200000D01*
X163118999Y-73800000D01*
X163134966Y-73962120D01*
X163182255Y-74118010D01*
X163259048Y-74261679D01*
X163362394Y-74387606D01*
X163488321Y-74490952D01*
X163631990Y-74567745D01*
X163787880Y-74615034D01*
X163950000Y-74631001D01*
X164223001Y-74631001D01*
X164223001Y-75599549D01*
X164218032Y-75650000D01*
X164223001Y-75700451D01*
X164237861Y-75851327D01*
X164296586Y-76044917D01*
X164391950Y-76223331D01*
X164520289Y-76379712D01*
X164559476Y-76411872D01*
X165409830Y-77262226D01*
X165035750Y-77265000D01*
X164877000Y-77423750D01*
X164877000Y-78348000D01*
X165926250Y-78348000D01*
X166085000Y-78189250D01*
X166087647Y-77940043D01*
X167286045Y-79138442D01*
X167301285Y-79188682D01*
X167401180Y-79375572D01*
X167481138Y-79473000D01*
X167050443Y-79473000D01*
X167000000Y-79468032D01*
X166949556Y-79473000D01*
X165995063Y-79473000D01*
X165964383Y-79435617D01*
X165958773Y-79431013D01*
X165980537Y-79404494D01*
X166039502Y-79294180D01*
X166075812Y-79174482D01*
X166088072Y-79050000D01*
X166085000Y-78760750D01*
X165926250Y-78602000D01*
X164877000Y-78602000D01*
X164877000Y-78622000D01*
X164623000Y-78622000D01*
X164623000Y-78602000D01*
X163573750Y-78602000D01*
X163415000Y-78760750D01*
X163411928Y-79050000D01*
X163424188Y-79174482D01*
X163460498Y-79294180D01*
X163519463Y-79404494D01*
X163541227Y-79431013D01*
X163535617Y-79435617D01*
X163401180Y-79599428D01*
X163301285Y-79786318D01*
X163239770Y-79989106D01*
X163218999Y-80199999D01*
X163218999Y-80850001D01*
X163239770Y-81060894D01*
X163301285Y-81263682D01*
X163401180Y-81450572D01*
X163535617Y-81614383D01*
X163699428Y-81748820D01*
X163886318Y-81848715D01*
X164089106Y-81910230D01*
X164133045Y-81914558D01*
X162368783Y-83678820D01*
X162311874Y-83609476D01*
X162311869Y-83609471D01*
X162279713Y-83570289D01*
X162240531Y-83538133D01*
X160633398Y-81931001D01*
X161200001Y-81931001D01*
X161410894Y-81910230D01*
X161613682Y-81848715D01*
X161800572Y-81748820D01*
X161964383Y-81614383D01*
X162098820Y-81450572D01*
X162198715Y-81263682D01*
X162260230Y-81060894D01*
X162281001Y-80850001D01*
X162281001Y-80199999D01*
X162260230Y-79989106D01*
X162198715Y-79786318D01*
X162098820Y-79599428D01*
X162017221Y-79500000D01*
X162098820Y-79400572D01*
X162198715Y-79213682D01*
X162260230Y-79010894D01*
X162281001Y-78800001D01*
X162281001Y-78149999D01*
X162260230Y-77939106D01*
X162248368Y-77900000D01*
X163411928Y-77900000D01*
X163415000Y-78189250D01*
X163573750Y-78348000D01*
X164623000Y-78348000D01*
X164623000Y-77423750D01*
X164464250Y-77265000D01*
X164050000Y-77261928D01*
X163925518Y-77274188D01*
X163805820Y-77310498D01*
X163695506Y-77369463D01*
X163598815Y-77448815D01*
X163519463Y-77545506D01*
X163460498Y-77655820D01*
X163424188Y-77775518D01*
X163411928Y-77900000D01*
X162248368Y-77900000D01*
X162198715Y-77736318D01*
X162098820Y-77549428D01*
X161964383Y-77385617D01*
X161800572Y-77251180D01*
X161613682Y-77151285D01*
X161410894Y-77089770D01*
X161277000Y-77076583D01*
X161277000Y-74371902D01*
X161605884Y-74152149D01*
X161902149Y-73855884D01*
X162134923Y-73507512D01*
X162295261Y-73120423D01*
X162377000Y-72709491D01*
X162377000Y-72290509D01*
X162295261Y-71879577D01*
X162134923Y-71492488D01*
X161902149Y-71144116D01*
X161605884Y-70847851D01*
X161257512Y-70615077D01*
X160870423Y-70454739D01*
X160459491Y-70373000D01*
X160040509Y-70373000D01*
X159629577Y-70454739D01*
X159242488Y-70615077D01*
X158894116Y-70847851D01*
X158597851Y-71144116D01*
X158365077Y-71492488D01*
X158204739Y-71879577D01*
X158123000Y-72290509D01*
X158123000Y-72709491D01*
X158204739Y-73120423D01*
X158365077Y-73507512D01*
X158597851Y-73855884D01*
X158894116Y-74152149D01*
X159223000Y-74371902D01*
X159223001Y-77924549D01*
X159218032Y-77975000D01*
X159227133Y-78067408D01*
X159218999Y-78149999D01*
X159218999Y-78800001D01*
X159239770Y-79010894D01*
X159301285Y-79213682D01*
X159401180Y-79400572D01*
X159481138Y-79498000D01*
X158015580Y-79498000D01*
X157964383Y-79435617D01*
X157958773Y-79431013D01*
X157980537Y-79404494D01*
X158039502Y-79294180D01*
X158075812Y-79174482D01*
X158088072Y-79050000D01*
X158085000Y-78760750D01*
X157926250Y-78602000D01*
X156877000Y-78602000D01*
X156877000Y-78622000D01*
X156623000Y-78622000D01*
X156623000Y-78602000D01*
X155573750Y-78602000D01*
X155415000Y-78760750D01*
X155411928Y-79050000D01*
X155424188Y-79174482D01*
X155460498Y-79294180D01*
X155519463Y-79404494D01*
X155541227Y-79431013D01*
X155535617Y-79435617D01*
X155401180Y-79599428D01*
X155301285Y-79786318D01*
X155239770Y-79989106D01*
X155218999Y-80199999D01*
X155218999Y-80850001D01*
X155239770Y-81060894D01*
X155301285Y-81263682D01*
X155401180Y-81450572D01*
X155535617Y-81614383D01*
X155699428Y-81748820D01*
X155886318Y-81848715D01*
X156089106Y-81910230D01*
X156299999Y-81931001D01*
X157200001Y-81931001D01*
X157410894Y-81910230D01*
X157613682Y-81848715D01*
X157634950Y-81837347D01*
X160523002Y-84725400D01*
X160523002Y-84918305D01*
X160220667Y-84716292D01*
X159751683Y-84522033D01*
X159253812Y-84423000D01*
X158746188Y-84423000D01*
X158248317Y-84522033D01*
X157883849Y-84673000D01*
X151426310Y-84673000D01*
X151311998Y-84661741D01*
X151197686Y-84673000D01*
X151197683Y-84673000D01*
X150961586Y-84696254D01*
X151010230Y-84535894D01*
X151031001Y-84325001D01*
X151031001Y-83674999D01*
X151010230Y-83464106D01*
X150948715Y-83261318D01*
X150848820Y-83074428D01*
X150714383Y-82910617D01*
X150708773Y-82906013D01*
X150730537Y-82879494D01*
X150789502Y-82769180D01*
X150825812Y-82649482D01*
X150838072Y-82525000D01*
X150835000Y-82235750D01*
X150676250Y-82077000D01*
X149627000Y-82077000D01*
X149627000Y-82097000D01*
X149373000Y-82097000D01*
X149373000Y-82077000D01*
X148323750Y-82077000D01*
X148165000Y-82235750D01*
X148161928Y-82525000D01*
X148174188Y-82649482D01*
X148210498Y-82769180D01*
X148269463Y-82879494D01*
X148291227Y-82906013D01*
X148285617Y-82910617D01*
X148151180Y-83074428D01*
X148051285Y-83261318D01*
X147989770Y-83464106D01*
X147968999Y-83674999D01*
X147968999Y-84325001D01*
X147989770Y-84535894D01*
X148012332Y-84610271D01*
X146699604Y-85923000D01*
X145000110Y-85923000D01*
X145070952Y-85836679D01*
X145147745Y-85693010D01*
X145195034Y-85537120D01*
X145211001Y-85375000D01*
X145211001Y-84725000D01*
X145195034Y-84562880D01*
X145147745Y-84406990D01*
X145070952Y-84263321D01*
X144967606Y-84137394D01*
X144841679Y-84034048D01*
X144698010Y-83957255D01*
X144627000Y-83935714D01*
X144627000Y-82900443D01*
X144631968Y-82850000D01*
X144627000Y-82799556D01*
X144627000Y-82799549D01*
X144612140Y-82648673D01*
X144591673Y-82581202D01*
X144553415Y-82455082D01*
X144458051Y-82276668D01*
X144361873Y-82159475D01*
X144361868Y-82159470D01*
X144329712Y-82120288D01*
X144290529Y-82088132D01*
X143951040Y-81748643D01*
X143929847Y-81642097D01*
X143837353Y-81418798D01*
X143808089Y-81375000D01*
X148161928Y-81375000D01*
X148165000Y-81664250D01*
X148323750Y-81823000D01*
X149373000Y-81823000D01*
X149373000Y-80898750D01*
X149627000Y-80898750D01*
X149627000Y-81823000D01*
X150676250Y-81823000D01*
X150835000Y-81664250D01*
X150838072Y-81375000D01*
X150825812Y-81250518D01*
X150789502Y-81130820D01*
X150730537Y-81020506D01*
X150651185Y-80923815D01*
X150554494Y-80844463D01*
X150444180Y-80785498D01*
X150324482Y-80749188D01*
X150200000Y-80736928D01*
X149785750Y-80740000D01*
X149627000Y-80898750D01*
X149373000Y-80898750D01*
X149214250Y-80740000D01*
X148800000Y-80736928D01*
X148675518Y-80749188D01*
X148555820Y-80785498D01*
X148445506Y-80844463D01*
X148348815Y-80923815D01*
X148269463Y-81020506D01*
X148210498Y-81130820D01*
X148174188Y-81250518D01*
X148161928Y-81375000D01*
X143808089Y-81375000D01*
X143703073Y-81217833D01*
X143532167Y-81046927D01*
X143331202Y-80912647D01*
X143107903Y-80820153D01*
X142870849Y-80773000D01*
X142629151Y-80773000D01*
X142392097Y-80820153D01*
X142168798Y-80912647D01*
X141967833Y-81046927D01*
X141796927Y-81217833D01*
X141662647Y-81418798D01*
X141570153Y-81642097D01*
X141523000Y-81879151D01*
X141523000Y-82120849D01*
X141570153Y-82357903D01*
X141662647Y-82581202D01*
X141796927Y-82782167D01*
X141967833Y-82953073D01*
X142168798Y-83087353D01*
X142392097Y-83179847D01*
X142498643Y-83201040D01*
X142573001Y-83275398D01*
X142573001Y-83935714D01*
X142501990Y-83957255D01*
X142358321Y-84034048D01*
X142250000Y-84122945D01*
X142141679Y-84034048D01*
X141998010Y-83957255D01*
X141927000Y-83935714D01*
X141927000Y-83500440D01*
X141931968Y-83449999D01*
X141927000Y-83399558D01*
X141927000Y-83399549D01*
X141912140Y-83248673D01*
X141853415Y-83055083D01*
X141758051Y-82876669D01*
X141629712Y-82720288D01*
X141590524Y-82688127D01*
X141201041Y-82298644D01*
X141179847Y-82192097D01*
X141087353Y-81968798D01*
X140953073Y-81767833D01*
X140782167Y-81596927D01*
X140581202Y-81462647D01*
X140357903Y-81370153D01*
X140120849Y-81323000D01*
X139879151Y-81323000D01*
X139642097Y-81370153D01*
X139418798Y-81462647D01*
X139217833Y-81596927D01*
X139046927Y-81767833D01*
X138912647Y-81968798D01*
X138820153Y-82192097D01*
X138773000Y-82429151D01*
X138773000Y-82670849D01*
X138820153Y-82907903D01*
X138912647Y-83131202D01*
X139046927Y-83332167D01*
X139217833Y-83503073D01*
X139418798Y-83637353D01*
X139642097Y-83729847D01*
X139748644Y-83751041D01*
X139873001Y-83875397D01*
X139873001Y-83935714D01*
X139801990Y-83957255D01*
X139658321Y-84034048D01*
X139532394Y-84137394D01*
X139429048Y-84263321D01*
X139352255Y-84406990D01*
X139304966Y-84562880D01*
X139288999Y-84725000D01*
X139288999Y-85375000D01*
X139304966Y-85537120D01*
X139352255Y-85693010D01*
X139429048Y-85836679D01*
X139532394Y-85962606D01*
X139577959Y-86000000D01*
X139532394Y-86037394D01*
X139429048Y-86163321D01*
X139352255Y-86306990D01*
X139304966Y-86462880D01*
X139288999Y-86625000D01*
X139288999Y-86904879D01*
X139230537Y-86795506D01*
X139151185Y-86698815D01*
X139054494Y-86619463D01*
X138944180Y-86560498D01*
X138824482Y-86524188D01*
X138700000Y-86511928D01*
X138285750Y-86515000D01*
X138127000Y-86673750D01*
X138127000Y-87598000D01*
X139176250Y-87598000D01*
X139312452Y-87461798D01*
X139352255Y-87593010D01*
X139429048Y-87736679D01*
X139532394Y-87862606D01*
X139658321Y-87965952D01*
X139801990Y-88042745D01*
X139873001Y-88064286D01*
X139873000Y-89910681D01*
X139514321Y-90269361D01*
X139531001Y-90100001D01*
X139531001Y-89449999D01*
X139510230Y-89239106D01*
X139448715Y-89036318D01*
X139348820Y-88849428D01*
X139214383Y-88685617D01*
X139208773Y-88681013D01*
X139230537Y-88654494D01*
X139289502Y-88544180D01*
X139325812Y-88424482D01*
X139338072Y-88300000D01*
X139335000Y-88010750D01*
X139176250Y-87852000D01*
X138127000Y-87852000D01*
X138127000Y-87872000D01*
X137873000Y-87872000D01*
X137873000Y-87852000D01*
X136823750Y-87852000D01*
X136665000Y-88010750D01*
X136661928Y-88300000D01*
X136674188Y-88424482D01*
X136710498Y-88544180D01*
X136769463Y-88654494D01*
X136791227Y-88681013D01*
X136785617Y-88685617D01*
X136651180Y-88849428D01*
X136551285Y-89036318D01*
X136489770Y-89239106D01*
X136473522Y-89404081D01*
X136131010Y-89746593D01*
X136131010Y-88489451D01*
X136135978Y-88439010D01*
X136131010Y-88388569D01*
X136131010Y-88388559D01*
X136127000Y-88347845D01*
X136127000Y-87150000D01*
X136661928Y-87150000D01*
X136665000Y-87439250D01*
X136823750Y-87598000D01*
X137873000Y-87598000D01*
X137873000Y-86673750D01*
X137714250Y-86515000D01*
X137300000Y-86511928D01*
X137175518Y-86524188D01*
X137055820Y-86560498D01*
X136945506Y-86619463D01*
X136848815Y-86698815D01*
X136769463Y-86795506D01*
X136710498Y-86905820D01*
X136674188Y-87025518D01*
X136661928Y-87150000D01*
X136127000Y-87150000D01*
X136127000Y-87064286D01*
X136198010Y-87042745D01*
X136341679Y-86965952D01*
X136467606Y-86862606D01*
X136570952Y-86736679D01*
X136647745Y-86593010D01*
X136695034Y-86437120D01*
X136711001Y-86275000D01*
X136711001Y-85625000D01*
X136695034Y-85462880D01*
X136647745Y-85306990D01*
X136570952Y-85163321D01*
X136467606Y-85037394D01*
X136422041Y-85000000D01*
X136467606Y-84962606D01*
X136570952Y-84836679D01*
X136647745Y-84693010D01*
X136695034Y-84537120D01*
X136711001Y-84375000D01*
X136711001Y-83725000D01*
X136695034Y-83562880D01*
X136647745Y-83406990D01*
X136570952Y-83263321D01*
X136467606Y-83137394D01*
X136341679Y-83034048D01*
X136198010Y-82957255D01*
X136127000Y-82935714D01*
X136127000Y-78685397D01*
X136141356Y-78671040D01*
X136247903Y-78649847D01*
X136471202Y-78557353D01*
X136672167Y-78423073D01*
X136843073Y-78252167D01*
X136977353Y-78051202D01*
X137039983Y-77900000D01*
X155411928Y-77900000D01*
X155415000Y-78189250D01*
X155573750Y-78348000D01*
X156623000Y-78348000D01*
X156623000Y-77423750D01*
X156877000Y-77423750D01*
X156877000Y-78348000D01*
X157926250Y-78348000D01*
X158085000Y-78189250D01*
X158088072Y-77900000D01*
X158075812Y-77775518D01*
X158039502Y-77655820D01*
X157980537Y-77545506D01*
X157901185Y-77448815D01*
X157804494Y-77369463D01*
X157694180Y-77310498D01*
X157574482Y-77274188D01*
X157450000Y-77261928D01*
X157035750Y-77265000D01*
X156877000Y-77423750D01*
X156623000Y-77423750D01*
X156464250Y-77265000D01*
X156050000Y-77261928D01*
X155925518Y-77274188D01*
X155805820Y-77310498D01*
X155695506Y-77369463D01*
X155598815Y-77448815D01*
X155519463Y-77545506D01*
X155460498Y-77655820D01*
X155424188Y-77775518D01*
X155411928Y-77900000D01*
X137039983Y-77900000D01*
X137069847Y-77827903D01*
X137117000Y-77590849D01*
X137117000Y-77349151D01*
X137069847Y-77112097D01*
X136977353Y-76888798D01*
X136908815Y-76786223D01*
X137127975Y-76567063D01*
X137568681Y-75907500D01*
X137872245Y-75174633D01*
X138027000Y-74396625D01*
X138027000Y-73603375D01*
X137872245Y-72825367D01*
X137650700Y-72290509D01*
X138123000Y-72290509D01*
X138123000Y-72709491D01*
X138204739Y-73120423D01*
X138365077Y-73507512D01*
X138597851Y-73855884D01*
X138894116Y-74152149D01*
X139242488Y-74384923D01*
X139629577Y-74545261D01*
X140040509Y-74627000D01*
X140459491Y-74627000D01*
X140870423Y-74545261D01*
X141257512Y-74384923D01*
X141605884Y-74152149D01*
X141902149Y-73855884D01*
X142134923Y-73507512D01*
X142295261Y-73120423D01*
X142377000Y-72709491D01*
X142377000Y-72290509D01*
X143123000Y-72290509D01*
X143123000Y-72709491D01*
X143204739Y-73120423D01*
X143365077Y-73507512D01*
X143597851Y-73855884D01*
X143894116Y-74152149D01*
X144242488Y-74384923D01*
X144629577Y-74545261D01*
X145040509Y-74627000D01*
X145459491Y-74627000D01*
X145870423Y-74545261D01*
X146257512Y-74384923D01*
X146605884Y-74152149D01*
X146902149Y-73855884D01*
X147134923Y-73507512D01*
X147295261Y-73120423D01*
X147377000Y-72709491D01*
X147377000Y-72290509D01*
X148123000Y-72290509D01*
X148123000Y-72709491D01*
X148204739Y-73120423D01*
X148365077Y-73507512D01*
X148597851Y-73855884D01*
X148894116Y-74152149D01*
X149242488Y-74384923D01*
X149629577Y-74545261D01*
X150040509Y-74627000D01*
X150459491Y-74627000D01*
X150870423Y-74545261D01*
X151257512Y-74384923D01*
X151605884Y-74152149D01*
X151902149Y-73855884D01*
X152134923Y-73507512D01*
X152295261Y-73120423D01*
X152377000Y-72709491D01*
X152377000Y-72290509D01*
X153123000Y-72290509D01*
X153123000Y-72709491D01*
X153204739Y-73120423D01*
X153365077Y-73507512D01*
X153597851Y-73855884D01*
X153894116Y-74152149D01*
X154242488Y-74384923D01*
X154629577Y-74545261D01*
X155040509Y-74627000D01*
X155459491Y-74627000D01*
X155870423Y-74545261D01*
X156257512Y-74384923D01*
X156605884Y-74152149D01*
X156902149Y-73855884D01*
X157134923Y-73507512D01*
X157295261Y-73120423D01*
X157377000Y-72709491D01*
X157377000Y-72290509D01*
X157295261Y-71879577D01*
X157134923Y-71492488D01*
X156902149Y-71144116D01*
X156605884Y-70847851D01*
X156257512Y-70615077D01*
X155870423Y-70454739D01*
X155459491Y-70373000D01*
X155040509Y-70373000D01*
X154629577Y-70454739D01*
X154242488Y-70615077D01*
X153894116Y-70847851D01*
X153597851Y-71144116D01*
X153365077Y-71492488D01*
X153204739Y-71879577D01*
X153123000Y-72290509D01*
X152377000Y-72290509D01*
X152295261Y-71879577D01*
X152134923Y-71492488D01*
X151902149Y-71144116D01*
X151605884Y-70847851D01*
X151257512Y-70615077D01*
X150870423Y-70454739D01*
X150459491Y-70373000D01*
X150040509Y-70373000D01*
X149629577Y-70454739D01*
X149242488Y-70615077D01*
X148894116Y-70847851D01*
X148597851Y-71144116D01*
X148365077Y-71492488D01*
X148204739Y-71879577D01*
X148123000Y-72290509D01*
X147377000Y-72290509D01*
X147295261Y-71879577D01*
X147134923Y-71492488D01*
X146902149Y-71144116D01*
X146605884Y-70847851D01*
X146257512Y-70615077D01*
X145870423Y-70454739D01*
X145459491Y-70373000D01*
X145040509Y-70373000D01*
X144629577Y-70454739D01*
X144242488Y-70615077D01*
X143894116Y-70847851D01*
X143597851Y-71144116D01*
X143365077Y-71492488D01*
X143204739Y-71879577D01*
X143123000Y-72290509D01*
X142377000Y-72290509D01*
X142295261Y-71879577D01*
X142134923Y-71492488D01*
X141902149Y-71144116D01*
X141605884Y-70847851D01*
X141257512Y-70615077D01*
X140870423Y-70454739D01*
X140459491Y-70373000D01*
X140040509Y-70373000D01*
X139629577Y-70454739D01*
X139242488Y-70615077D01*
X138894116Y-70847851D01*
X138597851Y-71144116D01*
X138365077Y-71492488D01*
X138204739Y-71879577D01*
X138123000Y-72290509D01*
X137650700Y-72290509D01*
X137568681Y-72092500D01*
X137127975Y-71432937D01*
X136567063Y-70872025D01*
X135907500Y-70431319D01*
X135174633Y-70127755D01*
X134396625Y-69973000D01*
X133603375Y-69973000D01*
X132825367Y-70127755D01*
X132092500Y-70431319D01*
X131432937Y-70872025D01*
X130877000Y-71427962D01*
X130877000Y-69877000D01*
X174123001Y-69877000D01*
X174123001Y-71427963D01*
G37*
X174123001Y-71427963D02*
X173567063Y-70872025D01*
X172907500Y-70431319D01*
X172174633Y-70127755D01*
X171396625Y-69973000D01*
X170603375Y-69973000D01*
X169825367Y-70127755D01*
X169092500Y-70431319D01*
X168432937Y-70872025D01*
X167872025Y-71432937D01*
X167431319Y-72092500D01*
X167381001Y-72213978D01*
X167381001Y-71200000D01*
X167365034Y-71037880D01*
X167317745Y-70881990D01*
X167240952Y-70738321D01*
X167137606Y-70612394D01*
X167011679Y-70509048D01*
X166868010Y-70432255D01*
X166712120Y-70384966D01*
X166550000Y-70368999D01*
X163950000Y-70368999D01*
X163787880Y-70384966D01*
X163631990Y-70432255D01*
X163488321Y-70509048D01*
X163362394Y-70612394D01*
X163259048Y-70738321D01*
X163182255Y-70881990D01*
X163134966Y-71037880D01*
X163118999Y-71200000D01*
X163118999Y-73800000D01*
X163134966Y-73962120D01*
X163182255Y-74118010D01*
X163259048Y-74261679D01*
X163362394Y-74387606D01*
X163488321Y-74490952D01*
X163631990Y-74567745D01*
X163787880Y-74615034D01*
X163950000Y-74631001D01*
X164223001Y-74631001D01*
X164223001Y-75599549D01*
X164218032Y-75650000D01*
X164223001Y-75700451D01*
X164237861Y-75851327D01*
X164296586Y-76044917D01*
X164391950Y-76223331D01*
X164520289Y-76379712D01*
X164559476Y-76411872D01*
X165409830Y-77262226D01*
X165035750Y-77265000D01*
X164877000Y-77423750D01*
X164877000Y-78348000D01*
X165926250Y-78348000D01*
X166085000Y-78189250D01*
X166087647Y-77940043D01*
X167286045Y-79138442D01*
X167301285Y-79188682D01*
X167401180Y-79375572D01*
X167481138Y-79473000D01*
X167050443Y-79473000D01*
X167000000Y-79468032D01*
X166949556Y-79473000D01*
X165995063Y-79473000D01*
X165964383Y-79435617D01*
X165958773Y-79431013D01*
X165980537Y-79404494D01*
X166039502Y-79294180D01*
X166075812Y-79174482D01*
X166088072Y-79050000D01*
X166085000Y-78760750D01*
X165926250Y-78602000D01*
X164877000Y-78602000D01*
X164877000Y-78622000D01*
X164623000Y-78622000D01*
X164623000Y-78602000D01*
X163573750Y-78602000D01*
X163415000Y-78760750D01*
X163411928Y-79050000D01*
X163424188Y-79174482D01*
X163460498Y-79294180D01*
X163519463Y-79404494D01*
X163541227Y-79431013D01*
X163535617Y-79435617D01*
X163401180Y-79599428D01*
X163301285Y-79786318D01*
X163239770Y-79989106D01*
X163218999Y-80199999D01*
X163218999Y-80850001D01*
X163239770Y-81060894D01*
X163301285Y-81263682D01*
X163401180Y-81450572D01*
X163535617Y-81614383D01*
X163699428Y-81748820D01*
X163886318Y-81848715D01*
X164089106Y-81910230D01*
X164133045Y-81914558D01*
X162368783Y-83678820D01*
X162311874Y-83609476D01*
X162311869Y-83609471D01*
X162279713Y-83570289D01*
X162240531Y-83538133D01*
X160633398Y-81931001D01*
X161200001Y-81931001D01*
X161410894Y-81910230D01*
X161613682Y-81848715D01*
X161800572Y-81748820D01*
X161964383Y-81614383D01*
X162098820Y-81450572D01*
X162198715Y-81263682D01*
X162260230Y-81060894D01*
X162281001Y-80850001D01*
X162281001Y-80199999D01*
X162260230Y-79989106D01*
X162198715Y-79786318D01*
X162098820Y-79599428D01*
X162017221Y-79500000D01*
X162098820Y-79400572D01*
X162198715Y-79213682D01*
X162260230Y-79010894D01*
X162281001Y-78800001D01*
X162281001Y-78149999D01*
X162260230Y-77939106D01*
X162248368Y-77900000D01*
X163411928Y-77900000D01*
X163415000Y-78189250D01*
X163573750Y-78348000D01*
X164623000Y-78348000D01*
X164623000Y-77423750D01*
X164464250Y-77265000D01*
X164050000Y-77261928D01*
X163925518Y-77274188D01*
X163805820Y-77310498D01*
X163695506Y-77369463D01*
X163598815Y-77448815D01*
X163519463Y-77545506D01*
X163460498Y-77655820D01*
X163424188Y-77775518D01*
X163411928Y-77900000D01*
X162248368Y-77900000D01*
X162198715Y-77736318D01*
X162098820Y-77549428D01*
X161964383Y-77385617D01*
X161800572Y-77251180D01*
X161613682Y-77151285D01*
X161410894Y-77089770D01*
X161277000Y-77076583D01*
X161277000Y-74371902D01*
X161605884Y-74152149D01*
X161902149Y-73855884D01*
X162134923Y-73507512D01*
X162295261Y-73120423D01*
X162377000Y-72709491D01*
X162377000Y-72290509D01*
X162295261Y-71879577D01*
X162134923Y-71492488D01*
X161902149Y-71144116D01*
X161605884Y-70847851D01*
X161257512Y-70615077D01*
X160870423Y-70454739D01*
X160459491Y-70373000D01*
X160040509Y-70373000D01*
X159629577Y-70454739D01*
X159242488Y-70615077D01*
X158894116Y-70847851D01*
X158597851Y-71144116D01*
X158365077Y-71492488D01*
X158204739Y-71879577D01*
X158123000Y-72290509D01*
X158123000Y-72709491D01*
X158204739Y-73120423D01*
X158365077Y-73507512D01*
X158597851Y-73855884D01*
X158894116Y-74152149D01*
X159223000Y-74371902D01*
X159223001Y-77924549D01*
X159218032Y-77975000D01*
X159227133Y-78067408D01*
X159218999Y-78149999D01*
X159218999Y-78800001D01*
X159239770Y-79010894D01*
X159301285Y-79213682D01*
X159401180Y-79400572D01*
X159481138Y-79498000D01*
X158015580Y-79498000D01*
X157964383Y-79435617D01*
X157958773Y-79431013D01*
X157980537Y-79404494D01*
X158039502Y-79294180D01*
X158075812Y-79174482D01*
X158088072Y-79050000D01*
X158085000Y-78760750D01*
X157926250Y-78602000D01*
X156877000Y-78602000D01*
X156877000Y-78622000D01*
X156623000Y-78622000D01*
X156623000Y-78602000D01*
X155573750Y-78602000D01*
X155415000Y-78760750D01*
X155411928Y-79050000D01*
X155424188Y-79174482D01*
X155460498Y-79294180D01*
X155519463Y-79404494D01*
X155541227Y-79431013D01*
X155535617Y-79435617D01*
X155401180Y-79599428D01*
X155301285Y-79786318D01*
X155239770Y-79989106D01*
X155218999Y-80199999D01*
X155218999Y-80850001D01*
X155239770Y-81060894D01*
X155301285Y-81263682D01*
X155401180Y-81450572D01*
X155535617Y-81614383D01*
X155699428Y-81748820D01*
X155886318Y-81848715D01*
X156089106Y-81910230D01*
X156299999Y-81931001D01*
X157200001Y-81931001D01*
X157410894Y-81910230D01*
X157613682Y-81848715D01*
X157634950Y-81837347D01*
X160523002Y-84725400D01*
X160523002Y-84918305D01*
X160220667Y-84716292D01*
X159751683Y-84522033D01*
X159253812Y-84423000D01*
X158746188Y-84423000D01*
X158248317Y-84522033D01*
X157883849Y-84673000D01*
X151426310Y-84673000D01*
X151311998Y-84661741D01*
X151197686Y-84673000D01*
X151197683Y-84673000D01*
X150961586Y-84696254D01*
X151010230Y-84535894D01*
X151031001Y-84325001D01*
X151031001Y-83674999D01*
X151010230Y-83464106D01*
X150948715Y-83261318D01*
X150848820Y-83074428D01*
X150714383Y-82910617D01*
X150708773Y-82906013D01*
X150730537Y-82879494D01*
X150789502Y-82769180D01*
X150825812Y-82649482D01*
X150838072Y-82525000D01*
X150835000Y-82235750D01*
X150676250Y-82077000D01*
X149627000Y-82077000D01*
X149627000Y-82097000D01*
X149373000Y-82097000D01*
X149373000Y-82077000D01*
X148323750Y-82077000D01*
X148165000Y-82235750D01*
X148161928Y-82525000D01*
X148174188Y-82649482D01*
X148210498Y-82769180D01*
X148269463Y-82879494D01*
X148291227Y-82906013D01*
X148285617Y-82910617D01*
X148151180Y-83074428D01*
X148051285Y-83261318D01*
X147989770Y-83464106D01*
X147968999Y-83674999D01*
X147968999Y-84325001D01*
X147989770Y-84535894D01*
X148012332Y-84610271D01*
X146699604Y-85923000D01*
X145000110Y-85923000D01*
X145070952Y-85836679D01*
X145147745Y-85693010D01*
X145195034Y-85537120D01*
X145211001Y-85375000D01*
X145211001Y-84725000D01*
X145195034Y-84562880D01*
X145147745Y-84406990D01*
X145070952Y-84263321D01*
X144967606Y-84137394D01*
X144841679Y-84034048D01*
X144698010Y-83957255D01*
X144627000Y-83935714D01*
X144627000Y-82900443D01*
X144631968Y-82850000D01*
X144627000Y-82799556D01*
X144627000Y-82799549D01*
X144612140Y-82648673D01*
X144591673Y-82581202D01*
X144553415Y-82455082D01*
X144458051Y-82276668D01*
X144361873Y-82159475D01*
X144361868Y-82159470D01*
X144329712Y-82120288D01*
X144290529Y-82088132D01*
X143951040Y-81748643D01*
X143929847Y-81642097D01*
X143837353Y-81418798D01*
X143808089Y-81375000D01*
X148161928Y-81375000D01*
X148165000Y-81664250D01*
X148323750Y-81823000D01*
X149373000Y-81823000D01*
X149373000Y-80898750D01*
X149627000Y-80898750D01*
X149627000Y-81823000D01*
X150676250Y-81823000D01*
X150835000Y-81664250D01*
X150838072Y-81375000D01*
X150825812Y-81250518D01*
X150789502Y-81130820D01*
X150730537Y-81020506D01*
X150651185Y-80923815D01*
X150554494Y-80844463D01*
X150444180Y-80785498D01*
X150324482Y-80749188D01*
X150200000Y-80736928D01*
X149785750Y-80740000D01*
X149627000Y-80898750D01*
X149373000Y-80898750D01*
X149214250Y-80740000D01*
X148800000Y-80736928D01*
X148675518Y-80749188D01*
X148555820Y-80785498D01*
X148445506Y-80844463D01*
X148348815Y-80923815D01*
X148269463Y-81020506D01*
X148210498Y-81130820D01*
X148174188Y-81250518D01*
X148161928Y-81375000D01*
X143808089Y-81375000D01*
X143703073Y-81217833D01*
X143532167Y-81046927D01*
X143331202Y-80912647D01*
X143107903Y-80820153D01*
X142870849Y-80773000D01*
X142629151Y-80773000D01*
X142392097Y-80820153D01*
X142168798Y-80912647D01*
X141967833Y-81046927D01*
X141796927Y-81217833D01*
X141662647Y-81418798D01*
X141570153Y-81642097D01*
X141523000Y-81879151D01*
X141523000Y-82120849D01*
X141570153Y-82357903D01*
X141662647Y-82581202D01*
X141796927Y-82782167D01*
X141967833Y-82953073D01*
X142168798Y-83087353D01*
X142392097Y-83179847D01*
X142498643Y-83201040D01*
X142573001Y-83275398D01*
X142573001Y-83935714D01*
X142501990Y-83957255D01*
X142358321Y-84034048D01*
X142250000Y-84122945D01*
X142141679Y-84034048D01*
X141998010Y-83957255D01*
X141927000Y-83935714D01*
X141927000Y-83500440D01*
X141931968Y-83449999D01*
X141927000Y-83399558D01*
X141927000Y-83399549D01*
X141912140Y-83248673D01*
X141853415Y-83055083D01*
X141758051Y-82876669D01*
X141629712Y-82720288D01*
X141590524Y-82688127D01*
X141201041Y-82298644D01*
X141179847Y-82192097D01*
X141087353Y-81968798D01*
X140953073Y-81767833D01*
X140782167Y-81596927D01*
X140581202Y-81462647D01*
X140357903Y-81370153D01*
X140120849Y-81323000D01*
X139879151Y-81323000D01*
X139642097Y-81370153D01*
X139418798Y-81462647D01*
X139217833Y-81596927D01*
X139046927Y-81767833D01*
X138912647Y-81968798D01*
X138820153Y-82192097D01*
X138773000Y-82429151D01*
X138773000Y-82670849D01*
X138820153Y-82907903D01*
X138912647Y-83131202D01*
X139046927Y-83332167D01*
X139217833Y-83503073D01*
X139418798Y-83637353D01*
X139642097Y-83729847D01*
X139748644Y-83751041D01*
X139873001Y-83875397D01*
X139873001Y-83935714D01*
X139801990Y-83957255D01*
X139658321Y-84034048D01*
X139532394Y-84137394D01*
X139429048Y-84263321D01*
X139352255Y-84406990D01*
X139304966Y-84562880D01*
X139288999Y-84725000D01*
X139288999Y-85375000D01*
X139304966Y-85537120D01*
X139352255Y-85693010D01*
X139429048Y-85836679D01*
X139532394Y-85962606D01*
X139577959Y-86000000D01*
X139532394Y-86037394D01*
X139429048Y-86163321D01*
X139352255Y-86306990D01*
X139304966Y-86462880D01*
X139288999Y-86625000D01*
X139288999Y-86904879D01*
X139230537Y-86795506D01*
X139151185Y-86698815D01*
X139054494Y-86619463D01*
X138944180Y-86560498D01*
X138824482Y-86524188D01*
X138700000Y-86511928D01*
X138285750Y-86515000D01*
X138127000Y-86673750D01*
X138127000Y-87598000D01*
X139176250Y-87598000D01*
X139312452Y-87461798D01*
X139352255Y-87593010D01*
X139429048Y-87736679D01*
X139532394Y-87862606D01*
X139658321Y-87965952D01*
X139801990Y-88042745D01*
X139873001Y-88064286D01*
X139873000Y-89910681D01*
X139514321Y-90269361D01*
X139531001Y-90100001D01*
X139531001Y-89449999D01*
X139510230Y-89239106D01*
X139448715Y-89036318D01*
X139348820Y-88849428D01*
X139214383Y-88685617D01*
X139208773Y-88681013D01*
X139230537Y-88654494D01*
X139289502Y-88544180D01*
X139325812Y-88424482D01*
X139338072Y-88300000D01*
X139335000Y-88010750D01*
X139176250Y-87852000D01*
X138127000Y-87852000D01*
X138127000Y-87872000D01*
X137873000Y-87872000D01*
X137873000Y-87852000D01*
X136823750Y-87852000D01*
X136665000Y-88010750D01*
X136661928Y-88300000D01*
X136674188Y-88424482D01*
X136710498Y-88544180D01*
X136769463Y-88654494D01*
X136791227Y-88681013D01*
X136785617Y-88685617D01*
X136651180Y-88849428D01*
X136551285Y-89036318D01*
X136489770Y-89239106D01*
X136473522Y-89404081D01*
X136131010Y-89746593D01*
X136131010Y-88489451D01*
X136135978Y-88439010D01*
X136131010Y-88388569D01*
X136131010Y-88388559D01*
X136127000Y-88347845D01*
X136127000Y-87150000D01*
X136661928Y-87150000D01*
X136665000Y-87439250D01*
X136823750Y-87598000D01*
X137873000Y-87598000D01*
X137873000Y-86673750D01*
X137714250Y-86515000D01*
X137300000Y-86511928D01*
X137175518Y-86524188D01*
X137055820Y-86560498D01*
X136945506Y-86619463D01*
X136848815Y-86698815D01*
X136769463Y-86795506D01*
X136710498Y-86905820D01*
X136674188Y-87025518D01*
X136661928Y-87150000D01*
X136127000Y-87150000D01*
X136127000Y-87064286D01*
X136198010Y-87042745D01*
X136341679Y-86965952D01*
X136467606Y-86862606D01*
X136570952Y-86736679D01*
X136647745Y-86593010D01*
X136695034Y-86437120D01*
X136711001Y-86275000D01*
X136711001Y-85625000D01*
X136695034Y-85462880D01*
X136647745Y-85306990D01*
X136570952Y-85163321D01*
X136467606Y-85037394D01*
X136422041Y-85000000D01*
X136467606Y-84962606D01*
X136570952Y-84836679D01*
X136647745Y-84693010D01*
X136695034Y-84537120D01*
X136711001Y-84375000D01*
X136711001Y-83725000D01*
X136695034Y-83562880D01*
X136647745Y-83406990D01*
X136570952Y-83263321D01*
X136467606Y-83137394D01*
X136341679Y-83034048D01*
X136198010Y-82957255D01*
X136127000Y-82935714D01*
X136127000Y-78685397D01*
X136141356Y-78671040D01*
X136247903Y-78649847D01*
X136471202Y-78557353D01*
X136672167Y-78423073D01*
X136843073Y-78252167D01*
X136977353Y-78051202D01*
X137039983Y-77900000D01*
X155411928Y-77900000D01*
X155415000Y-78189250D01*
X155573750Y-78348000D01*
X156623000Y-78348000D01*
X156623000Y-77423750D01*
X156877000Y-77423750D01*
X156877000Y-78348000D01*
X157926250Y-78348000D01*
X158085000Y-78189250D01*
X158088072Y-77900000D01*
X158075812Y-77775518D01*
X158039502Y-77655820D01*
X157980537Y-77545506D01*
X157901185Y-77448815D01*
X157804494Y-77369463D01*
X157694180Y-77310498D01*
X157574482Y-77274188D01*
X157450000Y-77261928D01*
X157035750Y-77265000D01*
X156877000Y-77423750D01*
X156623000Y-77423750D01*
X156464250Y-77265000D01*
X156050000Y-77261928D01*
X155925518Y-77274188D01*
X155805820Y-77310498D01*
X155695506Y-77369463D01*
X155598815Y-77448815D01*
X155519463Y-77545506D01*
X155460498Y-77655820D01*
X155424188Y-77775518D01*
X155411928Y-77900000D01*
X137039983Y-77900000D01*
X137069847Y-77827903D01*
X137117000Y-77590849D01*
X137117000Y-77349151D01*
X137069847Y-77112097D01*
X136977353Y-76888798D01*
X136908815Y-76786223D01*
X137127975Y-76567063D01*
X137568681Y-75907500D01*
X137872245Y-75174633D01*
X138027000Y-74396625D01*
X138027000Y-73603375D01*
X137872245Y-72825367D01*
X137650700Y-72290509D01*
X138123000Y-72290509D01*
X138123000Y-72709491D01*
X138204739Y-73120423D01*
X138365077Y-73507512D01*
X138597851Y-73855884D01*
X138894116Y-74152149D01*
X139242488Y-74384923D01*
X139629577Y-74545261D01*
X140040509Y-74627000D01*
X140459491Y-74627000D01*
X140870423Y-74545261D01*
X141257512Y-74384923D01*
X141605884Y-74152149D01*
X141902149Y-73855884D01*
X142134923Y-73507512D01*
X142295261Y-73120423D01*
X142377000Y-72709491D01*
X142377000Y-72290509D01*
X143123000Y-72290509D01*
X143123000Y-72709491D01*
X143204739Y-73120423D01*
X143365077Y-73507512D01*
X143597851Y-73855884D01*
X143894116Y-74152149D01*
X144242488Y-74384923D01*
X144629577Y-74545261D01*
X145040509Y-74627000D01*
X145459491Y-74627000D01*
X145870423Y-74545261D01*
X146257512Y-74384923D01*
X146605884Y-74152149D01*
X146902149Y-73855884D01*
X147134923Y-73507512D01*
X147295261Y-73120423D01*
X147377000Y-72709491D01*
X147377000Y-72290509D01*
X148123000Y-72290509D01*
X148123000Y-72709491D01*
X148204739Y-73120423D01*
X148365077Y-73507512D01*
X148597851Y-73855884D01*
X148894116Y-74152149D01*
X149242488Y-74384923D01*
X149629577Y-74545261D01*
X150040509Y-74627000D01*
X150459491Y-74627000D01*
X150870423Y-74545261D01*
X151257512Y-74384923D01*
X151605884Y-74152149D01*
X151902149Y-73855884D01*
X152134923Y-73507512D01*
X152295261Y-73120423D01*
X152377000Y-72709491D01*
X152377000Y-72290509D01*
X153123000Y-72290509D01*
X153123000Y-72709491D01*
X153204739Y-73120423D01*
X153365077Y-73507512D01*
X153597851Y-73855884D01*
X153894116Y-74152149D01*
X154242488Y-74384923D01*
X154629577Y-74545261D01*
X155040509Y-74627000D01*
X155459491Y-74627000D01*
X155870423Y-74545261D01*
X156257512Y-74384923D01*
X156605884Y-74152149D01*
X156902149Y-73855884D01*
X157134923Y-73507512D01*
X157295261Y-73120423D01*
X157377000Y-72709491D01*
X157377000Y-72290509D01*
X157295261Y-71879577D01*
X157134923Y-71492488D01*
X156902149Y-71144116D01*
X156605884Y-70847851D01*
X156257512Y-70615077D01*
X155870423Y-70454739D01*
X155459491Y-70373000D01*
X155040509Y-70373000D01*
X154629577Y-70454739D01*
X154242488Y-70615077D01*
X153894116Y-70847851D01*
X153597851Y-71144116D01*
X153365077Y-71492488D01*
X153204739Y-71879577D01*
X153123000Y-72290509D01*
X152377000Y-72290509D01*
X152295261Y-71879577D01*
X152134923Y-71492488D01*
X151902149Y-71144116D01*
X151605884Y-70847851D01*
X151257512Y-70615077D01*
X150870423Y-70454739D01*
X150459491Y-70373000D01*
X150040509Y-70373000D01*
X149629577Y-70454739D01*
X149242488Y-70615077D01*
X148894116Y-70847851D01*
X148597851Y-71144116D01*
X148365077Y-71492488D01*
X148204739Y-71879577D01*
X148123000Y-72290509D01*
X147377000Y-72290509D01*
X147295261Y-71879577D01*
X147134923Y-71492488D01*
X146902149Y-71144116D01*
X146605884Y-70847851D01*
X146257512Y-70615077D01*
X145870423Y-70454739D01*
X145459491Y-70373000D01*
X145040509Y-70373000D01*
X144629577Y-70454739D01*
X144242488Y-70615077D01*
X143894116Y-70847851D01*
X143597851Y-71144116D01*
X143365077Y-71492488D01*
X143204739Y-71879577D01*
X143123000Y-72290509D01*
X142377000Y-72290509D01*
X142295261Y-71879577D01*
X142134923Y-71492488D01*
X141902149Y-71144116D01*
X141605884Y-70847851D01*
X141257512Y-70615077D01*
X140870423Y-70454739D01*
X140459491Y-70373000D01*
X140040509Y-70373000D01*
X139629577Y-70454739D01*
X139242488Y-70615077D01*
X138894116Y-70847851D01*
X138597851Y-71144116D01*
X138365077Y-71492488D01*
X138204739Y-71879577D01*
X138123000Y-72290509D01*
X137650700Y-72290509D01*
X137568681Y-72092500D01*
X137127975Y-71432937D01*
X136567063Y-70872025D01*
X135907500Y-70431319D01*
X135174633Y-70127755D01*
X134396625Y-69973000D01*
X133603375Y-69973000D01*
X132825367Y-70127755D01*
X132092500Y-70431319D01*
X131432937Y-70872025D01*
X130877000Y-71427962D01*
X130877000Y-69877000D01*
X174123001Y-69877000D01*
X174123001Y-71427963D01*
M02*
