G04 #@! TF.GenerationSoftware,KiCad,Pcbnew,(5.1.5-0-10_14)*
G04 #@! TF.CreationDate,2020-02-19T14:52:08-05:00*
G04 #@! TF.ProjectId,rlcsv3_modular,726c6373-7633-45f6-9d6f-64756c61722e,rev?*
G04 #@! TF.SameCoordinates,Original*
G04 #@! TF.FileFunction,Legend,Bot*
G04 #@! TF.FilePolarity,Positive*
%FSLAX46Y46*%
G04 Gerber Fmt 4.6, Leading zero omitted, Abs format (unit mm)*
G04 Created by KiCad (PCBNEW (5.1.5-0-10_14)) date 2020-02-19 14:52:08*
%MOMM*%
%LPD*%
G04 APERTURE LIST*
%ADD10C,0.150000*%
%ADD11C,0.100000*%
%ADD12C,0.120000*%
G04 APERTURE END LIST*
D10*
X169888095Y-117635714D02*
X169888095Y-118092857D01*
X169888095Y-117864285D02*
X170688095Y-117864285D01*
X170573809Y-117940476D01*
X170497619Y-118016666D01*
X170459523Y-118092857D01*
X170611904Y-117330952D02*
X170650000Y-117292857D01*
X170688095Y-117216666D01*
X170688095Y-117026190D01*
X170650000Y-116950000D01*
X170611904Y-116911904D01*
X170535714Y-116873809D01*
X170459523Y-116873809D01*
X170345238Y-116911904D01*
X169888095Y-117369047D01*
X169888095Y-116873809D01*
X170688095Y-116645238D02*
X169888095Y-116378571D01*
X170688095Y-116111904D01*
X170688095Y-114854761D02*
X170688095Y-115235714D01*
X170307142Y-115273809D01*
X170345238Y-115235714D01*
X170383333Y-115159523D01*
X170383333Y-114969047D01*
X170345238Y-114892857D01*
X170307142Y-114854761D01*
X170230952Y-114816666D01*
X170040476Y-114816666D01*
X169964285Y-114854761D01*
X169926190Y-114892857D01*
X169888095Y-114969047D01*
X169888095Y-115159523D01*
X169926190Y-115235714D01*
X169964285Y-115273809D01*
X170688095Y-114588095D02*
X169888095Y-114321428D01*
X170688095Y-114054761D01*
X170650000Y-112759523D02*
X170688095Y-112835714D01*
X170688095Y-112950000D01*
X170650000Y-113064285D01*
X170573809Y-113140476D01*
X170497619Y-113178571D01*
X170345238Y-113216666D01*
X170230952Y-113216666D01*
X170078571Y-113178571D01*
X170002380Y-113140476D01*
X169926190Y-113064285D01*
X169888095Y-112950000D01*
X169888095Y-112873809D01*
X169926190Y-112759523D01*
X169964285Y-112721428D01*
X170230952Y-112721428D01*
X170230952Y-112873809D01*
X169888095Y-112378571D02*
X170688095Y-112378571D01*
X169888095Y-111921428D01*
X170688095Y-111921428D01*
X169888095Y-111540476D02*
X170688095Y-111540476D01*
X170688095Y-111350000D01*
X170650000Y-111235714D01*
X170573809Y-111159523D01*
X170497619Y-111121428D01*
X170345238Y-111083333D01*
X170230952Y-111083333D01*
X170078571Y-111121428D01*
X170002380Y-111159523D01*
X169926190Y-111235714D01*
X169888095Y-111350000D01*
X169888095Y-111540476D01*
X169926190Y-110169047D02*
X169888095Y-110054761D01*
X169888095Y-109864285D01*
X169926190Y-109788095D01*
X169964285Y-109750000D01*
X170040476Y-109711904D01*
X170116666Y-109711904D01*
X170192857Y-109750000D01*
X170230952Y-109788095D01*
X170269047Y-109864285D01*
X170307142Y-110016666D01*
X170345238Y-110092857D01*
X170383333Y-110130952D01*
X170459523Y-110169047D01*
X170535714Y-110169047D01*
X170611904Y-110130952D01*
X170650000Y-110092857D01*
X170688095Y-110016666D01*
X170688095Y-109826190D01*
X170650000Y-109711904D01*
X169964285Y-108911904D02*
X169926190Y-108950000D01*
X169888095Y-109064285D01*
X169888095Y-109140476D01*
X169926190Y-109254761D01*
X170002380Y-109330952D01*
X170078571Y-109369047D01*
X170230952Y-109407142D01*
X170345238Y-109407142D01*
X170497619Y-109369047D01*
X170573809Y-109330952D01*
X170650000Y-109254761D01*
X170688095Y-109140476D01*
X170688095Y-109064285D01*
X170650000Y-108950000D01*
X170611904Y-108911904D01*
X169888095Y-108188095D02*
X169888095Y-108569047D01*
X170688095Y-108569047D01*
X169926190Y-107350000D02*
X169888095Y-107235714D01*
X169888095Y-107045238D01*
X169926190Y-106969047D01*
X169964285Y-106930952D01*
X170040476Y-106892857D01*
X170116666Y-106892857D01*
X170192857Y-106930952D01*
X170230952Y-106969047D01*
X170269047Y-107045238D01*
X170307142Y-107197619D01*
X170345238Y-107273809D01*
X170383333Y-107311904D01*
X170459523Y-107350000D01*
X170535714Y-107350000D01*
X170611904Y-107311904D01*
X170650000Y-107273809D01*
X170688095Y-107197619D01*
X170688095Y-107007142D01*
X170650000Y-106892857D01*
X169888095Y-106550000D02*
X170688095Y-106550000D01*
X170688095Y-106359523D01*
X170650000Y-106245238D01*
X170573809Y-106169047D01*
X170497619Y-106130952D01*
X170345238Y-106092857D01*
X170230952Y-106092857D01*
X170078571Y-106130952D01*
X170002380Y-106169047D01*
X169926190Y-106245238D01*
X169888095Y-106359523D01*
X169888095Y-106550000D01*
X170116666Y-105788095D02*
X170116666Y-105407142D01*
X169888095Y-105864285D02*
X170688095Y-105597619D01*
X169888095Y-105330952D01*
X135111904Y-105864285D02*
X135111904Y-105407142D01*
X135111904Y-105635714D02*
X134311904Y-105635714D01*
X134426190Y-105559523D01*
X134502380Y-105483333D01*
X134540476Y-105407142D01*
X134388095Y-106169047D02*
X134350000Y-106207142D01*
X134311904Y-106283333D01*
X134311904Y-106473809D01*
X134350000Y-106550000D01*
X134388095Y-106588095D01*
X134464285Y-106626190D01*
X134540476Y-106626190D01*
X134654761Y-106588095D01*
X135111904Y-106130952D01*
X135111904Y-106626190D01*
X134311904Y-106854761D02*
X135111904Y-107121428D01*
X134311904Y-107388095D01*
X134311904Y-108645238D02*
X134311904Y-108264285D01*
X134692857Y-108226190D01*
X134654761Y-108264285D01*
X134616666Y-108340476D01*
X134616666Y-108530952D01*
X134654761Y-108607142D01*
X134692857Y-108645238D01*
X134769047Y-108683333D01*
X134959523Y-108683333D01*
X135035714Y-108645238D01*
X135073809Y-108607142D01*
X135111904Y-108530952D01*
X135111904Y-108340476D01*
X135073809Y-108264285D01*
X135035714Y-108226190D01*
X134311904Y-108911904D02*
X135111904Y-109178571D01*
X134311904Y-109445238D01*
X134350000Y-110740476D02*
X134311904Y-110664285D01*
X134311904Y-110550000D01*
X134350000Y-110435714D01*
X134426190Y-110359523D01*
X134502380Y-110321428D01*
X134654761Y-110283333D01*
X134769047Y-110283333D01*
X134921428Y-110321428D01*
X134997619Y-110359523D01*
X135073809Y-110435714D01*
X135111904Y-110550000D01*
X135111904Y-110626190D01*
X135073809Y-110740476D01*
X135035714Y-110778571D01*
X134769047Y-110778571D01*
X134769047Y-110626190D01*
X135111904Y-111121428D02*
X134311904Y-111121428D01*
X135111904Y-111578571D01*
X134311904Y-111578571D01*
X135111904Y-111959523D02*
X134311904Y-111959523D01*
X134311904Y-112150000D01*
X134350000Y-112264285D01*
X134426190Y-112340476D01*
X134502380Y-112378571D01*
X134654761Y-112416666D01*
X134769047Y-112416666D01*
X134921428Y-112378571D01*
X134997619Y-112340476D01*
X135073809Y-112264285D01*
X135111904Y-112150000D01*
X135111904Y-111959523D01*
X135073809Y-113330952D02*
X135111904Y-113445238D01*
X135111904Y-113635714D01*
X135073809Y-113711904D01*
X135035714Y-113749999D01*
X134959523Y-113788095D01*
X134883333Y-113788095D01*
X134807142Y-113749999D01*
X134769047Y-113711904D01*
X134730952Y-113635714D01*
X134692857Y-113483333D01*
X134654761Y-113407142D01*
X134616666Y-113369047D01*
X134540476Y-113330952D01*
X134464285Y-113330952D01*
X134388095Y-113369047D01*
X134350000Y-113407142D01*
X134311904Y-113483333D01*
X134311904Y-113673809D01*
X134350000Y-113788095D01*
X135035714Y-114588095D02*
X135073809Y-114549999D01*
X135111904Y-114435714D01*
X135111904Y-114359523D01*
X135073809Y-114245238D01*
X134997619Y-114169047D01*
X134921428Y-114130952D01*
X134769047Y-114092857D01*
X134654761Y-114092857D01*
X134502380Y-114130952D01*
X134426190Y-114169047D01*
X134350000Y-114245238D01*
X134311904Y-114359523D01*
X134311904Y-114435714D01*
X134350000Y-114549999D01*
X134388095Y-114588095D01*
X135111904Y-115311904D02*
X135111904Y-114930952D01*
X134311904Y-114930952D01*
X135073809Y-116149999D02*
X135111904Y-116264285D01*
X135111904Y-116454761D01*
X135073809Y-116530952D01*
X135035714Y-116569047D01*
X134959523Y-116607142D01*
X134883333Y-116607142D01*
X134807142Y-116569047D01*
X134769047Y-116530952D01*
X134730952Y-116454761D01*
X134692857Y-116302380D01*
X134654761Y-116226190D01*
X134616666Y-116188095D01*
X134540476Y-116149999D01*
X134464285Y-116149999D01*
X134388095Y-116188095D01*
X134350000Y-116226190D01*
X134311904Y-116302380D01*
X134311904Y-116492857D01*
X134350000Y-116607142D01*
X135111904Y-116949999D02*
X134311904Y-116949999D01*
X134311904Y-117140476D01*
X134350000Y-117254761D01*
X134426190Y-117330952D01*
X134502380Y-117369047D01*
X134654761Y-117407142D01*
X134769047Y-117407142D01*
X134921428Y-117369047D01*
X134997619Y-117330952D01*
X135073809Y-117254761D01*
X135111904Y-117140476D01*
X135111904Y-116949999D01*
X134883333Y-117711904D02*
X134883333Y-118092857D01*
X135111904Y-117635714D02*
X134311904Y-117902380D01*
X135111904Y-118169047D01*
X153085000Y-129988095D02*
X153085000Y-131130952D01*
X154452380Y-130226190D02*
X153452380Y-130226190D01*
X154166666Y-130559523D01*
X153452380Y-130892857D01*
X154452380Y-130892857D01*
X153085000Y-131130952D02*
X153085000Y-132130952D01*
X154357142Y-131940476D02*
X154404761Y-131892857D01*
X154452380Y-131750000D01*
X154452380Y-131654761D01*
X154404761Y-131511904D01*
X154309523Y-131416666D01*
X154214285Y-131369047D01*
X154023809Y-131321428D01*
X153880952Y-131321428D01*
X153690476Y-131369047D01*
X153595238Y-131416666D01*
X153500000Y-131511904D01*
X153452380Y-131654761D01*
X153452380Y-131750000D01*
X153500000Y-131892857D01*
X153547619Y-131940476D01*
X153085000Y-132130952D02*
X153085000Y-132940476D01*
X154452380Y-132845238D02*
X154452380Y-132369047D01*
X153452380Y-132369047D01*
X153085000Y-132940476D02*
X153085000Y-133940476D01*
X154452380Y-133750000D02*
X153976190Y-133416666D01*
X154452380Y-133178571D02*
X153452380Y-133178571D01*
X153452380Y-133559523D01*
X153500000Y-133654761D01*
X153547619Y-133702380D01*
X153642857Y-133750000D01*
X153785714Y-133750000D01*
X153880952Y-133702380D01*
X153928571Y-133654761D01*
X153976190Y-133559523D01*
X153976190Y-133178571D01*
X153085000Y-133940476D02*
X153085000Y-134702380D01*
X153085000Y-134702380D02*
X153085000Y-135654761D01*
X153452380Y-135416666D02*
X153452380Y-134940476D01*
X153928571Y-134892857D01*
X153880952Y-134940476D01*
X153833333Y-135035714D01*
X153833333Y-135273809D01*
X153880952Y-135369047D01*
X153928571Y-135416666D01*
X154023809Y-135464285D01*
X154261904Y-135464285D01*
X154357142Y-135416666D01*
X154404761Y-135369047D01*
X154452380Y-135273809D01*
X154452380Y-135035714D01*
X154404761Y-134940476D01*
X154357142Y-134892857D01*
X153085000Y-135654761D02*
X153085000Y-136511904D01*
X153452380Y-135750000D02*
X154452380Y-136083333D01*
X153452380Y-136416666D01*
X139730000Y-134900000D02*
X152430000Y-134900000D01*
X139730000Y-143400000D02*
X152430000Y-143400000D01*
X139730000Y-134900000D02*
X139730000Y-143400000D01*
X152430000Y-134900000D02*
X152430000Y-143400000D01*
X149890000Y-134900000D02*
X149890000Y-143400000D01*
X144810000Y-134900000D02*
X144810000Y-143400000D01*
X147350000Y-134900000D02*
X147350000Y-143400000D01*
X142270000Y-134900000D02*
X142270000Y-143400000D01*
G36*
X139780800Y-143345800D02*
G01*
X142219200Y-143345800D01*
X142219200Y-134963800D01*
X139780800Y-134963800D01*
X139780800Y-143345800D01*
G37*
X139780800Y-143345800D02*
X142219200Y-143345800D01*
X142219200Y-134963800D01*
X139780800Y-134963800D01*
X139780800Y-143345800D01*
D11*
X144250000Y-115275000D02*
X151750000Y-115275000D01*
X144250000Y-103720000D02*
X144250000Y-115270000D01*
X151750000Y-104240000D02*
X151750000Y-115270000D01*
X144250000Y-103725000D02*
X151300000Y-103725000D01*
D12*
X134650000Y-86610000D02*
X132200000Y-86610000D01*
X132850000Y-83390000D02*
X134650000Y-83390000D01*
X134881252Y-98350000D02*
X134358748Y-98350000D01*
X134881252Y-99770000D02*
X134358748Y-99770000D01*
X137290000Y-88488748D02*
X137290000Y-89011252D01*
X138710000Y-88488748D02*
X138710000Y-89011252D01*
X148790000Y-82713748D02*
X148790000Y-83236252D01*
X150210000Y-82713748D02*
X150210000Y-83236252D01*
X155210000Y-138761252D02*
X155210000Y-138238748D01*
X153790000Y-138761252D02*
X153790000Y-138238748D01*
X158710000Y-138761252D02*
X158710000Y-138238748D01*
X157290000Y-138761252D02*
X157290000Y-138238748D01*
X160790000Y-138761252D02*
X160790000Y-138238748D01*
X162210000Y-138761252D02*
X162210000Y-138238748D01*
X164290000Y-138761252D02*
X164290000Y-138238748D01*
X165710000Y-138761252D02*
X165710000Y-138238748D01*
X163040000Y-90238748D02*
X163040000Y-90761252D01*
X164460000Y-90238748D02*
X164460000Y-90761252D01*
X137761252Y-134210000D02*
X137238748Y-134210000D01*
X137761252Y-132790000D02*
X137238748Y-132790000D01*
X161460000Y-79238748D02*
X161460000Y-79761252D01*
X160040000Y-79238748D02*
X160040000Y-79761252D01*
X157460000Y-79761252D02*
X157460000Y-79238748D01*
X156040000Y-79761252D02*
X156040000Y-79238748D01*
X168040000Y-79213748D02*
X168040000Y-79736252D01*
X169460000Y-79213748D02*
X169460000Y-79736252D01*
X164040000Y-79761252D02*
X164040000Y-79238748D01*
X165460000Y-79761252D02*
X165460000Y-79238748D01*
X167210000Y-90238748D02*
X167210000Y-90761252D01*
X165790000Y-90238748D02*
X165790000Y-90761252D01*
X137761252Y-130540000D02*
X137238748Y-130540000D01*
X137761252Y-131960000D02*
X137238748Y-131960000D01*
X158210000Y-114261252D02*
X158210000Y-113738748D01*
X156790000Y-114261252D02*
X156790000Y-113738748D01*
X141350000Y-84390000D02*
X143150000Y-84390000D01*
X143150000Y-87610000D02*
X140700000Y-87610000D01*
X161800000Y-98100000D02*
X163260000Y-98100000D01*
X161800000Y-94940000D02*
X164960000Y-94940000D01*
X161800000Y-94940000D02*
X161800000Y-95870000D01*
X161800000Y-98100000D02*
X161800000Y-97170000D01*
X141760000Y-123920000D02*
X141760000Y-124850000D01*
X141760000Y-127080000D02*
X141760000Y-126150000D01*
X141760000Y-127080000D02*
X138600000Y-127080000D01*
X141760000Y-123920000D02*
X140300000Y-123920000D01*
D10*
X140202380Y-133416666D02*
X140916666Y-133416666D01*
X141059523Y-133369047D01*
X141154761Y-133273809D01*
X141202380Y-133130952D01*
X141202380Y-133035714D01*
X141202380Y-134416666D02*
X141202380Y-133845238D01*
X141202380Y-134130952D02*
X140202380Y-134130952D01*
X140345238Y-134035714D01*
X140440476Y-133940476D01*
X140488095Y-133845238D01*
X140052380Y-108738095D02*
X140861904Y-108738095D01*
X140957142Y-108785714D01*
X141004761Y-108833333D01*
X141052380Y-108928571D01*
X141052380Y-109119047D01*
X141004761Y-109214285D01*
X140957142Y-109261904D01*
X140861904Y-109309523D01*
X140052380Y-109309523D01*
X140147619Y-109738095D02*
X140100000Y-109785714D01*
X140052380Y-109880952D01*
X140052380Y-110119047D01*
X140100000Y-110214285D01*
X140147619Y-110261904D01*
X140242857Y-110309523D01*
X140338095Y-110309523D01*
X140480952Y-110261904D01*
X141052380Y-109690476D01*
X141052380Y-110309523D01*
X134511904Y-87202380D02*
X134511904Y-88011904D01*
X134464285Y-88107142D01*
X134416666Y-88154761D01*
X134321428Y-88202380D01*
X134130952Y-88202380D01*
X134035714Y-88154761D01*
X133988095Y-88107142D01*
X133940476Y-88011904D01*
X133940476Y-87202380D01*
X133035714Y-87535714D02*
X133035714Y-88202380D01*
X133273809Y-87154761D02*
X133511904Y-87869047D01*
X132892857Y-87869047D01*
X134786666Y-97767142D02*
X134834285Y-97814761D01*
X134977142Y-97862380D01*
X135072380Y-97862380D01*
X135215238Y-97814761D01*
X135310476Y-97719523D01*
X135358095Y-97624285D01*
X135405714Y-97433809D01*
X135405714Y-97290952D01*
X135358095Y-97100476D01*
X135310476Y-97005238D01*
X135215238Y-96910000D01*
X135072380Y-96862380D01*
X134977142Y-96862380D01*
X134834285Y-96910000D01*
X134786666Y-96957619D01*
X133834285Y-97862380D02*
X134405714Y-97862380D01*
X134120000Y-97862380D02*
X134120000Y-96862380D01*
X134215238Y-97005238D01*
X134310476Y-97100476D01*
X134405714Y-97148095D01*
X136357142Y-88583333D02*
X136404761Y-88535714D01*
X136452380Y-88392857D01*
X136452380Y-88297619D01*
X136404761Y-88154761D01*
X136309523Y-88059523D01*
X136214285Y-88011904D01*
X136023809Y-87964285D01*
X135880952Y-87964285D01*
X135690476Y-88011904D01*
X135595238Y-88059523D01*
X135500000Y-88154761D01*
X135452380Y-88297619D01*
X135452380Y-88392857D01*
X135500000Y-88535714D01*
X135547619Y-88583333D01*
X135547619Y-88964285D02*
X135500000Y-89011904D01*
X135452380Y-89107142D01*
X135452380Y-89345238D01*
X135500000Y-89440476D01*
X135547619Y-89488095D01*
X135642857Y-89535714D01*
X135738095Y-89535714D01*
X135880952Y-89488095D01*
X136452380Y-88916666D01*
X136452380Y-89535714D01*
X147857142Y-82808333D02*
X147904761Y-82760714D01*
X147952380Y-82617857D01*
X147952380Y-82522619D01*
X147904761Y-82379761D01*
X147809523Y-82284523D01*
X147714285Y-82236904D01*
X147523809Y-82189285D01*
X147380952Y-82189285D01*
X147190476Y-82236904D01*
X147095238Y-82284523D01*
X147000000Y-82379761D01*
X146952380Y-82522619D01*
X146952380Y-82617857D01*
X147000000Y-82760714D01*
X147047619Y-82808333D01*
X146952380Y-83141666D02*
X146952380Y-83760714D01*
X147333333Y-83427380D01*
X147333333Y-83570238D01*
X147380952Y-83665476D01*
X147428571Y-83713095D01*
X147523809Y-83760714D01*
X147761904Y-83760714D01*
X147857142Y-83713095D01*
X147904761Y-83665476D01*
X147952380Y-83570238D01*
X147952380Y-83284523D01*
X147904761Y-83189285D01*
X147857142Y-83141666D01*
X156602380Y-138333333D02*
X156126190Y-138000000D01*
X156602380Y-137761904D02*
X155602380Y-137761904D01*
X155602380Y-138142857D01*
X155650000Y-138238095D01*
X155697619Y-138285714D01*
X155792857Y-138333333D01*
X155935714Y-138333333D01*
X156030952Y-138285714D01*
X156078571Y-138238095D01*
X156126190Y-138142857D01*
X156126190Y-137761904D01*
X156602380Y-139285714D02*
X156602380Y-138714285D01*
X156602380Y-139000000D02*
X155602380Y-139000000D01*
X155745238Y-138904761D01*
X155840476Y-138809523D01*
X155888095Y-138714285D01*
X160102380Y-138333333D02*
X159626190Y-138000000D01*
X160102380Y-137761904D02*
X159102380Y-137761904D01*
X159102380Y-138142857D01*
X159150000Y-138238095D01*
X159197619Y-138285714D01*
X159292857Y-138333333D01*
X159435714Y-138333333D01*
X159530952Y-138285714D01*
X159578571Y-138238095D01*
X159626190Y-138142857D01*
X159626190Y-137761904D01*
X159197619Y-138714285D02*
X159150000Y-138761904D01*
X159102380Y-138857142D01*
X159102380Y-139095238D01*
X159150000Y-139190476D01*
X159197619Y-139238095D01*
X159292857Y-139285714D01*
X159388095Y-139285714D01*
X159530952Y-139238095D01*
X160102380Y-138666666D01*
X160102380Y-139285714D01*
X163602380Y-138333333D02*
X163126190Y-138000000D01*
X163602380Y-137761904D02*
X162602380Y-137761904D01*
X162602380Y-138142857D01*
X162650000Y-138238095D01*
X162697619Y-138285714D01*
X162792857Y-138333333D01*
X162935714Y-138333333D01*
X163030952Y-138285714D01*
X163078571Y-138238095D01*
X163126190Y-138142857D01*
X163126190Y-137761904D01*
X162602380Y-138666666D02*
X162602380Y-139285714D01*
X162983333Y-138952380D01*
X162983333Y-139095238D01*
X163030952Y-139190476D01*
X163078571Y-139238095D01*
X163173809Y-139285714D01*
X163411904Y-139285714D01*
X163507142Y-139238095D01*
X163554761Y-139190476D01*
X163602380Y-139095238D01*
X163602380Y-138809523D01*
X163554761Y-138714285D01*
X163507142Y-138666666D01*
X167102380Y-138333333D02*
X166626190Y-138000000D01*
X167102380Y-137761904D02*
X166102380Y-137761904D01*
X166102380Y-138142857D01*
X166150000Y-138238095D01*
X166197619Y-138285714D01*
X166292857Y-138333333D01*
X166435714Y-138333333D01*
X166530952Y-138285714D01*
X166578571Y-138238095D01*
X166626190Y-138142857D01*
X166626190Y-137761904D01*
X166435714Y-139190476D02*
X167102380Y-139190476D01*
X166054761Y-138952380D02*
X166769047Y-138714285D01*
X166769047Y-139333333D01*
X162202380Y-90333333D02*
X161726190Y-90000000D01*
X162202380Y-89761904D02*
X161202380Y-89761904D01*
X161202380Y-90142857D01*
X161250000Y-90238095D01*
X161297619Y-90285714D01*
X161392857Y-90333333D01*
X161535714Y-90333333D01*
X161630952Y-90285714D01*
X161678571Y-90238095D01*
X161726190Y-90142857D01*
X161726190Y-89761904D01*
X161202380Y-91238095D02*
X161202380Y-90761904D01*
X161678571Y-90714285D01*
X161630952Y-90761904D01*
X161583333Y-90857142D01*
X161583333Y-91095238D01*
X161630952Y-91190476D01*
X161678571Y-91238095D01*
X161773809Y-91285714D01*
X162011904Y-91285714D01*
X162107142Y-91238095D01*
X162154761Y-91190476D01*
X162202380Y-91095238D01*
X162202380Y-90857142D01*
X162154761Y-90761904D01*
X162107142Y-90714285D01*
X137666666Y-135702380D02*
X138000000Y-135226190D01*
X138238095Y-135702380D02*
X138238095Y-134702380D01*
X137857142Y-134702380D01*
X137761904Y-134750000D01*
X137714285Y-134797619D01*
X137666666Y-134892857D01*
X137666666Y-135035714D01*
X137714285Y-135130952D01*
X137761904Y-135178571D01*
X137857142Y-135226190D01*
X138238095Y-135226190D01*
X136809523Y-134702380D02*
X137000000Y-134702380D01*
X137095238Y-134750000D01*
X137142857Y-134797619D01*
X137238095Y-134940476D01*
X137285714Y-135130952D01*
X137285714Y-135511904D01*
X137238095Y-135607142D01*
X137190476Y-135654761D01*
X137095238Y-135702380D01*
X136904761Y-135702380D01*
X136809523Y-135654761D01*
X136761904Y-135607142D01*
X136714285Y-135511904D01*
X136714285Y-135273809D01*
X136761904Y-135178571D01*
X136809523Y-135130952D01*
X136904761Y-135083333D01*
X137095238Y-135083333D01*
X137190476Y-135130952D01*
X137238095Y-135178571D01*
X137285714Y-135273809D01*
X160416666Y-82952380D02*
X160750000Y-82476190D01*
X160988095Y-82952380D02*
X160988095Y-81952380D01*
X160607142Y-81952380D01*
X160511904Y-82000000D01*
X160464285Y-82047619D01*
X160416666Y-82142857D01*
X160416666Y-82285714D01*
X160464285Y-82380952D01*
X160511904Y-82428571D01*
X160607142Y-82476190D01*
X160988095Y-82476190D01*
X160083333Y-81952380D02*
X159416666Y-81952380D01*
X159845238Y-82952380D01*
X156916666Y-82952380D02*
X157250000Y-82476190D01*
X157488095Y-82952380D02*
X157488095Y-81952380D01*
X157107142Y-81952380D01*
X157011904Y-82000000D01*
X156964285Y-82047619D01*
X156916666Y-82142857D01*
X156916666Y-82285714D01*
X156964285Y-82380952D01*
X157011904Y-82428571D01*
X157107142Y-82476190D01*
X157488095Y-82476190D01*
X156345238Y-82380952D02*
X156440476Y-82333333D01*
X156488095Y-82285714D01*
X156535714Y-82190476D01*
X156535714Y-82142857D01*
X156488095Y-82047619D01*
X156440476Y-82000000D01*
X156345238Y-81952380D01*
X156154761Y-81952380D01*
X156059523Y-82000000D01*
X156011904Y-82047619D01*
X155964285Y-82142857D01*
X155964285Y-82190476D01*
X156011904Y-82285714D01*
X156059523Y-82333333D01*
X156154761Y-82380952D01*
X156345238Y-82380952D01*
X156440476Y-82428571D01*
X156488095Y-82476190D01*
X156535714Y-82571428D01*
X156535714Y-82761904D01*
X156488095Y-82857142D01*
X156440476Y-82904761D01*
X156345238Y-82952380D01*
X156154761Y-82952380D01*
X156059523Y-82904761D01*
X156011904Y-82857142D01*
X155964285Y-82761904D01*
X155964285Y-82571428D01*
X156011904Y-82476190D01*
X156059523Y-82428571D01*
X156154761Y-82380952D01*
X168916666Y-82927380D02*
X169250000Y-82451190D01*
X169488095Y-82927380D02*
X169488095Y-81927380D01*
X169107142Y-81927380D01*
X169011904Y-81975000D01*
X168964285Y-82022619D01*
X168916666Y-82117857D01*
X168916666Y-82260714D01*
X168964285Y-82355952D01*
X169011904Y-82403571D01*
X169107142Y-82451190D01*
X169488095Y-82451190D01*
X168440476Y-82927380D02*
X168250000Y-82927380D01*
X168154761Y-82879761D01*
X168107142Y-82832142D01*
X168011904Y-82689285D01*
X167964285Y-82498809D01*
X167964285Y-82117857D01*
X168011904Y-82022619D01*
X168059523Y-81975000D01*
X168154761Y-81927380D01*
X168345238Y-81927380D01*
X168440476Y-81975000D01*
X168488095Y-82022619D01*
X168535714Y-82117857D01*
X168535714Y-82355952D01*
X168488095Y-82451190D01*
X168440476Y-82498809D01*
X168345238Y-82546428D01*
X168154761Y-82546428D01*
X168059523Y-82498809D01*
X168011904Y-82451190D01*
X167964285Y-82355952D01*
X165392857Y-82952380D02*
X165726190Y-82476190D01*
X165964285Y-82952380D02*
X165964285Y-81952380D01*
X165583333Y-81952380D01*
X165488095Y-82000000D01*
X165440476Y-82047619D01*
X165392857Y-82142857D01*
X165392857Y-82285714D01*
X165440476Y-82380952D01*
X165488095Y-82428571D01*
X165583333Y-82476190D01*
X165964285Y-82476190D01*
X164440476Y-82952380D02*
X165011904Y-82952380D01*
X164726190Y-82952380D02*
X164726190Y-81952380D01*
X164821428Y-82095238D01*
X164916666Y-82190476D01*
X165011904Y-82238095D01*
X163821428Y-81952380D02*
X163726190Y-81952380D01*
X163630952Y-82000000D01*
X163583333Y-82047619D01*
X163535714Y-82142857D01*
X163488095Y-82333333D01*
X163488095Y-82571428D01*
X163535714Y-82761904D01*
X163583333Y-82857142D01*
X163630952Y-82904761D01*
X163726190Y-82952380D01*
X163821428Y-82952380D01*
X163916666Y-82904761D01*
X163964285Y-82857142D01*
X164011904Y-82761904D01*
X164059523Y-82571428D01*
X164059523Y-82333333D01*
X164011904Y-82142857D01*
X163964285Y-82047619D01*
X163916666Y-82000000D01*
X163821428Y-81952380D01*
X168952380Y-89857142D02*
X168476190Y-89523809D01*
X168952380Y-89285714D02*
X167952380Y-89285714D01*
X167952380Y-89666666D01*
X168000000Y-89761904D01*
X168047619Y-89809523D01*
X168142857Y-89857142D01*
X168285714Y-89857142D01*
X168380952Y-89809523D01*
X168428571Y-89761904D01*
X168476190Y-89666666D01*
X168476190Y-89285714D01*
X168952380Y-90809523D02*
X168952380Y-90238095D01*
X168952380Y-90523809D02*
X167952380Y-90523809D01*
X168095238Y-90428571D01*
X168190476Y-90333333D01*
X168238095Y-90238095D01*
X168952380Y-91761904D02*
X168952380Y-91190476D01*
X168952380Y-91476190D02*
X167952380Y-91476190D01*
X168095238Y-91380952D01*
X168190476Y-91285714D01*
X168238095Y-91190476D01*
X138142857Y-130052380D02*
X138476190Y-129576190D01*
X138714285Y-130052380D02*
X138714285Y-129052380D01*
X138333333Y-129052380D01*
X138238095Y-129100000D01*
X138190476Y-129147619D01*
X138142857Y-129242857D01*
X138142857Y-129385714D01*
X138190476Y-129480952D01*
X138238095Y-129528571D01*
X138333333Y-129576190D01*
X138714285Y-129576190D01*
X137190476Y-130052380D02*
X137761904Y-130052380D01*
X137476190Y-130052380D02*
X137476190Y-129052380D01*
X137571428Y-129195238D01*
X137666666Y-129290476D01*
X137761904Y-129338095D01*
X136809523Y-129147619D02*
X136761904Y-129100000D01*
X136666666Y-129052380D01*
X136428571Y-129052380D01*
X136333333Y-129100000D01*
X136285714Y-129147619D01*
X136238095Y-129242857D01*
X136238095Y-129338095D01*
X136285714Y-129480952D01*
X136857142Y-130052380D01*
X136238095Y-130052380D01*
X159602380Y-113357142D02*
X159126190Y-113023809D01*
X159602380Y-112785714D02*
X158602380Y-112785714D01*
X158602380Y-113166666D01*
X158650000Y-113261904D01*
X158697619Y-113309523D01*
X158792857Y-113357142D01*
X158935714Y-113357142D01*
X159030952Y-113309523D01*
X159078571Y-113261904D01*
X159126190Y-113166666D01*
X159126190Y-112785714D01*
X159602380Y-114309523D02*
X159602380Y-113738095D01*
X159602380Y-114023809D02*
X158602380Y-114023809D01*
X158745238Y-113928571D01*
X158840476Y-113833333D01*
X158888095Y-113738095D01*
X158602380Y-114642857D02*
X158602380Y-115261904D01*
X158983333Y-114928571D01*
X158983333Y-115071428D01*
X159030952Y-115166666D01*
X159078571Y-115214285D01*
X159173809Y-115261904D01*
X159411904Y-115261904D01*
X159507142Y-115214285D01*
X159554761Y-115166666D01*
X159602380Y-115071428D01*
X159602380Y-114785714D01*
X159554761Y-114690476D01*
X159507142Y-114642857D01*
X143511904Y-88202380D02*
X143511904Y-89011904D01*
X143464285Y-89107142D01*
X143416666Y-89154761D01*
X143321428Y-89202380D01*
X143130952Y-89202380D01*
X143035714Y-89154761D01*
X142988095Y-89107142D01*
X142940476Y-89011904D01*
X142940476Y-88202380D01*
X142035714Y-88202380D02*
X142226190Y-88202380D01*
X142321428Y-88250000D01*
X142369047Y-88297619D01*
X142464285Y-88440476D01*
X142511904Y-88630952D01*
X142511904Y-89011904D01*
X142464285Y-89107142D01*
X142416666Y-89154761D01*
X142321428Y-89202380D01*
X142130952Y-89202380D01*
X142035714Y-89154761D01*
X141988095Y-89107142D01*
X141940476Y-89011904D01*
X141940476Y-88773809D01*
X141988095Y-88678571D01*
X142035714Y-88630952D01*
X142130952Y-88583333D01*
X142321428Y-88583333D01*
X142416666Y-88630952D01*
X142464285Y-88678571D01*
X142511904Y-88773809D01*
X163655238Y-99567619D02*
X163750476Y-99520000D01*
X163845714Y-99424761D01*
X163988571Y-99281904D01*
X164083809Y-99234285D01*
X164179047Y-99234285D01*
X164131428Y-99472380D02*
X164226666Y-99424761D01*
X164321904Y-99329523D01*
X164369523Y-99139047D01*
X164369523Y-98805714D01*
X164321904Y-98615238D01*
X164226666Y-98520000D01*
X164131428Y-98472380D01*
X163940952Y-98472380D01*
X163845714Y-98520000D01*
X163750476Y-98615238D01*
X163702857Y-98805714D01*
X163702857Y-99139047D01*
X163750476Y-99329523D01*
X163845714Y-99424761D01*
X163940952Y-99472380D01*
X164131428Y-99472380D01*
X162750476Y-99472380D02*
X163321904Y-99472380D01*
X163036190Y-99472380D02*
X163036190Y-98472380D01*
X163131428Y-98615238D01*
X163226666Y-98710476D01*
X163321904Y-98758095D01*
X141095238Y-128547619D02*
X141190476Y-128500000D01*
X141285714Y-128404761D01*
X141428571Y-128261904D01*
X141523809Y-128214285D01*
X141619047Y-128214285D01*
X141571428Y-128452380D02*
X141666666Y-128404761D01*
X141761904Y-128309523D01*
X141809523Y-128119047D01*
X141809523Y-127785714D01*
X141761904Y-127595238D01*
X141666666Y-127500000D01*
X141571428Y-127452380D01*
X141380952Y-127452380D01*
X141285714Y-127500000D01*
X141190476Y-127595238D01*
X141142857Y-127785714D01*
X141142857Y-128119047D01*
X141190476Y-128309523D01*
X141285714Y-128404761D01*
X141380952Y-128452380D01*
X141571428Y-128452380D01*
X140761904Y-127547619D02*
X140714285Y-127500000D01*
X140619047Y-127452380D01*
X140380952Y-127452380D01*
X140285714Y-127500000D01*
X140238095Y-127547619D01*
X140190476Y-127642857D01*
X140190476Y-127738095D01*
X140238095Y-127880952D01*
X140809523Y-128452380D01*
X140190476Y-128452380D01*
M02*
