M48
; DRILL file {KiCad (5.1.5-0-10_14)} date Wednesday, February 19, 2020 at 02:52:11 pm
; FORMAT={-:-/ absolute / inch / decimal}
; #@! TF.CreationDate,2020-02-19T14:52:11-05:00
; #@! TF.GenerationSoftware,Kicad,Pcbnew,(5.1.5-0-10_14)
; #@! TF.FileFunction,Plated,1,2,PTH
FMAT,2
INCH
T1C0.0157
T2C0.0197
T3C0.0315
T4C0.0374
T5C0.0394
T6C0.0512
T7C0.0787
T8C0.1260
%
G90
G05
T1
X5.1473Y-3.7303
X5.2Y-3.05
X5.2Y-3.65
X5.2756Y-5.187
X5.3473Y-3.6027
X5.35Y-3.05
X5.3543Y-3.7008
X5.4232Y-5.0394
X5.4331Y-3.7205
X5.4331Y-3.7795
X5.5118Y-3.25
X5.5807Y-4.4882
X5.6201Y-3.2283
X5.7409Y-4.2645
X5.7677Y-4.3446
X5.7972Y-3.3366
X5.7972Y-5.4528
X6.0039Y-5.1378
X6.0802Y-4.3472
X6.094Y-4.456
X6.1122Y-5.0098
X6.1417Y-4.2126
X6.3878Y-3.6516
X6.4075Y-4.4291
X6.4075Y-4.8425
X6.4411Y-4.3946
X6.624Y-3.5531
X6.6831Y-4.3898
X6.7028Y-4.5177
T2
X5.5118Y-4.7343
X5.5315Y-4.8425
X6.565Y-3.8484
T3
X6.8307Y-3.2728
X6.8307Y-3.5728
X5.6843Y-4.7835
X5.9843Y-4.7835
T4
X5.3937Y-4.2126
X5.3937Y-4.311
X5.3937Y-4.4094
X5.3937Y-4.5079
X5.3937Y-4.6063
X6.6142Y-4.2126
X6.6142Y-4.311
X6.6142Y-4.4094
X6.6142Y-4.5079
X6.6142Y-4.6063
T5
X6.8307Y-3.6909
X5.2362Y-4.0157
X5.2362Y-3.563
X5.2362Y-3.7795
X6.1614Y-5.3102
X6.1614Y-5.6102
X6.2614Y-5.3102
X6.2614Y-5.6102
X6.3614Y-5.3102
X6.3614Y-5.6102
X6.4614Y-5.3102
X6.4614Y-5.6102
T6
X6.2008Y-3.8976
X6.437Y-3.9764
X6.6732Y-3.4173
X6.6732Y-3.8976
X6.2598Y-4.1535
X6.2598Y-4.3346
X6.2598Y-4.7795
X6.2598Y-4.9606
X5.5217Y-2.8543
X5.7185Y-2.8543
X5.9154Y-2.8543
X6.1122Y-2.8543
X6.3091Y-2.8543
X6.5059Y-2.8543
X5.3051Y-4.8622
X5.3051Y-5.0622
X5.689Y-3.6079
X5.689Y-3.8063
X5.689Y-4.0047
X5.689Y-4.6063
X5.9843Y-3.6079
X5.9843Y-3.8063
X5.9843Y-4.0047
X5.9843Y-4.6063
X6.6831Y-4.8689
X6.6831Y-5.0689
T7
X6.2598Y-3.4252
T8
X6.7323Y-2.9134
X5.2756Y-5.4724
X5.2756Y-2.9134
X6.7323Y-5.4724
T0
M30
