G04 #@! TF.GenerationSoftware,KiCad,Pcbnew,(5.1.5-0-10_14)*
G04 #@! TF.CreationDate,2020-02-19T14:52:08-05:00*
G04 #@! TF.ProjectId,rlcsv3_modular,726c6373-7633-45f6-9d6f-64756c61722e,rev?*
G04 #@! TF.SameCoordinates,Original*
G04 #@! TF.FileFunction,Soldermask,Top*
G04 #@! TF.FilePolarity,Negative*
%FSLAX46Y46*%
G04 Gerber Fmt 4.6, Leading zero omitted, Abs format (unit mm)*
G04 Created by KiCad (PCBNEW (5.1.5-0-10_14)) date 2020-02-19 14:52:08*
%MOMM*%
%LPD*%
G04 APERTURE LIST*
%ADD10C,0.100000*%
%ADD11C,2.600000*%
%ADD12R,2.600000X2.600000*%
%ADD13O,1.950000X1.700000*%
%ADD14C,3.000000*%
%ADD15C,6.400000*%
%ADD16R,1.700000X1.700000*%
%ADD17R,1.600000X1.600000*%
%ADD18O,1.600000X1.600000*%
%ADD19C,2.350000*%
%ADD20C,1.600000*%
G04 APERTURE END LIST*
D10*
G36*
X142124505Y-138801204D02*
G01*
X142148773Y-138804804D01*
X142172572Y-138810765D01*
X142195671Y-138819030D01*
X142217850Y-138829520D01*
X142238893Y-138842132D01*
X142258599Y-138856747D01*
X142276777Y-138873223D01*
X142293253Y-138891401D01*
X142307868Y-138911107D01*
X142320480Y-138932150D01*
X142330970Y-138954329D01*
X142339235Y-138977428D01*
X142345196Y-139001227D01*
X142348796Y-139025495D01*
X142350000Y-139049999D01*
X142350000Y-139950001D01*
X142348796Y-139974505D01*
X142345196Y-139998773D01*
X142339235Y-140022572D01*
X142330970Y-140045671D01*
X142320480Y-140067850D01*
X142307868Y-140088893D01*
X142293253Y-140108599D01*
X142276777Y-140126777D01*
X142258599Y-140143253D01*
X142238893Y-140157868D01*
X142217850Y-140170480D01*
X142195671Y-140180970D01*
X142172572Y-140189235D01*
X142148773Y-140195196D01*
X142124505Y-140198796D01*
X142100001Y-140200000D01*
X141449999Y-140200000D01*
X141425495Y-140198796D01*
X141401227Y-140195196D01*
X141377428Y-140189235D01*
X141354329Y-140180970D01*
X141332150Y-140170480D01*
X141311107Y-140157868D01*
X141291401Y-140143253D01*
X141273223Y-140126777D01*
X141256747Y-140108599D01*
X141242132Y-140088893D01*
X141229520Y-140067850D01*
X141219030Y-140045671D01*
X141210765Y-140022572D01*
X141204804Y-139998773D01*
X141201204Y-139974505D01*
X141200000Y-139950001D01*
X141200000Y-139049999D01*
X141201204Y-139025495D01*
X141204804Y-139001227D01*
X141210765Y-138977428D01*
X141219030Y-138954329D01*
X141229520Y-138932150D01*
X141242132Y-138911107D01*
X141256747Y-138891401D01*
X141273223Y-138873223D01*
X141291401Y-138856747D01*
X141311107Y-138842132D01*
X141332150Y-138829520D01*
X141354329Y-138819030D01*
X141377428Y-138810765D01*
X141401227Y-138804804D01*
X141425495Y-138801204D01*
X141449999Y-138800000D01*
X142100001Y-138800000D01*
X142124505Y-138801204D01*
G37*
G36*
X140074505Y-138801204D02*
G01*
X140098773Y-138804804D01*
X140122572Y-138810765D01*
X140145671Y-138819030D01*
X140167850Y-138829520D01*
X140188893Y-138842132D01*
X140208599Y-138856747D01*
X140226777Y-138873223D01*
X140243253Y-138891401D01*
X140257868Y-138911107D01*
X140270480Y-138932150D01*
X140280970Y-138954329D01*
X140289235Y-138977428D01*
X140295196Y-139001227D01*
X140298796Y-139025495D01*
X140300000Y-139049999D01*
X140300000Y-139950001D01*
X140298796Y-139974505D01*
X140295196Y-139998773D01*
X140289235Y-140022572D01*
X140280970Y-140045671D01*
X140270480Y-140067850D01*
X140257868Y-140088893D01*
X140243253Y-140108599D01*
X140226777Y-140126777D01*
X140208599Y-140143253D01*
X140188893Y-140157868D01*
X140167850Y-140170480D01*
X140145671Y-140180970D01*
X140122572Y-140189235D01*
X140098773Y-140195196D01*
X140074505Y-140198796D01*
X140050001Y-140200000D01*
X139399999Y-140200000D01*
X139375495Y-140198796D01*
X139351227Y-140195196D01*
X139327428Y-140189235D01*
X139304329Y-140180970D01*
X139282150Y-140170480D01*
X139261107Y-140157868D01*
X139241401Y-140143253D01*
X139223223Y-140126777D01*
X139206747Y-140108599D01*
X139192132Y-140088893D01*
X139179520Y-140067850D01*
X139169030Y-140045671D01*
X139160765Y-140022572D01*
X139154804Y-139998773D01*
X139151204Y-139974505D01*
X139150000Y-139950001D01*
X139150000Y-139049999D01*
X139151204Y-139025495D01*
X139154804Y-139001227D01*
X139160765Y-138977428D01*
X139169030Y-138954329D01*
X139179520Y-138932150D01*
X139192132Y-138911107D01*
X139206747Y-138891401D01*
X139223223Y-138873223D01*
X139241401Y-138856747D01*
X139261107Y-138842132D01*
X139282150Y-138829520D01*
X139304329Y-138819030D01*
X139327428Y-138810765D01*
X139351227Y-138804804D01*
X139375495Y-138801204D01*
X139399999Y-138800000D01*
X140050001Y-138800000D01*
X140074505Y-138801204D01*
G37*
G36*
X132999504Y-132876204D02*
G01*
X133023773Y-132879804D01*
X133047571Y-132885765D01*
X133070671Y-132894030D01*
X133092849Y-132904520D01*
X133113893Y-132917133D01*
X133133598Y-132931747D01*
X133151777Y-132948223D01*
X133168253Y-132966402D01*
X133182867Y-132986107D01*
X133195480Y-133007151D01*
X133205970Y-133029329D01*
X133214235Y-133052429D01*
X133220196Y-133076227D01*
X133223796Y-133100496D01*
X133225000Y-133125000D01*
X133225000Y-134375000D01*
X133223796Y-134399504D01*
X133220196Y-134423773D01*
X133214235Y-134447571D01*
X133205970Y-134470671D01*
X133195480Y-134492849D01*
X133182867Y-134513893D01*
X133168253Y-134533598D01*
X133151777Y-134551777D01*
X133133598Y-134568253D01*
X133113893Y-134582867D01*
X133092849Y-134595480D01*
X133070671Y-134605970D01*
X133047571Y-134614235D01*
X133023773Y-134620196D01*
X132999504Y-134623796D01*
X132975000Y-134625000D01*
X132050000Y-134625000D01*
X132025496Y-134623796D01*
X132001227Y-134620196D01*
X131977429Y-134614235D01*
X131954329Y-134605970D01*
X131932151Y-134595480D01*
X131911107Y-134582867D01*
X131891402Y-134568253D01*
X131873223Y-134551777D01*
X131856747Y-134533598D01*
X131842133Y-134513893D01*
X131829520Y-134492849D01*
X131819030Y-134470671D01*
X131810765Y-134447571D01*
X131804804Y-134423773D01*
X131801204Y-134399504D01*
X131800000Y-134375000D01*
X131800000Y-133125000D01*
X131801204Y-133100496D01*
X131804804Y-133076227D01*
X131810765Y-133052429D01*
X131819030Y-133029329D01*
X131829520Y-133007151D01*
X131842133Y-132986107D01*
X131856747Y-132966402D01*
X131873223Y-132948223D01*
X131891402Y-132931747D01*
X131911107Y-132917133D01*
X131932151Y-132904520D01*
X131954329Y-132894030D01*
X131977429Y-132885765D01*
X132001227Y-132879804D01*
X132025496Y-132876204D01*
X132050000Y-132875000D01*
X132975000Y-132875000D01*
X132999504Y-132876204D01*
G37*
G36*
X135974504Y-132876204D02*
G01*
X135998773Y-132879804D01*
X136022571Y-132885765D01*
X136045671Y-132894030D01*
X136067849Y-132904520D01*
X136088893Y-132917133D01*
X136108598Y-132931747D01*
X136126777Y-132948223D01*
X136143253Y-132966402D01*
X136157867Y-132986107D01*
X136170480Y-133007151D01*
X136180970Y-133029329D01*
X136189235Y-133052429D01*
X136195196Y-133076227D01*
X136198796Y-133100496D01*
X136200000Y-133125000D01*
X136200000Y-134375000D01*
X136198796Y-134399504D01*
X136195196Y-134423773D01*
X136189235Y-134447571D01*
X136180970Y-134470671D01*
X136170480Y-134492849D01*
X136157867Y-134513893D01*
X136143253Y-134533598D01*
X136126777Y-134551777D01*
X136108598Y-134568253D01*
X136088893Y-134582867D01*
X136067849Y-134595480D01*
X136045671Y-134605970D01*
X136022571Y-134614235D01*
X135998773Y-134620196D01*
X135974504Y-134623796D01*
X135950000Y-134625000D01*
X135025000Y-134625000D01*
X135000496Y-134623796D01*
X134976227Y-134620196D01*
X134952429Y-134614235D01*
X134929329Y-134605970D01*
X134907151Y-134595480D01*
X134886107Y-134582867D01*
X134866402Y-134568253D01*
X134848223Y-134551777D01*
X134831747Y-134533598D01*
X134817133Y-134513893D01*
X134804520Y-134492849D01*
X134794030Y-134470671D01*
X134785765Y-134447571D01*
X134779804Y-134423773D01*
X134776204Y-134399504D01*
X134775000Y-134375000D01*
X134775000Y-133125000D01*
X134776204Y-133100496D01*
X134779804Y-133076227D01*
X134785765Y-133052429D01*
X134794030Y-133029329D01*
X134804520Y-133007151D01*
X134817133Y-132986107D01*
X134831747Y-132966402D01*
X134848223Y-132948223D01*
X134866402Y-132931747D01*
X134886107Y-132917133D01*
X134907151Y-132904520D01*
X134929329Y-132894030D01*
X134952429Y-132885765D01*
X134976227Y-132879804D01*
X135000496Y-132876204D01*
X135025000Y-132875000D01*
X135950000Y-132875000D01*
X135974504Y-132876204D01*
G37*
D11*
X134750000Y-128580000D03*
D12*
X134750000Y-123500000D03*
D11*
X140250000Y-72500000D03*
X145250000Y-72500000D03*
X150250000Y-72500000D03*
X155250000Y-72500000D03*
X160250000Y-72500000D03*
D12*
X165250000Y-72500000D03*
D13*
X137000000Y-117000000D03*
X137000000Y-114500000D03*
X137000000Y-112000000D03*
X137000000Y-109500000D03*
D10*
G36*
X137749504Y-106151204D02*
G01*
X137773773Y-106154804D01*
X137797571Y-106160765D01*
X137820671Y-106169030D01*
X137842849Y-106179520D01*
X137863893Y-106192133D01*
X137883598Y-106206747D01*
X137901777Y-106223223D01*
X137918253Y-106241402D01*
X137932867Y-106261107D01*
X137945480Y-106282151D01*
X137955970Y-106304329D01*
X137964235Y-106327429D01*
X137970196Y-106351227D01*
X137973796Y-106375496D01*
X137975000Y-106400000D01*
X137975000Y-107600000D01*
X137973796Y-107624504D01*
X137970196Y-107648773D01*
X137964235Y-107672571D01*
X137955970Y-107695671D01*
X137945480Y-107717849D01*
X137932867Y-107738893D01*
X137918253Y-107758598D01*
X137901777Y-107776777D01*
X137883598Y-107793253D01*
X137863893Y-107807867D01*
X137842849Y-107820480D01*
X137820671Y-107830970D01*
X137797571Y-107839235D01*
X137773773Y-107845196D01*
X137749504Y-107848796D01*
X137725000Y-107850000D01*
X136275000Y-107850000D01*
X136250496Y-107848796D01*
X136226227Y-107845196D01*
X136202429Y-107839235D01*
X136179329Y-107830970D01*
X136157151Y-107820480D01*
X136136107Y-107807867D01*
X136116402Y-107793253D01*
X136098223Y-107776777D01*
X136081747Y-107758598D01*
X136067133Y-107738893D01*
X136054520Y-107717849D01*
X136044030Y-107695671D01*
X136035765Y-107672571D01*
X136029804Y-107648773D01*
X136026204Y-107624504D01*
X136025000Y-107600000D01*
X136025000Y-106400000D01*
X136026204Y-106375496D01*
X136029804Y-106351227D01*
X136035765Y-106327429D01*
X136044030Y-106304329D01*
X136054520Y-106282151D01*
X136067133Y-106261107D01*
X136081747Y-106241402D01*
X136098223Y-106223223D01*
X136116402Y-106206747D01*
X136136107Y-106192133D01*
X136157151Y-106179520D01*
X136179329Y-106169030D01*
X136202429Y-106160765D01*
X136226227Y-106154804D01*
X136250496Y-106151204D01*
X136275000Y-106150000D01*
X137725000Y-106150000D01*
X137749504Y-106151204D01*
G37*
D14*
X144500000Y-117000000D03*
X152000000Y-117000000D03*
X144500000Y-96680000D03*
X152000000Y-91640000D03*
X152000000Y-101720000D03*
X144500000Y-101720000D03*
X152000000Y-96680000D03*
X144500000Y-91640000D03*
D15*
X134000000Y-139000000D03*
X171000000Y-139000000D03*
X171000000Y-74000000D03*
X134000000Y-74000000D03*
D14*
X169500000Y-99000000D03*
X169500000Y-86800000D03*
X157500000Y-99000000D03*
X163500000Y-101000000D03*
D16*
X133000000Y-96000000D03*
X133000000Y-102000000D03*
X133000000Y-90500000D03*
X173500000Y-93750000D03*
D17*
X173500000Y-90750000D03*
D18*
X173500000Y-83130000D03*
X144380000Y-121500000D03*
D17*
X152000000Y-121500000D03*
D19*
X159000000Y-110100000D03*
X159000000Y-105500000D03*
X159000000Y-121400000D03*
X159000000Y-126000000D03*
D12*
X169750000Y-128750000D03*
D11*
X169750000Y-123670000D03*
D20*
X156500000Y-134880000D03*
X159040000Y-134880000D03*
X161580000Y-134880000D03*
X164120000Y-134880000D03*
X164120000Y-142500000D03*
X161580000Y-142500000D03*
X159040000Y-142500000D03*
D17*
X156500000Y-142500000D03*
D10*
G36*
X168749504Y-116151204D02*
G01*
X168773773Y-116154804D01*
X168797571Y-116160765D01*
X168820671Y-116169030D01*
X168842849Y-116179520D01*
X168863893Y-116192133D01*
X168883598Y-116206747D01*
X168901777Y-116223223D01*
X168918253Y-116241402D01*
X168932867Y-116261107D01*
X168945480Y-116282151D01*
X168955970Y-116304329D01*
X168964235Y-116327429D01*
X168970196Y-116351227D01*
X168973796Y-116375496D01*
X168975000Y-116400000D01*
X168975000Y-117600000D01*
X168973796Y-117624504D01*
X168970196Y-117648773D01*
X168964235Y-117672571D01*
X168955970Y-117695671D01*
X168945480Y-117717849D01*
X168932867Y-117738893D01*
X168918253Y-117758598D01*
X168901777Y-117776777D01*
X168883598Y-117793253D01*
X168863893Y-117807867D01*
X168842849Y-117820480D01*
X168820671Y-117830970D01*
X168797571Y-117839235D01*
X168773773Y-117845196D01*
X168749504Y-117848796D01*
X168725000Y-117850000D01*
X167275000Y-117850000D01*
X167250496Y-117848796D01*
X167226227Y-117845196D01*
X167202429Y-117839235D01*
X167179329Y-117830970D01*
X167157151Y-117820480D01*
X167136107Y-117807867D01*
X167116402Y-117793253D01*
X167098223Y-117776777D01*
X167081747Y-117758598D01*
X167067133Y-117738893D01*
X167054520Y-117717849D01*
X167044030Y-117695671D01*
X167035765Y-117672571D01*
X167029804Y-117648773D01*
X167026204Y-117624504D01*
X167025000Y-117600000D01*
X167025000Y-116400000D01*
X167026204Y-116375496D01*
X167029804Y-116351227D01*
X167035765Y-116327429D01*
X167044030Y-116304329D01*
X167054520Y-116282151D01*
X167067133Y-116261107D01*
X167081747Y-116241402D01*
X167098223Y-116223223D01*
X167116402Y-116206747D01*
X167136107Y-116192133D01*
X167157151Y-116179520D01*
X167179329Y-116169030D01*
X167202429Y-116160765D01*
X167226227Y-116154804D01*
X167250496Y-116151204D01*
X167275000Y-116150000D01*
X168725000Y-116150000D01*
X168749504Y-116151204D01*
G37*
D13*
X168000000Y-114500000D03*
X168000000Y-112000000D03*
X168000000Y-109500000D03*
X168000000Y-107000000D03*
D10*
G36*
X138144505Y-78826204D02*
G01*
X138168773Y-78829804D01*
X138192572Y-78835765D01*
X138215671Y-78844030D01*
X138237850Y-78854520D01*
X138258893Y-78867132D01*
X138278599Y-78881747D01*
X138296777Y-78898223D01*
X138313253Y-78916401D01*
X138327868Y-78936107D01*
X138340480Y-78957150D01*
X138350970Y-78979329D01*
X138359235Y-79002428D01*
X138365196Y-79026227D01*
X138368796Y-79050495D01*
X138370000Y-79074999D01*
X138370000Y-81925001D01*
X138368796Y-81949505D01*
X138365196Y-81973773D01*
X138359235Y-81997572D01*
X138350970Y-82020671D01*
X138340480Y-82042850D01*
X138327868Y-82063893D01*
X138313253Y-82083599D01*
X138296777Y-82101777D01*
X138278599Y-82118253D01*
X138258893Y-82132868D01*
X138237850Y-82145480D01*
X138215671Y-82155970D01*
X138192572Y-82164235D01*
X138168773Y-82170196D01*
X138144505Y-82173796D01*
X138120001Y-82175000D01*
X137094999Y-82175000D01*
X137070495Y-82173796D01*
X137046227Y-82170196D01*
X137022428Y-82164235D01*
X136999329Y-82155970D01*
X136977150Y-82145480D01*
X136956107Y-82132868D01*
X136936401Y-82118253D01*
X136918223Y-82101777D01*
X136901747Y-82083599D01*
X136887132Y-82063893D01*
X136874520Y-82042850D01*
X136864030Y-82020671D01*
X136855765Y-81997572D01*
X136849804Y-81973773D01*
X136846204Y-81949505D01*
X136845000Y-81925001D01*
X136845000Y-79074999D01*
X136846204Y-79050495D01*
X136849804Y-79026227D01*
X136855765Y-79002428D01*
X136864030Y-78979329D01*
X136874520Y-78957150D01*
X136887132Y-78936107D01*
X136901747Y-78916401D01*
X136918223Y-78898223D01*
X136936401Y-78881747D01*
X136956107Y-78867132D01*
X136977150Y-78854520D01*
X136999329Y-78844030D01*
X137022428Y-78835765D01*
X137046227Y-78829804D01*
X137070495Y-78826204D01*
X137094999Y-78825000D01*
X138120001Y-78825000D01*
X138144505Y-78826204D01*
G37*
G36*
X132169505Y-78826204D02*
G01*
X132193773Y-78829804D01*
X132217572Y-78835765D01*
X132240671Y-78844030D01*
X132262850Y-78854520D01*
X132283893Y-78867132D01*
X132303599Y-78881747D01*
X132321777Y-78898223D01*
X132338253Y-78916401D01*
X132352868Y-78936107D01*
X132365480Y-78957150D01*
X132375970Y-78979329D01*
X132384235Y-79002428D01*
X132390196Y-79026227D01*
X132393796Y-79050495D01*
X132395000Y-79074999D01*
X132395000Y-81925001D01*
X132393796Y-81949505D01*
X132390196Y-81973773D01*
X132384235Y-81997572D01*
X132375970Y-82020671D01*
X132365480Y-82042850D01*
X132352868Y-82063893D01*
X132338253Y-82083599D01*
X132321777Y-82101777D01*
X132303599Y-82118253D01*
X132283893Y-82132868D01*
X132262850Y-82145480D01*
X132240671Y-82155970D01*
X132217572Y-82164235D01*
X132193773Y-82170196D01*
X132169505Y-82173796D01*
X132145001Y-82175000D01*
X131119999Y-82175000D01*
X131095495Y-82173796D01*
X131071227Y-82170196D01*
X131047428Y-82164235D01*
X131024329Y-82155970D01*
X131002150Y-82145480D01*
X130981107Y-82132868D01*
X130961401Y-82118253D01*
X130943223Y-82101777D01*
X130926747Y-82083599D01*
X130912132Y-82063893D01*
X130899520Y-82042850D01*
X130889030Y-82020671D01*
X130880765Y-81997572D01*
X130874804Y-81973773D01*
X130871204Y-81949505D01*
X130870000Y-81925001D01*
X130870000Y-79074999D01*
X130871204Y-79050495D01*
X130874804Y-79026227D01*
X130880765Y-79002428D01*
X130889030Y-78979329D01*
X130899520Y-78957150D01*
X130912132Y-78936107D01*
X130926747Y-78916401D01*
X130943223Y-78898223D01*
X130961401Y-78881747D01*
X130981107Y-78867132D01*
X131002150Y-78854520D01*
X131024329Y-78844030D01*
X131047428Y-78835765D01*
X131071227Y-78829804D01*
X131095495Y-78826204D01*
X131119999Y-78825000D01*
X132145001Y-78825000D01*
X132169505Y-78826204D01*
G37*
G36*
X138049505Y-83326204D02*
G01*
X138073773Y-83329804D01*
X138097572Y-83335765D01*
X138120671Y-83344030D01*
X138142850Y-83354520D01*
X138163893Y-83367132D01*
X138183599Y-83381747D01*
X138201777Y-83398223D01*
X138218253Y-83416401D01*
X138232868Y-83436107D01*
X138245480Y-83457150D01*
X138255970Y-83479329D01*
X138264235Y-83502428D01*
X138270196Y-83526227D01*
X138273796Y-83550495D01*
X138275000Y-83574999D01*
X138275000Y-86425001D01*
X138273796Y-86449505D01*
X138270196Y-86473773D01*
X138264235Y-86497572D01*
X138255970Y-86520671D01*
X138245480Y-86542850D01*
X138232868Y-86563893D01*
X138218253Y-86583599D01*
X138201777Y-86601777D01*
X138183599Y-86618253D01*
X138163893Y-86632868D01*
X138142850Y-86645480D01*
X138120671Y-86655970D01*
X138097572Y-86664235D01*
X138073773Y-86670196D01*
X138049505Y-86673796D01*
X138025001Y-86675000D01*
X136999999Y-86675000D01*
X136975495Y-86673796D01*
X136951227Y-86670196D01*
X136927428Y-86664235D01*
X136904329Y-86655970D01*
X136882150Y-86645480D01*
X136861107Y-86632868D01*
X136841401Y-86618253D01*
X136823223Y-86601777D01*
X136806747Y-86583599D01*
X136792132Y-86563893D01*
X136779520Y-86542850D01*
X136769030Y-86520671D01*
X136760765Y-86497572D01*
X136754804Y-86473773D01*
X136751204Y-86449505D01*
X136750000Y-86425001D01*
X136750000Y-83574999D01*
X136751204Y-83550495D01*
X136754804Y-83526227D01*
X136760765Y-83502428D01*
X136769030Y-83479329D01*
X136779520Y-83457150D01*
X136792132Y-83436107D01*
X136806747Y-83416401D01*
X136823223Y-83398223D01*
X136841401Y-83381747D01*
X136861107Y-83367132D01*
X136882150Y-83354520D01*
X136904329Y-83344030D01*
X136927428Y-83335765D01*
X136951227Y-83329804D01*
X136975495Y-83326204D01*
X136999999Y-83325000D01*
X138025001Y-83325000D01*
X138049505Y-83326204D01*
G37*
G36*
X144024505Y-83326204D02*
G01*
X144048773Y-83329804D01*
X144072572Y-83335765D01*
X144095671Y-83344030D01*
X144117850Y-83354520D01*
X144138893Y-83367132D01*
X144158599Y-83381747D01*
X144176777Y-83398223D01*
X144193253Y-83416401D01*
X144207868Y-83436107D01*
X144220480Y-83457150D01*
X144230970Y-83479329D01*
X144239235Y-83502428D01*
X144245196Y-83526227D01*
X144248796Y-83550495D01*
X144250000Y-83574999D01*
X144250000Y-86425001D01*
X144248796Y-86449505D01*
X144245196Y-86473773D01*
X144239235Y-86497572D01*
X144230970Y-86520671D01*
X144220480Y-86542850D01*
X144207868Y-86563893D01*
X144193253Y-86583599D01*
X144176777Y-86601777D01*
X144158599Y-86618253D01*
X144138893Y-86632868D01*
X144117850Y-86645480D01*
X144095671Y-86655970D01*
X144072572Y-86664235D01*
X144048773Y-86670196D01*
X144024505Y-86673796D01*
X144000001Y-86675000D01*
X142974999Y-86675000D01*
X142950495Y-86673796D01*
X142926227Y-86670196D01*
X142902428Y-86664235D01*
X142879329Y-86655970D01*
X142857150Y-86645480D01*
X142836107Y-86632868D01*
X142816401Y-86618253D01*
X142798223Y-86601777D01*
X142781747Y-86583599D01*
X142767132Y-86563893D01*
X142754520Y-86542850D01*
X142744030Y-86520671D01*
X142735765Y-86497572D01*
X142729804Y-86473773D01*
X142726204Y-86449505D01*
X142725000Y-86425001D01*
X142725000Y-83574999D01*
X142726204Y-83550495D01*
X142729804Y-83526227D01*
X142735765Y-83502428D01*
X142744030Y-83479329D01*
X142754520Y-83457150D01*
X142767132Y-83436107D01*
X142781747Y-83416401D01*
X142798223Y-83398223D01*
X142816401Y-83381747D01*
X142836107Y-83367132D01*
X142857150Y-83354520D01*
X142879329Y-83344030D01*
X142902428Y-83335765D01*
X142926227Y-83329804D01*
X142950495Y-83326204D01*
X142974999Y-83325000D01*
X144000001Y-83325000D01*
X144024505Y-83326204D01*
G37*
M02*
