G04 #@! TF.GenerationSoftware,KiCad,Pcbnew,(5.1.5-0-10_14)*
G04 #@! TF.CreationDate,2020-02-19T14:52:08-05:00*
G04 #@! TF.ProjectId,rlcsv3_modular,726c6373-7633-45f6-9d6f-64756c61722e,rev?*
G04 #@! TF.SameCoordinates,Original*
G04 #@! TF.FileFunction,Soldermask,Bot*
G04 #@! TF.FilePolarity,Negative*
%FSLAX46Y46*%
G04 Gerber Fmt 4.6, Leading zero omitted, Abs format (unit mm)*
G04 Created by KiCad (PCBNEW (5.1.5-0-10_14)) date 2020-02-19 14:52:08*
%MOMM*%
%LPD*%
G04 APERTURE LIST*
%ADD10C,2.600000*%
%ADD11R,2.600000X2.600000*%
%ADD12R,1.000000X2.000000*%
%ADD13R,2.140000X0.740000*%
%ADD14O,1.950000X1.700000*%
%ADD15C,0.100000*%
%ADD16C,3.000000*%
%ADD17C,6.400000*%
%ADD18R,1.560000X0.650000*%
%ADD19R,1.700000X1.700000*%
%ADD20R,1.600000X1.600000*%
%ADD21O,1.600000X1.600000*%
%ADD22C,2.350000*%
%ADD23C,1.600000*%
%ADD24R,1.900000X0.800000*%
G04 APERTURE END LIST*
D10*
X134750000Y-128580000D03*
D11*
X134750000Y-123500000D03*
D12*
X141000000Y-132500000D03*
X143540000Y-132500000D03*
X146080000Y-132500000D03*
X148620000Y-132500000D03*
X151160000Y-132500000D03*
D13*
X143300000Y-104420000D03*
X143300000Y-105690000D03*
X143300000Y-106960000D03*
X143300000Y-108230000D03*
X143300000Y-109500000D03*
X143300000Y-110770000D03*
X143300000Y-112040000D03*
X143300000Y-113310000D03*
X143300000Y-114580000D03*
X152700000Y-114580000D03*
X152700000Y-113310000D03*
X152700000Y-112040000D03*
X152700000Y-110770000D03*
X152700000Y-109500000D03*
X152700000Y-108230000D03*
X152700000Y-106960000D03*
X152700000Y-105690000D03*
X152700000Y-104420000D03*
D10*
X140250000Y-72500000D03*
X145250000Y-72500000D03*
X150250000Y-72500000D03*
X155250000Y-72500000D03*
X160250000Y-72500000D03*
D11*
X165250000Y-72500000D03*
D14*
X137000000Y-117000000D03*
X137000000Y-114500000D03*
X137000000Y-112000000D03*
X137000000Y-109500000D03*
D15*
G36*
X137749504Y-106151204D02*
G01*
X137773773Y-106154804D01*
X137797571Y-106160765D01*
X137820671Y-106169030D01*
X137842849Y-106179520D01*
X137863893Y-106192133D01*
X137883598Y-106206747D01*
X137901777Y-106223223D01*
X137918253Y-106241402D01*
X137932867Y-106261107D01*
X137945480Y-106282151D01*
X137955970Y-106304329D01*
X137964235Y-106327429D01*
X137970196Y-106351227D01*
X137973796Y-106375496D01*
X137975000Y-106400000D01*
X137975000Y-107600000D01*
X137973796Y-107624504D01*
X137970196Y-107648773D01*
X137964235Y-107672571D01*
X137955970Y-107695671D01*
X137945480Y-107717849D01*
X137932867Y-107738893D01*
X137918253Y-107758598D01*
X137901777Y-107776777D01*
X137883598Y-107793253D01*
X137863893Y-107807867D01*
X137842849Y-107820480D01*
X137820671Y-107830970D01*
X137797571Y-107839235D01*
X137773773Y-107845196D01*
X137749504Y-107848796D01*
X137725000Y-107850000D01*
X136275000Y-107850000D01*
X136250496Y-107848796D01*
X136226227Y-107845196D01*
X136202429Y-107839235D01*
X136179329Y-107830970D01*
X136157151Y-107820480D01*
X136136107Y-107807867D01*
X136116402Y-107793253D01*
X136098223Y-107776777D01*
X136081747Y-107758598D01*
X136067133Y-107738893D01*
X136054520Y-107717849D01*
X136044030Y-107695671D01*
X136035765Y-107672571D01*
X136029804Y-107648773D01*
X136026204Y-107624504D01*
X136025000Y-107600000D01*
X136025000Y-106400000D01*
X136026204Y-106375496D01*
X136029804Y-106351227D01*
X136035765Y-106327429D01*
X136044030Y-106304329D01*
X136054520Y-106282151D01*
X136067133Y-106261107D01*
X136081747Y-106241402D01*
X136098223Y-106223223D01*
X136116402Y-106206747D01*
X136136107Y-106192133D01*
X136157151Y-106179520D01*
X136179329Y-106169030D01*
X136202429Y-106160765D01*
X136226227Y-106154804D01*
X136250496Y-106151204D01*
X136275000Y-106150000D01*
X137725000Y-106150000D01*
X137749504Y-106151204D01*
G37*
D16*
X144500000Y-117000000D03*
X152000000Y-117000000D03*
X144500000Y-96680000D03*
X152000000Y-91640000D03*
X152000000Y-101720000D03*
X144500000Y-101720000D03*
X152000000Y-96680000D03*
X144500000Y-91640000D03*
D17*
X134000000Y-139000000D03*
X171000000Y-139000000D03*
X171000000Y-74000000D03*
X134000000Y-74000000D03*
D16*
X169500000Y-99000000D03*
X169500000Y-86800000D03*
X157500000Y-99000000D03*
X163500000Y-101000000D03*
D18*
X135100000Y-85950000D03*
X135100000Y-84050000D03*
X132400000Y-84050000D03*
X132400000Y-85000000D03*
X132400000Y-85950000D03*
D19*
X133000000Y-96000000D03*
X133000000Y-102000000D03*
X133000000Y-90500000D03*
X173500000Y-93750000D03*
D15*
G36*
X135994505Y-98361204D02*
G01*
X136018773Y-98364804D01*
X136042572Y-98370765D01*
X136065671Y-98379030D01*
X136087850Y-98389520D01*
X136108893Y-98402132D01*
X136128599Y-98416747D01*
X136146777Y-98433223D01*
X136163253Y-98451401D01*
X136177868Y-98471107D01*
X136190480Y-98492150D01*
X136200970Y-98514329D01*
X136209235Y-98537428D01*
X136215196Y-98561227D01*
X136218796Y-98585495D01*
X136220000Y-98609999D01*
X136220000Y-99510001D01*
X136218796Y-99534505D01*
X136215196Y-99558773D01*
X136209235Y-99582572D01*
X136200970Y-99605671D01*
X136190480Y-99627850D01*
X136177868Y-99648893D01*
X136163253Y-99668599D01*
X136146777Y-99686777D01*
X136128599Y-99703253D01*
X136108893Y-99717868D01*
X136087850Y-99730480D01*
X136065671Y-99740970D01*
X136042572Y-99749235D01*
X136018773Y-99755196D01*
X135994505Y-99758796D01*
X135970001Y-99760000D01*
X135319999Y-99760000D01*
X135295495Y-99758796D01*
X135271227Y-99755196D01*
X135247428Y-99749235D01*
X135224329Y-99740970D01*
X135202150Y-99730480D01*
X135181107Y-99717868D01*
X135161401Y-99703253D01*
X135143223Y-99686777D01*
X135126747Y-99668599D01*
X135112132Y-99648893D01*
X135099520Y-99627850D01*
X135089030Y-99605671D01*
X135080765Y-99582572D01*
X135074804Y-99558773D01*
X135071204Y-99534505D01*
X135070000Y-99510001D01*
X135070000Y-98609999D01*
X135071204Y-98585495D01*
X135074804Y-98561227D01*
X135080765Y-98537428D01*
X135089030Y-98514329D01*
X135099520Y-98492150D01*
X135112132Y-98471107D01*
X135126747Y-98451401D01*
X135143223Y-98433223D01*
X135161401Y-98416747D01*
X135181107Y-98402132D01*
X135202150Y-98389520D01*
X135224329Y-98379030D01*
X135247428Y-98370765D01*
X135271227Y-98364804D01*
X135295495Y-98361204D01*
X135319999Y-98360000D01*
X135970001Y-98360000D01*
X135994505Y-98361204D01*
G37*
G36*
X133944505Y-98361204D02*
G01*
X133968773Y-98364804D01*
X133992572Y-98370765D01*
X134015671Y-98379030D01*
X134037850Y-98389520D01*
X134058893Y-98402132D01*
X134078599Y-98416747D01*
X134096777Y-98433223D01*
X134113253Y-98451401D01*
X134127868Y-98471107D01*
X134140480Y-98492150D01*
X134150970Y-98514329D01*
X134159235Y-98537428D01*
X134165196Y-98561227D01*
X134168796Y-98585495D01*
X134170000Y-98609999D01*
X134170000Y-99510001D01*
X134168796Y-99534505D01*
X134165196Y-99558773D01*
X134159235Y-99582572D01*
X134150970Y-99605671D01*
X134140480Y-99627850D01*
X134127868Y-99648893D01*
X134113253Y-99668599D01*
X134096777Y-99686777D01*
X134078599Y-99703253D01*
X134058893Y-99717868D01*
X134037850Y-99730480D01*
X134015671Y-99740970D01*
X133992572Y-99749235D01*
X133968773Y-99755196D01*
X133944505Y-99758796D01*
X133920001Y-99760000D01*
X133269999Y-99760000D01*
X133245495Y-99758796D01*
X133221227Y-99755196D01*
X133197428Y-99749235D01*
X133174329Y-99740970D01*
X133152150Y-99730480D01*
X133131107Y-99717868D01*
X133111401Y-99703253D01*
X133093223Y-99686777D01*
X133076747Y-99668599D01*
X133062132Y-99648893D01*
X133049520Y-99627850D01*
X133039030Y-99605671D01*
X133030765Y-99582572D01*
X133024804Y-99558773D01*
X133021204Y-99534505D01*
X133020000Y-99510001D01*
X133020000Y-98609999D01*
X133021204Y-98585495D01*
X133024804Y-98561227D01*
X133030765Y-98537428D01*
X133039030Y-98514329D01*
X133049520Y-98492150D01*
X133062132Y-98471107D01*
X133076747Y-98451401D01*
X133093223Y-98433223D01*
X133111401Y-98416747D01*
X133131107Y-98402132D01*
X133152150Y-98389520D01*
X133174329Y-98379030D01*
X133197428Y-98370765D01*
X133221227Y-98364804D01*
X133245495Y-98361204D01*
X133269999Y-98360000D01*
X133920001Y-98360000D01*
X133944505Y-98361204D01*
G37*
G36*
X138474505Y-87151204D02*
G01*
X138498773Y-87154804D01*
X138522572Y-87160765D01*
X138545671Y-87169030D01*
X138567850Y-87179520D01*
X138588893Y-87192132D01*
X138608599Y-87206747D01*
X138626777Y-87223223D01*
X138643253Y-87241401D01*
X138657868Y-87261107D01*
X138670480Y-87282150D01*
X138680970Y-87304329D01*
X138689235Y-87327428D01*
X138695196Y-87351227D01*
X138698796Y-87375495D01*
X138700000Y-87399999D01*
X138700000Y-88050001D01*
X138698796Y-88074505D01*
X138695196Y-88098773D01*
X138689235Y-88122572D01*
X138680970Y-88145671D01*
X138670480Y-88167850D01*
X138657868Y-88188893D01*
X138643253Y-88208599D01*
X138626777Y-88226777D01*
X138608599Y-88243253D01*
X138588893Y-88257868D01*
X138567850Y-88270480D01*
X138545671Y-88280970D01*
X138522572Y-88289235D01*
X138498773Y-88295196D01*
X138474505Y-88298796D01*
X138450001Y-88300000D01*
X137549999Y-88300000D01*
X137525495Y-88298796D01*
X137501227Y-88295196D01*
X137477428Y-88289235D01*
X137454329Y-88280970D01*
X137432150Y-88270480D01*
X137411107Y-88257868D01*
X137391401Y-88243253D01*
X137373223Y-88226777D01*
X137356747Y-88208599D01*
X137342132Y-88188893D01*
X137329520Y-88167850D01*
X137319030Y-88145671D01*
X137310765Y-88122572D01*
X137304804Y-88098773D01*
X137301204Y-88074505D01*
X137300000Y-88050001D01*
X137300000Y-87399999D01*
X137301204Y-87375495D01*
X137304804Y-87351227D01*
X137310765Y-87327428D01*
X137319030Y-87304329D01*
X137329520Y-87282150D01*
X137342132Y-87261107D01*
X137356747Y-87241401D01*
X137373223Y-87223223D01*
X137391401Y-87206747D01*
X137411107Y-87192132D01*
X137432150Y-87179520D01*
X137454329Y-87169030D01*
X137477428Y-87160765D01*
X137501227Y-87154804D01*
X137525495Y-87151204D01*
X137549999Y-87150000D01*
X138450001Y-87150000D01*
X138474505Y-87151204D01*
G37*
G36*
X138474505Y-89201204D02*
G01*
X138498773Y-89204804D01*
X138522572Y-89210765D01*
X138545671Y-89219030D01*
X138567850Y-89229520D01*
X138588893Y-89242132D01*
X138608599Y-89256747D01*
X138626777Y-89273223D01*
X138643253Y-89291401D01*
X138657868Y-89311107D01*
X138670480Y-89332150D01*
X138680970Y-89354329D01*
X138689235Y-89377428D01*
X138695196Y-89401227D01*
X138698796Y-89425495D01*
X138700000Y-89449999D01*
X138700000Y-90100001D01*
X138698796Y-90124505D01*
X138695196Y-90148773D01*
X138689235Y-90172572D01*
X138680970Y-90195671D01*
X138670480Y-90217850D01*
X138657868Y-90238893D01*
X138643253Y-90258599D01*
X138626777Y-90276777D01*
X138608599Y-90293253D01*
X138588893Y-90307868D01*
X138567850Y-90320480D01*
X138545671Y-90330970D01*
X138522572Y-90339235D01*
X138498773Y-90345196D01*
X138474505Y-90348796D01*
X138450001Y-90350000D01*
X137549999Y-90350000D01*
X137525495Y-90348796D01*
X137501227Y-90345196D01*
X137477428Y-90339235D01*
X137454329Y-90330970D01*
X137432150Y-90320480D01*
X137411107Y-90307868D01*
X137391401Y-90293253D01*
X137373223Y-90276777D01*
X137356747Y-90258599D01*
X137342132Y-90238893D01*
X137329520Y-90217850D01*
X137319030Y-90195671D01*
X137310765Y-90172572D01*
X137304804Y-90148773D01*
X137301204Y-90124505D01*
X137300000Y-90100001D01*
X137300000Y-89449999D01*
X137301204Y-89425495D01*
X137304804Y-89401227D01*
X137310765Y-89377428D01*
X137319030Y-89354329D01*
X137329520Y-89332150D01*
X137342132Y-89311107D01*
X137356747Y-89291401D01*
X137373223Y-89273223D01*
X137391401Y-89256747D01*
X137411107Y-89242132D01*
X137432150Y-89229520D01*
X137454329Y-89219030D01*
X137477428Y-89210765D01*
X137501227Y-89204804D01*
X137525495Y-89201204D01*
X137549999Y-89200000D01*
X138450001Y-89200000D01*
X138474505Y-89201204D01*
G37*
G36*
X149974505Y-81376204D02*
G01*
X149998773Y-81379804D01*
X150022572Y-81385765D01*
X150045671Y-81394030D01*
X150067850Y-81404520D01*
X150088893Y-81417132D01*
X150108599Y-81431747D01*
X150126777Y-81448223D01*
X150143253Y-81466401D01*
X150157868Y-81486107D01*
X150170480Y-81507150D01*
X150180970Y-81529329D01*
X150189235Y-81552428D01*
X150195196Y-81576227D01*
X150198796Y-81600495D01*
X150200000Y-81624999D01*
X150200000Y-82275001D01*
X150198796Y-82299505D01*
X150195196Y-82323773D01*
X150189235Y-82347572D01*
X150180970Y-82370671D01*
X150170480Y-82392850D01*
X150157868Y-82413893D01*
X150143253Y-82433599D01*
X150126777Y-82451777D01*
X150108599Y-82468253D01*
X150088893Y-82482868D01*
X150067850Y-82495480D01*
X150045671Y-82505970D01*
X150022572Y-82514235D01*
X149998773Y-82520196D01*
X149974505Y-82523796D01*
X149950001Y-82525000D01*
X149049999Y-82525000D01*
X149025495Y-82523796D01*
X149001227Y-82520196D01*
X148977428Y-82514235D01*
X148954329Y-82505970D01*
X148932150Y-82495480D01*
X148911107Y-82482868D01*
X148891401Y-82468253D01*
X148873223Y-82451777D01*
X148856747Y-82433599D01*
X148842132Y-82413893D01*
X148829520Y-82392850D01*
X148819030Y-82370671D01*
X148810765Y-82347572D01*
X148804804Y-82323773D01*
X148801204Y-82299505D01*
X148800000Y-82275001D01*
X148800000Y-81624999D01*
X148801204Y-81600495D01*
X148804804Y-81576227D01*
X148810765Y-81552428D01*
X148819030Y-81529329D01*
X148829520Y-81507150D01*
X148842132Y-81486107D01*
X148856747Y-81466401D01*
X148873223Y-81448223D01*
X148891401Y-81431747D01*
X148911107Y-81417132D01*
X148932150Y-81404520D01*
X148954329Y-81394030D01*
X148977428Y-81385765D01*
X149001227Y-81379804D01*
X149025495Y-81376204D01*
X149049999Y-81375000D01*
X149950001Y-81375000D01*
X149974505Y-81376204D01*
G37*
G36*
X149974505Y-83426204D02*
G01*
X149998773Y-83429804D01*
X150022572Y-83435765D01*
X150045671Y-83444030D01*
X150067850Y-83454520D01*
X150088893Y-83467132D01*
X150108599Y-83481747D01*
X150126777Y-83498223D01*
X150143253Y-83516401D01*
X150157868Y-83536107D01*
X150170480Y-83557150D01*
X150180970Y-83579329D01*
X150189235Y-83602428D01*
X150195196Y-83626227D01*
X150198796Y-83650495D01*
X150200000Y-83674999D01*
X150200000Y-84325001D01*
X150198796Y-84349505D01*
X150195196Y-84373773D01*
X150189235Y-84397572D01*
X150180970Y-84420671D01*
X150170480Y-84442850D01*
X150157868Y-84463893D01*
X150143253Y-84483599D01*
X150126777Y-84501777D01*
X150108599Y-84518253D01*
X150088893Y-84532868D01*
X150067850Y-84545480D01*
X150045671Y-84555970D01*
X150022572Y-84564235D01*
X149998773Y-84570196D01*
X149974505Y-84573796D01*
X149950001Y-84575000D01*
X149049999Y-84575000D01*
X149025495Y-84573796D01*
X149001227Y-84570196D01*
X148977428Y-84564235D01*
X148954329Y-84555970D01*
X148932150Y-84545480D01*
X148911107Y-84532868D01*
X148891401Y-84518253D01*
X148873223Y-84501777D01*
X148856747Y-84483599D01*
X148842132Y-84463893D01*
X148829520Y-84442850D01*
X148819030Y-84420671D01*
X148810765Y-84397572D01*
X148804804Y-84373773D01*
X148801204Y-84349505D01*
X148800000Y-84325001D01*
X148800000Y-83674999D01*
X148801204Y-83650495D01*
X148804804Y-83626227D01*
X148810765Y-83602428D01*
X148819030Y-83579329D01*
X148829520Y-83557150D01*
X148842132Y-83536107D01*
X148856747Y-83516401D01*
X148873223Y-83498223D01*
X148891401Y-83481747D01*
X148911107Y-83467132D01*
X148932150Y-83454520D01*
X148954329Y-83444030D01*
X148977428Y-83435765D01*
X149001227Y-83429804D01*
X149025495Y-83426204D01*
X149049999Y-83425000D01*
X149950001Y-83425000D01*
X149974505Y-83426204D01*
G37*
D20*
X173500000Y-90750000D03*
D21*
X173500000Y-83130000D03*
X144380000Y-121500000D03*
D20*
X152000000Y-121500000D03*
D22*
X159000000Y-110100000D03*
X159000000Y-105500000D03*
X159000000Y-121400000D03*
X159000000Y-126000000D03*
D11*
X169750000Y-128750000D03*
D10*
X169750000Y-123670000D03*
D15*
G36*
X154974505Y-138951204D02*
G01*
X154998773Y-138954804D01*
X155022572Y-138960765D01*
X155045671Y-138969030D01*
X155067850Y-138979520D01*
X155088893Y-138992132D01*
X155108599Y-139006747D01*
X155126777Y-139023223D01*
X155143253Y-139041401D01*
X155157868Y-139061107D01*
X155170480Y-139082150D01*
X155180970Y-139104329D01*
X155189235Y-139127428D01*
X155195196Y-139151227D01*
X155198796Y-139175495D01*
X155200000Y-139199999D01*
X155200000Y-139850001D01*
X155198796Y-139874505D01*
X155195196Y-139898773D01*
X155189235Y-139922572D01*
X155180970Y-139945671D01*
X155170480Y-139967850D01*
X155157868Y-139988893D01*
X155143253Y-140008599D01*
X155126777Y-140026777D01*
X155108599Y-140043253D01*
X155088893Y-140057868D01*
X155067850Y-140070480D01*
X155045671Y-140080970D01*
X155022572Y-140089235D01*
X154998773Y-140095196D01*
X154974505Y-140098796D01*
X154950001Y-140100000D01*
X154049999Y-140100000D01*
X154025495Y-140098796D01*
X154001227Y-140095196D01*
X153977428Y-140089235D01*
X153954329Y-140080970D01*
X153932150Y-140070480D01*
X153911107Y-140057868D01*
X153891401Y-140043253D01*
X153873223Y-140026777D01*
X153856747Y-140008599D01*
X153842132Y-139988893D01*
X153829520Y-139967850D01*
X153819030Y-139945671D01*
X153810765Y-139922572D01*
X153804804Y-139898773D01*
X153801204Y-139874505D01*
X153800000Y-139850001D01*
X153800000Y-139199999D01*
X153801204Y-139175495D01*
X153804804Y-139151227D01*
X153810765Y-139127428D01*
X153819030Y-139104329D01*
X153829520Y-139082150D01*
X153842132Y-139061107D01*
X153856747Y-139041401D01*
X153873223Y-139023223D01*
X153891401Y-139006747D01*
X153911107Y-138992132D01*
X153932150Y-138979520D01*
X153954329Y-138969030D01*
X153977428Y-138960765D01*
X154001227Y-138954804D01*
X154025495Y-138951204D01*
X154049999Y-138950000D01*
X154950001Y-138950000D01*
X154974505Y-138951204D01*
G37*
G36*
X154974505Y-136901204D02*
G01*
X154998773Y-136904804D01*
X155022572Y-136910765D01*
X155045671Y-136919030D01*
X155067850Y-136929520D01*
X155088893Y-136942132D01*
X155108599Y-136956747D01*
X155126777Y-136973223D01*
X155143253Y-136991401D01*
X155157868Y-137011107D01*
X155170480Y-137032150D01*
X155180970Y-137054329D01*
X155189235Y-137077428D01*
X155195196Y-137101227D01*
X155198796Y-137125495D01*
X155200000Y-137149999D01*
X155200000Y-137800001D01*
X155198796Y-137824505D01*
X155195196Y-137848773D01*
X155189235Y-137872572D01*
X155180970Y-137895671D01*
X155170480Y-137917850D01*
X155157868Y-137938893D01*
X155143253Y-137958599D01*
X155126777Y-137976777D01*
X155108599Y-137993253D01*
X155088893Y-138007868D01*
X155067850Y-138020480D01*
X155045671Y-138030970D01*
X155022572Y-138039235D01*
X154998773Y-138045196D01*
X154974505Y-138048796D01*
X154950001Y-138050000D01*
X154049999Y-138050000D01*
X154025495Y-138048796D01*
X154001227Y-138045196D01*
X153977428Y-138039235D01*
X153954329Y-138030970D01*
X153932150Y-138020480D01*
X153911107Y-138007868D01*
X153891401Y-137993253D01*
X153873223Y-137976777D01*
X153856747Y-137958599D01*
X153842132Y-137938893D01*
X153829520Y-137917850D01*
X153819030Y-137895671D01*
X153810765Y-137872572D01*
X153804804Y-137848773D01*
X153801204Y-137824505D01*
X153800000Y-137800001D01*
X153800000Y-137149999D01*
X153801204Y-137125495D01*
X153804804Y-137101227D01*
X153810765Y-137077428D01*
X153819030Y-137054329D01*
X153829520Y-137032150D01*
X153842132Y-137011107D01*
X153856747Y-136991401D01*
X153873223Y-136973223D01*
X153891401Y-136956747D01*
X153911107Y-136942132D01*
X153932150Y-136929520D01*
X153954329Y-136919030D01*
X153977428Y-136910765D01*
X154001227Y-136904804D01*
X154025495Y-136901204D01*
X154049999Y-136900000D01*
X154950001Y-136900000D01*
X154974505Y-136901204D01*
G37*
G36*
X158474505Y-138951204D02*
G01*
X158498773Y-138954804D01*
X158522572Y-138960765D01*
X158545671Y-138969030D01*
X158567850Y-138979520D01*
X158588893Y-138992132D01*
X158608599Y-139006747D01*
X158626777Y-139023223D01*
X158643253Y-139041401D01*
X158657868Y-139061107D01*
X158670480Y-139082150D01*
X158680970Y-139104329D01*
X158689235Y-139127428D01*
X158695196Y-139151227D01*
X158698796Y-139175495D01*
X158700000Y-139199999D01*
X158700000Y-139850001D01*
X158698796Y-139874505D01*
X158695196Y-139898773D01*
X158689235Y-139922572D01*
X158680970Y-139945671D01*
X158670480Y-139967850D01*
X158657868Y-139988893D01*
X158643253Y-140008599D01*
X158626777Y-140026777D01*
X158608599Y-140043253D01*
X158588893Y-140057868D01*
X158567850Y-140070480D01*
X158545671Y-140080970D01*
X158522572Y-140089235D01*
X158498773Y-140095196D01*
X158474505Y-140098796D01*
X158450001Y-140100000D01*
X157549999Y-140100000D01*
X157525495Y-140098796D01*
X157501227Y-140095196D01*
X157477428Y-140089235D01*
X157454329Y-140080970D01*
X157432150Y-140070480D01*
X157411107Y-140057868D01*
X157391401Y-140043253D01*
X157373223Y-140026777D01*
X157356747Y-140008599D01*
X157342132Y-139988893D01*
X157329520Y-139967850D01*
X157319030Y-139945671D01*
X157310765Y-139922572D01*
X157304804Y-139898773D01*
X157301204Y-139874505D01*
X157300000Y-139850001D01*
X157300000Y-139199999D01*
X157301204Y-139175495D01*
X157304804Y-139151227D01*
X157310765Y-139127428D01*
X157319030Y-139104329D01*
X157329520Y-139082150D01*
X157342132Y-139061107D01*
X157356747Y-139041401D01*
X157373223Y-139023223D01*
X157391401Y-139006747D01*
X157411107Y-138992132D01*
X157432150Y-138979520D01*
X157454329Y-138969030D01*
X157477428Y-138960765D01*
X157501227Y-138954804D01*
X157525495Y-138951204D01*
X157549999Y-138950000D01*
X158450001Y-138950000D01*
X158474505Y-138951204D01*
G37*
G36*
X158474505Y-136901204D02*
G01*
X158498773Y-136904804D01*
X158522572Y-136910765D01*
X158545671Y-136919030D01*
X158567850Y-136929520D01*
X158588893Y-136942132D01*
X158608599Y-136956747D01*
X158626777Y-136973223D01*
X158643253Y-136991401D01*
X158657868Y-137011107D01*
X158670480Y-137032150D01*
X158680970Y-137054329D01*
X158689235Y-137077428D01*
X158695196Y-137101227D01*
X158698796Y-137125495D01*
X158700000Y-137149999D01*
X158700000Y-137800001D01*
X158698796Y-137824505D01*
X158695196Y-137848773D01*
X158689235Y-137872572D01*
X158680970Y-137895671D01*
X158670480Y-137917850D01*
X158657868Y-137938893D01*
X158643253Y-137958599D01*
X158626777Y-137976777D01*
X158608599Y-137993253D01*
X158588893Y-138007868D01*
X158567850Y-138020480D01*
X158545671Y-138030970D01*
X158522572Y-138039235D01*
X158498773Y-138045196D01*
X158474505Y-138048796D01*
X158450001Y-138050000D01*
X157549999Y-138050000D01*
X157525495Y-138048796D01*
X157501227Y-138045196D01*
X157477428Y-138039235D01*
X157454329Y-138030970D01*
X157432150Y-138020480D01*
X157411107Y-138007868D01*
X157391401Y-137993253D01*
X157373223Y-137976777D01*
X157356747Y-137958599D01*
X157342132Y-137938893D01*
X157329520Y-137917850D01*
X157319030Y-137895671D01*
X157310765Y-137872572D01*
X157304804Y-137848773D01*
X157301204Y-137824505D01*
X157300000Y-137800001D01*
X157300000Y-137149999D01*
X157301204Y-137125495D01*
X157304804Y-137101227D01*
X157310765Y-137077428D01*
X157319030Y-137054329D01*
X157329520Y-137032150D01*
X157342132Y-137011107D01*
X157356747Y-136991401D01*
X157373223Y-136973223D01*
X157391401Y-136956747D01*
X157411107Y-136942132D01*
X157432150Y-136929520D01*
X157454329Y-136919030D01*
X157477428Y-136910765D01*
X157501227Y-136904804D01*
X157525495Y-136901204D01*
X157549999Y-136900000D01*
X158450001Y-136900000D01*
X158474505Y-136901204D01*
G37*
G36*
X161974505Y-136901204D02*
G01*
X161998773Y-136904804D01*
X162022572Y-136910765D01*
X162045671Y-136919030D01*
X162067850Y-136929520D01*
X162088893Y-136942132D01*
X162108599Y-136956747D01*
X162126777Y-136973223D01*
X162143253Y-136991401D01*
X162157868Y-137011107D01*
X162170480Y-137032150D01*
X162180970Y-137054329D01*
X162189235Y-137077428D01*
X162195196Y-137101227D01*
X162198796Y-137125495D01*
X162200000Y-137149999D01*
X162200000Y-137800001D01*
X162198796Y-137824505D01*
X162195196Y-137848773D01*
X162189235Y-137872572D01*
X162180970Y-137895671D01*
X162170480Y-137917850D01*
X162157868Y-137938893D01*
X162143253Y-137958599D01*
X162126777Y-137976777D01*
X162108599Y-137993253D01*
X162088893Y-138007868D01*
X162067850Y-138020480D01*
X162045671Y-138030970D01*
X162022572Y-138039235D01*
X161998773Y-138045196D01*
X161974505Y-138048796D01*
X161950001Y-138050000D01*
X161049999Y-138050000D01*
X161025495Y-138048796D01*
X161001227Y-138045196D01*
X160977428Y-138039235D01*
X160954329Y-138030970D01*
X160932150Y-138020480D01*
X160911107Y-138007868D01*
X160891401Y-137993253D01*
X160873223Y-137976777D01*
X160856747Y-137958599D01*
X160842132Y-137938893D01*
X160829520Y-137917850D01*
X160819030Y-137895671D01*
X160810765Y-137872572D01*
X160804804Y-137848773D01*
X160801204Y-137824505D01*
X160800000Y-137800001D01*
X160800000Y-137149999D01*
X160801204Y-137125495D01*
X160804804Y-137101227D01*
X160810765Y-137077428D01*
X160819030Y-137054329D01*
X160829520Y-137032150D01*
X160842132Y-137011107D01*
X160856747Y-136991401D01*
X160873223Y-136973223D01*
X160891401Y-136956747D01*
X160911107Y-136942132D01*
X160932150Y-136929520D01*
X160954329Y-136919030D01*
X160977428Y-136910765D01*
X161001227Y-136904804D01*
X161025495Y-136901204D01*
X161049999Y-136900000D01*
X161950001Y-136900000D01*
X161974505Y-136901204D01*
G37*
G36*
X161974505Y-138951204D02*
G01*
X161998773Y-138954804D01*
X162022572Y-138960765D01*
X162045671Y-138969030D01*
X162067850Y-138979520D01*
X162088893Y-138992132D01*
X162108599Y-139006747D01*
X162126777Y-139023223D01*
X162143253Y-139041401D01*
X162157868Y-139061107D01*
X162170480Y-139082150D01*
X162180970Y-139104329D01*
X162189235Y-139127428D01*
X162195196Y-139151227D01*
X162198796Y-139175495D01*
X162200000Y-139199999D01*
X162200000Y-139850001D01*
X162198796Y-139874505D01*
X162195196Y-139898773D01*
X162189235Y-139922572D01*
X162180970Y-139945671D01*
X162170480Y-139967850D01*
X162157868Y-139988893D01*
X162143253Y-140008599D01*
X162126777Y-140026777D01*
X162108599Y-140043253D01*
X162088893Y-140057868D01*
X162067850Y-140070480D01*
X162045671Y-140080970D01*
X162022572Y-140089235D01*
X161998773Y-140095196D01*
X161974505Y-140098796D01*
X161950001Y-140100000D01*
X161049999Y-140100000D01*
X161025495Y-140098796D01*
X161001227Y-140095196D01*
X160977428Y-140089235D01*
X160954329Y-140080970D01*
X160932150Y-140070480D01*
X160911107Y-140057868D01*
X160891401Y-140043253D01*
X160873223Y-140026777D01*
X160856747Y-140008599D01*
X160842132Y-139988893D01*
X160829520Y-139967850D01*
X160819030Y-139945671D01*
X160810765Y-139922572D01*
X160804804Y-139898773D01*
X160801204Y-139874505D01*
X160800000Y-139850001D01*
X160800000Y-139199999D01*
X160801204Y-139175495D01*
X160804804Y-139151227D01*
X160810765Y-139127428D01*
X160819030Y-139104329D01*
X160829520Y-139082150D01*
X160842132Y-139061107D01*
X160856747Y-139041401D01*
X160873223Y-139023223D01*
X160891401Y-139006747D01*
X160911107Y-138992132D01*
X160932150Y-138979520D01*
X160954329Y-138969030D01*
X160977428Y-138960765D01*
X161001227Y-138954804D01*
X161025495Y-138951204D01*
X161049999Y-138950000D01*
X161950001Y-138950000D01*
X161974505Y-138951204D01*
G37*
G36*
X165474505Y-136901204D02*
G01*
X165498773Y-136904804D01*
X165522572Y-136910765D01*
X165545671Y-136919030D01*
X165567850Y-136929520D01*
X165588893Y-136942132D01*
X165608599Y-136956747D01*
X165626777Y-136973223D01*
X165643253Y-136991401D01*
X165657868Y-137011107D01*
X165670480Y-137032150D01*
X165680970Y-137054329D01*
X165689235Y-137077428D01*
X165695196Y-137101227D01*
X165698796Y-137125495D01*
X165700000Y-137149999D01*
X165700000Y-137800001D01*
X165698796Y-137824505D01*
X165695196Y-137848773D01*
X165689235Y-137872572D01*
X165680970Y-137895671D01*
X165670480Y-137917850D01*
X165657868Y-137938893D01*
X165643253Y-137958599D01*
X165626777Y-137976777D01*
X165608599Y-137993253D01*
X165588893Y-138007868D01*
X165567850Y-138020480D01*
X165545671Y-138030970D01*
X165522572Y-138039235D01*
X165498773Y-138045196D01*
X165474505Y-138048796D01*
X165450001Y-138050000D01*
X164549999Y-138050000D01*
X164525495Y-138048796D01*
X164501227Y-138045196D01*
X164477428Y-138039235D01*
X164454329Y-138030970D01*
X164432150Y-138020480D01*
X164411107Y-138007868D01*
X164391401Y-137993253D01*
X164373223Y-137976777D01*
X164356747Y-137958599D01*
X164342132Y-137938893D01*
X164329520Y-137917850D01*
X164319030Y-137895671D01*
X164310765Y-137872572D01*
X164304804Y-137848773D01*
X164301204Y-137824505D01*
X164300000Y-137800001D01*
X164300000Y-137149999D01*
X164301204Y-137125495D01*
X164304804Y-137101227D01*
X164310765Y-137077428D01*
X164319030Y-137054329D01*
X164329520Y-137032150D01*
X164342132Y-137011107D01*
X164356747Y-136991401D01*
X164373223Y-136973223D01*
X164391401Y-136956747D01*
X164411107Y-136942132D01*
X164432150Y-136929520D01*
X164454329Y-136919030D01*
X164477428Y-136910765D01*
X164501227Y-136904804D01*
X164525495Y-136901204D01*
X164549999Y-136900000D01*
X165450001Y-136900000D01*
X165474505Y-136901204D01*
G37*
G36*
X165474505Y-138951204D02*
G01*
X165498773Y-138954804D01*
X165522572Y-138960765D01*
X165545671Y-138969030D01*
X165567850Y-138979520D01*
X165588893Y-138992132D01*
X165608599Y-139006747D01*
X165626777Y-139023223D01*
X165643253Y-139041401D01*
X165657868Y-139061107D01*
X165670480Y-139082150D01*
X165680970Y-139104329D01*
X165689235Y-139127428D01*
X165695196Y-139151227D01*
X165698796Y-139175495D01*
X165700000Y-139199999D01*
X165700000Y-139850001D01*
X165698796Y-139874505D01*
X165695196Y-139898773D01*
X165689235Y-139922572D01*
X165680970Y-139945671D01*
X165670480Y-139967850D01*
X165657868Y-139988893D01*
X165643253Y-140008599D01*
X165626777Y-140026777D01*
X165608599Y-140043253D01*
X165588893Y-140057868D01*
X165567850Y-140070480D01*
X165545671Y-140080970D01*
X165522572Y-140089235D01*
X165498773Y-140095196D01*
X165474505Y-140098796D01*
X165450001Y-140100000D01*
X164549999Y-140100000D01*
X164525495Y-140098796D01*
X164501227Y-140095196D01*
X164477428Y-140089235D01*
X164454329Y-140080970D01*
X164432150Y-140070480D01*
X164411107Y-140057868D01*
X164391401Y-140043253D01*
X164373223Y-140026777D01*
X164356747Y-140008599D01*
X164342132Y-139988893D01*
X164329520Y-139967850D01*
X164319030Y-139945671D01*
X164310765Y-139922572D01*
X164304804Y-139898773D01*
X164301204Y-139874505D01*
X164300000Y-139850001D01*
X164300000Y-139199999D01*
X164301204Y-139175495D01*
X164304804Y-139151227D01*
X164310765Y-139127428D01*
X164319030Y-139104329D01*
X164329520Y-139082150D01*
X164342132Y-139061107D01*
X164356747Y-139041401D01*
X164373223Y-139023223D01*
X164391401Y-139006747D01*
X164411107Y-138992132D01*
X164432150Y-138979520D01*
X164454329Y-138969030D01*
X164477428Y-138960765D01*
X164501227Y-138954804D01*
X164525495Y-138951204D01*
X164549999Y-138950000D01*
X165450001Y-138950000D01*
X165474505Y-138951204D01*
G37*
G36*
X164224505Y-88901204D02*
G01*
X164248773Y-88904804D01*
X164272572Y-88910765D01*
X164295671Y-88919030D01*
X164317850Y-88929520D01*
X164338893Y-88942132D01*
X164358599Y-88956747D01*
X164376777Y-88973223D01*
X164393253Y-88991401D01*
X164407868Y-89011107D01*
X164420480Y-89032150D01*
X164430970Y-89054329D01*
X164439235Y-89077428D01*
X164445196Y-89101227D01*
X164448796Y-89125495D01*
X164450000Y-89149999D01*
X164450000Y-89800001D01*
X164448796Y-89824505D01*
X164445196Y-89848773D01*
X164439235Y-89872572D01*
X164430970Y-89895671D01*
X164420480Y-89917850D01*
X164407868Y-89938893D01*
X164393253Y-89958599D01*
X164376777Y-89976777D01*
X164358599Y-89993253D01*
X164338893Y-90007868D01*
X164317850Y-90020480D01*
X164295671Y-90030970D01*
X164272572Y-90039235D01*
X164248773Y-90045196D01*
X164224505Y-90048796D01*
X164200001Y-90050000D01*
X163299999Y-90050000D01*
X163275495Y-90048796D01*
X163251227Y-90045196D01*
X163227428Y-90039235D01*
X163204329Y-90030970D01*
X163182150Y-90020480D01*
X163161107Y-90007868D01*
X163141401Y-89993253D01*
X163123223Y-89976777D01*
X163106747Y-89958599D01*
X163092132Y-89938893D01*
X163079520Y-89917850D01*
X163069030Y-89895671D01*
X163060765Y-89872572D01*
X163054804Y-89848773D01*
X163051204Y-89824505D01*
X163050000Y-89800001D01*
X163050000Y-89149999D01*
X163051204Y-89125495D01*
X163054804Y-89101227D01*
X163060765Y-89077428D01*
X163069030Y-89054329D01*
X163079520Y-89032150D01*
X163092132Y-89011107D01*
X163106747Y-88991401D01*
X163123223Y-88973223D01*
X163141401Y-88956747D01*
X163161107Y-88942132D01*
X163182150Y-88929520D01*
X163204329Y-88919030D01*
X163227428Y-88910765D01*
X163251227Y-88904804D01*
X163275495Y-88901204D01*
X163299999Y-88900000D01*
X164200001Y-88900000D01*
X164224505Y-88901204D01*
G37*
G36*
X164224505Y-90951204D02*
G01*
X164248773Y-90954804D01*
X164272572Y-90960765D01*
X164295671Y-90969030D01*
X164317850Y-90979520D01*
X164338893Y-90992132D01*
X164358599Y-91006747D01*
X164376777Y-91023223D01*
X164393253Y-91041401D01*
X164407868Y-91061107D01*
X164420480Y-91082150D01*
X164430970Y-91104329D01*
X164439235Y-91127428D01*
X164445196Y-91151227D01*
X164448796Y-91175495D01*
X164450000Y-91199999D01*
X164450000Y-91850001D01*
X164448796Y-91874505D01*
X164445196Y-91898773D01*
X164439235Y-91922572D01*
X164430970Y-91945671D01*
X164420480Y-91967850D01*
X164407868Y-91988893D01*
X164393253Y-92008599D01*
X164376777Y-92026777D01*
X164358599Y-92043253D01*
X164338893Y-92057868D01*
X164317850Y-92070480D01*
X164295671Y-92080970D01*
X164272572Y-92089235D01*
X164248773Y-92095196D01*
X164224505Y-92098796D01*
X164200001Y-92100000D01*
X163299999Y-92100000D01*
X163275495Y-92098796D01*
X163251227Y-92095196D01*
X163227428Y-92089235D01*
X163204329Y-92080970D01*
X163182150Y-92070480D01*
X163161107Y-92057868D01*
X163141401Y-92043253D01*
X163123223Y-92026777D01*
X163106747Y-92008599D01*
X163092132Y-91988893D01*
X163079520Y-91967850D01*
X163069030Y-91945671D01*
X163060765Y-91922572D01*
X163054804Y-91898773D01*
X163051204Y-91874505D01*
X163050000Y-91850001D01*
X163050000Y-91199999D01*
X163051204Y-91175495D01*
X163054804Y-91151227D01*
X163060765Y-91127428D01*
X163069030Y-91104329D01*
X163079520Y-91082150D01*
X163092132Y-91061107D01*
X163106747Y-91041401D01*
X163123223Y-91023223D01*
X163141401Y-91006747D01*
X163161107Y-90992132D01*
X163182150Y-90979520D01*
X163204329Y-90969030D01*
X163227428Y-90960765D01*
X163251227Y-90954804D01*
X163275495Y-90951204D01*
X163299999Y-90950000D01*
X164200001Y-90950000D01*
X164224505Y-90951204D01*
G37*
G36*
X136824505Y-132801204D02*
G01*
X136848773Y-132804804D01*
X136872572Y-132810765D01*
X136895671Y-132819030D01*
X136917850Y-132829520D01*
X136938893Y-132842132D01*
X136958599Y-132856747D01*
X136976777Y-132873223D01*
X136993253Y-132891401D01*
X137007868Y-132911107D01*
X137020480Y-132932150D01*
X137030970Y-132954329D01*
X137039235Y-132977428D01*
X137045196Y-133001227D01*
X137048796Y-133025495D01*
X137050000Y-133049999D01*
X137050000Y-133950001D01*
X137048796Y-133974505D01*
X137045196Y-133998773D01*
X137039235Y-134022572D01*
X137030970Y-134045671D01*
X137020480Y-134067850D01*
X137007868Y-134088893D01*
X136993253Y-134108599D01*
X136976777Y-134126777D01*
X136958599Y-134143253D01*
X136938893Y-134157868D01*
X136917850Y-134170480D01*
X136895671Y-134180970D01*
X136872572Y-134189235D01*
X136848773Y-134195196D01*
X136824505Y-134198796D01*
X136800001Y-134200000D01*
X136149999Y-134200000D01*
X136125495Y-134198796D01*
X136101227Y-134195196D01*
X136077428Y-134189235D01*
X136054329Y-134180970D01*
X136032150Y-134170480D01*
X136011107Y-134157868D01*
X135991401Y-134143253D01*
X135973223Y-134126777D01*
X135956747Y-134108599D01*
X135942132Y-134088893D01*
X135929520Y-134067850D01*
X135919030Y-134045671D01*
X135910765Y-134022572D01*
X135904804Y-133998773D01*
X135901204Y-133974505D01*
X135900000Y-133950001D01*
X135900000Y-133049999D01*
X135901204Y-133025495D01*
X135904804Y-133001227D01*
X135910765Y-132977428D01*
X135919030Y-132954329D01*
X135929520Y-132932150D01*
X135942132Y-132911107D01*
X135956747Y-132891401D01*
X135973223Y-132873223D01*
X135991401Y-132856747D01*
X136011107Y-132842132D01*
X136032150Y-132829520D01*
X136054329Y-132819030D01*
X136077428Y-132810765D01*
X136101227Y-132804804D01*
X136125495Y-132801204D01*
X136149999Y-132800000D01*
X136800001Y-132800000D01*
X136824505Y-132801204D01*
G37*
G36*
X138874505Y-132801204D02*
G01*
X138898773Y-132804804D01*
X138922572Y-132810765D01*
X138945671Y-132819030D01*
X138967850Y-132829520D01*
X138988893Y-132842132D01*
X139008599Y-132856747D01*
X139026777Y-132873223D01*
X139043253Y-132891401D01*
X139057868Y-132911107D01*
X139070480Y-132932150D01*
X139080970Y-132954329D01*
X139089235Y-132977428D01*
X139095196Y-133001227D01*
X139098796Y-133025495D01*
X139100000Y-133049999D01*
X139100000Y-133950001D01*
X139098796Y-133974505D01*
X139095196Y-133998773D01*
X139089235Y-134022572D01*
X139080970Y-134045671D01*
X139070480Y-134067850D01*
X139057868Y-134088893D01*
X139043253Y-134108599D01*
X139026777Y-134126777D01*
X139008599Y-134143253D01*
X138988893Y-134157868D01*
X138967850Y-134170480D01*
X138945671Y-134180970D01*
X138922572Y-134189235D01*
X138898773Y-134195196D01*
X138874505Y-134198796D01*
X138850001Y-134200000D01*
X138199999Y-134200000D01*
X138175495Y-134198796D01*
X138151227Y-134195196D01*
X138127428Y-134189235D01*
X138104329Y-134180970D01*
X138082150Y-134170480D01*
X138061107Y-134157868D01*
X138041401Y-134143253D01*
X138023223Y-134126777D01*
X138006747Y-134108599D01*
X137992132Y-134088893D01*
X137979520Y-134067850D01*
X137969030Y-134045671D01*
X137960765Y-134022572D01*
X137954804Y-133998773D01*
X137951204Y-133974505D01*
X137950000Y-133950001D01*
X137950000Y-133049999D01*
X137951204Y-133025495D01*
X137954804Y-133001227D01*
X137960765Y-132977428D01*
X137969030Y-132954329D01*
X137979520Y-132932150D01*
X137992132Y-132911107D01*
X138006747Y-132891401D01*
X138023223Y-132873223D01*
X138041401Y-132856747D01*
X138061107Y-132842132D01*
X138082150Y-132829520D01*
X138104329Y-132819030D01*
X138127428Y-132810765D01*
X138151227Y-132804804D01*
X138175495Y-132801204D01*
X138199999Y-132800000D01*
X138850001Y-132800000D01*
X138874505Y-132801204D01*
G37*
G36*
X161224505Y-79951204D02*
G01*
X161248773Y-79954804D01*
X161272572Y-79960765D01*
X161295671Y-79969030D01*
X161317850Y-79979520D01*
X161338893Y-79992132D01*
X161358599Y-80006747D01*
X161376777Y-80023223D01*
X161393253Y-80041401D01*
X161407868Y-80061107D01*
X161420480Y-80082150D01*
X161430970Y-80104329D01*
X161439235Y-80127428D01*
X161445196Y-80151227D01*
X161448796Y-80175495D01*
X161450000Y-80199999D01*
X161450000Y-80850001D01*
X161448796Y-80874505D01*
X161445196Y-80898773D01*
X161439235Y-80922572D01*
X161430970Y-80945671D01*
X161420480Y-80967850D01*
X161407868Y-80988893D01*
X161393253Y-81008599D01*
X161376777Y-81026777D01*
X161358599Y-81043253D01*
X161338893Y-81057868D01*
X161317850Y-81070480D01*
X161295671Y-81080970D01*
X161272572Y-81089235D01*
X161248773Y-81095196D01*
X161224505Y-81098796D01*
X161200001Y-81100000D01*
X160299999Y-81100000D01*
X160275495Y-81098796D01*
X160251227Y-81095196D01*
X160227428Y-81089235D01*
X160204329Y-81080970D01*
X160182150Y-81070480D01*
X160161107Y-81057868D01*
X160141401Y-81043253D01*
X160123223Y-81026777D01*
X160106747Y-81008599D01*
X160092132Y-80988893D01*
X160079520Y-80967850D01*
X160069030Y-80945671D01*
X160060765Y-80922572D01*
X160054804Y-80898773D01*
X160051204Y-80874505D01*
X160050000Y-80850001D01*
X160050000Y-80199999D01*
X160051204Y-80175495D01*
X160054804Y-80151227D01*
X160060765Y-80127428D01*
X160069030Y-80104329D01*
X160079520Y-80082150D01*
X160092132Y-80061107D01*
X160106747Y-80041401D01*
X160123223Y-80023223D01*
X160141401Y-80006747D01*
X160161107Y-79992132D01*
X160182150Y-79979520D01*
X160204329Y-79969030D01*
X160227428Y-79960765D01*
X160251227Y-79954804D01*
X160275495Y-79951204D01*
X160299999Y-79950000D01*
X161200001Y-79950000D01*
X161224505Y-79951204D01*
G37*
G36*
X161224505Y-77901204D02*
G01*
X161248773Y-77904804D01*
X161272572Y-77910765D01*
X161295671Y-77919030D01*
X161317850Y-77929520D01*
X161338893Y-77942132D01*
X161358599Y-77956747D01*
X161376777Y-77973223D01*
X161393253Y-77991401D01*
X161407868Y-78011107D01*
X161420480Y-78032150D01*
X161430970Y-78054329D01*
X161439235Y-78077428D01*
X161445196Y-78101227D01*
X161448796Y-78125495D01*
X161450000Y-78149999D01*
X161450000Y-78800001D01*
X161448796Y-78824505D01*
X161445196Y-78848773D01*
X161439235Y-78872572D01*
X161430970Y-78895671D01*
X161420480Y-78917850D01*
X161407868Y-78938893D01*
X161393253Y-78958599D01*
X161376777Y-78976777D01*
X161358599Y-78993253D01*
X161338893Y-79007868D01*
X161317850Y-79020480D01*
X161295671Y-79030970D01*
X161272572Y-79039235D01*
X161248773Y-79045196D01*
X161224505Y-79048796D01*
X161200001Y-79050000D01*
X160299999Y-79050000D01*
X160275495Y-79048796D01*
X160251227Y-79045196D01*
X160227428Y-79039235D01*
X160204329Y-79030970D01*
X160182150Y-79020480D01*
X160161107Y-79007868D01*
X160141401Y-78993253D01*
X160123223Y-78976777D01*
X160106747Y-78958599D01*
X160092132Y-78938893D01*
X160079520Y-78917850D01*
X160069030Y-78895671D01*
X160060765Y-78872572D01*
X160054804Y-78848773D01*
X160051204Y-78824505D01*
X160050000Y-78800001D01*
X160050000Y-78149999D01*
X160051204Y-78125495D01*
X160054804Y-78101227D01*
X160060765Y-78077428D01*
X160069030Y-78054329D01*
X160079520Y-78032150D01*
X160092132Y-78011107D01*
X160106747Y-77991401D01*
X160123223Y-77973223D01*
X160141401Y-77956747D01*
X160161107Y-77942132D01*
X160182150Y-77929520D01*
X160204329Y-77919030D01*
X160227428Y-77910765D01*
X160251227Y-77904804D01*
X160275495Y-77901204D01*
X160299999Y-77900000D01*
X161200001Y-77900000D01*
X161224505Y-77901204D01*
G37*
G36*
X157224505Y-79951204D02*
G01*
X157248773Y-79954804D01*
X157272572Y-79960765D01*
X157295671Y-79969030D01*
X157317850Y-79979520D01*
X157338893Y-79992132D01*
X157358599Y-80006747D01*
X157376777Y-80023223D01*
X157393253Y-80041401D01*
X157407868Y-80061107D01*
X157420480Y-80082150D01*
X157430970Y-80104329D01*
X157439235Y-80127428D01*
X157445196Y-80151227D01*
X157448796Y-80175495D01*
X157450000Y-80199999D01*
X157450000Y-80850001D01*
X157448796Y-80874505D01*
X157445196Y-80898773D01*
X157439235Y-80922572D01*
X157430970Y-80945671D01*
X157420480Y-80967850D01*
X157407868Y-80988893D01*
X157393253Y-81008599D01*
X157376777Y-81026777D01*
X157358599Y-81043253D01*
X157338893Y-81057868D01*
X157317850Y-81070480D01*
X157295671Y-81080970D01*
X157272572Y-81089235D01*
X157248773Y-81095196D01*
X157224505Y-81098796D01*
X157200001Y-81100000D01*
X156299999Y-81100000D01*
X156275495Y-81098796D01*
X156251227Y-81095196D01*
X156227428Y-81089235D01*
X156204329Y-81080970D01*
X156182150Y-81070480D01*
X156161107Y-81057868D01*
X156141401Y-81043253D01*
X156123223Y-81026777D01*
X156106747Y-81008599D01*
X156092132Y-80988893D01*
X156079520Y-80967850D01*
X156069030Y-80945671D01*
X156060765Y-80922572D01*
X156054804Y-80898773D01*
X156051204Y-80874505D01*
X156050000Y-80850001D01*
X156050000Y-80199999D01*
X156051204Y-80175495D01*
X156054804Y-80151227D01*
X156060765Y-80127428D01*
X156069030Y-80104329D01*
X156079520Y-80082150D01*
X156092132Y-80061107D01*
X156106747Y-80041401D01*
X156123223Y-80023223D01*
X156141401Y-80006747D01*
X156161107Y-79992132D01*
X156182150Y-79979520D01*
X156204329Y-79969030D01*
X156227428Y-79960765D01*
X156251227Y-79954804D01*
X156275495Y-79951204D01*
X156299999Y-79950000D01*
X157200001Y-79950000D01*
X157224505Y-79951204D01*
G37*
G36*
X157224505Y-77901204D02*
G01*
X157248773Y-77904804D01*
X157272572Y-77910765D01*
X157295671Y-77919030D01*
X157317850Y-77929520D01*
X157338893Y-77942132D01*
X157358599Y-77956747D01*
X157376777Y-77973223D01*
X157393253Y-77991401D01*
X157407868Y-78011107D01*
X157420480Y-78032150D01*
X157430970Y-78054329D01*
X157439235Y-78077428D01*
X157445196Y-78101227D01*
X157448796Y-78125495D01*
X157450000Y-78149999D01*
X157450000Y-78800001D01*
X157448796Y-78824505D01*
X157445196Y-78848773D01*
X157439235Y-78872572D01*
X157430970Y-78895671D01*
X157420480Y-78917850D01*
X157407868Y-78938893D01*
X157393253Y-78958599D01*
X157376777Y-78976777D01*
X157358599Y-78993253D01*
X157338893Y-79007868D01*
X157317850Y-79020480D01*
X157295671Y-79030970D01*
X157272572Y-79039235D01*
X157248773Y-79045196D01*
X157224505Y-79048796D01*
X157200001Y-79050000D01*
X156299999Y-79050000D01*
X156275495Y-79048796D01*
X156251227Y-79045196D01*
X156227428Y-79039235D01*
X156204329Y-79030970D01*
X156182150Y-79020480D01*
X156161107Y-79007868D01*
X156141401Y-78993253D01*
X156123223Y-78976777D01*
X156106747Y-78958599D01*
X156092132Y-78938893D01*
X156079520Y-78917850D01*
X156069030Y-78895671D01*
X156060765Y-78872572D01*
X156054804Y-78848773D01*
X156051204Y-78824505D01*
X156050000Y-78800001D01*
X156050000Y-78149999D01*
X156051204Y-78125495D01*
X156054804Y-78101227D01*
X156060765Y-78077428D01*
X156069030Y-78054329D01*
X156079520Y-78032150D01*
X156092132Y-78011107D01*
X156106747Y-77991401D01*
X156123223Y-77973223D01*
X156141401Y-77956747D01*
X156161107Y-77942132D01*
X156182150Y-77929520D01*
X156204329Y-77919030D01*
X156227428Y-77910765D01*
X156251227Y-77904804D01*
X156275495Y-77901204D01*
X156299999Y-77900000D01*
X157200001Y-77900000D01*
X157224505Y-77901204D01*
G37*
G36*
X169224505Y-77876204D02*
G01*
X169248773Y-77879804D01*
X169272572Y-77885765D01*
X169295671Y-77894030D01*
X169317850Y-77904520D01*
X169338893Y-77917132D01*
X169358599Y-77931747D01*
X169376777Y-77948223D01*
X169393253Y-77966401D01*
X169407868Y-77986107D01*
X169420480Y-78007150D01*
X169430970Y-78029329D01*
X169439235Y-78052428D01*
X169445196Y-78076227D01*
X169448796Y-78100495D01*
X169450000Y-78124999D01*
X169450000Y-78775001D01*
X169448796Y-78799505D01*
X169445196Y-78823773D01*
X169439235Y-78847572D01*
X169430970Y-78870671D01*
X169420480Y-78892850D01*
X169407868Y-78913893D01*
X169393253Y-78933599D01*
X169376777Y-78951777D01*
X169358599Y-78968253D01*
X169338893Y-78982868D01*
X169317850Y-78995480D01*
X169295671Y-79005970D01*
X169272572Y-79014235D01*
X169248773Y-79020196D01*
X169224505Y-79023796D01*
X169200001Y-79025000D01*
X168299999Y-79025000D01*
X168275495Y-79023796D01*
X168251227Y-79020196D01*
X168227428Y-79014235D01*
X168204329Y-79005970D01*
X168182150Y-78995480D01*
X168161107Y-78982868D01*
X168141401Y-78968253D01*
X168123223Y-78951777D01*
X168106747Y-78933599D01*
X168092132Y-78913893D01*
X168079520Y-78892850D01*
X168069030Y-78870671D01*
X168060765Y-78847572D01*
X168054804Y-78823773D01*
X168051204Y-78799505D01*
X168050000Y-78775001D01*
X168050000Y-78124999D01*
X168051204Y-78100495D01*
X168054804Y-78076227D01*
X168060765Y-78052428D01*
X168069030Y-78029329D01*
X168079520Y-78007150D01*
X168092132Y-77986107D01*
X168106747Y-77966401D01*
X168123223Y-77948223D01*
X168141401Y-77931747D01*
X168161107Y-77917132D01*
X168182150Y-77904520D01*
X168204329Y-77894030D01*
X168227428Y-77885765D01*
X168251227Y-77879804D01*
X168275495Y-77876204D01*
X168299999Y-77875000D01*
X169200001Y-77875000D01*
X169224505Y-77876204D01*
G37*
G36*
X169224505Y-79926204D02*
G01*
X169248773Y-79929804D01*
X169272572Y-79935765D01*
X169295671Y-79944030D01*
X169317850Y-79954520D01*
X169338893Y-79967132D01*
X169358599Y-79981747D01*
X169376777Y-79998223D01*
X169393253Y-80016401D01*
X169407868Y-80036107D01*
X169420480Y-80057150D01*
X169430970Y-80079329D01*
X169439235Y-80102428D01*
X169445196Y-80126227D01*
X169448796Y-80150495D01*
X169450000Y-80174999D01*
X169450000Y-80825001D01*
X169448796Y-80849505D01*
X169445196Y-80873773D01*
X169439235Y-80897572D01*
X169430970Y-80920671D01*
X169420480Y-80942850D01*
X169407868Y-80963893D01*
X169393253Y-80983599D01*
X169376777Y-81001777D01*
X169358599Y-81018253D01*
X169338893Y-81032868D01*
X169317850Y-81045480D01*
X169295671Y-81055970D01*
X169272572Y-81064235D01*
X169248773Y-81070196D01*
X169224505Y-81073796D01*
X169200001Y-81075000D01*
X168299999Y-81075000D01*
X168275495Y-81073796D01*
X168251227Y-81070196D01*
X168227428Y-81064235D01*
X168204329Y-81055970D01*
X168182150Y-81045480D01*
X168161107Y-81032868D01*
X168141401Y-81018253D01*
X168123223Y-81001777D01*
X168106747Y-80983599D01*
X168092132Y-80963893D01*
X168079520Y-80942850D01*
X168069030Y-80920671D01*
X168060765Y-80897572D01*
X168054804Y-80873773D01*
X168051204Y-80849505D01*
X168050000Y-80825001D01*
X168050000Y-80174999D01*
X168051204Y-80150495D01*
X168054804Y-80126227D01*
X168060765Y-80102428D01*
X168069030Y-80079329D01*
X168079520Y-80057150D01*
X168092132Y-80036107D01*
X168106747Y-80016401D01*
X168123223Y-79998223D01*
X168141401Y-79981747D01*
X168161107Y-79967132D01*
X168182150Y-79954520D01*
X168204329Y-79944030D01*
X168227428Y-79935765D01*
X168251227Y-79929804D01*
X168275495Y-79926204D01*
X168299999Y-79925000D01*
X169200001Y-79925000D01*
X169224505Y-79926204D01*
G37*
G36*
X165224505Y-77901204D02*
G01*
X165248773Y-77904804D01*
X165272572Y-77910765D01*
X165295671Y-77919030D01*
X165317850Y-77929520D01*
X165338893Y-77942132D01*
X165358599Y-77956747D01*
X165376777Y-77973223D01*
X165393253Y-77991401D01*
X165407868Y-78011107D01*
X165420480Y-78032150D01*
X165430970Y-78054329D01*
X165439235Y-78077428D01*
X165445196Y-78101227D01*
X165448796Y-78125495D01*
X165450000Y-78149999D01*
X165450000Y-78800001D01*
X165448796Y-78824505D01*
X165445196Y-78848773D01*
X165439235Y-78872572D01*
X165430970Y-78895671D01*
X165420480Y-78917850D01*
X165407868Y-78938893D01*
X165393253Y-78958599D01*
X165376777Y-78976777D01*
X165358599Y-78993253D01*
X165338893Y-79007868D01*
X165317850Y-79020480D01*
X165295671Y-79030970D01*
X165272572Y-79039235D01*
X165248773Y-79045196D01*
X165224505Y-79048796D01*
X165200001Y-79050000D01*
X164299999Y-79050000D01*
X164275495Y-79048796D01*
X164251227Y-79045196D01*
X164227428Y-79039235D01*
X164204329Y-79030970D01*
X164182150Y-79020480D01*
X164161107Y-79007868D01*
X164141401Y-78993253D01*
X164123223Y-78976777D01*
X164106747Y-78958599D01*
X164092132Y-78938893D01*
X164079520Y-78917850D01*
X164069030Y-78895671D01*
X164060765Y-78872572D01*
X164054804Y-78848773D01*
X164051204Y-78824505D01*
X164050000Y-78800001D01*
X164050000Y-78149999D01*
X164051204Y-78125495D01*
X164054804Y-78101227D01*
X164060765Y-78077428D01*
X164069030Y-78054329D01*
X164079520Y-78032150D01*
X164092132Y-78011107D01*
X164106747Y-77991401D01*
X164123223Y-77973223D01*
X164141401Y-77956747D01*
X164161107Y-77942132D01*
X164182150Y-77929520D01*
X164204329Y-77919030D01*
X164227428Y-77910765D01*
X164251227Y-77904804D01*
X164275495Y-77901204D01*
X164299999Y-77900000D01*
X165200001Y-77900000D01*
X165224505Y-77901204D01*
G37*
G36*
X165224505Y-79951204D02*
G01*
X165248773Y-79954804D01*
X165272572Y-79960765D01*
X165295671Y-79969030D01*
X165317850Y-79979520D01*
X165338893Y-79992132D01*
X165358599Y-80006747D01*
X165376777Y-80023223D01*
X165393253Y-80041401D01*
X165407868Y-80061107D01*
X165420480Y-80082150D01*
X165430970Y-80104329D01*
X165439235Y-80127428D01*
X165445196Y-80151227D01*
X165448796Y-80175495D01*
X165450000Y-80199999D01*
X165450000Y-80850001D01*
X165448796Y-80874505D01*
X165445196Y-80898773D01*
X165439235Y-80922572D01*
X165430970Y-80945671D01*
X165420480Y-80967850D01*
X165407868Y-80988893D01*
X165393253Y-81008599D01*
X165376777Y-81026777D01*
X165358599Y-81043253D01*
X165338893Y-81057868D01*
X165317850Y-81070480D01*
X165295671Y-81080970D01*
X165272572Y-81089235D01*
X165248773Y-81095196D01*
X165224505Y-81098796D01*
X165200001Y-81100000D01*
X164299999Y-81100000D01*
X164275495Y-81098796D01*
X164251227Y-81095196D01*
X164227428Y-81089235D01*
X164204329Y-81080970D01*
X164182150Y-81070480D01*
X164161107Y-81057868D01*
X164141401Y-81043253D01*
X164123223Y-81026777D01*
X164106747Y-81008599D01*
X164092132Y-80988893D01*
X164079520Y-80967850D01*
X164069030Y-80945671D01*
X164060765Y-80922572D01*
X164054804Y-80898773D01*
X164051204Y-80874505D01*
X164050000Y-80850001D01*
X164050000Y-80199999D01*
X164051204Y-80175495D01*
X164054804Y-80151227D01*
X164060765Y-80127428D01*
X164069030Y-80104329D01*
X164079520Y-80082150D01*
X164092132Y-80061107D01*
X164106747Y-80041401D01*
X164123223Y-80023223D01*
X164141401Y-80006747D01*
X164161107Y-79992132D01*
X164182150Y-79979520D01*
X164204329Y-79969030D01*
X164227428Y-79960765D01*
X164251227Y-79954804D01*
X164275495Y-79951204D01*
X164299999Y-79950000D01*
X165200001Y-79950000D01*
X165224505Y-79951204D01*
G37*
G36*
X166974505Y-90951204D02*
G01*
X166998773Y-90954804D01*
X167022572Y-90960765D01*
X167045671Y-90969030D01*
X167067850Y-90979520D01*
X167088893Y-90992132D01*
X167108599Y-91006747D01*
X167126777Y-91023223D01*
X167143253Y-91041401D01*
X167157868Y-91061107D01*
X167170480Y-91082150D01*
X167180970Y-91104329D01*
X167189235Y-91127428D01*
X167195196Y-91151227D01*
X167198796Y-91175495D01*
X167200000Y-91199999D01*
X167200000Y-91850001D01*
X167198796Y-91874505D01*
X167195196Y-91898773D01*
X167189235Y-91922572D01*
X167180970Y-91945671D01*
X167170480Y-91967850D01*
X167157868Y-91988893D01*
X167143253Y-92008599D01*
X167126777Y-92026777D01*
X167108599Y-92043253D01*
X167088893Y-92057868D01*
X167067850Y-92070480D01*
X167045671Y-92080970D01*
X167022572Y-92089235D01*
X166998773Y-92095196D01*
X166974505Y-92098796D01*
X166950001Y-92100000D01*
X166049999Y-92100000D01*
X166025495Y-92098796D01*
X166001227Y-92095196D01*
X165977428Y-92089235D01*
X165954329Y-92080970D01*
X165932150Y-92070480D01*
X165911107Y-92057868D01*
X165891401Y-92043253D01*
X165873223Y-92026777D01*
X165856747Y-92008599D01*
X165842132Y-91988893D01*
X165829520Y-91967850D01*
X165819030Y-91945671D01*
X165810765Y-91922572D01*
X165804804Y-91898773D01*
X165801204Y-91874505D01*
X165800000Y-91850001D01*
X165800000Y-91199999D01*
X165801204Y-91175495D01*
X165804804Y-91151227D01*
X165810765Y-91127428D01*
X165819030Y-91104329D01*
X165829520Y-91082150D01*
X165842132Y-91061107D01*
X165856747Y-91041401D01*
X165873223Y-91023223D01*
X165891401Y-91006747D01*
X165911107Y-90992132D01*
X165932150Y-90979520D01*
X165954329Y-90969030D01*
X165977428Y-90960765D01*
X166001227Y-90954804D01*
X166025495Y-90951204D01*
X166049999Y-90950000D01*
X166950001Y-90950000D01*
X166974505Y-90951204D01*
G37*
G36*
X166974505Y-88901204D02*
G01*
X166998773Y-88904804D01*
X167022572Y-88910765D01*
X167045671Y-88919030D01*
X167067850Y-88929520D01*
X167088893Y-88942132D01*
X167108599Y-88956747D01*
X167126777Y-88973223D01*
X167143253Y-88991401D01*
X167157868Y-89011107D01*
X167170480Y-89032150D01*
X167180970Y-89054329D01*
X167189235Y-89077428D01*
X167195196Y-89101227D01*
X167198796Y-89125495D01*
X167200000Y-89149999D01*
X167200000Y-89800001D01*
X167198796Y-89824505D01*
X167195196Y-89848773D01*
X167189235Y-89872572D01*
X167180970Y-89895671D01*
X167170480Y-89917850D01*
X167157868Y-89938893D01*
X167143253Y-89958599D01*
X167126777Y-89976777D01*
X167108599Y-89993253D01*
X167088893Y-90007868D01*
X167067850Y-90020480D01*
X167045671Y-90030970D01*
X167022572Y-90039235D01*
X166998773Y-90045196D01*
X166974505Y-90048796D01*
X166950001Y-90050000D01*
X166049999Y-90050000D01*
X166025495Y-90048796D01*
X166001227Y-90045196D01*
X165977428Y-90039235D01*
X165954329Y-90030970D01*
X165932150Y-90020480D01*
X165911107Y-90007868D01*
X165891401Y-89993253D01*
X165873223Y-89976777D01*
X165856747Y-89958599D01*
X165842132Y-89938893D01*
X165829520Y-89917850D01*
X165819030Y-89895671D01*
X165810765Y-89872572D01*
X165804804Y-89848773D01*
X165801204Y-89824505D01*
X165800000Y-89800001D01*
X165800000Y-89149999D01*
X165801204Y-89125495D01*
X165804804Y-89101227D01*
X165810765Y-89077428D01*
X165819030Y-89054329D01*
X165829520Y-89032150D01*
X165842132Y-89011107D01*
X165856747Y-88991401D01*
X165873223Y-88973223D01*
X165891401Y-88956747D01*
X165911107Y-88942132D01*
X165932150Y-88929520D01*
X165954329Y-88919030D01*
X165977428Y-88910765D01*
X166001227Y-88904804D01*
X166025495Y-88901204D01*
X166049999Y-88900000D01*
X166950001Y-88900000D01*
X166974505Y-88901204D01*
G37*
G36*
X138874505Y-130551204D02*
G01*
X138898773Y-130554804D01*
X138922572Y-130560765D01*
X138945671Y-130569030D01*
X138967850Y-130579520D01*
X138988893Y-130592132D01*
X139008599Y-130606747D01*
X139026777Y-130623223D01*
X139043253Y-130641401D01*
X139057868Y-130661107D01*
X139070480Y-130682150D01*
X139080970Y-130704329D01*
X139089235Y-130727428D01*
X139095196Y-130751227D01*
X139098796Y-130775495D01*
X139100000Y-130799999D01*
X139100000Y-131700001D01*
X139098796Y-131724505D01*
X139095196Y-131748773D01*
X139089235Y-131772572D01*
X139080970Y-131795671D01*
X139070480Y-131817850D01*
X139057868Y-131838893D01*
X139043253Y-131858599D01*
X139026777Y-131876777D01*
X139008599Y-131893253D01*
X138988893Y-131907868D01*
X138967850Y-131920480D01*
X138945671Y-131930970D01*
X138922572Y-131939235D01*
X138898773Y-131945196D01*
X138874505Y-131948796D01*
X138850001Y-131950000D01*
X138199999Y-131950000D01*
X138175495Y-131948796D01*
X138151227Y-131945196D01*
X138127428Y-131939235D01*
X138104329Y-131930970D01*
X138082150Y-131920480D01*
X138061107Y-131907868D01*
X138041401Y-131893253D01*
X138023223Y-131876777D01*
X138006747Y-131858599D01*
X137992132Y-131838893D01*
X137979520Y-131817850D01*
X137969030Y-131795671D01*
X137960765Y-131772572D01*
X137954804Y-131748773D01*
X137951204Y-131724505D01*
X137950000Y-131700001D01*
X137950000Y-130799999D01*
X137951204Y-130775495D01*
X137954804Y-130751227D01*
X137960765Y-130727428D01*
X137969030Y-130704329D01*
X137979520Y-130682150D01*
X137992132Y-130661107D01*
X138006747Y-130641401D01*
X138023223Y-130623223D01*
X138041401Y-130606747D01*
X138061107Y-130592132D01*
X138082150Y-130579520D01*
X138104329Y-130569030D01*
X138127428Y-130560765D01*
X138151227Y-130554804D01*
X138175495Y-130551204D01*
X138199999Y-130550000D01*
X138850001Y-130550000D01*
X138874505Y-130551204D01*
G37*
G36*
X136824505Y-130551204D02*
G01*
X136848773Y-130554804D01*
X136872572Y-130560765D01*
X136895671Y-130569030D01*
X136917850Y-130579520D01*
X136938893Y-130592132D01*
X136958599Y-130606747D01*
X136976777Y-130623223D01*
X136993253Y-130641401D01*
X137007868Y-130661107D01*
X137020480Y-130682150D01*
X137030970Y-130704329D01*
X137039235Y-130727428D01*
X137045196Y-130751227D01*
X137048796Y-130775495D01*
X137050000Y-130799999D01*
X137050000Y-131700001D01*
X137048796Y-131724505D01*
X137045196Y-131748773D01*
X137039235Y-131772572D01*
X137030970Y-131795671D01*
X137020480Y-131817850D01*
X137007868Y-131838893D01*
X136993253Y-131858599D01*
X136976777Y-131876777D01*
X136958599Y-131893253D01*
X136938893Y-131907868D01*
X136917850Y-131920480D01*
X136895671Y-131930970D01*
X136872572Y-131939235D01*
X136848773Y-131945196D01*
X136824505Y-131948796D01*
X136800001Y-131950000D01*
X136149999Y-131950000D01*
X136125495Y-131948796D01*
X136101227Y-131945196D01*
X136077428Y-131939235D01*
X136054329Y-131930970D01*
X136032150Y-131920480D01*
X136011107Y-131907868D01*
X135991401Y-131893253D01*
X135973223Y-131876777D01*
X135956747Y-131858599D01*
X135942132Y-131838893D01*
X135929520Y-131817850D01*
X135919030Y-131795671D01*
X135910765Y-131772572D01*
X135904804Y-131748773D01*
X135901204Y-131724505D01*
X135900000Y-131700001D01*
X135900000Y-130799999D01*
X135901204Y-130775495D01*
X135904804Y-130751227D01*
X135910765Y-130727428D01*
X135919030Y-130704329D01*
X135929520Y-130682150D01*
X135942132Y-130661107D01*
X135956747Y-130641401D01*
X135973223Y-130623223D01*
X135991401Y-130606747D01*
X136011107Y-130592132D01*
X136032150Y-130579520D01*
X136054329Y-130569030D01*
X136077428Y-130560765D01*
X136101227Y-130554804D01*
X136125495Y-130551204D01*
X136149999Y-130550000D01*
X136800001Y-130550000D01*
X136824505Y-130551204D01*
G37*
G36*
X157974505Y-114451204D02*
G01*
X157998773Y-114454804D01*
X158022572Y-114460765D01*
X158045671Y-114469030D01*
X158067850Y-114479520D01*
X158088893Y-114492132D01*
X158108599Y-114506747D01*
X158126777Y-114523223D01*
X158143253Y-114541401D01*
X158157868Y-114561107D01*
X158170480Y-114582150D01*
X158180970Y-114604329D01*
X158189235Y-114627428D01*
X158195196Y-114651227D01*
X158198796Y-114675495D01*
X158200000Y-114699999D01*
X158200000Y-115350001D01*
X158198796Y-115374505D01*
X158195196Y-115398773D01*
X158189235Y-115422572D01*
X158180970Y-115445671D01*
X158170480Y-115467850D01*
X158157868Y-115488893D01*
X158143253Y-115508599D01*
X158126777Y-115526777D01*
X158108599Y-115543253D01*
X158088893Y-115557868D01*
X158067850Y-115570480D01*
X158045671Y-115580970D01*
X158022572Y-115589235D01*
X157998773Y-115595196D01*
X157974505Y-115598796D01*
X157950001Y-115600000D01*
X157049999Y-115600000D01*
X157025495Y-115598796D01*
X157001227Y-115595196D01*
X156977428Y-115589235D01*
X156954329Y-115580970D01*
X156932150Y-115570480D01*
X156911107Y-115557868D01*
X156891401Y-115543253D01*
X156873223Y-115526777D01*
X156856747Y-115508599D01*
X156842132Y-115488893D01*
X156829520Y-115467850D01*
X156819030Y-115445671D01*
X156810765Y-115422572D01*
X156804804Y-115398773D01*
X156801204Y-115374505D01*
X156800000Y-115350001D01*
X156800000Y-114699999D01*
X156801204Y-114675495D01*
X156804804Y-114651227D01*
X156810765Y-114627428D01*
X156819030Y-114604329D01*
X156829520Y-114582150D01*
X156842132Y-114561107D01*
X156856747Y-114541401D01*
X156873223Y-114523223D01*
X156891401Y-114506747D01*
X156911107Y-114492132D01*
X156932150Y-114479520D01*
X156954329Y-114469030D01*
X156977428Y-114460765D01*
X157001227Y-114454804D01*
X157025495Y-114451204D01*
X157049999Y-114450000D01*
X157950001Y-114450000D01*
X157974505Y-114451204D01*
G37*
G36*
X157974505Y-112401204D02*
G01*
X157998773Y-112404804D01*
X158022572Y-112410765D01*
X158045671Y-112419030D01*
X158067850Y-112429520D01*
X158088893Y-112442132D01*
X158108599Y-112456747D01*
X158126777Y-112473223D01*
X158143253Y-112491401D01*
X158157868Y-112511107D01*
X158170480Y-112532150D01*
X158180970Y-112554329D01*
X158189235Y-112577428D01*
X158195196Y-112601227D01*
X158198796Y-112625495D01*
X158200000Y-112649999D01*
X158200000Y-113300001D01*
X158198796Y-113324505D01*
X158195196Y-113348773D01*
X158189235Y-113372572D01*
X158180970Y-113395671D01*
X158170480Y-113417850D01*
X158157868Y-113438893D01*
X158143253Y-113458599D01*
X158126777Y-113476777D01*
X158108599Y-113493253D01*
X158088893Y-113507868D01*
X158067850Y-113520480D01*
X158045671Y-113530970D01*
X158022572Y-113539235D01*
X157998773Y-113545196D01*
X157974505Y-113548796D01*
X157950001Y-113550000D01*
X157049999Y-113550000D01*
X157025495Y-113548796D01*
X157001227Y-113545196D01*
X156977428Y-113539235D01*
X156954329Y-113530970D01*
X156932150Y-113520480D01*
X156911107Y-113507868D01*
X156891401Y-113493253D01*
X156873223Y-113476777D01*
X156856747Y-113458599D01*
X156842132Y-113438893D01*
X156829520Y-113417850D01*
X156819030Y-113395671D01*
X156810765Y-113372572D01*
X156804804Y-113348773D01*
X156801204Y-113324505D01*
X156800000Y-113300001D01*
X156800000Y-112649999D01*
X156801204Y-112625495D01*
X156804804Y-112601227D01*
X156810765Y-112577428D01*
X156819030Y-112554329D01*
X156829520Y-112532150D01*
X156842132Y-112511107D01*
X156856747Y-112491401D01*
X156873223Y-112473223D01*
X156891401Y-112456747D01*
X156911107Y-112442132D01*
X156932150Y-112429520D01*
X156954329Y-112419030D01*
X156977428Y-112410765D01*
X157001227Y-112404804D01*
X157025495Y-112401204D01*
X157049999Y-112400000D01*
X157950001Y-112400000D01*
X157974505Y-112401204D01*
G37*
D23*
X156500000Y-134880000D03*
X159040000Y-134880000D03*
X161580000Y-134880000D03*
X164120000Y-134880000D03*
X164120000Y-142500000D03*
X161580000Y-142500000D03*
X159040000Y-142500000D03*
D20*
X156500000Y-142500000D03*
D15*
G36*
X168749504Y-116151204D02*
G01*
X168773773Y-116154804D01*
X168797571Y-116160765D01*
X168820671Y-116169030D01*
X168842849Y-116179520D01*
X168863893Y-116192133D01*
X168883598Y-116206747D01*
X168901777Y-116223223D01*
X168918253Y-116241402D01*
X168932867Y-116261107D01*
X168945480Y-116282151D01*
X168955970Y-116304329D01*
X168964235Y-116327429D01*
X168970196Y-116351227D01*
X168973796Y-116375496D01*
X168975000Y-116400000D01*
X168975000Y-117600000D01*
X168973796Y-117624504D01*
X168970196Y-117648773D01*
X168964235Y-117672571D01*
X168955970Y-117695671D01*
X168945480Y-117717849D01*
X168932867Y-117738893D01*
X168918253Y-117758598D01*
X168901777Y-117776777D01*
X168883598Y-117793253D01*
X168863893Y-117807867D01*
X168842849Y-117820480D01*
X168820671Y-117830970D01*
X168797571Y-117839235D01*
X168773773Y-117845196D01*
X168749504Y-117848796D01*
X168725000Y-117850000D01*
X167275000Y-117850000D01*
X167250496Y-117848796D01*
X167226227Y-117845196D01*
X167202429Y-117839235D01*
X167179329Y-117830970D01*
X167157151Y-117820480D01*
X167136107Y-117807867D01*
X167116402Y-117793253D01*
X167098223Y-117776777D01*
X167081747Y-117758598D01*
X167067133Y-117738893D01*
X167054520Y-117717849D01*
X167044030Y-117695671D01*
X167035765Y-117672571D01*
X167029804Y-117648773D01*
X167026204Y-117624504D01*
X167025000Y-117600000D01*
X167025000Y-116400000D01*
X167026204Y-116375496D01*
X167029804Y-116351227D01*
X167035765Y-116327429D01*
X167044030Y-116304329D01*
X167054520Y-116282151D01*
X167067133Y-116261107D01*
X167081747Y-116241402D01*
X167098223Y-116223223D01*
X167116402Y-116206747D01*
X167136107Y-116192133D01*
X167157151Y-116179520D01*
X167179329Y-116169030D01*
X167202429Y-116160765D01*
X167226227Y-116154804D01*
X167250496Y-116151204D01*
X167275000Y-116150000D01*
X168725000Y-116150000D01*
X168749504Y-116151204D01*
G37*
D14*
X168000000Y-114500000D03*
X168000000Y-112000000D03*
X168000000Y-109500000D03*
X168000000Y-107000000D03*
D18*
X140900000Y-86950000D03*
X140900000Y-86000000D03*
X140900000Y-85050000D03*
X143600000Y-85050000D03*
X143600000Y-86950000D03*
D24*
X161060000Y-96520000D03*
X164060000Y-97470000D03*
X164060000Y-95570000D03*
X139500000Y-126450000D03*
X139500000Y-124550000D03*
X142500000Y-125500000D03*
M02*
