G04 #@! TF.GenerationSoftware,KiCad,Pcbnew,(5.1.5-0-10_14)*
G04 #@! TF.CreationDate,2020-02-18T21:53:13-05:00*
G04 #@! TF.ProjectId,rlcsv3_modular,726c6373-7633-45f6-9d6f-64756c61722e,rev?*
G04 #@! TF.SameCoordinates,Original*
G04 #@! TF.FileFunction,Copper,L1,Top*
G04 #@! TF.FilePolarity,Positive*
%FSLAX46Y46*%
G04 Gerber Fmt 4.6, Leading zero omitted, Abs format (unit mm)*
G04 Created by KiCad (PCBNEW (5.1.5-0-10_14)) date 2020-02-18 21:53:13*
%MOMM*%
%LPD*%
G04 APERTURE LIST*
%ADD10C,0.100000*%
%ADD11C,2.600000*%
%ADD12R,2.600000X2.600000*%
%ADD13O,1.950000X1.700000*%
%ADD14C,3.000000*%
%ADD15C,6.400000*%
%ADD16R,1.700000X1.700000*%
%ADD17R,1.600000X1.600000*%
%ADD18O,1.600000X1.600000*%
%ADD19C,2.350000*%
%ADD20C,1.600000*%
%ADD21C,1.000000*%
%ADD22C,3.500000*%
%ADD23C,0.800000*%
%ADD24C,1.000000*%
%ADD25C,3.000000*%
%ADD26C,0.400000*%
%ADD27C,0.254000*%
G04 APERTURE END LIST*
G04 #@! TA.AperFunction,SMDPad,CuDef*
D10*
G36*
X142124505Y-138801204D02*
G01*
X142148773Y-138804804D01*
X142172572Y-138810765D01*
X142195671Y-138819030D01*
X142217850Y-138829520D01*
X142238893Y-138842132D01*
X142258599Y-138856747D01*
X142276777Y-138873223D01*
X142293253Y-138891401D01*
X142307868Y-138911107D01*
X142320480Y-138932150D01*
X142330970Y-138954329D01*
X142339235Y-138977428D01*
X142345196Y-139001227D01*
X142348796Y-139025495D01*
X142350000Y-139049999D01*
X142350000Y-139950001D01*
X142348796Y-139974505D01*
X142345196Y-139998773D01*
X142339235Y-140022572D01*
X142330970Y-140045671D01*
X142320480Y-140067850D01*
X142307868Y-140088893D01*
X142293253Y-140108599D01*
X142276777Y-140126777D01*
X142258599Y-140143253D01*
X142238893Y-140157868D01*
X142217850Y-140170480D01*
X142195671Y-140180970D01*
X142172572Y-140189235D01*
X142148773Y-140195196D01*
X142124505Y-140198796D01*
X142100001Y-140200000D01*
X141449999Y-140200000D01*
X141425495Y-140198796D01*
X141401227Y-140195196D01*
X141377428Y-140189235D01*
X141354329Y-140180970D01*
X141332150Y-140170480D01*
X141311107Y-140157868D01*
X141291401Y-140143253D01*
X141273223Y-140126777D01*
X141256747Y-140108599D01*
X141242132Y-140088893D01*
X141229520Y-140067850D01*
X141219030Y-140045671D01*
X141210765Y-140022572D01*
X141204804Y-139998773D01*
X141201204Y-139974505D01*
X141200000Y-139950001D01*
X141200000Y-139049999D01*
X141201204Y-139025495D01*
X141204804Y-139001227D01*
X141210765Y-138977428D01*
X141219030Y-138954329D01*
X141229520Y-138932150D01*
X141242132Y-138911107D01*
X141256747Y-138891401D01*
X141273223Y-138873223D01*
X141291401Y-138856747D01*
X141311107Y-138842132D01*
X141332150Y-138829520D01*
X141354329Y-138819030D01*
X141377428Y-138810765D01*
X141401227Y-138804804D01*
X141425495Y-138801204D01*
X141449999Y-138800000D01*
X142100001Y-138800000D01*
X142124505Y-138801204D01*
G37*
G04 #@! TD.AperFunction*
G04 #@! TA.AperFunction,SMDPad,CuDef*
G36*
X140074505Y-138801204D02*
G01*
X140098773Y-138804804D01*
X140122572Y-138810765D01*
X140145671Y-138819030D01*
X140167850Y-138829520D01*
X140188893Y-138842132D01*
X140208599Y-138856747D01*
X140226777Y-138873223D01*
X140243253Y-138891401D01*
X140257868Y-138911107D01*
X140270480Y-138932150D01*
X140280970Y-138954329D01*
X140289235Y-138977428D01*
X140295196Y-139001227D01*
X140298796Y-139025495D01*
X140300000Y-139049999D01*
X140300000Y-139950001D01*
X140298796Y-139974505D01*
X140295196Y-139998773D01*
X140289235Y-140022572D01*
X140280970Y-140045671D01*
X140270480Y-140067850D01*
X140257868Y-140088893D01*
X140243253Y-140108599D01*
X140226777Y-140126777D01*
X140208599Y-140143253D01*
X140188893Y-140157868D01*
X140167850Y-140170480D01*
X140145671Y-140180970D01*
X140122572Y-140189235D01*
X140098773Y-140195196D01*
X140074505Y-140198796D01*
X140050001Y-140200000D01*
X139399999Y-140200000D01*
X139375495Y-140198796D01*
X139351227Y-140195196D01*
X139327428Y-140189235D01*
X139304329Y-140180970D01*
X139282150Y-140170480D01*
X139261107Y-140157868D01*
X139241401Y-140143253D01*
X139223223Y-140126777D01*
X139206747Y-140108599D01*
X139192132Y-140088893D01*
X139179520Y-140067850D01*
X139169030Y-140045671D01*
X139160765Y-140022572D01*
X139154804Y-139998773D01*
X139151204Y-139974505D01*
X139150000Y-139950001D01*
X139150000Y-139049999D01*
X139151204Y-139025495D01*
X139154804Y-139001227D01*
X139160765Y-138977428D01*
X139169030Y-138954329D01*
X139179520Y-138932150D01*
X139192132Y-138911107D01*
X139206747Y-138891401D01*
X139223223Y-138873223D01*
X139241401Y-138856747D01*
X139261107Y-138842132D01*
X139282150Y-138829520D01*
X139304329Y-138819030D01*
X139327428Y-138810765D01*
X139351227Y-138804804D01*
X139375495Y-138801204D01*
X139399999Y-138800000D01*
X140050001Y-138800000D01*
X140074505Y-138801204D01*
G37*
G04 #@! TD.AperFunction*
G04 #@! TA.AperFunction,SMDPad,CuDef*
G36*
X132999504Y-132876204D02*
G01*
X133023773Y-132879804D01*
X133047571Y-132885765D01*
X133070671Y-132894030D01*
X133092849Y-132904520D01*
X133113893Y-132917133D01*
X133133598Y-132931747D01*
X133151777Y-132948223D01*
X133168253Y-132966402D01*
X133182867Y-132986107D01*
X133195480Y-133007151D01*
X133205970Y-133029329D01*
X133214235Y-133052429D01*
X133220196Y-133076227D01*
X133223796Y-133100496D01*
X133225000Y-133125000D01*
X133225000Y-134375000D01*
X133223796Y-134399504D01*
X133220196Y-134423773D01*
X133214235Y-134447571D01*
X133205970Y-134470671D01*
X133195480Y-134492849D01*
X133182867Y-134513893D01*
X133168253Y-134533598D01*
X133151777Y-134551777D01*
X133133598Y-134568253D01*
X133113893Y-134582867D01*
X133092849Y-134595480D01*
X133070671Y-134605970D01*
X133047571Y-134614235D01*
X133023773Y-134620196D01*
X132999504Y-134623796D01*
X132975000Y-134625000D01*
X132050000Y-134625000D01*
X132025496Y-134623796D01*
X132001227Y-134620196D01*
X131977429Y-134614235D01*
X131954329Y-134605970D01*
X131932151Y-134595480D01*
X131911107Y-134582867D01*
X131891402Y-134568253D01*
X131873223Y-134551777D01*
X131856747Y-134533598D01*
X131842133Y-134513893D01*
X131829520Y-134492849D01*
X131819030Y-134470671D01*
X131810765Y-134447571D01*
X131804804Y-134423773D01*
X131801204Y-134399504D01*
X131800000Y-134375000D01*
X131800000Y-133125000D01*
X131801204Y-133100496D01*
X131804804Y-133076227D01*
X131810765Y-133052429D01*
X131819030Y-133029329D01*
X131829520Y-133007151D01*
X131842133Y-132986107D01*
X131856747Y-132966402D01*
X131873223Y-132948223D01*
X131891402Y-132931747D01*
X131911107Y-132917133D01*
X131932151Y-132904520D01*
X131954329Y-132894030D01*
X131977429Y-132885765D01*
X132001227Y-132879804D01*
X132025496Y-132876204D01*
X132050000Y-132875000D01*
X132975000Y-132875000D01*
X132999504Y-132876204D01*
G37*
G04 #@! TD.AperFunction*
G04 #@! TA.AperFunction,SMDPad,CuDef*
G36*
X135974504Y-132876204D02*
G01*
X135998773Y-132879804D01*
X136022571Y-132885765D01*
X136045671Y-132894030D01*
X136067849Y-132904520D01*
X136088893Y-132917133D01*
X136108598Y-132931747D01*
X136126777Y-132948223D01*
X136143253Y-132966402D01*
X136157867Y-132986107D01*
X136170480Y-133007151D01*
X136180970Y-133029329D01*
X136189235Y-133052429D01*
X136195196Y-133076227D01*
X136198796Y-133100496D01*
X136200000Y-133125000D01*
X136200000Y-134375000D01*
X136198796Y-134399504D01*
X136195196Y-134423773D01*
X136189235Y-134447571D01*
X136180970Y-134470671D01*
X136170480Y-134492849D01*
X136157867Y-134513893D01*
X136143253Y-134533598D01*
X136126777Y-134551777D01*
X136108598Y-134568253D01*
X136088893Y-134582867D01*
X136067849Y-134595480D01*
X136045671Y-134605970D01*
X136022571Y-134614235D01*
X135998773Y-134620196D01*
X135974504Y-134623796D01*
X135950000Y-134625000D01*
X135025000Y-134625000D01*
X135000496Y-134623796D01*
X134976227Y-134620196D01*
X134952429Y-134614235D01*
X134929329Y-134605970D01*
X134907151Y-134595480D01*
X134886107Y-134582867D01*
X134866402Y-134568253D01*
X134848223Y-134551777D01*
X134831747Y-134533598D01*
X134817133Y-134513893D01*
X134804520Y-134492849D01*
X134794030Y-134470671D01*
X134785765Y-134447571D01*
X134779804Y-134423773D01*
X134776204Y-134399504D01*
X134775000Y-134375000D01*
X134775000Y-133125000D01*
X134776204Y-133100496D01*
X134779804Y-133076227D01*
X134785765Y-133052429D01*
X134794030Y-133029329D01*
X134804520Y-133007151D01*
X134817133Y-132986107D01*
X134831747Y-132966402D01*
X134848223Y-132948223D01*
X134866402Y-132931747D01*
X134886107Y-132917133D01*
X134907151Y-132904520D01*
X134929329Y-132894030D01*
X134952429Y-132885765D01*
X134976227Y-132879804D01*
X135000496Y-132876204D01*
X135025000Y-132875000D01*
X135950000Y-132875000D01*
X135974504Y-132876204D01*
G37*
G04 #@! TD.AperFunction*
D11*
X134750000Y-128580000D03*
D12*
X134750000Y-123500000D03*
D11*
X140250000Y-72500000D03*
X145250000Y-72500000D03*
X150250000Y-72500000D03*
X155250000Y-72500000D03*
X160250000Y-72500000D03*
D12*
X165250000Y-72500000D03*
D13*
X137000000Y-117000000D03*
X137000000Y-114500000D03*
X137000000Y-112000000D03*
X137000000Y-109500000D03*
G04 #@! TA.AperFunction,ComponentPad*
D10*
G36*
X137749504Y-106151204D02*
G01*
X137773773Y-106154804D01*
X137797571Y-106160765D01*
X137820671Y-106169030D01*
X137842849Y-106179520D01*
X137863893Y-106192133D01*
X137883598Y-106206747D01*
X137901777Y-106223223D01*
X137918253Y-106241402D01*
X137932867Y-106261107D01*
X137945480Y-106282151D01*
X137955970Y-106304329D01*
X137964235Y-106327429D01*
X137970196Y-106351227D01*
X137973796Y-106375496D01*
X137975000Y-106400000D01*
X137975000Y-107600000D01*
X137973796Y-107624504D01*
X137970196Y-107648773D01*
X137964235Y-107672571D01*
X137955970Y-107695671D01*
X137945480Y-107717849D01*
X137932867Y-107738893D01*
X137918253Y-107758598D01*
X137901777Y-107776777D01*
X137883598Y-107793253D01*
X137863893Y-107807867D01*
X137842849Y-107820480D01*
X137820671Y-107830970D01*
X137797571Y-107839235D01*
X137773773Y-107845196D01*
X137749504Y-107848796D01*
X137725000Y-107850000D01*
X136275000Y-107850000D01*
X136250496Y-107848796D01*
X136226227Y-107845196D01*
X136202429Y-107839235D01*
X136179329Y-107830970D01*
X136157151Y-107820480D01*
X136136107Y-107807867D01*
X136116402Y-107793253D01*
X136098223Y-107776777D01*
X136081747Y-107758598D01*
X136067133Y-107738893D01*
X136054520Y-107717849D01*
X136044030Y-107695671D01*
X136035765Y-107672571D01*
X136029804Y-107648773D01*
X136026204Y-107624504D01*
X136025000Y-107600000D01*
X136025000Y-106400000D01*
X136026204Y-106375496D01*
X136029804Y-106351227D01*
X136035765Y-106327429D01*
X136044030Y-106304329D01*
X136054520Y-106282151D01*
X136067133Y-106261107D01*
X136081747Y-106241402D01*
X136098223Y-106223223D01*
X136116402Y-106206747D01*
X136136107Y-106192133D01*
X136157151Y-106179520D01*
X136179329Y-106169030D01*
X136202429Y-106160765D01*
X136226227Y-106154804D01*
X136250496Y-106151204D01*
X136275000Y-106150000D01*
X137725000Y-106150000D01*
X137749504Y-106151204D01*
G37*
G04 #@! TD.AperFunction*
D14*
X144500000Y-117000000D03*
X152000000Y-117000000D03*
X144500000Y-96680000D03*
X152000000Y-91640000D03*
X152000000Y-101720000D03*
X144500000Y-101720000D03*
X152000000Y-96680000D03*
X144500000Y-91640000D03*
D15*
X134000000Y-139000000D03*
X171000000Y-139000000D03*
X171000000Y-74000000D03*
X134000000Y-74000000D03*
D14*
X169500000Y-99000000D03*
X169500000Y-86800000D03*
X157500000Y-99000000D03*
X163500000Y-101000000D03*
D16*
X133000000Y-96000000D03*
X133000000Y-102000000D03*
X133000000Y-90500000D03*
X173500000Y-92000000D03*
D17*
X173500000Y-86500000D03*
D18*
X173500000Y-78880000D03*
X144380000Y-121500000D03*
D17*
X152000000Y-121500000D03*
D19*
X159000000Y-110100000D03*
X159000000Y-105500000D03*
X159000000Y-121400000D03*
X159000000Y-126000000D03*
D12*
X169750000Y-128750000D03*
D11*
X169750000Y-123670000D03*
D20*
X156500000Y-134880000D03*
X159040000Y-134880000D03*
X161580000Y-134880000D03*
X164120000Y-134880000D03*
X164120000Y-142500000D03*
X161580000Y-142500000D03*
X159040000Y-142500000D03*
D17*
X156500000Y-142500000D03*
G04 #@! TA.AperFunction,ComponentPad*
D10*
G36*
X168749504Y-116151204D02*
G01*
X168773773Y-116154804D01*
X168797571Y-116160765D01*
X168820671Y-116169030D01*
X168842849Y-116179520D01*
X168863893Y-116192133D01*
X168883598Y-116206747D01*
X168901777Y-116223223D01*
X168918253Y-116241402D01*
X168932867Y-116261107D01*
X168945480Y-116282151D01*
X168955970Y-116304329D01*
X168964235Y-116327429D01*
X168970196Y-116351227D01*
X168973796Y-116375496D01*
X168975000Y-116400000D01*
X168975000Y-117600000D01*
X168973796Y-117624504D01*
X168970196Y-117648773D01*
X168964235Y-117672571D01*
X168955970Y-117695671D01*
X168945480Y-117717849D01*
X168932867Y-117738893D01*
X168918253Y-117758598D01*
X168901777Y-117776777D01*
X168883598Y-117793253D01*
X168863893Y-117807867D01*
X168842849Y-117820480D01*
X168820671Y-117830970D01*
X168797571Y-117839235D01*
X168773773Y-117845196D01*
X168749504Y-117848796D01*
X168725000Y-117850000D01*
X167275000Y-117850000D01*
X167250496Y-117848796D01*
X167226227Y-117845196D01*
X167202429Y-117839235D01*
X167179329Y-117830970D01*
X167157151Y-117820480D01*
X167136107Y-117807867D01*
X167116402Y-117793253D01*
X167098223Y-117776777D01*
X167081747Y-117758598D01*
X167067133Y-117738893D01*
X167054520Y-117717849D01*
X167044030Y-117695671D01*
X167035765Y-117672571D01*
X167029804Y-117648773D01*
X167026204Y-117624504D01*
X167025000Y-117600000D01*
X167025000Y-116400000D01*
X167026204Y-116375496D01*
X167029804Y-116351227D01*
X167035765Y-116327429D01*
X167044030Y-116304329D01*
X167054520Y-116282151D01*
X167067133Y-116261107D01*
X167081747Y-116241402D01*
X167098223Y-116223223D01*
X167116402Y-116206747D01*
X167136107Y-116192133D01*
X167157151Y-116179520D01*
X167179329Y-116169030D01*
X167202429Y-116160765D01*
X167226227Y-116154804D01*
X167250496Y-116151204D01*
X167275000Y-116150000D01*
X168725000Y-116150000D01*
X168749504Y-116151204D01*
G37*
G04 #@! TD.AperFunction*
D13*
X168000000Y-114500000D03*
X168000000Y-112000000D03*
X168000000Y-109500000D03*
X168000000Y-107000000D03*
G04 #@! TA.AperFunction,SMDPad,CuDef*
D10*
G36*
X138144505Y-78826204D02*
G01*
X138168773Y-78829804D01*
X138192572Y-78835765D01*
X138215671Y-78844030D01*
X138237850Y-78854520D01*
X138258893Y-78867132D01*
X138278599Y-78881747D01*
X138296777Y-78898223D01*
X138313253Y-78916401D01*
X138327868Y-78936107D01*
X138340480Y-78957150D01*
X138350970Y-78979329D01*
X138359235Y-79002428D01*
X138365196Y-79026227D01*
X138368796Y-79050495D01*
X138370000Y-79074999D01*
X138370000Y-81925001D01*
X138368796Y-81949505D01*
X138365196Y-81973773D01*
X138359235Y-81997572D01*
X138350970Y-82020671D01*
X138340480Y-82042850D01*
X138327868Y-82063893D01*
X138313253Y-82083599D01*
X138296777Y-82101777D01*
X138278599Y-82118253D01*
X138258893Y-82132868D01*
X138237850Y-82145480D01*
X138215671Y-82155970D01*
X138192572Y-82164235D01*
X138168773Y-82170196D01*
X138144505Y-82173796D01*
X138120001Y-82175000D01*
X137094999Y-82175000D01*
X137070495Y-82173796D01*
X137046227Y-82170196D01*
X137022428Y-82164235D01*
X136999329Y-82155970D01*
X136977150Y-82145480D01*
X136956107Y-82132868D01*
X136936401Y-82118253D01*
X136918223Y-82101777D01*
X136901747Y-82083599D01*
X136887132Y-82063893D01*
X136874520Y-82042850D01*
X136864030Y-82020671D01*
X136855765Y-81997572D01*
X136849804Y-81973773D01*
X136846204Y-81949505D01*
X136845000Y-81925001D01*
X136845000Y-79074999D01*
X136846204Y-79050495D01*
X136849804Y-79026227D01*
X136855765Y-79002428D01*
X136864030Y-78979329D01*
X136874520Y-78957150D01*
X136887132Y-78936107D01*
X136901747Y-78916401D01*
X136918223Y-78898223D01*
X136936401Y-78881747D01*
X136956107Y-78867132D01*
X136977150Y-78854520D01*
X136999329Y-78844030D01*
X137022428Y-78835765D01*
X137046227Y-78829804D01*
X137070495Y-78826204D01*
X137094999Y-78825000D01*
X138120001Y-78825000D01*
X138144505Y-78826204D01*
G37*
G04 #@! TD.AperFunction*
G04 #@! TA.AperFunction,SMDPad,CuDef*
G36*
X132169505Y-78826204D02*
G01*
X132193773Y-78829804D01*
X132217572Y-78835765D01*
X132240671Y-78844030D01*
X132262850Y-78854520D01*
X132283893Y-78867132D01*
X132303599Y-78881747D01*
X132321777Y-78898223D01*
X132338253Y-78916401D01*
X132352868Y-78936107D01*
X132365480Y-78957150D01*
X132375970Y-78979329D01*
X132384235Y-79002428D01*
X132390196Y-79026227D01*
X132393796Y-79050495D01*
X132395000Y-79074999D01*
X132395000Y-81925001D01*
X132393796Y-81949505D01*
X132390196Y-81973773D01*
X132384235Y-81997572D01*
X132375970Y-82020671D01*
X132365480Y-82042850D01*
X132352868Y-82063893D01*
X132338253Y-82083599D01*
X132321777Y-82101777D01*
X132303599Y-82118253D01*
X132283893Y-82132868D01*
X132262850Y-82145480D01*
X132240671Y-82155970D01*
X132217572Y-82164235D01*
X132193773Y-82170196D01*
X132169505Y-82173796D01*
X132145001Y-82175000D01*
X131119999Y-82175000D01*
X131095495Y-82173796D01*
X131071227Y-82170196D01*
X131047428Y-82164235D01*
X131024329Y-82155970D01*
X131002150Y-82145480D01*
X130981107Y-82132868D01*
X130961401Y-82118253D01*
X130943223Y-82101777D01*
X130926747Y-82083599D01*
X130912132Y-82063893D01*
X130899520Y-82042850D01*
X130889030Y-82020671D01*
X130880765Y-81997572D01*
X130874804Y-81973773D01*
X130871204Y-81949505D01*
X130870000Y-81925001D01*
X130870000Y-79074999D01*
X130871204Y-79050495D01*
X130874804Y-79026227D01*
X130880765Y-79002428D01*
X130889030Y-78979329D01*
X130899520Y-78957150D01*
X130912132Y-78936107D01*
X130926747Y-78916401D01*
X130943223Y-78898223D01*
X130961401Y-78881747D01*
X130981107Y-78867132D01*
X131002150Y-78854520D01*
X131024329Y-78844030D01*
X131047428Y-78835765D01*
X131071227Y-78829804D01*
X131095495Y-78826204D01*
X131119999Y-78825000D01*
X132145001Y-78825000D01*
X132169505Y-78826204D01*
G37*
G04 #@! TD.AperFunction*
G04 #@! TA.AperFunction,SMDPad,CuDef*
G36*
X138049505Y-83326204D02*
G01*
X138073773Y-83329804D01*
X138097572Y-83335765D01*
X138120671Y-83344030D01*
X138142850Y-83354520D01*
X138163893Y-83367132D01*
X138183599Y-83381747D01*
X138201777Y-83398223D01*
X138218253Y-83416401D01*
X138232868Y-83436107D01*
X138245480Y-83457150D01*
X138255970Y-83479329D01*
X138264235Y-83502428D01*
X138270196Y-83526227D01*
X138273796Y-83550495D01*
X138275000Y-83574999D01*
X138275000Y-86425001D01*
X138273796Y-86449505D01*
X138270196Y-86473773D01*
X138264235Y-86497572D01*
X138255970Y-86520671D01*
X138245480Y-86542850D01*
X138232868Y-86563893D01*
X138218253Y-86583599D01*
X138201777Y-86601777D01*
X138183599Y-86618253D01*
X138163893Y-86632868D01*
X138142850Y-86645480D01*
X138120671Y-86655970D01*
X138097572Y-86664235D01*
X138073773Y-86670196D01*
X138049505Y-86673796D01*
X138025001Y-86675000D01*
X136999999Y-86675000D01*
X136975495Y-86673796D01*
X136951227Y-86670196D01*
X136927428Y-86664235D01*
X136904329Y-86655970D01*
X136882150Y-86645480D01*
X136861107Y-86632868D01*
X136841401Y-86618253D01*
X136823223Y-86601777D01*
X136806747Y-86583599D01*
X136792132Y-86563893D01*
X136779520Y-86542850D01*
X136769030Y-86520671D01*
X136760765Y-86497572D01*
X136754804Y-86473773D01*
X136751204Y-86449505D01*
X136750000Y-86425001D01*
X136750000Y-83574999D01*
X136751204Y-83550495D01*
X136754804Y-83526227D01*
X136760765Y-83502428D01*
X136769030Y-83479329D01*
X136779520Y-83457150D01*
X136792132Y-83436107D01*
X136806747Y-83416401D01*
X136823223Y-83398223D01*
X136841401Y-83381747D01*
X136861107Y-83367132D01*
X136882150Y-83354520D01*
X136904329Y-83344030D01*
X136927428Y-83335765D01*
X136951227Y-83329804D01*
X136975495Y-83326204D01*
X136999999Y-83325000D01*
X138025001Y-83325000D01*
X138049505Y-83326204D01*
G37*
G04 #@! TD.AperFunction*
G04 #@! TA.AperFunction,SMDPad,CuDef*
G36*
X144024505Y-83326204D02*
G01*
X144048773Y-83329804D01*
X144072572Y-83335765D01*
X144095671Y-83344030D01*
X144117850Y-83354520D01*
X144138893Y-83367132D01*
X144158599Y-83381747D01*
X144176777Y-83398223D01*
X144193253Y-83416401D01*
X144207868Y-83436107D01*
X144220480Y-83457150D01*
X144230970Y-83479329D01*
X144239235Y-83502428D01*
X144245196Y-83526227D01*
X144248796Y-83550495D01*
X144250000Y-83574999D01*
X144250000Y-86425001D01*
X144248796Y-86449505D01*
X144245196Y-86473773D01*
X144239235Y-86497572D01*
X144230970Y-86520671D01*
X144220480Y-86542850D01*
X144207868Y-86563893D01*
X144193253Y-86583599D01*
X144176777Y-86601777D01*
X144158599Y-86618253D01*
X144138893Y-86632868D01*
X144117850Y-86645480D01*
X144095671Y-86655970D01*
X144072572Y-86664235D01*
X144048773Y-86670196D01*
X144024505Y-86673796D01*
X144000001Y-86675000D01*
X142974999Y-86675000D01*
X142950495Y-86673796D01*
X142926227Y-86670196D01*
X142902428Y-86664235D01*
X142879329Y-86655970D01*
X142857150Y-86645480D01*
X142836107Y-86632868D01*
X142816401Y-86618253D01*
X142798223Y-86601777D01*
X142781747Y-86583599D01*
X142767132Y-86563893D01*
X142754520Y-86542850D01*
X142744030Y-86520671D01*
X142735765Y-86497572D01*
X142729804Y-86473773D01*
X142726204Y-86449505D01*
X142725000Y-86425001D01*
X142725000Y-83574999D01*
X142726204Y-83550495D01*
X142729804Y-83526227D01*
X142735765Y-83502428D01*
X142744030Y-83479329D01*
X142754520Y-83457150D01*
X142767132Y-83436107D01*
X142781747Y-83416401D01*
X142798223Y-83398223D01*
X142816401Y-83381747D01*
X142836107Y-83367132D01*
X142857150Y-83354520D01*
X142879329Y-83344030D01*
X142902428Y-83335765D01*
X142926227Y-83329804D01*
X142950495Y-83326204D01*
X142974999Y-83325000D01*
X144000001Y-83325000D01*
X144024505Y-83326204D01*
G37*
G04 #@! TD.AperFunction*
D21*
X166750000Y-97750000D03*
X140500000Y-123000000D03*
X140000000Y-120250000D03*
D22*
X159000000Y-87000000D03*
D23*
X162250000Y-92750000D03*
X168250000Y-90250000D03*
X130741999Y-94750000D03*
X147250000Y-138500000D03*
X154436166Y-110417836D03*
X137750000Y-128000000D03*
X147250000Y-84750000D03*
X138000000Y-94500000D03*
X132080000Y-92710000D03*
X135820492Y-91509508D03*
X152500000Y-130500000D03*
X155250000Y-127250000D03*
X142750000Y-82000000D03*
X135890000Y-77470000D03*
X156000000Y-107000000D03*
X162750000Y-112500000D03*
X162750000Y-123000000D03*
X132080000Y-77470000D03*
X140000000Y-82550000D03*
X138000000Y-96000000D03*
X136000000Y-94000000D03*
X141750000Y-114000000D03*
X154786426Y-113183574D03*
X146500000Y-110354000D03*
X145818870Y-108318870D03*
X134000000Y-131750000D03*
D24*
X168000000Y-107000000D02*
X165500000Y-107000000D01*
X150200000Y-121500000D02*
X152000000Y-121500000D01*
X148645999Y-123054001D02*
X150200000Y-121500000D01*
X148645999Y-118232681D02*
X148645999Y-123054001D01*
X149878680Y-117000000D02*
X148645999Y-118232681D01*
X152000000Y-117000000D02*
X149878680Y-117000000D01*
X165500000Y-107000000D02*
X163870000Y-105370000D01*
X139700000Y-105410000D02*
X137160000Y-102870000D01*
X153670000Y-105410000D02*
X139700000Y-105410000D01*
X136290000Y-102000000D02*
X137160000Y-102870000D01*
X133000000Y-102000000D02*
X136290000Y-102000000D01*
X137160000Y-102870000D02*
X134620000Y-105410000D01*
X134620000Y-105410000D02*
X133350000Y-106680000D01*
X157520000Y-101560000D02*
X153670000Y-105410000D01*
X160060000Y-101560000D02*
X157520000Y-101560000D01*
X160060000Y-101560000D02*
X157500000Y-99000000D01*
X163870000Y-105370000D02*
X162070999Y-103570999D01*
X163414078Y-97750000D02*
X161000000Y-100164078D01*
X166750000Y-97750000D02*
X163414078Y-97750000D01*
X161000000Y-102250000D02*
X160060000Y-101560000D01*
X161000000Y-100164078D02*
X161000000Y-102250000D01*
X162070999Y-103570999D02*
X161000000Y-102250000D01*
X133350000Y-106680000D02*
X133350000Y-117850000D01*
X134200000Y-117000000D02*
X137000000Y-117000000D01*
X133350000Y-117850000D02*
X134200000Y-117000000D01*
X133350000Y-117850000D02*
X133350000Y-119380000D01*
X140999999Y-123499999D02*
X140500000Y-123000000D01*
X148200001Y-123499999D02*
X140999999Y-123499999D01*
X148645999Y-123054001D02*
X148200001Y-123499999D01*
X133350000Y-119380000D02*
X133350000Y-119530625D01*
X133350000Y-119380000D02*
X133350000Y-119850000D01*
X133750000Y-120250000D02*
X138750000Y-120250000D01*
X133350000Y-119850000D02*
X133750000Y-120250000D01*
X138750000Y-120250000D02*
X140000000Y-120250000D01*
D25*
X159200000Y-86800000D02*
X159000000Y-87000000D01*
X169500000Y-86800000D02*
X159200000Y-86800000D01*
X172754001Y-97438079D02*
X172754001Y-118133997D01*
X170495923Y-95180001D02*
X172754001Y-97438079D01*
X153499999Y-95180001D02*
X170495923Y-95180001D01*
X152000000Y-96680000D02*
X153499999Y-95180001D01*
D26*
X165750000Y-92750000D02*
X168250000Y-90250000D01*
X162250000Y-92750000D02*
X165750000Y-92750000D01*
X131750000Y-94750000D02*
X133000000Y-96000000D01*
X130741999Y-94750000D02*
X131750000Y-94750000D01*
X151250000Y-142500000D02*
X156500000Y-142500000D01*
X147250000Y-138500000D02*
X151250000Y-142500000D01*
X166625000Y-112000000D02*
X168000000Y-112000000D01*
X165270999Y-113354001D02*
X166625000Y-112000000D01*
X157372331Y-113354001D02*
X165270999Y-113354001D01*
X154436166Y-110417836D02*
X157372331Y-113354001D01*
D25*
X173150001Y-118529997D02*
X172754001Y-118133997D01*
X173150001Y-125349999D02*
X173150001Y-118529997D01*
X169750000Y-128750000D02*
X173150001Y-125349999D01*
X157427999Y-118124999D02*
X155250000Y-120302998D01*
X161062921Y-118124999D02*
X157427999Y-118124999D01*
X164904001Y-121966079D02*
X161062921Y-118124999D01*
X164904001Y-123904001D02*
X164904001Y-121966079D01*
X169750000Y-128750000D02*
X164904001Y-123904001D01*
X155250000Y-120302998D02*
X155250000Y-123750000D01*
X137004009Y-125754009D02*
X135000000Y-123750000D01*
X153245991Y-125754009D02*
X137004009Y-125754009D01*
X155250000Y-123750000D02*
X153245991Y-125754009D01*
D26*
X146250000Y-139500000D02*
X147250000Y-138500000D01*
X141775000Y-139500000D02*
X146250000Y-139500000D01*
X136210000Y-92710000D02*
X138000000Y-94500000D01*
X135890000Y-92710000D02*
X135890000Y-91579016D01*
X135890000Y-91579016D02*
X135820492Y-91509508D01*
X135890000Y-92710000D02*
X136210000Y-92710000D01*
X133000000Y-92670000D02*
X133000000Y-90500000D01*
X133040000Y-92710000D02*
X133000000Y-92670000D01*
X132080000Y-92710000D02*
X133040000Y-92710000D01*
X133040000Y-92710000D02*
X135890000Y-92710000D01*
D25*
X159000000Y-127661700D02*
X159000000Y-126000000D01*
X153700001Y-133000001D02*
X159000000Y-127700002D01*
X159000000Y-127700002D02*
X159000000Y-127661700D01*
X139170001Y-133000001D02*
X153700001Y-133000001D01*
X135000000Y-128830000D02*
X139170001Y-133000001D01*
X159000000Y-124338300D02*
X159000000Y-121725009D01*
X159000000Y-126000000D02*
X159000000Y-124338300D01*
D26*
X159000000Y-105000000D02*
X159000000Y-105500000D01*
X163500000Y-101500000D02*
X163000000Y-101000000D01*
X152500000Y-130000000D02*
X152500000Y-130500000D01*
X155250000Y-127250000D02*
X152500000Y-130000000D01*
D25*
X155090000Y-88550000D02*
X152000000Y-91640000D01*
X155090000Y-72500000D02*
X155090000Y-88550000D01*
X152000000Y-101495922D02*
X148245991Y-97741913D01*
X152000000Y-101720000D02*
X152000000Y-101495922D01*
X148245991Y-97741913D02*
X148245991Y-88254009D01*
X150250000Y-86250000D02*
X150250000Y-72500000D01*
X148245991Y-88254009D02*
X150250000Y-86250000D01*
X144930000Y-83557500D02*
X143487500Y-85000000D01*
X144930000Y-72500000D02*
X144930000Y-83557500D01*
D26*
X142750000Y-84262500D02*
X143487500Y-85000000D01*
X142750000Y-82000000D02*
X142750000Y-84262500D01*
D25*
X139850000Y-78257500D02*
X137607500Y-80500000D01*
X139850000Y-72500000D02*
X139850000Y-78257500D01*
D26*
X137607500Y-79187500D02*
X135890000Y-77470000D01*
X137607500Y-80500000D02*
X137607500Y-79187500D01*
X162750000Y-128630000D02*
X156500000Y-134880000D01*
X162750000Y-123000000D02*
X162750000Y-128630000D01*
X156399999Y-107399999D02*
X156000000Y-107000000D01*
X159649999Y-107399999D02*
X156399999Y-107399999D01*
X162750000Y-110500000D02*
X159649999Y-107399999D01*
X162750000Y-112500000D02*
X162750000Y-110500000D01*
D25*
X135107202Y-87750000D02*
X140399999Y-93042797D01*
X142378680Y-101720000D02*
X144500000Y-101720000D01*
X140399999Y-99741319D02*
X142378680Y-101720000D01*
X140399999Y-93042797D02*
X140399999Y-99741319D01*
X131804010Y-84063110D02*
X131804010Y-80500000D01*
X135107202Y-87366302D02*
X131804010Y-84063110D01*
X135107202Y-87750000D02*
X135107202Y-87366302D01*
D26*
X132080000Y-80052500D02*
X131632500Y-80500000D01*
X132080000Y-77470000D02*
X132080000Y-80052500D01*
D25*
X137512500Y-85000000D02*
X137512500Y-85152500D01*
X144152500Y-91640000D02*
X137512500Y-85000000D01*
X144500000Y-91640000D02*
X144152500Y-91640000D01*
D26*
X137550000Y-85000000D02*
X140000000Y-82550000D01*
X137512500Y-85000000D02*
X137550000Y-85000000D01*
X138000000Y-96000000D02*
X136000000Y-94000000D01*
X157310591Y-114500000D02*
X152310591Y-109500000D01*
X168000000Y-114500000D02*
X157310591Y-114500000D01*
X139000000Y-109500000D02*
X137000000Y-109500000D01*
X152310591Y-109500000D02*
X139000000Y-109500000D01*
X140250000Y-113500000D02*
X140250000Y-110750000D01*
X140750000Y-114000000D02*
X140250000Y-113500000D01*
X140250000Y-110750000D02*
X139000000Y-109500000D01*
X141750000Y-114000000D02*
X140750000Y-114000000D01*
X156275000Y-114672148D02*
X154786426Y-113183574D01*
X144500000Y-107000000D02*
X145818870Y-108318870D01*
X137000000Y-107000000D02*
X144500000Y-107000000D01*
X167025000Y-117000000D02*
X166500000Y-116475000D01*
X168000000Y-117000000D02*
X167025000Y-117000000D01*
X166500000Y-115500000D02*
X166154010Y-115154010D01*
X166500000Y-116475000D02*
X166500000Y-115500000D01*
X156756862Y-115154010D02*
X156275000Y-114672148D01*
X166154010Y-115154010D02*
X156756862Y-115154010D01*
X154010194Y-112407342D02*
X154786426Y-113183574D01*
X148553342Y-112407342D02*
X154010194Y-112407342D01*
X146500000Y-110354000D02*
X148553342Y-112407342D01*
X139725000Y-138800000D02*
X139725000Y-139500000D01*
X139725000Y-137275000D02*
X139725000Y-138800000D01*
X136200000Y-133750000D02*
X139725000Y-137275000D01*
X135487500Y-133750000D02*
X136200000Y-133750000D01*
X134000000Y-132262500D02*
X132512500Y-133750000D01*
X134000000Y-131750000D02*
X134000000Y-132262500D01*
D27*
G36*
X174123001Y-71427963D02*
G01*
X173567063Y-70872025D01*
X172907500Y-70431319D01*
X172174633Y-70127755D01*
X171396625Y-69973000D01*
X170603375Y-69973000D01*
X169825367Y-70127755D01*
X169092500Y-70431319D01*
X168432937Y-70872025D01*
X167872025Y-71432937D01*
X167431319Y-72092500D01*
X167381001Y-72213978D01*
X167381001Y-71200000D01*
X167365034Y-71037880D01*
X167317745Y-70881990D01*
X167240952Y-70738321D01*
X167137606Y-70612394D01*
X167011679Y-70509048D01*
X166868010Y-70432255D01*
X166712120Y-70384966D01*
X166550000Y-70368999D01*
X163950000Y-70368999D01*
X163787880Y-70384966D01*
X163631990Y-70432255D01*
X163488321Y-70509048D01*
X163362394Y-70612394D01*
X163259048Y-70738321D01*
X163182255Y-70881990D01*
X163134966Y-71037880D01*
X163118999Y-71200000D01*
X163118999Y-73800000D01*
X163134966Y-73962120D01*
X163182255Y-74118010D01*
X163259048Y-74261679D01*
X163362394Y-74387606D01*
X163488321Y-74490952D01*
X163631990Y-74567745D01*
X163787880Y-74615034D01*
X163950000Y-74631001D01*
X166550000Y-74631001D01*
X166712120Y-74615034D01*
X166868010Y-74567745D01*
X166993677Y-74500574D01*
X167127755Y-75174633D01*
X167431319Y-75907500D01*
X167872025Y-76567063D01*
X168432937Y-77127975D01*
X169092500Y-77568681D01*
X169825367Y-77872245D01*
X170603375Y-78027000D01*
X171396625Y-78027000D01*
X172174633Y-77872245D01*
X172232639Y-77848218D01*
X172058172Y-78109327D01*
X171935525Y-78405422D01*
X171873000Y-78719755D01*
X171873000Y-79040245D01*
X171935525Y-79354578D01*
X172058172Y-79650673D01*
X172236227Y-79917152D01*
X172462848Y-80143773D01*
X172729327Y-80321828D01*
X173025422Y-80444475D01*
X173339755Y-80507000D01*
X173660245Y-80507000D01*
X173974578Y-80444475D01*
X174123001Y-80382996D01*
X174123001Y-84868999D01*
X172700000Y-84868999D01*
X172537880Y-84884966D01*
X172381990Y-84932255D01*
X172238321Y-85009048D01*
X172112394Y-85112394D01*
X172009048Y-85238321D01*
X171932255Y-85381990D01*
X171884966Y-85537880D01*
X171868999Y-85700000D01*
X171868999Y-87300000D01*
X171884966Y-87462120D01*
X171932255Y-87618010D01*
X172009048Y-87761679D01*
X172112394Y-87887606D01*
X172238321Y-87990952D01*
X172381990Y-88067745D01*
X172537880Y-88115034D01*
X172700000Y-88131001D01*
X174123001Y-88131001D01*
X174123001Y-90318999D01*
X172650000Y-90318999D01*
X172487880Y-90334966D01*
X172331990Y-90382255D01*
X172188321Y-90459048D01*
X172062394Y-90562394D01*
X171959048Y-90688321D01*
X171882255Y-90831990D01*
X171834966Y-90987880D01*
X171818999Y-91150000D01*
X171818999Y-92850000D01*
X171834966Y-93012120D01*
X171882255Y-93168010D01*
X171959048Y-93311679D01*
X172062394Y-93437606D01*
X172188321Y-93540952D01*
X172331990Y-93617745D01*
X172487880Y-93665034D01*
X172650000Y-93681001D01*
X174123001Y-93681001D01*
X174123000Y-136427962D01*
X173567063Y-135872025D01*
X172907500Y-135431319D01*
X172174633Y-135127755D01*
X171396625Y-134973000D01*
X170603375Y-134973000D01*
X169825367Y-135127755D01*
X169092500Y-135431319D01*
X168432937Y-135872025D01*
X167872025Y-136432937D01*
X167431319Y-137092500D01*
X167127755Y-137825367D01*
X166973000Y-138603375D01*
X166973000Y-139396625D01*
X167127755Y-140174633D01*
X167431319Y-140907500D01*
X167872025Y-141567063D01*
X168432937Y-142127975D01*
X169092500Y-142568681D01*
X169825367Y-142872245D01*
X170603375Y-143027000D01*
X171396625Y-143027000D01*
X172174633Y-142872245D01*
X172907500Y-142568681D01*
X173567063Y-142127975D01*
X174123000Y-141572038D01*
X174123000Y-143123000D01*
X165412748Y-143123000D01*
X165477571Y-142986004D01*
X165546300Y-142711816D01*
X165560217Y-142429488D01*
X165518787Y-142149870D01*
X165423603Y-141883708D01*
X165356671Y-141758486D01*
X165112702Y-141686903D01*
X164299605Y-142500000D01*
X164313748Y-142514143D01*
X164134143Y-142693748D01*
X164120000Y-142679605D01*
X164105858Y-142693748D01*
X163926253Y-142514143D01*
X163940395Y-142500000D01*
X163127298Y-141686903D01*
X162883329Y-141758486D01*
X162852029Y-141824636D01*
X162816671Y-141758486D01*
X162572702Y-141686903D01*
X161759605Y-142500000D01*
X161773748Y-142514143D01*
X161594143Y-142693748D01*
X161580000Y-142679605D01*
X161565858Y-142693748D01*
X161386253Y-142514143D01*
X161400395Y-142500000D01*
X160587298Y-141686903D01*
X160343329Y-141758486D01*
X160312029Y-141824636D01*
X160276671Y-141758486D01*
X160032702Y-141686903D01*
X159219605Y-142500000D01*
X159233748Y-142514143D01*
X159054143Y-142693748D01*
X159040000Y-142679605D01*
X159025858Y-142693748D01*
X158846253Y-142514143D01*
X158860395Y-142500000D01*
X158047298Y-141686903D01*
X157937959Y-141718984D01*
X157938072Y-141700000D01*
X157925812Y-141575518D01*
X157905118Y-141507298D01*
X158226903Y-141507298D01*
X159040000Y-142320395D01*
X159853097Y-141507298D01*
X160766903Y-141507298D01*
X161580000Y-142320395D01*
X162393097Y-141507298D01*
X163306903Y-141507298D01*
X164120000Y-142320395D01*
X164933097Y-141507298D01*
X164861514Y-141263329D01*
X164606004Y-141142429D01*
X164331816Y-141073700D01*
X164049488Y-141059783D01*
X163769870Y-141101213D01*
X163503708Y-141196397D01*
X163378486Y-141263329D01*
X163306903Y-141507298D01*
X162393097Y-141507298D01*
X162321514Y-141263329D01*
X162066004Y-141142429D01*
X161791816Y-141073700D01*
X161509488Y-141059783D01*
X161229870Y-141101213D01*
X160963708Y-141196397D01*
X160838486Y-141263329D01*
X160766903Y-141507298D01*
X159853097Y-141507298D01*
X159781514Y-141263329D01*
X159526004Y-141142429D01*
X159251816Y-141073700D01*
X158969488Y-141059783D01*
X158689870Y-141101213D01*
X158423708Y-141196397D01*
X158298486Y-141263329D01*
X158226903Y-141507298D01*
X157905118Y-141507298D01*
X157889502Y-141455820D01*
X157830537Y-141345506D01*
X157751185Y-141248815D01*
X157654494Y-141169463D01*
X157544180Y-141110498D01*
X157424482Y-141074188D01*
X157300000Y-141061928D01*
X156785750Y-141065000D01*
X156627000Y-141223750D01*
X156627000Y-142373000D01*
X156647000Y-142373000D01*
X156647000Y-142627000D01*
X156627000Y-142627000D01*
X156627000Y-142647000D01*
X156373000Y-142647000D01*
X156373000Y-142627000D01*
X155223750Y-142627000D01*
X155065000Y-142785750D01*
X155062985Y-143123000D01*
X130877000Y-143123000D01*
X130877000Y-141572038D01*
X131432937Y-142127975D01*
X132092500Y-142568681D01*
X132825367Y-142872245D01*
X133603375Y-143027000D01*
X134396625Y-143027000D01*
X135174633Y-142872245D01*
X135907500Y-142568681D01*
X136567063Y-142127975D01*
X136995038Y-141700000D01*
X155061928Y-141700000D01*
X155065000Y-142214250D01*
X155223750Y-142373000D01*
X156373000Y-142373000D01*
X156373000Y-141223750D01*
X156214250Y-141065000D01*
X155700000Y-141061928D01*
X155575518Y-141074188D01*
X155455820Y-141110498D01*
X155345506Y-141169463D01*
X155248815Y-141248815D01*
X155169463Y-141345506D01*
X155110498Y-141455820D01*
X155074188Y-141575518D01*
X155061928Y-141700000D01*
X136995038Y-141700000D01*
X137127975Y-141567063D01*
X137568681Y-140907500D01*
X137872245Y-140174633D01*
X138027000Y-139396625D01*
X138027000Y-138603375D01*
X137872245Y-137825367D01*
X137568681Y-137092500D01*
X137127975Y-136432937D01*
X136567063Y-135872025D01*
X135944439Y-135456001D01*
X135950000Y-135456001D01*
X136160893Y-135435230D01*
X136363681Y-135373715D01*
X136368658Y-135371055D01*
X138698000Y-137700398D01*
X138698001Y-138234420D01*
X138635617Y-138285617D01*
X138501180Y-138449428D01*
X138401285Y-138636318D01*
X138339770Y-138839106D01*
X138318999Y-139049999D01*
X138318999Y-139950001D01*
X138339770Y-140160894D01*
X138401285Y-140363682D01*
X138501180Y-140550572D01*
X138635617Y-140714383D01*
X138799428Y-140848820D01*
X138986318Y-140948715D01*
X139189106Y-141010230D01*
X139399999Y-141031001D01*
X140050001Y-141031001D01*
X140260894Y-141010230D01*
X140463682Y-140948715D01*
X140650572Y-140848820D01*
X140814383Y-140714383D01*
X140818987Y-140708773D01*
X140845506Y-140730537D01*
X140955820Y-140789502D01*
X141075518Y-140825812D01*
X141200000Y-140838072D01*
X141489250Y-140835000D01*
X141648000Y-140676250D01*
X141648000Y-139627000D01*
X141902000Y-139627000D01*
X141902000Y-140676250D01*
X142060750Y-140835000D01*
X142350000Y-140838072D01*
X142474482Y-140825812D01*
X142594180Y-140789502D01*
X142704494Y-140730537D01*
X142801185Y-140651185D01*
X142880537Y-140554494D01*
X142939502Y-140444180D01*
X142975812Y-140324482D01*
X142988072Y-140200000D01*
X142985000Y-139785750D01*
X142826250Y-139627000D01*
X141902000Y-139627000D01*
X141648000Y-139627000D01*
X141628000Y-139627000D01*
X141628000Y-139373000D01*
X141648000Y-139373000D01*
X141648000Y-138323750D01*
X141902000Y-138323750D01*
X141902000Y-139373000D01*
X142826250Y-139373000D01*
X142985000Y-139214250D01*
X142988072Y-138800000D01*
X142975812Y-138675518D01*
X142939502Y-138555820D01*
X142880537Y-138445506D01*
X142801185Y-138348815D01*
X142704494Y-138269463D01*
X142594180Y-138210498D01*
X142474482Y-138174188D01*
X142350000Y-138161928D01*
X142060750Y-138165000D01*
X141902000Y-138323750D01*
X141648000Y-138323750D01*
X141489250Y-138165000D01*
X141200000Y-138161928D01*
X141075518Y-138174188D01*
X140955820Y-138210498D01*
X140845506Y-138269463D01*
X140818987Y-138291227D01*
X140814383Y-138285617D01*
X140752000Y-138234420D01*
X140752000Y-137325443D01*
X140756968Y-137275000D01*
X140752000Y-137224556D01*
X140752000Y-137224549D01*
X140737140Y-137073673D01*
X140678415Y-136880083D01*
X140583051Y-136701669D01*
X140567812Y-136683100D01*
X140486873Y-136584475D01*
X140486868Y-136584470D01*
X140454712Y-136545288D01*
X140415530Y-136513132D01*
X139234322Y-135331925D01*
X139284313Y-135327001D01*
X153585689Y-135327001D01*
X153700001Y-135338260D01*
X153814313Y-135327001D01*
X153814316Y-135327001D01*
X154156173Y-135293331D01*
X154594814Y-135160271D01*
X154873000Y-135011577D01*
X154873000Y-135040245D01*
X154935525Y-135354578D01*
X155058172Y-135650673D01*
X155236227Y-135917152D01*
X155462848Y-136143773D01*
X155729327Y-136321828D01*
X156025422Y-136444475D01*
X156339755Y-136507000D01*
X156660245Y-136507000D01*
X156974578Y-136444475D01*
X157270673Y-136321828D01*
X157537152Y-136143773D01*
X157763773Y-135917152D01*
X157770000Y-135907833D01*
X157776227Y-135917152D01*
X158002848Y-136143773D01*
X158269327Y-136321828D01*
X158565422Y-136444475D01*
X158879755Y-136507000D01*
X159200245Y-136507000D01*
X159514578Y-136444475D01*
X159810673Y-136321828D01*
X160077152Y-136143773D01*
X160303773Y-135917152D01*
X160310000Y-135907833D01*
X160316227Y-135917152D01*
X160542848Y-136143773D01*
X160809327Y-136321828D01*
X161105422Y-136444475D01*
X161419755Y-136507000D01*
X161740245Y-136507000D01*
X162054578Y-136444475D01*
X162350673Y-136321828D01*
X162617152Y-136143773D01*
X162843773Y-135917152D01*
X162850000Y-135907833D01*
X162856227Y-135917152D01*
X163082848Y-136143773D01*
X163349327Y-136321828D01*
X163645422Y-136444475D01*
X163959755Y-136507000D01*
X164280245Y-136507000D01*
X164594578Y-136444475D01*
X164890673Y-136321828D01*
X165157152Y-136143773D01*
X165383773Y-135917152D01*
X165561828Y-135650673D01*
X165684475Y-135354578D01*
X165747000Y-135040245D01*
X165747000Y-134719755D01*
X165684475Y-134405422D01*
X165561828Y-134109327D01*
X165383773Y-133842848D01*
X165157152Y-133616227D01*
X164890673Y-133438172D01*
X164594578Y-133315525D01*
X164280245Y-133253000D01*
X163959755Y-133253000D01*
X163645422Y-133315525D01*
X163349327Y-133438172D01*
X163082848Y-133616227D01*
X162856227Y-133842848D01*
X162850000Y-133852167D01*
X162843773Y-133842848D01*
X162617152Y-133616227D01*
X162350673Y-133438172D01*
X162054578Y-133315525D01*
X161740245Y-133253000D01*
X161419755Y-133253000D01*
X161105422Y-133315525D01*
X160809327Y-133438172D01*
X160542848Y-133616227D01*
X160316227Y-133842848D01*
X160310000Y-133852167D01*
X160303773Y-133842848D01*
X160077152Y-133616227D01*
X159810673Y-133438172D01*
X159516200Y-133316197D01*
X162782397Y-130050000D01*
X167811928Y-130050000D01*
X167824188Y-130174482D01*
X167860498Y-130294180D01*
X167919463Y-130404494D01*
X167998815Y-130501185D01*
X168095506Y-130580537D01*
X168205820Y-130639502D01*
X168325518Y-130675812D01*
X168450000Y-130688072D01*
X169464250Y-130685000D01*
X169623000Y-130526250D01*
X169623000Y-128877000D01*
X169877000Y-128877000D01*
X169877000Y-130526250D01*
X170035750Y-130685000D01*
X171050000Y-130688072D01*
X171174482Y-130675812D01*
X171294180Y-130639502D01*
X171404494Y-130580537D01*
X171501185Y-130501185D01*
X171580537Y-130404494D01*
X171639502Y-130294180D01*
X171675812Y-130174482D01*
X171688072Y-130050000D01*
X171685000Y-129035750D01*
X171526250Y-128877000D01*
X169877000Y-128877000D01*
X169623000Y-128877000D01*
X167973750Y-128877000D01*
X167815000Y-129035750D01*
X167811928Y-130050000D01*
X162782397Y-130050000D01*
X163440530Y-129391868D01*
X163479712Y-129359712D01*
X163511868Y-129320530D01*
X163511873Y-129320525D01*
X163608050Y-129203332D01*
X163691833Y-129046585D01*
X163703415Y-129024917D01*
X163762140Y-128831327D01*
X163777000Y-128680451D01*
X163777000Y-128680444D01*
X163781968Y-128630000D01*
X163777000Y-128579557D01*
X163777000Y-127450000D01*
X167811928Y-127450000D01*
X167815000Y-128464250D01*
X167973750Y-128623000D01*
X169623000Y-128623000D01*
X169623000Y-126973750D01*
X169877000Y-126973750D01*
X169877000Y-128623000D01*
X171526250Y-128623000D01*
X171685000Y-128464250D01*
X171688072Y-127450000D01*
X171675812Y-127325518D01*
X171639502Y-127205820D01*
X171580537Y-127095506D01*
X171501185Y-126998815D01*
X171404494Y-126919463D01*
X171294180Y-126860498D01*
X171174482Y-126824188D01*
X171050000Y-126811928D01*
X170035750Y-126815000D01*
X169877000Y-126973750D01*
X169623000Y-126973750D01*
X169464250Y-126815000D01*
X168450000Y-126811928D01*
X168325518Y-126824188D01*
X168205820Y-126860498D01*
X168095506Y-126919463D01*
X167998815Y-126998815D01*
X167919463Y-127095506D01*
X167860498Y-127205820D01*
X167824188Y-127325518D01*
X167811928Y-127450000D01*
X163777000Y-127450000D01*
X163777000Y-123671527D01*
X163837353Y-123581202D01*
X163887345Y-123460509D01*
X167623000Y-123460509D01*
X167623000Y-123879491D01*
X167704739Y-124290423D01*
X167865077Y-124677512D01*
X168097851Y-125025884D01*
X168394116Y-125322149D01*
X168742488Y-125554923D01*
X169129577Y-125715261D01*
X169540509Y-125797000D01*
X169959491Y-125797000D01*
X170370423Y-125715261D01*
X170757512Y-125554923D01*
X171105884Y-125322149D01*
X171402149Y-125025884D01*
X171634923Y-124677512D01*
X171795261Y-124290423D01*
X171877000Y-123879491D01*
X171877000Y-123460509D01*
X171795261Y-123049577D01*
X171634923Y-122662488D01*
X171402149Y-122314116D01*
X171105884Y-122017851D01*
X170757512Y-121785077D01*
X170370423Y-121624739D01*
X169959491Y-121543000D01*
X169540509Y-121543000D01*
X169129577Y-121624739D01*
X168742488Y-121785077D01*
X168394116Y-122017851D01*
X168097851Y-122314116D01*
X167865077Y-122662488D01*
X167704739Y-123049577D01*
X167623000Y-123460509D01*
X163887345Y-123460509D01*
X163929847Y-123357903D01*
X163977000Y-123120849D01*
X163977000Y-122879151D01*
X163929847Y-122642097D01*
X163837353Y-122418798D01*
X163703073Y-122217833D01*
X163532167Y-122046927D01*
X163331202Y-121912647D01*
X163107903Y-121820153D01*
X162870849Y-121773000D01*
X162629151Y-121773000D01*
X162392097Y-121820153D01*
X162168798Y-121912647D01*
X161967833Y-122046927D01*
X161796927Y-122217833D01*
X161662647Y-122418798D01*
X161570153Y-122642097D01*
X161523000Y-122879151D01*
X161523000Y-123120849D01*
X161570153Y-123357903D01*
X161662647Y-123581202D01*
X161723000Y-123671527D01*
X161723001Y-128204601D01*
X160962171Y-128965431D01*
X161141463Y-128630000D01*
X161160270Y-128594815D01*
X161293330Y-128156174D01*
X161327000Y-127814317D01*
X161327000Y-127814307D01*
X161338258Y-127700003D01*
X161327000Y-127585699D01*
X161327000Y-121610694D01*
X161293330Y-121268837D01*
X161160270Y-120830196D01*
X160944191Y-120425942D01*
X160653399Y-120071610D01*
X160299067Y-119780818D01*
X159894813Y-119564739D01*
X159456172Y-119431679D01*
X159278542Y-119414184D01*
X159197180Y-119398000D01*
X159114223Y-119398000D01*
X159000000Y-119386750D01*
X158885777Y-119398000D01*
X158802820Y-119398000D01*
X158721457Y-119414184D01*
X158543829Y-119431679D01*
X158105188Y-119564739D01*
X157700934Y-119780818D01*
X157346602Y-120071610D01*
X157055810Y-120425942D01*
X156839730Y-120830196D01*
X156706670Y-121268837D01*
X156673000Y-121610694D01*
X156673000Y-126736127D01*
X156444312Y-126964816D01*
X156429847Y-126892097D01*
X156337353Y-126668798D01*
X156203073Y-126467833D01*
X156032167Y-126296927D01*
X155831202Y-126162647D01*
X155607903Y-126070153D01*
X155370849Y-126023000D01*
X155129151Y-126023000D01*
X154892097Y-126070153D01*
X154668798Y-126162647D01*
X154467833Y-126296927D01*
X154296927Y-126467833D01*
X154162647Y-126668798D01*
X154070153Y-126892097D01*
X154048960Y-126998644D01*
X151809481Y-129238123D01*
X151770288Y-129270288D01*
X151641949Y-129426669D01*
X151546585Y-129605084D01*
X151487860Y-129798674D01*
X151486987Y-129807540D01*
X151412647Y-129918798D01*
X151320153Y-130142097D01*
X151273000Y-130379151D01*
X151273000Y-130620849D01*
X151283374Y-130673001D01*
X140133876Y-130673001D01*
X136564604Y-127103730D01*
X136299066Y-126885809D01*
X135894813Y-126669731D01*
X135456171Y-126536671D01*
X135305557Y-126521836D01*
X134959491Y-126453000D01*
X134540509Y-126453000D01*
X134129577Y-126534739D01*
X133742488Y-126695077D01*
X133394116Y-126927851D01*
X133097851Y-127224116D01*
X132865077Y-127572488D01*
X132704739Y-127959577D01*
X132623000Y-128370509D01*
X132623000Y-128789491D01*
X132691836Y-129135557D01*
X132706671Y-129286171D01*
X132839731Y-129724813D01*
X133055809Y-130129066D01*
X133273730Y-130394604D01*
X133505754Y-130626628D01*
X133418798Y-130662647D01*
X133217833Y-130796927D01*
X133046927Y-130967833D01*
X132912647Y-131168798D01*
X132820153Y-131392097D01*
X132773000Y-131629151D01*
X132773000Y-131870849D01*
X132800583Y-132009519D01*
X132766104Y-132043999D01*
X132050000Y-132043999D01*
X131839107Y-132064770D01*
X131636319Y-132126285D01*
X131449428Y-132226181D01*
X131285617Y-132360617D01*
X131151181Y-132524428D01*
X131051285Y-132711319D01*
X130989770Y-132914107D01*
X130968999Y-133125000D01*
X130968999Y-134375000D01*
X130989770Y-134585893D01*
X131051285Y-134788681D01*
X131151181Y-134975572D01*
X131285617Y-135139383D01*
X131449428Y-135273819D01*
X131636319Y-135373715D01*
X131839107Y-135435230D01*
X132050000Y-135456001D01*
X132055561Y-135456001D01*
X131432937Y-135872025D01*
X130877000Y-136427962D01*
X130877000Y-124800000D01*
X132811928Y-124800000D01*
X132824188Y-124924482D01*
X132860498Y-125044180D01*
X132919463Y-125154494D01*
X132998815Y-125251185D01*
X133095506Y-125330537D01*
X133205820Y-125389502D01*
X133325518Y-125425812D01*
X133450000Y-125438072D01*
X134464250Y-125435000D01*
X134623000Y-125276250D01*
X134623000Y-123627000D01*
X134877000Y-123627000D01*
X134877000Y-125276250D01*
X135035750Y-125435000D01*
X136050000Y-125438072D01*
X136174482Y-125425812D01*
X136294180Y-125389502D01*
X136404494Y-125330537D01*
X136501185Y-125251185D01*
X136580537Y-125154494D01*
X136639502Y-125044180D01*
X136675812Y-124924482D01*
X136688072Y-124800000D01*
X136685000Y-123785750D01*
X136526250Y-123627000D01*
X134877000Y-123627000D01*
X134623000Y-123627000D01*
X132973750Y-123627000D01*
X132815000Y-123785750D01*
X132811928Y-124800000D01*
X130877000Y-124800000D01*
X130877000Y-101150000D01*
X131318999Y-101150000D01*
X131318999Y-102850000D01*
X131334966Y-103012120D01*
X131382255Y-103168010D01*
X131459048Y-103311679D01*
X131562394Y-103437606D01*
X131688321Y-103540952D01*
X131831990Y-103617745D01*
X131987880Y-103665034D01*
X132150000Y-103681001D01*
X133850000Y-103681001D01*
X134012120Y-103665034D01*
X134168010Y-103617745D01*
X134311679Y-103540952D01*
X134437606Y-103437606D01*
X134528378Y-103327000D01*
X134826340Y-103327000D01*
X133727766Y-104425574D01*
X133727761Y-104425578D01*
X132457765Y-105695575D01*
X132407130Y-105737130D01*
X132338995Y-105820153D01*
X132241302Y-105939192D01*
X132132926Y-106141950D01*
X132118081Y-106169723D01*
X132042201Y-106419864D01*
X132023000Y-106614817D01*
X132023000Y-106614826D01*
X132016581Y-106680000D01*
X132023000Y-106745174D01*
X132023001Y-117784807D01*
X132023000Y-117784817D01*
X132023000Y-117784826D01*
X132016581Y-117850000D01*
X132023000Y-117915174D01*
X132023000Y-119784826D01*
X132016581Y-119850000D01*
X132023000Y-119915174D01*
X132023000Y-119915184D01*
X132042201Y-120110137D01*
X132118081Y-120360278D01*
X132241302Y-120590808D01*
X132407131Y-120792870D01*
X132457761Y-120834421D01*
X132765575Y-121142235D01*
X132807130Y-121192870D01*
X133009192Y-121358698D01*
X133239722Y-121481919D01*
X133489863Y-121557799D01*
X133534381Y-121562184D01*
X133450000Y-121561928D01*
X133325518Y-121574188D01*
X133205820Y-121610498D01*
X133095506Y-121669463D01*
X132998815Y-121748815D01*
X132919463Y-121845506D01*
X132860498Y-121955820D01*
X132824188Y-122075518D01*
X132811928Y-122200000D01*
X132815000Y-123214250D01*
X132973750Y-123373000D01*
X134623000Y-123373000D01*
X134623000Y-123353000D01*
X134877000Y-123353000D01*
X134877000Y-123373000D01*
X136526250Y-123373000D01*
X136685000Y-123214250D01*
X136685648Y-123000000D01*
X139166581Y-123000000D01*
X139173000Y-123065174D01*
X139173000Y-123130698D01*
X139185783Y-123194962D01*
X139192202Y-123260137D01*
X139211213Y-123322809D01*
X139223996Y-123387072D01*
X139249070Y-123447605D01*
X139268081Y-123510277D01*
X139298955Y-123568038D01*
X139324028Y-123628570D01*
X139360427Y-123683046D01*
X139391302Y-123740808D01*
X139432852Y-123791437D01*
X139469252Y-123845913D01*
X139654087Y-124030748D01*
X139654090Y-124030750D01*
X140015574Y-124392234D01*
X140057129Y-124442869D01*
X140259191Y-124608697D01*
X140489721Y-124731918D01*
X140739862Y-124807798D01*
X140934815Y-124826999D01*
X140934827Y-124826999D01*
X140999998Y-124833418D01*
X141065170Y-124826999D01*
X148134827Y-124826999D01*
X148200001Y-124833418D01*
X148265175Y-124826999D01*
X148265185Y-124826999D01*
X148460138Y-124807798D01*
X148710279Y-124731918D01*
X148940809Y-124608697D01*
X149142871Y-124442869D01*
X149184426Y-124392234D01*
X149538234Y-124038426D01*
X149588869Y-123996871D01*
X149630424Y-123946236D01*
X150654499Y-122922161D01*
X150738321Y-122990952D01*
X150881990Y-123067745D01*
X151037880Y-123115034D01*
X151200000Y-123131001D01*
X152800000Y-123131001D01*
X152962120Y-123115034D01*
X153118010Y-123067745D01*
X153261679Y-122990952D01*
X153387606Y-122887606D01*
X153490952Y-122761679D01*
X153567745Y-122618010D01*
X153615034Y-122462120D01*
X153631001Y-122300000D01*
X153631001Y-120700000D01*
X153615034Y-120537880D01*
X153567745Y-120381990D01*
X153490952Y-120238321D01*
X153387606Y-120112394D01*
X153261679Y-120009048D01*
X153118010Y-119932255D01*
X152962120Y-119884966D01*
X152800000Y-119868999D01*
X151200000Y-119868999D01*
X151037880Y-119884966D01*
X150881990Y-119932255D01*
X150738321Y-120009048D01*
X150612394Y-120112394D01*
X150562656Y-120173000D01*
X150265173Y-120173000D01*
X150199999Y-120166581D01*
X150134825Y-120173000D01*
X150134816Y-120173000D01*
X149972999Y-120188937D01*
X149972999Y-118782341D01*
X150232233Y-118523108D01*
X150516624Y-118807499D01*
X150897752Y-119062160D01*
X151321239Y-119237574D01*
X151770811Y-119327000D01*
X152229189Y-119327000D01*
X152678761Y-119237574D01*
X153102248Y-119062160D01*
X153483376Y-118807499D01*
X153807499Y-118483376D01*
X154062160Y-118102248D01*
X154237574Y-117678761D01*
X154327000Y-117229189D01*
X154327000Y-116770811D01*
X154237574Y-116321239D01*
X154062160Y-115897752D01*
X153807499Y-115516624D01*
X153483376Y-115192501D01*
X153102248Y-114937840D01*
X152678761Y-114762426D01*
X152229189Y-114673000D01*
X151770811Y-114673000D01*
X151321239Y-114762426D01*
X150897752Y-114937840D01*
X150516624Y-115192501D01*
X150192501Y-115516624D01*
X150088014Y-115673000D01*
X149943853Y-115673000D01*
X149878679Y-115666581D01*
X149813505Y-115673000D01*
X149813496Y-115673000D01*
X149618543Y-115692201D01*
X149368402Y-115768081D01*
X149137870Y-115891302D01*
X148986442Y-116015577D01*
X148935810Y-116057130D01*
X148894259Y-116107760D01*
X147753764Y-117248256D01*
X147703129Y-117289811D01*
X147661577Y-117340443D01*
X147537301Y-117491873D01*
X147437408Y-117678761D01*
X147414080Y-117722404D01*
X147338200Y-117972545D01*
X147318999Y-118167498D01*
X147318999Y-118167507D01*
X147312580Y-118232681D01*
X147318999Y-118297855D01*
X147319000Y-122172999D01*
X145862286Y-122172999D01*
X145944475Y-121974578D01*
X146007000Y-121660245D01*
X146007000Y-121339755D01*
X145944475Y-121025422D01*
X145821828Y-120729327D01*
X145643773Y-120462848D01*
X145417152Y-120236227D01*
X145150673Y-120058172D01*
X144854578Y-119935525D01*
X144540245Y-119873000D01*
X144219755Y-119873000D01*
X143905422Y-119935525D01*
X143609327Y-120058172D01*
X143342848Y-120236227D01*
X143116227Y-120462848D01*
X142938172Y-120729327D01*
X142815525Y-121025422D01*
X142753000Y-121339755D01*
X142753000Y-121660245D01*
X142815525Y-121974578D01*
X142897714Y-122172999D01*
X141549659Y-122172999D01*
X141530750Y-122154090D01*
X141530748Y-122154087D01*
X141345913Y-121969252D01*
X141291437Y-121932852D01*
X141240808Y-121891302D01*
X141183046Y-121860427D01*
X141128570Y-121824028D01*
X141068038Y-121798955D01*
X141010277Y-121768081D01*
X140947605Y-121749070D01*
X140887072Y-121723996D01*
X140822809Y-121711213D01*
X140760137Y-121692202D01*
X140694962Y-121685783D01*
X140630698Y-121673000D01*
X140565174Y-121673000D01*
X140500000Y-121666581D01*
X140434826Y-121673000D01*
X140369302Y-121673000D01*
X140305038Y-121685783D01*
X140239863Y-121692202D01*
X140177191Y-121711213D01*
X140112928Y-121723996D01*
X140052395Y-121749070D01*
X139989723Y-121768081D01*
X139931962Y-121798955D01*
X139871430Y-121824028D01*
X139816954Y-121860427D01*
X139759192Y-121891302D01*
X139708562Y-121932853D01*
X139654087Y-121969252D01*
X139607761Y-122015578D01*
X139557130Y-122057130D01*
X139515579Y-122107760D01*
X139469252Y-122154087D01*
X139432853Y-122208562D01*
X139391302Y-122259192D01*
X139360427Y-122316954D01*
X139324028Y-122371430D01*
X139298955Y-122431962D01*
X139268081Y-122489723D01*
X139249070Y-122552395D01*
X139223996Y-122612928D01*
X139211213Y-122677191D01*
X139192202Y-122739863D01*
X139185783Y-122805038D01*
X139173000Y-122869302D01*
X139173000Y-122934826D01*
X139166581Y-123000000D01*
X136685648Y-123000000D01*
X136688072Y-122200000D01*
X136675812Y-122075518D01*
X136639502Y-121955820D01*
X136580537Y-121845506D01*
X136501185Y-121748815D01*
X136404494Y-121669463D01*
X136294180Y-121610498D01*
X136183752Y-121577000D01*
X140130698Y-121577000D01*
X140194952Y-121564219D01*
X140260137Y-121557799D01*
X140322817Y-121538785D01*
X140387072Y-121526004D01*
X140447601Y-121500932D01*
X140510278Y-121481919D01*
X140568041Y-121451044D01*
X140628570Y-121425972D01*
X140683045Y-121389573D01*
X140740808Y-121358698D01*
X140791438Y-121317147D01*
X140845913Y-121280748D01*
X140892240Y-121234421D01*
X140942870Y-121192870D01*
X140984421Y-121142240D01*
X141030748Y-121095913D01*
X141067147Y-121041438D01*
X141108698Y-120990808D01*
X141139573Y-120933045D01*
X141175972Y-120878570D01*
X141201044Y-120818041D01*
X141231919Y-120760278D01*
X141250932Y-120697601D01*
X141276004Y-120637072D01*
X141288785Y-120572817D01*
X141307799Y-120510137D01*
X141314219Y-120444952D01*
X141327000Y-120380698D01*
X141327000Y-120315184D01*
X141333420Y-120250000D01*
X141327000Y-120184816D01*
X141327000Y-120119302D01*
X141314219Y-120055048D01*
X141307799Y-119989863D01*
X141288785Y-119927183D01*
X141276004Y-119862928D01*
X141250932Y-119802399D01*
X141231919Y-119739722D01*
X141201044Y-119681959D01*
X141175972Y-119621430D01*
X141139573Y-119566955D01*
X141108698Y-119509192D01*
X141067147Y-119458562D01*
X141030748Y-119404087D01*
X140984421Y-119357760D01*
X140942870Y-119307130D01*
X140892240Y-119265579D01*
X140845913Y-119219252D01*
X140791438Y-119182853D01*
X140740808Y-119141302D01*
X140683045Y-119110427D01*
X140628570Y-119074028D01*
X140568041Y-119048956D01*
X140510278Y-119018081D01*
X140447601Y-118999068D01*
X140387072Y-118973996D01*
X140322817Y-118961215D01*
X140260137Y-118942201D01*
X140194952Y-118935781D01*
X140130698Y-118923000D01*
X134677000Y-118923000D01*
X134677000Y-118399660D01*
X134749661Y-118327000D01*
X135848484Y-118327000D01*
X135938801Y-118401121D01*
X136230135Y-118556842D01*
X136546251Y-118652735D01*
X136792617Y-118677000D01*
X137207383Y-118677000D01*
X137453749Y-118652735D01*
X137769865Y-118556842D01*
X138061199Y-118401121D01*
X138316556Y-118191556D01*
X138526121Y-117936199D01*
X138681842Y-117644865D01*
X138777735Y-117328749D01*
X138810114Y-117000000D01*
X138787541Y-116770811D01*
X142173000Y-116770811D01*
X142173000Y-117229189D01*
X142262426Y-117678761D01*
X142437840Y-118102248D01*
X142692501Y-118483376D01*
X143016624Y-118807499D01*
X143397752Y-119062160D01*
X143821239Y-119237574D01*
X144270811Y-119327000D01*
X144729189Y-119327000D01*
X145178761Y-119237574D01*
X145602248Y-119062160D01*
X145983376Y-118807499D01*
X146307499Y-118483376D01*
X146562160Y-118102248D01*
X146737574Y-117678761D01*
X146827000Y-117229189D01*
X146827000Y-116770811D01*
X146737574Y-116321239D01*
X146562160Y-115897752D01*
X146307499Y-115516624D01*
X145983376Y-115192501D01*
X145602248Y-114937840D01*
X145178761Y-114762426D01*
X144729189Y-114673000D01*
X144270811Y-114673000D01*
X143821239Y-114762426D01*
X143397752Y-114937840D01*
X143016624Y-115192501D01*
X142692501Y-115516624D01*
X142437840Y-115897752D01*
X142262426Y-116321239D01*
X142173000Y-116770811D01*
X138787541Y-116770811D01*
X138777735Y-116671251D01*
X138681842Y-116355135D01*
X138526121Y-116063801D01*
X138316556Y-115808444D01*
X138245341Y-115750000D01*
X138316556Y-115691556D01*
X138526121Y-115436199D01*
X138681842Y-115144865D01*
X138777735Y-114828749D01*
X138810114Y-114500000D01*
X138777735Y-114171251D01*
X138681842Y-113855135D01*
X138526121Y-113563801D01*
X138316556Y-113308444D01*
X138090164Y-113122650D01*
X138134429Y-113089049D01*
X138327496Y-112871193D01*
X138474352Y-112619858D01*
X138566476Y-112356890D01*
X138445155Y-112127000D01*
X137127000Y-112127000D01*
X137127000Y-112147000D01*
X136873000Y-112147000D01*
X136873000Y-112127000D01*
X135554845Y-112127000D01*
X135433524Y-112356890D01*
X135525648Y-112619858D01*
X135672504Y-112871193D01*
X135865571Y-113089049D01*
X135909836Y-113122650D01*
X135683444Y-113308444D01*
X135473879Y-113563801D01*
X135318158Y-113855135D01*
X135222265Y-114171251D01*
X135189886Y-114500000D01*
X135222265Y-114828749D01*
X135318158Y-115144865D01*
X135473879Y-115436199D01*
X135668216Y-115673000D01*
X134677000Y-115673000D01*
X134677000Y-107229660D01*
X135193999Y-106712662D01*
X135193999Y-107600000D01*
X135214770Y-107810893D01*
X135276285Y-108013681D01*
X135376181Y-108200572D01*
X135510617Y-108364383D01*
X135586457Y-108426623D01*
X135473879Y-108563801D01*
X135318158Y-108855135D01*
X135222265Y-109171251D01*
X135189886Y-109500000D01*
X135222265Y-109828749D01*
X135318158Y-110144865D01*
X135473879Y-110436199D01*
X135683444Y-110691556D01*
X135909836Y-110877350D01*
X135865571Y-110910951D01*
X135672504Y-111128807D01*
X135525648Y-111380142D01*
X135433524Y-111643110D01*
X135554845Y-111873000D01*
X136873000Y-111873000D01*
X136873000Y-111853000D01*
X137127000Y-111853000D01*
X137127000Y-111873000D01*
X138445155Y-111873000D01*
X138566476Y-111643110D01*
X138474352Y-111380142D01*
X138327496Y-111128807D01*
X138134429Y-110910951D01*
X138090164Y-110877350D01*
X138316556Y-110691556D01*
X138451603Y-110527000D01*
X138574604Y-110527000D01*
X139223001Y-111175398D01*
X139223000Y-113449559D01*
X139218032Y-113500000D01*
X139223000Y-113550441D01*
X139223000Y-113550450D01*
X139237860Y-113701326D01*
X139296585Y-113894916D01*
X139391949Y-114073331D01*
X139520288Y-114229712D01*
X139559480Y-114261876D01*
X139988127Y-114690524D01*
X140020288Y-114729712D01*
X140176669Y-114858051D01*
X140355083Y-114953415D01*
X140489947Y-114994326D01*
X140548672Y-115012140D01*
X140566831Y-115013928D01*
X140699549Y-115027000D01*
X140699556Y-115027000D01*
X140750000Y-115031968D01*
X140800443Y-115027000D01*
X141078473Y-115027000D01*
X141168798Y-115087353D01*
X141392097Y-115179847D01*
X141629151Y-115227000D01*
X141870849Y-115227000D01*
X142107903Y-115179847D01*
X142331202Y-115087353D01*
X142532167Y-114953073D01*
X142703073Y-114782167D01*
X142837353Y-114581202D01*
X142929847Y-114357903D01*
X142977000Y-114120849D01*
X142977000Y-113879151D01*
X142929847Y-113642097D01*
X142837353Y-113418798D01*
X142703073Y-113217833D01*
X142532167Y-113046927D01*
X142331202Y-112912647D01*
X142107903Y-112820153D01*
X141870849Y-112773000D01*
X141629151Y-112773000D01*
X141392097Y-112820153D01*
X141277000Y-112867828D01*
X141277000Y-110800441D01*
X141281968Y-110750000D01*
X141277000Y-110699559D01*
X141277000Y-110699549D01*
X141262140Y-110548673D01*
X141255566Y-110527000D01*
X145283373Y-110527000D01*
X145320153Y-110711903D01*
X145412647Y-110935202D01*
X145546927Y-111136167D01*
X145717833Y-111307073D01*
X145918798Y-111441353D01*
X146142097Y-111533847D01*
X146248644Y-111555041D01*
X147791469Y-113097866D01*
X147823630Y-113137054D01*
X147980011Y-113265393D01*
X148158425Y-113360757D01*
X148352015Y-113419482D01*
X148502891Y-113434342D01*
X148502900Y-113434342D01*
X148553341Y-113439310D01*
X148603782Y-113434342D01*
X153584797Y-113434342D01*
X153585386Y-113434930D01*
X153606579Y-113541477D01*
X153699073Y-113764776D01*
X153833353Y-113965741D01*
X154004259Y-114136647D01*
X154205224Y-114270927D01*
X154428523Y-114363421D01*
X154535070Y-114384614D01*
X155584475Y-115434021D01*
X155584485Y-115434030D01*
X155994989Y-115844534D01*
X156027150Y-115883722D01*
X156183531Y-116012061D01*
X156361945Y-116107425D01*
X156496809Y-116148336D01*
X156555534Y-116166150D01*
X156573693Y-116167938D01*
X156706411Y-116181010D01*
X156706418Y-116181010D01*
X156756862Y-116185978D01*
X156807305Y-116181010D01*
X165473000Y-116181010D01*
X165473000Y-116424558D01*
X165468032Y-116475000D01*
X165473000Y-116525441D01*
X165473000Y-116525450D01*
X165487860Y-116676326D01*
X165546585Y-116869916D01*
X165641949Y-117048331D01*
X165770288Y-117204712D01*
X165809481Y-117236877D01*
X166196336Y-117623732D01*
X166214770Y-117810893D01*
X166276285Y-118013681D01*
X166376181Y-118200572D01*
X166510617Y-118364383D01*
X166674428Y-118498819D01*
X166861319Y-118598715D01*
X167064107Y-118660230D01*
X167275000Y-118681001D01*
X168725000Y-118681001D01*
X168935893Y-118660230D01*
X169138681Y-118598715D01*
X169325572Y-118498819D01*
X169489383Y-118364383D01*
X169623819Y-118200572D01*
X169723715Y-118013681D01*
X169785230Y-117810893D01*
X169806001Y-117600000D01*
X169806001Y-116400000D01*
X169785230Y-116189107D01*
X169723715Y-115986319D01*
X169623819Y-115799428D01*
X169489383Y-115635617D01*
X169413543Y-115573377D01*
X169526121Y-115436199D01*
X169681842Y-115144865D01*
X169777735Y-114828749D01*
X169810114Y-114500000D01*
X169777735Y-114171251D01*
X169681842Y-113855135D01*
X169526121Y-113563801D01*
X169316556Y-113308444D01*
X169090164Y-113122650D01*
X169134429Y-113089049D01*
X169327496Y-112871193D01*
X169474352Y-112619858D01*
X169566476Y-112356890D01*
X169445155Y-112127000D01*
X168127000Y-112127000D01*
X168127000Y-112147000D01*
X167873000Y-112147000D01*
X167873000Y-112127000D01*
X166554845Y-112127000D01*
X166433524Y-112356890D01*
X166525648Y-112619858D01*
X166672504Y-112871193D01*
X166865571Y-113089049D01*
X166909836Y-113122650D01*
X166683444Y-113308444D01*
X166548397Y-113473000D01*
X163502344Y-113473000D01*
X163532167Y-113453073D01*
X163703073Y-113282167D01*
X163837353Y-113081202D01*
X163929847Y-112857903D01*
X163977000Y-112620849D01*
X163977000Y-112379151D01*
X163929847Y-112142097D01*
X163837353Y-111918798D01*
X163777000Y-111828473D01*
X163777000Y-110550440D01*
X163781968Y-110499999D01*
X163777000Y-110449558D01*
X163777000Y-110449549D01*
X163762140Y-110298673D01*
X163703415Y-110105083D01*
X163608051Y-109926669D01*
X163479712Y-109770288D01*
X163440525Y-109738128D01*
X160516826Y-106814430D01*
X160555055Y-106776201D01*
X160774150Y-106448303D01*
X160925064Y-106083962D01*
X161002000Y-105697180D01*
X161002000Y-105302820D01*
X160925064Y-104916038D01*
X160774150Y-104551697D01*
X160555055Y-104223799D01*
X160276201Y-103944945D01*
X159948303Y-103725850D01*
X159583962Y-103574936D01*
X159197180Y-103498000D01*
X158802820Y-103498000D01*
X158416038Y-103574936D01*
X158051697Y-103725850D01*
X157723799Y-103944945D01*
X157444945Y-104223799D01*
X157225850Y-104551697D01*
X157074936Y-104916038D01*
X156998000Y-105302820D01*
X156998000Y-105697180D01*
X157074936Y-106083962D01*
X157194658Y-106372999D01*
X157056751Y-106372999D01*
X156953073Y-106217833D01*
X156782167Y-106046927D01*
X156581202Y-105912647D01*
X156357903Y-105820153D01*
X156120849Y-105773000D01*
X155879151Y-105773000D01*
X155642097Y-105820153D01*
X155418798Y-105912647D01*
X155217833Y-106046927D01*
X155046927Y-106217833D01*
X154912647Y-106418798D01*
X154820153Y-106642097D01*
X154773000Y-106879151D01*
X154773000Y-107120849D01*
X154820153Y-107357903D01*
X154912647Y-107581202D01*
X155046927Y-107782167D01*
X155217833Y-107953073D01*
X155418798Y-108087353D01*
X155642097Y-108179847D01*
X155759940Y-108203287D01*
X155826668Y-108258050D01*
X156005082Y-108353414D01*
X156198672Y-108412139D01*
X156349548Y-108426999D01*
X156349557Y-108426999D01*
X156399998Y-108431967D01*
X156450439Y-108426999D01*
X157900317Y-108426999D01*
X157723799Y-108544945D01*
X157444945Y-108823799D01*
X157225850Y-109151697D01*
X157074936Y-109516038D01*
X156998000Y-109902820D01*
X156998000Y-110297180D01*
X157074936Y-110683962D01*
X157225850Y-111048303D01*
X157444945Y-111376201D01*
X157723799Y-111655055D01*
X158051697Y-111874150D01*
X158416038Y-112025064D01*
X158802820Y-112102000D01*
X159197180Y-112102000D01*
X159583962Y-112025064D01*
X159948303Y-111874150D01*
X160276201Y-111655055D01*
X160555055Y-111376201D01*
X160774150Y-111048303D01*
X160925064Y-110683962D01*
X161002000Y-110297180D01*
X161002000Y-110204397D01*
X161723001Y-110925398D01*
X161723000Y-111828472D01*
X161662647Y-111918798D01*
X161570153Y-112142097D01*
X161523000Y-112379151D01*
X161523000Y-112620849D01*
X161570153Y-112857903D01*
X161662647Y-113081202D01*
X161796927Y-113282167D01*
X161967833Y-113453073D01*
X161997656Y-113473000D01*
X157735989Y-113473000D01*
X153072468Y-108809481D01*
X153040303Y-108770288D01*
X152883922Y-108641949D01*
X152705508Y-108546585D01*
X152511918Y-108487860D01*
X152361042Y-108473000D01*
X152361032Y-108473000D01*
X152310591Y-108468032D01*
X152260150Y-108473000D01*
X147039250Y-108473000D01*
X147045870Y-108439719D01*
X147045870Y-108198021D01*
X146998717Y-107960967D01*
X146906223Y-107737668D01*
X146771943Y-107536703D01*
X146601037Y-107365797D01*
X146400072Y-107231517D01*
X146176773Y-107139023D01*
X146070227Y-107117830D01*
X145689397Y-106737000D01*
X153604826Y-106737000D01*
X153670000Y-106743419D01*
X153735174Y-106737000D01*
X153735184Y-106737000D01*
X153930137Y-106717799D01*
X154180278Y-106641919D01*
X154410808Y-106518698D01*
X154612870Y-106352870D01*
X154654425Y-106302235D01*
X158069661Y-102887000D01*
X159625242Y-102887000D01*
X160076911Y-103218545D01*
X160960421Y-104308290D01*
X160962301Y-104311807D01*
X161042557Y-104409599D01*
X161081264Y-104457341D01*
X161084062Y-104460173D01*
X161086577Y-104463237D01*
X161129860Y-104506520D01*
X161218955Y-104596684D01*
X161222262Y-104598923D01*
X162977761Y-106354423D01*
X162977772Y-106354432D01*
X164515579Y-107892240D01*
X164557130Y-107942870D01*
X164607760Y-107984421D01*
X164607761Y-107984422D01*
X164759191Y-108108698D01*
X164883114Y-108174936D01*
X164989722Y-108231919D01*
X165239863Y-108307799D01*
X165434816Y-108327000D01*
X165434825Y-108327000D01*
X165499999Y-108333419D01*
X165565173Y-108327000D01*
X166668216Y-108327000D01*
X166473879Y-108563801D01*
X166318158Y-108855135D01*
X166222265Y-109171251D01*
X166189886Y-109500000D01*
X166222265Y-109828749D01*
X166318158Y-110144865D01*
X166473879Y-110436199D01*
X166683444Y-110691556D01*
X166909836Y-110877350D01*
X166865571Y-110910951D01*
X166672504Y-111128807D01*
X166525648Y-111380142D01*
X166433524Y-111643110D01*
X166554845Y-111873000D01*
X167873000Y-111873000D01*
X167873000Y-111853000D01*
X168127000Y-111853000D01*
X168127000Y-111873000D01*
X169445155Y-111873000D01*
X169566476Y-111643110D01*
X169474352Y-111380142D01*
X169327496Y-111128807D01*
X169134429Y-110910951D01*
X169090164Y-110877350D01*
X169316556Y-110691556D01*
X169526121Y-110436199D01*
X169681842Y-110144865D01*
X169777735Y-109828749D01*
X169810114Y-109500000D01*
X169777735Y-109171251D01*
X169681842Y-108855135D01*
X169526121Y-108563801D01*
X169316556Y-108308444D01*
X169245341Y-108250000D01*
X169316556Y-108191556D01*
X169526121Y-107936199D01*
X169681842Y-107644865D01*
X169777735Y-107328749D01*
X169810114Y-107000000D01*
X169777735Y-106671251D01*
X169681842Y-106355135D01*
X169526121Y-106063801D01*
X169316556Y-105808444D01*
X169061199Y-105598879D01*
X168769865Y-105443158D01*
X168453749Y-105347265D01*
X168207383Y-105323000D01*
X167792617Y-105323000D01*
X167546251Y-105347265D01*
X167230135Y-105443158D01*
X166938801Y-105598879D01*
X166848484Y-105673000D01*
X166049661Y-105673000D01*
X164854432Y-104477772D01*
X164854423Y-104477761D01*
X163703661Y-103327000D01*
X163729189Y-103327000D01*
X164178761Y-103237574D01*
X164602248Y-103062160D01*
X164983376Y-102807499D01*
X165307499Y-102483376D01*
X165562160Y-102102248D01*
X165737574Y-101678761D01*
X165827000Y-101229189D01*
X165827000Y-100770811D01*
X165737574Y-100321239D01*
X165562160Y-99897752D01*
X165307499Y-99516624D01*
X164983376Y-99192501D01*
X164810516Y-99077000D01*
X166880698Y-99077000D01*
X166944952Y-99064219D01*
X167010137Y-99057799D01*
X167072817Y-99038785D01*
X167137072Y-99026004D01*
X167173000Y-99011122D01*
X167173000Y-99229189D01*
X167262426Y-99678761D01*
X167437840Y-100102248D01*
X167692501Y-100483376D01*
X168016624Y-100807499D01*
X168397752Y-101062160D01*
X168821239Y-101237574D01*
X169270811Y-101327000D01*
X169729189Y-101327000D01*
X170178761Y-101237574D01*
X170602248Y-101062160D01*
X170983376Y-100807499D01*
X171307499Y-100483376D01*
X171562160Y-100102248D01*
X171737574Y-99678761D01*
X171827000Y-99229189D01*
X171827000Y-98770811D01*
X171737574Y-98321239D01*
X171562160Y-97897752D01*
X171307499Y-97516624D01*
X170983376Y-97192501D01*
X170602248Y-96937840D01*
X170178761Y-96762426D01*
X169729189Y-96673000D01*
X169270811Y-96673000D01*
X168821239Y-96762426D01*
X168397752Y-96937840D01*
X168016624Y-97192501D01*
X167977559Y-97231566D01*
X167951044Y-97181959D01*
X167925972Y-97121430D01*
X167889573Y-97066955D01*
X167858698Y-97009192D01*
X167817147Y-96958562D01*
X167780748Y-96904087D01*
X167734421Y-96857760D01*
X167692870Y-96807130D01*
X167642239Y-96765578D01*
X167595913Y-96719252D01*
X167541438Y-96682853D01*
X167490808Y-96641302D01*
X167433045Y-96610427D01*
X167378570Y-96574028D01*
X167318041Y-96548956D01*
X167260278Y-96518081D01*
X167197601Y-96499068D01*
X167137072Y-96473996D01*
X167072817Y-96461215D01*
X167010137Y-96442201D01*
X166944952Y-96435781D01*
X166880698Y-96423000D01*
X163479252Y-96423000D01*
X163414078Y-96416581D01*
X163348904Y-96423000D01*
X163348894Y-96423000D01*
X163153941Y-96442201D01*
X162962103Y-96500395D01*
X162903800Y-96518081D01*
X162673269Y-96641302D01*
X162573935Y-96722824D01*
X162471208Y-96807130D01*
X162429657Y-96857760D01*
X160107765Y-99179653D01*
X160057130Y-99221208D01*
X160015578Y-99271840D01*
X159891302Y-99423270D01*
X159859475Y-99482814D01*
X159790309Y-99413648D01*
X159827000Y-99229189D01*
X159827000Y-98770811D01*
X159737574Y-98321239D01*
X159562160Y-97897752D01*
X159307499Y-97516624D01*
X158983376Y-97192501D01*
X158602248Y-96937840D01*
X158178761Y-96762426D01*
X157729189Y-96673000D01*
X157270811Y-96673000D01*
X156821239Y-96762426D01*
X156397752Y-96937840D01*
X156016624Y-97192501D01*
X155692501Y-97516624D01*
X155437840Y-97897752D01*
X155262426Y-98321239D01*
X155173000Y-98770811D01*
X155173000Y-99229189D01*
X155262426Y-99678761D01*
X155437840Y-100102248D01*
X155692501Y-100483376D01*
X156016624Y-100807499D01*
X156243948Y-100959391D01*
X153120340Y-104083000D01*
X140249661Y-104083000D01*
X138144422Y-101977762D01*
X138102870Y-101927130D01*
X138052236Y-101885576D01*
X137274425Y-101107765D01*
X137232870Y-101057130D01*
X137030808Y-100891302D01*
X136800278Y-100768081D01*
X136550137Y-100692201D01*
X136355184Y-100673000D01*
X136355174Y-100673000D01*
X136290000Y-100666581D01*
X136224826Y-100673000D01*
X134528378Y-100673000D01*
X134437606Y-100562394D01*
X134311679Y-100459048D01*
X134168010Y-100382255D01*
X134012120Y-100334966D01*
X133850000Y-100318999D01*
X132150000Y-100318999D01*
X131987880Y-100334966D01*
X131831990Y-100382255D01*
X131688321Y-100459048D01*
X131562394Y-100562394D01*
X131459048Y-100688321D01*
X131382255Y-100831990D01*
X131334966Y-100987880D01*
X131318999Y-101150000D01*
X130877000Y-101150000D01*
X130877000Y-96850000D01*
X131511928Y-96850000D01*
X131524188Y-96974482D01*
X131560498Y-97094180D01*
X131619463Y-97204494D01*
X131698815Y-97301185D01*
X131795506Y-97380537D01*
X131905820Y-97439502D01*
X132025518Y-97475812D01*
X132150000Y-97488072D01*
X132714250Y-97485000D01*
X132873000Y-97326250D01*
X132873000Y-96127000D01*
X133127000Y-96127000D01*
X133127000Y-97326250D01*
X133285750Y-97485000D01*
X133850000Y-97488072D01*
X133974482Y-97475812D01*
X134094180Y-97439502D01*
X134204494Y-97380537D01*
X134301185Y-97301185D01*
X134380537Y-97204494D01*
X134439502Y-97094180D01*
X134475812Y-96974482D01*
X134488072Y-96850000D01*
X134485000Y-96285750D01*
X134326250Y-96127000D01*
X133127000Y-96127000D01*
X132873000Y-96127000D01*
X131673750Y-96127000D01*
X131515000Y-96285750D01*
X131511928Y-96850000D01*
X130877000Y-96850000D01*
X130877000Y-95150000D01*
X131511928Y-95150000D01*
X131515000Y-95714250D01*
X131673750Y-95873000D01*
X132873000Y-95873000D01*
X132873000Y-94673750D01*
X133127000Y-94673750D01*
X133127000Y-95873000D01*
X134326250Y-95873000D01*
X134485000Y-95714250D01*
X134488072Y-95150000D01*
X134475812Y-95025518D01*
X134439502Y-94905820D01*
X134380537Y-94795506D01*
X134301185Y-94698815D01*
X134204494Y-94619463D01*
X134094180Y-94560498D01*
X133974482Y-94524188D01*
X133850000Y-94511928D01*
X133285750Y-94515000D01*
X133127000Y-94673750D01*
X132873000Y-94673750D01*
X132714250Y-94515000D01*
X132150000Y-94511928D01*
X132025518Y-94524188D01*
X131905820Y-94560498D01*
X131795506Y-94619463D01*
X131698815Y-94698815D01*
X131619463Y-94795506D01*
X131560498Y-94905820D01*
X131524188Y-95025518D01*
X131511928Y-95150000D01*
X130877000Y-95150000D01*
X130877000Y-92951505D01*
X130900153Y-93067903D01*
X130992647Y-93291202D01*
X131126927Y-93492167D01*
X131297833Y-93663073D01*
X131498798Y-93797353D01*
X131722097Y-93889847D01*
X131959151Y-93937000D01*
X132200849Y-93937000D01*
X132437903Y-93889847D01*
X132661202Y-93797353D01*
X132751527Y-93737000D01*
X132989557Y-93737000D01*
X133040000Y-93741968D01*
X133090443Y-93737000D01*
X134801276Y-93737000D01*
X134773000Y-93879151D01*
X134773000Y-94120849D01*
X134820153Y-94357903D01*
X134912647Y-94581202D01*
X135046927Y-94782167D01*
X135217833Y-94953073D01*
X135418798Y-95087353D01*
X135642097Y-95179847D01*
X135748644Y-95201041D01*
X136798960Y-96251356D01*
X136820153Y-96357903D01*
X136912647Y-96581202D01*
X137046927Y-96782167D01*
X137217833Y-96953073D01*
X137418798Y-97087353D01*
X137642097Y-97179847D01*
X137879151Y-97227000D01*
X138073000Y-97227000D01*
X138073000Y-99626997D01*
X138061740Y-99741319D01*
X138080454Y-99931317D01*
X138106670Y-100197491D01*
X138174070Y-100419679D01*
X138239730Y-100636132D01*
X138455808Y-101040385D01*
X138598477Y-101214228D01*
X138746601Y-101394718D01*
X138835395Y-101467590D01*
X140652409Y-103284604D01*
X140725281Y-103373399D01*
X141079613Y-103664191D01*
X141483867Y-103880270D01*
X141922508Y-104013330D01*
X142260152Y-104046585D01*
X142378680Y-104058259D01*
X142492994Y-104047000D01*
X144729189Y-104047000D01*
X144841854Y-104024589D01*
X144956172Y-104013330D01*
X145066100Y-103979984D01*
X145178761Y-103957574D01*
X145284883Y-103913617D01*
X145394813Y-103880270D01*
X145496124Y-103826118D01*
X145602248Y-103782160D01*
X145697761Y-103718340D01*
X145799067Y-103664191D01*
X145887860Y-103591320D01*
X145983376Y-103527499D01*
X146064605Y-103446270D01*
X146153399Y-103373399D01*
X146226271Y-103284604D01*
X146307499Y-103203376D01*
X146371320Y-103107860D01*
X146444191Y-103019067D01*
X146498340Y-102917761D01*
X146562160Y-102822248D01*
X146606118Y-102716124D01*
X146660270Y-102614813D01*
X146693617Y-102504883D01*
X146737574Y-102398761D01*
X146759984Y-102286100D01*
X146793330Y-102176172D01*
X146804589Y-102061855D01*
X146827000Y-101949189D01*
X146827000Y-101834314D01*
X146838259Y-101720000D01*
X146827000Y-101605685D01*
X146827000Y-101490811D01*
X146804589Y-101378145D01*
X146793330Y-101263828D01*
X146759984Y-101153900D01*
X146737574Y-101041239D01*
X146693617Y-100935117D01*
X146660270Y-100825187D01*
X146606118Y-100723876D01*
X146562160Y-100617752D01*
X146498340Y-100522239D01*
X146444191Y-100420933D01*
X146371320Y-100332140D01*
X146307499Y-100236624D01*
X146226270Y-100155395D01*
X146153399Y-100066601D01*
X146064604Y-99993729D01*
X145983376Y-99912501D01*
X145887860Y-99848680D01*
X145799067Y-99775809D01*
X145697761Y-99721660D01*
X145602248Y-99657840D01*
X145496124Y-99613882D01*
X145394813Y-99559730D01*
X145284883Y-99526383D01*
X145178761Y-99482426D01*
X145066100Y-99460016D01*
X144956172Y-99426670D01*
X144841854Y-99415411D01*
X144729189Y-99393000D01*
X143342555Y-99393000D01*
X142726999Y-98777445D01*
X142726999Y-98197874D01*
X143016624Y-98487499D01*
X143397752Y-98742160D01*
X143821239Y-98917574D01*
X144270811Y-99007000D01*
X144729189Y-99007000D01*
X145178761Y-98917574D01*
X145602248Y-98742160D01*
X145983376Y-98487499D01*
X146027169Y-98443706D01*
X146085721Y-98636725D01*
X146301800Y-99040979D01*
X146592592Y-99395312D01*
X146681392Y-99468188D01*
X149853182Y-102639979D01*
X149893880Y-102716119D01*
X149937840Y-102822248D01*
X150001662Y-102917765D01*
X150055809Y-103019066D01*
X150128677Y-103107856D01*
X150192501Y-103203376D01*
X150273730Y-103284605D01*
X150346601Y-103373399D01*
X150435395Y-103446270D01*
X150516624Y-103527499D01*
X150612140Y-103591320D01*
X150700933Y-103664191D01*
X150802239Y-103718340D01*
X150897752Y-103782160D01*
X151003876Y-103826118D01*
X151105187Y-103880270D01*
X151215117Y-103913617D01*
X151321239Y-103957574D01*
X151433900Y-103979984D01*
X151543828Y-104013330D01*
X151658145Y-104024589D01*
X151770811Y-104047000D01*
X151885685Y-104047000D01*
X152000000Y-104058259D01*
X152114314Y-104047000D01*
X152229189Y-104047000D01*
X152341855Y-104024589D01*
X152456171Y-104013330D01*
X152566097Y-103979984D01*
X152678761Y-103957574D01*
X152784886Y-103913616D01*
X152894812Y-103880270D01*
X152996119Y-103826120D01*
X153102248Y-103782160D01*
X153197765Y-103718338D01*
X153299066Y-103664191D01*
X153387856Y-103591323D01*
X153483376Y-103527499D01*
X153564605Y-103446270D01*
X153653399Y-103373399D01*
X153726271Y-103284604D01*
X153807499Y-103203376D01*
X153871320Y-103107860D01*
X153944191Y-103019067D01*
X153998340Y-102917761D01*
X154062160Y-102822248D01*
X154106118Y-102716124D01*
X154160270Y-102614813D01*
X154193617Y-102504883D01*
X154237574Y-102398761D01*
X154259984Y-102286100D01*
X154293330Y-102176172D01*
X154304589Y-102061854D01*
X154327000Y-101949189D01*
X154327000Y-101610225D01*
X154338258Y-101495921D01*
X154327000Y-101381617D01*
X154327000Y-101381608D01*
X154293330Y-101039751D01*
X154160270Y-100601110D01*
X154080196Y-100451302D01*
X153944191Y-100196854D01*
X153726270Y-99931317D01*
X153653399Y-99842523D01*
X153564604Y-99769651D01*
X152543328Y-98748375D01*
X152860383Y-98645243D01*
X153156038Y-98487214D01*
X153312048Y-98171653D01*
X152000000Y-96859605D01*
X151985858Y-96873748D01*
X151806253Y-96694143D01*
X151820395Y-96680000D01*
X152179605Y-96680000D01*
X153491653Y-97992048D01*
X153807214Y-97836038D01*
X153998020Y-97461255D01*
X154112044Y-97056449D01*
X154144902Y-96637176D01*
X154095334Y-96219549D01*
X153965243Y-95819617D01*
X153807214Y-95523962D01*
X153491653Y-95367952D01*
X152179605Y-96680000D01*
X151820395Y-96680000D01*
X151806253Y-96665858D01*
X151985858Y-96486253D01*
X152000000Y-96500395D01*
X153312048Y-95188347D01*
X153156038Y-94872786D01*
X152781255Y-94681980D01*
X152376449Y-94567956D01*
X151957176Y-94535098D01*
X151539549Y-94584666D01*
X151139617Y-94714757D01*
X150843962Y-94872786D01*
X150687953Y-95188345D01*
X150573261Y-95073653D01*
X150572991Y-95073923D01*
X150572991Y-93485162D01*
X150612147Y-93511325D01*
X150700934Y-93584191D01*
X150802234Y-93638337D01*
X150897752Y-93702160D01*
X151003884Y-93746121D01*
X151105187Y-93800269D01*
X151215107Y-93833613D01*
X151321239Y-93877574D01*
X151433912Y-93899986D01*
X151543829Y-93933329D01*
X151658137Y-93944588D01*
X151770811Y-93967000D01*
X151885688Y-93967000D01*
X152000000Y-93978259D01*
X152114312Y-93967000D01*
X152229189Y-93967000D01*
X152341863Y-93944588D01*
X152456171Y-93933329D01*
X152566088Y-93899986D01*
X152678761Y-93877574D01*
X152784893Y-93833613D01*
X152894813Y-93800269D01*
X152996116Y-93746121D01*
X153102248Y-93702160D01*
X153197766Y-93638337D01*
X153299066Y-93584191D01*
X153387855Y-93511324D01*
X153483376Y-93447499D01*
X153807499Y-93123376D01*
X153807501Y-93123373D01*
X156654604Y-90276271D01*
X156743399Y-90203399D01*
X157034191Y-89849067D01*
X157250270Y-89444813D01*
X157380067Y-89016928D01*
X157779333Y-89283708D01*
X158248317Y-89477967D01*
X158746188Y-89577000D01*
X159253812Y-89577000D01*
X159751683Y-89477967D01*
X160220667Y-89283708D01*
X160455198Y-89127000D01*
X169729189Y-89127000D01*
X169841854Y-89104589D01*
X169956172Y-89093330D01*
X170066100Y-89059984D01*
X170178761Y-89037574D01*
X170284883Y-88993617D01*
X170394813Y-88960270D01*
X170496124Y-88906118D01*
X170602248Y-88862160D01*
X170697761Y-88798340D01*
X170799067Y-88744191D01*
X170887860Y-88671320D01*
X170983376Y-88607499D01*
X171064604Y-88526271D01*
X171153399Y-88453399D01*
X171226271Y-88364604D01*
X171307499Y-88283376D01*
X171371320Y-88187860D01*
X171444191Y-88099067D01*
X171498340Y-87997761D01*
X171562160Y-87902248D01*
X171606118Y-87796124D01*
X171660270Y-87694813D01*
X171693617Y-87584883D01*
X171737574Y-87478761D01*
X171759984Y-87366100D01*
X171793330Y-87256172D01*
X171804589Y-87141855D01*
X171827000Y-87029189D01*
X171827000Y-86914315D01*
X171838259Y-86800000D01*
X171827000Y-86685685D01*
X171827000Y-86570811D01*
X171804589Y-86458145D01*
X171793330Y-86343828D01*
X171759984Y-86233900D01*
X171737574Y-86121239D01*
X171693617Y-86015117D01*
X171660270Y-85905187D01*
X171606118Y-85803876D01*
X171562160Y-85697752D01*
X171498340Y-85602239D01*
X171444191Y-85500933D01*
X171371320Y-85412140D01*
X171307499Y-85316624D01*
X171226271Y-85235396D01*
X171153399Y-85146601D01*
X171064604Y-85073729D01*
X170983376Y-84992501D01*
X170887860Y-84928680D01*
X170799067Y-84855809D01*
X170697761Y-84801660D01*
X170602248Y-84737840D01*
X170496124Y-84693882D01*
X170394813Y-84639730D01*
X170284883Y-84606383D01*
X170178761Y-84562426D01*
X170066100Y-84540016D01*
X169956172Y-84506670D01*
X169841854Y-84495411D01*
X169729189Y-84473000D01*
X159505178Y-84473000D01*
X159253812Y-84423000D01*
X158746188Y-84423000D01*
X158248317Y-84522033D01*
X157779333Y-84716292D01*
X157417000Y-84958395D01*
X157417000Y-72385685D01*
X157407626Y-72290509D01*
X158123000Y-72290509D01*
X158123000Y-72709491D01*
X158204739Y-73120423D01*
X158365077Y-73507512D01*
X158597851Y-73855884D01*
X158894116Y-74152149D01*
X159242488Y-74384923D01*
X159629577Y-74545261D01*
X160040509Y-74627000D01*
X160459491Y-74627000D01*
X160870423Y-74545261D01*
X161257512Y-74384923D01*
X161605884Y-74152149D01*
X161902149Y-73855884D01*
X162134923Y-73507512D01*
X162295261Y-73120423D01*
X162377000Y-72709491D01*
X162377000Y-72290509D01*
X162295261Y-71879577D01*
X162134923Y-71492488D01*
X161902149Y-71144116D01*
X161605884Y-70847851D01*
X161257512Y-70615077D01*
X160870423Y-70454739D01*
X160459491Y-70373000D01*
X160040509Y-70373000D01*
X159629577Y-70454739D01*
X159242488Y-70615077D01*
X158894116Y-70847851D01*
X158597851Y-71144116D01*
X158365077Y-71492488D01*
X158204739Y-71879577D01*
X158123000Y-72290509D01*
X157407626Y-72290509D01*
X157383330Y-72043828D01*
X157250270Y-71605187D01*
X157034191Y-71200933D01*
X156743399Y-70846601D01*
X156389066Y-70555809D01*
X155984812Y-70339730D01*
X155546171Y-70206670D01*
X155090000Y-70161741D01*
X154633828Y-70206670D01*
X154195187Y-70339730D01*
X153790933Y-70555809D01*
X153436601Y-70846601D01*
X153145809Y-71200934D01*
X152929730Y-71605188D01*
X152796670Y-72043829D01*
X152763000Y-72385686D01*
X152763001Y-87586124D01*
X150572991Y-89776135D01*
X150572991Y-89217883D01*
X151814605Y-87976270D01*
X151903399Y-87903399D01*
X152194191Y-87549067D01*
X152228313Y-87485230D01*
X152410270Y-87144814D01*
X152467866Y-86954943D01*
X152543330Y-86706172D01*
X152577000Y-86364315D01*
X152577000Y-86364312D01*
X152588259Y-86250000D01*
X152577000Y-86135688D01*
X152577000Y-72385685D01*
X152543330Y-72043828D01*
X152410270Y-71605187D01*
X152194191Y-71200933D01*
X151903399Y-70846601D01*
X151549067Y-70555809D01*
X151144813Y-70339730D01*
X150706172Y-70206670D01*
X150250000Y-70161741D01*
X149793829Y-70206670D01*
X149355188Y-70339730D01*
X148950934Y-70555809D01*
X148596602Y-70846601D01*
X148305810Y-71200933D01*
X148089731Y-71605187D01*
X147956671Y-72043828D01*
X147923001Y-72385685D01*
X147923000Y-85286125D01*
X146681387Y-86527738D01*
X146592593Y-86600610D01*
X146519721Y-86689405D01*
X146301800Y-86954943D01*
X146117363Y-87300000D01*
X146085722Y-87359196D01*
X145952662Y-87797837D01*
X145950236Y-87822473D01*
X145907732Y-88254009D01*
X145918992Y-88368331D01*
X145918992Y-89789481D01*
X145887860Y-89768680D01*
X145799067Y-89695809D01*
X145697761Y-89641660D01*
X145602248Y-89577840D01*
X145496124Y-89533882D01*
X145394813Y-89479730D01*
X145284883Y-89446383D01*
X145224921Y-89421546D01*
X143309376Y-87506001D01*
X144000001Y-87506001D01*
X144210894Y-87485230D01*
X144413682Y-87423715D01*
X144600572Y-87323820D01*
X144764383Y-87189383D01*
X144898820Y-87025572D01*
X144998715Y-86838682D01*
X145026421Y-86747347D01*
X145052104Y-86726270D01*
X146494599Y-85283775D01*
X146583399Y-85210899D01*
X146874191Y-84856567D01*
X147090270Y-84452313D01*
X147223330Y-84013672D01*
X147257000Y-83671815D01*
X147257000Y-83671813D01*
X147268259Y-83557501D01*
X147257000Y-83443189D01*
X147257000Y-73212793D01*
X147295261Y-73120423D01*
X147377000Y-72709491D01*
X147377000Y-72290509D01*
X147295261Y-71879577D01*
X147134923Y-71492488D01*
X146902149Y-71144116D01*
X146605884Y-70847851D01*
X146493077Y-70772476D01*
X146229066Y-70555809D01*
X145824812Y-70339730D01*
X145386171Y-70206670D01*
X144930000Y-70161741D01*
X144473828Y-70206670D01*
X144035187Y-70339730D01*
X143630933Y-70555809D01*
X143276601Y-70846601D01*
X142985809Y-71200934D01*
X142769730Y-71605188D01*
X142636670Y-72043829D01*
X142603000Y-72385686D01*
X142603001Y-80778202D01*
X142392097Y-80820153D01*
X142168798Y-80912647D01*
X141967833Y-81046927D01*
X141796927Y-81217833D01*
X141662647Y-81418798D01*
X141570153Y-81642097D01*
X141523000Y-81879151D01*
X141523000Y-82120849D01*
X141570153Y-82357903D01*
X141662647Y-82581202D01*
X141723000Y-82671527D01*
X141723001Y-83481979D01*
X141543309Y-83700934D01*
X141327231Y-84105187D01*
X141194171Y-84543829D01*
X141149241Y-85000000D01*
X141187029Y-85383654D01*
X139902885Y-84099511D01*
X140251356Y-83751040D01*
X140357903Y-83729847D01*
X140581202Y-83637353D01*
X140782167Y-83503073D01*
X140953073Y-83332167D01*
X141087353Y-83131202D01*
X141179847Y-82907903D01*
X141227000Y-82670849D01*
X141227000Y-82429151D01*
X141179847Y-82192097D01*
X141087353Y-81968798D01*
X140953073Y-81767833D01*
X140782167Y-81596927D01*
X140581202Y-81462647D01*
X140357903Y-81370153D01*
X140120849Y-81323000D01*
X140075374Y-81323000D01*
X141414604Y-79983771D01*
X141503399Y-79910899D01*
X141794191Y-79556567D01*
X142010270Y-79152313D01*
X142143330Y-78713672D01*
X142177000Y-78371815D01*
X142177000Y-78371812D01*
X142188259Y-78257500D01*
X142177000Y-78143188D01*
X142177000Y-73405929D01*
X142295261Y-73120423D01*
X142377000Y-72709491D01*
X142377000Y-72290509D01*
X142295261Y-71879577D01*
X142134923Y-71492488D01*
X141902149Y-71144116D01*
X141605884Y-70847851D01*
X141257512Y-70615077D01*
X141184366Y-70584779D01*
X141149066Y-70555809D01*
X140744812Y-70339730D01*
X140306171Y-70206670D01*
X139850000Y-70161741D01*
X139393828Y-70206670D01*
X138955187Y-70339730D01*
X138550933Y-70555809D01*
X138196601Y-70846601D01*
X137905809Y-71200934D01*
X137689730Y-71605188D01*
X137556670Y-72043829D01*
X137554035Y-72070581D01*
X137127975Y-71432937D01*
X136567063Y-70872025D01*
X135907500Y-70431319D01*
X135174633Y-70127755D01*
X134396625Y-69973000D01*
X133603375Y-69973000D01*
X132825367Y-70127755D01*
X132092500Y-70431319D01*
X131432937Y-70872025D01*
X130877000Y-71427962D01*
X130877000Y-69877000D01*
X174123001Y-69877000D01*
X174123001Y-71427963D01*
G37*
X174123001Y-71427963D02*
X173567063Y-70872025D01*
X172907500Y-70431319D01*
X172174633Y-70127755D01*
X171396625Y-69973000D01*
X170603375Y-69973000D01*
X169825367Y-70127755D01*
X169092500Y-70431319D01*
X168432937Y-70872025D01*
X167872025Y-71432937D01*
X167431319Y-72092500D01*
X167381001Y-72213978D01*
X167381001Y-71200000D01*
X167365034Y-71037880D01*
X167317745Y-70881990D01*
X167240952Y-70738321D01*
X167137606Y-70612394D01*
X167011679Y-70509048D01*
X166868010Y-70432255D01*
X166712120Y-70384966D01*
X166550000Y-70368999D01*
X163950000Y-70368999D01*
X163787880Y-70384966D01*
X163631990Y-70432255D01*
X163488321Y-70509048D01*
X163362394Y-70612394D01*
X163259048Y-70738321D01*
X163182255Y-70881990D01*
X163134966Y-71037880D01*
X163118999Y-71200000D01*
X163118999Y-73800000D01*
X163134966Y-73962120D01*
X163182255Y-74118010D01*
X163259048Y-74261679D01*
X163362394Y-74387606D01*
X163488321Y-74490952D01*
X163631990Y-74567745D01*
X163787880Y-74615034D01*
X163950000Y-74631001D01*
X166550000Y-74631001D01*
X166712120Y-74615034D01*
X166868010Y-74567745D01*
X166993677Y-74500574D01*
X167127755Y-75174633D01*
X167431319Y-75907500D01*
X167872025Y-76567063D01*
X168432937Y-77127975D01*
X169092500Y-77568681D01*
X169825367Y-77872245D01*
X170603375Y-78027000D01*
X171396625Y-78027000D01*
X172174633Y-77872245D01*
X172232639Y-77848218D01*
X172058172Y-78109327D01*
X171935525Y-78405422D01*
X171873000Y-78719755D01*
X171873000Y-79040245D01*
X171935525Y-79354578D01*
X172058172Y-79650673D01*
X172236227Y-79917152D01*
X172462848Y-80143773D01*
X172729327Y-80321828D01*
X173025422Y-80444475D01*
X173339755Y-80507000D01*
X173660245Y-80507000D01*
X173974578Y-80444475D01*
X174123001Y-80382996D01*
X174123001Y-84868999D01*
X172700000Y-84868999D01*
X172537880Y-84884966D01*
X172381990Y-84932255D01*
X172238321Y-85009048D01*
X172112394Y-85112394D01*
X172009048Y-85238321D01*
X171932255Y-85381990D01*
X171884966Y-85537880D01*
X171868999Y-85700000D01*
X171868999Y-87300000D01*
X171884966Y-87462120D01*
X171932255Y-87618010D01*
X172009048Y-87761679D01*
X172112394Y-87887606D01*
X172238321Y-87990952D01*
X172381990Y-88067745D01*
X172537880Y-88115034D01*
X172700000Y-88131001D01*
X174123001Y-88131001D01*
X174123001Y-90318999D01*
X172650000Y-90318999D01*
X172487880Y-90334966D01*
X172331990Y-90382255D01*
X172188321Y-90459048D01*
X172062394Y-90562394D01*
X171959048Y-90688321D01*
X171882255Y-90831990D01*
X171834966Y-90987880D01*
X171818999Y-91150000D01*
X171818999Y-92850000D01*
X171834966Y-93012120D01*
X171882255Y-93168010D01*
X171959048Y-93311679D01*
X172062394Y-93437606D01*
X172188321Y-93540952D01*
X172331990Y-93617745D01*
X172487880Y-93665034D01*
X172650000Y-93681001D01*
X174123001Y-93681001D01*
X174123000Y-136427962D01*
X173567063Y-135872025D01*
X172907500Y-135431319D01*
X172174633Y-135127755D01*
X171396625Y-134973000D01*
X170603375Y-134973000D01*
X169825367Y-135127755D01*
X169092500Y-135431319D01*
X168432937Y-135872025D01*
X167872025Y-136432937D01*
X167431319Y-137092500D01*
X167127755Y-137825367D01*
X166973000Y-138603375D01*
X166973000Y-139396625D01*
X167127755Y-140174633D01*
X167431319Y-140907500D01*
X167872025Y-141567063D01*
X168432937Y-142127975D01*
X169092500Y-142568681D01*
X169825367Y-142872245D01*
X170603375Y-143027000D01*
X171396625Y-143027000D01*
X172174633Y-142872245D01*
X172907500Y-142568681D01*
X173567063Y-142127975D01*
X174123000Y-141572038D01*
X174123000Y-143123000D01*
X165412748Y-143123000D01*
X165477571Y-142986004D01*
X165546300Y-142711816D01*
X165560217Y-142429488D01*
X165518787Y-142149870D01*
X165423603Y-141883708D01*
X165356671Y-141758486D01*
X165112702Y-141686903D01*
X164299605Y-142500000D01*
X164313748Y-142514143D01*
X164134143Y-142693748D01*
X164120000Y-142679605D01*
X164105858Y-142693748D01*
X163926253Y-142514143D01*
X163940395Y-142500000D01*
X163127298Y-141686903D01*
X162883329Y-141758486D01*
X162852029Y-141824636D01*
X162816671Y-141758486D01*
X162572702Y-141686903D01*
X161759605Y-142500000D01*
X161773748Y-142514143D01*
X161594143Y-142693748D01*
X161580000Y-142679605D01*
X161565858Y-142693748D01*
X161386253Y-142514143D01*
X161400395Y-142500000D01*
X160587298Y-141686903D01*
X160343329Y-141758486D01*
X160312029Y-141824636D01*
X160276671Y-141758486D01*
X160032702Y-141686903D01*
X159219605Y-142500000D01*
X159233748Y-142514143D01*
X159054143Y-142693748D01*
X159040000Y-142679605D01*
X159025858Y-142693748D01*
X158846253Y-142514143D01*
X158860395Y-142500000D01*
X158047298Y-141686903D01*
X157937959Y-141718984D01*
X157938072Y-141700000D01*
X157925812Y-141575518D01*
X157905118Y-141507298D01*
X158226903Y-141507298D01*
X159040000Y-142320395D01*
X159853097Y-141507298D01*
X160766903Y-141507298D01*
X161580000Y-142320395D01*
X162393097Y-141507298D01*
X163306903Y-141507298D01*
X164120000Y-142320395D01*
X164933097Y-141507298D01*
X164861514Y-141263329D01*
X164606004Y-141142429D01*
X164331816Y-141073700D01*
X164049488Y-141059783D01*
X163769870Y-141101213D01*
X163503708Y-141196397D01*
X163378486Y-141263329D01*
X163306903Y-141507298D01*
X162393097Y-141507298D01*
X162321514Y-141263329D01*
X162066004Y-141142429D01*
X161791816Y-141073700D01*
X161509488Y-141059783D01*
X161229870Y-141101213D01*
X160963708Y-141196397D01*
X160838486Y-141263329D01*
X160766903Y-141507298D01*
X159853097Y-141507298D01*
X159781514Y-141263329D01*
X159526004Y-141142429D01*
X159251816Y-141073700D01*
X158969488Y-141059783D01*
X158689870Y-141101213D01*
X158423708Y-141196397D01*
X158298486Y-141263329D01*
X158226903Y-141507298D01*
X157905118Y-141507298D01*
X157889502Y-141455820D01*
X157830537Y-141345506D01*
X157751185Y-141248815D01*
X157654494Y-141169463D01*
X157544180Y-141110498D01*
X157424482Y-141074188D01*
X157300000Y-141061928D01*
X156785750Y-141065000D01*
X156627000Y-141223750D01*
X156627000Y-142373000D01*
X156647000Y-142373000D01*
X156647000Y-142627000D01*
X156627000Y-142627000D01*
X156627000Y-142647000D01*
X156373000Y-142647000D01*
X156373000Y-142627000D01*
X155223750Y-142627000D01*
X155065000Y-142785750D01*
X155062985Y-143123000D01*
X130877000Y-143123000D01*
X130877000Y-141572038D01*
X131432937Y-142127975D01*
X132092500Y-142568681D01*
X132825367Y-142872245D01*
X133603375Y-143027000D01*
X134396625Y-143027000D01*
X135174633Y-142872245D01*
X135907500Y-142568681D01*
X136567063Y-142127975D01*
X136995038Y-141700000D01*
X155061928Y-141700000D01*
X155065000Y-142214250D01*
X155223750Y-142373000D01*
X156373000Y-142373000D01*
X156373000Y-141223750D01*
X156214250Y-141065000D01*
X155700000Y-141061928D01*
X155575518Y-141074188D01*
X155455820Y-141110498D01*
X155345506Y-141169463D01*
X155248815Y-141248815D01*
X155169463Y-141345506D01*
X155110498Y-141455820D01*
X155074188Y-141575518D01*
X155061928Y-141700000D01*
X136995038Y-141700000D01*
X137127975Y-141567063D01*
X137568681Y-140907500D01*
X137872245Y-140174633D01*
X138027000Y-139396625D01*
X138027000Y-138603375D01*
X137872245Y-137825367D01*
X137568681Y-137092500D01*
X137127975Y-136432937D01*
X136567063Y-135872025D01*
X135944439Y-135456001D01*
X135950000Y-135456001D01*
X136160893Y-135435230D01*
X136363681Y-135373715D01*
X136368658Y-135371055D01*
X138698000Y-137700398D01*
X138698001Y-138234420D01*
X138635617Y-138285617D01*
X138501180Y-138449428D01*
X138401285Y-138636318D01*
X138339770Y-138839106D01*
X138318999Y-139049999D01*
X138318999Y-139950001D01*
X138339770Y-140160894D01*
X138401285Y-140363682D01*
X138501180Y-140550572D01*
X138635617Y-140714383D01*
X138799428Y-140848820D01*
X138986318Y-140948715D01*
X139189106Y-141010230D01*
X139399999Y-141031001D01*
X140050001Y-141031001D01*
X140260894Y-141010230D01*
X140463682Y-140948715D01*
X140650572Y-140848820D01*
X140814383Y-140714383D01*
X140818987Y-140708773D01*
X140845506Y-140730537D01*
X140955820Y-140789502D01*
X141075518Y-140825812D01*
X141200000Y-140838072D01*
X141489250Y-140835000D01*
X141648000Y-140676250D01*
X141648000Y-139627000D01*
X141902000Y-139627000D01*
X141902000Y-140676250D01*
X142060750Y-140835000D01*
X142350000Y-140838072D01*
X142474482Y-140825812D01*
X142594180Y-140789502D01*
X142704494Y-140730537D01*
X142801185Y-140651185D01*
X142880537Y-140554494D01*
X142939502Y-140444180D01*
X142975812Y-140324482D01*
X142988072Y-140200000D01*
X142985000Y-139785750D01*
X142826250Y-139627000D01*
X141902000Y-139627000D01*
X141648000Y-139627000D01*
X141628000Y-139627000D01*
X141628000Y-139373000D01*
X141648000Y-139373000D01*
X141648000Y-138323750D01*
X141902000Y-138323750D01*
X141902000Y-139373000D01*
X142826250Y-139373000D01*
X142985000Y-139214250D01*
X142988072Y-138800000D01*
X142975812Y-138675518D01*
X142939502Y-138555820D01*
X142880537Y-138445506D01*
X142801185Y-138348815D01*
X142704494Y-138269463D01*
X142594180Y-138210498D01*
X142474482Y-138174188D01*
X142350000Y-138161928D01*
X142060750Y-138165000D01*
X141902000Y-138323750D01*
X141648000Y-138323750D01*
X141489250Y-138165000D01*
X141200000Y-138161928D01*
X141075518Y-138174188D01*
X140955820Y-138210498D01*
X140845506Y-138269463D01*
X140818987Y-138291227D01*
X140814383Y-138285617D01*
X140752000Y-138234420D01*
X140752000Y-137325443D01*
X140756968Y-137275000D01*
X140752000Y-137224556D01*
X140752000Y-137224549D01*
X140737140Y-137073673D01*
X140678415Y-136880083D01*
X140583051Y-136701669D01*
X140567812Y-136683100D01*
X140486873Y-136584475D01*
X140486868Y-136584470D01*
X140454712Y-136545288D01*
X140415530Y-136513132D01*
X139234322Y-135331925D01*
X139284313Y-135327001D01*
X153585689Y-135327001D01*
X153700001Y-135338260D01*
X153814313Y-135327001D01*
X153814316Y-135327001D01*
X154156173Y-135293331D01*
X154594814Y-135160271D01*
X154873000Y-135011577D01*
X154873000Y-135040245D01*
X154935525Y-135354578D01*
X155058172Y-135650673D01*
X155236227Y-135917152D01*
X155462848Y-136143773D01*
X155729327Y-136321828D01*
X156025422Y-136444475D01*
X156339755Y-136507000D01*
X156660245Y-136507000D01*
X156974578Y-136444475D01*
X157270673Y-136321828D01*
X157537152Y-136143773D01*
X157763773Y-135917152D01*
X157770000Y-135907833D01*
X157776227Y-135917152D01*
X158002848Y-136143773D01*
X158269327Y-136321828D01*
X158565422Y-136444475D01*
X158879755Y-136507000D01*
X159200245Y-136507000D01*
X159514578Y-136444475D01*
X159810673Y-136321828D01*
X160077152Y-136143773D01*
X160303773Y-135917152D01*
X160310000Y-135907833D01*
X160316227Y-135917152D01*
X160542848Y-136143773D01*
X160809327Y-136321828D01*
X161105422Y-136444475D01*
X161419755Y-136507000D01*
X161740245Y-136507000D01*
X162054578Y-136444475D01*
X162350673Y-136321828D01*
X162617152Y-136143773D01*
X162843773Y-135917152D01*
X162850000Y-135907833D01*
X162856227Y-135917152D01*
X163082848Y-136143773D01*
X163349327Y-136321828D01*
X163645422Y-136444475D01*
X163959755Y-136507000D01*
X164280245Y-136507000D01*
X164594578Y-136444475D01*
X164890673Y-136321828D01*
X165157152Y-136143773D01*
X165383773Y-135917152D01*
X165561828Y-135650673D01*
X165684475Y-135354578D01*
X165747000Y-135040245D01*
X165747000Y-134719755D01*
X165684475Y-134405422D01*
X165561828Y-134109327D01*
X165383773Y-133842848D01*
X165157152Y-133616227D01*
X164890673Y-133438172D01*
X164594578Y-133315525D01*
X164280245Y-133253000D01*
X163959755Y-133253000D01*
X163645422Y-133315525D01*
X163349327Y-133438172D01*
X163082848Y-133616227D01*
X162856227Y-133842848D01*
X162850000Y-133852167D01*
X162843773Y-133842848D01*
X162617152Y-133616227D01*
X162350673Y-133438172D01*
X162054578Y-133315525D01*
X161740245Y-133253000D01*
X161419755Y-133253000D01*
X161105422Y-133315525D01*
X160809327Y-133438172D01*
X160542848Y-133616227D01*
X160316227Y-133842848D01*
X160310000Y-133852167D01*
X160303773Y-133842848D01*
X160077152Y-133616227D01*
X159810673Y-133438172D01*
X159516200Y-133316197D01*
X162782397Y-130050000D01*
X167811928Y-130050000D01*
X167824188Y-130174482D01*
X167860498Y-130294180D01*
X167919463Y-130404494D01*
X167998815Y-130501185D01*
X168095506Y-130580537D01*
X168205820Y-130639502D01*
X168325518Y-130675812D01*
X168450000Y-130688072D01*
X169464250Y-130685000D01*
X169623000Y-130526250D01*
X169623000Y-128877000D01*
X169877000Y-128877000D01*
X169877000Y-130526250D01*
X170035750Y-130685000D01*
X171050000Y-130688072D01*
X171174482Y-130675812D01*
X171294180Y-130639502D01*
X171404494Y-130580537D01*
X171501185Y-130501185D01*
X171580537Y-130404494D01*
X171639502Y-130294180D01*
X171675812Y-130174482D01*
X171688072Y-130050000D01*
X171685000Y-129035750D01*
X171526250Y-128877000D01*
X169877000Y-128877000D01*
X169623000Y-128877000D01*
X167973750Y-128877000D01*
X167815000Y-129035750D01*
X167811928Y-130050000D01*
X162782397Y-130050000D01*
X163440530Y-129391868D01*
X163479712Y-129359712D01*
X163511868Y-129320530D01*
X163511873Y-129320525D01*
X163608050Y-129203332D01*
X163691833Y-129046585D01*
X163703415Y-129024917D01*
X163762140Y-128831327D01*
X163777000Y-128680451D01*
X163777000Y-128680444D01*
X163781968Y-128630000D01*
X163777000Y-128579557D01*
X163777000Y-127450000D01*
X167811928Y-127450000D01*
X167815000Y-128464250D01*
X167973750Y-128623000D01*
X169623000Y-128623000D01*
X169623000Y-126973750D01*
X169877000Y-126973750D01*
X169877000Y-128623000D01*
X171526250Y-128623000D01*
X171685000Y-128464250D01*
X171688072Y-127450000D01*
X171675812Y-127325518D01*
X171639502Y-127205820D01*
X171580537Y-127095506D01*
X171501185Y-126998815D01*
X171404494Y-126919463D01*
X171294180Y-126860498D01*
X171174482Y-126824188D01*
X171050000Y-126811928D01*
X170035750Y-126815000D01*
X169877000Y-126973750D01*
X169623000Y-126973750D01*
X169464250Y-126815000D01*
X168450000Y-126811928D01*
X168325518Y-126824188D01*
X168205820Y-126860498D01*
X168095506Y-126919463D01*
X167998815Y-126998815D01*
X167919463Y-127095506D01*
X167860498Y-127205820D01*
X167824188Y-127325518D01*
X167811928Y-127450000D01*
X163777000Y-127450000D01*
X163777000Y-123671527D01*
X163837353Y-123581202D01*
X163887345Y-123460509D01*
X167623000Y-123460509D01*
X167623000Y-123879491D01*
X167704739Y-124290423D01*
X167865077Y-124677512D01*
X168097851Y-125025884D01*
X168394116Y-125322149D01*
X168742488Y-125554923D01*
X169129577Y-125715261D01*
X169540509Y-125797000D01*
X169959491Y-125797000D01*
X170370423Y-125715261D01*
X170757512Y-125554923D01*
X171105884Y-125322149D01*
X171402149Y-125025884D01*
X171634923Y-124677512D01*
X171795261Y-124290423D01*
X171877000Y-123879491D01*
X171877000Y-123460509D01*
X171795261Y-123049577D01*
X171634923Y-122662488D01*
X171402149Y-122314116D01*
X171105884Y-122017851D01*
X170757512Y-121785077D01*
X170370423Y-121624739D01*
X169959491Y-121543000D01*
X169540509Y-121543000D01*
X169129577Y-121624739D01*
X168742488Y-121785077D01*
X168394116Y-122017851D01*
X168097851Y-122314116D01*
X167865077Y-122662488D01*
X167704739Y-123049577D01*
X167623000Y-123460509D01*
X163887345Y-123460509D01*
X163929847Y-123357903D01*
X163977000Y-123120849D01*
X163977000Y-122879151D01*
X163929847Y-122642097D01*
X163837353Y-122418798D01*
X163703073Y-122217833D01*
X163532167Y-122046927D01*
X163331202Y-121912647D01*
X163107903Y-121820153D01*
X162870849Y-121773000D01*
X162629151Y-121773000D01*
X162392097Y-121820153D01*
X162168798Y-121912647D01*
X161967833Y-122046927D01*
X161796927Y-122217833D01*
X161662647Y-122418798D01*
X161570153Y-122642097D01*
X161523000Y-122879151D01*
X161523000Y-123120849D01*
X161570153Y-123357903D01*
X161662647Y-123581202D01*
X161723000Y-123671527D01*
X161723001Y-128204601D01*
X160962171Y-128965431D01*
X161141463Y-128630000D01*
X161160270Y-128594815D01*
X161293330Y-128156174D01*
X161327000Y-127814317D01*
X161327000Y-127814307D01*
X161338258Y-127700003D01*
X161327000Y-127585699D01*
X161327000Y-121610694D01*
X161293330Y-121268837D01*
X161160270Y-120830196D01*
X160944191Y-120425942D01*
X160653399Y-120071610D01*
X160299067Y-119780818D01*
X159894813Y-119564739D01*
X159456172Y-119431679D01*
X159278542Y-119414184D01*
X159197180Y-119398000D01*
X159114223Y-119398000D01*
X159000000Y-119386750D01*
X158885777Y-119398000D01*
X158802820Y-119398000D01*
X158721457Y-119414184D01*
X158543829Y-119431679D01*
X158105188Y-119564739D01*
X157700934Y-119780818D01*
X157346602Y-120071610D01*
X157055810Y-120425942D01*
X156839730Y-120830196D01*
X156706670Y-121268837D01*
X156673000Y-121610694D01*
X156673000Y-126736127D01*
X156444312Y-126964816D01*
X156429847Y-126892097D01*
X156337353Y-126668798D01*
X156203073Y-126467833D01*
X156032167Y-126296927D01*
X155831202Y-126162647D01*
X155607903Y-126070153D01*
X155370849Y-126023000D01*
X155129151Y-126023000D01*
X154892097Y-126070153D01*
X154668798Y-126162647D01*
X154467833Y-126296927D01*
X154296927Y-126467833D01*
X154162647Y-126668798D01*
X154070153Y-126892097D01*
X154048960Y-126998644D01*
X151809481Y-129238123D01*
X151770288Y-129270288D01*
X151641949Y-129426669D01*
X151546585Y-129605084D01*
X151487860Y-129798674D01*
X151486987Y-129807540D01*
X151412647Y-129918798D01*
X151320153Y-130142097D01*
X151273000Y-130379151D01*
X151273000Y-130620849D01*
X151283374Y-130673001D01*
X140133876Y-130673001D01*
X136564604Y-127103730D01*
X136299066Y-126885809D01*
X135894813Y-126669731D01*
X135456171Y-126536671D01*
X135305557Y-126521836D01*
X134959491Y-126453000D01*
X134540509Y-126453000D01*
X134129577Y-126534739D01*
X133742488Y-126695077D01*
X133394116Y-126927851D01*
X133097851Y-127224116D01*
X132865077Y-127572488D01*
X132704739Y-127959577D01*
X132623000Y-128370509D01*
X132623000Y-128789491D01*
X132691836Y-129135557D01*
X132706671Y-129286171D01*
X132839731Y-129724813D01*
X133055809Y-130129066D01*
X133273730Y-130394604D01*
X133505754Y-130626628D01*
X133418798Y-130662647D01*
X133217833Y-130796927D01*
X133046927Y-130967833D01*
X132912647Y-131168798D01*
X132820153Y-131392097D01*
X132773000Y-131629151D01*
X132773000Y-131870849D01*
X132800583Y-132009519D01*
X132766104Y-132043999D01*
X132050000Y-132043999D01*
X131839107Y-132064770D01*
X131636319Y-132126285D01*
X131449428Y-132226181D01*
X131285617Y-132360617D01*
X131151181Y-132524428D01*
X131051285Y-132711319D01*
X130989770Y-132914107D01*
X130968999Y-133125000D01*
X130968999Y-134375000D01*
X130989770Y-134585893D01*
X131051285Y-134788681D01*
X131151181Y-134975572D01*
X131285617Y-135139383D01*
X131449428Y-135273819D01*
X131636319Y-135373715D01*
X131839107Y-135435230D01*
X132050000Y-135456001D01*
X132055561Y-135456001D01*
X131432937Y-135872025D01*
X130877000Y-136427962D01*
X130877000Y-124800000D01*
X132811928Y-124800000D01*
X132824188Y-124924482D01*
X132860498Y-125044180D01*
X132919463Y-125154494D01*
X132998815Y-125251185D01*
X133095506Y-125330537D01*
X133205820Y-125389502D01*
X133325518Y-125425812D01*
X133450000Y-125438072D01*
X134464250Y-125435000D01*
X134623000Y-125276250D01*
X134623000Y-123627000D01*
X134877000Y-123627000D01*
X134877000Y-125276250D01*
X135035750Y-125435000D01*
X136050000Y-125438072D01*
X136174482Y-125425812D01*
X136294180Y-125389502D01*
X136404494Y-125330537D01*
X136501185Y-125251185D01*
X136580537Y-125154494D01*
X136639502Y-125044180D01*
X136675812Y-124924482D01*
X136688072Y-124800000D01*
X136685000Y-123785750D01*
X136526250Y-123627000D01*
X134877000Y-123627000D01*
X134623000Y-123627000D01*
X132973750Y-123627000D01*
X132815000Y-123785750D01*
X132811928Y-124800000D01*
X130877000Y-124800000D01*
X130877000Y-101150000D01*
X131318999Y-101150000D01*
X131318999Y-102850000D01*
X131334966Y-103012120D01*
X131382255Y-103168010D01*
X131459048Y-103311679D01*
X131562394Y-103437606D01*
X131688321Y-103540952D01*
X131831990Y-103617745D01*
X131987880Y-103665034D01*
X132150000Y-103681001D01*
X133850000Y-103681001D01*
X134012120Y-103665034D01*
X134168010Y-103617745D01*
X134311679Y-103540952D01*
X134437606Y-103437606D01*
X134528378Y-103327000D01*
X134826340Y-103327000D01*
X133727766Y-104425574D01*
X133727761Y-104425578D01*
X132457765Y-105695575D01*
X132407130Y-105737130D01*
X132338995Y-105820153D01*
X132241302Y-105939192D01*
X132132926Y-106141950D01*
X132118081Y-106169723D01*
X132042201Y-106419864D01*
X132023000Y-106614817D01*
X132023000Y-106614826D01*
X132016581Y-106680000D01*
X132023000Y-106745174D01*
X132023001Y-117784807D01*
X132023000Y-117784817D01*
X132023000Y-117784826D01*
X132016581Y-117850000D01*
X132023000Y-117915174D01*
X132023000Y-119784826D01*
X132016581Y-119850000D01*
X132023000Y-119915174D01*
X132023000Y-119915184D01*
X132042201Y-120110137D01*
X132118081Y-120360278D01*
X132241302Y-120590808D01*
X132407131Y-120792870D01*
X132457761Y-120834421D01*
X132765575Y-121142235D01*
X132807130Y-121192870D01*
X133009192Y-121358698D01*
X133239722Y-121481919D01*
X133489863Y-121557799D01*
X133534381Y-121562184D01*
X133450000Y-121561928D01*
X133325518Y-121574188D01*
X133205820Y-121610498D01*
X133095506Y-121669463D01*
X132998815Y-121748815D01*
X132919463Y-121845506D01*
X132860498Y-121955820D01*
X132824188Y-122075518D01*
X132811928Y-122200000D01*
X132815000Y-123214250D01*
X132973750Y-123373000D01*
X134623000Y-123373000D01*
X134623000Y-123353000D01*
X134877000Y-123353000D01*
X134877000Y-123373000D01*
X136526250Y-123373000D01*
X136685000Y-123214250D01*
X136685648Y-123000000D01*
X139166581Y-123000000D01*
X139173000Y-123065174D01*
X139173000Y-123130698D01*
X139185783Y-123194962D01*
X139192202Y-123260137D01*
X139211213Y-123322809D01*
X139223996Y-123387072D01*
X139249070Y-123447605D01*
X139268081Y-123510277D01*
X139298955Y-123568038D01*
X139324028Y-123628570D01*
X139360427Y-123683046D01*
X139391302Y-123740808D01*
X139432852Y-123791437D01*
X139469252Y-123845913D01*
X139654087Y-124030748D01*
X139654090Y-124030750D01*
X140015574Y-124392234D01*
X140057129Y-124442869D01*
X140259191Y-124608697D01*
X140489721Y-124731918D01*
X140739862Y-124807798D01*
X140934815Y-124826999D01*
X140934827Y-124826999D01*
X140999998Y-124833418D01*
X141065170Y-124826999D01*
X148134827Y-124826999D01*
X148200001Y-124833418D01*
X148265175Y-124826999D01*
X148265185Y-124826999D01*
X148460138Y-124807798D01*
X148710279Y-124731918D01*
X148940809Y-124608697D01*
X149142871Y-124442869D01*
X149184426Y-124392234D01*
X149538234Y-124038426D01*
X149588869Y-123996871D01*
X149630424Y-123946236D01*
X150654499Y-122922161D01*
X150738321Y-122990952D01*
X150881990Y-123067745D01*
X151037880Y-123115034D01*
X151200000Y-123131001D01*
X152800000Y-123131001D01*
X152962120Y-123115034D01*
X153118010Y-123067745D01*
X153261679Y-122990952D01*
X153387606Y-122887606D01*
X153490952Y-122761679D01*
X153567745Y-122618010D01*
X153615034Y-122462120D01*
X153631001Y-122300000D01*
X153631001Y-120700000D01*
X153615034Y-120537880D01*
X153567745Y-120381990D01*
X153490952Y-120238321D01*
X153387606Y-120112394D01*
X153261679Y-120009048D01*
X153118010Y-119932255D01*
X152962120Y-119884966D01*
X152800000Y-119868999D01*
X151200000Y-119868999D01*
X151037880Y-119884966D01*
X150881990Y-119932255D01*
X150738321Y-120009048D01*
X150612394Y-120112394D01*
X150562656Y-120173000D01*
X150265173Y-120173000D01*
X150199999Y-120166581D01*
X150134825Y-120173000D01*
X150134816Y-120173000D01*
X149972999Y-120188937D01*
X149972999Y-118782341D01*
X150232233Y-118523108D01*
X150516624Y-118807499D01*
X150897752Y-119062160D01*
X151321239Y-119237574D01*
X151770811Y-119327000D01*
X152229189Y-119327000D01*
X152678761Y-119237574D01*
X153102248Y-119062160D01*
X153483376Y-118807499D01*
X153807499Y-118483376D01*
X154062160Y-118102248D01*
X154237574Y-117678761D01*
X154327000Y-117229189D01*
X154327000Y-116770811D01*
X154237574Y-116321239D01*
X154062160Y-115897752D01*
X153807499Y-115516624D01*
X153483376Y-115192501D01*
X153102248Y-114937840D01*
X152678761Y-114762426D01*
X152229189Y-114673000D01*
X151770811Y-114673000D01*
X151321239Y-114762426D01*
X150897752Y-114937840D01*
X150516624Y-115192501D01*
X150192501Y-115516624D01*
X150088014Y-115673000D01*
X149943853Y-115673000D01*
X149878679Y-115666581D01*
X149813505Y-115673000D01*
X149813496Y-115673000D01*
X149618543Y-115692201D01*
X149368402Y-115768081D01*
X149137870Y-115891302D01*
X148986442Y-116015577D01*
X148935810Y-116057130D01*
X148894259Y-116107760D01*
X147753764Y-117248256D01*
X147703129Y-117289811D01*
X147661577Y-117340443D01*
X147537301Y-117491873D01*
X147437408Y-117678761D01*
X147414080Y-117722404D01*
X147338200Y-117972545D01*
X147318999Y-118167498D01*
X147318999Y-118167507D01*
X147312580Y-118232681D01*
X147318999Y-118297855D01*
X147319000Y-122172999D01*
X145862286Y-122172999D01*
X145944475Y-121974578D01*
X146007000Y-121660245D01*
X146007000Y-121339755D01*
X145944475Y-121025422D01*
X145821828Y-120729327D01*
X145643773Y-120462848D01*
X145417152Y-120236227D01*
X145150673Y-120058172D01*
X144854578Y-119935525D01*
X144540245Y-119873000D01*
X144219755Y-119873000D01*
X143905422Y-119935525D01*
X143609327Y-120058172D01*
X143342848Y-120236227D01*
X143116227Y-120462848D01*
X142938172Y-120729327D01*
X142815525Y-121025422D01*
X142753000Y-121339755D01*
X142753000Y-121660245D01*
X142815525Y-121974578D01*
X142897714Y-122172999D01*
X141549659Y-122172999D01*
X141530750Y-122154090D01*
X141530748Y-122154087D01*
X141345913Y-121969252D01*
X141291437Y-121932852D01*
X141240808Y-121891302D01*
X141183046Y-121860427D01*
X141128570Y-121824028D01*
X141068038Y-121798955D01*
X141010277Y-121768081D01*
X140947605Y-121749070D01*
X140887072Y-121723996D01*
X140822809Y-121711213D01*
X140760137Y-121692202D01*
X140694962Y-121685783D01*
X140630698Y-121673000D01*
X140565174Y-121673000D01*
X140500000Y-121666581D01*
X140434826Y-121673000D01*
X140369302Y-121673000D01*
X140305038Y-121685783D01*
X140239863Y-121692202D01*
X140177191Y-121711213D01*
X140112928Y-121723996D01*
X140052395Y-121749070D01*
X139989723Y-121768081D01*
X139931962Y-121798955D01*
X139871430Y-121824028D01*
X139816954Y-121860427D01*
X139759192Y-121891302D01*
X139708562Y-121932853D01*
X139654087Y-121969252D01*
X139607761Y-122015578D01*
X139557130Y-122057130D01*
X139515579Y-122107760D01*
X139469252Y-122154087D01*
X139432853Y-122208562D01*
X139391302Y-122259192D01*
X139360427Y-122316954D01*
X139324028Y-122371430D01*
X139298955Y-122431962D01*
X139268081Y-122489723D01*
X139249070Y-122552395D01*
X139223996Y-122612928D01*
X139211213Y-122677191D01*
X139192202Y-122739863D01*
X139185783Y-122805038D01*
X139173000Y-122869302D01*
X139173000Y-122934826D01*
X139166581Y-123000000D01*
X136685648Y-123000000D01*
X136688072Y-122200000D01*
X136675812Y-122075518D01*
X136639502Y-121955820D01*
X136580537Y-121845506D01*
X136501185Y-121748815D01*
X136404494Y-121669463D01*
X136294180Y-121610498D01*
X136183752Y-121577000D01*
X140130698Y-121577000D01*
X140194952Y-121564219D01*
X140260137Y-121557799D01*
X140322817Y-121538785D01*
X140387072Y-121526004D01*
X140447601Y-121500932D01*
X140510278Y-121481919D01*
X140568041Y-121451044D01*
X140628570Y-121425972D01*
X140683045Y-121389573D01*
X140740808Y-121358698D01*
X140791438Y-121317147D01*
X140845913Y-121280748D01*
X140892240Y-121234421D01*
X140942870Y-121192870D01*
X140984421Y-121142240D01*
X141030748Y-121095913D01*
X141067147Y-121041438D01*
X141108698Y-120990808D01*
X141139573Y-120933045D01*
X141175972Y-120878570D01*
X141201044Y-120818041D01*
X141231919Y-120760278D01*
X141250932Y-120697601D01*
X141276004Y-120637072D01*
X141288785Y-120572817D01*
X141307799Y-120510137D01*
X141314219Y-120444952D01*
X141327000Y-120380698D01*
X141327000Y-120315184D01*
X141333420Y-120250000D01*
X141327000Y-120184816D01*
X141327000Y-120119302D01*
X141314219Y-120055048D01*
X141307799Y-119989863D01*
X141288785Y-119927183D01*
X141276004Y-119862928D01*
X141250932Y-119802399D01*
X141231919Y-119739722D01*
X141201044Y-119681959D01*
X141175972Y-119621430D01*
X141139573Y-119566955D01*
X141108698Y-119509192D01*
X141067147Y-119458562D01*
X141030748Y-119404087D01*
X140984421Y-119357760D01*
X140942870Y-119307130D01*
X140892240Y-119265579D01*
X140845913Y-119219252D01*
X140791438Y-119182853D01*
X140740808Y-119141302D01*
X140683045Y-119110427D01*
X140628570Y-119074028D01*
X140568041Y-119048956D01*
X140510278Y-119018081D01*
X140447601Y-118999068D01*
X140387072Y-118973996D01*
X140322817Y-118961215D01*
X140260137Y-118942201D01*
X140194952Y-118935781D01*
X140130698Y-118923000D01*
X134677000Y-118923000D01*
X134677000Y-118399660D01*
X134749661Y-118327000D01*
X135848484Y-118327000D01*
X135938801Y-118401121D01*
X136230135Y-118556842D01*
X136546251Y-118652735D01*
X136792617Y-118677000D01*
X137207383Y-118677000D01*
X137453749Y-118652735D01*
X137769865Y-118556842D01*
X138061199Y-118401121D01*
X138316556Y-118191556D01*
X138526121Y-117936199D01*
X138681842Y-117644865D01*
X138777735Y-117328749D01*
X138810114Y-117000000D01*
X138787541Y-116770811D01*
X142173000Y-116770811D01*
X142173000Y-117229189D01*
X142262426Y-117678761D01*
X142437840Y-118102248D01*
X142692501Y-118483376D01*
X143016624Y-118807499D01*
X143397752Y-119062160D01*
X143821239Y-119237574D01*
X144270811Y-119327000D01*
X144729189Y-119327000D01*
X145178761Y-119237574D01*
X145602248Y-119062160D01*
X145983376Y-118807499D01*
X146307499Y-118483376D01*
X146562160Y-118102248D01*
X146737574Y-117678761D01*
X146827000Y-117229189D01*
X146827000Y-116770811D01*
X146737574Y-116321239D01*
X146562160Y-115897752D01*
X146307499Y-115516624D01*
X145983376Y-115192501D01*
X145602248Y-114937840D01*
X145178761Y-114762426D01*
X144729189Y-114673000D01*
X144270811Y-114673000D01*
X143821239Y-114762426D01*
X143397752Y-114937840D01*
X143016624Y-115192501D01*
X142692501Y-115516624D01*
X142437840Y-115897752D01*
X142262426Y-116321239D01*
X142173000Y-116770811D01*
X138787541Y-116770811D01*
X138777735Y-116671251D01*
X138681842Y-116355135D01*
X138526121Y-116063801D01*
X138316556Y-115808444D01*
X138245341Y-115750000D01*
X138316556Y-115691556D01*
X138526121Y-115436199D01*
X138681842Y-115144865D01*
X138777735Y-114828749D01*
X138810114Y-114500000D01*
X138777735Y-114171251D01*
X138681842Y-113855135D01*
X138526121Y-113563801D01*
X138316556Y-113308444D01*
X138090164Y-113122650D01*
X138134429Y-113089049D01*
X138327496Y-112871193D01*
X138474352Y-112619858D01*
X138566476Y-112356890D01*
X138445155Y-112127000D01*
X137127000Y-112127000D01*
X137127000Y-112147000D01*
X136873000Y-112147000D01*
X136873000Y-112127000D01*
X135554845Y-112127000D01*
X135433524Y-112356890D01*
X135525648Y-112619858D01*
X135672504Y-112871193D01*
X135865571Y-113089049D01*
X135909836Y-113122650D01*
X135683444Y-113308444D01*
X135473879Y-113563801D01*
X135318158Y-113855135D01*
X135222265Y-114171251D01*
X135189886Y-114500000D01*
X135222265Y-114828749D01*
X135318158Y-115144865D01*
X135473879Y-115436199D01*
X135668216Y-115673000D01*
X134677000Y-115673000D01*
X134677000Y-107229660D01*
X135193999Y-106712662D01*
X135193999Y-107600000D01*
X135214770Y-107810893D01*
X135276285Y-108013681D01*
X135376181Y-108200572D01*
X135510617Y-108364383D01*
X135586457Y-108426623D01*
X135473879Y-108563801D01*
X135318158Y-108855135D01*
X135222265Y-109171251D01*
X135189886Y-109500000D01*
X135222265Y-109828749D01*
X135318158Y-110144865D01*
X135473879Y-110436199D01*
X135683444Y-110691556D01*
X135909836Y-110877350D01*
X135865571Y-110910951D01*
X135672504Y-111128807D01*
X135525648Y-111380142D01*
X135433524Y-111643110D01*
X135554845Y-111873000D01*
X136873000Y-111873000D01*
X136873000Y-111853000D01*
X137127000Y-111853000D01*
X137127000Y-111873000D01*
X138445155Y-111873000D01*
X138566476Y-111643110D01*
X138474352Y-111380142D01*
X138327496Y-111128807D01*
X138134429Y-110910951D01*
X138090164Y-110877350D01*
X138316556Y-110691556D01*
X138451603Y-110527000D01*
X138574604Y-110527000D01*
X139223001Y-111175398D01*
X139223000Y-113449559D01*
X139218032Y-113500000D01*
X139223000Y-113550441D01*
X139223000Y-113550450D01*
X139237860Y-113701326D01*
X139296585Y-113894916D01*
X139391949Y-114073331D01*
X139520288Y-114229712D01*
X139559480Y-114261876D01*
X139988127Y-114690524D01*
X140020288Y-114729712D01*
X140176669Y-114858051D01*
X140355083Y-114953415D01*
X140489947Y-114994326D01*
X140548672Y-115012140D01*
X140566831Y-115013928D01*
X140699549Y-115027000D01*
X140699556Y-115027000D01*
X140750000Y-115031968D01*
X140800443Y-115027000D01*
X141078473Y-115027000D01*
X141168798Y-115087353D01*
X141392097Y-115179847D01*
X141629151Y-115227000D01*
X141870849Y-115227000D01*
X142107903Y-115179847D01*
X142331202Y-115087353D01*
X142532167Y-114953073D01*
X142703073Y-114782167D01*
X142837353Y-114581202D01*
X142929847Y-114357903D01*
X142977000Y-114120849D01*
X142977000Y-113879151D01*
X142929847Y-113642097D01*
X142837353Y-113418798D01*
X142703073Y-113217833D01*
X142532167Y-113046927D01*
X142331202Y-112912647D01*
X142107903Y-112820153D01*
X141870849Y-112773000D01*
X141629151Y-112773000D01*
X141392097Y-112820153D01*
X141277000Y-112867828D01*
X141277000Y-110800441D01*
X141281968Y-110750000D01*
X141277000Y-110699559D01*
X141277000Y-110699549D01*
X141262140Y-110548673D01*
X141255566Y-110527000D01*
X145283373Y-110527000D01*
X145320153Y-110711903D01*
X145412647Y-110935202D01*
X145546927Y-111136167D01*
X145717833Y-111307073D01*
X145918798Y-111441353D01*
X146142097Y-111533847D01*
X146248644Y-111555041D01*
X147791469Y-113097866D01*
X147823630Y-113137054D01*
X147980011Y-113265393D01*
X148158425Y-113360757D01*
X148352015Y-113419482D01*
X148502891Y-113434342D01*
X148502900Y-113434342D01*
X148553341Y-113439310D01*
X148603782Y-113434342D01*
X153584797Y-113434342D01*
X153585386Y-113434930D01*
X153606579Y-113541477D01*
X153699073Y-113764776D01*
X153833353Y-113965741D01*
X154004259Y-114136647D01*
X154205224Y-114270927D01*
X154428523Y-114363421D01*
X154535070Y-114384614D01*
X155584475Y-115434021D01*
X155584485Y-115434030D01*
X155994989Y-115844534D01*
X156027150Y-115883722D01*
X156183531Y-116012061D01*
X156361945Y-116107425D01*
X156496809Y-116148336D01*
X156555534Y-116166150D01*
X156573693Y-116167938D01*
X156706411Y-116181010D01*
X156706418Y-116181010D01*
X156756862Y-116185978D01*
X156807305Y-116181010D01*
X165473000Y-116181010D01*
X165473000Y-116424558D01*
X165468032Y-116475000D01*
X165473000Y-116525441D01*
X165473000Y-116525450D01*
X165487860Y-116676326D01*
X165546585Y-116869916D01*
X165641949Y-117048331D01*
X165770288Y-117204712D01*
X165809481Y-117236877D01*
X166196336Y-117623732D01*
X166214770Y-117810893D01*
X166276285Y-118013681D01*
X166376181Y-118200572D01*
X166510617Y-118364383D01*
X166674428Y-118498819D01*
X166861319Y-118598715D01*
X167064107Y-118660230D01*
X167275000Y-118681001D01*
X168725000Y-118681001D01*
X168935893Y-118660230D01*
X169138681Y-118598715D01*
X169325572Y-118498819D01*
X169489383Y-118364383D01*
X169623819Y-118200572D01*
X169723715Y-118013681D01*
X169785230Y-117810893D01*
X169806001Y-117600000D01*
X169806001Y-116400000D01*
X169785230Y-116189107D01*
X169723715Y-115986319D01*
X169623819Y-115799428D01*
X169489383Y-115635617D01*
X169413543Y-115573377D01*
X169526121Y-115436199D01*
X169681842Y-115144865D01*
X169777735Y-114828749D01*
X169810114Y-114500000D01*
X169777735Y-114171251D01*
X169681842Y-113855135D01*
X169526121Y-113563801D01*
X169316556Y-113308444D01*
X169090164Y-113122650D01*
X169134429Y-113089049D01*
X169327496Y-112871193D01*
X169474352Y-112619858D01*
X169566476Y-112356890D01*
X169445155Y-112127000D01*
X168127000Y-112127000D01*
X168127000Y-112147000D01*
X167873000Y-112147000D01*
X167873000Y-112127000D01*
X166554845Y-112127000D01*
X166433524Y-112356890D01*
X166525648Y-112619858D01*
X166672504Y-112871193D01*
X166865571Y-113089049D01*
X166909836Y-113122650D01*
X166683444Y-113308444D01*
X166548397Y-113473000D01*
X163502344Y-113473000D01*
X163532167Y-113453073D01*
X163703073Y-113282167D01*
X163837353Y-113081202D01*
X163929847Y-112857903D01*
X163977000Y-112620849D01*
X163977000Y-112379151D01*
X163929847Y-112142097D01*
X163837353Y-111918798D01*
X163777000Y-111828473D01*
X163777000Y-110550440D01*
X163781968Y-110499999D01*
X163777000Y-110449558D01*
X163777000Y-110449549D01*
X163762140Y-110298673D01*
X163703415Y-110105083D01*
X163608051Y-109926669D01*
X163479712Y-109770288D01*
X163440525Y-109738128D01*
X160516826Y-106814430D01*
X160555055Y-106776201D01*
X160774150Y-106448303D01*
X160925064Y-106083962D01*
X161002000Y-105697180D01*
X161002000Y-105302820D01*
X160925064Y-104916038D01*
X160774150Y-104551697D01*
X160555055Y-104223799D01*
X160276201Y-103944945D01*
X159948303Y-103725850D01*
X159583962Y-103574936D01*
X159197180Y-103498000D01*
X158802820Y-103498000D01*
X158416038Y-103574936D01*
X158051697Y-103725850D01*
X157723799Y-103944945D01*
X157444945Y-104223799D01*
X157225850Y-104551697D01*
X157074936Y-104916038D01*
X156998000Y-105302820D01*
X156998000Y-105697180D01*
X157074936Y-106083962D01*
X157194658Y-106372999D01*
X157056751Y-106372999D01*
X156953073Y-106217833D01*
X156782167Y-106046927D01*
X156581202Y-105912647D01*
X156357903Y-105820153D01*
X156120849Y-105773000D01*
X155879151Y-105773000D01*
X155642097Y-105820153D01*
X155418798Y-105912647D01*
X155217833Y-106046927D01*
X155046927Y-106217833D01*
X154912647Y-106418798D01*
X154820153Y-106642097D01*
X154773000Y-106879151D01*
X154773000Y-107120849D01*
X154820153Y-107357903D01*
X154912647Y-107581202D01*
X155046927Y-107782167D01*
X155217833Y-107953073D01*
X155418798Y-108087353D01*
X155642097Y-108179847D01*
X155759940Y-108203287D01*
X155826668Y-108258050D01*
X156005082Y-108353414D01*
X156198672Y-108412139D01*
X156349548Y-108426999D01*
X156349557Y-108426999D01*
X156399998Y-108431967D01*
X156450439Y-108426999D01*
X157900317Y-108426999D01*
X157723799Y-108544945D01*
X157444945Y-108823799D01*
X157225850Y-109151697D01*
X157074936Y-109516038D01*
X156998000Y-109902820D01*
X156998000Y-110297180D01*
X157074936Y-110683962D01*
X157225850Y-111048303D01*
X157444945Y-111376201D01*
X157723799Y-111655055D01*
X158051697Y-111874150D01*
X158416038Y-112025064D01*
X158802820Y-112102000D01*
X159197180Y-112102000D01*
X159583962Y-112025064D01*
X159948303Y-111874150D01*
X160276201Y-111655055D01*
X160555055Y-111376201D01*
X160774150Y-111048303D01*
X160925064Y-110683962D01*
X161002000Y-110297180D01*
X161002000Y-110204397D01*
X161723001Y-110925398D01*
X161723000Y-111828472D01*
X161662647Y-111918798D01*
X161570153Y-112142097D01*
X161523000Y-112379151D01*
X161523000Y-112620849D01*
X161570153Y-112857903D01*
X161662647Y-113081202D01*
X161796927Y-113282167D01*
X161967833Y-113453073D01*
X161997656Y-113473000D01*
X157735989Y-113473000D01*
X153072468Y-108809481D01*
X153040303Y-108770288D01*
X152883922Y-108641949D01*
X152705508Y-108546585D01*
X152511918Y-108487860D01*
X152361042Y-108473000D01*
X152361032Y-108473000D01*
X152310591Y-108468032D01*
X152260150Y-108473000D01*
X147039250Y-108473000D01*
X147045870Y-108439719D01*
X147045870Y-108198021D01*
X146998717Y-107960967D01*
X146906223Y-107737668D01*
X146771943Y-107536703D01*
X146601037Y-107365797D01*
X146400072Y-107231517D01*
X146176773Y-107139023D01*
X146070227Y-107117830D01*
X145689397Y-106737000D01*
X153604826Y-106737000D01*
X153670000Y-106743419D01*
X153735174Y-106737000D01*
X153735184Y-106737000D01*
X153930137Y-106717799D01*
X154180278Y-106641919D01*
X154410808Y-106518698D01*
X154612870Y-106352870D01*
X154654425Y-106302235D01*
X158069661Y-102887000D01*
X159625242Y-102887000D01*
X160076911Y-103218545D01*
X160960421Y-104308290D01*
X160962301Y-104311807D01*
X161042557Y-104409599D01*
X161081264Y-104457341D01*
X161084062Y-104460173D01*
X161086577Y-104463237D01*
X161129860Y-104506520D01*
X161218955Y-104596684D01*
X161222262Y-104598923D01*
X162977761Y-106354423D01*
X162977772Y-106354432D01*
X164515579Y-107892240D01*
X164557130Y-107942870D01*
X164607760Y-107984421D01*
X164607761Y-107984422D01*
X164759191Y-108108698D01*
X164883114Y-108174936D01*
X164989722Y-108231919D01*
X165239863Y-108307799D01*
X165434816Y-108327000D01*
X165434825Y-108327000D01*
X165499999Y-108333419D01*
X165565173Y-108327000D01*
X166668216Y-108327000D01*
X166473879Y-108563801D01*
X166318158Y-108855135D01*
X166222265Y-109171251D01*
X166189886Y-109500000D01*
X166222265Y-109828749D01*
X166318158Y-110144865D01*
X166473879Y-110436199D01*
X166683444Y-110691556D01*
X166909836Y-110877350D01*
X166865571Y-110910951D01*
X166672504Y-111128807D01*
X166525648Y-111380142D01*
X166433524Y-111643110D01*
X166554845Y-111873000D01*
X167873000Y-111873000D01*
X167873000Y-111853000D01*
X168127000Y-111853000D01*
X168127000Y-111873000D01*
X169445155Y-111873000D01*
X169566476Y-111643110D01*
X169474352Y-111380142D01*
X169327496Y-111128807D01*
X169134429Y-110910951D01*
X169090164Y-110877350D01*
X169316556Y-110691556D01*
X169526121Y-110436199D01*
X169681842Y-110144865D01*
X169777735Y-109828749D01*
X169810114Y-109500000D01*
X169777735Y-109171251D01*
X169681842Y-108855135D01*
X169526121Y-108563801D01*
X169316556Y-108308444D01*
X169245341Y-108250000D01*
X169316556Y-108191556D01*
X169526121Y-107936199D01*
X169681842Y-107644865D01*
X169777735Y-107328749D01*
X169810114Y-107000000D01*
X169777735Y-106671251D01*
X169681842Y-106355135D01*
X169526121Y-106063801D01*
X169316556Y-105808444D01*
X169061199Y-105598879D01*
X168769865Y-105443158D01*
X168453749Y-105347265D01*
X168207383Y-105323000D01*
X167792617Y-105323000D01*
X167546251Y-105347265D01*
X167230135Y-105443158D01*
X166938801Y-105598879D01*
X166848484Y-105673000D01*
X166049661Y-105673000D01*
X164854432Y-104477772D01*
X164854423Y-104477761D01*
X163703661Y-103327000D01*
X163729189Y-103327000D01*
X164178761Y-103237574D01*
X164602248Y-103062160D01*
X164983376Y-102807499D01*
X165307499Y-102483376D01*
X165562160Y-102102248D01*
X165737574Y-101678761D01*
X165827000Y-101229189D01*
X165827000Y-100770811D01*
X165737574Y-100321239D01*
X165562160Y-99897752D01*
X165307499Y-99516624D01*
X164983376Y-99192501D01*
X164810516Y-99077000D01*
X166880698Y-99077000D01*
X166944952Y-99064219D01*
X167010137Y-99057799D01*
X167072817Y-99038785D01*
X167137072Y-99026004D01*
X167173000Y-99011122D01*
X167173000Y-99229189D01*
X167262426Y-99678761D01*
X167437840Y-100102248D01*
X167692501Y-100483376D01*
X168016624Y-100807499D01*
X168397752Y-101062160D01*
X168821239Y-101237574D01*
X169270811Y-101327000D01*
X169729189Y-101327000D01*
X170178761Y-101237574D01*
X170602248Y-101062160D01*
X170983376Y-100807499D01*
X171307499Y-100483376D01*
X171562160Y-100102248D01*
X171737574Y-99678761D01*
X171827000Y-99229189D01*
X171827000Y-98770811D01*
X171737574Y-98321239D01*
X171562160Y-97897752D01*
X171307499Y-97516624D01*
X170983376Y-97192501D01*
X170602248Y-96937840D01*
X170178761Y-96762426D01*
X169729189Y-96673000D01*
X169270811Y-96673000D01*
X168821239Y-96762426D01*
X168397752Y-96937840D01*
X168016624Y-97192501D01*
X167977559Y-97231566D01*
X167951044Y-97181959D01*
X167925972Y-97121430D01*
X167889573Y-97066955D01*
X167858698Y-97009192D01*
X167817147Y-96958562D01*
X167780748Y-96904087D01*
X167734421Y-96857760D01*
X167692870Y-96807130D01*
X167642239Y-96765578D01*
X167595913Y-96719252D01*
X167541438Y-96682853D01*
X167490808Y-96641302D01*
X167433045Y-96610427D01*
X167378570Y-96574028D01*
X167318041Y-96548956D01*
X167260278Y-96518081D01*
X167197601Y-96499068D01*
X167137072Y-96473996D01*
X167072817Y-96461215D01*
X167010137Y-96442201D01*
X166944952Y-96435781D01*
X166880698Y-96423000D01*
X163479252Y-96423000D01*
X163414078Y-96416581D01*
X163348904Y-96423000D01*
X163348894Y-96423000D01*
X163153941Y-96442201D01*
X162962103Y-96500395D01*
X162903800Y-96518081D01*
X162673269Y-96641302D01*
X162573935Y-96722824D01*
X162471208Y-96807130D01*
X162429657Y-96857760D01*
X160107765Y-99179653D01*
X160057130Y-99221208D01*
X160015578Y-99271840D01*
X159891302Y-99423270D01*
X159859475Y-99482814D01*
X159790309Y-99413648D01*
X159827000Y-99229189D01*
X159827000Y-98770811D01*
X159737574Y-98321239D01*
X159562160Y-97897752D01*
X159307499Y-97516624D01*
X158983376Y-97192501D01*
X158602248Y-96937840D01*
X158178761Y-96762426D01*
X157729189Y-96673000D01*
X157270811Y-96673000D01*
X156821239Y-96762426D01*
X156397752Y-96937840D01*
X156016624Y-97192501D01*
X155692501Y-97516624D01*
X155437840Y-97897752D01*
X155262426Y-98321239D01*
X155173000Y-98770811D01*
X155173000Y-99229189D01*
X155262426Y-99678761D01*
X155437840Y-100102248D01*
X155692501Y-100483376D01*
X156016624Y-100807499D01*
X156243948Y-100959391D01*
X153120340Y-104083000D01*
X140249661Y-104083000D01*
X138144422Y-101977762D01*
X138102870Y-101927130D01*
X138052236Y-101885576D01*
X137274425Y-101107765D01*
X137232870Y-101057130D01*
X137030808Y-100891302D01*
X136800278Y-100768081D01*
X136550137Y-100692201D01*
X136355184Y-100673000D01*
X136355174Y-100673000D01*
X136290000Y-100666581D01*
X136224826Y-100673000D01*
X134528378Y-100673000D01*
X134437606Y-100562394D01*
X134311679Y-100459048D01*
X134168010Y-100382255D01*
X134012120Y-100334966D01*
X133850000Y-100318999D01*
X132150000Y-100318999D01*
X131987880Y-100334966D01*
X131831990Y-100382255D01*
X131688321Y-100459048D01*
X131562394Y-100562394D01*
X131459048Y-100688321D01*
X131382255Y-100831990D01*
X131334966Y-100987880D01*
X131318999Y-101150000D01*
X130877000Y-101150000D01*
X130877000Y-96850000D01*
X131511928Y-96850000D01*
X131524188Y-96974482D01*
X131560498Y-97094180D01*
X131619463Y-97204494D01*
X131698815Y-97301185D01*
X131795506Y-97380537D01*
X131905820Y-97439502D01*
X132025518Y-97475812D01*
X132150000Y-97488072D01*
X132714250Y-97485000D01*
X132873000Y-97326250D01*
X132873000Y-96127000D01*
X133127000Y-96127000D01*
X133127000Y-97326250D01*
X133285750Y-97485000D01*
X133850000Y-97488072D01*
X133974482Y-97475812D01*
X134094180Y-97439502D01*
X134204494Y-97380537D01*
X134301185Y-97301185D01*
X134380537Y-97204494D01*
X134439502Y-97094180D01*
X134475812Y-96974482D01*
X134488072Y-96850000D01*
X134485000Y-96285750D01*
X134326250Y-96127000D01*
X133127000Y-96127000D01*
X132873000Y-96127000D01*
X131673750Y-96127000D01*
X131515000Y-96285750D01*
X131511928Y-96850000D01*
X130877000Y-96850000D01*
X130877000Y-95150000D01*
X131511928Y-95150000D01*
X131515000Y-95714250D01*
X131673750Y-95873000D01*
X132873000Y-95873000D01*
X132873000Y-94673750D01*
X133127000Y-94673750D01*
X133127000Y-95873000D01*
X134326250Y-95873000D01*
X134485000Y-95714250D01*
X134488072Y-95150000D01*
X134475812Y-95025518D01*
X134439502Y-94905820D01*
X134380537Y-94795506D01*
X134301185Y-94698815D01*
X134204494Y-94619463D01*
X134094180Y-94560498D01*
X133974482Y-94524188D01*
X133850000Y-94511928D01*
X133285750Y-94515000D01*
X133127000Y-94673750D01*
X132873000Y-94673750D01*
X132714250Y-94515000D01*
X132150000Y-94511928D01*
X132025518Y-94524188D01*
X131905820Y-94560498D01*
X131795506Y-94619463D01*
X131698815Y-94698815D01*
X131619463Y-94795506D01*
X131560498Y-94905820D01*
X131524188Y-95025518D01*
X131511928Y-95150000D01*
X130877000Y-95150000D01*
X130877000Y-92951505D01*
X130900153Y-93067903D01*
X130992647Y-93291202D01*
X131126927Y-93492167D01*
X131297833Y-93663073D01*
X131498798Y-93797353D01*
X131722097Y-93889847D01*
X131959151Y-93937000D01*
X132200849Y-93937000D01*
X132437903Y-93889847D01*
X132661202Y-93797353D01*
X132751527Y-93737000D01*
X132989557Y-93737000D01*
X133040000Y-93741968D01*
X133090443Y-93737000D01*
X134801276Y-93737000D01*
X134773000Y-93879151D01*
X134773000Y-94120849D01*
X134820153Y-94357903D01*
X134912647Y-94581202D01*
X135046927Y-94782167D01*
X135217833Y-94953073D01*
X135418798Y-95087353D01*
X135642097Y-95179847D01*
X135748644Y-95201041D01*
X136798960Y-96251356D01*
X136820153Y-96357903D01*
X136912647Y-96581202D01*
X137046927Y-96782167D01*
X137217833Y-96953073D01*
X137418798Y-97087353D01*
X137642097Y-97179847D01*
X137879151Y-97227000D01*
X138073000Y-97227000D01*
X138073000Y-99626997D01*
X138061740Y-99741319D01*
X138080454Y-99931317D01*
X138106670Y-100197491D01*
X138174070Y-100419679D01*
X138239730Y-100636132D01*
X138455808Y-101040385D01*
X138598477Y-101214228D01*
X138746601Y-101394718D01*
X138835395Y-101467590D01*
X140652409Y-103284604D01*
X140725281Y-103373399D01*
X141079613Y-103664191D01*
X141483867Y-103880270D01*
X141922508Y-104013330D01*
X142260152Y-104046585D01*
X142378680Y-104058259D01*
X142492994Y-104047000D01*
X144729189Y-104047000D01*
X144841854Y-104024589D01*
X144956172Y-104013330D01*
X145066100Y-103979984D01*
X145178761Y-103957574D01*
X145284883Y-103913617D01*
X145394813Y-103880270D01*
X145496124Y-103826118D01*
X145602248Y-103782160D01*
X145697761Y-103718340D01*
X145799067Y-103664191D01*
X145887860Y-103591320D01*
X145983376Y-103527499D01*
X146064605Y-103446270D01*
X146153399Y-103373399D01*
X146226271Y-103284604D01*
X146307499Y-103203376D01*
X146371320Y-103107860D01*
X146444191Y-103019067D01*
X146498340Y-102917761D01*
X146562160Y-102822248D01*
X146606118Y-102716124D01*
X146660270Y-102614813D01*
X146693617Y-102504883D01*
X146737574Y-102398761D01*
X146759984Y-102286100D01*
X146793330Y-102176172D01*
X146804589Y-102061855D01*
X146827000Y-101949189D01*
X146827000Y-101834314D01*
X146838259Y-101720000D01*
X146827000Y-101605685D01*
X146827000Y-101490811D01*
X146804589Y-101378145D01*
X146793330Y-101263828D01*
X146759984Y-101153900D01*
X146737574Y-101041239D01*
X146693617Y-100935117D01*
X146660270Y-100825187D01*
X146606118Y-100723876D01*
X146562160Y-100617752D01*
X146498340Y-100522239D01*
X146444191Y-100420933D01*
X146371320Y-100332140D01*
X146307499Y-100236624D01*
X146226270Y-100155395D01*
X146153399Y-100066601D01*
X146064604Y-99993729D01*
X145983376Y-99912501D01*
X145887860Y-99848680D01*
X145799067Y-99775809D01*
X145697761Y-99721660D01*
X145602248Y-99657840D01*
X145496124Y-99613882D01*
X145394813Y-99559730D01*
X145284883Y-99526383D01*
X145178761Y-99482426D01*
X145066100Y-99460016D01*
X144956172Y-99426670D01*
X144841854Y-99415411D01*
X144729189Y-99393000D01*
X143342555Y-99393000D01*
X142726999Y-98777445D01*
X142726999Y-98197874D01*
X143016624Y-98487499D01*
X143397752Y-98742160D01*
X143821239Y-98917574D01*
X144270811Y-99007000D01*
X144729189Y-99007000D01*
X145178761Y-98917574D01*
X145602248Y-98742160D01*
X145983376Y-98487499D01*
X146027169Y-98443706D01*
X146085721Y-98636725D01*
X146301800Y-99040979D01*
X146592592Y-99395312D01*
X146681392Y-99468188D01*
X149853182Y-102639979D01*
X149893880Y-102716119D01*
X149937840Y-102822248D01*
X150001662Y-102917765D01*
X150055809Y-103019066D01*
X150128677Y-103107856D01*
X150192501Y-103203376D01*
X150273730Y-103284605D01*
X150346601Y-103373399D01*
X150435395Y-103446270D01*
X150516624Y-103527499D01*
X150612140Y-103591320D01*
X150700933Y-103664191D01*
X150802239Y-103718340D01*
X150897752Y-103782160D01*
X151003876Y-103826118D01*
X151105187Y-103880270D01*
X151215117Y-103913617D01*
X151321239Y-103957574D01*
X151433900Y-103979984D01*
X151543828Y-104013330D01*
X151658145Y-104024589D01*
X151770811Y-104047000D01*
X151885685Y-104047000D01*
X152000000Y-104058259D01*
X152114314Y-104047000D01*
X152229189Y-104047000D01*
X152341855Y-104024589D01*
X152456171Y-104013330D01*
X152566097Y-103979984D01*
X152678761Y-103957574D01*
X152784886Y-103913616D01*
X152894812Y-103880270D01*
X152996119Y-103826120D01*
X153102248Y-103782160D01*
X153197765Y-103718338D01*
X153299066Y-103664191D01*
X153387856Y-103591323D01*
X153483376Y-103527499D01*
X153564605Y-103446270D01*
X153653399Y-103373399D01*
X153726271Y-103284604D01*
X153807499Y-103203376D01*
X153871320Y-103107860D01*
X153944191Y-103019067D01*
X153998340Y-102917761D01*
X154062160Y-102822248D01*
X154106118Y-102716124D01*
X154160270Y-102614813D01*
X154193617Y-102504883D01*
X154237574Y-102398761D01*
X154259984Y-102286100D01*
X154293330Y-102176172D01*
X154304589Y-102061854D01*
X154327000Y-101949189D01*
X154327000Y-101610225D01*
X154338258Y-101495921D01*
X154327000Y-101381617D01*
X154327000Y-101381608D01*
X154293330Y-101039751D01*
X154160270Y-100601110D01*
X154080196Y-100451302D01*
X153944191Y-100196854D01*
X153726270Y-99931317D01*
X153653399Y-99842523D01*
X153564604Y-99769651D01*
X152543328Y-98748375D01*
X152860383Y-98645243D01*
X153156038Y-98487214D01*
X153312048Y-98171653D01*
X152000000Y-96859605D01*
X151985858Y-96873748D01*
X151806253Y-96694143D01*
X151820395Y-96680000D01*
X152179605Y-96680000D01*
X153491653Y-97992048D01*
X153807214Y-97836038D01*
X153998020Y-97461255D01*
X154112044Y-97056449D01*
X154144902Y-96637176D01*
X154095334Y-96219549D01*
X153965243Y-95819617D01*
X153807214Y-95523962D01*
X153491653Y-95367952D01*
X152179605Y-96680000D01*
X151820395Y-96680000D01*
X151806253Y-96665858D01*
X151985858Y-96486253D01*
X152000000Y-96500395D01*
X153312048Y-95188347D01*
X153156038Y-94872786D01*
X152781255Y-94681980D01*
X152376449Y-94567956D01*
X151957176Y-94535098D01*
X151539549Y-94584666D01*
X151139617Y-94714757D01*
X150843962Y-94872786D01*
X150687953Y-95188345D01*
X150573261Y-95073653D01*
X150572991Y-95073923D01*
X150572991Y-93485162D01*
X150612147Y-93511325D01*
X150700934Y-93584191D01*
X150802234Y-93638337D01*
X150897752Y-93702160D01*
X151003884Y-93746121D01*
X151105187Y-93800269D01*
X151215107Y-93833613D01*
X151321239Y-93877574D01*
X151433912Y-93899986D01*
X151543829Y-93933329D01*
X151658137Y-93944588D01*
X151770811Y-93967000D01*
X151885688Y-93967000D01*
X152000000Y-93978259D01*
X152114312Y-93967000D01*
X152229189Y-93967000D01*
X152341863Y-93944588D01*
X152456171Y-93933329D01*
X152566088Y-93899986D01*
X152678761Y-93877574D01*
X152784893Y-93833613D01*
X152894813Y-93800269D01*
X152996116Y-93746121D01*
X153102248Y-93702160D01*
X153197766Y-93638337D01*
X153299066Y-93584191D01*
X153387855Y-93511324D01*
X153483376Y-93447499D01*
X153807499Y-93123376D01*
X153807501Y-93123373D01*
X156654604Y-90276271D01*
X156743399Y-90203399D01*
X157034191Y-89849067D01*
X157250270Y-89444813D01*
X157380067Y-89016928D01*
X157779333Y-89283708D01*
X158248317Y-89477967D01*
X158746188Y-89577000D01*
X159253812Y-89577000D01*
X159751683Y-89477967D01*
X160220667Y-89283708D01*
X160455198Y-89127000D01*
X169729189Y-89127000D01*
X169841854Y-89104589D01*
X169956172Y-89093330D01*
X170066100Y-89059984D01*
X170178761Y-89037574D01*
X170284883Y-88993617D01*
X170394813Y-88960270D01*
X170496124Y-88906118D01*
X170602248Y-88862160D01*
X170697761Y-88798340D01*
X170799067Y-88744191D01*
X170887860Y-88671320D01*
X170983376Y-88607499D01*
X171064604Y-88526271D01*
X171153399Y-88453399D01*
X171226271Y-88364604D01*
X171307499Y-88283376D01*
X171371320Y-88187860D01*
X171444191Y-88099067D01*
X171498340Y-87997761D01*
X171562160Y-87902248D01*
X171606118Y-87796124D01*
X171660270Y-87694813D01*
X171693617Y-87584883D01*
X171737574Y-87478761D01*
X171759984Y-87366100D01*
X171793330Y-87256172D01*
X171804589Y-87141855D01*
X171827000Y-87029189D01*
X171827000Y-86914315D01*
X171838259Y-86800000D01*
X171827000Y-86685685D01*
X171827000Y-86570811D01*
X171804589Y-86458145D01*
X171793330Y-86343828D01*
X171759984Y-86233900D01*
X171737574Y-86121239D01*
X171693617Y-86015117D01*
X171660270Y-85905187D01*
X171606118Y-85803876D01*
X171562160Y-85697752D01*
X171498340Y-85602239D01*
X171444191Y-85500933D01*
X171371320Y-85412140D01*
X171307499Y-85316624D01*
X171226271Y-85235396D01*
X171153399Y-85146601D01*
X171064604Y-85073729D01*
X170983376Y-84992501D01*
X170887860Y-84928680D01*
X170799067Y-84855809D01*
X170697761Y-84801660D01*
X170602248Y-84737840D01*
X170496124Y-84693882D01*
X170394813Y-84639730D01*
X170284883Y-84606383D01*
X170178761Y-84562426D01*
X170066100Y-84540016D01*
X169956172Y-84506670D01*
X169841854Y-84495411D01*
X169729189Y-84473000D01*
X159505178Y-84473000D01*
X159253812Y-84423000D01*
X158746188Y-84423000D01*
X158248317Y-84522033D01*
X157779333Y-84716292D01*
X157417000Y-84958395D01*
X157417000Y-72385685D01*
X157407626Y-72290509D01*
X158123000Y-72290509D01*
X158123000Y-72709491D01*
X158204739Y-73120423D01*
X158365077Y-73507512D01*
X158597851Y-73855884D01*
X158894116Y-74152149D01*
X159242488Y-74384923D01*
X159629577Y-74545261D01*
X160040509Y-74627000D01*
X160459491Y-74627000D01*
X160870423Y-74545261D01*
X161257512Y-74384923D01*
X161605884Y-74152149D01*
X161902149Y-73855884D01*
X162134923Y-73507512D01*
X162295261Y-73120423D01*
X162377000Y-72709491D01*
X162377000Y-72290509D01*
X162295261Y-71879577D01*
X162134923Y-71492488D01*
X161902149Y-71144116D01*
X161605884Y-70847851D01*
X161257512Y-70615077D01*
X160870423Y-70454739D01*
X160459491Y-70373000D01*
X160040509Y-70373000D01*
X159629577Y-70454739D01*
X159242488Y-70615077D01*
X158894116Y-70847851D01*
X158597851Y-71144116D01*
X158365077Y-71492488D01*
X158204739Y-71879577D01*
X158123000Y-72290509D01*
X157407626Y-72290509D01*
X157383330Y-72043828D01*
X157250270Y-71605187D01*
X157034191Y-71200933D01*
X156743399Y-70846601D01*
X156389066Y-70555809D01*
X155984812Y-70339730D01*
X155546171Y-70206670D01*
X155090000Y-70161741D01*
X154633828Y-70206670D01*
X154195187Y-70339730D01*
X153790933Y-70555809D01*
X153436601Y-70846601D01*
X153145809Y-71200934D01*
X152929730Y-71605188D01*
X152796670Y-72043829D01*
X152763000Y-72385686D01*
X152763001Y-87586124D01*
X150572991Y-89776135D01*
X150572991Y-89217883D01*
X151814605Y-87976270D01*
X151903399Y-87903399D01*
X152194191Y-87549067D01*
X152228313Y-87485230D01*
X152410270Y-87144814D01*
X152467866Y-86954943D01*
X152543330Y-86706172D01*
X152577000Y-86364315D01*
X152577000Y-86364312D01*
X152588259Y-86250000D01*
X152577000Y-86135688D01*
X152577000Y-72385685D01*
X152543330Y-72043828D01*
X152410270Y-71605187D01*
X152194191Y-71200933D01*
X151903399Y-70846601D01*
X151549067Y-70555809D01*
X151144813Y-70339730D01*
X150706172Y-70206670D01*
X150250000Y-70161741D01*
X149793829Y-70206670D01*
X149355188Y-70339730D01*
X148950934Y-70555809D01*
X148596602Y-70846601D01*
X148305810Y-71200933D01*
X148089731Y-71605187D01*
X147956671Y-72043828D01*
X147923001Y-72385685D01*
X147923000Y-85286125D01*
X146681387Y-86527738D01*
X146592593Y-86600610D01*
X146519721Y-86689405D01*
X146301800Y-86954943D01*
X146117363Y-87300000D01*
X146085722Y-87359196D01*
X145952662Y-87797837D01*
X145950236Y-87822473D01*
X145907732Y-88254009D01*
X145918992Y-88368331D01*
X145918992Y-89789481D01*
X145887860Y-89768680D01*
X145799067Y-89695809D01*
X145697761Y-89641660D01*
X145602248Y-89577840D01*
X145496124Y-89533882D01*
X145394813Y-89479730D01*
X145284883Y-89446383D01*
X145224921Y-89421546D01*
X143309376Y-87506001D01*
X144000001Y-87506001D01*
X144210894Y-87485230D01*
X144413682Y-87423715D01*
X144600572Y-87323820D01*
X144764383Y-87189383D01*
X144898820Y-87025572D01*
X144998715Y-86838682D01*
X145026421Y-86747347D01*
X145052104Y-86726270D01*
X146494599Y-85283775D01*
X146583399Y-85210899D01*
X146874191Y-84856567D01*
X147090270Y-84452313D01*
X147223330Y-84013672D01*
X147257000Y-83671815D01*
X147257000Y-83671813D01*
X147268259Y-83557501D01*
X147257000Y-83443189D01*
X147257000Y-73212793D01*
X147295261Y-73120423D01*
X147377000Y-72709491D01*
X147377000Y-72290509D01*
X147295261Y-71879577D01*
X147134923Y-71492488D01*
X146902149Y-71144116D01*
X146605884Y-70847851D01*
X146493077Y-70772476D01*
X146229066Y-70555809D01*
X145824812Y-70339730D01*
X145386171Y-70206670D01*
X144930000Y-70161741D01*
X144473828Y-70206670D01*
X144035187Y-70339730D01*
X143630933Y-70555809D01*
X143276601Y-70846601D01*
X142985809Y-71200934D01*
X142769730Y-71605188D01*
X142636670Y-72043829D01*
X142603000Y-72385686D01*
X142603001Y-80778202D01*
X142392097Y-80820153D01*
X142168798Y-80912647D01*
X141967833Y-81046927D01*
X141796927Y-81217833D01*
X141662647Y-81418798D01*
X141570153Y-81642097D01*
X141523000Y-81879151D01*
X141523000Y-82120849D01*
X141570153Y-82357903D01*
X141662647Y-82581202D01*
X141723000Y-82671527D01*
X141723001Y-83481979D01*
X141543309Y-83700934D01*
X141327231Y-84105187D01*
X141194171Y-84543829D01*
X141149241Y-85000000D01*
X141187029Y-85383654D01*
X139902885Y-84099511D01*
X140251356Y-83751040D01*
X140357903Y-83729847D01*
X140581202Y-83637353D01*
X140782167Y-83503073D01*
X140953073Y-83332167D01*
X141087353Y-83131202D01*
X141179847Y-82907903D01*
X141227000Y-82670849D01*
X141227000Y-82429151D01*
X141179847Y-82192097D01*
X141087353Y-81968798D01*
X140953073Y-81767833D01*
X140782167Y-81596927D01*
X140581202Y-81462647D01*
X140357903Y-81370153D01*
X140120849Y-81323000D01*
X140075374Y-81323000D01*
X141414604Y-79983771D01*
X141503399Y-79910899D01*
X141794191Y-79556567D01*
X142010270Y-79152313D01*
X142143330Y-78713672D01*
X142177000Y-78371815D01*
X142177000Y-78371812D01*
X142188259Y-78257500D01*
X142177000Y-78143188D01*
X142177000Y-73405929D01*
X142295261Y-73120423D01*
X142377000Y-72709491D01*
X142377000Y-72290509D01*
X142295261Y-71879577D01*
X142134923Y-71492488D01*
X141902149Y-71144116D01*
X141605884Y-70847851D01*
X141257512Y-70615077D01*
X141184366Y-70584779D01*
X141149066Y-70555809D01*
X140744812Y-70339730D01*
X140306171Y-70206670D01*
X139850000Y-70161741D01*
X139393828Y-70206670D01*
X138955187Y-70339730D01*
X138550933Y-70555809D01*
X138196601Y-70846601D01*
X137905809Y-71200934D01*
X137689730Y-71605188D01*
X137556670Y-72043829D01*
X137554035Y-72070581D01*
X137127975Y-71432937D01*
X136567063Y-70872025D01*
X135907500Y-70431319D01*
X135174633Y-70127755D01*
X134396625Y-69973000D01*
X133603375Y-69973000D01*
X132825367Y-70127755D01*
X132092500Y-70431319D01*
X131432937Y-70872025D01*
X130877000Y-71427962D01*
X130877000Y-69877000D01*
X174123001Y-69877000D01*
X174123001Y-71427963D01*
M02*
