G04 #@! TF.FileFunction,Soldermask,Bot*
%FSLAX46Y46*%
G04 Gerber Fmt 4.6, Leading zero omitted, Abs format (unit mm)*
G04 Created by KiCad (PCBNEW 4.0.6) date Tuesday, January 16, 2018 'PMt' 08:20:03 PM*
%MOMM*%
%LPD*%
G01*
G04 APERTURE LIST*
%ADD10C,0.100000*%
%ADD11C,2.750000*%
%ADD12R,2.900000X1.900000*%
%ADD13O,2.900000X1.900000*%
%ADD14R,1.600000X2.600000*%
%ADD15C,2.400000*%
%ADD16R,1.400000X1.900000*%
%ADD17R,1.900000X1.900000*%
%ADD18C,1.900000*%
%ADD19R,1.900000X2.900000*%
%ADD20O,1.900000X2.900000*%
%ADD21C,6.800000*%
%ADD22R,1.650000X1.900000*%
%ADD23R,2.900000X2.900000*%
%ADD24C,2.900000*%
%ADD25R,2.100000X2.100000*%
%ADD26O,2.100000X2.100000*%
%ADD27R,1.900000X1.700000*%
%ADD28R,1.700000X1.900000*%
%ADD29R,1.750000X1.750000*%
%ADD30R,3.000000X2.400000*%
%ADD31O,3.000000X2.400000*%
%ADD32R,2.400000X3.000000*%
%ADD33O,2.400000X3.000000*%
%ADD34R,1.900000X1.650000*%
G04 APERTURE END LIST*
D10*
D11*
X103400000Y-111825000D03*
X103400000Y-106825000D03*
X103400000Y-121825000D03*
X103400000Y-126825000D03*
D12*
X113900000Y-114475000D03*
D13*
X113900000Y-111935000D03*
X113900000Y-109395000D03*
D14*
X137000000Y-141200000D03*
D15*
X135100000Y-143300000D03*
D16*
X120275000Y-119000000D03*
X136100000Y-119000000D03*
X126125000Y-119000000D03*
X132750000Y-119000000D03*
X128625000Y-119000000D03*
X118625000Y-119000000D03*
X131050000Y-119000000D03*
X121925000Y-119000000D03*
X123625000Y-119000000D03*
X113625000Y-119000000D03*
X116125000Y-119000000D03*
D15*
X110900000Y-143300000D03*
D14*
X108600000Y-140000000D03*
D17*
X121000000Y-99100000D03*
D18*
X123540000Y-99100000D03*
X126080000Y-99100000D03*
X128620000Y-99100000D03*
X131160000Y-99100000D03*
X131160000Y-88940000D03*
X128620000Y-88940000D03*
X126080000Y-88940000D03*
X123540000Y-88940000D03*
X121000000Y-88940000D03*
D19*
X119900000Y-77200000D03*
D20*
X122440000Y-77200000D03*
X124980000Y-77200000D03*
D21*
X104000000Y-145000000D03*
X141000000Y-145000000D03*
X141000000Y-80000000D03*
D22*
X117400000Y-77250000D03*
X117400000Y-79750000D03*
X127700000Y-77350000D03*
X127700000Y-79850000D03*
D23*
X103375000Y-138300000D03*
D24*
X103375000Y-133300000D03*
D25*
X142375000Y-122500000D03*
D26*
X142375000Y-119960000D03*
X142375000Y-117420000D03*
D27*
X136350000Y-88900000D03*
X133650000Y-88900000D03*
X128800000Y-96200000D03*
X126100000Y-96200000D03*
X136350000Y-99100000D03*
X133650000Y-99100000D03*
X123700000Y-93900000D03*
X121000000Y-93900000D03*
X128800000Y-91350000D03*
X126100000Y-91350000D03*
D28*
X120900000Y-114350000D03*
X120900000Y-111650000D03*
X116900000Y-111650000D03*
X116900000Y-114350000D03*
D29*
X142625000Y-85450000D03*
X138800000Y-85475000D03*
X141000000Y-134000000D03*
X115175000Y-77375000D03*
X102150000Y-100250000D03*
D21*
X104000000Y-80000000D03*
D30*
X141000000Y-129000000D03*
D31*
X141000000Y-126460000D03*
D32*
X131000000Y-79000000D03*
D33*
X133540000Y-79000000D03*
D32*
X109200000Y-78500000D03*
D33*
X111740000Y-78500000D03*
D32*
X110200000Y-100300000D03*
D33*
X112740000Y-100300000D03*
D34*
X109600000Y-87750000D03*
X112100000Y-87750000D03*
D29*
X105975000Y-100300000D03*
D25*
X143350000Y-110025000D03*
D26*
X140810000Y-110025000D03*
X143350000Y-107485000D03*
X140810000Y-107485000D03*
X143350000Y-104945000D03*
X140810000Y-104945000D03*
X143350000Y-102405000D03*
X140810000Y-102405000D03*
X143350000Y-99865000D03*
X140810000Y-99865000D03*
X143350000Y-97325000D03*
X140810000Y-97325000D03*
X143350000Y-94785000D03*
X140810000Y-94785000D03*
X143350000Y-92245000D03*
X140810000Y-92245000D03*
M02*
