G04 #@! TF.FileFunction,Soldermask,Top*
%FSLAX46Y46*%
G04 Gerber Fmt 4.6, Leading zero omitted, Abs format (unit mm)*
G04 Created by KiCad (PCBNEW 4.0.6) date Thursday, January 25, 2018 'PMt' 01:01:51 PM*
%MOMM*%
%LPD*%
G01*
G04 APERTURE LIST*
%ADD10C,0.100000*%
%ADD11C,2.750000*%
%ADD12R,2.900000X1.900000*%
%ADD13O,2.900000X1.900000*%
%ADD14R,1.900000X1.700000*%
%ADD15C,2.400000*%
%ADD16R,1.900000X1.900000*%
%ADD17C,1.900000*%
%ADD18R,1.900000X2.900000*%
%ADD19O,1.900000X2.900000*%
%ADD20C,6.800000*%
%ADD21R,1.650000X1.900000*%
%ADD22R,2.900000X2.900000*%
%ADD23C,2.900000*%
%ADD24R,2.100000X2.100000*%
%ADD25O,2.100000X2.100000*%
%ADD26R,1.700000X1.900000*%
%ADD27R,1.750000X1.750000*%
%ADD28R,3.000000X2.400000*%
%ADD29O,3.000000X2.400000*%
%ADD30R,2.400000X3.000000*%
%ADD31O,2.400000X3.000000*%
%ADD32R,1.200000X2.300000*%
%ADD33R,1.900000X1.650000*%
%ADD34R,1.400000X2.500000*%
G04 APERTURE END LIST*
D10*
D11*
X103400000Y-111825000D03*
X103400000Y-106825000D03*
X103400000Y-121825000D03*
X103400000Y-126825000D03*
D12*
X113900000Y-114475000D03*
D13*
X113900000Y-111935000D03*
X113900000Y-109395000D03*
D14*
X133050000Y-102800000D03*
X135750000Y-102800000D03*
D15*
X135100000Y-143300000D03*
X110900000Y-143300000D03*
D16*
X121000000Y-99100000D03*
D17*
X123540000Y-99100000D03*
X126080000Y-99100000D03*
X128620000Y-99100000D03*
X131160000Y-99100000D03*
X131160000Y-88940000D03*
X128620000Y-88940000D03*
X126080000Y-88940000D03*
X123540000Y-88940000D03*
X121000000Y-88940000D03*
D18*
X119900000Y-77200000D03*
D19*
X122440000Y-77200000D03*
X124980000Y-77200000D03*
D20*
X104000000Y-145000000D03*
X141000000Y-145000000D03*
X141000000Y-80000000D03*
D21*
X111150000Y-116050000D03*
X111150000Y-113550000D03*
X111125000Y-108375000D03*
X111125000Y-110875000D03*
D22*
X103375000Y-138300000D03*
D23*
X103375000Y-133300000D03*
D24*
X142375000Y-122500000D03*
D25*
X142375000Y-119960000D03*
X142375000Y-117420000D03*
D26*
X139175000Y-117400000D03*
X139175000Y-120100000D03*
D14*
X131325000Y-86025000D03*
X128625000Y-86025000D03*
X123700000Y-86000000D03*
X121000000Y-86000000D03*
X127950000Y-102100000D03*
X125250000Y-102100000D03*
D26*
X136150000Y-120050000D03*
X136150000Y-117350000D03*
D27*
X142625000Y-85450000D03*
X138800000Y-85475000D03*
X141000000Y-134000000D03*
X115175000Y-77375000D03*
X102150000Y-100250000D03*
D20*
X104000000Y-80000000D03*
D28*
X141000000Y-129000000D03*
D29*
X141000000Y-126460000D03*
D30*
X131000000Y-79000000D03*
D31*
X133540000Y-79000000D03*
D30*
X109200000Y-78500000D03*
D31*
X111740000Y-78500000D03*
D14*
X133050000Y-105500000D03*
X135750000Y-105500000D03*
D30*
X110200000Y-100300000D03*
D31*
X112740000Y-100300000D03*
D32*
X123850000Y-105500000D03*
X121950000Y-105500000D03*
X122900000Y-108500000D03*
X129550000Y-105500000D03*
X127650000Y-105500000D03*
X128600000Y-108500000D03*
D33*
X103850000Y-97625000D03*
X101350000Y-97625000D03*
D34*
X101350000Y-95180000D03*
X103890000Y-95180000D03*
X106430000Y-95180000D03*
X111510000Y-95180000D03*
X114050000Y-95180000D03*
X114050000Y-85020000D03*
X111510000Y-85020000D03*
X106430000Y-85020000D03*
X103890000Y-85020000D03*
X101350000Y-85020000D03*
D27*
X105975000Y-100300000D03*
D26*
X114375000Y-126850000D03*
X114375000Y-124150000D03*
X128225000Y-126850000D03*
X128225000Y-124150000D03*
X123550000Y-124150000D03*
X123550000Y-126850000D03*
X119200000Y-124150000D03*
X119200000Y-126850000D03*
D24*
X143350000Y-110025000D03*
D25*
X140810000Y-110025000D03*
X143350000Y-107485000D03*
X140810000Y-107485000D03*
X143350000Y-104945000D03*
X140810000Y-104945000D03*
X143350000Y-102405000D03*
X140810000Y-102405000D03*
X143350000Y-99865000D03*
X140810000Y-99865000D03*
X143350000Y-97325000D03*
X140810000Y-97325000D03*
X143350000Y-94785000D03*
X140810000Y-94785000D03*
X143350000Y-92245000D03*
X140810000Y-92245000D03*
M02*
