M48
;DRILL file {KiCad 4.0.6} date Tuesday, January 16, 2018 'PMt' 08:20:00 PM
;FORMAT={-:-/ absolute / inch / decimal}
FMAT,2
INCH,TZ
T1C0.016
T2C0.031
T3C0.039
T4C0.047
T5C0.051
T6C0.053
T7C0.059
T8C0.126
%
G90
G05
M72
T1
X4.627Y-4.7726
X4.6703Y-4.7894
X4.6732Y-4.6102
X4.8937Y-4.7953
X4.9419Y-3.6969
X5.0157Y-4.6024
X5.0167Y-4.8041
X5.1339Y-4.4764
X5.1437Y-3.7884
X5.1476Y-3.5965
X5.1959Y-4.7746
X5.3573Y-4.2776
X5.3888Y-3.565
X5.438Y-3.8888
X5.4478Y-4.7904
T2
X4.0217Y-3.9469
X4.1722Y-3.9488
X4.5344Y-3.0463
X4.7638Y-3.5016
X4.7638Y-3.9016
X4.8638Y-3.5016
X4.8638Y-3.9016
X4.9638Y-3.5016
X4.9638Y-3.9016
X5.0638Y-3.5016
X5.0638Y-3.9016
X5.1638Y-3.5016
X5.1638Y-3.9016
X5.4646Y-3.3652
X5.5512Y-5.2756
X5.6152Y-3.3642
T3
X4.0374Y-3.5128
X4.4744Y-3.2392
X4.502Y-3.6289
X4.7766Y-4.9951
X5.5437Y-3.6317
X5.5437Y-3.7317
X5.5437Y-3.8317
X5.5437Y-3.9317
X5.5437Y-4.0317
X5.5437Y-4.1317
X5.5437Y-4.2317
X5.5437Y-4.3317
X5.6053Y-4.6228
X5.6053Y-4.7228
X5.6053Y-4.8228
X5.6437Y-3.6317
X5.6437Y-3.7317
X5.6437Y-3.8317
X5.6437Y-3.9317
X5.6437Y-4.0317
X5.6437Y-4.1317
X5.6437Y-4.2317
X5.6437Y-4.3317
T4
X4.2992Y-3.0906
X4.3386Y-3.9488
X4.3992Y-3.0906
X4.4386Y-3.9488
X4.4843Y-4.3069
X4.4843Y-4.4069
X4.4843Y-4.5069
X4.7205Y-3.0394
X4.8205Y-3.0394
X4.9205Y-3.0394
X5.1575Y-3.1102
X5.2575Y-3.1102
X5.5512Y-4.9787
X5.5512Y-5.0787
T5
X4.0699Y-5.248
X4.0699Y-5.4449
T6
X4.0709Y-4.2057
X4.0709Y-4.4026
X4.0709Y-4.7963
X4.0709Y-4.9931
T7
X4.3022Y-3.3494
X4.3661Y-5.6417
X5.1083Y-4.5689
X5.3189Y-5.6417
T8
X4.0945Y-3.1496
X4.0945Y-5.7087
X5.5512Y-3.1496
X5.5512Y-5.7087
T0
M30
