G04 #@! TF.FileFunction,Copper,L1,Top,Signal*
%FSLAX46Y46*%
G04 Gerber Fmt 4.6, Leading zero omitted, Abs format (unit mm)*
G04 Created by KiCad (PCBNEW 4.0.6) date Wednesday, October 04, 2017 'PMt' 10:34:30 PM*
%MOMM*%
%LPD*%
G01*
G04 APERTURE LIST*
%ADD10C,0.100000*%
%ADD11R,1.500000X2.500000*%
%ADD12O,1.500000X2.500000*%
%ADD13R,1.500000X1.500000*%
%ADD14C,1.500000*%
%ADD15C,2.000000*%
%ADD16R,2.500000X1.500000*%
%ADD17O,2.500000X1.500000*%
%ADD18R,1.350000X1.350000*%
%ADD19O,1.350000X1.350000*%
%ADD20C,6.400000*%
%ADD21R,1.250000X1.500000*%
%ADD22C,2.350000*%
%ADD23R,2.500000X2.500000*%
%ADD24C,2.500000*%
%ADD25R,1.700000X1.700000*%
%ADD26O,1.700000X1.700000*%
%ADD27R,2.000000X0.650000*%
%ADD28R,1.300000X1.500000*%
%ADD29R,1.500000X1.300000*%
%ADD30R,2.600000X2.000000*%
%ADD31O,2.600000X2.000000*%
%ADD32R,2.000000X2.600000*%
%ADD33O,2.000000X2.600000*%
%ADD34R,0.800000X1.900000*%
%ADD35R,1.500000X1.250000*%
%ADD36R,1.000000X2.100000*%
%ADD37C,3.000000*%
%ADD38C,0.600000*%
%ADD39C,0.254000*%
%ADD40C,2.000000*%
%ADD41C,1.000000*%
G04 APERTURE END LIST*
D10*
D11*
X119900000Y-77200000D03*
D12*
X122440000Y-77200000D03*
X124980000Y-77200000D03*
D13*
X121000000Y-99100000D03*
D14*
X123540000Y-99100000D03*
X126080000Y-99100000D03*
X128620000Y-99100000D03*
X131160000Y-99100000D03*
X131160000Y-88940000D03*
X128620000Y-88940000D03*
X126080000Y-88940000D03*
X123540000Y-88940000D03*
X121000000Y-88940000D03*
D15*
X135100000Y-143300000D03*
X110900000Y-143300000D03*
D16*
X112500000Y-114500000D03*
D17*
X112500000Y-111960000D03*
X112500000Y-109420000D03*
D18*
X139000000Y-106000000D03*
D19*
X141000000Y-106000000D03*
X139000000Y-104000000D03*
X141000000Y-104000000D03*
X139000000Y-102000000D03*
X141000000Y-102000000D03*
X139000000Y-100000000D03*
X141000000Y-100000000D03*
X139000000Y-98000000D03*
X141000000Y-98000000D03*
X139000000Y-96000000D03*
X141000000Y-96000000D03*
X139000000Y-94000000D03*
X141000000Y-94000000D03*
X139000000Y-92000000D03*
X141000000Y-92000000D03*
D20*
X104000000Y-145000000D03*
X141000000Y-145000000D03*
X141000000Y-80000000D03*
D21*
X109500000Y-115750000D03*
X109500000Y-113250000D03*
X109500000Y-108250000D03*
X109500000Y-110750000D03*
D22*
X104100000Y-133400000D03*
X104100000Y-138400000D03*
X104100000Y-123400000D03*
X104100000Y-118400000D03*
D23*
X103200000Y-111700000D03*
D24*
X103200000Y-106700000D03*
D25*
X142300000Y-117000000D03*
D26*
X142300000Y-114460000D03*
X142300000Y-111920000D03*
D27*
X114710000Y-124950000D03*
X114710000Y-123050000D03*
X111290000Y-124000000D03*
X124710000Y-124950000D03*
X124710000Y-123050000D03*
X121290000Y-124000000D03*
X134710000Y-124950000D03*
X134710000Y-123050000D03*
X131290000Y-124000000D03*
D28*
X139000000Y-112650000D03*
X139000000Y-115350000D03*
D29*
X131325000Y-86025000D03*
X128625000Y-86025000D03*
X123700000Y-86000000D03*
X121000000Y-86000000D03*
X127950000Y-102100000D03*
X125250000Y-102100000D03*
D28*
X115000000Y-127650000D03*
X115000000Y-130350000D03*
X115000000Y-138350000D03*
X115000000Y-135650000D03*
X111000000Y-135650000D03*
X111000000Y-138350000D03*
X111000000Y-130350000D03*
X111000000Y-127650000D03*
X125000000Y-127650000D03*
X125000000Y-130350000D03*
X125000000Y-138350000D03*
X125000000Y-135650000D03*
X121000000Y-135650000D03*
X121000000Y-138350000D03*
X121000000Y-130350000D03*
X121000000Y-127650000D03*
X135000000Y-127650000D03*
X135000000Y-130350000D03*
X135000000Y-138350000D03*
X135000000Y-135650000D03*
X131000000Y-135650000D03*
X131000000Y-138350000D03*
X131000000Y-130350000D03*
X131000000Y-127650000D03*
X135600000Y-115350000D03*
X135600000Y-112650000D03*
D18*
X142625000Y-85450000D03*
X138800000Y-85475000D03*
X141000000Y-134000000D03*
X115175000Y-77375000D03*
X102150000Y-100250000D03*
D20*
X104000000Y-80000000D03*
D30*
X141000000Y-129000000D03*
D31*
X141000000Y-126460000D03*
D32*
X131000000Y-79000000D03*
D33*
X133540000Y-79000000D03*
D32*
X109200000Y-78500000D03*
D33*
X111740000Y-78500000D03*
D29*
X133050000Y-105500000D03*
X135750000Y-105500000D03*
X133050000Y-102800000D03*
X135750000Y-102800000D03*
D32*
X110200000Y-100300000D03*
D33*
X112740000Y-100300000D03*
D34*
X123850000Y-105500000D03*
X121950000Y-105500000D03*
X122900000Y-108500000D03*
X129550000Y-105500000D03*
X127650000Y-105500000D03*
X128600000Y-108500000D03*
D35*
X103900000Y-97700000D03*
X106400000Y-97700000D03*
D36*
X101350000Y-95180000D03*
X103890000Y-95180000D03*
X106430000Y-95180000D03*
X111510000Y-95180000D03*
X114050000Y-95180000D03*
X114050000Y-85020000D03*
X111510000Y-85020000D03*
X106430000Y-85020000D03*
X103890000Y-85020000D03*
X101350000Y-85020000D03*
D18*
X105975000Y-100300000D03*
D15*
X106425000Y-93275000D03*
D37*
X103450000Y-87550000D03*
X140500000Y-138800000D03*
X127500000Y-116300000D03*
X109275000Y-85075000D03*
D38*
X118700000Y-117100000D03*
X127600000Y-127600000D03*
X126200000Y-121100000D03*
X126700000Y-130900000D03*
X126700000Y-135000000D03*
X118600000Y-120700000D03*
X116600000Y-131100000D03*
X116600000Y-135000000D03*
X136900000Y-124800000D03*
X136900000Y-130900000D03*
X131000000Y-121000000D03*
X132300000Y-113900000D03*
X129900000Y-113900000D03*
X122100000Y-116000000D03*
X131100000Y-122800000D03*
X132900000Y-127500000D03*
X112800000Y-131100000D03*
X112800000Y-135000000D03*
X119300000Y-123900000D03*
X119400000Y-127200000D03*
X122700000Y-130900000D03*
X122600000Y-135000000D03*
X130525000Y-91350000D03*
X125525000Y-93925000D03*
X130525000Y-96200000D03*
X139975000Y-88875000D03*
X114100000Y-83075000D03*
X113525000Y-92725000D03*
D39*
X135550000Y-99000000D02*
X136200000Y-98350000D01*
X136210000Y-88840000D02*
X136250000Y-88800000D01*
X125250000Y-102100000D02*
X125250000Y-100810000D01*
X125250000Y-100810000D02*
X123540000Y-99100000D01*
X125250000Y-102100000D02*
X124640000Y-102100000D01*
X126600000Y-99020000D02*
X126620000Y-99000000D01*
X128620000Y-88940000D02*
X128620000Y-86030000D01*
X128620000Y-86030000D02*
X128625000Y-86025000D01*
X121000000Y-88940000D02*
X121000000Y-86000000D01*
D40*
X103200000Y-106700000D02*
X103800000Y-106700000D01*
X103800000Y-106700000D02*
X110200000Y-100300000D01*
X109000000Y-92450000D02*
X110662640Y-92450000D01*
X116304002Y-80795998D02*
X119900000Y-77200000D01*
X116304002Y-86808638D02*
X116304002Y-80795998D01*
X110662640Y-92450000D02*
X116304002Y-86808638D01*
X103900000Y-97700000D02*
X103900000Y-95190000D01*
X103900000Y-95190000D02*
X103890000Y-95180000D01*
X110200000Y-100300000D02*
X110200000Y-99350000D01*
X110200000Y-99350000D02*
X109000000Y-98150000D01*
X109000000Y-98150000D02*
X109000000Y-92450000D01*
X109000000Y-92450000D02*
X107375000Y-90825000D01*
X107375000Y-90825000D02*
X104975000Y-90825000D01*
X104975000Y-90825000D02*
X103890000Y-91910000D01*
X103890000Y-91910000D02*
X103890000Y-95180000D01*
X103200000Y-106700000D02*
X103700000Y-106700000D01*
X103200000Y-106700000D02*
X104500000Y-106700000D01*
X107650000Y-115750000D02*
X109500000Y-115750000D01*
X106600000Y-114700000D02*
X107650000Y-115750000D01*
X106600000Y-108800000D02*
X106600000Y-114700000D01*
X104500000Y-106700000D02*
X106600000Y-108800000D01*
X109500000Y-115750000D02*
X111250000Y-115750000D01*
X111250000Y-115750000D02*
X112500000Y-114500000D01*
D41*
X106430000Y-95180000D02*
X106430000Y-93280000D01*
X106430000Y-93280000D02*
X106425000Y-93275000D01*
X103890000Y-85020000D02*
X103890000Y-87110000D01*
X103890000Y-87110000D02*
X103450000Y-87550000D01*
D40*
X114050000Y-85020000D02*
X114050000Y-85875000D01*
X114050000Y-85875000D02*
X111600000Y-88325000D01*
X111600000Y-88325000D02*
X107850000Y-88325000D01*
X107850000Y-88325000D02*
X106430000Y-86905000D01*
X106430000Y-86905000D02*
X106430000Y-85020000D01*
X106400000Y-97700000D02*
X106400000Y-95210000D01*
X106400000Y-95210000D02*
X106430000Y-95180000D01*
X114050000Y-95180000D02*
X114050000Y-98990000D01*
X114050000Y-98990000D02*
X112740000Y-100300000D01*
X101350000Y-95180000D02*
X101350000Y-85020000D01*
X101350000Y-85020000D02*
X103890000Y-85020000D01*
X103890000Y-85020000D02*
X106430000Y-85020000D01*
X135000000Y-138350000D02*
X140050000Y-138350000D01*
X140050000Y-138350000D02*
X140500000Y-138800000D01*
X115000000Y-138350000D02*
X115000000Y-139300000D01*
X122650000Y-140700000D02*
X125000000Y-138350000D01*
X116400000Y-140700000D02*
X122650000Y-140700000D01*
X115000000Y-139300000D02*
X116400000Y-140700000D01*
X125000000Y-138350000D02*
X125000000Y-138400000D01*
X125000000Y-138400000D02*
X127300000Y-140700000D01*
X127300000Y-140700000D02*
X132650000Y-140700000D01*
X132650000Y-140700000D02*
X135000000Y-138350000D01*
X109500000Y-113250000D02*
X109500000Y-110750000D01*
X109500000Y-110750000D02*
X110710000Y-111960000D01*
X110710000Y-111960000D02*
X112500000Y-111960000D01*
D39*
X139000000Y-112650000D02*
X141570000Y-112650000D01*
X141570000Y-112650000D02*
X142300000Y-111920000D01*
D40*
X124710000Y-124950000D02*
X123650000Y-124950000D01*
X114881002Y-125900000D02*
X115000000Y-125900000D01*
X115181002Y-125600000D02*
X114881002Y-125900000D01*
X123000000Y-125600000D02*
X115181002Y-125600000D01*
X123650000Y-124950000D02*
X123000000Y-125600000D01*
X134710000Y-124950000D02*
X133650000Y-124950000D01*
X127100000Y-125600000D02*
X127100000Y-125550000D01*
X127050000Y-125600000D02*
X127100000Y-125600000D01*
X133000000Y-125600000D02*
X127050000Y-125600000D01*
X133650000Y-124950000D02*
X133000000Y-125600000D01*
X128500000Y-124150000D02*
X127100000Y-125550000D01*
X128500000Y-117300000D02*
X128500000Y-124150000D01*
X127500000Y-116300000D02*
X128500000Y-117300000D01*
X127100000Y-125550000D02*
X125000000Y-127650000D01*
X135000000Y-127650000D02*
X136550000Y-127650000D01*
X137900000Y-129000000D02*
X141000000Y-129000000D01*
X136550000Y-127650000D02*
X137900000Y-129000000D01*
X141000000Y-129000000D02*
X141000000Y-134000000D01*
X135000000Y-127650000D02*
X135000000Y-125240000D01*
X135000000Y-125240000D02*
X134710000Y-124950000D01*
X125000000Y-127650000D02*
X125000000Y-125240000D01*
X125000000Y-125240000D02*
X124710000Y-124950000D01*
X115000000Y-127650000D02*
X115000000Y-125900000D01*
X115000000Y-125900000D02*
X115000000Y-125240000D01*
X115000000Y-125240000D02*
X114710000Y-124950000D01*
X109500000Y-108250000D02*
X111330000Y-108250000D01*
X111330000Y-108250000D02*
X112500000Y-109420000D01*
X124980000Y-77200000D02*
X124980000Y-78145000D01*
X124980000Y-78145000D02*
X118750000Y-84375000D01*
X117550000Y-108250000D02*
X117300000Y-108500000D01*
X117550000Y-89100000D02*
X117550000Y-108250000D01*
X118750000Y-87900000D02*
X117550000Y-89100000D01*
X118750000Y-84375000D02*
X118750000Y-87900000D01*
X131000000Y-79000000D02*
X131000000Y-80625000D01*
X136868998Y-83543998D02*
X138800000Y-85475000D01*
X133918998Y-83543998D02*
X136868998Y-83543998D01*
X131000000Y-80625000D02*
X133918998Y-83543998D01*
X121000000Y-133000000D02*
X128350000Y-133000000D01*
X128350000Y-133000000D02*
X131000000Y-130350000D01*
X111000000Y-130350000D02*
X109750000Y-130350000D01*
X109750000Y-130350000D02*
X108600000Y-129200000D01*
X108600000Y-129200000D02*
X108600000Y-122700000D01*
X108600000Y-122700000D02*
X117300000Y-114000000D01*
X117300000Y-114000000D02*
X117300000Y-108500000D01*
X117300000Y-108500000D02*
X117600000Y-108500000D01*
X117600000Y-108500000D02*
X122900000Y-108500000D01*
X121000000Y-133000000D02*
X121000000Y-130350000D01*
X111000000Y-130350000D02*
X111000000Y-132000000D01*
X112000000Y-133000000D02*
X121000000Y-133000000D01*
X111000000Y-132000000D02*
X112000000Y-133000000D01*
X128600000Y-108500000D02*
X132400000Y-108500000D01*
X133050000Y-107850000D02*
X133050000Y-105500000D01*
X132400000Y-108500000D02*
X133050000Y-107850000D01*
X133050000Y-105500000D02*
X133050000Y-102800000D01*
X122900000Y-108500000D02*
X128600000Y-108500000D01*
X131000000Y-78600000D02*
X131000000Y-79000000D01*
D41*
X109275000Y-85075000D02*
X109275000Y-78575000D01*
X109275000Y-78575000D02*
X109200000Y-78500000D01*
X111510000Y-85020000D02*
X109330000Y-85020000D01*
X109330000Y-85020000D02*
X109275000Y-85075000D01*
D40*
X104100000Y-118400000D02*
X103200000Y-117500000D01*
X103200000Y-117500000D02*
X103200000Y-111700000D01*
D39*
X134500000Y-104050000D02*
X135750000Y-102800000D01*
X134500000Y-108353032D02*
X134500000Y-104050000D01*
X132953032Y-109900000D02*
X134500000Y-108353032D01*
X119400000Y-109900000D02*
X132953032Y-109900000D01*
X118700000Y-110600000D02*
X119400000Y-109900000D01*
X118700000Y-117100000D02*
X118700000Y-110600000D01*
X135750000Y-102800000D02*
X135000000Y-102800000D01*
X135750000Y-102800000D02*
X137800000Y-102800000D01*
X137800000Y-102800000D02*
X139000000Y-104000000D01*
X135750000Y-102800000D02*
X136200000Y-102800000D01*
X135750000Y-105500000D02*
X138500000Y-105500000D01*
X138500000Y-105500000D02*
X139000000Y-106000000D01*
X135750000Y-105600000D02*
X135750000Y-105250000D01*
X126100000Y-130350000D02*
X126100000Y-129100000D01*
X126100000Y-129100000D02*
X127600000Y-127600000D01*
X124710000Y-123050000D02*
X124710000Y-122590000D01*
X124710000Y-122590000D02*
X126200000Y-121100000D01*
X125000000Y-135650000D02*
X126050000Y-135650000D01*
X126150000Y-130350000D02*
X126100000Y-130350000D01*
X126100000Y-130350000D02*
X125000000Y-130350000D01*
X126700000Y-130900000D02*
X126150000Y-130350000D01*
X126050000Y-135650000D02*
X126700000Y-135000000D01*
X121000000Y-138350000D02*
X122300000Y-138350000D01*
X122300000Y-138350000D02*
X125000000Y-135650000D01*
X114710000Y-123050000D02*
X116250000Y-123050000D01*
X116250000Y-123050000D02*
X118600000Y-120700000D01*
X115000000Y-130350000D02*
X114250000Y-130350000D01*
X113000000Y-124200000D02*
X114150000Y-123050000D01*
X113000000Y-125400000D02*
X113000000Y-124200000D01*
X113500000Y-125900000D02*
X113000000Y-125400000D01*
X113500000Y-129600000D02*
X113500000Y-125900000D01*
X114250000Y-130350000D02*
X113500000Y-129600000D01*
X114150000Y-123050000D02*
X114710000Y-123050000D01*
X115000000Y-135650000D02*
X115950000Y-135650000D01*
X115850000Y-130350000D02*
X115000000Y-130350000D01*
X116600000Y-131100000D02*
X115850000Y-130350000D01*
X115950000Y-135650000D02*
X116600000Y-135000000D01*
X111000000Y-138350000D02*
X112300000Y-138350000D01*
X112300000Y-138350000D02*
X115000000Y-135650000D01*
X135000000Y-130350000D02*
X136350000Y-130350000D01*
X136900000Y-124800000D02*
X135150000Y-123050000D01*
X136350000Y-130350000D02*
X136900000Y-130900000D01*
X135150000Y-123050000D02*
X134710000Y-123050000D01*
X134710000Y-123050000D02*
X133050000Y-123050000D01*
X133050000Y-123050000D02*
X131000000Y-121000000D01*
X135000000Y-135650000D02*
X135000000Y-130350000D01*
X131000000Y-138350000D02*
X132300000Y-138350000D01*
X132300000Y-138350000D02*
X135000000Y-135650000D01*
X132400000Y-114000000D02*
X141840000Y-114000000D01*
X132300000Y-113900000D02*
X132400000Y-114000000D01*
X124200000Y-113900000D02*
X129900000Y-113900000D01*
X122100000Y-116000000D02*
X124200000Y-113900000D01*
X141840000Y-114000000D02*
X142300000Y-114460000D01*
X141940000Y-114100000D02*
X142300000Y-114460000D01*
X142300000Y-114460000D02*
X142300000Y-114400000D01*
X142300000Y-114400000D02*
X141900000Y-114000000D01*
X140000000Y-108516004D02*
X136492300Y-108516004D01*
X141102420Y-108516004D02*
X140000000Y-108516004D01*
X142808002Y-106810422D02*
X141102420Y-108516004D01*
X142808002Y-103608002D02*
X142808002Y-106810422D01*
X141200000Y-102000000D02*
X142808002Y-103608002D01*
X131100000Y-122400000D02*
X131100000Y-122800000D01*
X130100000Y-114908304D02*
X134754152Y-110254152D01*
X130100000Y-121400000D02*
X130100000Y-114908304D01*
X131100000Y-122400000D02*
X130100000Y-121400000D01*
X135954152Y-109054152D02*
X134754152Y-110254152D01*
X136492300Y-108516004D02*
X135954152Y-109054152D01*
X141000000Y-102000000D02*
X141200000Y-102000000D01*
X132900000Y-127500000D02*
X131150000Y-127500000D01*
X131150000Y-127500000D02*
X131000000Y-127650000D01*
X131000000Y-135650000D02*
X131000000Y-134400000D01*
X131290000Y-122990000D02*
X131290000Y-124000000D01*
X131100000Y-122800000D02*
X131290000Y-122990000D01*
X132900000Y-132500000D02*
X132900000Y-127500000D01*
X131000000Y-134400000D02*
X132900000Y-132500000D01*
X131290000Y-124000000D02*
X130500000Y-124000000D01*
X111290000Y-124000000D02*
X111290000Y-123810000D01*
X111290000Y-123810000D02*
X116700000Y-118400000D01*
X139500000Y-107500000D02*
X141000000Y-106000000D01*
X136071456Y-107500000D02*
X139500000Y-107500000D01*
X133163454Y-110408002D02*
X136071456Y-107500000D01*
X121791998Y-110408002D02*
X133163454Y-110408002D01*
X119600000Y-112600000D02*
X121791998Y-110408002D01*
X119600000Y-117500000D02*
X119600000Y-112600000D01*
X118700000Y-118400000D02*
X119600000Y-117500000D01*
X116700000Y-118400000D02*
X118700000Y-118400000D01*
X141000000Y-106000000D02*
X141000000Y-106500000D01*
X111000000Y-135650000D02*
X112150000Y-135650000D01*
X112800000Y-129100000D02*
X111350000Y-127650000D01*
X112800000Y-131100000D02*
X112800000Y-129100000D01*
X112150000Y-135650000D02*
X112800000Y-135000000D01*
X111350000Y-127650000D02*
X111000000Y-127650000D01*
X111000000Y-127650000D02*
X111000000Y-124290000D01*
X111000000Y-124290000D02*
X111290000Y-124000000D01*
X121000000Y-127650000D02*
X119850000Y-127650000D01*
X119400000Y-124000000D02*
X121290000Y-124000000D01*
X119300000Y-123900000D02*
X119400000Y-124000000D01*
X119850000Y-127650000D02*
X119400000Y-127200000D01*
X121290000Y-124000000D02*
X121290000Y-118281998D01*
X121290000Y-118281998D02*
X120108002Y-117100000D01*
X120108002Y-117100000D02*
X120108002Y-112810422D01*
X120108002Y-112810422D02*
X122002420Y-110916004D01*
X122002420Y-110916004D02*
X133373876Y-110916004D01*
X133373876Y-110916004D02*
X136281878Y-108008002D01*
X136281878Y-108008002D02*
X140891998Y-108008002D01*
X140891998Y-108008002D02*
X142300000Y-106600000D01*
X142300000Y-106600000D02*
X142300000Y-105300000D01*
X142300000Y-105300000D02*
X141000000Y-104000000D01*
X121000000Y-135650000D02*
X121950000Y-135650000D01*
X122700000Y-128900000D02*
X121450000Y-127650000D01*
X122700000Y-130900000D02*
X122700000Y-128900000D01*
X121950000Y-135650000D02*
X122600000Y-135000000D01*
X121450000Y-127650000D02*
X121000000Y-127650000D01*
X135600000Y-112650000D02*
X135600000Y-110126728D01*
X143316004Y-102316004D02*
X141000000Y-100000000D01*
X143316004Y-107020844D02*
X143316004Y-102316004D01*
X141312842Y-109024006D02*
X143316004Y-107020844D01*
X136702722Y-109024006D02*
X141312842Y-109024006D01*
X135600000Y-110126728D02*
X136702722Y-109024006D01*
X123700000Y-86000000D02*
X123700000Y-85875000D01*
X123700000Y-85875000D02*
X124650000Y-84925000D01*
X124650000Y-84925000D02*
X135343424Y-84925000D01*
X135343424Y-84925000D02*
X138085422Y-87666998D01*
X138085422Y-87666998D02*
X140485422Y-87666998D01*
X140485422Y-87666998D02*
X143266004Y-90447580D01*
X143266004Y-90447580D02*
X143266004Y-95733996D01*
X143266004Y-95733996D02*
X141000000Y-98000000D01*
X139800000Y-90800000D02*
X141000000Y-92000000D01*
X131075000Y-90800000D02*
X139800000Y-90800000D01*
X130525000Y-91350000D02*
X131075000Y-90800000D01*
X134006576Y-92000000D02*
X139000000Y-92000000D01*
X132056576Y-93950000D02*
X134006576Y-92000000D01*
X125550000Y-93950000D02*
X132056576Y-93950000D01*
X125525000Y-93925000D02*
X125550000Y-93950000D01*
X138650000Y-95650000D02*
X139000000Y-96000000D01*
X132725000Y-94000000D02*
X139000000Y-94000000D01*
X130525000Y-96200000D02*
X132725000Y-94000000D01*
X142250000Y-92750000D02*
X141000000Y-94000000D01*
X142250000Y-91150000D02*
X142250000Y-92750000D01*
X139975000Y-88875000D02*
X142250000Y-91150000D01*
X131325000Y-86025000D02*
X135725000Y-86025000D01*
X142758002Y-94241998D02*
X141000000Y-96000000D01*
X142758002Y-90658002D02*
X142758002Y-94241998D01*
X140275000Y-88175000D02*
X142758002Y-90658002D01*
X137875000Y-88175000D02*
X140275000Y-88175000D01*
X135725000Y-86025000D02*
X137875000Y-88175000D01*
X127950000Y-102100000D02*
X128550000Y-102100000D01*
X128550000Y-102100000D02*
X130300000Y-100350000D01*
X130300000Y-100350000D02*
X136650000Y-100350000D01*
X136650000Y-100350000D02*
X139000000Y-98000000D01*
X129550000Y-105500000D02*
X129550000Y-101818424D01*
X138141998Y-100858002D02*
X139000000Y-100000000D01*
X130510422Y-100858002D02*
X138141998Y-100858002D01*
X129550000Y-101818424D02*
X130510422Y-100858002D01*
X138691998Y-100308002D02*
X139000000Y-100000000D01*
X123850000Y-105500000D02*
X125000000Y-105500000D01*
X138366004Y-101366004D02*
X139000000Y-102000000D01*
X131850000Y-101366004D02*
X138366004Y-101366004D01*
X130850000Y-102366004D02*
X131850000Y-101366004D01*
X130850000Y-106500000D02*
X130850000Y-102366004D01*
X130350000Y-107000000D02*
X130850000Y-106500000D01*
X126500000Y-107000000D02*
X130350000Y-107000000D01*
X125000000Y-105500000D02*
X126500000Y-107000000D01*
X127650000Y-105500000D02*
X127650000Y-104475000D01*
X126600000Y-101120000D02*
X128620000Y-99100000D01*
X126600000Y-103425000D02*
X126600000Y-101120000D01*
X127650000Y-104475000D02*
X126600000Y-103425000D01*
X127650000Y-105500000D02*
X127650000Y-104650000D01*
X121950000Y-105500000D02*
X121950000Y-100850000D01*
X122300000Y-90180000D02*
X123540000Y-88940000D01*
X122300000Y-100500000D02*
X122300000Y-90180000D01*
X121950000Y-100850000D02*
X122300000Y-100500000D01*
X135600000Y-115350000D02*
X139000000Y-115350000D01*
X139000000Y-115350000D02*
X140650000Y-115350000D01*
X140650000Y-115350000D02*
X142300000Y-117000000D01*
X111740000Y-78500000D02*
X111740000Y-80715000D01*
X111740000Y-80715000D02*
X114100000Y-83075000D01*
X111510000Y-95180000D02*
X111510000Y-94740000D01*
X111510000Y-94740000D02*
X113525000Y-92725000D01*
M02*
