M48
;DRILL file {KiCad 4.0.6} date Wednesday, October 04, 2017 'PMt' 10:38:00 PM
;FORMAT={-:-/ absolute / inch / decimal}
FMAT,2
INCH,TZ
T1C0.016
T2C0.031
T3C0.039
T4C0.047
T5C0.051
T6C0.053
T7C0.059
T8C0.126
%
G90
G05
M72
T1
X4.4409Y-5.1614
X4.4409Y-5.315
X4.4695Y-3.6506
X4.4921Y-3.2707
X4.5906Y-5.1614
X4.5906Y-5.315
X4.6693Y-4.752
X4.6732Y-4.6102
X4.6969Y-4.878
X4.7008Y-5.0079
X4.8071Y-4.5669
X4.8268Y-5.315
X4.8307Y-5.1535
X4.9419Y-3.6978
X4.9685Y-4.7677
X4.9882Y-5.1535
X4.9882Y-5.315
X5.0236Y-5.0236
X5.1142Y-4.4843
X5.1388Y-3.5965
X5.1388Y-3.7874
X5.1575Y-4.7638
X5.1614Y-4.8346
X5.2087Y-4.4843
X5.2323Y-5.0197
X5.3898Y-4.9134
X5.3898Y-5.1535
X5.5108Y-3.499
T2
X4.0217Y-3.9469
X4.1722Y-3.9488
X4.5344Y-3.0463
X4.7638Y-3.5016
X4.7638Y-3.9016
X4.8638Y-3.5016
X4.8638Y-3.9016
X4.9638Y-3.5016
X4.9638Y-3.9016
X5.0638Y-3.5016
X5.0638Y-3.9016
X5.1638Y-3.5016
X5.1638Y-3.9016
X5.4646Y-3.3652
X5.4724Y-3.622
X5.4724Y-3.7008
X5.4724Y-3.7795
X5.4724Y-3.8583
X5.4724Y-3.937
X5.4724Y-4.0157
X5.4724Y-4.0945
X5.4724Y-4.1732
X5.5512Y-3.622
X5.5512Y-3.7008
X5.5512Y-3.7795
X5.5512Y-3.8583
X5.5512Y-3.937
X5.5512Y-4.0157
X5.5512Y-4.0945
X5.5512Y-4.1732
X5.5512Y-5.2756
X5.6152Y-3.3642
T3
X4.19Y-3.6722
X5.6024Y-4.4063
X5.6024Y-4.5063
X5.6024Y-4.6063
T4
X4.2992Y-3.0906
X4.3386Y-3.9488
X4.3992Y-3.0906
X4.4291Y-4.3079
X4.4291Y-4.4079
X4.4291Y-4.5079
X4.4386Y-3.9488
X4.7205Y-3.0394
X4.8205Y-3.0394
X4.9205Y-3.0394
X5.1575Y-3.1102
X5.2575Y-3.1102
X5.5512Y-4.9787
X5.5512Y-5.0787
T5
X4.063Y-4.2008
X4.063Y-4.3976
T6
X4.0984Y-4.6614
X4.0984Y-4.8583
X4.0984Y-5.252
X4.0984Y-5.4488
T7
X4.0728Y-3.4469
X4.3022Y-3.3494
X4.3661Y-5.6417
X5.0197Y-4.5787
X5.3189Y-5.6417
X5.5315Y-5.4646
T8
X4.0945Y-3.1496
X4.0945Y-5.7087
X5.5512Y-3.1496
X5.5512Y-5.7087
T0
M30
