G04 #@! TF.FileFunction,Copper,L2,Bot,Signal*
%FSLAX46Y46*%
G04 Gerber Fmt 4.6, Leading zero omitted, Abs format (unit mm)*
G04 Created by KiCad (PCBNEW 4.0.6) date Tuesday, January 16, 2018 'PMt' 08:20:03 PM*
%MOMM*%
%LPD*%
G01*
G04 APERTURE LIST*
%ADD10C,0.100000*%
%ADD11C,2.350000*%
%ADD12R,2.500000X1.500000*%
%ADD13O,2.500000X1.500000*%
%ADD14R,1.200000X2.200000*%
%ADD15C,2.000000*%
%ADD16R,1.000000X1.500000*%
%ADD17R,1.500000X1.500000*%
%ADD18C,1.500000*%
%ADD19R,1.500000X2.500000*%
%ADD20O,1.500000X2.500000*%
%ADD21C,6.400000*%
%ADD22R,1.250000X1.500000*%
%ADD23R,2.500000X2.500000*%
%ADD24C,2.500000*%
%ADD25R,1.700000X1.700000*%
%ADD26O,1.700000X1.700000*%
%ADD27R,1.500000X1.300000*%
%ADD28R,1.300000X1.500000*%
%ADD29R,1.350000X1.350000*%
%ADD30R,2.600000X2.000000*%
%ADD31O,2.600000X2.000000*%
%ADD32R,2.000000X2.600000*%
%ADD33O,2.000000X2.600000*%
%ADD34R,1.500000X1.250000*%
%ADD35C,3.000000*%
%ADD36C,0.600000*%
%ADD37C,0.254000*%
%ADD38C,2.000000*%
%ADD39C,1.500000*%
%ADD40C,1.000000*%
G04 APERTURE END LIST*
D10*
D11*
X103400000Y-111825000D03*
X103400000Y-106825000D03*
X103400000Y-121825000D03*
X103400000Y-126825000D03*
D12*
X113900000Y-114475000D03*
D13*
X113900000Y-111935000D03*
X113900000Y-109395000D03*
D14*
X137000000Y-141200000D03*
D15*
X135100000Y-143300000D03*
D16*
X120275000Y-119000000D03*
X136100000Y-119000000D03*
X126125000Y-119000000D03*
X132750000Y-119000000D03*
X128625000Y-119000000D03*
X118625000Y-119000000D03*
X131050000Y-119000000D03*
X121925000Y-119000000D03*
X123625000Y-119000000D03*
X113625000Y-119000000D03*
X116125000Y-119000000D03*
D15*
X110900000Y-143300000D03*
D14*
X108600000Y-140000000D03*
D17*
X121000000Y-99100000D03*
D18*
X123540000Y-99100000D03*
X126080000Y-99100000D03*
X128620000Y-99100000D03*
X131160000Y-99100000D03*
X131160000Y-88940000D03*
X128620000Y-88940000D03*
X126080000Y-88940000D03*
X123540000Y-88940000D03*
X121000000Y-88940000D03*
D19*
X119900000Y-77200000D03*
D20*
X122440000Y-77200000D03*
X124980000Y-77200000D03*
D21*
X104000000Y-145000000D03*
X141000000Y-145000000D03*
X141000000Y-80000000D03*
D22*
X117400000Y-77250000D03*
X117400000Y-79750000D03*
X127700000Y-77350000D03*
X127700000Y-79850000D03*
D23*
X103375000Y-138300000D03*
D24*
X103375000Y-133300000D03*
D25*
X142375000Y-122500000D03*
D26*
X142375000Y-119960000D03*
X142375000Y-117420000D03*
D27*
X136350000Y-88900000D03*
X133650000Y-88900000D03*
X128800000Y-96200000D03*
X126100000Y-96200000D03*
X136350000Y-99100000D03*
X133650000Y-99100000D03*
X123700000Y-93900000D03*
X121000000Y-93900000D03*
X128800000Y-91350000D03*
X126100000Y-91350000D03*
D28*
X120900000Y-114350000D03*
X120900000Y-111650000D03*
X116900000Y-111650000D03*
X116900000Y-114350000D03*
D29*
X142625000Y-85450000D03*
X138800000Y-85475000D03*
X141000000Y-134000000D03*
X115175000Y-77375000D03*
X102150000Y-100250000D03*
D21*
X104000000Y-80000000D03*
D30*
X141000000Y-129000000D03*
D31*
X141000000Y-126460000D03*
D32*
X131000000Y-79000000D03*
D33*
X133540000Y-79000000D03*
D32*
X109200000Y-78500000D03*
D33*
X111740000Y-78500000D03*
D32*
X110200000Y-100300000D03*
D33*
X112740000Y-100300000D03*
D34*
X109600000Y-87750000D03*
X112100000Y-87750000D03*
D29*
X105975000Y-100300000D03*
D25*
X143350000Y-110025000D03*
D26*
X140810000Y-110025000D03*
X143350000Y-107485000D03*
X140810000Y-107485000D03*
X143350000Y-104945000D03*
X140810000Y-104945000D03*
X143350000Y-102405000D03*
X140810000Y-102405000D03*
X143350000Y-99865000D03*
X140810000Y-99865000D03*
X143350000Y-97325000D03*
X140810000Y-97325000D03*
X143350000Y-94785000D03*
X140810000Y-94785000D03*
X143350000Y-92245000D03*
X140810000Y-92245000D03*
D15*
X121325000Y-126875000D03*
X102550000Y-89225000D03*
D35*
X129750000Y-116050000D03*
X109275000Y-85075000D03*
D36*
X118700000Y-117100000D03*
X136075000Y-108650000D03*
X138375000Y-121675000D03*
X131975000Y-121275000D03*
X117525000Y-121225000D03*
X130400000Y-113700000D03*
X127400000Y-116900000D03*
X127425000Y-122025000D03*
X130750000Y-91350000D03*
X125525000Y-93900000D03*
X138125000Y-98775000D03*
X130650000Y-96225000D03*
X136875000Y-90550000D03*
D15*
X113650000Y-82275000D03*
X114350000Y-92175000D03*
D36*
X124300000Y-121800000D03*
X118625000Y-121650000D03*
D37*
X121000000Y-99100000D02*
X121000000Y-93900000D01*
X126080000Y-99100000D02*
X126080000Y-96220000D01*
X126080000Y-96220000D02*
X126100000Y-96200000D01*
X131160000Y-99100000D02*
X133650000Y-99100000D01*
X131160000Y-88940000D02*
X133610000Y-88940000D01*
X133610000Y-88940000D02*
X133650000Y-88900000D01*
X126080000Y-88940000D02*
X126080000Y-91330000D01*
X126080000Y-91330000D02*
X126100000Y-91350000D01*
D38*
X119900000Y-77200000D02*
X117450000Y-77200000D01*
X117450000Y-77200000D02*
X117275000Y-77375000D01*
X117275000Y-77375000D02*
X115175000Y-77375000D01*
X116900000Y-111650000D02*
X118450000Y-111650000D01*
X119425000Y-114350000D02*
X120900000Y-114350000D01*
X118875000Y-113800000D02*
X119425000Y-114350000D01*
X118875000Y-112075000D02*
X118875000Y-113800000D01*
X118450000Y-111650000D02*
X118875000Y-112075000D01*
X113900000Y-109395000D02*
X115995000Y-109395000D01*
X116900000Y-110300000D02*
X116900000Y-111650000D01*
X115995000Y-109395000D02*
X116900000Y-110300000D01*
X125387500Y-114512500D02*
X128212500Y-114512500D01*
X128212500Y-114512500D02*
X129750000Y-116050000D01*
D39*
X123625000Y-119000000D02*
X123625000Y-116275000D01*
X123625000Y-116275000D02*
X125387500Y-114512500D01*
X125387500Y-114512500D02*
X125550000Y-114350000D01*
D38*
X120900000Y-114350000D02*
X123450000Y-114350000D01*
X123450000Y-114350000D02*
X125550000Y-114350000D01*
X124980000Y-77200000D02*
X127550000Y-77200000D01*
X127550000Y-77200000D02*
X129200000Y-77200000D01*
X129200000Y-77200000D02*
X131000000Y-79000000D01*
D40*
X102150000Y-100250000D02*
X102150000Y-99625000D01*
X102150000Y-99625000D02*
X102200000Y-99575000D01*
X102200000Y-99575000D02*
X102200000Y-97800000D01*
X102200000Y-97800000D02*
X104275000Y-95725000D01*
X104275000Y-95725000D02*
X104275000Y-91075000D01*
X104275000Y-91075000D02*
X107600000Y-87750000D01*
X107600000Y-87750000D02*
X109600000Y-87750000D01*
X109600000Y-87750000D02*
X109600000Y-85400000D01*
X109600000Y-85400000D02*
X109275000Y-85075000D01*
D38*
X103375000Y-133300000D02*
X103375000Y-126850000D01*
X103375000Y-126850000D02*
X103400000Y-126825000D01*
X103400000Y-126825000D02*
X103400000Y-121825000D01*
D37*
X120275000Y-118675000D02*
X118700000Y-117100000D01*
X120275000Y-119000000D02*
X120275000Y-118675000D01*
X136100000Y-119000000D02*
X136100000Y-108675000D01*
X136100000Y-108675000D02*
X136075000Y-108650000D01*
X125750000Y-111650000D02*
X129800000Y-111650000D01*
X120900000Y-111650000D02*
X125750000Y-111650000D01*
X132750000Y-114600000D02*
X132750000Y-119000000D01*
X129800000Y-111650000D02*
X132750000Y-114600000D01*
X132750000Y-119000000D02*
X132750000Y-118650000D01*
X113625000Y-119000000D02*
X113625000Y-117625000D01*
X113625000Y-117625000D02*
X116900000Y-114350000D01*
X116125000Y-119000000D02*
X116125000Y-119825000D01*
X132375000Y-121675000D02*
X138375000Y-121675000D01*
X131975000Y-121275000D02*
X132375000Y-121675000D01*
X116125000Y-119825000D02*
X117525000Y-121225000D01*
X116125000Y-119000000D02*
X116125000Y-118675000D01*
X131050000Y-119000000D02*
X131050000Y-118175000D01*
X132025000Y-115325000D02*
X130400000Y-113700000D01*
X132025000Y-117200000D02*
X132025000Y-115325000D01*
X131050000Y-118175000D02*
X132025000Y-117200000D01*
X131050000Y-119000000D02*
X131050000Y-118575000D01*
X127400000Y-122000000D02*
X127400000Y-116900000D01*
X127425000Y-122025000D02*
X127400000Y-122000000D01*
X128800000Y-91350000D02*
X130750000Y-91350000D01*
X123700000Y-93900000D02*
X125525000Y-93900000D01*
X136350000Y-99100000D02*
X137800000Y-99100000D01*
X137800000Y-99100000D02*
X138125000Y-98775000D01*
X136350000Y-99100000D02*
X136350000Y-98650000D01*
X128800000Y-96200000D02*
X130625000Y-96200000D01*
X130625000Y-96200000D02*
X130650000Y-96225000D01*
X136350000Y-88900000D02*
X136350000Y-90025000D01*
X136350000Y-90025000D02*
X136875000Y-90550000D01*
D40*
X112100000Y-87750000D02*
X112100000Y-83825000D01*
X112100000Y-83825000D02*
X113650000Y-82275000D01*
X114350000Y-92175000D02*
X114350000Y-90000000D01*
X114350000Y-90000000D02*
X112100000Y-87750000D01*
X105975000Y-100300000D02*
X106225000Y-100300000D01*
X106225000Y-100300000D02*
X114350000Y-92175000D01*
X112100000Y-78860000D02*
X111740000Y-78500000D01*
D37*
X126125000Y-119975000D02*
X126125000Y-119000000D01*
X124300000Y-121800000D02*
X126125000Y-119975000D01*
X118625000Y-121650000D02*
X118625000Y-119000000D01*
G36*
X114259141Y-76058343D02*
X114018880Y-76218880D01*
X113664457Y-76749313D01*
X113540000Y-77375000D01*
X113664457Y-78000687D01*
X114018880Y-78531120D01*
X114549313Y-78885543D01*
X115175000Y-79010000D01*
X116140000Y-79010000D01*
X116140000Y-79464250D01*
X116298750Y-79623000D01*
X117273000Y-79623000D01*
X117273000Y-79603000D01*
X117527000Y-79603000D01*
X117527000Y-79623000D01*
X118501250Y-79623000D01*
X118660000Y-79464250D01*
X118660000Y-78873691D01*
X118645450Y-78838565D01*
X118685910Y-78901441D01*
X118898110Y-79046431D01*
X119150000Y-79097440D01*
X120650000Y-79097440D01*
X120885317Y-79053162D01*
X121101441Y-78914090D01*
X121246431Y-78701890D01*
X121296376Y-78455256D01*
X121550460Y-78769145D01*
X122027316Y-79028173D01*
X122098815Y-79042318D01*
X122313000Y-78919656D01*
X122313000Y-77327000D01*
X122293000Y-77327000D01*
X122293000Y-77073000D01*
X122313000Y-77073000D01*
X122313000Y-77053000D01*
X122567000Y-77053000D01*
X122567000Y-77073000D01*
X122587000Y-77073000D01*
X122587000Y-77327000D01*
X122567000Y-77327000D01*
X122567000Y-78919656D01*
X122781185Y-79042318D01*
X122852684Y-79028173D01*
X123329540Y-78769145D01*
X123670972Y-78347349D01*
X123698154Y-78255520D01*
X123700427Y-78266946D01*
X124000657Y-78716272D01*
X124449983Y-79016502D01*
X124980000Y-79121929D01*
X125510017Y-79016502D01*
X125781654Y-78835000D01*
X126497448Y-78835000D01*
X126440000Y-78973691D01*
X126440000Y-79564250D01*
X126598750Y-79723000D01*
X127573000Y-79723000D01*
X127573000Y-79703000D01*
X127827000Y-79703000D01*
X127827000Y-79723000D01*
X128801250Y-79723000D01*
X128960000Y-79564250D01*
X128960000Y-79272239D01*
X129352560Y-79664799D01*
X129352560Y-80300000D01*
X129396838Y-80535317D01*
X129535910Y-80751441D01*
X129748110Y-80896431D01*
X130000000Y-80947440D01*
X132000000Y-80947440D01*
X132235317Y-80903162D01*
X132451441Y-80764090D01*
X132565349Y-80597380D01*
X133031645Y-80859144D01*
X133159566Y-80890124D01*
X133413000Y-80770777D01*
X133413000Y-79127000D01*
X133667000Y-79127000D01*
X133667000Y-80770777D01*
X133920434Y-80890124D01*
X134048355Y-80859144D01*
X134606317Y-80545922D01*
X135001942Y-80043020D01*
X135175000Y-79427000D01*
X135175000Y-79127000D01*
X133667000Y-79127000D01*
X133413000Y-79127000D01*
X133393000Y-79127000D01*
X133393000Y-78873000D01*
X133413000Y-78873000D01*
X133413000Y-77229223D01*
X133667000Y-77229223D01*
X133667000Y-78873000D01*
X135175000Y-78873000D01*
X135175000Y-78573000D01*
X135001942Y-77956980D01*
X134606317Y-77454078D01*
X134048355Y-77140856D01*
X133920434Y-77109876D01*
X133667000Y-77229223D01*
X133413000Y-77229223D01*
X133159566Y-77109876D01*
X133031645Y-77140856D01*
X132563789Y-77403495D01*
X132464090Y-77248559D01*
X132251890Y-77103569D01*
X132000000Y-77052560D01*
X131364799Y-77052560D01*
X130407367Y-76095127D01*
X144273346Y-76126712D01*
X144278181Y-77891306D01*
X144253050Y-77830485D01*
X143175189Y-76750741D01*
X141766175Y-76165667D01*
X140240518Y-76164336D01*
X138830485Y-76746950D01*
X137750741Y-77824811D01*
X137165667Y-79233825D01*
X137164336Y-80759482D01*
X137746950Y-82169515D01*
X138824811Y-83249259D01*
X140233825Y-83834333D01*
X141759482Y-83835664D01*
X143169515Y-83253050D01*
X144249259Y-82175189D01*
X144289651Y-82077915D01*
X144290000Y-82205425D01*
X144290000Y-91101971D01*
X143947378Y-90873039D01*
X143379093Y-90760000D01*
X143320907Y-90760000D01*
X142752622Y-90873039D01*
X142270853Y-91194946D01*
X142080000Y-91480578D01*
X141889147Y-91194946D01*
X141407378Y-90873039D01*
X140839093Y-90760000D01*
X140780907Y-90760000D01*
X140212622Y-90873039D01*
X139730853Y-91194946D01*
X139408946Y-91676715D01*
X139295907Y-92245000D01*
X139408946Y-92813285D01*
X139730853Y-93295054D01*
X140060026Y-93515000D01*
X139730853Y-93734946D01*
X139408946Y-94216715D01*
X139295907Y-94785000D01*
X139408946Y-95353285D01*
X139730853Y-95835054D01*
X140060026Y-96055000D01*
X139730853Y-96274946D01*
X139408946Y-96756715D01*
X139295907Y-97325000D01*
X139408946Y-97893285D01*
X139730853Y-98375054D01*
X140060026Y-98595000D01*
X139730853Y-98814946D01*
X139408946Y-99296715D01*
X139295907Y-99865000D01*
X139408946Y-100433285D01*
X139730853Y-100915054D01*
X140060026Y-101135000D01*
X139730853Y-101354946D01*
X139408946Y-101836715D01*
X139295907Y-102405000D01*
X139408946Y-102973285D01*
X139730853Y-103455054D01*
X140060026Y-103675000D01*
X139730853Y-103894946D01*
X139408946Y-104376715D01*
X139295907Y-104945000D01*
X139408946Y-105513285D01*
X139730853Y-105995054D01*
X140060026Y-106215000D01*
X139730853Y-106434946D01*
X139408946Y-106916715D01*
X139295907Y-107485000D01*
X139408946Y-108053285D01*
X139730853Y-108535054D01*
X140060026Y-108755000D01*
X139730853Y-108974946D01*
X139408946Y-109456715D01*
X139295907Y-110025000D01*
X139408946Y-110593285D01*
X139730853Y-111075054D01*
X140212622Y-111396961D01*
X140780907Y-111510000D01*
X140839093Y-111510000D01*
X141407378Y-111396961D01*
X141889147Y-111075054D01*
X141889971Y-111073821D01*
X141896838Y-111110317D01*
X142035910Y-111326441D01*
X142248110Y-111471431D01*
X142500000Y-111522440D01*
X144200000Y-111522440D01*
X144290000Y-111505505D01*
X144290000Y-142919911D01*
X144253050Y-142830485D01*
X143175189Y-141750741D01*
X141766175Y-141165667D01*
X140240518Y-141164336D01*
X138830485Y-141746950D01*
X138235000Y-142341397D01*
X138235000Y-141485750D01*
X138076250Y-141327000D01*
X137127000Y-141327000D01*
X137127000Y-142776250D01*
X137285750Y-142935000D01*
X137704987Y-142935000D01*
X137165667Y-144233825D01*
X137164336Y-145759482D01*
X137746950Y-147169515D01*
X138824811Y-148249259D01*
X140233825Y-148834333D01*
X141759482Y-148835664D01*
X143169515Y-148253050D01*
X144249259Y-147175189D01*
X144290000Y-147077074D01*
X144290000Y-148872295D01*
X104887559Y-148782744D01*
X106169515Y-148253050D01*
X107249259Y-147175189D01*
X107834333Y-145766175D01*
X107835664Y-144240518D01*
X107580840Y-143623795D01*
X109264716Y-143623795D01*
X109513106Y-144224943D01*
X109972637Y-144685278D01*
X110573352Y-144934716D01*
X111223795Y-144935284D01*
X111824943Y-144686894D01*
X112285278Y-144227363D01*
X112534716Y-143626648D01*
X112534718Y-143623795D01*
X133464716Y-143623795D01*
X133713106Y-144224943D01*
X134172637Y-144685278D01*
X134773352Y-144934716D01*
X135423795Y-144935284D01*
X136024943Y-144686894D01*
X136485278Y-144227363D01*
X136734716Y-143626648D01*
X136735284Y-142976205D01*
X136717086Y-142932164D01*
X136873000Y-142776250D01*
X136873000Y-141327000D01*
X135923750Y-141327000D01*
X135765000Y-141485750D01*
X135765000Y-141805780D01*
X135426648Y-141665284D01*
X134776205Y-141664716D01*
X134175057Y-141913106D01*
X133714722Y-142372637D01*
X133465284Y-142973352D01*
X133464716Y-143623795D01*
X112534718Y-143623795D01*
X112535284Y-142976205D01*
X112286894Y-142375057D01*
X111827363Y-141914722D01*
X111226648Y-141665284D01*
X110576205Y-141664716D01*
X109975057Y-141913106D01*
X109514722Y-142372637D01*
X109265284Y-142973352D01*
X109264716Y-143623795D01*
X107580840Y-143623795D01*
X107253050Y-142830485D01*
X106175189Y-141750741D01*
X104766175Y-141165667D01*
X103240518Y-141164336D01*
X101830485Y-141746950D01*
X100750741Y-142824811D01*
X100710643Y-142921377D01*
X100710000Y-142686248D01*
X100710000Y-140285750D01*
X107365000Y-140285750D01*
X107365000Y-141226309D01*
X107461673Y-141459698D01*
X107640301Y-141638327D01*
X107873690Y-141735000D01*
X108314250Y-141735000D01*
X108473000Y-141576250D01*
X108473000Y-140127000D01*
X108727000Y-140127000D01*
X108727000Y-141576250D01*
X108885750Y-141735000D01*
X109326310Y-141735000D01*
X109559699Y-141638327D01*
X109738327Y-141459698D01*
X109835000Y-141226309D01*
X109835000Y-140285750D01*
X109676250Y-140127000D01*
X108727000Y-140127000D01*
X108473000Y-140127000D01*
X107523750Y-140127000D01*
X107365000Y-140285750D01*
X100710000Y-140285750D01*
X100710000Y-138585750D01*
X101490000Y-138585750D01*
X101490000Y-139676309D01*
X101586673Y-139909698D01*
X101765301Y-140088327D01*
X101998690Y-140185000D01*
X103089250Y-140185000D01*
X103248000Y-140026250D01*
X103248000Y-138427000D01*
X103502000Y-138427000D01*
X103502000Y-140026250D01*
X103660750Y-140185000D01*
X104751310Y-140185000D01*
X104984699Y-140088327D01*
X105099334Y-139973691D01*
X135765000Y-139973691D01*
X135765000Y-140914250D01*
X135923750Y-141073000D01*
X136873000Y-141073000D01*
X136873000Y-139623750D01*
X137127000Y-139623750D01*
X137127000Y-141073000D01*
X138076250Y-141073000D01*
X138235000Y-140914250D01*
X138235000Y-139973691D01*
X138138327Y-139740302D01*
X137959699Y-139561673D01*
X137726310Y-139465000D01*
X137285750Y-139465000D01*
X137127000Y-139623750D01*
X136873000Y-139623750D01*
X136714250Y-139465000D01*
X136273690Y-139465000D01*
X136040301Y-139561673D01*
X135861673Y-139740302D01*
X135765000Y-139973691D01*
X105099334Y-139973691D01*
X105163327Y-139909698D01*
X105260000Y-139676309D01*
X105260000Y-138773691D01*
X107365000Y-138773691D01*
X107365000Y-139714250D01*
X107523750Y-139873000D01*
X108473000Y-139873000D01*
X108473000Y-138423750D01*
X108727000Y-138423750D01*
X108727000Y-139873000D01*
X109676250Y-139873000D01*
X109835000Y-139714250D01*
X109835000Y-138773691D01*
X109738327Y-138540302D01*
X109559699Y-138361673D01*
X109326310Y-138265000D01*
X108885750Y-138265000D01*
X108727000Y-138423750D01*
X108473000Y-138423750D01*
X108314250Y-138265000D01*
X107873690Y-138265000D01*
X107640301Y-138361673D01*
X107461673Y-138540302D01*
X107365000Y-138773691D01*
X105260000Y-138773691D01*
X105260000Y-138585750D01*
X105101250Y-138427000D01*
X103502000Y-138427000D01*
X103248000Y-138427000D01*
X101648750Y-138427000D01*
X101490000Y-138585750D01*
X100710000Y-138585750D01*
X100710000Y-136923691D01*
X101490000Y-136923691D01*
X101490000Y-138014250D01*
X101648750Y-138173000D01*
X103248000Y-138173000D01*
X103248000Y-136573750D01*
X103502000Y-136573750D01*
X103502000Y-138173000D01*
X105101250Y-138173000D01*
X105260000Y-138014250D01*
X105260000Y-136923691D01*
X105163327Y-136690302D01*
X104984699Y-136511673D01*
X104751310Y-136415000D01*
X103660750Y-136415000D01*
X103502000Y-136573750D01*
X103248000Y-136573750D01*
X103089250Y-136415000D01*
X101998690Y-136415000D01*
X101765301Y-136511673D01*
X101586673Y-136690302D01*
X101490000Y-136923691D01*
X100710000Y-136923691D01*
X100710000Y-133673305D01*
X101489674Y-133673305D01*
X101776043Y-134366372D01*
X102305839Y-134897093D01*
X102998405Y-135184672D01*
X103748305Y-135185326D01*
X104441372Y-134898957D01*
X104972093Y-134369161D01*
X105259672Y-133676595D01*
X105259978Y-133325000D01*
X139677560Y-133325000D01*
X139677560Y-134675000D01*
X139721838Y-134910317D01*
X139860910Y-135126441D01*
X140073110Y-135271431D01*
X140325000Y-135322440D01*
X141675000Y-135322440D01*
X141910317Y-135278162D01*
X142126441Y-135139090D01*
X142271431Y-134926890D01*
X142322440Y-134675000D01*
X142322440Y-133325000D01*
X142278162Y-133089683D01*
X142139090Y-132873559D01*
X141926890Y-132728569D01*
X141675000Y-132677560D01*
X140325000Y-132677560D01*
X140089683Y-132721838D01*
X139873559Y-132860910D01*
X139728569Y-133073110D01*
X139677560Y-133325000D01*
X105259978Y-133325000D01*
X105260326Y-132926695D01*
X105010000Y-132320859D01*
X105010000Y-128000000D01*
X139052560Y-128000000D01*
X139052560Y-130000000D01*
X139096838Y-130235317D01*
X139235910Y-130451441D01*
X139448110Y-130596431D01*
X139700000Y-130647440D01*
X142300000Y-130647440D01*
X142535317Y-130603162D01*
X142751441Y-130464090D01*
X142896431Y-130251890D01*
X142947440Y-130000000D01*
X142947440Y-128000000D01*
X142903162Y-127764683D01*
X142764090Y-127548559D01*
X142597380Y-127434651D01*
X142859144Y-126968355D01*
X142890124Y-126840434D01*
X142770777Y-126587000D01*
X141127000Y-126587000D01*
X141127000Y-126607000D01*
X140873000Y-126607000D01*
X140873000Y-126587000D01*
X139229223Y-126587000D01*
X139109876Y-126840434D01*
X139140856Y-126968355D01*
X139403495Y-127436211D01*
X139248559Y-127535910D01*
X139103569Y-127748110D01*
X139052560Y-128000000D01*
X105010000Y-128000000D01*
X105010000Y-127667506D01*
X105209685Y-127186611D01*
X105210314Y-126466548D01*
X105050416Y-126079566D01*
X139109876Y-126079566D01*
X139229223Y-126333000D01*
X140873000Y-126333000D01*
X140873000Y-124825000D01*
X141127000Y-124825000D01*
X141127000Y-126333000D01*
X142770777Y-126333000D01*
X142890124Y-126079566D01*
X142859144Y-125951645D01*
X142545922Y-125393683D01*
X142043020Y-124998058D01*
X141427000Y-124825000D01*
X141127000Y-124825000D01*
X140873000Y-124825000D01*
X140573000Y-124825000D01*
X139956980Y-124998058D01*
X139454078Y-125393683D01*
X139140856Y-125951645D01*
X139109876Y-126079566D01*
X105050416Y-126079566D01*
X105035000Y-126042257D01*
X105035000Y-122607300D01*
X105209685Y-122186611D01*
X105210314Y-121466548D01*
X104935338Y-120801057D01*
X104426621Y-120291451D01*
X103761611Y-120015315D01*
X103041548Y-120014686D01*
X102376057Y-120289662D01*
X101866451Y-120798379D01*
X101590315Y-121463389D01*
X101589686Y-122183452D01*
X101765000Y-122607743D01*
X101765000Y-126042700D01*
X101590315Y-126463389D01*
X101589686Y-127183452D01*
X101740000Y-127547239D01*
X101740000Y-132322129D01*
X101490328Y-132923405D01*
X101489674Y-133673305D01*
X100710000Y-133673305D01*
X100710000Y-112183452D01*
X101589686Y-112183452D01*
X101864662Y-112848943D01*
X102373379Y-113358549D01*
X103038389Y-113634685D01*
X103758452Y-113635314D01*
X104423943Y-113360338D01*
X104933549Y-112851621D01*
X105209685Y-112186611D01*
X105210314Y-111466548D01*
X104935338Y-110801057D01*
X104426621Y-110291451D01*
X103761611Y-110015315D01*
X103041548Y-110014686D01*
X102376057Y-110289662D01*
X101866451Y-110798379D01*
X101590315Y-111463389D01*
X101589686Y-112183452D01*
X100710000Y-112183452D01*
X100710000Y-109395000D01*
X111978071Y-109395000D01*
X112083498Y-109925017D01*
X112383728Y-110374343D01*
X112833054Y-110674573D01*
X112844480Y-110676846D01*
X112752651Y-110704028D01*
X112330855Y-111045460D01*
X112071827Y-111522316D01*
X112057682Y-111593815D01*
X112180344Y-111808000D01*
X113773000Y-111808000D01*
X113773000Y-111788000D01*
X114027000Y-111788000D01*
X114027000Y-111808000D01*
X114047000Y-111808000D01*
X114047000Y-112062000D01*
X114027000Y-112062000D01*
X114027000Y-112082000D01*
X113773000Y-112082000D01*
X113773000Y-112062000D01*
X112180344Y-112062000D01*
X112057682Y-112276185D01*
X112071827Y-112347684D01*
X112330855Y-112824540D01*
X112644668Y-113078563D01*
X112414683Y-113121838D01*
X112198559Y-113260910D01*
X112053569Y-113473110D01*
X112002560Y-113725000D01*
X112002560Y-115225000D01*
X112046838Y-115460317D01*
X112185910Y-115676441D01*
X112398110Y-115821431D01*
X112650000Y-115872440D01*
X114299930Y-115872440D01*
X113086185Y-117086185D01*
X112921004Y-117333395D01*
X112863000Y-117625000D01*
X112863000Y-117664008D01*
X112673559Y-117785910D01*
X112528569Y-117998110D01*
X112477560Y-118250000D01*
X112477560Y-119750000D01*
X112521838Y-119985317D01*
X112660910Y-120201441D01*
X112873110Y-120346431D01*
X113125000Y-120397440D01*
X114125000Y-120397440D01*
X114360317Y-120353162D01*
X114576441Y-120214090D01*
X114721431Y-120001890D01*
X114772440Y-119750000D01*
X114772440Y-118250000D01*
X114977560Y-118250000D01*
X114977560Y-119750000D01*
X115021838Y-119985317D01*
X115160910Y-120201441D01*
X115373110Y-120346431D01*
X115618492Y-120396122D01*
X116589875Y-121367505D01*
X116589838Y-121410167D01*
X116731883Y-121753943D01*
X116994673Y-122017192D01*
X117338201Y-122159838D01*
X117710167Y-122160162D01*
X117807505Y-122119943D01*
X117831883Y-122178943D01*
X118094673Y-122442192D01*
X118438201Y-122584838D01*
X118810167Y-122585162D01*
X119153943Y-122443117D01*
X119417192Y-122180327D01*
X119559838Y-121836799D01*
X119560162Y-121464833D01*
X119418117Y-121121057D01*
X119387000Y-121089886D01*
X119387000Y-120335992D01*
X119449228Y-120295949D01*
X119523110Y-120346431D01*
X119775000Y-120397440D01*
X120775000Y-120397440D01*
X121010317Y-120353162D01*
X121093148Y-120299862D01*
X121298690Y-120385000D01*
X121639250Y-120385000D01*
X121798000Y-120226250D01*
X121798000Y-119127000D01*
X121778000Y-119127000D01*
X121778000Y-118873000D01*
X121798000Y-118873000D01*
X121798000Y-117773750D01*
X121639250Y-117615000D01*
X121298690Y-117615000D01*
X121094330Y-117699649D01*
X121026890Y-117653569D01*
X120775000Y-117602560D01*
X120280191Y-117602560D01*
X119635125Y-116957495D01*
X119635162Y-116914833D01*
X119493117Y-116571057D01*
X119230327Y-116307808D01*
X118886799Y-116165162D01*
X118514833Y-116164838D01*
X118171057Y-116306883D01*
X117907808Y-116569673D01*
X117765162Y-116913201D01*
X117764838Y-117285167D01*
X117906883Y-117628943D01*
X117919202Y-117641284D01*
X117889683Y-117646838D01*
X117673559Y-117785910D01*
X117528569Y-117998110D01*
X117477560Y-118250000D01*
X117477560Y-119750000D01*
X117521838Y-119985317D01*
X117660910Y-120201441D01*
X117863000Y-120339523D01*
X117863000Y-120352946D01*
X117711799Y-120290162D01*
X117667754Y-120290124D01*
X117248054Y-119870424D01*
X117272440Y-119750000D01*
X117272440Y-118250000D01*
X117228162Y-118014683D01*
X117089090Y-117798559D01*
X116876890Y-117653569D01*
X116625000Y-117602560D01*
X115625000Y-117602560D01*
X115389683Y-117646838D01*
X115173559Y-117785910D01*
X115028569Y-117998110D01*
X114977560Y-118250000D01*
X114772440Y-118250000D01*
X114728162Y-118014683D01*
X114589090Y-117798559D01*
X114553434Y-117774196D01*
X116580191Y-115747440D01*
X117550000Y-115747440D01*
X117785317Y-115703162D01*
X118001441Y-115564090D01*
X118133531Y-115370770D01*
X118268878Y-115506117D01*
X118268880Y-115506120D01*
X118799313Y-115860543D01*
X119425000Y-115985000D01*
X122297685Y-115985000D01*
X122240000Y-116275000D01*
X122240000Y-117615000D01*
X122210750Y-117615000D01*
X122052000Y-117773750D01*
X122052000Y-118873000D01*
X122072000Y-118873000D01*
X122072000Y-119127000D01*
X122052000Y-119127000D01*
X122052000Y-120226250D01*
X122210750Y-120385000D01*
X122551310Y-120385000D01*
X122784699Y-120288327D01*
X122786068Y-120286958D01*
X122873110Y-120346431D01*
X123125000Y-120397440D01*
X124125000Y-120397440D01*
X124360317Y-120353162D01*
X124576441Y-120214090D01*
X124721431Y-120001890D01*
X124772440Y-119750000D01*
X124772440Y-119727768D01*
X124904573Y-119530017D01*
X124977560Y-119163087D01*
X124977560Y-119750000D01*
X125021838Y-119985317D01*
X125027795Y-119994574D01*
X124157495Y-120864875D01*
X124114833Y-120864838D01*
X123771057Y-121006883D01*
X123507808Y-121269673D01*
X123365162Y-121613201D01*
X123364838Y-121985167D01*
X123506883Y-122328943D01*
X123769673Y-122592192D01*
X124113201Y-122734838D01*
X124485167Y-122735162D01*
X124828943Y-122593117D01*
X125092192Y-122330327D01*
X125234838Y-121986799D01*
X125234876Y-121942754D01*
X126638000Y-120539631D01*
X126638000Y-121489490D01*
X126632808Y-121494673D01*
X126490162Y-121838201D01*
X126489838Y-122210167D01*
X126631883Y-122553943D01*
X126894673Y-122817192D01*
X127238201Y-122959838D01*
X127610167Y-122960162D01*
X127953943Y-122818117D01*
X128217192Y-122555327D01*
X128359838Y-122211799D01*
X128360162Y-121839833D01*
X128218117Y-121496057D01*
X128162000Y-121439842D01*
X128162000Y-120385000D01*
X128339250Y-120385000D01*
X128498000Y-120226250D01*
X128498000Y-119127000D01*
X128752000Y-119127000D01*
X128752000Y-120226250D01*
X128910750Y-120385000D01*
X129251310Y-120385000D01*
X129484699Y-120288327D01*
X129663327Y-120109698D01*
X129760000Y-119876309D01*
X129760000Y-119285750D01*
X129601250Y-119127000D01*
X128752000Y-119127000D01*
X128498000Y-119127000D01*
X128478000Y-119127000D01*
X128478000Y-118873000D01*
X128498000Y-118873000D01*
X128498000Y-118853000D01*
X128752000Y-118853000D01*
X128752000Y-118873000D01*
X129601250Y-118873000D01*
X129760000Y-118714250D01*
X129760000Y-118185009D01*
X129915693Y-118185145D01*
X129902560Y-118250000D01*
X129902560Y-119750000D01*
X129946838Y-119985317D01*
X130085910Y-120201441D01*
X130298110Y-120346431D01*
X130550000Y-120397440D01*
X131550000Y-120397440D01*
X131734399Y-120362743D01*
X131446057Y-120481883D01*
X131182808Y-120744673D01*
X131040162Y-121088201D01*
X131039838Y-121460167D01*
X131181883Y-121803943D01*
X131444673Y-122067192D01*
X131788201Y-122209838D01*
X131832245Y-122209876D01*
X131836184Y-122213815D01*
X132010557Y-122330327D01*
X132083395Y-122378996D01*
X132375000Y-122437000D01*
X137814534Y-122437000D01*
X137844673Y-122467192D01*
X138188201Y-122609838D01*
X138560167Y-122610162D01*
X138903943Y-122468117D01*
X139167192Y-122205327D01*
X139309838Y-121861799D01*
X139310162Y-121489833D01*
X139168117Y-121146057D01*
X138905327Y-120882808D01*
X138561799Y-120740162D01*
X138189833Y-120739838D01*
X137846057Y-120881883D01*
X137814886Y-120913000D01*
X132837096Y-120913000D01*
X132768117Y-120746057D01*
X132505327Y-120482808D01*
X132299739Y-120397440D01*
X133250000Y-120397440D01*
X133485317Y-120353162D01*
X133701441Y-120214090D01*
X133846431Y-120001890D01*
X133897440Y-119750000D01*
X133897440Y-118250000D01*
X134952560Y-118250000D01*
X134952560Y-119750000D01*
X134996838Y-119985317D01*
X135135910Y-120201441D01*
X135348110Y-120346431D01*
X135600000Y-120397440D01*
X136600000Y-120397440D01*
X136835317Y-120353162D01*
X137051441Y-120214090D01*
X137196431Y-120001890D01*
X137204913Y-119960000D01*
X140860907Y-119960000D01*
X140973946Y-120528285D01*
X141295853Y-121010054D01*
X141337452Y-121037850D01*
X141289683Y-121046838D01*
X141073559Y-121185910D01*
X140928569Y-121398110D01*
X140877560Y-121650000D01*
X140877560Y-123350000D01*
X140921838Y-123585317D01*
X141060910Y-123801441D01*
X141273110Y-123946431D01*
X141525000Y-123997440D01*
X143225000Y-123997440D01*
X143460317Y-123953162D01*
X143676441Y-123814090D01*
X143821431Y-123601890D01*
X143872440Y-123350000D01*
X143872440Y-121650000D01*
X143828162Y-121414683D01*
X143689090Y-121198559D01*
X143476890Y-121053569D01*
X143409459Y-121039914D01*
X143454147Y-121010054D01*
X143776054Y-120528285D01*
X143889093Y-119960000D01*
X143776054Y-119391715D01*
X143454147Y-118909946D01*
X143113447Y-118682298D01*
X143256358Y-118615183D01*
X143646645Y-118186924D01*
X143816476Y-117776890D01*
X143695155Y-117547000D01*
X142502000Y-117547000D01*
X142502000Y-117567000D01*
X142248000Y-117567000D01*
X142248000Y-117547000D01*
X141054845Y-117547000D01*
X140933524Y-117776890D01*
X141103355Y-118186924D01*
X141493642Y-118615183D01*
X141636553Y-118682298D01*
X141295853Y-118909946D01*
X140973946Y-119391715D01*
X140860907Y-119960000D01*
X137204913Y-119960000D01*
X137247440Y-119750000D01*
X137247440Y-118250000D01*
X137203162Y-118014683D01*
X137064090Y-117798559D01*
X136862000Y-117660477D01*
X136862000Y-117063110D01*
X140933524Y-117063110D01*
X141054845Y-117293000D01*
X142248000Y-117293000D01*
X142248000Y-116099181D01*
X142502000Y-116099181D01*
X142502000Y-117293000D01*
X143695155Y-117293000D01*
X143816476Y-117063110D01*
X143646645Y-116653076D01*
X143256358Y-116224817D01*
X142731892Y-115978514D01*
X142502000Y-116099181D01*
X142248000Y-116099181D01*
X142018108Y-115978514D01*
X141493642Y-116224817D01*
X141103355Y-116653076D01*
X140933524Y-117063110D01*
X136862000Y-117063110D01*
X136862000Y-109185510D01*
X136867192Y-109180327D01*
X137009838Y-108836799D01*
X137010162Y-108464833D01*
X136868117Y-108121057D01*
X136605327Y-107857808D01*
X136261799Y-107715162D01*
X135889833Y-107714838D01*
X135546057Y-107856883D01*
X135282808Y-108119673D01*
X135140162Y-108463201D01*
X135139838Y-108835167D01*
X135281883Y-109178943D01*
X135338000Y-109235158D01*
X135338000Y-117664008D01*
X135148559Y-117785910D01*
X135003569Y-117998110D01*
X134952560Y-118250000D01*
X133897440Y-118250000D01*
X133853162Y-118014683D01*
X133714090Y-117798559D01*
X133512000Y-117660477D01*
X133512000Y-114600000D01*
X133453996Y-114308395D01*
X133288815Y-114061185D01*
X130338815Y-111111185D01*
X130208802Y-111024313D01*
X130091605Y-110946004D01*
X129800000Y-110888000D01*
X122195182Y-110888000D01*
X122153162Y-110664683D01*
X122014090Y-110448559D01*
X121801890Y-110303569D01*
X121550000Y-110252560D01*
X120250000Y-110252560D01*
X120014683Y-110296838D01*
X119798559Y-110435910D01*
X119696913Y-110584674D01*
X119606120Y-110493880D01*
X119075688Y-110139457D01*
X118479476Y-110020862D01*
X118478310Y-110014999D01*
X118410543Y-109674312D01*
X118251975Y-109436999D01*
X118056120Y-109143880D01*
X118056117Y-109143878D01*
X117151120Y-108238880D01*
X116620688Y-107884457D01*
X115995000Y-107759999D01*
X115994995Y-107760000D01*
X113900000Y-107760000D01*
X113274313Y-107884457D01*
X112969159Y-108088354D01*
X112833054Y-108115427D01*
X112383728Y-108415657D01*
X112083498Y-108864983D01*
X111978071Y-109395000D01*
X100710000Y-109395000D01*
X100710000Y-107183452D01*
X101589686Y-107183452D01*
X101864662Y-107848943D01*
X102373379Y-108358549D01*
X103038389Y-108634685D01*
X103758452Y-108635314D01*
X104423943Y-108360338D01*
X104933549Y-107851621D01*
X105209685Y-107186611D01*
X105210314Y-106466548D01*
X104935338Y-105801057D01*
X104426621Y-105291451D01*
X103761611Y-105015315D01*
X103041548Y-105014686D01*
X102376057Y-105289662D01*
X101866451Y-105798379D01*
X101590315Y-106463389D01*
X101589686Y-107183452D01*
X100710000Y-107183452D01*
X100710000Y-99575000D01*
X100827560Y-99575000D01*
X100827560Y-100925000D01*
X100871838Y-101160317D01*
X101010910Y-101376441D01*
X101223110Y-101521431D01*
X101475000Y-101572440D01*
X102825000Y-101572440D01*
X103060317Y-101528162D01*
X103276441Y-101389090D01*
X103421431Y-101176890D01*
X103472440Y-100925000D01*
X103472440Y-99575000D01*
X103428162Y-99339683D01*
X103335000Y-99194905D01*
X103335000Y-98270132D01*
X105077566Y-96527566D01*
X105154919Y-96411799D01*
X105323603Y-96159346D01*
X105410000Y-95725000D01*
X105410000Y-91545132D01*
X108070132Y-88885000D01*
X108471614Y-88885000D01*
X108598110Y-88971431D01*
X108850000Y-89022440D01*
X110350000Y-89022440D01*
X110585317Y-88978162D01*
X110801441Y-88839090D01*
X110849134Y-88769289D01*
X110885910Y-88826441D01*
X111098110Y-88971431D01*
X111350000Y-89022440D01*
X111767308Y-89022440D01*
X113215000Y-90470133D01*
X113215000Y-90997796D01*
X112964722Y-91247637D01*
X112715284Y-91848352D01*
X112714973Y-92204895D01*
X105942308Y-98977560D01*
X105300000Y-98977560D01*
X105064683Y-99021838D01*
X104848559Y-99160910D01*
X104703569Y-99373110D01*
X104652560Y-99625000D01*
X104652560Y-100975000D01*
X104696838Y-101210317D01*
X104835910Y-101426441D01*
X105048110Y-101571431D01*
X105300000Y-101622440D01*
X106650000Y-101622440D01*
X106885317Y-101578162D01*
X107101441Y-101439090D01*
X107246431Y-101226890D01*
X107297440Y-100975000D01*
X107297440Y-100832692D01*
X108552560Y-99577572D01*
X108552560Y-101600000D01*
X108596838Y-101835317D01*
X108735910Y-102051441D01*
X108948110Y-102196431D01*
X109200000Y-102247440D01*
X111200000Y-102247440D01*
X111435317Y-102203162D01*
X111651441Y-102064090D01*
X111765349Y-101897380D01*
X112231645Y-102159144D01*
X112359566Y-102190124D01*
X112613000Y-102070777D01*
X112613000Y-100427000D01*
X112867000Y-100427000D01*
X112867000Y-102070777D01*
X113120434Y-102190124D01*
X113248355Y-102159144D01*
X113806317Y-101845922D01*
X114201942Y-101343020D01*
X114375000Y-100727000D01*
X114375000Y-100427000D01*
X112867000Y-100427000D01*
X112613000Y-100427000D01*
X112593000Y-100427000D01*
X112593000Y-100173000D01*
X112613000Y-100173000D01*
X112613000Y-98529223D01*
X112867000Y-98529223D01*
X112867000Y-100173000D01*
X114375000Y-100173000D01*
X114375000Y-99873000D01*
X114201942Y-99256980D01*
X113806317Y-98754078D01*
X113248355Y-98440856D01*
X113120434Y-98409876D01*
X112867000Y-98529223D01*
X112613000Y-98529223D01*
X112359566Y-98409876D01*
X112231645Y-98440856D01*
X111763789Y-98703495D01*
X111664090Y-98548559D01*
X111451890Y-98403569D01*
X111200000Y-98352560D01*
X109777572Y-98352560D01*
X114320157Y-93809975D01*
X114673795Y-93810284D01*
X115274943Y-93561894D01*
X115587382Y-93250000D01*
X119602560Y-93250000D01*
X119602560Y-94550000D01*
X119646838Y-94785317D01*
X119785910Y-95001441D01*
X119998110Y-95146431D01*
X120238000Y-95195010D01*
X120238000Y-97704818D01*
X120014683Y-97746838D01*
X119798559Y-97885910D01*
X119653569Y-98098110D01*
X119602560Y-98350000D01*
X119602560Y-99850000D01*
X119646838Y-100085317D01*
X119785910Y-100301441D01*
X119998110Y-100446431D01*
X120250000Y-100497440D01*
X121750000Y-100497440D01*
X121985317Y-100453162D01*
X122201441Y-100314090D01*
X122346431Y-100101890D01*
X122386355Y-99904738D01*
X122754436Y-100273461D01*
X123263298Y-100484759D01*
X123814285Y-100485240D01*
X124323515Y-100274831D01*
X124713461Y-99885564D01*
X124809976Y-99653130D01*
X124905169Y-99883515D01*
X125294436Y-100273461D01*
X125803298Y-100484759D01*
X126354285Y-100485240D01*
X126863515Y-100274831D01*
X127253461Y-99885564D01*
X127349976Y-99653130D01*
X127445169Y-99883515D01*
X127834436Y-100273461D01*
X128343298Y-100484759D01*
X128894285Y-100485240D01*
X129403515Y-100274831D01*
X129793461Y-99885564D01*
X129889976Y-99653130D01*
X129985169Y-99883515D01*
X130374436Y-100273461D01*
X130883298Y-100484759D01*
X131434285Y-100485240D01*
X131943515Y-100274831D01*
X132286828Y-99932116D01*
X132296838Y-99985317D01*
X132435910Y-100201441D01*
X132648110Y-100346431D01*
X132900000Y-100397440D01*
X134400000Y-100397440D01*
X134635317Y-100353162D01*
X134851441Y-100214090D01*
X134996431Y-100001890D01*
X134999081Y-99988803D01*
X135135910Y-100201441D01*
X135348110Y-100346431D01*
X135600000Y-100397440D01*
X137100000Y-100397440D01*
X137335317Y-100353162D01*
X137551441Y-100214090D01*
X137696431Y-100001890D01*
X137724759Y-99862000D01*
X137800000Y-99862000D01*
X138091605Y-99803996D01*
X138232139Y-99710094D01*
X138310167Y-99710162D01*
X138653943Y-99568117D01*
X138917192Y-99305327D01*
X139059838Y-98961799D01*
X139060162Y-98589833D01*
X138918117Y-98246057D01*
X138655327Y-97982808D01*
X138311799Y-97840162D01*
X137939833Y-97839838D01*
X137596057Y-97981883D01*
X137570059Y-98007835D01*
X137564090Y-97998559D01*
X137351890Y-97853569D01*
X137100000Y-97802560D01*
X135600000Y-97802560D01*
X135364683Y-97846838D01*
X135148559Y-97985910D01*
X135003569Y-98198110D01*
X135000919Y-98211197D01*
X134864090Y-97998559D01*
X134651890Y-97853569D01*
X134400000Y-97802560D01*
X132900000Y-97802560D01*
X132664683Y-97846838D01*
X132448559Y-97985910D01*
X132303569Y-98198110D01*
X132288912Y-98270486D01*
X131945564Y-97926539D01*
X131436702Y-97715241D01*
X130885715Y-97714760D01*
X130376485Y-97925169D01*
X129986539Y-98314436D01*
X129890024Y-98546870D01*
X129794831Y-98316485D01*
X129405564Y-97926539D01*
X128896702Y-97715241D01*
X128345715Y-97714760D01*
X127836485Y-97925169D01*
X127446539Y-98314436D01*
X127350024Y-98546870D01*
X127254831Y-98316485D01*
X126865564Y-97926539D01*
X126842000Y-97916754D01*
X126842000Y-97497440D01*
X126850000Y-97497440D01*
X127085317Y-97453162D01*
X127301441Y-97314090D01*
X127446431Y-97101890D01*
X127449081Y-97088803D01*
X127585910Y-97301441D01*
X127798110Y-97446431D01*
X128050000Y-97497440D01*
X129550000Y-97497440D01*
X129785317Y-97453162D01*
X130001441Y-97314090D01*
X130146431Y-97101890D01*
X130160177Y-97034011D01*
X130463201Y-97159838D01*
X130835167Y-97160162D01*
X131178943Y-97018117D01*
X131442192Y-96755327D01*
X131584838Y-96411799D01*
X131585162Y-96039833D01*
X131443117Y-95696057D01*
X131180327Y-95432808D01*
X130836799Y-95290162D01*
X130464833Y-95289838D01*
X130171308Y-95411120D01*
X130153162Y-95314683D01*
X130014090Y-95098559D01*
X129801890Y-94953569D01*
X129550000Y-94902560D01*
X128050000Y-94902560D01*
X127814683Y-94946838D01*
X127598559Y-95085910D01*
X127453569Y-95298110D01*
X127450919Y-95311197D01*
X127314090Y-95098559D01*
X127101890Y-94953569D01*
X126850000Y-94902560D01*
X125350000Y-94902560D01*
X125114683Y-94946838D01*
X124898559Y-95085910D01*
X124753569Y-95298110D01*
X124702560Y-95550000D01*
X124702560Y-96850000D01*
X124746838Y-97085317D01*
X124885910Y-97301441D01*
X125098110Y-97446431D01*
X125318000Y-97490960D01*
X125318000Y-97916279D01*
X125296485Y-97925169D01*
X124906539Y-98314436D01*
X124810024Y-98546870D01*
X124714831Y-98316485D01*
X124325564Y-97926539D01*
X123816702Y-97715241D01*
X123265715Y-97714760D01*
X122756485Y-97925169D01*
X122386920Y-98294091D01*
X122353162Y-98114683D01*
X122214090Y-97898559D01*
X122001890Y-97753569D01*
X121762000Y-97704990D01*
X121762000Y-95195182D01*
X121985317Y-95153162D01*
X122201441Y-95014090D01*
X122346431Y-94801890D01*
X122349081Y-94788803D01*
X122485910Y-95001441D01*
X122698110Y-95146431D01*
X122950000Y-95197440D01*
X124450000Y-95197440D01*
X124685317Y-95153162D01*
X124901441Y-95014090D01*
X125046431Y-94801890D01*
X125062908Y-94720526D01*
X125338201Y-94834838D01*
X125710167Y-94835162D01*
X126053943Y-94693117D01*
X126317192Y-94430327D01*
X126459838Y-94086799D01*
X126460162Y-93714833D01*
X126318117Y-93371057D01*
X126055327Y-93107808D01*
X125711799Y-92965162D01*
X125339833Y-92964838D01*
X125065140Y-93078339D01*
X125053162Y-93014683D01*
X124914090Y-92798559D01*
X124701890Y-92653569D01*
X124450000Y-92602560D01*
X122950000Y-92602560D01*
X122714683Y-92646838D01*
X122498559Y-92785910D01*
X122353569Y-92998110D01*
X122350919Y-93011197D01*
X122214090Y-92798559D01*
X122001890Y-92653569D01*
X121750000Y-92602560D01*
X120250000Y-92602560D01*
X120014683Y-92646838D01*
X119798559Y-92785910D01*
X119653569Y-92998110D01*
X119602560Y-93250000D01*
X115587382Y-93250000D01*
X115735278Y-93102363D01*
X115984716Y-92501648D01*
X115985284Y-91851205D01*
X115736894Y-91250057D01*
X115485000Y-90997722D01*
X115485000Y-90000000D01*
X115473065Y-89940000D01*
X115398604Y-89565655D01*
X115163827Y-89214285D01*
X119614760Y-89214285D01*
X119825169Y-89723515D01*
X120214436Y-90113461D01*
X120723298Y-90324759D01*
X121274285Y-90325240D01*
X121783515Y-90114831D01*
X122173461Y-89725564D01*
X122269976Y-89493130D01*
X122365169Y-89723515D01*
X122754436Y-90113461D01*
X123263298Y-90324759D01*
X123814285Y-90325240D01*
X124323515Y-90114831D01*
X124713461Y-89725564D01*
X124809976Y-89493130D01*
X124905169Y-89723515D01*
X125252041Y-90070992D01*
X125114683Y-90096838D01*
X124898559Y-90235910D01*
X124753569Y-90448110D01*
X124702560Y-90700000D01*
X124702560Y-92000000D01*
X124746838Y-92235317D01*
X124885910Y-92451441D01*
X125098110Y-92596431D01*
X125350000Y-92647440D01*
X126850000Y-92647440D01*
X127085317Y-92603162D01*
X127301441Y-92464090D01*
X127446431Y-92251890D01*
X127449081Y-92238803D01*
X127585910Y-92451441D01*
X127798110Y-92596431D01*
X128050000Y-92647440D01*
X129550000Y-92647440D01*
X129785317Y-92603162D01*
X130001441Y-92464090D01*
X130146431Y-92251890D01*
X130174759Y-92112000D01*
X130189534Y-92112000D01*
X130219673Y-92142192D01*
X130563201Y-92284838D01*
X130935167Y-92285162D01*
X131278943Y-92143117D01*
X131542192Y-91880327D01*
X131684838Y-91536799D01*
X131685162Y-91164833D01*
X131543117Y-90821057D01*
X131280327Y-90557808D01*
X130936799Y-90415162D01*
X130564833Y-90414838D01*
X130221057Y-90556883D01*
X130189886Y-90588000D01*
X130176366Y-90588000D01*
X130153162Y-90464683D01*
X130014090Y-90248559D01*
X129801890Y-90103569D01*
X129550000Y-90052560D01*
X129465895Y-90052560D01*
X129793461Y-89725564D01*
X129889976Y-89493130D01*
X129985169Y-89723515D01*
X130374436Y-90113461D01*
X130883298Y-90324759D01*
X131434285Y-90325240D01*
X131943515Y-90114831D01*
X132293164Y-89765791D01*
X132296838Y-89785317D01*
X132435910Y-90001441D01*
X132648110Y-90146431D01*
X132900000Y-90197440D01*
X134400000Y-90197440D01*
X134635317Y-90153162D01*
X134851441Y-90014090D01*
X134996431Y-89801890D01*
X134999081Y-89788803D01*
X135135910Y-90001441D01*
X135348110Y-90146431D01*
X135600000Y-90197440D01*
X135622301Y-90197440D01*
X135646004Y-90316605D01*
X135733873Y-90448110D01*
X135811185Y-90563815D01*
X135939875Y-90692505D01*
X135939838Y-90735167D01*
X136081883Y-91078943D01*
X136344673Y-91342192D01*
X136688201Y-91484838D01*
X137060167Y-91485162D01*
X137403943Y-91343117D01*
X137667192Y-91080327D01*
X137809838Y-90736799D01*
X137810162Y-90364833D01*
X137668117Y-90021057D01*
X137596025Y-89948839D01*
X137696431Y-89801890D01*
X137747440Y-89550000D01*
X137747440Y-88250000D01*
X137703162Y-88014683D01*
X137564090Y-87798559D01*
X137351890Y-87653569D01*
X137100000Y-87602560D01*
X135600000Y-87602560D01*
X135364683Y-87646838D01*
X135148559Y-87785910D01*
X135003569Y-87998110D01*
X135000919Y-88011197D01*
X134864090Y-87798559D01*
X134651890Y-87653569D01*
X134400000Y-87602560D01*
X132900000Y-87602560D01*
X132664683Y-87646838D01*
X132448559Y-87785910D01*
X132303569Y-87998110D01*
X132282178Y-88103740D01*
X131945564Y-87766539D01*
X131436702Y-87555241D01*
X130885715Y-87554760D01*
X130376485Y-87765169D01*
X129986539Y-88154436D01*
X129890024Y-88386870D01*
X129794831Y-88156485D01*
X129405564Y-87766539D01*
X128896702Y-87555241D01*
X128345715Y-87554760D01*
X127836485Y-87765169D01*
X127446539Y-88154436D01*
X127350024Y-88386870D01*
X127254831Y-88156485D01*
X126865564Y-87766539D01*
X126356702Y-87555241D01*
X125805715Y-87554760D01*
X125296485Y-87765169D01*
X124906539Y-88154436D01*
X124810024Y-88386870D01*
X124714831Y-88156485D01*
X124325564Y-87766539D01*
X123816702Y-87555241D01*
X123265715Y-87554760D01*
X122756485Y-87765169D01*
X122366539Y-88154436D01*
X122270024Y-88386870D01*
X122174831Y-88156485D01*
X121785564Y-87766539D01*
X121276702Y-87555241D01*
X120725715Y-87554760D01*
X120216485Y-87765169D01*
X119826539Y-88154436D01*
X119615241Y-88663298D01*
X119614760Y-89214285D01*
X115163827Y-89214285D01*
X115152567Y-89197434D01*
X113497440Y-87542308D01*
X113497440Y-87125000D01*
X113453162Y-86889683D01*
X113314090Y-86673559D01*
X113235000Y-86619519D01*
X113235000Y-84800000D01*
X137477560Y-84800000D01*
X137477560Y-86150000D01*
X137521838Y-86385317D01*
X137660910Y-86601441D01*
X137873110Y-86746431D01*
X138125000Y-86797440D01*
X139475000Y-86797440D01*
X139710317Y-86753162D01*
X139926441Y-86614090D01*
X140071431Y-86401890D01*
X140122440Y-86150000D01*
X140122440Y-85735750D01*
X141315000Y-85735750D01*
X141315000Y-86251310D01*
X141411673Y-86484699D01*
X141590302Y-86663327D01*
X141823691Y-86760000D01*
X142339250Y-86760000D01*
X142498000Y-86601250D01*
X142498000Y-85577000D01*
X142752000Y-85577000D01*
X142752000Y-86601250D01*
X142910750Y-86760000D01*
X143426309Y-86760000D01*
X143659698Y-86663327D01*
X143838327Y-86484699D01*
X143935000Y-86251310D01*
X143935000Y-85735750D01*
X143776250Y-85577000D01*
X142752000Y-85577000D01*
X142498000Y-85577000D01*
X141473750Y-85577000D01*
X141315000Y-85735750D01*
X140122440Y-85735750D01*
X140122440Y-84800000D01*
X140093970Y-84648690D01*
X141315000Y-84648690D01*
X141315000Y-85164250D01*
X141473750Y-85323000D01*
X142498000Y-85323000D01*
X142498000Y-84298750D01*
X142752000Y-84298750D01*
X142752000Y-85323000D01*
X143776250Y-85323000D01*
X143935000Y-85164250D01*
X143935000Y-84648690D01*
X143838327Y-84415301D01*
X143659698Y-84236673D01*
X143426309Y-84140000D01*
X142910750Y-84140000D01*
X142752000Y-84298750D01*
X142498000Y-84298750D01*
X142339250Y-84140000D01*
X141823691Y-84140000D01*
X141590302Y-84236673D01*
X141411673Y-84415301D01*
X141315000Y-84648690D01*
X140093970Y-84648690D01*
X140078162Y-84564683D01*
X139939090Y-84348559D01*
X139726890Y-84203569D01*
X139475000Y-84152560D01*
X138125000Y-84152560D01*
X137889683Y-84196838D01*
X137673559Y-84335910D01*
X137528569Y-84548110D01*
X137477560Y-84800000D01*
X113235000Y-84800000D01*
X113235000Y-84295132D01*
X113620157Y-83909975D01*
X113973795Y-83910284D01*
X114574943Y-83661894D01*
X115035278Y-83202363D01*
X115284716Y-82601648D01*
X115285284Y-81951205D01*
X115036894Y-81350057D01*
X114577363Y-80889722D01*
X113976648Y-80640284D01*
X113326205Y-80639716D01*
X112725057Y-80888106D01*
X112264722Y-81347637D01*
X112015284Y-81948352D01*
X112014973Y-82304895D01*
X111297434Y-83022434D01*
X111051397Y-83390654D01*
X110978108Y-83759100D01*
X110485959Y-83266091D01*
X109701541Y-82940372D01*
X108852185Y-82939630D01*
X108067200Y-83263980D01*
X107466091Y-83864041D01*
X107140372Y-84648459D01*
X107139630Y-85497815D01*
X107463980Y-86282800D01*
X107795601Y-86615000D01*
X107600000Y-86615000D01*
X107165654Y-86701397D01*
X106797434Y-86947434D01*
X103472434Y-90272434D01*
X103226397Y-90640654D01*
X103140000Y-91075000D01*
X103140000Y-95254868D01*
X101397434Y-96997434D01*
X101151397Y-97365654D01*
X101065000Y-97800000D01*
X101065000Y-99084243D01*
X101023559Y-99110910D01*
X100878569Y-99323110D01*
X100827560Y-99575000D01*
X100710000Y-99575000D01*
X100710000Y-82080089D01*
X100746950Y-82169515D01*
X101824811Y-83249259D01*
X103233825Y-83834333D01*
X104759482Y-83835664D01*
X106169515Y-83253050D01*
X107249259Y-82175189D01*
X107834333Y-80766175D01*
X107834723Y-80318957D01*
X107948110Y-80396431D01*
X108200000Y-80447440D01*
X110200000Y-80447440D01*
X110435317Y-80403162D01*
X110651441Y-80264090D01*
X110756951Y-80109671D01*
X111114313Y-80348452D01*
X111740000Y-80472909D01*
X112365687Y-80348452D01*
X112833679Y-80035750D01*
X116140000Y-80035750D01*
X116140000Y-80626309D01*
X116236673Y-80859698D01*
X116415301Y-81038327D01*
X116648690Y-81135000D01*
X117114250Y-81135000D01*
X117273000Y-80976250D01*
X117273000Y-79877000D01*
X117527000Y-79877000D01*
X117527000Y-80976250D01*
X117685750Y-81135000D01*
X118151310Y-81135000D01*
X118384699Y-81038327D01*
X118563327Y-80859698D01*
X118660000Y-80626309D01*
X118660000Y-80135750D01*
X126440000Y-80135750D01*
X126440000Y-80726309D01*
X126536673Y-80959698D01*
X126715301Y-81138327D01*
X126948690Y-81235000D01*
X127414250Y-81235000D01*
X127573000Y-81076250D01*
X127573000Y-79977000D01*
X127827000Y-79977000D01*
X127827000Y-81076250D01*
X127985750Y-81235000D01*
X128451310Y-81235000D01*
X128684699Y-81138327D01*
X128863327Y-80959698D01*
X128960000Y-80726309D01*
X128960000Y-80135750D01*
X128801250Y-79977000D01*
X127827000Y-79977000D01*
X127573000Y-79977000D01*
X126598750Y-79977000D01*
X126440000Y-80135750D01*
X118660000Y-80135750D01*
X118660000Y-80035750D01*
X118501250Y-79877000D01*
X117527000Y-79877000D01*
X117273000Y-79877000D01*
X116298750Y-79877000D01*
X116140000Y-80035750D01*
X112833679Y-80035750D01*
X112896120Y-79994029D01*
X113250543Y-79463596D01*
X113375000Y-78837909D01*
X113375000Y-78162091D01*
X113250543Y-77536404D01*
X112896120Y-77005971D01*
X112365687Y-76651548D01*
X111740000Y-76527091D01*
X111114313Y-76651548D01*
X110755808Y-76891093D01*
X110664090Y-76748559D01*
X110451890Y-76603569D01*
X110200000Y-76552560D01*
X108200000Y-76552560D01*
X107964683Y-76596838D01*
X107748559Y-76735910D01*
X107603569Y-76948110D01*
X107552560Y-77200000D01*
X107552560Y-78555354D01*
X107253050Y-77830485D01*
X106175189Y-76750741D01*
X104766175Y-76165667D01*
X103240518Y-76164336D01*
X101830485Y-76746950D01*
X100750741Y-77824811D01*
X100710000Y-77922926D01*
X100710000Y-76027479D01*
X114259141Y-76058343D01*
X114259141Y-76058343D01*
G37*
X114259141Y-76058343D02*
X114018880Y-76218880D01*
X113664457Y-76749313D01*
X113540000Y-77375000D01*
X113664457Y-78000687D01*
X114018880Y-78531120D01*
X114549313Y-78885543D01*
X115175000Y-79010000D01*
X116140000Y-79010000D01*
X116140000Y-79464250D01*
X116298750Y-79623000D01*
X117273000Y-79623000D01*
X117273000Y-79603000D01*
X117527000Y-79603000D01*
X117527000Y-79623000D01*
X118501250Y-79623000D01*
X118660000Y-79464250D01*
X118660000Y-78873691D01*
X118645450Y-78838565D01*
X118685910Y-78901441D01*
X118898110Y-79046431D01*
X119150000Y-79097440D01*
X120650000Y-79097440D01*
X120885317Y-79053162D01*
X121101441Y-78914090D01*
X121246431Y-78701890D01*
X121296376Y-78455256D01*
X121550460Y-78769145D01*
X122027316Y-79028173D01*
X122098815Y-79042318D01*
X122313000Y-78919656D01*
X122313000Y-77327000D01*
X122293000Y-77327000D01*
X122293000Y-77073000D01*
X122313000Y-77073000D01*
X122313000Y-77053000D01*
X122567000Y-77053000D01*
X122567000Y-77073000D01*
X122587000Y-77073000D01*
X122587000Y-77327000D01*
X122567000Y-77327000D01*
X122567000Y-78919656D01*
X122781185Y-79042318D01*
X122852684Y-79028173D01*
X123329540Y-78769145D01*
X123670972Y-78347349D01*
X123698154Y-78255520D01*
X123700427Y-78266946D01*
X124000657Y-78716272D01*
X124449983Y-79016502D01*
X124980000Y-79121929D01*
X125510017Y-79016502D01*
X125781654Y-78835000D01*
X126497448Y-78835000D01*
X126440000Y-78973691D01*
X126440000Y-79564250D01*
X126598750Y-79723000D01*
X127573000Y-79723000D01*
X127573000Y-79703000D01*
X127827000Y-79703000D01*
X127827000Y-79723000D01*
X128801250Y-79723000D01*
X128960000Y-79564250D01*
X128960000Y-79272239D01*
X129352560Y-79664799D01*
X129352560Y-80300000D01*
X129396838Y-80535317D01*
X129535910Y-80751441D01*
X129748110Y-80896431D01*
X130000000Y-80947440D01*
X132000000Y-80947440D01*
X132235317Y-80903162D01*
X132451441Y-80764090D01*
X132565349Y-80597380D01*
X133031645Y-80859144D01*
X133159566Y-80890124D01*
X133413000Y-80770777D01*
X133413000Y-79127000D01*
X133667000Y-79127000D01*
X133667000Y-80770777D01*
X133920434Y-80890124D01*
X134048355Y-80859144D01*
X134606317Y-80545922D01*
X135001942Y-80043020D01*
X135175000Y-79427000D01*
X135175000Y-79127000D01*
X133667000Y-79127000D01*
X133413000Y-79127000D01*
X133393000Y-79127000D01*
X133393000Y-78873000D01*
X133413000Y-78873000D01*
X133413000Y-77229223D01*
X133667000Y-77229223D01*
X133667000Y-78873000D01*
X135175000Y-78873000D01*
X135175000Y-78573000D01*
X135001942Y-77956980D01*
X134606317Y-77454078D01*
X134048355Y-77140856D01*
X133920434Y-77109876D01*
X133667000Y-77229223D01*
X133413000Y-77229223D01*
X133159566Y-77109876D01*
X133031645Y-77140856D01*
X132563789Y-77403495D01*
X132464090Y-77248559D01*
X132251890Y-77103569D01*
X132000000Y-77052560D01*
X131364799Y-77052560D01*
X130407367Y-76095127D01*
X144273346Y-76126712D01*
X144278181Y-77891306D01*
X144253050Y-77830485D01*
X143175189Y-76750741D01*
X141766175Y-76165667D01*
X140240518Y-76164336D01*
X138830485Y-76746950D01*
X137750741Y-77824811D01*
X137165667Y-79233825D01*
X137164336Y-80759482D01*
X137746950Y-82169515D01*
X138824811Y-83249259D01*
X140233825Y-83834333D01*
X141759482Y-83835664D01*
X143169515Y-83253050D01*
X144249259Y-82175189D01*
X144289651Y-82077915D01*
X144290000Y-82205425D01*
X144290000Y-91101971D01*
X143947378Y-90873039D01*
X143379093Y-90760000D01*
X143320907Y-90760000D01*
X142752622Y-90873039D01*
X142270853Y-91194946D01*
X142080000Y-91480578D01*
X141889147Y-91194946D01*
X141407378Y-90873039D01*
X140839093Y-90760000D01*
X140780907Y-90760000D01*
X140212622Y-90873039D01*
X139730853Y-91194946D01*
X139408946Y-91676715D01*
X139295907Y-92245000D01*
X139408946Y-92813285D01*
X139730853Y-93295054D01*
X140060026Y-93515000D01*
X139730853Y-93734946D01*
X139408946Y-94216715D01*
X139295907Y-94785000D01*
X139408946Y-95353285D01*
X139730853Y-95835054D01*
X140060026Y-96055000D01*
X139730853Y-96274946D01*
X139408946Y-96756715D01*
X139295907Y-97325000D01*
X139408946Y-97893285D01*
X139730853Y-98375054D01*
X140060026Y-98595000D01*
X139730853Y-98814946D01*
X139408946Y-99296715D01*
X139295907Y-99865000D01*
X139408946Y-100433285D01*
X139730853Y-100915054D01*
X140060026Y-101135000D01*
X139730853Y-101354946D01*
X139408946Y-101836715D01*
X139295907Y-102405000D01*
X139408946Y-102973285D01*
X139730853Y-103455054D01*
X140060026Y-103675000D01*
X139730853Y-103894946D01*
X139408946Y-104376715D01*
X139295907Y-104945000D01*
X139408946Y-105513285D01*
X139730853Y-105995054D01*
X140060026Y-106215000D01*
X139730853Y-106434946D01*
X139408946Y-106916715D01*
X139295907Y-107485000D01*
X139408946Y-108053285D01*
X139730853Y-108535054D01*
X140060026Y-108755000D01*
X139730853Y-108974946D01*
X139408946Y-109456715D01*
X139295907Y-110025000D01*
X139408946Y-110593285D01*
X139730853Y-111075054D01*
X140212622Y-111396961D01*
X140780907Y-111510000D01*
X140839093Y-111510000D01*
X141407378Y-111396961D01*
X141889147Y-111075054D01*
X141889971Y-111073821D01*
X141896838Y-111110317D01*
X142035910Y-111326441D01*
X142248110Y-111471431D01*
X142500000Y-111522440D01*
X144200000Y-111522440D01*
X144290000Y-111505505D01*
X144290000Y-142919911D01*
X144253050Y-142830485D01*
X143175189Y-141750741D01*
X141766175Y-141165667D01*
X140240518Y-141164336D01*
X138830485Y-141746950D01*
X138235000Y-142341397D01*
X138235000Y-141485750D01*
X138076250Y-141327000D01*
X137127000Y-141327000D01*
X137127000Y-142776250D01*
X137285750Y-142935000D01*
X137704987Y-142935000D01*
X137165667Y-144233825D01*
X137164336Y-145759482D01*
X137746950Y-147169515D01*
X138824811Y-148249259D01*
X140233825Y-148834333D01*
X141759482Y-148835664D01*
X143169515Y-148253050D01*
X144249259Y-147175189D01*
X144290000Y-147077074D01*
X144290000Y-148872295D01*
X104887559Y-148782744D01*
X106169515Y-148253050D01*
X107249259Y-147175189D01*
X107834333Y-145766175D01*
X107835664Y-144240518D01*
X107580840Y-143623795D01*
X109264716Y-143623795D01*
X109513106Y-144224943D01*
X109972637Y-144685278D01*
X110573352Y-144934716D01*
X111223795Y-144935284D01*
X111824943Y-144686894D01*
X112285278Y-144227363D01*
X112534716Y-143626648D01*
X112534718Y-143623795D01*
X133464716Y-143623795D01*
X133713106Y-144224943D01*
X134172637Y-144685278D01*
X134773352Y-144934716D01*
X135423795Y-144935284D01*
X136024943Y-144686894D01*
X136485278Y-144227363D01*
X136734716Y-143626648D01*
X136735284Y-142976205D01*
X136717086Y-142932164D01*
X136873000Y-142776250D01*
X136873000Y-141327000D01*
X135923750Y-141327000D01*
X135765000Y-141485750D01*
X135765000Y-141805780D01*
X135426648Y-141665284D01*
X134776205Y-141664716D01*
X134175057Y-141913106D01*
X133714722Y-142372637D01*
X133465284Y-142973352D01*
X133464716Y-143623795D01*
X112534718Y-143623795D01*
X112535284Y-142976205D01*
X112286894Y-142375057D01*
X111827363Y-141914722D01*
X111226648Y-141665284D01*
X110576205Y-141664716D01*
X109975057Y-141913106D01*
X109514722Y-142372637D01*
X109265284Y-142973352D01*
X109264716Y-143623795D01*
X107580840Y-143623795D01*
X107253050Y-142830485D01*
X106175189Y-141750741D01*
X104766175Y-141165667D01*
X103240518Y-141164336D01*
X101830485Y-141746950D01*
X100750741Y-142824811D01*
X100710643Y-142921377D01*
X100710000Y-142686248D01*
X100710000Y-140285750D01*
X107365000Y-140285750D01*
X107365000Y-141226309D01*
X107461673Y-141459698D01*
X107640301Y-141638327D01*
X107873690Y-141735000D01*
X108314250Y-141735000D01*
X108473000Y-141576250D01*
X108473000Y-140127000D01*
X108727000Y-140127000D01*
X108727000Y-141576250D01*
X108885750Y-141735000D01*
X109326310Y-141735000D01*
X109559699Y-141638327D01*
X109738327Y-141459698D01*
X109835000Y-141226309D01*
X109835000Y-140285750D01*
X109676250Y-140127000D01*
X108727000Y-140127000D01*
X108473000Y-140127000D01*
X107523750Y-140127000D01*
X107365000Y-140285750D01*
X100710000Y-140285750D01*
X100710000Y-138585750D01*
X101490000Y-138585750D01*
X101490000Y-139676309D01*
X101586673Y-139909698D01*
X101765301Y-140088327D01*
X101998690Y-140185000D01*
X103089250Y-140185000D01*
X103248000Y-140026250D01*
X103248000Y-138427000D01*
X103502000Y-138427000D01*
X103502000Y-140026250D01*
X103660750Y-140185000D01*
X104751310Y-140185000D01*
X104984699Y-140088327D01*
X105099334Y-139973691D01*
X135765000Y-139973691D01*
X135765000Y-140914250D01*
X135923750Y-141073000D01*
X136873000Y-141073000D01*
X136873000Y-139623750D01*
X137127000Y-139623750D01*
X137127000Y-141073000D01*
X138076250Y-141073000D01*
X138235000Y-140914250D01*
X138235000Y-139973691D01*
X138138327Y-139740302D01*
X137959699Y-139561673D01*
X137726310Y-139465000D01*
X137285750Y-139465000D01*
X137127000Y-139623750D01*
X136873000Y-139623750D01*
X136714250Y-139465000D01*
X136273690Y-139465000D01*
X136040301Y-139561673D01*
X135861673Y-139740302D01*
X135765000Y-139973691D01*
X105099334Y-139973691D01*
X105163327Y-139909698D01*
X105260000Y-139676309D01*
X105260000Y-138773691D01*
X107365000Y-138773691D01*
X107365000Y-139714250D01*
X107523750Y-139873000D01*
X108473000Y-139873000D01*
X108473000Y-138423750D01*
X108727000Y-138423750D01*
X108727000Y-139873000D01*
X109676250Y-139873000D01*
X109835000Y-139714250D01*
X109835000Y-138773691D01*
X109738327Y-138540302D01*
X109559699Y-138361673D01*
X109326310Y-138265000D01*
X108885750Y-138265000D01*
X108727000Y-138423750D01*
X108473000Y-138423750D01*
X108314250Y-138265000D01*
X107873690Y-138265000D01*
X107640301Y-138361673D01*
X107461673Y-138540302D01*
X107365000Y-138773691D01*
X105260000Y-138773691D01*
X105260000Y-138585750D01*
X105101250Y-138427000D01*
X103502000Y-138427000D01*
X103248000Y-138427000D01*
X101648750Y-138427000D01*
X101490000Y-138585750D01*
X100710000Y-138585750D01*
X100710000Y-136923691D01*
X101490000Y-136923691D01*
X101490000Y-138014250D01*
X101648750Y-138173000D01*
X103248000Y-138173000D01*
X103248000Y-136573750D01*
X103502000Y-136573750D01*
X103502000Y-138173000D01*
X105101250Y-138173000D01*
X105260000Y-138014250D01*
X105260000Y-136923691D01*
X105163327Y-136690302D01*
X104984699Y-136511673D01*
X104751310Y-136415000D01*
X103660750Y-136415000D01*
X103502000Y-136573750D01*
X103248000Y-136573750D01*
X103089250Y-136415000D01*
X101998690Y-136415000D01*
X101765301Y-136511673D01*
X101586673Y-136690302D01*
X101490000Y-136923691D01*
X100710000Y-136923691D01*
X100710000Y-133673305D01*
X101489674Y-133673305D01*
X101776043Y-134366372D01*
X102305839Y-134897093D01*
X102998405Y-135184672D01*
X103748305Y-135185326D01*
X104441372Y-134898957D01*
X104972093Y-134369161D01*
X105259672Y-133676595D01*
X105259978Y-133325000D01*
X139677560Y-133325000D01*
X139677560Y-134675000D01*
X139721838Y-134910317D01*
X139860910Y-135126441D01*
X140073110Y-135271431D01*
X140325000Y-135322440D01*
X141675000Y-135322440D01*
X141910317Y-135278162D01*
X142126441Y-135139090D01*
X142271431Y-134926890D01*
X142322440Y-134675000D01*
X142322440Y-133325000D01*
X142278162Y-133089683D01*
X142139090Y-132873559D01*
X141926890Y-132728569D01*
X141675000Y-132677560D01*
X140325000Y-132677560D01*
X140089683Y-132721838D01*
X139873559Y-132860910D01*
X139728569Y-133073110D01*
X139677560Y-133325000D01*
X105259978Y-133325000D01*
X105260326Y-132926695D01*
X105010000Y-132320859D01*
X105010000Y-128000000D01*
X139052560Y-128000000D01*
X139052560Y-130000000D01*
X139096838Y-130235317D01*
X139235910Y-130451441D01*
X139448110Y-130596431D01*
X139700000Y-130647440D01*
X142300000Y-130647440D01*
X142535317Y-130603162D01*
X142751441Y-130464090D01*
X142896431Y-130251890D01*
X142947440Y-130000000D01*
X142947440Y-128000000D01*
X142903162Y-127764683D01*
X142764090Y-127548559D01*
X142597380Y-127434651D01*
X142859144Y-126968355D01*
X142890124Y-126840434D01*
X142770777Y-126587000D01*
X141127000Y-126587000D01*
X141127000Y-126607000D01*
X140873000Y-126607000D01*
X140873000Y-126587000D01*
X139229223Y-126587000D01*
X139109876Y-126840434D01*
X139140856Y-126968355D01*
X139403495Y-127436211D01*
X139248559Y-127535910D01*
X139103569Y-127748110D01*
X139052560Y-128000000D01*
X105010000Y-128000000D01*
X105010000Y-127667506D01*
X105209685Y-127186611D01*
X105210314Y-126466548D01*
X105050416Y-126079566D01*
X139109876Y-126079566D01*
X139229223Y-126333000D01*
X140873000Y-126333000D01*
X140873000Y-124825000D01*
X141127000Y-124825000D01*
X141127000Y-126333000D01*
X142770777Y-126333000D01*
X142890124Y-126079566D01*
X142859144Y-125951645D01*
X142545922Y-125393683D01*
X142043020Y-124998058D01*
X141427000Y-124825000D01*
X141127000Y-124825000D01*
X140873000Y-124825000D01*
X140573000Y-124825000D01*
X139956980Y-124998058D01*
X139454078Y-125393683D01*
X139140856Y-125951645D01*
X139109876Y-126079566D01*
X105050416Y-126079566D01*
X105035000Y-126042257D01*
X105035000Y-122607300D01*
X105209685Y-122186611D01*
X105210314Y-121466548D01*
X104935338Y-120801057D01*
X104426621Y-120291451D01*
X103761611Y-120015315D01*
X103041548Y-120014686D01*
X102376057Y-120289662D01*
X101866451Y-120798379D01*
X101590315Y-121463389D01*
X101589686Y-122183452D01*
X101765000Y-122607743D01*
X101765000Y-126042700D01*
X101590315Y-126463389D01*
X101589686Y-127183452D01*
X101740000Y-127547239D01*
X101740000Y-132322129D01*
X101490328Y-132923405D01*
X101489674Y-133673305D01*
X100710000Y-133673305D01*
X100710000Y-112183452D01*
X101589686Y-112183452D01*
X101864662Y-112848943D01*
X102373379Y-113358549D01*
X103038389Y-113634685D01*
X103758452Y-113635314D01*
X104423943Y-113360338D01*
X104933549Y-112851621D01*
X105209685Y-112186611D01*
X105210314Y-111466548D01*
X104935338Y-110801057D01*
X104426621Y-110291451D01*
X103761611Y-110015315D01*
X103041548Y-110014686D01*
X102376057Y-110289662D01*
X101866451Y-110798379D01*
X101590315Y-111463389D01*
X101589686Y-112183452D01*
X100710000Y-112183452D01*
X100710000Y-109395000D01*
X111978071Y-109395000D01*
X112083498Y-109925017D01*
X112383728Y-110374343D01*
X112833054Y-110674573D01*
X112844480Y-110676846D01*
X112752651Y-110704028D01*
X112330855Y-111045460D01*
X112071827Y-111522316D01*
X112057682Y-111593815D01*
X112180344Y-111808000D01*
X113773000Y-111808000D01*
X113773000Y-111788000D01*
X114027000Y-111788000D01*
X114027000Y-111808000D01*
X114047000Y-111808000D01*
X114047000Y-112062000D01*
X114027000Y-112062000D01*
X114027000Y-112082000D01*
X113773000Y-112082000D01*
X113773000Y-112062000D01*
X112180344Y-112062000D01*
X112057682Y-112276185D01*
X112071827Y-112347684D01*
X112330855Y-112824540D01*
X112644668Y-113078563D01*
X112414683Y-113121838D01*
X112198559Y-113260910D01*
X112053569Y-113473110D01*
X112002560Y-113725000D01*
X112002560Y-115225000D01*
X112046838Y-115460317D01*
X112185910Y-115676441D01*
X112398110Y-115821431D01*
X112650000Y-115872440D01*
X114299930Y-115872440D01*
X113086185Y-117086185D01*
X112921004Y-117333395D01*
X112863000Y-117625000D01*
X112863000Y-117664008D01*
X112673559Y-117785910D01*
X112528569Y-117998110D01*
X112477560Y-118250000D01*
X112477560Y-119750000D01*
X112521838Y-119985317D01*
X112660910Y-120201441D01*
X112873110Y-120346431D01*
X113125000Y-120397440D01*
X114125000Y-120397440D01*
X114360317Y-120353162D01*
X114576441Y-120214090D01*
X114721431Y-120001890D01*
X114772440Y-119750000D01*
X114772440Y-118250000D01*
X114977560Y-118250000D01*
X114977560Y-119750000D01*
X115021838Y-119985317D01*
X115160910Y-120201441D01*
X115373110Y-120346431D01*
X115618492Y-120396122D01*
X116589875Y-121367505D01*
X116589838Y-121410167D01*
X116731883Y-121753943D01*
X116994673Y-122017192D01*
X117338201Y-122159838D01*
X117710167Y-122160162D01*
X117807505Y-122119943D01*
X117831883Y-122178943D01*
X118094673Y-122442192D01*
X118438201Y-122584838D01*
X118810167Y-122585162D01*
X119153943Y-122443117D01*
X119417192Y-122180327D01*
X119559838Y-121836799D01*
X119560162Y-121464833D01*
X119418117Y-121121057D01*
X119387000Y-121089886D01*
X119387000Y-120335992D01*
X119449228Y-120295949D01*
X119523110Y-120346431D01*
X119775000Y-120397440D01*
X120775000Y-120397440D01*
X121010317Y-120353162D01*
X121093148Y-120299862D01*
X121298690Y-120385000D01*
X121639250Y-120385000D01*
X121798000Y-120226250D01*
X121798000Y-119127000D01*
X121778000Y-119127000D01*
X121778000Y-118873000D01*
X121798000Y-118873000D01*
X121798000Y-117773750D01*
X121639250Y-117615000D01*
X121298690Y-117615000D01*
X121094330Y-117699649D01*
X121026890Y-117653569D01*
X120775000Y-117602560D01*
X120280191Y-117602560D01*
X119635125Y-116957495D01*
X119635162Y-116914833D01*
X119493117Y-116571057D01*
X119230327Y-116307808D01*
X118886799Y-116165162D01*
X118514833Y-116164838D01*
X118171057Y-116306883D01*
X117907808Y-116569673D01*
X117765162Y-116913201D01*
X117764838Y-117285167D01*
X117906883Y-117628943D01*
X117919202Y-117641284D01*
X117889683Y-117646838D01*
X117673559Y-117785910D01*
X117528569Y-117998110D01*
X117477560Y-118250000D01*
X117477560Y-119750000D01*
X117521838Y-119985317D01*
X117660910Y-120201441D01*
X117863000Y-120339523D01*
X117863000Y-120352946D01*
X117711799Y-120290162D01*
X117667754Y-120290124D01*
X117248054Y-119870424D01*
X117272440Y-119750000D01*
X117272440Y-118250000D01*
X117228162Y-118014683D01*
X117089090Y-117798559D01*
X116876890Y-117653569D01*
X116625000Y-117602560D01*
X115625000Y-117602560D01*
X115389683Y-117646838D01*
X115173559Y-117785910D01*
X115028569Y-117998110D01*
X114977560Y-118250000D01*
X114772440Y-118250000D01*
X114728162Y-118014683D01*
X114589090Y-117798559D01*
X114553434Y-117774196D01*
X116580191Y-115747440D01*
X117550000Y-115747440D01*
X117785317Y-115703162D01*
X118001441Y-115564090D01*
X118133531Y-115370770D01*
X118268878Y-115506117D01*
X118268880Y-115506120D01*
X118799313Y-115860543D01*
X119425000Y-115985000D01*
X122297685Y-115985000D01*
X122240000Y-116275000D01*
X122240000Y-117615000D01*
X122210750Y-117615000D01*
X122052000Y-117773750D01*
X122052000Y-118873000D01*
X122072000Y-118873000D01*
X122072000Y-119127000D01*
X122052000Y-119127000D01*
X122052000Y-120226250D01*
X122210750Y-120385000D01*
X122551310Y-120385000D01*
X122784699Y-120288327D01*
X122786068Y-120286958D01*
X122873110Y-120346431D01*
X123125000Y-120397440D01*
X124125000Y-120397440D01*
X124360317Y-120353162D01*
X124576441Y-120214090D01*
X124721431Y-120001890D01*
X124772440Y-119750000D01*
X124772440Y-119727768D01*
X124904573Y-119530017D01*
X124977560Y-119163087D01*
X124977560Y-119750000D01*
X125021838Y-119985317D01*
X125027795Y-119994574D01*
X124157495Y-120864875D01*
X124114833Y-120864838D01*
X123771057Y-121006883D01*
X123507808Y-121269673D01*
X123365162Y-121613201D01*
X123364838Y-121985167D01*
X123506883Y-122328943D01*
X123769673Y-122592192D01*
X124113201Y-122734838D01*
X124485167Y-122735162D01*
X124828943Y-122593117D01*
X125092192Y-122330327D01*
X125234838Y-121986799D01*
X125234876Y-121942754D01*
X126638000Y-120539631D01*
X126638000Y-121489490D01*
X126632808Y-121494673D01*
X126490162Y-121838201D01*
X126489838Y-122210167D01*
X126631883Y-122553943D01*
X126894673Y-122817192D01*
X127238201Y-122959838D01*
X127610167Y-122960162D01*
X127953943Y-122818117D01*
X128217192Y-122555327D01*
X128359838Y-122211799D01*
X128360162Y-121839833D01*
X128218117Y-121496057D01*
X128162000Y-121439842D01*
X128162000Y-120385000D01*
X128339250Y-120385000D01*
X128498000Y-120226250D01*
X128498000Y-119127000D01*
X128752000Y-119127000D01*
X128752000Y-120226250D01*
X128910750Y-120385000D01*
X129251310Y-120385000D01*
X129484699Y-120288327D01*
X129663327Y-120109698D01*
X129760000Y-119876309D01*
X129760000Y-119285750D01*
X129601250Y-119127000D01*
X128752000Y-119127000D01*
X128498000Y-119127000D01*
X128478000Y-119127000D01*
X128478000Y-118873000D01*
X128498000Y-118873000D01*
X128498000Y-118853000D01*
X128752000Y-118853000D01*
X128752000Y-118873000D01*
X129601250Y-118873000D01*
X129760000Y-118714250D01*
X129760000Y-118185009D01*
X129915693Y-118185145D01*
X129902560Y-118250000D01*
X129902560Y-119750000D01*
X129946838Y-119985317D01*
X130085910Y-120201441D01*
X130298110Y-120346431D01*
X130550000Y-120397440D01*
X131550000Y-120397440D01*
X131734399Y-120362743D01*
X131446057Y-120481883D01*
X131182808Y-120744673D01*
X131040162Y-121088201D01*
X131039838Y-121460167D01*
X131181883Y-121803943D01*
X131444673Y-122067192D01*
X131788201Y-122209838D01*
X131832245Y-122209876D01*
X131836184Y-122213815D01*
X132010557Y-122330327D01*
X132083395Y-122378996D01*
X132375000Y-122437000D01*
X137814534Y-122437000D01*
X137844673Y-122467192D01*
X138188201Y-122609838D01*
X138560167Y-122610162D01*
X138903943Y-122468117D01*
X139167192Y-122205327D01*
X139309838Y-121861799D01*
X139310162Y-121489833D01*
X139168117Y-121146057D01*
X138905327Y-120882808D01*
X138561799Y-120740162D01*
X138189833Y-120739838D01*
X137846057Y-120881883D01*
X137814886Y-120913000D01*
X132837096Y-120913000D01*
X132768117Y-120746057D01*
X132505327Y-120482808D01*
X132299739Y-120397440D01*
X133250000Y-120397440D01*
X133485317Y-120353162D01*
X133701441Y-120214090D01*
X133846431Y-120001890D01*
X133897440Y-119750000D01*
X133897440Y-118250000D01*
X134952560Y-118250000D01*
X134952560Y-119750000D01*
X134996838Y-119985317D01*
X135135910Y-120201441D01*
X135348110Y-120346431D01*
X135600000Y-120397440D01*
X136600000Y-120397440D01*
X136835317Y-120353162D01*
X137051441Y-120214090D01*
X137196431Y-120001890D01*
X137204913Y-119960000D01*
X140860907Y-119960000D01*
X140973946Y-120528285D01*
X141295853Y-121010054D01*
X141337452Y-121037850D01*
X141289683Y-121046838D01*
X141073559Y-121185910D01*
X140928569Y-121398110D01*
X140877560Y-121650000D01*
X140877560Y-123350000D01*
X140921838Y-123585317D01*
X141060910Y-123801441D01*
X141273110Y-123946431D01*
X141525000Y-123997440D01*
X143225000Y-123997440D01*
X143460317Y-123953162D01*
X143676441Y-123814090D01*
X143821431Y-123601890D01*
X143872440Y-123350000D01*
X143872440Y-121650000D01*
X143828162Y-121414683D01*
X143689090Y-121198559D01*
X143476890Y-121053569D01*
X143409459Y-121039914D01*
X143454147Y-121010054D01*
X143776054Y-120528285D01*
X143889093Y-119960000D01*
X143776054Y-119391715D01*
X143454147Y-118909946D01*
X143113447Y-118682298D01*
X143256358Y-118615183D01*
X143646645Y-118186924D01*
X143816476Y-117776890D01*
X143695155Y-117547000D01*
X142502000Y-117547000D01*
X142502000Y-117567000D01*
X142248000Y-117567000D01*
X142248000Y-117547000D01*
X141054845Y-117547000D01*
X140933524Y-117776890D01*
X141103355Y-118186924D01*
X141493642Y-118615183D01*
X141636553Y-118682298D01*
X141295853Y-118909946D01*
X140973946Y-119391715D01*
X140860907Y-119960000D01*
X137204913Y-119960000D01*
X137247440Y-119750000D01*
X137247440Y-118250000D01*
X137203162Y-118014683D01*
X137064090Y-117798559D01*
X136862000Y-117660477D01*
X136862000Y-117063110D01*
X140933524Y-117063110D01*
X141054845Y-117293000D01*
X142248000Y-117293000D01*
X142248000Y-116099181D01*
X142502000Y-116099181D01*
X142502000Y-117293000D01*
X143695155Y-117293000D01*
X143816476Y-117063110D01*
X143646645Y-116653076D01*
X143256358Y-116224817D01*
X142731892Y-115978514D01*
X142502000Y-116099181D01*
X142248000Y-116099181D01*
X142018108Y-115978514D01*
X141493642Y-116224817D01*
X141103355Y-116653076D01*
X140933524Y-117063110D01*
X136862000Y-117063110D01*
X136862000Y-109185510D01*
X136867192Y-109180327D01*
X137009838Y-108836799D01*
X137010162Y-108464833D01*
X136868117Y-108121057D01*
X136605327Y-107857808D01*
X136261799Y-107715162D01*
X135889833Y-107714838D01*
X135546057Y-107856883D01*
X135282808Y-108119673D01*
X135140162Y-108463201D01*
X135139838Y-108835167D01*
X135281883Y-109178943D01*
X135338000Y-109235158D01*
X135338000Y-117664008D01*
X135148559Y-117785910D01*
X135003569Y-117998110D01*
X134952560Y-118250000D01*
X133897440Y-118250000D01*
X133853162Y-118014683D01*
X133714090Y-117798559D01*
X133512000Y-117660477D01*
X133512000Y-114600000D01*
X133453996Y-114308395D01*
X133288815Y-114061185D01*
X130338815Y-111111185D01*
X130208802Y-111024313D01*
X130091605Y-110946004D01*
X129800000Y-110888000D01*
X122195182Y-110888000D01*
X122153162Y-110664683D01*
X122014090Y-110448559D01*
X121801890Y-110303569D01*
X121550000Y-110252560D01*
X120250000Y-110252560D01*
X120014683Y-110296838D01*
X119798559Y-110435910D01*
X119696913Y-110584674D01*
X119606120Y-110493880D01*
X119075688Y-110139457D01*
X118479476Y-110020862D01*
X118478310Y-110014999D01*
X118410543Y-109674312D01*
X118251975Y-109436999D01*
X118056120Y-109143880D01*
X118056117Y-109143878D01*
X117151120Y-108238880D01*
X116620688Y-107884457D01*
X115995000Y-107759999D01*
X115994995Y-107760000D01*
X113900000Y-107760000D01*
X113274313Y-107884457D01*
X112969159Y-108088354D01*
X112833054Y-108115427D01*
X112383728Y-108415657D01*
X112083498Y-108864983D01*
X111978071Y-109395000D01*
X100710000Y-109395000D01*
X100710000Y-107183452D01*
X101589686Y-107183452D01*
X101864662Y-107848943D01*
X102373379Y-108358549D01*
X103038389Y-108634685D01*
X103758452Y-108635314D01*
X104423943Y-108360338D01*
X104933549Y-107851621D01*
X105209685Y-107186611D01*
X105210314Y-106466548D01*
X104935338Y-105801057D01*
X104426621Y-105291451D01*
X103761611Y-105015315D01*
X103041548Y-105014686D01*
X102376057Y-105289662D01*
X101866451Y-105798379D01*
X101590315Y-106463389D01*
X101589686Y-107183452D01*
X100710000Y-107183452D01*
X100710000Y-99575000D01*
X100827560Y-99575000D01*
X100827560Y-100925000D01*
X100871838Y-101160317D01*
X101010910Y-101376441D01*
X101223110Y-101521431D01*
X101475000Y-101572440D01*
X102825000Y-101572440D01*
X103060317Y-101528162D01*
X103276441Y-101389090D01*
X103421431Y-101176890D01*
X103472440Y-100925000D01*
X103472440Y-99575000D01*
X103428162Y-99339683D01*
X103335000Y-99194905D01*
X103335000Y-98270132D01*
X105077566Y-96527566D01*
X105154919Y-96411799D01*
X105323603Y-96159346D01*
X105410000Y-95725000D01*
X105410000Y-91545132D01*
X108070132Y-88885000D01*
X108471614Y-88885000D01*
X108598110Y-88971431D01*
X108850000Y-89022440D01*
X110350000Y-89022440D01*
X110585317Y-88978162D01*
X110801441Y-88839090D01*
X110849134Y-88769289D01*
X110885910Y-88826441D01*
X111098110Y-88971431D01*
X111350000Y-89022440D01*
X111767308Y-89022440D01*
X113215000Y-90470133D01*
X113215000Y-90997796D01*
X112964722Y-91247637D01*
X112715284Y-91848352D01*
X112714973Y-92204895D01*
X105942308Y-98977560D01*
X105300000Y-98977560D01*
X105064683Y-99021838D01*
X104848559Y-99160910D01*
X104703569Y-99373110D01*
X104652560Y-99625000D01*
X104652560Y-100975000D01*
X104696838Y-101210317D01*
X104835910Y-101426441D01*
X105048110Y-101571431D01*
X105300000Y-101622440D01*
X106650000Y-101622440D01*
X106885317Y-101578162D01*
X107101441Y-101439090D01*
X107246431Y-101226890D01*
X107297440Y-100975000D01*
X107297440Y-100832692D01*
X108552560Y-99577572D01*
X108552560Y-101600000D01*
X108596838Y-101835317D01*
X108735910Y-102051441D01*
X108948110Y-102196431D01*
X109200000Y-102247440D01*
X111200000Y-102247440D01*
X111435317Y-102203162D01*
X111651441Y-102064090D01*
X111765349Y-101897380D01*
X112231645Y-102159144D01*
X112359566Y-102190124D01*
X112613000Y-102070777D01*
X112613000Y-100427000D01*
X112867000Y-100427000D01*
X112867000Y-102070777D01*
X113120434Y-102190124D01*
X113248355Y-102159144D01*
X113806317Y-101845922D01*
X114201942Y-101343020D01*
X114375000Y-100727000D01*
X114375000Y-100427000D01*
X112867000Y-100427000D01*
X112613000Y-100427000D01*
X112593000Y-100427000D01*
X112593000Y-100173000D01*
X112613000Y-100173000D01*
X112613000Y-98529223D01*
X112867000Y-98529223D01*
X112867000Y-100173000D01*
X114375000Y-100173000D01*
X114375000Y-99873000D01*
X114201942Y-99256980D01*
X113806317Y-98754078D01*
X113248355Y-98440856D01*
X113120434Y-98409876D01*
X112867000Y-98529223D01*
X112613000Y-98529223D01*
X112359566Y-98409876D01*
X112231645Y-98440856D01*
X111763789Y-98703495D01*
X111664090Y-98548559D01*
X111451890Y-98403569D01*
X111200000Y-98352560D01*
X109777572Y-98352560D01*
X114320157Y-93809975D01*
X114673795Y-93810284D01*
X115274943Y-93561894D01*
X115587382Y-93250000D01*
X119602560Y-93250000D01*
X119602560Y-94550000D01*
X119646838Y-94785317D01*
X119785910Y-95001441D01*
X119998110Y-95146431D01*
X120238000Y-95195010D01*
X120238000Y-97704818D01*
X120014683Y-97746838D01*
X119798559Y-97885910D01*
X119653569Y-98098110D01*
X119602560Y-98350000D01*
X119602560Y-99850000D01*
X119646838Y-100085317D01*
X119785910Y-100301441D01*
X119998110Y-100446431D01*
X120250000Y-100497440D01*
X121750000Y-100497440D01*
X121985317Y-100453162D01*
X122201441Y-100314090D01*
X122346431Y-100101890D01*
X122386355Y-99904738D01*
X122754436Y-100273461D01*
X123263298Y-100484759D01*
X123814285Y-100485240D01*
X124323515Y-100274831D01*
X124713461Y-99885564D01*
X124809976Y-99653130D01*
X124905169Y-99883515D01*
X125294436Y-100273461D01*
X125803298Y-100484759D01*
X126354285Y-100485240D01*
X126863515Y-100274831D01*
X127253461Y-99885564D01*
X127349976Y-99653130D01*
X127445169Y-99883515D01*
X127834436Y-100273461D01*
X128343298Y-100484759D01*
X128894285Y-100485240D01*
X129403515Y-100274831D01*
X129793461Y-99885564D01*
X129889976Y-99653130D01*
X129985169Y-99883515D01*
X130374436Y-100273461D01*
X130883298Y-100484759D01*
X131434285Y-100485240D01*
X131943515Y-100274831D01*
X132286828Y-99932116D01*
X132296838Y-99985317D01*
X132435910Y-100201441D01*
X132648110Y-100346431D01*
X132900000Y-100397440D01*
X134400000Y-100397440D01*
X134635317Y-100353162D01*
X134851441Y-100214090D01*
X134996431Y-100001890D01*
X134999081Y-99988803D01*
X135135910Y-100201441D01*
X135348110Y-100346431D01*
X135600000Y-100397440D01*
X137100000Y-100397440D01*
X137335317Y-100353162D01*
X137551441Y-100214090D01*
X137696431Y-100001890D01*
X137724759Y-99862000D01*
X137800000Y-99862000D01*
X138091605Y-99803996D01*
X138232139Y-99710094D01*
X138310167Y-99710162D01*
X138653943Y-99568117D01*
X138917192Y-99305327D01*
X139059838Y-98961799D01*
X139060162Y-98589833D01*
X138918117Y-98246057D01*
X138655327Y-97982808D01*
X138311799Y-97840162D01*
X137939833Y-97839838D01*
X137596057Y-97981883D01*
X137570059Y-98007835D01*
X137564090Y-97998559D01*
X137351890Y-97853569D01*
X137100000Y-97802560D01*
X135600000Y-97802560D01*
X135364683Y-97846838D01*
X135148559Y-97985910D01*
X135003569Y-98198110D01*
X135000919Y-98211197D01*
X134864090Y-97998559D01*
X134651890Y-97853569D01*
X134400000Y-97802560D01*
X132900000Y-97802560D01*
X132664683Y-97846838D01*
X132448559Y-97985910D01*
X132303569Y-98198110D01*
X132288912Y-98270486D01*
X131945564Y-97926539D01*
X131436702Y-97715241D01*
X130885715Y-97714760D01*
X130376485Y-97925169D01*
X129986539Y-98314436D01*
X129890024Y-98546870D01*
X129794831Y-98316485D01*
X129405564Y-97926539D01*
X128896702Y-97715241D01*
X128345715Y-97714760D01*
X127836485Y-97925169D01*
X127446539Y-98314436D01*
X127350024Y-98546870D01*
X127254831Y-98316485D01*
X126865564Y-97926539D01*
X126842000Y-97916754D01*
X126842000Y-97497440D01*
X126850000Y-97497440D01*
X127085317Y-97453162D01*
X127301441Y-97314090D01*
X127446431Y-97101890D01*
X127449081Y-97088803D01*
X127585910Y-97301441D01*
X127798110Y-97446431D01*
X128050000Y-97497440D01*
X129550000Y-97497440D01*
X129785317Y-97453162D01*
X130001441Y-97314090D01*
X130146431Y-97101890D01*
X130160177Y-97034011D01*
X130463201Y-97159838D01*
X130835167Y-97160162D01*
X131178943Y-97018117D01*
X131442192Y-96755327D01*
X131584838Y-96411799D01*
X131585162Y-96039833D01*
X131443117Y-95696057D01*
X131180327Y-95432808D01*
X130836799Y-95290162D01*
X130464833Y-95289838D01*
X130171308Y-95411120D01*
X130153162Y-95314683D01*
X130014090Y-95098559D01*
X129801890Y-94953569D01*
X129550000Y-94902560D01*
X128050000Y-94902560D01*
X127814683Y-94946838D01*
X127598559Y-95085910D01*
X127453569Y-95298110D01*
X127450919Y-95311197D01*
X127314090Y-95098559D01*
X127101890Y-94953569D01*
X126850000Y-94902560D01*
X125350000Y-94902560D01*
X125114683Y-94946838D01*
X124898559Y-95085910D01*
X124753569Y-95298110D01*
X124702560Y-95550000D01*
X124702560Y-96850000D01*
X124746838Y-97085317D01*
X124885910Y-97301441D01*
X125098110Y-97446431D01*
X125318000Y-97490960D01*
X125318000Y-97916279D01*
X125296485Y-97925169D01*
X124906539Y-98314436D01*
X124810024Y-98546870D01*
X124714831Y-98316485D01*
X124325564Y-97926539D01*
X123816702Y-97715241D01*
X123265715Y-97714760D01*
X122756485Y-97925169D01*
X122386920Y-98294091D01*
X122353162Y-98114683D01*
X122214090Y-97898559D01*
X122001890Y-97753569D01*
X121762000Y-97704990D01*
X121762000Y-95195182D01*
X121985317Y-95153162D01*
X122201441Y-95014090D01*
X122346431Y-94801890D01*
X122349081Y-94788803D01*
X122485910Y-95001441D01*
X122698110Y-95146431D01*
X122950000Y-95197440D01*
X124450000Y-95197440D01*
X124685317Y-95153162D01*
X124901441Y-95014090D01*
X125046431Y-94801890D01*
X125062908Y-94720526D01*
X125338201Y-94834838D01*
X125710167Y-94835162D01*
X126053943Y-94693117D01*
X126317192Y-94430327D01*
X126459838Y-94086799D01*
X126460162Y-93714833D01*
X126318117Y-93371057D01*
X126055327Y-93107808D01*
X125711799Y-92965162D01*
X125339833Y-92964838D01*
X125065140Y-93078339D01*
X125053162Y-93014683D01*
X124914090Y-92798559D01*
X124701890Y-92653569D01*
X124450000Y-92602560D01*
X122950000Y-92602560D01*
X122714683Y-92646838D01*
X122498559Y-92785910D01*
X122353569Y-92998110D01*
X122350919Y-93011197D01*
X122214090Y-92798559D01*
X122001890Y-92653569D01*
X121750000Y-92602560D01*
X120250000Y-92602560D01*
X120014683Y-92646838D01*
X119798559Y-92785910D01*
X119653569Y-92998110D01*
X119602560Y-93250000D01*
X115587382Y-93250000D01*
X115735278Y-93102363D01*
X115984716Y-92501648D01*
X115985284Y-91851205D01*
X115736894Y-91250057D01*
X115485000Y-90997722D01*
X115485000Y-90000000D01*
X115473065Y-89940000D01*
X115398604Y-89565655D01*
X115163827Y-89214285D01*
X119614760Y-89214285D01*
X119825169Y-89723515D01*
X120214436Y-90113461D01*
X120723298Y-90324759D01*
X121274285Y-90325240D01*
X121783515Y-90114831D01*
X122173461Y-89725564D01*
X122269976Y-89493130D01*
X122365169Y-89723515D01*
X122754436Y-90113461D01*
X123263298Y-90324759D01*
X123814285Y-90325240D01*
X124323515Y-90114831D01*
X124713461Y-89725564D01*
X124809976Y-89493130D01*
X124905169Y-89723515D01*
X125252041Y-90070992D01*
X125114683Y-90096838D01*
X124898559Y-90235910D01*
X124753569Y-90448110D01*
X124702560Y-90700000D01*
X124702560Y-92000000D01*
X124746838Y-92235317D01*
X124885910Y-92451441D01*
X125098110Y-92596431D01*
X125350000Y-92647440D01*
X126850000Y-92647440D01*
X127085317Y-92603162D01*
X127301441Y-92464090D01*
X127446431Y-92251890D01*
X127449081Y-92238803D01*
X127585910Y-92451441D01*
X127798110Y-92596431D01*
X128050000Y-92647440D01*
X129550000Y-92647440D01*
X129785317Y-92603162D01*
X130001441Y-92464090D01*
X130146431Y-92251890D01*
X130174759Y-92112000D01*
X130189534Y-92112000D01*
X130219673Y-92142192D01*
X130563201Y-92284838D01*
X130935167Y-92285162D01*
X131278943Y-92143117D01*
X131542192Y-91880327D01*
X131684838Y-91536799D01*
X131685162Y-91164833D01*
X131543117Y-90821057D01*
X131280327Y-90557808D01*
X130936799Y-90415162D01*
X130564833Y-90414838D01*
X130221057Y-90556883D01*
X130189886Y-90588000D01*
X130176366Y-90588000D01*
X130153162Y-90464683D01*
X130014090Y-90248559D01*
X129801890Y-90103569D01*
X129550000Y-90052560D01*
X129465895Y-90052560D01*
X129793461Y-89725564D01*
X129889976Y-89493130D01*
X129985169Y-89723515D01*
X130374436Y-90113461D01*
X130883298Y-90324759D01*
X131434285Y-90325240D01*
X131943515Y-90114831D01*
X132293164Y-89765791D01*
X132296838Y-89785317D01*
X132435910Y-90001441D01*
X132648110Y-90146431D01*
X132900000Y-90197440D01*
X134400000Y-90197440D01*
X134635317Y-90153162D01*
X134851441Y-90014090D01*
X134996431Y-89801890D01*
X134999081Y-89788803D01*
X135135910Y-90001441D01*
X135348110Y-90146431D01*
X135600000Y-90197440D01*
X135622301Y-90197440D01*
X135646004Y-90316605D01*
X135733873Y-90448110D01*
X135811185Y-90563815D01*
X135939875Y-90692505D01*
X135939838Y-90735167D01*
X136081883Y-91078943D01*
X136344673Y-91342192D01*
X136688201Y-91484838D01*
X137060167Y-91485162D01*
X137403943Y-91343117D01*
X137667192Y-91080327D01*
X137809838Y-90736799D01*
X137810162Y-90364833D01*
X137668117Y-90021057D01*
X137596025Y-89948839D01*
X137696431Y-89801890D01*
X137747440Y-89550000D01*
X137747440Y-88250000D01*
X137703162Y-88014683D01*
X137564090Y-87798559D01*
X137351890Y-87653569D01*
X137100000Y-87602560D01*
X135600000Y-87602560D01*
X135364683Y-87646838D01*
X135148559Y-87785910D01*
X135003569Y-87998110D01*
X135000919Y-88011197D01*
X134864090Y-87798559D01*
X134651890Y-87653569D01*
X134400000Y-87602560D01*
X132900000Y-87602560D01*
X132664683Y-87646838D01*
X132448559Y-87785910D01*
X132303569Y-87998110D01*
X132282178Y-88103740D01*
X131945564Y-87766539D01*
X131436702Y-87555241D01*
X130885715Y-87554760D01*
X130376485Y-87765169D01*
X129986539Y-88154436D01*
X129890024Y-88386870D01*
X129794831Y-88156485D01*
X129405564Y-87766539D01*
X128896702Y-87555241D01*
X128345715Y-87554760D01*
X127836485Y-87765169D01*
X127446539Y-88154436D01*
X127350024Y-88386870D01*
X127254831Y-88156485D01*
X126865564Y-87766539D01*
X126356702Y-87555241D01*
X125805715Y-87554760D01*
X125296485Y-87765169D01*
X124906539Y-88154436D01*
X124810024Y-88386870D01*
X124714831Y-88156485D01*
X124325564Y-87766539D01*
X123816702Y-87555241D01*
X123265715Y-87554760D01*
X122756485Y-87765169D01*
X122366539Y-88154436D01*
X122270024Y-88386870D01*
X122174831Y-88156485D01*
X121785564Y-87766539D01*
X121276702Y-87555241D01*
X120725715Y-87554760D01*
X120216485Y-87765169D01*
X119826539Y-88154436D01*
X119615241Y-88663298D01*
X119614760Y-89214285D01*
X115163827Y-89214285D01*
X115152567Y-89197434D01*
X113497440Y-87542308D01*
X113497440Y-87125000D01*
X113453162Y-86889683D01*
X113314090Y-86673559D01*
X113235000Y-86619519D01*
X113235000Y-84800000D01*
X137477560Y-84800000D01*
X137477560Y-86150000D01*
X137521838Y-86385317D01*
X137660910Y-86601441D01*
X137873110Y-86746431D01*
X138125000Y-86797440D01*
X139475000Y-86797440D01*
X139710317Y-86753162D01*
X139926441Y-86614090D01*
X140071431Y-86401890D01*
X140122440Y-86150000D01*
X140122440Y-85735750D01*
X141315000Y-85735750D01*
X141315000Y-86251310D01*
X141411673Y-86484699D01*
X141590302Y-86663327D01*
X141823691Y-86760000D01*
X142339250Y-86760000D01*
X142498000Y-86601250D01*
X142498000Y-85577000D01*
X142752000Y-85577000D01*
X142752000Y-86601250D01*
X142910750Y-86760000D01*
X143426309Y-86760000D01*
X143659698Y-86663327D01*
X143838327Y-86484699D01*
X143935000Y-86251310D01*
X143935000Y-85735750D01*
X143776250Y-85577000D01*
X142752000Y-85577000D01*
X142498000Y-85577000D01*
X141473750Y-85577000D01*
X141315000Y-85735750D01*
X140122440Y-85735750D01*
X140122440Y-84800000D01*
X140093970Y-84648690D01*
X141315000Y-84648690D01*
X141315000Y-85164250D01*
X141473750Y-85323000D01*
X142498000Y-85323000D01*
X142498000Y-84298750D01*
X142752000Y-84298750D01*
X142752000Y-85323000D01*
X143776250Y-85323000D01*
X143935000Y-85164250D01*
X143935000Y-84648690D01*
X143838327Y-84415301D01*
X143659698Y-84236673D01*
X143426309Y-84140000D01*
X142910750Y-84140000D01*
X142752000Y-84298750D01*
X142498000Y-84298750D01*
X142339250Y-84140000D01*
X141823691Y-84140000D01*
X141590302Y-84236673D01*
X141411673Y-84415301D01*
X141315000Y-84648690D01*
X140093970Y-84648690D01*
X140078162Y-84564683D01*
X139939090Y-84348559D01*
X139726890Y-84203569D01*
X139475000Y-84152560D01*
X138125000Y-84152560D01*
X137889683Y-84196838D01*
X137673559Y-84335910D01*
X137528569Y-84548110D01*
X137477560Y-84800000D01*
X113235000Y-84800000D01*
X113235000Y-84295132D01*
X113620157Y-83909975D01*
X113973795Y-83910284D01*
X114574943Y-83661894D01*
X115035278Y-83202363D01*
X115284716Y-82601648D01*
X115285284Y-81951205D01*
X115036894Y-81350057D01*
X114577363Y-80889722D01*
X113976648Y-80640284D01*
X113326205Y-80639716D01*
X112725057Y-80888106D01*
X112264722Y-81347637D01*
X112015284Y-81948352D01*
X112014973Y-82304895D01*
X111297434Y-83022434D01*
X111051397Y-83390654D01*
X110978108Y-83759100D01*
X110485959Y-83266091D01*
X109701541Y-82940372D01*
X108852185Y-82939630D01*
X108067200Y-83263980D01*
X107466091Y-83864041D01*
X107140372Y-84648459D01*
X107139630Y-85497815D01*
X107463980Y-86282800D01*
X107795601Y-86615000D01*
X107600000Y-86615000D01*
X107165654Y-86701397D01*
X106797434Y-86947434D01*
X103472434Y-90272434D01*
X103226397Y-90640654D01*
X103140000Y-91075000D01*
X103140000Y-95254868D01*
X101397434Y-96997434D01*
X101151397Y-97365654D01*
X101065000Y-97800000D01*
X101065000Y-99084243D01*
X101023559Y-99110910D01*
X100878569Y-99323110D01*
X100827560Y-99575000D01*
X100710000Y-99575000D01*
X100710000Y-82080089D01*
X100746950Y-82169515D01*
X101824811Y-83249259D01*
X103233825Y-83834333D01*
X104759482Y-83835664D01*
X106169515Y-83253050D01*
X107249259Y-82175189D01*
X107834333Y-80766175D01*
X107834723Y-80318957D01*
X107948110Y-80396431D01*
X108200000Y-80447440D01*
X110200000Y-80447440D01*
X110435317Y-80403162D01*
X110651441Y-80264090D01*
X110756951Y-80109671D01*
X111114313Y-80348452D01*
X111740000Y-80472909D01*
X112365687Y-80348452D01*
X112833679Y-80035750D01*
X116140000Y-80035750D01*
X116140000Y-80626309D01*
X116236673Y-80859698D01*
X116415301Y-81038327D01*
X116648690Y-81135000D01*
X117114250Y-81135000D01*
X117273000Y-80976250D01*
X117273000Y-79877000D01*
X117527000Y-79877000D01*
X117527000Y-80976250D01*
X117685750Y-81135000D01*
X118151310Y-81135000D01*
X118384699Y-81038327D01*
X118563327Y-80859698D01*
X118660000Y-80626309D01*
X118660000Y-80135750D01*
X126440000Y-80135750D01*
X126440000Y-80726309D01*
X126536673Y-80959698D01*
X126715301Y-81138327D01*
X126948690Y-81235000D01*
X127414250Y-81235000D01*
X127573000Y-81076250D01*
X127573000Y-79977000D01*
X127827000Y-79977000D01*
X127827000Y-81076250D01*
X127985750Y-81235000D01*
X128451310Y-81235000D01*
X128684699Y-81138327D01*
X128863327Y-80959698D01*
X128960000Y-80726309D01*
X128960000Y-80135750D01*
X128801250Y-79977000D01*
X127827000Y-79977000D01*
X127573000Y-79977000D01*
X126598750Y-79977000D01*
X126440000Y-80135750D01*
X118660000Y-80135750D01*
X118660000Y-80035750D01*
X118501250Y-79877000D01*
X117527000Y-79877000D01*
X117273000Y-79877000D01*
X116298750Y-79877000D01*
X116140000Y-80035750D01*
X112833679Y-80035750D01*
X112896120Y-79994029D01*
X113250543Y-79463596D01*
X113375000Y-78837909D01*
X113375000Y-78162091D01*
X113250543Y-77536404D01*
X112896120Y-77005971D01*
X112365687Y-76651548D01*
X111740000Y-76527091D01*
X111114313Y-76651548D01*
X110755808Y-76891093D01*
X110664090Y-76748559D01*
X110451890Y-76603569D01*
X110200000Y-76552560D01*
X108200000Y-76552560D01*
X107964683Y-76596838D01*
X107748559Y-76735910D01*
X107603569Y-76948110D01*
X107552560Y-77200000D01*
X107552560Y-78555354D01*
X107253050Y-77830485D01*
X106175189Y-76750741D01*
X104766175Y-76165667D01*
X103240518Y-76164336D01*
X101830485Y-76746950D01*
X100750741Y-77824811D01*
X100710000Y-77922926D01*
X100710000Y-76027479D01*
X114259141Y-76058343D01*
M02*
