G04 #@! TF.FileFunction,Legend,Top*
%FSLAX46Y46*%
G04 Gerber Fmt 4.6, Leading zero omitted, Abs format (unit mm)*
G04 Created by KiCad (PCBNEW 4.0.6) date Tuesday, January 23, 2018 'AMt' 08:12:52 AM*
%MOMM*%
%LPD*%
G01*
G04 APERTURE LIST*
%ADD10C,0.100000*%
%ADD11C,0.150000*%
%ADD12C,0.120000*%
%ADD13C,0.010000*%
G04 APERTURE END LIST*
D10*
D11*
X135179762Y-123041667D02*
X135655953Y-123041667D01*
X135084524Y-123327381D02*
X135417857Y-122327381D01*
X135751191Y-123327381D01*
X136084524Y-123327381D02*
X136084524Y-122660714D01*
X136084524Y-122851190D02*
X136132143Y-122755952D01*
X136179762Y-122708333D01*
X136275000Y-122660714D01*
X136370239Y-122660714D01*
X137132144Y-123327381D02*
X137132144Y-122327381D01*
X137132144Y-123279762D02*
X137036906Y-123327381D01*
X136846429Y-123327381D01*
X136751191Y-123279762D01*
X136703572Y-123232143D01*
X136655953Y-123136905D01*
X136655953Y-122851190D01*
X136703572Y-122755952D01*
X136751191Y-122708333D01*
X136846429Y-122660714D01*
X137036906Y-122660714D01*
X137132144Y-122708333D01*
X138036906Y-122660714D02*
X138036906Y-123327381D01*
X137608334Y-122660714D02*
X137608334Y-123184524D01*
X137655953Y-123279762D01*
X137751191Y-123327381D01*
X137894049Y-123327381D01*
X137989287Y-123279762D01*
X138036906Y-123232143D01*
X138513096Y-123327381D02*
X138513096Y-122660714D01*
X138513096Y-122327381D02*
X138465477Y-122375000D01*
X138513096Y-122422619D01*
X138560715Y-122375000D01*
X138513096Y-122327381D01*
X138513096Y-122422619D01*
X138989286Y-122660714D02*
X138989286Y-123327381D01*
X138989286Y-122755952D02*
X139036905Y-122708333D01*
X139132143Y-122660714D01*
X139275001Y-122660714D01*
X139370239Y-122708333D01*
X139417858Y-122803571D01*
X139417858Y-123327381D01*
X140036905Y-123327381D02*
X139941667Y-123279762D01*
X139894048Y-123232143D01*
X139846429Y-123136905D01*
X139846429Y-122851190D01*
X139894048Y-122755952D01*
X139941667Y-122708333D01*
X140036905Y-122660714D01*
X140179763Y-122660714D01*
X140275001Y-122708333D01*
X140322620Y-122755952D01*
X140370239Y-122851190D01*
X140370239Y-123136905D01*
X140322620Y-123232143D01*
X140275001Y-123279762D01*
X140179763Y-123327381D01*
X140036905Y-123327381D01*
X101666667Y-102021429D02*
X102428572Y-102021429D01*
X102047620Y-102402381D02*
X102047620Y-101640476D01*
X103428572Y-102402381D02*
X102857143Y-102402381D01*
X103142857Y-102402381D02*
X103142857Y-101402381D01*
X103047619Y-101545238D01*
X102952381Y-101640476D01*
X102857143Y-101688095D01*
X104333334Y-101402381D02*
X103857143Y-101402381D01*
X103809524Y-101878571D01*
X103857143Y-101830952D01*
X103952381Y-101783333D01*
X104190477Y-101783333D01*
X104285715Y-101830952D01*
X104333334Y-101878571D01*
X104380953Y-101973810D01*
X104380953Y-102211905D01*
X104333334Y-102307143D01*
X104285715Y-102354762D01*
X104190477Y-102402381D01*
X103952381Y-102402381D01*
X103857143Y-102354762D01*
X103809524Y-102307143D01*
X104714286Y-101735714D02*
X104952381Y-102402381D01*
X105190477Y-101735714D01*
X105571429Y-102021429D02*
X106333334Y-102021429D01*
X138657143Y-87077381D02*
X138180952Y-87077381D01*
X138133333Y-87553571D01*
X138180952Y-87505952D01*
X138276190Y-87458333D01*
X138514286Y-87458333D01*
X138609524Y-87505952D01*
X138657143Y-87553571D01*
X138704762Y-87648810D01*
X138704762Y-87886905D01*
X138657143Y-87982143D01*
X138609524Y-88029762D01*
X138514286Y-88077381D01*
X138276190Y-88077381D01*
X138180952Y-88029762D01*
X138133333Y-87982143D01*
X139038095Y-87410714D02*
X139276190Y-88077381D01*
X139514286Y-87410714D01*
X142121428Y-87052381D02*
X142216667Y-87052381D01*
X142311905Y-87100000D01*
X142359524Y-87147619D01*
X142407143Y-87242857D01*
X142454762Y-87433333D01*
X142454762Y-87671429D01*
X142407143Y-87861905D01*
X142359524Y-87957143D01*
X142311905Y-88004762D01*
X142216667Y-88052381D01*
X142121428Y-88052381D01*
X142026190Y-88004762D01*
X141978571Y-87957143D01*
X141930952Y-87861905D01*
X141883333Y-87671429D01*
X141883333Y-87433333D01*
X141930952Y-87242857D01*
X141978571Y-87147619D01*
X142026190Y-87100000D01*
X142121428Y-87052381D01*
X142788095Y-87385714D02*
X143026190Y-88052381D01*
X143264286Y-87385714D01*
X114409524Y-106752381D02*
X115028572Y-106752381D01*
X114695238Y-107133333D01*
X114838096Y-107133333D01*
X114933334Y-107180952D01*
X114980953Y-107228571D01*
X115028572Y-107323810D01*
X115028572Y-107561905D01*
X114980953Y-107657143D01*
X114933334Y-107704762D01*
X114838096Y-107752381D01*
X114552381Y-107752381D01*
X114457143Y-107704762D01*
X114409524Y-107657143D01*
X115361905Y-107085714D02*
X115600000Y-107752381D01*
X115838096Y-107085714D01*
X116123810Y-106752381D02*
X116742858Y-106752381D01*
X116409524Y-107133333D01*
X116552382Y-107133333D01*
X116647620Y-107180952D01*
X116695239Y-107228571D01*
X116742858Y-107323810D01*
X116742858Y-107561905D01*
X116695239Y-107657143D01*
X116647620Y-107704762D01*
X116552382Y-107752381D01*
X116266667Y-107752381D01*
X116171429Y-107704762D01*
X116123810Y-107657143D01*
X117427381Y-80642857D02*
X117427381Y-81119048D01*
X117903571Y-81166667D01*
X117855952Y-81119048D01*
X117808333Y-81023810D01*
X117808333Y-80785714D01*
X117855952Y-80690476D01*
X117903571Y-80642857D01*
X117998810Y-80595238D01*
X118236905Y-80595238D01*
X118332143Y-80642857D01*
X118379762Y-80690476D01*
X118427381Y-80785714D01*
X118427381Y-81023810D01*
X118379762Y-81119048D01*
X118332143Y-81166667D01*
X117760714Y-80261905D02*
X118427381Y-80023810D01*
X117760714Y-79785714D01*
X107278572Y-90502381D02*
X106707143Y-90502381D01*
X106992857Y-90502381D02*
X106992857Y-89502381D01*
X106897619Y-89645238D01*
X106802381Y-89740476D01*
X106707143Y-89788095D01*
X108183334Y-89502381D02*
X107707143Y-89502381D01*
X107659524Y-89978571D01*
X107707143Y-89930952D01*
X107802381Y-89883333D01*
X108040477Y-89883333D01*
X108135715Y-89930952D01*
X108183334Y-89978571D01*
X108230953Y-90073810D01*
X108230953Y-90311905D01*
X108183334Y-90407143D01*
X108135715Y-90454762D01*
X108040477Y-90502381D01*
X107802381Y-90502381D01*
X107707143Y-90454762D01*
X107659524Y-90407143D01*
X108564286Y-89835714D02*
X108802381Y-90502381D01*
X109040477Y-89835714D01*
X109216667Y-104621429D02*
X109978572Y-104621429D01*
X109597620Y-105002381D02*
X109597620Y-104240476D01*
X110978572Y-105002381D02*
X110407143Y-105002381D01*
X110692857Y-105002381D02*
X110692857Y-104002381D01*
X110597619Y-104145238D01*
X110502381Y-104240476D01*
X110407143Y-104288095D01*
X111359524Y-104097619D02*
X111407143Y-104050000D01*
X111502381Y-104002381D01*
X111740477Y-104002381D01*
X111835715Y-104050000D01*
X111883334Y-104097619D01*
X111930953Y-104192857D01*
X111930953Y-104288095D01*
X111883334Y-104430952D01*
X111311905Y-105002381D01*
X111930953Y-105002381D01*
X112264286Y-104335714D02*
X112502381Y-105002381D01*
X112740477Y-104335714D01*
X113121429Y-104621429D02*
X113883334Y-104621429D01*
X127021429Y-137452381D02*
X126688095Y-136976190D01*
X126450000Y-137452381D02*
X126450000Y-136452381D01*
X126830953Y-136452381D01*
X126926191Y-136500000D01*
X126973810Y-136547619D01*
X127021429Y-136642857D01*
X127021429Y-136785714D01*
X126973810Y-136880952D01*
X126926191Y-136928571D01*
X126830953Y-136976190D01*
X126450000Y-136976190D01*
X127926191Y-137452381D02*
X127450000Y-137452381D01*
X127450000Y-136452381D01*
X128830953Y-137357143D02*
X128783334Y-137404762D01*
X128640477Y-137452381D01*
X128545239Y-137452381D01*
X128402381Y-137404762D01*
X128307143Y-137309524D01*
X128259524Y-137214286D01*
X128211905Y-137023810D01*
X128211905Y-136880952D01*
X128259524Y-136690476D01*
X128307143Y-136595238D01*
X128402381Y-136500000D01*
X128545239Y-136452381D01*
X128640477Y-136452381D01*
X128783334Y-136500000D01*
X128830953Y-136547619D01*
X129211905Y-137404762D02*
X129354762Y-137452381D01*
X129592858Y-137452381D01*
X129688096Y-137404762D01*
X129735715Y-137357143D01*
X129783334Y-137261905D01*
X129783334Y-137166667D01*
X129735715Y-137071429D01*
X129688096Y-137023810D01*
X129592858Y-136976190D01*
X129402381Y-136928571D01*
X129307143Y-136880952D01*
X129259524Y-136833333D01*
X129211905Y-136738095D01*
X129211905Y-136642857D01*
X129259524Y-136547619D01*
X129307143Y-136500000D01*
X129402381Y-136452381D01*
X129640477Y-136452381D01*
X129783334Y-136500000D01*
X130116667Y-136785714D02*
X130354762Y-137452381D01*
X130592858Y-136785714D01*
X130926191Y-136547619D02*
X130973810Y-136500000D01*
X131069048Y-136452381D01*
X131307144Y-136452381D01*
X131402382Y-136500000D01*
X131450001Y-136547619D01*
X131497620Y-136642857D01*
X131497620Y-136738095D01*
X131450001Y-136880952D01*
X130878572Y-137452381D01*
X131497620Y-137452381D01*
X123259523Y-139102381D02*
X123259523Y-138102381D01*
X123640476Y-138102381D01*
X123735714Y-138150000D01*
X123783333Y-138197619D01*
X123830952Y-138292857D01*
X123830952Y-138435714D01*
X123783333Y-138530952D01*
X123735714Y-138578571D01*
X123640476Y-138626190D01*
X123259523Y-138626190D01*
X124402380Y-139102381D02*
X124307142Y-139054762D01*
X124259523Y-139007143D01*
X124211904Y-138911905D01*
X124211904Y-138626190D01*
X124259523Y-138530952D01*
X124307142Y-138483333D01*
X124402380Y-138435714D01*
X124545238Y-138435714D01*
X124640476Y-138483333D01*
X124688095Y-138530952D01*
X124735714Y-138626190D01*
X124735714Y-138911905D01*
X124688095Y-139007143D01*
X124640476Y-139054762D01*
X124545238Y-139102381D01*
X124402380Y-139102381D01*
X125069047Y-138435714D02*
X125259523Y-139102381D01*
X125450000Y-138626190D01*
X125640476Y-139102381D01*
X125830952Y-138435714D01*
X126592857Y-139054762D02*
X126497619Y-139102381D01*
X126307142Y-139102381D01*
X126211904Y-139054762D01*
X126164285Y-138959524D01*
X126164285Y-138578571D01*
X126211904Y-138483333D01*
X126307142Y-138435714D01*
X126497619Y-138435714D01*
X126592857Y-138483333D01*
X126640476Y-138578571D01*
X126640476Y-138673810D01*
X126164285Y-138769048D01*
X127069047Y-139102381D02*
X127069047Y-138435714D01*
X127069047Y-138626190D02*
X127116666Y-138530952D01*
X127164285Y-138483333D01*
X127259523Y-138435714D01*
X127354762Y-138435714D01*
X128783334Y-138578571D02*
X128926191Y-138626190D01*
X128973810Y-138673810D01*
X129021429Y-138769048D01*
X129021429Y-138911905D01*
X128973810Y-139007143D01*
X128926191Y-139054762D01*
X128830953Y-139102381D01*
X128450000Y-139102381D01*
X128450000Y-138102381D01*
X128783334Y-138102381D01*
X128878572Y-138150000D01*
X128926191Y-138197619D01*
X128973810Y-138292857D01*
X128973810Y-138388095D01*
X128926191Y-138483333D01*
X128878572Y-138530952D01*
X128783334Y-138578571D01*
X128450000Y-138578571D01*
X129592857Y-139102381D02*
X129497619Y-139054762D01*
X129450000Y-139007143D01*
X129402381Y-138911905D01*
X129402381Y-138626190D01*
X129450000Y-138530952D01*
X129497619Y-138483333D01*
X129592857Y-138435714D01*
X129735715Y-138435714D01*
X129830953Y-138483333D01*
X129878572Y-138530952D01*
X129926191Y-138626190D01*
X129926191Y-138911905D01*
X129878572Y-139007143D01*
X129830953Y-139054762D01*
X129735715Y-139102381D01*
X129592857Y-139102381D01*
X130783334Y-139102381D02*
X130783334Y-138578571D01*
X130735715Y-138483333D01*
X130640477Y-138435714D01*
X130450000Y-138435714D01*
X130354762Y-138483333D01*
X130783334Y-139054762D02*
X130688096Y-139102381D01*
X130450000Y-139102381D01*
X130354762Y-139054762D01*
X130307143Y-138959524D01*
X130307143Y-138864286D01*
X130354762Y-138769048D01*
X130450000Y-138721429D01*
X130688096Y-138721429D01*
X130783334Y-138673810D01*
X131259524Y-139102381D02*
X131259524Y-138435714D01*
X131259524Y-138626190D02*
X131307143Y-138530952D01*
X131354762Y-138483333D01*
X131450000Y-138435714D01*
X131545239Y-138435714D01*
X132307144Y-139102381D02*
X132307144Y-138102381D01*
X132307144Y-139054762D02*
X132211906Y-139102381D01*
X132021429Y-139102381D01*
X131926191Y-139054762D01*
X131878572Y-139007143D01*
X131830953Y-138911905D01*
X131830953Y-138626190D01*
X131878572Y-138530952D01*
X131926191Y-138483333D01*
X132021429Y-138435714D01*
X132211906Y-138435714D01*
X132307144Y-138483333D01*
X133545239Y-139102381D02*
X133545239Y-138435714D01*
X133545239Y-138626190D02*
X133592858Y-138530952D01*
X133640477Y-138483333D01*
X133735715Y-138435714D01*
X133830954Y-138435714D01*
X134116668Y-138197619D02*
X134164287Y-138150000D01*
X134259525Y-138102381D01*
X134497621Y-138102381D01*
X134592859Y-138150000D01*
X134640478Y-138197619D01*
X134688097Y-138292857D01*
X134688097Y-138388095D01*
X134640478Y-138530952D01*
X134069049Y-139102381D01*
X134688097Y-139102381D01*
X124092857Y-139847619D02*
X124140476Y-139800000D01*
X124235714Y-139752381D01*
X124473810Y-139752381D01*
X124569048Y-139800000D01*
X124616667Y-139847619D01*
X124664286Y-139942857D01*
X124664286Y-140038095D01*
X124616667Y-140180952D01*
X124045238Y-140752381D01*
X124664286Y-140752381D01*
X125283333Y-139752381D02*
X125378572Y-139752381D01*
X125473810Y-139800000D01*
X125521429Y-139847619D01*
X125569048Y-139942857D01*
X125616667Y-140133333D01*
X125616667Y-140371429D01*
X125569048Y-140561905D01*
X125521429Y-140657143D01*
X125473810Y-140704762D01*
X125378572Y-140752381D01*
X125283333Y-140752381D01*
X125188095Y-140704762D01*
X125140476Y-140657143D01*
X125092857Y-140561905D01*
X125045238Y-140371429D01*
X125045238Y-140133333D01*
X125092857Y-139942857D01*
X125140476Y-139847619D01*
X125188095Y-139800000D01*
X125283333Y-139752381D01*
X126569048Y-140752381D02*
X125997619Y-140752381D01*
X126283333Y-140752381D02*
X126283333Y-139752381D01*
X126188095Y-139895238D01*
X126092857Y-139990476D01*
X125997619Y-140038095D01*
X127140476Y-140180952D02*
X127045238Y-140133333D01*
X126997619Y-140085714D01*
X126950000Y-139990476D01*
X126950000Y-139942857D01*
X126997619Y-139847619D01*
X127045238Y-139800000D01*
X127140476Y-139752381D01*
X127330953Y-139752381D01*
X127426191Y-139800000D01*
X127473810Y-139847619D01*
X127521429Y-139942857D01*
X127521429Y-139990476D01*
X127473810Y-140085714D01*
X127426191Y-140133333D01*
X127330953Y-140180952D01*
X127140476Y-140180952D01*
X127045238Y-140228571D01*
X126997619Y-140276190D01*
X126950000Y-140371429D01*
X126950000Y-140561905D01*
X126997619Y-140657143D01*
X127045238Y-140704762D01*
X127140476Y-140752381D01*
X127330953Y-140752381D01*
X127426191Y-140704762D01*
X127473810Y-140657143D01*
X127521429Y-140561905D01*
X127521429Y-140371429D01*
X127473810Y-140276190D01*
X127426191Y-140228571D01*
X127330953Y-140180952D01*
X127950000Y-140371429D02*
X128711905Y-140371429D01*
X129378571Y-139752381D02*
X129473810Y-139752381D01*
X129569048Y-139800000D01*
X129616667Y-139847619D01*
X129664286Y-139942857D01*
X129711905Y-140133333D01*
X129711905Y-140371429D01*
X129664286Y-140561905D01*
X129616667Y-140657143D01*
X129569048Y-140704762D01*
X129473810Y-140752381D01*
X129378571Y-140752381D01*
X129283333Y-140704762D01*
X129235714Y-140657143D01*
X129188095Y-140561905D01*
X129140476Y-140371429D01*
X129140476Y-140133333D01*
X129188095Y-139942857D01*
X129235714Y-139847619D01*
X129283333Y-139800000D01*
X129378571Y-139752381D01*
X130664286Y-140752381D02*
X130092857Y-140752381D01*
X130378571Y-140752381D02*
X130378571Y-139752381D01*
X130283333Y-139895238D01*
X130188095Y-139990476D01*
X130092857Y-140038095D01*
X131092857Y-140371429D02*
X131854762Y-140371429D01*
X132854762Y-140752381D02*
X132283333Y-140752381D01*
X132569047Y-140752381D02*
X132569047Y-139752381D01*
X132473809Y-139895238D01*
X132378571Y-139990476D01*
X132283333Y-140038095D01*
X133235714Y-139847619D02*
X133283333Y-139800000D01*
X133378571Y-139752381D01*
X133616667Y-139752381D01*
X133711905Y-139800000D01*
X133759524Y-139847619D01*
X133807143Y-139942857D01*
X133807143Y-140038095D01*
X133759524Y-140180952D01*
X133188095Y-140752381D01*
X133807143Y-140752381D01*
X109371429Y-131128571D02*
X109514286Y-131176190D01*
X109561905Y-131223810D01*
X109609524Y-131319048D01*
X109609524Y-131461905D01*
X109561905Y-131557143D01*
X109514286Y-131604762D01*
X109419048Y-131652381D01*
X109038095Y-131652381D01*
X109038095Y-130652381D01*
X109371429Y-130652381D01*
X109466667Y-130700000D01*
X109514286Y-130747619D01*
X109561905Y-130842857D01*
X109561905Y-130938095D01*
X109514286Y-131033333D01*
X109466667Y-131080952D01*
X109371429Y-131128571D01*
X109038095Y-131128571D01*
X109990476Y-131366667D02*
X110466667Y-131366667D01*
X109895238Y-131652381D02*
X110228571Y-130652381D01*
X110561905Y-131652381D01*
X110752381Y-130652381D02*
X111323810Y-130652381D01*
X111038095Y-131652381D02*
X111038095Y-130652381D01*
X111514286Y-130652381D02*
X112085715Y-130652381D01*
X111800000Y-131652381D02*
X111800000Y-130652381D01*
X109038095Y-132921429D02*
X109800000Y-132921429D01*
X109419048Y-133302381D02*
X109419048Y-132540476D01*
X109038095Y-139521429D02*
X109800000Y-139521429D01*
X130492857Y-83371429D02*
X131254762Y-83371429D01*
X130873810Y-83752381D02*
X130873810Y-82990476D01*
X132207143Y-82752381D02*
X131730952Y-82752381D01*
X131683333Y-83228571D01*
X131730952Y-83180952D01*
X131826190Y-83133333D01*
X132064286Y-83133333D01*
X132159524Y-83180952D01*
X132207143Y-83228571D01*
X132254762Y-83323810D01*
X132254762Y-83561905D01*
X132207143Y-83657143D01*
X132159524Y-83704762D01*
X132064286Y-83752381D01*
X131826190Y-83752381D01*
X131730952Y-83704762D01*
X131683333Y-83657143D01*
X132588095Y-83085714D02*
X132826190Y-83752381D01*
X133064286Y-83085714D01*
X133445238Y-83371429D02*
X134207143Y-83371429D01*
X140209524Y-131052381D02*
X140828572Y-131052381D01*
X140495238Y-131433333D01*
X140638096Y-131433333D01*
X140733334Y-131480952D01*
X140780953Y-131528571D01*
X140828572Y-131623810D01*
X140828572Y-131861905D01*
X140780953Y-131957143D01*
X140733334Y-132004762D01*
X140638096Y-132052381D01*
X140352381Y-132052381D01*
X140257143Y-132004762D01*
X140209524Y-131957143D01*
X141161905Y-131385714D02*
X141400000Y-132052381D01*
X141638096Y-131385714D01*
X141923810Y-131052381D02*
X142542858Y-131052381D01*
X142209524Y-131433333D01*
X142352382Y-131433333D01*
X142447620Y-131480952D01*
X142495239Y-131528571D01*
X142542858Y-131623810D01*
X142542858Y-131861905D01*
X142495239Y-131957143D01*
X142447620Y-132004762D01*
X142352382Y-132052381D01*
X142066667Y-132052381D01*
X141971429Y-132004762D01*
X141923810Y-131957143D01*
X107666667Y-82621429D02*
X108428572Y-82621429D01*
X108047620Y-83002381D02*
X108047620Y-82240476D01*
X109428572Y-83002381D02*
X108857143Y-83002381D01*
X109142857Y-83002381D02*
X109142857Y-82002381D01*
X109047619Y-82145238D01*
X108952381Y-82240476D01*
X108857143Y-82288095D01*
X110333334Y-82002381D02*
X109857143Y-82002381D01*
X109809524Y-82478571D01*
X109857143Y-82430952D01*
X109952381Y-82383333D01*
X110190477Y-82383333D01*
X110285715Y-82430952D01*
X110333334Y-82478571D01*
X110380953Y-82573810D01*
X110380953Y-82811905D01*
X110333334Y-82907143D01*
X110285715Y-82954762D01*
X110190477Y-83002381D01*
X109952381Y-83002381D01*
X109857143Y-82954762D01*
X109809524Y-82907143D01*
X110714286Y-82335714D02*
X110952381Y-83002381D01*
X111190477Y-82335714D01*
X111571429Y-82621429D02*
X112333334Y-82621429D01*
X136519048Y-126471429D02*
X137280953Y-126471429D01*
X136519048Y-129071429D02*
X137280953Y-129071429D01*
X136900001Y-129452381D02*
X136900001Y-128690476D01*
X134161905Y-100477381D02*
X134161905Y-99477381D01*
X134400000Y-99477381D01*
X134542858Y-99525000D01*
X134638096Y-99620238D01*
X134685715Y-99715476D01*
X134733334Y-99905952D01*
X134733334Y-100048810D01*
X134685715Y-100239286D01*
X134638096Y-100334524D01*
X134542858Y-100429762D01*
X134400000Y-100477381D01*
X134161905Y-100477381D01*
X135685715Y-100477381D02*
X135114286Y-100477381D01*
X135400000Y-100477381D02*
X135400000Y-99477381D01*
X135304762Y-99620238D01*
X135209524Y-99715476D01*
X135114286Y-99763095D01*
D12*
X103400000Y-113575000D02*
X103400000Y-120075000D01*
X99900000Y-113575000D02*
X106900000Y-113575000D01*
X106900000Y-104825000D02*
X106900000Y-113575000D01*
X99900000Y-104825000D02*
X99900000Y-113575000D01*
X105900000Y-127575000D02*
X105900000Y-128825000D01*
X100900000Y-127325000D02*
X100900000Y-128825000D01*
X105900000Y-115325000D02*
X105900000Y-127575000D01*
X100900000Y-115575000D02*
X100900000Y-127325000D01*
X105900000Y-104825000D02*
X105900000Y-115325000D01*
X100900000Y-104825000D02*
X100900000Y-115575000D01*
X100900000Y-104825000D02*
X105900000Y-104825000D01*
X99900000Y-103825000D02*
X99900000Y-104825000D01*
X99900000Y-103825000D02*
X106900000Y-103825000D01*
X106900000Y-103825000D02*
X106900000Y-104825000D01*
X100900000Y-128825000D02*
X105900000Y-128825000D01*
X99900000Y-120075000D02*
X99900000Y-129825000D01*
X99900000Y-129825000D02*
X106900000Y-129825000D01*
X106900000Y-120075000D02*
X106900000Y-129825000D01*
X99900000Y-120075000D02*
X106900000Y-120075000D01*
D11*
X112630000Y-106220000D02*
X119615000Y-106220000D01*
X112630000Y-117650000D02*
X119615000Y-117650000D01*
D12*
X119810000Y-117785000D02*
X119810000Y-105985000D01*
X112380000Y-105985000D02*
X112380000Y-117785000D01*
X135000000Y-103680000D02*
X133800000Y-103680000D01*
X133800000Y-101920000D02*
X135000000Y-101920000D01*
D11*
X115920000Y-100370000D02*
X115920000Y-87670000D01*
X136240000Y-87670000D02*
X136240000Y-100370000D01*
X136240000Y-100370000D02*
X136240000Y-87670000D01*
X136240000Y-87670000D02*
X136240000Y-100370000D01*
X136240000Y-100370000D02*
X136240000Y-87670000D01*
X136240000Y-87670000D02*
X136240000Y-100370000D01*
X136240000Y-100370000D02*
X136240000Y-87670000D01*
D12*
X119000000Y-101350000D02*
X123000000Y-101350000D01*
X115860000Y-87270000D02*
X136300000Y-87270000D01*
X136300000Y-100970000D02*
X115860000Y-100970000D01*
D11*
X128155000Y-75930000D02*
X128155000Y-82915000D01*
X116725000Y-75930000D02*
X116725000Y-82915000D01*
D12*
X116590000Y-83110000D02*
X128390000Y-83110000D01*
X128390000Y-75680000D02*
X116590000Y-75680000D01*
X110300000Y-114300000D02*
X110300000Y-115300000D01*
X112000000Y-115300000D02*
X112000000Y-114300000D01*
X111975000Y-110125000D02*
X111975000Y-109125000D01*
X110275000Y-109125000D02*
X110275000Y-110125000D01*
D11*
X107475000Y-135800000D02*
X107975000Y-135800000D01*
X105475000Y-133300000D02*
G75*
G03X105475000Y-133300000I-2000000J0D01*
G01*
X105475000Y-138300000D02*
G75*
G03X105475000Y-138300000I-2000000J0D01*
G01*
X105975000Y-140800000D02*
X105975000Y-130800000D01*
X101075000Y-140800000D02*
X101075000Y-130800000D01*
X107475000Y-140800000D02*
X107475000Y-130800000D01*
X107975000Y-140800000D02*
X107975000Y-130800000D01*
X107975000Y-130800000D02*
X98175000Y-130800000D01*
X98175000Y-130800000D02*
X98175000Y-140800000D01*
X98175000Y-140800000D02*
X107975000Y-140800000D01*
D12*
X143705000Y-116090000D02*
X141045000Y-116090000D01*
X143705000Y-121230000D02*
X143705000Y-116090000D01*
X141045000Y-121230000D02*
X141045000Y-116090000D01*
X143705000Y-121230000D02*
X141045000Y-121230000D01*
X143705000Y-122500000D02*
X143705000Y-123830000D01*
X143705000Y-123830000D02*
X142375000Y-123830000D01*
X138295000Y-119350000D02*
X138295000Y-118150000D01*
X140055000Y-118150000D02*
X140055000Y-119350000D01*
X129375000Y-85145000D02*
X130575000Y-85145000D01*
X130575000Y-86905000D02*
X129375000Y-86905000D01*
X121750000Y-85120000D02*
X122950000Y-85120000D01*
X122950000Y-86880000D02*
X121750000Y-86880000D01*
X126000000Y-101220000D02*
X127200000Y-101220000D01*
X127200000Y-102980000D02*
X126000000Y-102980000D01*
X137030000Y-118100000D02*
X137030000Y-119300000D01*
X135270000Y-119300000D02*
X135270000Y-118100000D01*
X141565000Y-86450000D02*
X141565000Y-86510000D01*
X141565000Y-86510000D02*
X143685000Y-86510000D01*
X143685000Y-86510000D02*
X143685000Y-86450000D01*
X143685000Y-86450000D02*
X141565000Y-86450000D01*
X141565000Y-85450000D02*
X141565000Y-84390000D01*
X141565000Y-84390000D02*
X142625000Y-84390000D01*
X137740000Y-86475000D02*
X137740000Y-86535000D01*
X137740000Y-86535000D02*
X139860000Y-86535000D01*
X139860000Y-86535000D02*
X139860000Y-86475000D01*
X139860000Y-86475000D02*
X137740000Y-86475000D01*
X137740000Y-85475000D02*
X137740000Y-84415000D01*
X137740000Y-84415000D02*
X138800000Y-84415000D01*
X139940000Y-135000000D02*
X139940000Y-135060000D01*
X139940000Y-135060000D02*
X142060000Y-135060000D01*
X142060000Y-135060000D02*
X142060000Y-135000000D01*
X142060000Y-135000000D02*
X139940000Y-135000000D01*
X139940000Y-134000000D02*
X139940000Y-132940000D01*
X139940000Y-132940000D02*
X141000000Y-132940000D01*
X114115000Y-78375000D02*
X114115000Y-78435000D01*
X114115000Y-78435000D02*
X116235000Y-78435000D01*
X116235000Y-78435000D02*
X116235000Y-78375000D01*
X116235000Y-78375000D02*
X114115000Y-78375000D01*
X114115000Y-77375000D02*
X114115000Y-76315000D01*
X114115000Y-76315000D02*
X115175000Y-76315000D01*
X101090000Y-101250000D02*
X101090000Y-101310000D01*
X101090000Y-101310000D02*
X103210000Y-101310000D01*
X103210000Y-101310000D02*
X103210000Y-101250000D01*
X103210000Y-101250000D02*
X101090000Y-101250000D01*
X101090000Y-100250000D02*
X101090000Y-99190000D01*
X101090000Y-99190000D02*
X102150000Y-99190000D01*
X137980000Y-130370000D02*
X143980000Y-130370000D01*
X143980000Y-130370000D02*
X143980000Y-125090000D01*
X143980000Y-125090000D02*
X137980000Y-125090000D01*
X137980000Y-125090000D02*
X137980000Y-130370000D01*
X143980000Y-129000000D02*
X142980000Y-129000000D01*
X142980000Y-129000000D02*
X142980000Y-126460000D01*
X142980000Y-126460000D02*
X143980000Y-126460000D01*
X142980000Y-129000000D02*
X142550000Y-128750000D01*
X142550000Y-128750000D02*
X142550000Y-126710000D01*
X142550000Y-126710000D02*
X142980000Y-126460000D01*
X143980000Y-128750000D02*
X142980000Y-128750000D01*
X143980000Y-126710000D02*
X142980000Y-126710000D01*
X137980000Y-129800000D02*
X138600000Y-129800000D01*
X138600000Y-129800000D02*
X138600000Y-128200000D01*
X138600000Y-128200000D02*
X137980000Y-128200000D01*
X137980000Y-127260000D02*
X138600000Y-127260000D01*
X138600000Y-127260000D02*
X138600000Y-125660000D01*
X138600000Y-125660000D02*
X137980000Y-125660000D01*
X129630000Y-75980000D02*
X129630000Y-81980000D01*
X129630000Y-81980000D02*
X134910000Y-81980000D01*
X134910000Y-81980000D02*
X134910000Y-75980000D01*
X134910000Y-75980000D02*
X129630000Y-75980000D01*
X131000000Y-81980000D02*
X131000000Y-80980000D01*
X131000000Y-80980000D02*
X133540000Y-80980000D01*
X133540000Y-80980000D02*
X133540000Y-81980000D01*
X131000000Y-80980000D02*
X131250000Y-80550000D01*
X131250000Y-80550000D02*
X133290000Y-80550000D01*
X133290000Y-80550000D02*
X133540000Y-80980000D01*
X131250000Y-81980000D02*
X131250000Y-80980000D01*
X133290000Y-81980000D02*
X133290000Y-80980000D01*
X130200000Y-75980000D02*
X130200000Y-76600000D01*
X130200000Y-76600000D02*
X131800000Y-76600000D01*
X131800000Y-76600000D02*
X131800000Y-75980000D01*
X132740000Y-75980000D02*
X132740000Y-76600000D01*
X132740000Y-76600000D02*
X134340000Y-76600000D01*
X134340000Y-76600000D02*
X134340000Y-75980000D01*
X107830000Y-75480000D02*
X107830000Y-81480000D01*
X107830000Y-81480000D02*
X113110000Y-81480000D01*
X113110000Y-81480000D02*
X113110000Y-75480000D01*
X113110000Y-75480000D02*
X107830000Y-75480000D01*
X109200000Y-81480000D02*
X109200000Y-80480000D01*
X109200000Y-80480000D02*
X111740000Y-80480000D01*
X111740000Y-80480000D02*
X111740000Y-81480000D01*
X109200000Y-80480000D02*
X109450000Y-80050000D01*
X109450000Y-80050000D02*
X111490000Y-80050000D01*
X111490000Y-80050000D02*
X111740000Y-80480000D01*
X109450000Y-81480000D02*
X109450000Y-80480000D01*
X111490000Y-81480000D02*
X111490000Y-80480000D01*
X108400000Y-75480000D02*
X108400000Y-76100000D01*
X108400000Y-76100000D02*
X110000000Y-76100000D01*
X110000000Y-76100000D02*
X110000000Y-75480000D01*
X110940000Y-75480000D02*
X110940000Y-76100000D01*
X110940000Y-76100000D02*
X112540000Y-76100000D01*
X112540000Y-76100000D02*
X112540000Y-75480000D01*
X135000000Y-106380000D02*
X133800000Y-106380000D01*
X133800000Y-104620000D02*
X135000000Y-104620000D01*
D13*
G36*
X111651589Y-136748742D02*
X111695700Y-136756567D01*
X111764865Y-136769411D01*
X111856040Y-136786692D01*
X111966179Y-136807829D01*
X112092239Y-136832242D01*
X112231175Y-136859348D01*
X112379943Y-136888568D01*
X112382495Y-136889071D01*
X112566325Y-136925548D01*
X112720989Y-136956820D01*
X112848559Y-136983358D01*
X112951105Y-137005634D01*
X113030701Y-137024119D01*
X113089419Y-137039283D01*
X113129329Y-137051598D01*
X113152505Y-137061536D01*
X113158138Y-137065458D01*
X113186589Y-137096078D01*
X113230280Y-137149525D01*
X113286675Y-137222321D01*
X113353234Y-137310986D01*
X113427422Y-137412043D01*
X113506700Y-137522011D01*
X113588530Y-137637414D01*
X113670375Y-137754771D01*
X113749696Y-137870605D01*
X113799560Y-137944720D01*
X114035141Y-138307668D01*
X114265951Y-138682801D01*
X114489367Y-139065259D01*
X114702764Y-139450183D01*
X114903521Y-139832713D01*
X115089014Y-140207989D01*
X115256619Y-140571151D01*
X115402158Y-140913500D01*
X115438850Y-141007061D01*
X115478734Y-141113841D01*
X115519936Y-141228315D01*
X115560587Y-141344957D01*
X115598813Y-141458244D01*
X115632743Y-141562651D01*
X115660506Y-141652652D01*
X115680230Y-141722725D01*
X115688698Y-141759286D01*
X115698412Y-141797252D01*
X115708617Y-141817394D01*
X115710798Y-141818375D01*
X115726032Y-141806877D01*
X115758696Y-141774729D01*
X115805628Y-141725451D01*
X115863669Y-141662562D01*
X115929660Y-141589581D01*
X116000439Y-141510027D01*
X116072846Y-141427419D01*
X116143722Y-141345277D01*
X116209906Y-141267119D01*
X116258236Y-141208745D01*
X116406249Y-141021913D01*
X116542549Y-140837091D01*
X116671982Y-140647039D01*
X116799390Y-140444515D01*
X116929618Y-140222276D01*
X116989975Y-140114729D01*
X117034919Y-140035537D01*
X117075190Y-139968034D01*
X117108164Y-139916338D01*
X117131221Y-139884569D01*
X117141559Y-139876604D01*
X117153574Y-139894988D01*
X117177109Y-139935369D01*
X117208733Y-139991736D01*
X117244030Y-140056250D01*
X117419483Y-140366226D01*
X117597781Y-140651596D01*
X117783619Y-140919449D01*
X117981694Y-141176876D01*
X118006331Y-141207187D01*
X118066655Y-141279854D01*
X118134188Y-141359309D01*
X118205779Y-141442039D01*
X118278274Y-141524535D01*
X118348523Y-141603286D01*
X118413372Y-141674779D01*
X118469669Y-141735506D01*
X118514263Y-141781953D01*
X118544000Y-141810612D01*
X118555076Y-141818375D01*
X118564761Y-141804474D01*
X118574984Y-141770000D01*
X118577176Y-141759286D01*
X118589529Y-141708079D01*
X118611345Y-141632739D01*
X118640753Y-141538791D01*
X118675880Y-141431759D01*
X118714856Y-141317167D01*
X118755809Y-141200540D01*
X118796866Y-141087404D01*
X118836157Y-140983282D01*
X118863716Y-140913500D01*
X119008154Y-140573785D01*
X119172783Y-140216906D01*
X119354961Y-139847756D01*
X119552048Y-139471231D01*
X119761400Y-139092227D01*
X119980376Y-138715639D01*
X120206334Y-138346361D01*
X120436631Y-137989291D01*
X120464738Y-137947039D01*
X120540892Y-137834281D01*
X120621268Y-137717645D01*
X120703333Y-137600605D01*
X120784554Y-137486636D01*
X120862398Y-137379210D01*
X120934334Y-137281801D01*
X120997827Y-137197883D01*
X121050347Y-137130930D01*
X121089359Y-137084416D01*
X121107042Y-137066085D01*
X121123816Y-137057032D01*
X121157772Y-137045524D01*
X121210847Y-137031121D01*
X121284976Y-137013383D01*
X121382095Y-136991872D01*
X121504140Y-136966147D01*
X121653047Y-136935770D01*
X121830751Y-136900302D01*
X121882686Y-136890039D01*
X122031662Y-136860738D01*
X122170859Y-136833529D01*
X122297234Y-136808995D01*
X122407743Y-136787718D01*
X122499345Y-136770282D01*
X122568995Y-136757269D01*
X122613652Y-136749262D01*
X122630272Y-136746843D01*
X122630298Y-136746856D01*
X122627079Y-136762140D01*
X122616783Y-136805034D01*
X122600208Y-136872389D01*
X122578153Y-136961056D01*
X122551417Y-137067888D01*
X122520799Y-137189736D01*
X122487096Y-137323451D01*
X122451109Y-137465886D01*
X122413636Y-137613892D01*
X122375475Y-137764321D01*
X122337426Y-137914025D01*
X122300286Y-138059854D01*
X122264855Y-138198662D01*
X122231931Y-138327299D01*
X122202313Y-138442618D01*
X122176801Y-138541469D01*
X122156191Y-138620706D01*
X122141284Y-138677178D01*
X122132878Y-138707739D01*
X122132515Y-138708954D01*
X122136370Y-138721046D01*
X122155310Y-138739425D01*
X122191789Y-138765702D01*
X122248265Y-138801489D01*
X122327191Y-138848397D01*
X122431025Y-138908039D01*
X122466467Y-138928128D01*
X122560522Y-138981790D01*
X122644676Y-139030711D01*
X122715189Y-139072643D01*
X122768324Y-139105336D01*
X122800340Y-139126545D01*
X122808250Y-139133629D01*
X122795216Y-139143693D01*
X122757198Y-139170009D01*
X122695818Y-139211507D01*
X122612698Y-139267113D01*
X122509460Y-139335758D01*
X122387728Y-139416368D01*
X122249124Y-139507874D01*
X122095269Y-139609203D01*
X121927787Y-139719283D01*
X121748301Y-139837044D01*
X121558432Y-139961414D01*
X121359803Y-140091321D01*
X121205059Y-140192393D01*
X121000863Y-140325816D01*
X120804200Y-140454568D01*
X120616693Y-140577570D01*
X120439965Y-140693748D01*
X120275639Y-140802027D01*
X120125340Y-140901330D01*
X119990691Y-140990583D01*
X119873314Y-141068708D01*
X119774834Y-141134631D01*
X119696875Y-141187277D01*
X119641058Y-141225568D01*
X119609009Y-141248431D01*
X119601545Y-141254812D01*
X119606125Y-141272952D01*
X119619329Y-141318036D01*
X119640140Y-141386758D01*
X119667536Y-141475810D01*
X119700500Y-141581888D01*
X119738012Y-141701684D01*
X119779052Y-141831893D01*
X119793830Y-141878583D01*
X119835550Y-142011294D01*
X119873656Y-142134517D01*
X119907185Y-142244990D01*
X119935176Y-142339450D01*
X119956666Y-142414635D01*
X119970695Y-142467280D01*
X119976300Y-142494125D01*
X119976082Y-142496834D01*
X119959146Y-142496505D01*
X119912941Y-142492581D01*
X119839714Y-142485313D01*
X119741711Y-142474954D01*
X119621181Y-142461756D01*
X119480370Y-142445970D01*
X119321524Y-142427848D01*
X119146892Y-142407643D01*
X118958719Y-142385606D01*
X118759254Y-142361990D01*
X118550742Y-142337045D01*
X118549331Y-142336875D01*
X117132937Y-142166561D01*
X115745568Y-142333780D01*
X115538437Y-142358696D01*
X115339827Y-142382488D01*
X115152069Y-142404884D01*
X114977494Y-142425610D01*
X114818431Y-142444393D01*
X114677211Y-142460960D01*
X114556164Y-142475035D01*
X114457621Y-142486348D01*
X114383911Y-142494623D01*
X114337365Y-142499587D01*
X114320787Y-142501000D01*
X114292045Y-142496235D01*
X114283375Y-142487824D01*
X114288024Y-142470273D01*
X114301286Y-142425779D01*
X114322137Y-142357650D01*
X114349548Y-142269194D01*
X114382493Y-142163719D01*
X114419946Y-142044532D01*
X114460880Y-141914942D01*
X114473875Y-141873937D01*
X114515689Y-141741655D01*
X114554324Y-141618605D01*
X114588752Y-141508122D01*
X114617946Y-141413542D01*
X114640877Y-141338202D01*
X114656517Y-141285438D01*
X114663839Y-141258584D01*
X114664260Y-141256082D01*
X114651209Y-141245386D01*
X114613167Y-141218454D01*
X114551758Y-141176362D01*
X114468605Y-141120187D01*
X114365331Y-141051007D01*
X114243559Y-140969898D01*
X114104913Y-140877938D01*
X113951015Y-140776204D01*
X113783489Y-140665773D01*
X113603959Y-140547723D01*
X113414046Y-140423129D01*
X113215375Y-140293070D01*
X113060885Y-140192119D01*
X112856722Y-140058718D01*
X112660094Y-139930050D01*
X112472622Y-139807186D01*
X112295930Y-139691199D01*
X112131638Y-139583159D01*
X111981371Y-139484138D01*
X111846748Y-139395206D01*
X111729394Y-139317436D01*
X111630931Y-139251898D01*
X111552979Y-139199664D01*
X111497163Y-139161805D01*
X111465103Y-139139392D01*
X111457625Y-139133355D01*
X111470866Y-139122580D01*
X111508097Y-139098584D01*
X111565581Y-139063612D01*
X111639577Y-139019909D01*
X111726349Y-138969720D01*
X111799407Y-138928128D01*
X111910992Y-138864456D01*
X111996952Y-138813989D01*
X112059741Y-138775115D01*
X112101817Y-138746223D01*
X112125633Y-138725700D01*
X112133647Y-138711936D01*
X112133359Y-138708954D01*
X112125448Y-138680399D01*
X112110980Y-138625700D01*
X112090752Y-138548003D01*
X112065564Y-138450459D01*
X112036213Y-138336216D01*
X112003500Y-138208422D01*
X111968221Y-138070226D01*
X111931177Y-137924777D01*
X111893165Y-137775223D01*
X111854985Y-137624713D01*
X111817435Y-137476396D01*
X111781313Y-137333420D01*
X111747419Y-137198934D01*
X111716551Y-137076087D01*
X111689507Y-136968026D01*
X111667087Y-136877902D01*
X111650089Y-136808862D01*
X111639312Y-136764055D01*
X111635554Y-136746630D01*
X111635576Y-136746515D01*
X111651589Y-136748742D01*
X111651589Y-136748742D01*
G37*
X111651589Y-136748742D02*
X111695700Y-136756567D01*
X111764865Y-136769411D01*
X111856040Y-136786692D01*
X111966179Y-136807829D01*
X112092239Y-136832242D01*
X112231175Y-136859348D01*
X112379943Y-136888568D01*
X112382495Y-136889071D01*
X112566325Y-136925548D01*
X112720989Y-136956820D01*
X112848559Y-136983358D01*
X112951105Y-137005634D01*
X113030701Y-137024119D01*
X113089419Y-137039283D01*
X113129329Y-137051598D01*
X113152505Y-137061536D01*
X113158138Y-137065458D01*
X113186589Y-137096078D01*
X113230280Y-137149525D01*
X113286675Y-137222321D01*
X113353234Y-137310986D01*
X113427422Y-137412043D01*
X113506700Y-137522011D01*
X113588530Y-137637414D01*
X113670375Y-137754771D01*
X113749696Y-137870605D01*
X113799560Y-137944720D01*
X114035141Y-138307668D01*
X114265951Y-138682801D01*
X114489367Y-139065259D01*
X114702764Y-139450183D01*
X114903521Y-139832713D01*
X115089014Y-140207989D01*
X115256619Y-140571151D01*
X115402158Y-140913500D01*
X115438850Y-141007061D01*
X115478734Y-141113841D01*
X115519936Y-141228315D01*
X115560587Y-141344957D01*
X115598813Y-141458244D01*
X115632743Y-141562651D01*
X115660506Y-141652652D01*
X115680230Y-141722725D01*
X115688698Y-141759286D01*
X115698412Y-141797252D01*
X115708617Y-141817394D01*
X115710798Y-141818375D01*
X115726032Y-141806877D01*
X115758696Y-141774729D01*
X115805628Y-141725451D01*
X115863669Y-141662562D01*
X115929660Y-141589581D01*
X116000439Y-141510027D01*
X116072846Y-141427419D01*
X116143722Y-141345277D01*
X116209906Y-141267119D01*
X116258236Y-141208745D01*
X116406249Y-141021913D01*
X116542549Y-140837091D01*
X116671982Y-140647039D01*
X116799390Y-140444515D01*
X116929618Y-140222276D01*
X116989975Y-140114729D01*
X117034919Y-140035537D01*
X117075190Y-139968034D01*
X117108164Y-139916338D01*
X117131221Y-139884569D01*
X117141559Y-139876604D01*
X117153574Y-139894988D01*
X117177109Y-139935369D01*
X117208733Y-139991736D01*
X117244030Y-140056250D01*
X117419483Y-140366226D01*
X117597781Y-140651596D01*
X117783619Y-140919449D01*
X117981694Y-141176876D01*
X118006331Y-141207187D01*
X118066655Y-141279854D01*
X118134188Y-141359309D01*
X118205779Y-141442039D01*
X118278274Y-141524535D01*
X118348523Y-141603286D01*
X118413372Y-141674779D01*
X118469669Y-141735506D01*
X118514263Y-141781953D01*
X118544000Y-141810612D01*
X118555076Y-141818375D01*
X118564761Y-141804474D01*
X118574984Y-141770000D01*
X118577176Y-141759286D01*
X118589529Y-141708079D01*
X118611345Y-141632739D01*
X118640753Y-141538791D01*
X118675880Y-141431759D01*
X118714856Y-141317167D01*
X118755809Y-141200540D01*
X118796866Y-141087404D01*
X118836157Y-140983282D01*
X118863716Y-140913500D01*
X119008154Y-140573785D01*
X119172783Y-140216906D01*
X119354961Y-139847756D01*
X119552048Y-139471231D01*
X119761400Y-139092227D01*
X119980376Y-138715639D01*
X120206334Y-138346361D01*
X120436631Y-137989291D01*
X120464738Y-137947039D01*
X120540892Y-137834281D01*
X120621268Y-137717645D01*
X120703333Y-137600605D01*
X120784554Y-137486636D01*
X120862398Y-137379210D01*
X120934334Y-137281801D01*
X120997827Y-137197883D01*
X121050347Y-137130930D01*
X121089359Y-137084416D01*
X121107042Y-137066085D01*
X121123816Y-137057032D01*
X121157772Y-137045524D01*
X121210847Y-137031121D01*
X121284976Y-137013383D01*
X121382095Y-136991872D01*
X121504140Y-136966147D01*
X121653047Y-136935770D01*
X121830751Y-136900302D01*
X121882686Y-136890039D01*
X122031662Y-136860738D01*
X122170859Y-136833529D01*
X122297234Y-136808995D01*
X122407743Y-136787718D01*
X122499345Y-136770282D01*
X122568995Y-136757269D01*
X122613652Y-136749262D01*
X122630272Y-136746843D01*
X122630298Y-136746856D01*
X122627079Y-136762140D01*
X122616783Y-136805034D01*
X122600208Y-136872389D01*
X122578153Y-136961056D01*
X122551417Y-137067888D01*
X122520799Y-137189736D01*
X122487096Y-137323451D01*
X122451109Y-137465886D01*
X122413636Y-137613892D01*
X122375475Y-137764321D01*
X122337426Y-137914025D01*
X122300286Y-138059854D01*
X122264855Y-138198662D01*
X122231931Y-138327299D01*
X122202313Y-138442618D01*
X122176801Y-138541469D01*
X122156191Y-138620706D01*
X122141284Y-138677178D01*
X122132878Y-138707739D01*
X122132515Y-138708954D01*
X122136370Y-138721046D01*
X122155310Y-138739425D01*
X122191789Y-138765702D01*
X122248265Y-138801489D01*
X122327191Y-138848397D01*
X122431025Y-138908039D01*
X122466467Y-138928128D01*
X122560522Y-138981790D01*
X122644676Y-139030711D01*
X122715189Y-139072643D01*
X122768324Y-139105336D01*
X122800340Y-139126545D01*
X122808250Y-139133629D01*
X122795216Y-139143693D01*
X122757198Y-139170009D01*
X122695818Y-139211507D01*
X122612698Y-139267113D01*
X122509460Y-139335758D01*
X122387728Y-139416368D01*
X122249124Y-139507874D01*
X122095269Y-139609203D01*
X121927787Y-139719283D01*
X121748301Y-139837044D01*
X121558432Y-139961414D01*
X121359803Y-140091321D01*
X121205059Y-140192393D01*
X121000863Y-140325816D01*
X120804200Y-140454568D01*
X120616693Y-140577570D01*
X120439965Y-140693748D01*
X120275639Y-140802027D01*
X120125340Y-140901330D01*
X119990691Y-140990583D01*
X119873314Y-141068708D01*
X119774834Y-141134631D01*
X119696875Y-141187277D01*
X119641058Y-141225568D01*
X119609009Y-141248431D01*
X119601545Y-141254812D01*
X119606125Y-141272952D01*
X119619329Y-141318036D01*
X119640140Y-141386758D01*
X119667536Y-141475810D01*
X119700500Y-141581888D01*
X119738012Y-141701684D01*
X119779052Y-141831893D01*
X119793830Y-141878583D01*
X119835550Y-142011294D01*
X119873656Y-142134517D01*
X119907185Y-142244990D01*
X119935176Y-142339450D01*
X119956666Y-142414635D01*
X119970695Y-142467280D01*
X119976300Y-142494125D01*
X119976082Y-142496834D01*
X119959146Y-142496505D01*
X119912941Y-142492581D01*
X119839714Y-142485313D01*
X119741711Y-142474954D01*
X119621181Y-142461756D01*
X119480370Y-142445970D01*
X119321524Y-142427848D01*
X119146892Y-142407643D01*
X118958719Y-142385606D01*
X118759254Y-142361990D01*
X118550742Y-142337045D01*
X118549331Y-142336875D01*
X117132937Y-142166561D01*
X115745568Y-142333780D01*
X115538437Y-142358696D01*
X115339827Y-142382488D01*
X115152069Y-142404884D01*
X114977494Y-142425610D01*
X114818431Y-142444393D01*
X114677211Y-142460960D01*
X114556164Y-142475035D01*
X114457621Y-142486348D01*
X114383911Y-142494623D01*
X114337365Y-142499587D01*
X114320787Y-142501000D01*
X114292045Y-142496235D01*
X114283375Y-142487824D01*
X114288024Y-142470273D01*
X114301286Y-142425779D01*
X114322137Y-142357650D01*
X114349548Y-142269194D01*
X114382493Y-142163719D01*
X114419946Y-142044532D01*
X114460880Y-141914942D01*
X114473875Y-141873937D01*
X114515689Y-141741655D01*
X114554324Y-141618605D01*
X114588752Y-141508122D01*
X114617946Y-141413542D01*
X114640877Y-141338202D01*
X114656517Y-141285438D01*
X114663839Y-141258584D01*
X114664260Y-141256082D01*
X114651209Y-141245386D01*
X114613167Y-141218454D01*
X114551758Y-141176362D01*
X114468605Y-141120187D01*
X114365331Y-141051007D01*
X114243559Y-140969898D01*
X114104913Y-140877938D01*
X113951015Y-140776204D01*
X113783489Y-140665773D01*
X113603959Y-140547723D01*
X113414046Y-140423129D01*
X113215375Y-140293070D01*
X113060885Y-140192119D01*
X112856722Y-140058718D01*
X112660094Y-139930050D01*
X112472622Y-139807186D01*
X112295930Y-139691199D01*
X112131638Y-139583159D01*
X111981371Y-139484138D01*
X111846748Y-139395206D01*
X111729394Y-139317436D01*
X111630931Y-139251898D01*
X111552979Y-139199664D01*
X111497163Y-139161805D01*
X111465103Y-139139392D01*
X111457625Y-139133355D01*
X111470866Y-139122580D01*
X111508097Y-139098584D01*
X111565581Y-139063612D01*
X111639577Y-139019909D01*
X111726349Y-138969720D01*
X111799407Y-138928128D01*
X111910992Y-138864456D01*
X111996952Y-138813989D01*
X112059741Y-138775115D01*
X112101817Y-138746223D01*
X112125633Y-138725700D01*
X112133647Y-138711936D01*
X112133359Y-138708954D01*
X112125448Y-138680399D01*
X112110980Y-138625700D01*
X112090752Y-138548003D01*
X112065564Y-138450459D01*
X112036213Y-138336216D01*
X112003500Y-138208422D01*
X111968221Y-138070226D01*
X111931177Y-137924777D01*
X111893165Y-137775223D01*
X111854985Y-137624713D01*
X111817435Y-137476396D01*
X111781313Y-137333420D01*
X111747419Y-137198934D01*
X111716551Y-137076087D01*
X111689507Y-136968026D01*
X111667087Y-136877902D01*
X111650089Y-136808862D01*
X111639312Y-136764055D01*
X111635554Y-136746630D01*
X111635576Y-136746515D01*
X111651589Y-136748742D01*
G36*
X117143053Y-132879595D02*
X117167237Y-132918750D01*
X117204234Y-132981313D01*
X117252788Y-133065084D01*
X117311645Y-133167862D01*
X117379549Y-133287448D01*
X117455245Y-133421642D01*
X117537479Y-133568243D01*
X117624995Y-133725052D01*
X117700894Y-133861647D01*
X117791966Y-134025835D01*
X117878719Y-134182165D01*
X117959898Y-134328377D01*
X118034245Y-134462213D01*
X118100505Y-134581414D01*
X118157422Y-134683720D01*
X118203740Y-134766873D01*
X118238202Y-134828614D01*
X118259554Y-134866684D01*
X118266385Y-134878636D01*
X118276021Y-134881838D01*
X118298497Y-134878073D01*
X118336145Y-134866440D01*
X118391298Y-134846040D01*
X118466287Y-134815973D01*
X118563444Y-134775338D01*
X118685100Y-134723235D01*
X118814909Y-134666908D01*
X118936834Y-134614153D01*
X119049536Y-134566107D01*
X119149734Y-134524114D01*
X119234144Y-134489519D01*
X119299484Y-134463666D01*
X119342473Y-134447901D01*
X119359827Y-134443567D01*
X119359939Y-134443647D01*
X119359895Y-134460542D01*
X119356963Y-134506818D01*
X119351339Y-134580252D01*
X119343221Y-134678627D01*
X119332804Y-134799721D01*
X119320286Y-134941315D01*
X119305863Y-135101188D01*
X119289732Y-135277121D01*
X119272089Y-135466894D01*
X119253131Y-135668286D01*
X119233055Y-135879077D01*
X119229694Y-135914132D01*
X119209424Y-136126162D01*
X119190174Y-136329092D01*
X119172145Y-136520710D01*
X119155538Y-136698800D01*
X119140555Y-136861150D01*
X119127398Y-137005546D01*
X119116268Y-137129774D01*
X119107366Y-137231621D01*
X119100894Y-137308874D01*
X119097053Y-137359317D01*
X119096045Y-137380739D01*
X119096165Y-137381331D01*
X119108892Y-137372301D01*
X119143193Y-137343959D01*
X119196959Y-137298142D01*
X119268083Y-137236686D01*
X119354455Y-137161427D01*
X119453967Y-137074200D01*
X119564512Y-136976843D01*
X119683980Y-136871190D01*
X119789639Y-136777418D01*
X119915215Y-136665987D01*
X120033820Y-136561117D01*
X120143322Y-136464671D01*
X120241583Y-136378510D01*
X120326471Y-136304498D01*
X120395849Y-136244497D01*
X120447582Y-136200369D01*
X120479537Y-136173977D01*
X120489508Y-136166875D01*
X120494355Y-136170429D01*
X120501802Y-136182851D01*
X120512882Y-136206781D01*
X120528627Y-136244857D01*
X120550069Y-136299720D01*
X120578242Y-136374007D01*
X120614178Y-136470358D01*
X120658909Y-136591413D01*
X120710561Y-136731892D01*
X120757722Y-136860346D01*
X120622443Y-137016407D01*
X120447904Y-137222868D01*
X120264836Y-137448916D01*
X120075805Y-137690877D01*
X119883379Y-137945079D01*
X119690127Y-138207849D01*
X119498616Y-138475514D01*
X119311415Y-138744401D01*
X119131090Y-139010838D01*
X118960210Y-139271151D01*
X118801344Y-139521667D01*
X118657058Y-139758715D01*
X118529920Y-139978620D01*
X118453125Y-140119214D01*
X118366913Y-140281607D01*
X118314545Y-140205493D01*
X118214715Y-140049541D01*
X118111272Y-139867787D01*
X118006701Y-139665588D01*
X117903492Y-139448299D01*
X117804132Y-139221279D01*
X117711109Y-138989882D01*
X117626909Y-138759465D01*
X117585373Y-138635437D01*
X117510473Y-138391266D01*
X117435503Y-138123029D01*
X117362351Y-137838349D01*
X117292910Y-137544849D01*
X117229067Y-137250152D01*
X117179398Y-136997917D01*
X117134419Y-136757397D01*
X117052692Y-137164604D01*
X116962376Y-137588659D01*
X116867234Y-137983629D01*
X116766410Y-138351932D01*
X116659047Y-138695986D01*
X116544290Y-139018205D01*
X116421283Y-139321009D01*
X116289171Y-139606812D01*
X116147096Y-139878033D01*
X116007800Y-140115226D01*
X115969873Y-140175487D01*
X115937453Y-140225107D01*
X115914470Y-140258186D01*
X115905548Y-140268755D01*
X115893765Y-140258831D01*
X115871830Y-140226211D01*
X115843477Y-140176753D01*
X115826882Y-140145247D01*
X115734612Y-139973322D01*
X115623689Y-139780732D01*
X115496367Y-139570706D01*
X115354900Y-139346475D01*
X115201542Y-139111267D01*
X115038547Y-138868313D01*
X114868168Y-138620842D01*
X114692660Y-138372085D01*
X114514277Y-138125270D01*
X114335272Y-137883629D01*
X114157899Y-137650390D01*
X113984412Y-137428783D01*
X113817065Y-137222038D01*
X113658112Y-137033385D01*
X113643431Y-137016407D01*
X113508152Y-136860346D01*
X113555313Y-136731892D01*
X113609375Y-136584871D01*
X113653656Y-136465065D01*
X113689190Y-136369836D01*
X113717005Y-136296548D01*
X113738134Y-136242561D01*
X113753608Y-136205239D01*
X113764457Y-136181944D01*
X113771713Y-136170038D01*
X113776197Y-136166875D01*
X113790091Y-136177131D01*
X113825544Y-136206660D01*
X113880422Y-136253599D01*
X113952590Y-136316088D01*
X114039913Y-136392265D01*
X114140257Y-136480269D01*
X114251486Y-136578237D01*
X114371465Y-136684310D01*
X114476243Y-136777241D01*
X114601625Y-136888402D01*
X114719847Y-136992819D01*
X114828798Y-137088656D01*
X114926372Y-137174076D01*
X115010459Y-137247245D01*
X115078951Y-137306327D01*
X115129740Y-137349486D01*
X115160717Y-137374886D01*
X115169886Y-137381155D01*
X115169340Y-137364769D01*
X115165929Y-137318996D01*
X115159855Y-137246047D01*
X115151319Y-137148136D01*
X115140524Y-137027477D01*
X115127671Y-136886282D01*
X115112961Y-136726765D01*
X115096597Y-136551140D01*
X115078780Y-136361619D01*
X115059712Y-136160415D01*
X115057248Y-136134605D01*
X116556101Y-136134605D01*
X116561901Y-136136298D01*
X116585228Y-136119119D01*
X116621226Y-136086710D01*
X116625884Y-136082243D01*
X116682043Y-136035494D01*
X116751828Y-135987576D01*
X116815437Y-135951351D01*
X116957127Y-135897549D01*
X117100958Y-135874577D01*
X117243791Y-135881959D01*
X117382488Y-135919218D01*
X117513908Y-135985876D01*
X117627906Y-136074823D01*
X117668533Y-136111018D01*
X117697373Y-136133157D01*
X117709665Y-136137718D01*
X117709412Y-136135125D01*
X117703288Y-136116031D01*
X117688574Y-136069343D01*
X117666120Y-135997780D01*
X117636776Y-135904061D01*
X117601392Y-135790904D01*
X117560819Y-135661030D01*
X117515907Y-135517157D01*
X117467506Y-135362004D01*
X117419005Y-135206437D01*
X117368288Y-135043805D01*
X117320405Y-134890439D01*
X117276184Y-134748979D01*
X117236453Y-134622066D01*
X117202040Y-134512338D01*
X117173772Y-134422436D01*
X117152478Y-134355000D01*
X117138986Y-134312670D01*
X117134134Y-134298092D01*
X117129037Y-134312180D01*
X117115338Y-134353978D01*
X117093864Y-134420878D01*
X117065438Y-134510271D01*
X117030885Y-134619548D01*
X116991031Y-134746101D01*
X116946699Y-134887321D01*
X116898715Y-135040601D01*
X116848017Y-135202967D01*
X116796958Y-135366622D01*
X116748571Y-135521572D01*
X116703707Y-135665105D01*
X116663213Y-135794512D01*
X116627941Y-135907078D01*
X116598740Y-136000094D01*
X116576459Y-136070848D01*
X116561948Y-136116628D01*
X116556101Y-136134605D01*
X115057248Y-136134605D01*
X115039595Y-135949743D01*
X115036180Y-135914132D01*
X115015941Y-135702017D01*
X114996792Y-135498937D01*
X114978929Y-135307113D01*
X114962548Y-135128765D01*
X114947845Y-134966113D01*
X114935018Y-134821378D01*
X114924261Y-134696779D01*
X114915773Y-134594538D01*
X114909749Y-134516875D01*
X114906385Y-134466009D01*
X114905879Y-134444161D01*
X114906080Y-134443502D01*
X114922419Y-134447323D01*
X114964513Y-134462615D01*
X115029070Y-134488034D01*
X115112795Y-134522234D01*
X115212396Y-134563870D01*
X115324580Y-134611596D01*
X115446054Y-134664066D01*
X115448565Y-134665159D01*
X115570067Y-134717975D01*
X115682121Y-134766563D01*
X115781463Y-134809518D01*
X115864828Y-134845433D01*
X115928952Y-134872901D01*
X115970569Y-134890516D01*
X115986416Y-134896872D01*
X115986448Y-134896874D01*
X115994832Y-134883344D01*
X116017361Y-134844202D01*
X116052816Y-134781625D01*
X116099982Y-134697789D01*
X116157640Y-134594869D01*
X116224574Y-134475041D01*
X116299567Y-134340480D01*
X116381402Y-134193363D01*
X116468861Y-134035865D01*
X116554484Y-133881431D01*
X116646276Y-133716131D01*
X116733837Y-133559192D01*
X116815927Y-133412793D01*
X116891304Y-133279112D01*
X116958726Y-133160328D01*
X117016954Y-133058620D01*
X117064745Y-132976167D01*
X117100858Y-132915146D01*
X117124052Y-132877738D01*
X117132937Y-132866048D01*
X117143053Y-132879595D01*
X117143053Y-132879595D01*
G37*
X117143053Y-132879595D02*
X117167237Y-132918750D01*
X117204234Y-132981313D01*
X117252788Y-133065084D01*
X117311645Y-133167862D01*
X117379549Y-133287448D01*
X117455245Y-133421642D01*
X117537479Y-133568243D01*
X117624995Y-133725052D01*
X117700894Y-133861647D01*
X117791966Y-134025835D01*
X117878719Y-134182165D01*
X117959898Y-134328377D01*
X118034245Y-134462213D01*
X118100505Y-134581414D01*
X118157422Y-134683720D01*
X118203740Y-134766873D01*
X118238202Y-134828614D01*
X118259554Y-134866684D01*
X118266385Y-134878636D01*
X118276021Y-134881838D01*
X118298497Y-134878073D01*
X118336145Y-134866440D01*
X118391298Y-134846040D01*
X118466287Y-134815973D01*
X118563444Y-134775338D01*
X118685100Y-134723235D01*
X118814909Y-134666908D01*
X118936834Y-134614153D01*
X119049536Y-134566107D01*
X119149734Y-134524114D01*
X119234144Y-134489519D01*
X119299484Y-134463666D01*
X119342473Y-134447901D01*
X119359827Y-134443567D01*
X119359939Y-134443647D01*
X119359895Y-134460542D01*
X119356963Y-134506818D01*
X119351339Y-134580252D01*
X119343221Y-134678627D01*
X119332804Y-134799721D01*
X119320286Y-134941315D01*
X119305863Y-135101188D01*
X119289732Y-135277121D01*
X119272089Y-135466894D01*
X119253131Y-135668286D01*
X119233055Y-135879077D01*
X119229694Y-135914132D01*
X119209424Y-136126162D01*
X119190174Y-136329092D01*
X119172145Y-136520710D01*
X119155538Y-136698800D01*
X119140555Y-136861150D01*
X119127398Y-137005546D01*
X119116268Y-137129774D01*
X119107366Y-137231621D01*
X119100894Y-137308874D01*
X119097053Y-137359317D01*
X119096045Y-137380739D01*
X119096165Y-137381331D01*
X119108892Y-137372301D01*
X119143193Y-137343959D01*
X119196959Y-137298142D01*
X119268083Y-137236686D01*
X119354455Y-137161427D01*
X119453967Y-137074200D01*
X119564512Y-136976843D01*
X119683980Y-136871190D01*
X119789639Y-136777418D01*
X119915215Y-136665987D01*
X120033820Y-136561117D01*
X120143322Y-136464671D01*
X120241583Y-136378510D01*
X120326471Y-136304498D01*
X120395849Y-136244497D01*
X120447582Y-136200369D01*
X120479537Y-136173977D01*
X120489508Y-136166875D01*
X120494355Y-136170429D01*
X120501802Y-136182851D01*
X120512882Y-136206781D01*
X120528627Y-136244857D01*
X120550069Y-136299720D01*
X120578242Y-136374007D01*
X120614178Y-136470358D01*
X120658909Y-136591413D01*
X120710561Y-136731892D01*
X120757722Y-136860346D01*
X120622443Y-137016407D01*
X120447904Y-137222868D01*
X120264836Y-137448916D01*
X120075805Y-137690877D01*
X119883379Y-137945079D01*
X119690127Y-138207849D01*
X119498616Y-138475514D01*
X119311415Y-138744401D01*
X119131090Y-139010838D01*
X118960210Y-139271151D01*
X118801344Y-139521667D01*
X118657058Y-139758715D01*
X118529920Y-139978620D01*
X118453125Y-140119214D01*
X118366913Y-140281607D01*
X118314545Y-140205493D01*
X118214715Y-140049541D01*
X118111272Y-139867787D01*
X118006701Y-139665588D01*
X117903492Y-139448299D01*
X117804132Y-139221279D01*
X117711109Y-138989882D01*
X117626909Y-138759465D01*
X117585373Y-138635437D01*
X117510473Y-138391266D01*
X117435503Y-138123029D01*
X117362351Y-137838349D01*
X117292910Y-137544849D01*
X117229067Y-137250152D01*
X117179398Y-136997917D01*
X117134419Y-136757397D01*
X117052692Y-137164604D01*
X116962376Y-137588659D01*
X116867234Y-137983629D01*
X116766410Y-138351932D01*
X116659047Y-138695986D01*
X116544290Y-139018205D01*
X116421283Y-139321009D01*
X116289171Y-139606812D01*
X116147096Y-139878033D01*
X116007800Y-140115226D01*
X115969873Y-140175487D01*
X115937453Y-140225107D01*
X115914470Y-140258186D01*
X115905548Y-140268755D01*
X115893765Y-140258831D01*
X115871830Y-140226211D01*
X115843477Y-140176753D01*
X115826882Y-140145247D01*
X115734612Y-139973322D01*
X115623689Y-139780732D01*
X115496367Y-139570706D01*
X115354900Y-139346475D01*
X115201542Y-139111267D01*
X115038547Y-138868313D01*
X114868168Y-138620842D01*
X114692660Y-138372085D01*
X114514277Y-138125270D01*
X114335272Y-137883629D01*
X114157899Y-137650390D01*
X113984412Y-137428783D01*
X113817065Y-137222038D01*
X113658112Y-137033385D01*
X113643431Y-137016407D01*
X113508152Y-136860346D01*
X113555313Y-136731892D01*
X113609375Y-136584871D01*
X113653656Y-136465065D01*
X113689190Y-136369836D01*
X113717005Y-136296548D01*
X113738134Y-136242561D01*
X113753608Y-136205239D01*
X113764457Y-136181944D01*
X113771713Y-136170038D01*
X113776197Y-136166875D01*
X113790091Y-136177131D01*
X113825544Y-136206660D01*
X113880422Y-136253599D01*
X113952590Y-136316088D01*
X114039913Y-136392265D01*
X114140257Y-136480269D01*
X114251486Y-136578237D01*
X114371465Y-136684310D01*
X114476243Y-136777241D01*
X114601625Y-136888402D01*
X114719847Y-136992819D01*
X114828798Y-137088656D01*
X114926372Y-137174076D01*
X115010459Y-137247245D01*
X115078951Y-137306327D01*
X115129740Y-137349486D01*
X115160717Y-137374886D01*
X115169886Y-137381155D01*
X115169340Y-137364769D01*
X115165929Y-137318996D01*
X115159855Y-137246047D01*
X115151319Y-137148136D01*
X115140524Y-137027477D01*
X115127671Y-136886282D01*
X115112961Y-136726765D01*
X115096597Y-136551140D01*
X115078780Y-136361619D01*
X115059712Y-136160415D01*
X115057248Y-136134605D01*
X116556101Y-136134605D01*
X116561901Y-136136298D01*
X116585228Y-136119119D01*
X116621226Y-136086710D01*
X116625884Y-136082243D01*
X116682043Y-136035494D01*
X116751828Y-135987576D01*
X116815437Y-135951351D01*
X116957127Y-135897549D01*
X117100958Y-135874577D01*
X117243791Y-135881959D01*
X117382488Y-135919218D01*
X117513908Y-135985876D01*
X117627906Y-136074823D01*
X117668533Y-136111018D01*
X117697373Y-136133157D01*
X117709665Y-136137718D01*
X117709412Y-136135125D01*
X117703288Y-136116031D01*
X117688574Y-136069343D01*
X117666120Y-135997780D01*
X117636776Y-135904061D01*
X117601392Y-135790904D01*
X117560819Y-135661030D01*
X117515907Y-135517157D01*
X117467506Y-135362004D01*
X117419005Y-135206437D01*
X117368288Y-135043805D01*
X117320405Y-134890439D01*
X117276184Y-134748979D01*
X117236453Y-134622066D01*
X117202040Y-134512338D01*
X117173772Y-134422436D01*
X117152478Y-134355000D01*
X117138986Y-134312670D01*
X117134134Y-134298092D01*
X117129037Y-134312180D01*
X117115338Y-134353978D01*
X117093864Y-134420878D01*
X117065438Y-134510271D01*
X117030885Y-134619548D01*
X116991031Y-134746101D01*
X116946699Y-134887321D01*
X116898715Y-135040601D01*
X116848017Y-135202967D01*
X116796958Y-135366622D01*
X116748571Y-135521572D01*
X116703707Y-135665105D01*
X116663213Y-135794512D01*
X116627941Y-135907078D01*
X116598740Y-136000094D01*
X116576459Y-136070848D01*
X116561948Y-136116628D01*
X116556101Y-136134605D01*
X115057248Y-136134605D01*
X115039595Y-135949743D01*
X115036180Y-135914132D01*
X115015941Y-135702017D01*
X114996792Y-135498937D01*
X114978929Y-135307113D01*
X114962548Y-135128765D01*
X114947845Y-134966113D01*
X114935018Y-134821378D01*
X114924261Y-134696779D01*
X114915773Y-134594538D01*
X114909749Y-134516875D01*
X114906385Y-134466009D01*
X114905879Y-134444161D01*
X114906080Y-134443502D01*
X114922419Y-134447323D01*
X114964513Y-134462615D01*
X115029070Y-134488034D01*
X115112795Y-134522234D01*
X115212396Y-134563870D01*
X115324580Y-134611596D01*
X115446054Y-134664066D01*
X115448565Y-134665159D01*
X115570067Y-134717975D01*
X115682121Y-134766563D01*
X115781463Y-134809518D01*
X115864828Y-134845433D01*
X115928952Y-134872901D01*
X115970569Y-134890516D01*
X115986416Y-134896872D01*
X115986448Y-134896874D01*
X115994832Y-134883344D01*
X116017361Y-134844202D01*
X116052816Y-134781625D01*
X116099982Y-134697789D01*
X116157640Y-134594869D01*
X116224574Y-134475041D01*
X116299567Y-134340480D01*
X116381402Y-134193363D01*
X116468861Y-134035865D01*
X116554484Y-133881431D01*
X116646276Y-133716131D01*
X116733837Y-133559192D01*
X116815927Y-133412793D01*
X116891304Y-133279112D01*
X116958726Y-133160328D01*
X117016954Y-133058620D01*
X117064745Y-132976167D01*
X117100858Y-132915146D01*
X117124052Y-132877738D01*
X117132937Y-132866048D01*
X117143053Y-132879595D01*
D12*
X108830000Y-97280000D02*
X108830000Y-103280000D01*
X108830000Y-103280000D02*
X114110000Y-103280000D01*
X114110000Y-103280000D02*
X114110000Y-97280000D01*
X114110000Y-97280000D02*
X108830000Y-97280000D01*
X110200000Y-103280000D02*
X110200000Y-102280000D01*
X110200000Y-102280000D02*
X112740000Y-102280000D01*
X112740000Y-102280000D02*
X112740000Y-103280000D01*
X110200000Y-102280000D02*
X110450000Y-101850000D01*
X110450000Y-101850000D02*
X112490000Y-101850000D01*
X112490000Y-101850000D02*
X112740000Y-102280000D01*
X110450000Y-103280000D02*
X110450000Y-102280000D01*
X112490000Y-103280000D02*
X112490000Y-102280000D01*
X109400000Y-97280000D02*
X109400000Y-97900000D01*
X109400000Y-97900000D02*
X111000000Y-97900000D01*
X111000000Y-97900000D02*
X111000000Y-97280000D01*
X111940000Y-97280000D02*
X111940000Y-97900000D01*
X111940000Y-97900000D02*
X113540000Y-97900000D01*
X113540000Y-97900000D02*
X113540000Y-97280000D01*
X121320000Y-107760000D02*
X122250000Y-107760000D01*
X124480000Y-107760000D02*
X123550000Y-107760000D01*
X124480000Y-107760000D02*
X124480000Y-104600000D01*
X121320000Y-107760000D02*
X121320000Y-106300000D01*
X127020000Y-107760000D02*
X127950000Y-107760000D01*
X130180000Y-107760000D02*
X129250000Y-107760000D01*
X130180000Y-107760000D02*
X130180000Y-104600000D01*
X127020000Y-107760000D02*
X127020000Y-106300000D01*
X102100000Y-98475000D02*
X103100000Y-98475000D01*
X103100000Y-96775000D02*
X102100000Y-96775000D01*
D11*
X100969000Y-93910000D02*
X100969000Y-86290000D01*
X114431000Y-86290000D02*
X114431000Y-93910000D01*
X100969000Y-86290000D02*
X114431000Y-86290000D01*
X114431000Y-93910000D02*
X100969000Y-93910000D01*
X100969000Y-89592000D02*
X101731000Y-89592000D01*
X101731000Y-89592000D02*
X101731000Y-90608000D01*
X101731000Y-90608000D02*
X100969000Y-90608000D01*
D12*
X104915000Y-101300000D02*
X104915000Y-101360000D01*
X104915000Y-101360000D02*
X107035000Y-101360000D01*
X107035000Y-101360000D02*
X107035000Y-101300000D01*
X107035000Y-101300000D02*
X104915000Y-101300000D01*
X104915000Y-100300000D02*
X104915000Y-99240000D01*
X104915000Y-99240000D02*
X105975000Y-99240000D01*
X115255000Y-124900000D02*
X115255000Y-126100000D01*
X113495000Y-126100000D02*
X113495000Y-124900000D01*
X129105000Y-124900000D02*
X129105000Y-126100000D01*
X127345000Y-126100000D02*
X127345000Y-124900000D01*
X122670000Y-126100000D02*
X122670000Y-124900000D01*
X124430000Y-124900000D02*
X124430000Y-126100000D01*
X118320000Y-126100000D02*
X118320000Y-124900000D01*
X120080000Y-124900000D02*
X120080000Y-126100000D01*
X144680000Y-90915000D02*
X139480000Y-90915000D01*
X144680000Y-108755000D02*
X144680000Y-90915000D01*
X139480000Y-111355000D02*
X139480000Y-90915000D01*
X144680000Y-108755000D02*
X142080000Y-108755000D01*
X142080000Y-108755000D02*
X142080000Y-111355000D01*
X142080000Y-111355000D02*
X139480000Y-111355000D01*
X144680000Y-110025000D02*
X144680000Y-111355000D01*
X144680000Y-111355000D02*
X143350000Y-111355000D01*
D11*
X115551190Y-108847381D02*
X115884523Y-109847381D01*
X116217857Y-108847381D01*
X116694047Y-109847381D02*
X116598809Y-109799762D01*
X116551190Y-109752143D01*
X116503571Y-109656905D01*
X116503571Y-109371190D01*
X116551190Y-109275952D01*
X116598809Y-109228333D01*
X116694047Y-109180714D01*
X116836905Y-109180714D01*
X116932143Y-109228333D01*
X116979762Y-109275952D01*
X117027381Y-109371190D01*
X117027381Y-109656905D01*
X116979762Y-109752143D01*
X116932143Y-109799762D01*
X116836905Y-109847381D01*
X116694047Y-109847381D01*
X117884524Y-109180714D02*
X117884524Y-109847381D01*
X117455952Y-109180714D02*
X117455952Y-109704524D01*
X117503571Y-109799762D01*
X117598809Y-109847381D01*
X117741667Y-109847381D01*
X117836905Y-109799762D01*
X117884524Y-109752143D01*
X118217857Y-109180714D02*
X118598809Y-109180714D01*
X118360714Y-108847381D02*
X118360714Y-109704524D01*
X118408333Y-109799762D01*
X118503571Y-109847381D01*
X118598809Y-109847381D01*
X116313096Y-111435000D02*
X116217858Y-111387381D01*
X116075001Y-111387381D01*
X115932143Y-111435000D01*
X115836905Y-111530238D01*
X115789286Y-111625476D01*
X115741667Y-111815952D01*
X115741667Y-111958810D01*
X115789286Y-112149286D01*
X115836905Y-112244524D01*
X115932143Y-112339762D01*
X116075001Y-112387381D01*
X116170239Y-112387381D01*
X116313096Y-112339762D01*
X116360715Y-112292143D01*
X116360715Y-111958810D01*
X116170239Y-111958810D01*
X116789286Y-112387381D02*
X116789286Y-111387381D01*
X117360715Y-112387381D01*
X117360715Y-111387381D01*
X117836905Y-112387381D02*
X117836905Y-111387381D01*
X118075000Y-111387381D01*
X118217858Y-111435000D01*
X118313096Y-111530238D01*
X118360715Y-111625476D01*
X118408334Y-111815952D01*
X118408334Y-111958810D01*
X118360715Y-112149286D01*
X118313096Y-112244524D01*
X118217858Y-112339762D01*
X118075000Y-112387381D01*
X117836905Y-112387381D01*
X116051191Y-113927381D02*
X116384524Y-114927381D01*
X116717858Y-113927381D01*
X117051191Y-114927381D02*
X117051191Y-114260714D01*
X117051191Y-113927381D02*
X117003572Y-113975000D01*
X117051191Y-114022619D01*
X117098810Y-113975000D01*
X117051191Y-113927381D01*
X117051191Y-114022619D01*
X117527381Y-114260714D02*
X117527381Y-114927381D01*
X117527381Y-114355952D02*
X117575000Y-114308333D01*
X117670238Y-114260714D01*
X117813096Y-114260714D01*
X117908334Y-114308333D01*
X117955953Y-114403571D01*
X117955953Y-114927381D01*
X129957143Y-103402381D02*
X129623809Y-102926190D01*
X129385714Y-103402381D02*
X129385714Y-102402381D01*
X129766667Y-102402381D01*
X129861905Y-102450000D01*
X129909524Y-102497619D01*
X129957143Y-102592857D01*
X129957143Y-102735714D01*
X129909524Y-102830952D01*
X129861905Y-102878571D01*
X129766667Y-102926190D01*
X129385714Y-102926190D01*
X130338095Y-102497619D02*
X130385714Y-102450000D01*
X130480952Y-102402381D01*
X130719048Y-102402381D01*
X130814286Y-102450000D01*
X130861905Y-102497619D01*
X130909524Y-102592857D01*
X130909524Y-102688095D01*
X130861905Y-102830952D01*
X130290476Y-103402381D01*
X130909524Y-103402381D01*
X131242857Y-102402381D02*
X131909524Y-102402381D01*
X131480952Y-103402381D01*
X124432381Y-81898810D02*
X125432381Y-81565477D01*
X124432381Y-81232143D01*
X125432381Y-80755953D02*
X125384762Y-80851191D01*
X125337143Y-80898810D01*
X125241905Y-80946429D01*
X124956190Y-80946429D01*
X124860952Y-80898810D01*
X124813333Y-80851191D01*
X124765714Y-80755953D01*
X124765714Y-80613095D01*
X124813333Y-80517857D01*
X124860952Y-80470238D01*
X124956190Y-80422619D01*
X125241905Y-80422619D01*
X125337143Y-80470238D01*
X125384762Y-80517857D01*
X125432381Y-80613095D01*
X125432381Y-80755953D01*
X124765714Y-79565476D02*
X125432381Y-79565476D01*
X124765714Y-79994048D02*
X125289524Y-79994048D01*
X125384762Y-79946429D01*
X125432381Y-79851191D01*
X125432381Y-79708333D01*
X125384762Y-79613095D01*
X125337143Y-79565476D01*
X124765714Y-79232143D02*
X124765714Y-78851191D01*
X124432381Y-79089286D02*
X125289524Y-79089286D01*
X125384762Y-79041667D01*
X125432381Y-78946429D01*
X125432381Y-78851191D01*
X121940000Y-81136904D02*
X121892381Y-81232142D01*
X121892381Y-81374999D01*
X121940000Y-81517857D01*
X122035238Y-81613095D01*
X122130476Y-81660714D01*
X122320952Y-81708333D01*
X122463810Y-81708333D01*
X122654286Y-81660714D01*
X122749524Y-81613095D01*
X122844762Y-81517857D01*
X122892381Y-81374999D01*
X122892381Y-81279761D01*
X122844762Y-81136904D01*
X122797143Y-81089285D01*
X122463810Y-81089285D01*
X122463810Y-81279761D01*
X122892381Y-80660714D02*
X121892381Y-80660714D01*
X122892381Y-80089285D01*
X121892381Y-80089285D01*
X122892381Y-79613095D02*
X121892381Y-79613095D01*
X121892381Y-79375000D01*
X121940000Y-79232142D01*
X122035238Y-79136904D01*
X122130476Y-79089285D01*
X122320952Y-79041666D01*
X122463810Y-79041666D01*
X122654286Y-79089285D01*
X122749524Y-79136904D01*
X122844762Y-79232142D01*
X122892381Y-79375000D01*
X122892381Y-79613095D01*
X119352381Y-81398809D02*
X120352381Y-81065476D01*
X119352381Y-80732142D01*
X120352381Y-80398809D02*
X119685714Y-80398809D01*
X119352381Y-80398809D02*
X119400000Y-80446428D01*
X119447619Y-80398809D01*
X119400000Y-80351190D01*
X119352381Y-80398809D01*
X119447619Y-80398809D01*
X119685714Y-79922619D02*
X120352381Y-79922619D01*
X119780952Y-79922619D02*
X119733333Y-79875000D01*
X119685714Y-79779762D01*
X119685714Y-79636904D01*
X119733333Y-79541666D01*
X119828571Y-79494047D01*
X120352381Y-79494047D01*
X110983334Y-118257143D02*
X110935715Y-118304762D01*
X110792858Y-118352381D01*
X110697620Y-118352381D01*
X110554762Y-118304762D01*
X110459524Y-118209524D01*
X110411905Y-118114286D01*
X110364286Y-117923810D01*
X110364286Y-117780952D01*
X110411905Y-117590476D01*
X110459524Y-117495238D01*
X110554762Y-117400000D01*
X110697620Y-117352381D01*
X110792858Y-117352381D01*
X110935715Y-117400000D01*
X110983334Y-117447619D01*
X111364286Y-117447619D02*
X111411905Y-117400000D01*
X111507143Y-117352381D01*
X111745239Y-117352381D01*
X111840477Y-117400000D01*
X111888096Y-117447619D01*
X111935715Y-117542857D01*
X111935715Y-117638095D01*
X111888096Y-117780952D01*
X111316667Y-118352381D01*
X111935715Y-118352381D01*
X110958334Y-106782143D02*
X110910715Y-106829762D01*
X110767858Y-106877381D01*
X110672620Y-106877381D01*
X110529762Y-106829762D01*
X110434524Y-106734524D01*
X110386905Y-106639286D01*
X110339286Y-106448810D01*
X110339286Y-106305952D01*
X110386905Y-106115476D01*
X110434524Y-106020238D01*
X110529762Y-105925000D01*
X110672620Y-105877381D01*
X110767858Y-105877381D01*
X110910715Y-105925000D01*
X110958334Y-105972619D01*
X111291667Y-105877381D02*
X111910715Y-105877381D01*
X111577381Y-106258333D01*
X111720239Y-106258333D01*
X111815477Y-106305952D01*
X111863096Y-106353571D01*
X111910715Y-106448810D01*
X111910715Y-106686905D01*
X111863096Y-106782143D01*
X111815477Y-106829762D01*
X111720239Y-106877381D01*
X111434524Y-106877381D01*
X111339286Y-106829762D01*
X111291667Y-106782143D01*
X139133334Y-115777381D02*
X138800000Y-115301190D01*
X138561905Y-115777381D02*
X138561905Y-114777381D01*
X138942858Y-114777381D01*
X139038096Y-114825000D01*
X139085715Y-114872619D01*
X139133334Y-114967857D01*
X139133334Y-115110714D01*
X139085715Y-115205952D01*
X139038096Y-115253571D01*
X138942858Y-115301190D01*
X138561905Y-115301190D01*
X140085715Y-115777381D02*
X139514286Y-115777381D01*
X139800000Y-115777381D02*
X139800000Y-114777381D01*
X139704762Y-114920238D01*
X139609524Y-115015476D01*
X139514286Y-115063095D01*
X126383334Y-86477381D02*
X126050000Y-86001190D01*
X125811905Y-86477381D02*
X125811905Y-85477381D01*
X126192858Y-85477381D01*
X126288096Y-85525000D01*
X126335715Y-85572619D01*
X126383334Y-85667857D01*
X126383334Y-85810714D01*
X126335715Y-85905952D01*
X126288096Y-85953571D01*
X126192858Y-86001190D01*
X125811905Y-86001190D01*
X126764286Y-85572619D02*
X126811905Y-85525000D01*
X126907143Y-85477381D01*
X127145239Y-85477381D01*
X127240477Y-85525000D01*
X127288096Y-85572619D01*
X127335715Y-85667857D01*
X127335715Y-85763095D01*
X127288096Y-85905952D01*
X126716667Y-86477381D01*
X127335715Y-86477381D01*
X118683334Y-86552381D02*
X118350000Y-86076190D01*
X118111905Y-86552381D02*
X118111905Y-85552381D01*
X118492858Y-85552381D01*
X118588096Y-85600000D01*
X118635715Y-85647619D01*
X118683334Y-85742857D01*
X118683334Y-85885714D01*
X118635715Y-85980952D01*
X118588096Y-86028571D01*
X118492858Y-86076190D01*
X118111905Y-86076190D01*
X119254762Y-85980952D02*
X119159524Y-85933333D01*
X119111905Y-85885714D01*
X119064286Y-85790476D01*
X119064286Y-85742857D01*
X119111905Y-85647619D01*
X119159524Y-85600000D01*
X119254762Y-85552381D01*
X119445239Y-85552381D01*
X119540477Y-85600000D01*
X119588096Y-85647619D01*
X119635715Y-85742857D01*
X119635715Y-85790476D01*
X119588096Y-85885714D01*
X119540477Y-85933333D01*
X119445239Y-85980952D01*
X119254762Y-85980952D01*
X119159524Y-86028571D01*
X119111905Y-86076190D01*
X119064286Y-86171429D01*
X119064286Y-86361905D01*
X119111905Y-86457143D01*
X119159524Y-86504762D01*
X119254762Y-86552381D01*
X119445239Y-86552381D01*
X119540477Y-86504762D01*
X119588096Y-86457143D01*
X119635715Y-86361905D01*
X119635715Y-86171429D01*
X119588096Y-86076190D01*
X119540477Y-86028571D01*
X119445239Y-85980952D01*
X122883334Y-102702381D02*
X122550000Y-102226190D01*
X122311905Y-102702381D02*
X122311905Y-101702381D01*
X122692858Y-101702381D01*
X122788096Y-101750000D01*
X122835715Y-101797619D01*
X122883334Y-101892857D01*
X122883334Y-102035714D01*
X122835715Y-102130952D01*
X122788096Y-102178571D01*
X122692858Y-102226190D01*
X122311905Y-102226190D01*
X123359524Y-102702381D02*
X123550000Y-102702381D01*
X123645239Y-102654762D01*
X123692858Y-102607143D01*
X123788096Y-102464286D01*
X123835715Y-102273810D01*
X123835715Y-101892857D01*
X123788096Y-101797619D01*
X123740477Y-101750000D01*
X123645239Y-101702381D01*
X123454762Y-101702381D01*
X123359524Y-101750000D01*
X123311905Y-101797619D01*
X123264286Y-101892857D01*
X123264286Y-102130952D01*
X123311905Y-102226190D01*
X123359524Y-102273810D01*
X123454762Y-102321429D01*
X123645239Y-102321429D01*
X123740477Y-102273810D01*
X123788096Y-102226190D01*
X123835715Y-102130952D01*
X135582143Y-115702381D02*
X135248809Y-115226190D01*
X135010714Y-115702381D02*
X135010714Y-114702381D01*
X135391667Y-114702381D01*
X135486905Y-114750000D01*
X135534524Y-114797619D01*
X135582143Y-114892857D01*
X135582143Y-115035714D01*
X135534524Y-115130952D01*
X135486905Y-115178571D01*
X135391667Y-115226190D01*
X135010714Y-115226190D01*
X135963095Y-114797619D02*
X136010714Y-114750000D01*
X136105952Y-114702381D01*
X136344048Y-114702381D01*
X136439286Y-114750000D01*
X136486905Y-114797619D01*
X136534524Y-114892857D01*
X136534524Y-114988095D01*
X136486905Y-115130952D01*
X135915476Y-115702381D01*
X136534524Y-115702381D01*
X137391667Y-115035714D02*
X137391667Y-115702381D01*
X137153571Y-114654762D02*
X136915476Y-115369048D01*
X137534524Y-115369048D01*
X139738095Y-135652381D02*
X140309524Y-135652381D01*
X140023809Y-136652381D02*
X140023809Y-135652381D01*
X140642857Y-136652381D02*
X140642857Y-135652381D01*
X141023810Y-135652381D01*
X141119048Y-135700000D01*
X141166667Y-135747619D01*
X141214286Y-135842857D01*
X141214286Y-135985714D01*
X141166667Y-136080952D01*
X141119048Y-136128571D01*
X141023810Y-136176190D01*
X140642857Y-136176190D01*
X141595238Y-135747619D02*
X141642857Y-135700000D01*
X141738095Y-135652381D01*
X141976191Y-135652381D01*
X142071429Y-135700000D01*
X142119048Y-135747619D01*
X142166667Y-135842857D01*
X142166667Y-135938095D01*
X142119048Y-136080952D01*
X141547619Y-136652381D01*
X142166667Y-136652381D01*
X113738095Y-79227381D02*
X114309524Y-79227381D01*
X114023809Y-80227381D02*
X114023809Y-79227381D01*
X114642857Y-80227381D02*
X114642857Y-79227381D01*
X115023810Y-79227381D01*
X115119048Y-79275000D01*
X115166667Y-79322619D01*
X115214286Y-79417857D01*
X115214286Y-79560714D01*
X115166667Y-79655952D01*
X115119048Y-79703571D01*
X115023810Y-79751190D01*
X114642857Y-79751190D01*
X115547619Y-79227381D02*
X116166667Y-79227381D01*
X115833333Y-79608333D01*
X115976191Y-79608333D01*
X116071429Y-79655952D01*
X116119048Y-79703571D01*
X116166667Y-79798810D01*
X116166667Y-80036905D01*
X116119048Y-80132143D01*
X116071429Y-80179762D01*
X115976191Y-80227381D01*
X115690476Y-80227381D01*
X115595238Y-80179762D01*
X115547619Y-80132143D01*
X133757143Y-107852381D02*
X133423809Y-107376190D01*
X133185714Y-107852381D02*
X133185714Y-106852381D01*
X133566667Y-106852381D01*
X133661905Y-106900000D01*
X133709524Y-106947619D01*
X133757143Y-107042857D01*
X133757143Y-107185714D01*
X133709524Y-107280952D01*
X133661905Y-107328571D01*
X133566667Y-107376190D01*
X133185714Y-107376190D01*
X134138095Y-106947619D02*
X134185714Y-106900000D01*
X134280952Y-106852381D01*
X134519048Y-106852381D01*
X134614286Y-106900000D01*
X134661905Y-106947619D01*
X134709524Y-107042857D01*
X134709524Y-107138095D01*
X134661905Y-107280952D01*
X134090476Y-107852381D01*
X134709524Y-107852381D01*
X135566667Y-106852381D02*
X135376190Y-106852381D01*
X135280952Y-106900000D01*
X135233333Y-106947619D01*
X135138095Y-107090476D01*
X135090476Y-107280952D01*
X135090476Y-107661905D01*
X135138095Y-107757143D01*
X135185714Y-107804762D01*
X135280952Y-107852381D01*
X135471429Y-107852381D01*
X135566667Y-107804762D01*
X135614286Y-107757143D01*
X135661905Y-107661905D01*
X135661905Y-107423810D01*
X135614286Y-107328571D01*
X135566667Y-107280952D01*
X135471429Y-107233333D01*
X135280952Y-107233333D01*
X135185714Y-107280952D01*
X135138095Y-107328571D01*
X135090476Y-107423810D01*
X122804762Y-111247619D02*
X122709524Y-111200000D01*
X122614286Y-111104762D01*
X122471429Y-110961905D01*
X122376190Y-110914286D01*
X122280952Y-110914286D01*
X122328571Y-111152381D02*
X122233333Y-111104762D01*
X122138095Y-111009524D01*
X122090476Y-110819048D01*
X122090476Y-110485714D01*
X122138095Y-110295238D01*
X122233333Y-110200000D01*
X122328571Y-110152381D01*
X122519048Y-110152381D01*
X122614286Y-110200000D01*
X122709524Y-110295238D01*
X122757143Y-110485714D01*
X122757143Y-110819048D01*
X122709524Y-111009524D01*
X122614286Y-111104762D01*
X122519048Y-111152381D01*
X122328571Y-111152381D01*
X123614286Y-110485714D02*
X123614286Y-111152381D01*
X123376190Y-110104762D02*
X123138095Y-110819048D01*
X123757143Y-110819048D01*
X128504762Y-111247619D02*
X128409524Y-111200000D01*
X128314286Y-111104762D01*
X128171429Y-110961905D01*
X128076190Y-110914286D01*
X127980952Y-110914286D01*
X128028571Y-111152381D02*
X127933333Y-111104762D01*
X127838095Y-111009524D01*
X127790476Y-110819048D01*
X127790476Y-110485714D01*
X127838095Y-110295238D01*
X127933333Y-110200000D01*
X128028571Y-110152381D01*
X128219048Y-110152381D01*
X128314286Y-110200000D01*
X128409524Y-110295238D01*
X128457143Y-110485714D01*
X128457143Y-110819048D01*
X128409524Y-111009524D01*
X128314286Y-111104762D01*
X128219048Y-111152381D01*
X128028571Y-111152381D01*
X129361905Y-110152381D02*
X128885714Y-110152381D01*
X128838095Y-110628571D01*
X128885714Y-110580952D01*
X128980952Y-110533333D01*
X129219048Y-110533333D01*
X129314286Y-110580952D01*
X129361905Y-110628571D01*
X129409524Y-110723810D01*
X129409524Y-110961905D01*
X129361905Y-111057143D01*
X129314286Y-111104762D01*
X129219048Y-111152381D01*
X128980952Y-111152381D01*
X128885714Y-111104762D01*
X128838095Y-111057143D01*
X105783334Y-97857143D02*
X105735715Y-97904762D01*
X105592858Y-97952381D01*
X105497620Y-97952381D01*
X105354762Y-97904762D01*
X105259524Y-97809524D01*
X105211905Y-97714286D01*
X105164286Y-97523810D01*
X105164286Y-97380952D01*
X105211905Y-97190476D01*
X105259524Y-97095238D01*
X105354762Y-97000000D01*
X105497620Y-96952381D01*
X105592858Y-96952381D01*
X105735715Y-97000000D01*
X105783334Y-97047619D01*
X106640477Y-97285714D02*
X106640477Y-97952381D01*
X106402381Y-96904762D02*
X106164286Y-97619048D01*
X106783334Y-97619048D01*
X114727381Y-130567857D02*
X114251190Y-130901191D01*
X114727381Y-131139286D02*
X113727381Y-131139286D01*
X113727381Y-130758333D01*
X113775000Y-130663095D01*
X113822619Y-130615476D01*
X113917857Y-130567857D01*
X114060714Y-130567857D01*
X114155952Y-130615476D01*
X114203571Y-130663095D01*
X114251190Y-130758333D01*
X114251190Y-131139286D01*
X114727381Y-129615476D02*
X114727381Y-130186905D01*
X114727381Y-129901191D02*
X113727381Y-129901191D01*
X113870238Y-129996429D01*
X113965476Y-130091667D01*
X114013095Y-130186905D01*
X113822619Y-129234524D02*
X113775000Y-129186905D01*
X113727381Y-129091667D01*
X113727381Y-128853571D01*
X113775000Y-128758333D01*
X113822619Y-128710714D01*
X113917857Y-128663095D01*
X114013095Y-128663095D01*
X114155952Y-128710714D01*
X114727381Y-129282143D01*
X114727381Y-128663095D01*
X128702381Y-130567857D02*
X128226190Y-130901191D01*
X128702381Y-131139286D02*
X127702381Y-131139286D01*
X127702381Y-130758333D01*
X127750000Y-130663095D01*
X127797619Y-130615476D01*
X127892857Y-130567857D01*
X128035714Y-130567857D01*
X128130952Y-130615476D01*
X128178571Y-130663095D01*
X128226190Y-130758333D01*
X128226190Y-131139286D01*
X128702381Y-129615476D02*
X128702381Y-130186905D01*
X128702381Y-129901191D02*
X127702381Y-129901191D01*
X127845238Y-129996429D01*
X127940476Y-130091667D01*
X127988095Y-130186905D01*
X127702381Y-129282143D02*
X127702381Y-128663095D01*
X128083333Y-128996429D01*
X128083333Y-128853571D01*
X128130952Y-128758333D01*
X128178571Y-128710714D01*
X128273810Y-128663095D01*
X128511905Y-128663095D01*
X128607143Y-128710714D01*
X128654762Y-128758333D01*
X128702381Y-128853571D01*
X128702381Y-129139286D01*
X128654762Y-129234524D01*
X128607143Y-129282143D01*
X123952381Y-130492857D02*
X123476190Y-130826191D01*
X123952381Y-131064286D02*
X122952381Y-131064286D01*
X122952381Y-130683333D01*
X123000000Y-130588095D01*
X123047619Y-130540476D01*
X123142857Y-130492857D01*
X123285714Y-130492857D01*
X123380952Y-130540476D01*
X123428571Y-130588095D01*
X123476190Y-130683333D01*
X123476190Y-131064286D01*
X123952381Y-129540476D02*
X123952381Y-130111905D01*
X123952381Y-129826191D02*
X122952381Y-129826191D01*
X123095238Y-129921429D01*
X123190476Y-130016667D01*
X123238095Y-130111905D01*
X123285714Y-128683333D02*
X123952381Y-128683333D01*
X122904762Y-128921429D02*
X123619048Y-129159524D01*
X123619048Y-128540476D01*
X119652381Y-130567857D02*
X119176190Y-130901191D01*
X119652381Y-131139286D02*
X118652381Y-131139286D01*
X118652381Y-130758333D01*
X118700000Y-130663095D01*
X118747619Y-130615476D01*
X118842857Y-130567857D01*
X118985714Y-130567857D01*
X119080952Y-130615476D01*
X119128571Y-130663095D01*
X119176190Y-130758333D01*
X119176190Y-131139286D01*
X119652381Y-129615476D02*
X119652381Y-130186905D01*
X119652381Y-129901191D02*
X118652381Y-129901191D01*
X118795238Y-129996429D01*
X118890476Y-130091667D01*
X118938095Y-130186905D01*
X118652381Y-128710714D02*
X118652381Y-129186905D01*
X119128571Y-129234524D01*
X119080952Y-129186905D01*
X119033333Y-129091667D01*
X119033333Y-128853571D01*
X119080952Y-128758333D01*
X119128571Y-128710714D01*
X119223810Y-128663095D01*
X119461905Y-128663095D01*
X119557143Y-128710714D01*
X119604762Y-128758333D01*
X119652381Y-128853571D01*
X119652381Y-129091667D01*
X119604762Y-129186905D01*
X119557143Y-129234524D01*
X141746667Y-111807381D02*
X141746667Y-112521667D01*
X141699047Y-112664524D01*
X141603809Y-112759762D01*
X141460952Y-112807381D01*
X141365714Y-112807381D01*
X142127619Y-111807381D02*
X142794286Y-111807381D01*
X142365714Y-112807381D01*
M02*
