G04 #@! TF.FileFunction,Soldermask,Top*
%FSLAX46Y46*%
G04 Gerber Fmt 4.6, Leading zero omitted, Abs format (unit mm)*
G04 Created by KiCad (PCBNEW 4.0.6) date Wednesday, October 04, 2017 'PMt' 10:34:30 PM*
%MOMM*%
%LPD*%
G01*
G04 APERTURE LIST*
%ADD10C,0.100000*%
%ADD11R,1.900000X2.900000*%
%ADD12O,1.900000X2.900000*%
%ADD13R,1.900000X1.900000*%
%ADD14C,1.900000*%
%ADD15C,2.400000*%
%ADD16R,2.900000X1.900000*%
%ADD17O,2.900000X1.900000*%
%ADD18R,1.750000X1.750000*%
%ADD19O,1.750000X1.750000*%
%ADD20C,6.800000*%
%ADD21R,1.650000X1.900000*%
%ADD22C,2.750000*%
%ADD23R,2.900000X2.900000*%
%ADD24C,2.900000*%
%ADD25R,2.100000X2.100000*%
%ADD26O,2.100000X2.100000*%
%ADD27R,2.400000X1.050000*%
%ADD28R,1.700000X1.900000*%
%ADD29R,1.900000X1.700000*%
%ADD30R,3.000000X2.400000*%
%ADD31O,3.000000X2.400000*%
%ADD32R,2.400000X3.000000*%
%ADD33O,2.400000X3.000000*%
%ADD34R,1.200000X2.300000*%
%ADD35R,1.900000X1.650000*%
%ADD36R,1.400000X2.500000*%
G04 APERTURE END LIST*
D10*
D11*
X119900000Y-77200000D03*
D12*
X122440000Y-77200000D03*
X124980000Y-77200000D03*
D13*
X121000000Y-99100000D03*
D14*
X123540000Y-99100000D03*
X126080000Y-99100000D03*
X128620000Y-99100000D03*
X131160000Y-99100000D03*
X131160000Y-88940000D03*
X128620000Y-88940000D03*
X126080000Y-88940000D03*
X123540000Y-88940000D03*
X121000000Y-88940000D03*
D15*
X135100000Y-143300000D03*
X110900000Y-143300000D03*
D16*
X112500000Y-114500000D03*
D17*
X112500000Y-111960000D03*
X112500000Y-109420000D03*
D18*
X139000000Y-106000000D03*
D19*
X141000000Y-106000000D03*
X139000000Y-104000000D03*
X141000000Y-104000000D03*
X139000000Y-102000000D03*
X141000000Y-102000000D03*
X139000000Y-100000000D03*
X141000000Y-100000000D03*
X139000000Y-98000000D03*
X141000000Y-98000000D03*
X139000000Y-96000000D03*
X141000000Y-96000000D03*
X139000000Y-94000000D03*
X141000000Y-94000000D03*
X139000000Y-92000000D03*
X141000000Y-92000000D03*
D20*
X104000000Y-145000000D03*
X141000000Y-145000000D03*
X141000000Y-80000000D03*
D21*
X109500000Y-115750000D03*
X109500000Y-113250000D03*
X109500000Y-108250000D03*
X109500000Y-110750000D03*
D22*
X104100000Y-133400000D03*
X104100000Y-138400000D03*
X104100000Y-123400000D03*
X104100000Y-118400000D03*
D23*
X103200000Y-111700000D03*
D24*
X103200000Y-106700000D03*
D25*
X142300000Y-117000000D03*
D26*
X142300000Y-114460000D03*
X142300000Y-111920000D03*
D27*
X114710000Y-124950000D03*
X114710000Y-123050000D03*
X111290000Y-124000000D03*
X124710000Y-124950000D03*
X124710000Y-123050000D03*
X121290000Y-124000000D03*
X134710000Y-124950000D03*
X134710000Y-123050000D03*
X131290000Y-124000000D03*
D28*
X139000000Y-112650000D03*
X139000000Y-115350000D03*
D29*
X131325000Y-86025000D03*
X128625000Y-86025000D03*
X123700000Y-86000000D03*
X121000000Y-86000000D03*
X127950000Y-102100000D03*
X125250000Y-102100000D03*
D28*
X115000000Y-127650000D03*
X115000000Y-130350000D03*
X115000000Y-138350000D03*
X115000000Y-135650000D03*
X111000000Y-135650000D03*
X111000000Y-138350000D03*
X111000000Y-130350000D03*
X111000000Y-127650000D03*
X125000000Y-127650000D03*
X125000000Y-130350000D03*
X125000000Y-138350000D03*
X125000000Y-135650000D03*
X121000000Y-135650000D03*
X121000000Y-138350000D03*
X121000000Y-130350000D03*
X121000000Y-127650000D03*
X135000000Y-127650000D03*
X135000000Y-130350000D03*
X135000000Y-138350000D03*
X135000000Y-135650000D03*
X131000000Y-135650000D03*
X131000000Y-138350000D03*
X131000000Y-130350000D03*
X131000000Y-127650000D03*
X135600000Y-115350000D03*
X135600000Y-112650000D03*
D18*
X142625000Y-85450000D03*
X138800000Y-85475000D03*
X141000000Y-134000000D03*
X115175000Y-77375000D03*
X102150000Y-100250000D03*
D20*
X104000000Y-80000000D03*
D30*
X141000000Y-129000000D03*
D31*
X141000000Y-126460000D03*
D32*
X131000000Y-79000000D03*
D33*
X133540000Y-79000000D03*
D32*
X109200000Y-78500000D03*
D33*
X111740000Y-78500000D03*
D29*
X133050000Y-105500000D03*
X135750000Y-105500000D03*
X133050000Y-102800000D03*
X135750000Y-102800000D03*
D32*
X110200000Y-100300000D03*
D33*
X112740000Y-100300000D03*
D34*
X123850000Y-105500000D03*
X121950000Y-105500000D03*
X122900000Y-108500000D03*
X129550000Y-105500000D03*
X127650000Y-105500000D03*
X128600000Y-108500000D03*
D35*
X103900000Y-97700000D03*
X106400000Y-97700000D03*
D36*
X101350000Y-95180000D03*
X103890000Y-95180000D03*
X106430000Y-95180000D03*
X111510000Y-95180000D03*
X114050000Y-95180000D03*
X114050000Y-85020000D03*
X111510000Y-85020000D03*
X106430000Y-85020000D03*
X103890000Y-85020000D03*
X101350000Y-85020000D03*
D18*
X105975000Y-100300000D03*
M02*
