G04 #@! TF.FileFunction,Copper,L1,Top,Signal*
%FSLAX46Y46*%
G04 Gerber Fmt 4.6, Leading zero omitted, Abs format (unit mm)*
G04 Created by KiCad (PCBNEW 4.0.6) date Tuesday, January 16, 2018 'PMt' 08:20:03 PM*
%MOMM*%
%LPD*%
G01*
G04 APERTURE LIST*
%ADD10C,0.100000*%
%ADD11C,2.350000*%
%ADD12R,2.500000X1.500000*%
%ADD13O,2.500000X1.500000*%
%ADD14R,1.500000X1.300000*%
%ADD15C,2.000000*%
%ADD16R,1.500000X1.500000*%
%ADD17C,1.500000*%
%ADD18R,1.500000X2.500000*%
%ADD19O,1.500000X2.500000*%
%ADD20C,6.400000*%
%ADD21R,1.250000X1.500000*%
%ADD22R,2.500000X2.500000*%
%ADD23C,2.500000*%
%ADD24R,1.700000X1.700000*%
%ADD25O,1.700000X1.700000*%
%ADD26R,1.300000X1.500000*%
%ADD27R,1.350000X1.350000*%
%ADD28R,2.600000X2.000000*%
%ADD29O,2.600000X2.000000*%
%ADD30R,2.000000X2.600000*%
%ADD31O,2.000000X2.600000*%
%ADD32R,0.800000X1.900000*%
%ADD33R,1.500000X1.250000*%
%ADD34R,1.000000X2.100000*%
%ADD35C,3.000000*%
%ADD36C,0.600000*%
%ADD37C,0.254000*%
%ADD38C,2.000000*%
%ADD39C,1.000000*%
G04 APERTURE END LIST*
D10*
D11*
X103400000Y-111825000D03*
X103400000Y-106825000D03*
X103400000Y-121825000D03*
X103400000Y-126825000D03*
D12*
X113900000Y-114475000D03*
D13*
X113900000Y-111935000D03*
X113900000Y-109395000D03*
D14*
X133050000Y-102800000D03*
X135750000Y-102800000D03*
D15*
X135100000Y-143300000D03*
X110900000Y-143300000D03*
D16*
X121000000Y-99100000D03*
D17*
X123540000Y-99100000D03*
X126080000Y-99100000D03*
X128620000Y-99100000D03*
X131160000Y-99100000D03*
X131160000Y-88940000D03*
X128620000Y-88940000D03*
X126080000Y-88940000D03*
X123540000Y-88940000D03*
X121000000Y-88940000D03*
D18*
X119900000Y-77200000D03*
D19*
X122440000Y-77200000D03*
X124980000Y-77200000D03*
D20*
X104000000Y-145000000D03*
X141000000Y-145000000D03*
X141000000Y-80000000D03*
D21*
X111150000Y-116050000D03*
X111150000Y-113550000D03*
X111125000Y-108375000D03*
X111125000Y-110875000D03*
D22*
X103375000Y-138300000D03*
D23*
X103375000Y-133300000D03*
D24*
X142375000Y-122500000D03*
D25*
X142375000Y-119960000D03*
X142375000Y-117420000D03*
D26*
X139175000Y-117400000D03*
X139175000Y-120100000D03*
D14*
X131325000Y-86025000D03*
X128625000Y-86025000D03*
X123700000Y-86000000D03*
X121000000Y-86000000D03*
X127950000Y-102100000D03*
X125250000Y-102100000D03*
D26*
X136150000Y-120050000D03*
X136150000Y-117350000D03*
D27*
X142625000Y-85450000D03*
X138800000Y-85475000D03*
X141000000Y-134000000D03*
X115175000Y-77375000D03*
X102150000Y-100250000D03*
D20*
X104000000Y-80000000D03*
D28*
X141000000Y-129000000D03*
D29*
X141000000Y-126460000D03*
D30*
X131000000Y-79000000D03*
D31*
X133540000Y-79000000D03*
D30*
X109200000Y-78500000D03*
D31*
X111740000Y-78500000D03*
D14*
X133050000Y-105500000D03*
X135750000Y-105500000D03*
D30*
X110200000Y-100300000D03*
D31*
X112740000Y-100300000D03*
D32*
X123850000Y-105500000D03*
X121950000Y-105500000D03*
X122900000Y-108500000D03*
X129550000Y-105500000D03*
X127650000Y-105500000D03*
X128600000Y-108500000D03*
D33*
X103850000Y-97625000D03*
X101350000Y-97625000D03*
D34*
X101350000Y-95180000D03*
X103890000Y-95180000D03*
X106430000Y-95180000D03*
X111510000Y-95180000D03*
X114050000Y-95180000D03*
X114050000Y-85020000D03*
X111510000Y-85020000D03*
X106430000Y-85020000D03*
X103890000Y-85020000D03*
X101350000Y-85020000D03*
D27*
X105975000Y-100300000D03*
D26*
X114375000Y-126850000D03*
X114375000Y-124150000D03*
X128225000Y-126850000D03*
X128225000Y-124150000D03*
X123550000Y-124150000D03*
X123550000Y-126850000D03*
X119200000Y-124150000D03*
X119200000Y-126850000D03*
D24*
X143350000Y-110025000D03*
D25*
X140810000Y-110025000D03*
X143350000Y-107485000D03*
X140810000Y-107485000D03*
X143350000Y-104945000D03*
X140810000Y-104945000D03*
X143350000Y-102405000D03*
X140810000Y-102405000D03*
X143350000Y-99865000D03*
X140810000Y-99865000D03*
X143350000Y-97325000D03*
X140810000Y-97325000D03*
X143350000Y-94785000D03*
X140810000Y-94785000D03*
X143350000Y-92245000D03*
X140810000Y-92245000D03*
D15*
X121325000Y-126875000D03*
X102550000Y-89225000D03*
D35*
X129750000Y-116050000D03*
X109275000Y-85075000D03*
D36*
X118700000Y-117100000D03*
X136075000Y-108650000D03*
X138375000Y-121675000D03*
X131975000Y-121275000D03*
X117525000Y-121225000D03*
X130400000Y-113700000D03*
X127400000Y-116900000D03*
X127425000Y-122025000D03*
X130750000Y-91350000D03*
X125525000Y-93900000D03*
X138125000Y-98775000D03*
X130650000Y-96225000D03*
X136875000Y-90550000D03*
D15*
X113650000Y-82275000D03*
X114350000Y-92175000D03*
D36*
X124300000Y-121800000D03*
X118625000Y-121650000D03*
D37*
X136210000Y-88840000D02*
X136250000Y-88800000D01*
X125250000Y-102100000D02*
X125250000Y-100810000D01*
X125250000Y-100810000D02*
X123540000Y-99100000D01*
X125250000Y-102100000D02*
X124640000Y-102100000D01*
X126600000Y-99020000D02*
X126620000Y-99000000D01*
X128620000Y-88940000D02*
X128620000Y-86030000D01*
X128620000Y-86030000D02*
X128625000Y-86025000D01*
X121000000Y-88940000D02*
X121000000Y-86000000D01*
D38*
X103400000Y-111825000D02*
X103400000Y-112125000D01*
X103400000Y-112125000D02*
X107325000Y-116050000D01*
X107325000Y-116050000D02*
X111150000Y-116050000D01*
X103400000Y-106825000D02*
X103400000Y-111825000D01*
X103400000Y-106825000D02*
X105425000Y-106825000D01*
X110200000Y-102050000D02*
X110200000Y-100300000D01*
X105425000Y-106825000D02*
X110200000Y-102050000D01*
X111150000Y-116050000D02*
X112325000Y-116050000D01*
X112325000Y-116050000D02*
X113900000Y-114475000D01*
X103850000Y-97625000D02*
X103850000Y-95220000D01*
X103850000Y-95220000D02*
X103890000Y-95180000D01*
X109000000Y-92450000D02*
X110662640Y-92450000D01*
X116304002Y-80795998D02*
X119900000Y-77200000D01*
X116304002Y-86808638D02*
X116304002Y-80795998D01*
X110662640Y-92450000D02*
X116304002Y-86808638D01*
X103900000Y-95190000D02*
X103890000Y-95180000D01*
X110200000Y-100300000D02*
X110200000Y-99350000D01*
X110200000Y-99350000D02*
X109000000Y-98150000D01*
X109000000Y-98150000D02*
X109000000Y-92450000D01*
X109000000Y-92450000D02*
X107375000Y-90825000D01*
X107375000Y-90825000D02*
X104975000Y-90825000D01*
X104975000Y-90825000D02*
X103890000Y-91910000D01*
X103890000Y-91910000D02*
X103890000Y-95180000D01*
D39*
X111150000Y-113550000D02*
X111150000Y-112700000D01*
X111915000Y-111935000D02*
X113900000Y-111935000D01*
X111150000Y-112700000D02*
X111915000Y-111935000D01*
X111125000Y-110875000D02*
X111125000Y-113525000D01*
X111125000Y-113525000D02*
X111150000Y-113550000D01*
X111150000Y-113550000D02*
X111150000Y-110900000D01*
X111150000Y-110900000D02*
X111125000Y-110875000D01*
X139175000Y-117400000D02*
X142355000Y-117400000D01*
X142355000Y-117400000D02*
X142375000Y-117420000D01*
X123525000Y-126875000D02*
X121325000Y-126875000D01*
X121300000Y-126850000D02*
X121325000Y-126875000D01*
X121300000Y-126850000D02*
X119200000Y-126850000D01*
X123525000Y-126875000D02*
X123550000Y-126850000D01*
X101350000Y-95180000D02*
X101350000Y-90425000D01*
X101350000Y-90425000D02*
X102550000Y-89225000D01*
X101350000Y-97625000D02*
X101350000Y-95180000D01*
D38*
X111125000Y-108375000D02*
X112880000Y-108375000D01*
X112880000Y-108375000D02*
X113900000Y-109395000D01*
X136325000Y-129000000D02*
X141000000Y-129000000D01*
X133950000Y-126625000D02*
X136325000Y-129000000D01*
X133950000Y-120250000D02*
X133950000Y-126625000D01*
X129750000Y-116050000D02*
X133950000Y-120250000D01*
X141000000Y-129000000D02*
X141000000Y-134000000D01*
X124980000Y-77200000D02*
X124980000Y-78145000D01*
X124980000Y-78145000D02*
X118750000Y-84375000D01*
X117550000Y-108250000D02*
X117300000Y-108500000D01*
X117550000Y-89100000D02*
X117550000Y-108250000D01*
X118750000Y-87900000D02*
X117550000Y-89100000D01*
X118750000Y-84375000D02*
X118750000Y-87900000D01*
X131000000Y-79000000D02*
X131000000Y-80625000D01*
X136868998Y-83543998D02*
X138800000Y-85475000D01*
X133918998Y-83543998D02*
X136868998Y-83543998D01*
X131000000Y-80625000D02*
X133918998Y-83543998D01*
X117300000Y-108500000D02*
X117600000Y-108500000D01*
X117600000Y-108500000D02*
X122900000Y-108500000D01*
X128600000Y-108500000D02*
X132400000Y-108500000D01*
X133050000Y-107850000D02*
X133050000Y-105500000D01*
X132400000Y-108500000D02*
X133050000Y-107850000D01*
X133050000Y-105500000D02*
X133050000Y-102800000D01*
X122900000Y-108500000D02*
X128600000Y-108500000D01*
X131000000Y-78600000D02*
X131000000Y-79000000D01*
D39*
X109275000Y-85075000D02*
X109275000Y-78575000D01*
X109275000Y-78575000D02*
X109200000Y-78500000D01*
X111510000Y-85020000D02*
X109330000Y-85020000D01*
X109330000Y-85020000D02*
X109275000Y-85075000D01*
D38*
X103375000Y-126850000D02*
X103400000Y-126825000D01*
X103400000Y-126825000D02*
X103400000Y-121825000D01*
D37*
X135750000Y-102800000D02*
X137300000Y-102800000D01*
X141555000Y-103675000D02*
X142825000Y-104945000D01*
X138175000Y-103675000D02*
X141555000Y-103675000D01*
X137300000Y-102800000D02*
X138175000Y-103675000D01*
X134500000Y-104050000D02*
X135750000Y-102800000D01*
X134500000Y-108353032D02*
X134500000Y-104050000D01*
X132953032Y-109900000D02*
X134500000Y-108353032D01*
X119400000Y-109900000D02*
X132953032Y-109900000D01*
X118700000Y-110600000D02*
X119400000Y-109900000D01*
X118700000Y-117100000D02*
X118700000Y-110600000D01*
X135750000Y-102800000D02*
X136200000Y-102800000D01*
X135750000Y-105500000D02*
X139730000Y-105500000D01*
X139730000Y-105500000D02*
X140285000Y-104945000D01*
X135750000Y-108325000D02*
X135750000Y-105500000D01*
X136075000Y-108650000D02*
X135750000Y-108325000D01*
X135750000Y-105600000D02*
X135750000Y-105250000D01*
X140000000Y-121675000D02*
X141715000Y-119960000D01*
X138375000Y-121675000D02*
X140000000Y-121675000D01*
X131350000Y-120650000D02*
X131975000Y-121275000D01*
X118100000Y-120650000D02*
X131350000Y-120650000D01*
X117525000Y-121225000D02*
X118100000Y-120650000D01*
X141715000Y-119960000D02*
X142375000Y-119960000D01*
X138885994Y-111424006D02*
X140285000Y-110025000D01*
X132675994Y-111424006D02*
X138885994Y-111424006D01*
X130400000Y-113700000D02*
X132675994Y-111424006D01*
X141450000Y-106225000D02*
X141565000Y-106225000D01*
X141565000Y-106225000D02*
X142825000Y-107485000D01*
X114375000Y-124150000D02*
X114375000Y-123050000D01*
X139725000Y-106225000D02*
X141450000Y-106225000D01*
X141450000Y-106225000D02*
X141475000Y-106225000D01*
X135541998Y-110408002D02*
X139725000Y-106225000D01*
X127016998Y-110408002D02*
X135541998Y-110408002D01*
X114375000Y-123050000D02*
X127016998Y-110408002D01*
X114375000Y-124150000D02*
X114375000Y-123600000D01*
X114375000Y-124150000D02*
X114900000Y-124150000D01*
X132825000Y-110916004D02*
X136853996Y-110916004D01*
X136853996Y-110916004D02*
X140285000Y-107485000D01*
X128225000Y-124150000D02*
X128225000Y-122825000D01*
X130683996Y-110916004D02*
X132825000Y-110916004D01*
X132825000Y-110916004D02*
X132875000Y-110916004D01*
X127400000Y-114200000D02*
X130683996Y-110916004D01*
X127400000Y-116900000D02*
X127400000Y-114200000D01*
X128225000Y-122825000D02*
X127425000Y-122025000D01*
X136150000Y-117350000D02*
X136150000Y-116700000D01*
X136150000Y-116700000D02*
X142825000Y-110025000D01*
X123700000Y-86000000D02*
X123700000Y-85300000D01*
X135625000Y-84925000D02*
X142825000Y-92125000D01*
X124075000Y-84925000D02*
X135625000Y-84925000D01*
X123700000Y-85300000D02*
X124075000Y-84925000D01*
X142825000Y-92125000D02*
X142825000Y-92245000D01*
X142650000Y-92070000D02*
X142825000Y-92245000D01*
X123700000Y-86000000D02*
X123700000Y-85450000D01*
X123700000Y-86000000D02*
X123700000Y-85875000D01*
X136615788Y-91709212D02*
X139691576Y-94785000D01*
X131109212Y-91709212D02*
X136615788Y-91709212D01*
X130750000Y-91350000D02*
X131109212Y-91709212D01*
X139691576Y-94785000D02*
X140285000Y-94785000D01*
X141575000Y-96075000D02*
X142825000Y-97325000D01*
X138225000Y-96075000D02*
X141575000Y-96075000D01*
X136050000Y-93900000D02*
X138225000Y-96075000D01*
X125525000Y-93900000D02*
X136050000Y-93900000D01*
X141560000Y-98600000D02*
X142825000Y-99865000D01*
X138300000Y-98600000D02*
X141560000Y-98600000D01*
X138125000Y-98775000D02*
X138300000Y-98600000D01*
X131750000Y-97325000D02*
X140285000Y-97325000D01*
X130650000Y-96225000D02*
X131750000Y-97325000D01*
X141565000Y-93525000D02*
X142825000Y-94785000D01*
X139150000Y-93525000D02*
X141565000Y-93525000D01*
X136875000Y-91250000D02*
X139150000Y-93525000D01*
X136875000Y-90550000D02*
X136875000Y-91250000D01*
X131325000Y-86025000D02*
X136006576Y-86025000D01*
X140285000Y-90310000D02*
X140285000Y-92245000D01*
X139464578Y-89489578D02*
X140285000Y-90310000D01*
X139464578Y-89483002D02*
X139464578Y-89489578D01*
X136006576Y-86025000D02*
X139464578Y-89483002D01*
X127950000Y-102100000D02*
X130038152Y-102100000D01*
X131829156Y-100308996D02*
X139841004Y-100308996D01*
X130038152Y-102100000D02*
X131829156Y-100308996D01*
X139841004Y-100308996D02*
X140285000Y-99865000D01*
X127950000Y-102100000D02*
X127975000Y-102100000D01*
X127950000Y-102100000D02*
X128550000Y-102100000D01*
X129550000Y-105500000D02*
X130825574Y-105500000D01*
X141570000Y-101150000D02*
X142825000Y-102405000D01*
X139075000Y-101150000D02*
X141570000Y-101150000D01*
X138741998Y-100816998D02*
X139075000Y-101150000D01*
X132039578Y-100816998D02*
X138741998Y-100816998D01*
X131160996Y-101695580D02*
X132039578Y-100816998D01*
X131160996Y-105164578D02*
X131160996Y-101695580D01*
X130825574Y-105500000D02*
X131160996Y-105164578D01*
X135775000Y-101325000D02*
X138531576Y-101325000D01*
X138531576Y-101325000D02*
X139611576Y-102405000D01*
X139611576Y-102405000D02*
X140285000Y-102405000D01*
X123850000Y-105500000D02*
X123850000Y-105618998D01*
X123850000Y-105618998D02*
X125350000Y-107118998D01*
X132250000Y-101325000D02*
X135775000Y-101325000D01*
X135775000Y-101325000D02*
X135850000Y-101325000D01*
X131668998Y-101906002D02*
X132250000Y-101325000D01*
X131668998Y-105375000D02*
X131668998Y-101906002D01*
X129925000Y-107118998D02*
X131668998Y-105375000D01*
X125350000Y-107118998D02*
X129925000Y-107118998D01*
X123850000Y-105500000D02*
X123906002Y-105500000D01*
X127650000Y-105500000D02*
X127650000Y-104475000D01*
X126600000Y-101120000D02*
X128620000Y-99100000D01*
X126600000Y-103425000D02*
X126600000Y-101120000D01*
X127650000Y-104475000D02*
X126600000Y-103425000D01*
X127650000Y-105500000D02*
X127650000Y-104650000D01*
X121950000Y-105500000D02*
X121950000Y-100850000D01*
X122300000Y-90180000D02*
X123540000Y-88940000D01*
X122300000Y-100500000D02*
X122300000Y-90180000D01*
X121950000Y-100850000D02*
X122300000Y-100500000D01*
X136150000Y-120050000D02*
X136150000Y-120546968D01*
X136150000Y-120546968D02*
X138103032Y-122500000D01*
X138103032Y-122500000D02*
X142375000Y-122500000D01*
X136150000Y-120050000D02*
X139125000Y-120050000D01*
X139125000Y-120050000D02*
X139175000Y-120100000D01*
D39*
X111740000Y-80365000D02*
X111740000Y-78500000D01*
X113650000Y-82275000D02*
X111740000Y-80365000D01*
X114350000Y-92175000D02*
X111510000Y-95015000D01*
X111510000Y-95015000D02*
X111510000Y-95180000D01*
D37*
X111510000Y-95180000D02*
X111510000Y-94740000D01*
X124300000Y-121800000D02*
X124300000Y-121850000D01*
X126300000Y-124925000D02*
X128225000Y-126850000D01*
X126300000Y-123850000D02*
X126300000Y-124925000D01*
X124300000Y-121850000D02*
X126300000Y-123850000D01*
X123550000Y-124150000D02*
X123550000Y-122550000D01*
X123550000Y-122550000D02*
X124300000Y-121800000D01*
X118625000Y-121650000D02*
X118475000Y-121650000D01*
X116725000Y-124500000D02*
X114375000Y-126850000D01*
X116725000Y-123400000D02*
X116725000Y-124500000D01*
X118475000Y-121650000D02*
X116725000Y-123400000D01*
X119200000Y-124150000D02*
X119200000Y-122225000D01*
X119200000Y-122225000D02*
X118625000Y-121650000D01*
M02*
