%TF.GenerationSoftware,KiCad,Pcbnew,(6.0.5)*%
%TF.CreationDate,2023-02-27T22:37:21-05:00*%
%TF.ProjectId,relay_board,72656c61-795f-4626-9f61-72642e6b6963,rev?*%
%TF.SameCoordinates,Original*%
%TF.FileFunction,Copper,L1,Top*%
%TF.FilePolarity,Positive*%
%FSLAX46Y46*%
G04 Gerber Fmt 4.6, Leading zero omitted, Abs format (unit mm)*
G04 Created by KiCad (PCBNEW (6.0.5)) date 2023-02-27 22:37:21*
%MOMM*%
%LPD*%
G01*
G04 APERTURE LIST*
G04 Aperture macros list*
%AMRoundRect*
0 Rectangle with rounded corners*
0 $1 Rounding radius*
0 $2 $3 $4 $5 $6 $7 $8 $9 X,Y pos of 4 corners*
0 Add a 4 corners polygon primitive as box body*
4,1,4,$2,$3,$4,$5,$6,$7,$8,$9,$2,$3,0*
0 Add four circle primitives for the rounded corners*
1,1,$1+$1,$2,$3*
1,1,$1+$1,$4,$5*
1,1,$1+$1,$6,$7*
1,1,$1+$1,$8,$9*
0 Add four rect primitives between the rounded corners*
20,1,$1+$1,$2,$3,$4,$5,0*
20,1,$1+$1,$4,$5,$6,$7,0*
20,1,$1+$1,$6,$7,$8,$9,0*
20,1,$1+$1,$8,$9,$2,$3,0*%
G04 Aperture macros list end*
%TA.AperFunction,ComponentPad*%
%ADD10R,1.700000X1.700000*%
%TD*%
%TA.AperFunction,SMDPad,CuDef*%
%ADD11R,3.500000X2.300000*%
%TD*%
%TA.AperFunction,ComponentPad*%
%ADD12C,2.350000*%
%TD*%
%TA.AperFunction,ComponentPad*%
%ADD13R,2.600000X2.600000*%
%TD*%
%TA.AperFunction,ComponentPad*%
%ADD14C,2.600000*%
%TD*%
%TA.AperFunction,ComponentPad*%
%ADD15R,1.600000X1.600000*%
%TD*%
%TA.AperFunction,ComponentPad*%
%ADD16C,1.600000*%
%TD*%
%TA.AperFunction,ComponentPad*%
%ADD17C,3.000000*%
%TD*%
%TA.AperFunction,ComponentPad*%
%ADD18RoundRect,0.250000X-0.725000X0.600000X-0.725000X-0.600000X0.725000X-0.600000X0.725000X0.600000X0*%
%TD*%
%TA.AperFunction,ComponentPad*%
%ADD19O,1.950000X1.700000*%
%TD*%
%TA.AperFunction,ComponentPad*%
%ADD20RoundRect,0.250000X0.725000X-0.600000X0.725000X0.600000X-0.725000X0.600000X-0.725000X-0.600000X0*%
%TD*%
%TA.AperFunction,SMDPad,CuDef*%
%ADD21RoundRect,0.249999X0.450001X1.425001X-0.450001X1.425001X-0.450001X-1.425001X0.450001X-1.425001X0*%
%TD*%
%TA.AperFunction,ComponentPad*%
%ADD22C,6.400000*%
%TD*%
%TA.AperFunction,SMDPad,CuDef*%
%ADD23RoundRect,0.250000X-0.350000X-0.450000X0.350000X-0.450000X0.350000X0.450000X-0.350000X0.450000X0*%
%TD*%
%TA.AperFunction,SMDPad,CuDef*%
%ADD24RoundRect,0.250001X0.462499X0.624999X-0.462499X0.624999X-0.462499X-0.624999X0.462499X-0.624999X0*%
%TD*%
%TA.AperFunction,ViaPad*%
%ADD25C,1.000000*%
%TD*%
%TA.AperFunction,ViaPad*%
%ADD26C,3.500000*%
%TD*%
%TA.AperFunction,ViaPad*%
%ADD27C,0.800000*%
%TD*%
%TA.AperFunction,Conductor*%
%ADD28C,1.000000*%
%TD*%
%TA.AperFunction,Conductor*%
%ADD29C,3.000000*%
%TD*%
%TA.AperFunction,Conductor*%
%ADD30C,0.400000*%
%TD*%
G04 APERTURE END LIST*
D10*
X132054600Y-96723200D03*
X132029200Y-100812600D03*
X132054600Y-92608400D03*
X173278800Y-92887800D03*
D11*
X151231600Y-122224800D03*
X145831600Y-122224800D03*
D12*
X159000000Y-126000000D03*
X159000000Y-121400000D03*
X159000000Y-105500000D03*
X159000000Y-110100000D03*
D13*
X169723000Y-128859200D03*
D14*
X169723000Y-123779200D03*
D15*
X155752800Y-142468600D03*
D16*
X158292800Y-142468600D03*
X160832800Y-142468600D03*
X163372800Y-142468600D03*
X163372800Y-134848600D03*
X160832800Y-134848600D03*
X158292800Y-134848600D03*
X155752800Y-134848600D03*
D17*
X157469400Y-98978200D03*
X169469400Y-98978200D03*
X163469400Y-100978200D03*
X169469400Y-86778200D03*
X144500000Y-96680000D03*
X152000000Y-96680000D03*
X144500000Y-117000000D03*
X152000000Y-117000000D03*
X144500000Y-101720000D03*
X144500000Y-91640000D03*
X152000000Y-101720000D03*
X152000000Y-91640000D03*
D18*
X136982200Y-107188000D03*
D19*
X136982200Y-109688000D03*
X136982200Y-112188000D03*
X136982200Y-114688000D03*
X136982200Y-117188000D03*
D20*
X168025200Y-117217200D03*
D19*
X168025200Y-114717200D03*
X168025200Y-112217200D03*
X168025200Y-109717200D03*
X168025200Y-107217200D03*
D21*
X137670000Y-80500000D03*
X131570000Y-80500000D03*
X143550000Y-85000000D03*
X137450000Y-85000000D03*
D13*
X165250000Y-72500000D03*
D14*
X160250000Y-72500000D03*
X155250000Y-72500000D03*
X150250000Y-72500000D03*
X145250000Y-72500000D03*
X140250000Y-72500000D03*
D22*
X134000000Y-74000000D03*
X171000000Y-74000000D03*
X134000000Y-139000000D03*
D13*
X134747000Y-123825000D03*
D14*
X134747000Y-128905000D03*
D23*
X139411200Y-139496800D03*
X141411200Y-139496800D03*
D22*
X171000000Y-139000000D03*
D24*
X134648600Y-133451600D03*
X131673600Y-133451600D03*
D25*
X167741600Y-97433501D03*
D26*
X159000000Y-87000000D03*
D27*
X154787600Y-105471300D03*
X136499600Y-82626200D03*
X155257590Y-102995200D03*
X168402000Y-79171800D03*
X132146100Y-89908900D03*
X144399000Y-87604600D03*
X154787600Y-109118400D03*
X141452600Y-111480600D03*
X141452600Y-115773200D03*
X167513000Y-91059000D03*
X142849600Y-78968600D03*
X145821400Y-108127800D03*
X161925000Y-110845600D03*
X135001000Y-91414600D03*
X145262600Y-105474000D03*
X134213600Y-100558600D03*
X144500000Y-123697400D03*
X158692584Y-130646500D03*
X152660187Y-132520887D03*
X141579600Y-85090000D03*
X135165047Y-80726772D03*
X156846500Y-109651800D03*
X160401000Y-130175000D03*
X162402111Y-112500501D03*
X134112000Y-80695800D03*
X138480800Y-85039200D03*
X141249400Y-103768852D03*
X135839200Y-95275400D03*
X156013416Y-112870984D03*
X134000000Y-131750000D03*
X140868400Y-113726500D03*
X138760200Y-116334500D03*
D28*
X165912800Y-117322600D02*
X167919800Y-117322600D01*
X142330255Y-104320000D02*
X153025787Y-104320000D01*
X167741600Y-97433501D02*
X167425101Y-97750000D01*
X157454182Y-104317800D02*
X161000000Y-100771982D01*
X157469400Y-98978200D02*
X159814122Y-98978200D01*
X134848600Y-106273600D02*
X134848600Y-115144603D01*
X153027987Y-104317800D02*
X157454182Y-104317800D01*
X149249400Y-120320800D02*
X149327600Y-120320800D01*
X134848600Y-115144603D02*
X134721600Y-115271603D01*
X136199348Y-104922852D02*
X136139452Y-104922852D01*
X152000000Y-117570200D02*
X149249400Y-120320800D01*
X159814122Y-98978200D02*
X161000000Y-100164078D01*
X134721600Y-115271603D02*
X133731000Y-116262203D01*
X164058600Y-115468400D02*
X165912800Y-117322600D01*
X134721600Y-115271603D02*
X135065803Y-115271603D01*
X136139452Y-104922852D02*
X132029200Y-100812600D01*
X167425101Y-97750000D02*
X163414078Y-97750000D01*
X161000000Y-100771982D02*
X161000000Y-100164078D01*
X133731000Y-117424200D02*
X136627600Y-120320800D01*
X135065803Y-115271603D02*
X136982200Y-117188000D01*
X156311600Y-115468400D02*
X164058600Y-115468400D01*
X154780000Y-117000000D02*
X156311600Y-115468400D01*
X149327600Y-120320800D02*
X151231600Y-122224800D01*
X136627600Y-120320800D02*
X149327600Y-120320800D01*
X136469652Y-104922852D02*
X141727403Y-104922852D01*
X141727403Y-104922852D02*
X142330255Y-104320000D01*
X153025787Y-104320000D02*
X153027987Y-104317800D01*
X163414078Y-97750000D02*
X161000000Y-100164078D01*
X134848600Y-106273600D02*
X136199348Y-104922852D01*
X152000000Y-117000000D02*
X152000000Y-117570200D01*
X133731000Y-116262203D02*
X133731000Y-117424200D01*
X152000000Y-117000000D02*
X154780000Y-117000000D01*
D29*
X159200000Y-86800000D02*
X159000000Y-87000000D01*
X169500000Y-86800000D02*
X159200000Y-86800000D01*
X164386368Y-125259200D02*
X168243000Y-125259200D01*
D30*
X155244800Y-102982410D02*
X155244800Y-100685600D01*
D29*
X157508831Y-117800000D02*
X160491169Y-117800000D01*
X160491169Y-117800000D02*
X162600000Y-119908831D01*
D30*
X152000000Y-97440800D02*
X152000000Y-96680000D01*
D29*
X155400000Y-119908831D02*
X155400000Y-124304800D01*
X170375169Y-94792800D02*
X153887200Y-94792800D01*
D30*
X155244800Y-100685600D02*
X152000000Y-97440800D01*
X155257590Y-102995200D02*
X155244800Y-102982410D01*
D29*
X162600000Y-119908831D02*
X162600000Y-123472831D01*
X162600000Y-123472831D02*
X164386368Y-125259200D01*
X173069400Y-120432800D02*
X173069400Y-97487031D01*
X173069400Y-97487031D02*
X170375169Y-94792800D01*
D30*
X132146100Y-89908900D02*
X130683000Y-91372000D01*
D29*
X168243000Y-125259200D02*
X169723000Y-123779200D01*
D30*
X130683000Y-91372000D02*
X130683000Y-94157800D01*
X132054600Y-95529400D02*
X132054600Y-96723200D01*
X154787600Y-105471300D02*
X154787600Y-109118400D01*
D29*
X153718000Y-125986800D02*
X136908800Y-125986800D01*
D30*
X130683000Y-94157800D02*
X132054600Y-95529400D01*
D29*
X155400000Y-124304800D02*
X153718000Y-125986800D01*
X153887200Y-94792800D02*
X152000000Y-96680000D01*
X155400000Y-119908831D02*
X157508831Y-117800000D01*
X134747000Y-123825000D02*
X136908800Y-125986800D01*
X169723000Y-123779200D02*
X173069400Y-120432800D01*
D30*
X132867400Y-92608400D02*
X132054600Y-92608400D01*
X146431000Y-107518200D02*
X151979661Y-107518200D01*
X155152800Y-109972400D02*
X157175200Y-107950000D01*
X134204000Y-94065800D02*
X134204000Y-100549000D01*
X145262600Y-105474000D02*
X145262600Y-107569000D01*
X134204000Y-94065800D02*
X134204000Y-93945000D01*
X135001000Y-91414600D02*
X135001000Y-93268800D01*
X134204000Y-93945000D02*
X132867400Y-92608400D01*
X134204000Y-100549000D02*
X134213600Y-100558600D01*
X160375600Y-107950000D02*
X161925000Y-109499400D01*
X135001000Y-93268800D02*
X134204000Y-94065800D01*
X151979661Y-107518200D02*
X154433861Y-109972400D01*
X157175200Y-107950000D02*
X160375600Y-107950000D01*
X154433861Y-109972400D02*
X155152800Y-109972400D01*
X145821400Y-108127800D02*
X146431000Y-107518200D01*
X161925000Y-109499400D02*
X161925000Y-110845600D01*
X145262600Y-107569000D02*
X145821400Y-108127800D01*
D29*
X159000000Y-126000000D02*
X160036000Y-126000000D01*
X160036000Y-126000000D02*
X162915600Y-128879600D01*
X162936000Y-128859200D02*
X169723000Y-128859200D01*
X159000000Y-121400000D02*
X159000000Y-126000000D01*
X162915600Y-128879600D02*
X162936000Y-128859200D01*
X155389034Y-129610966D02*
X159000000Y-126000000D01*
X134747000Y-128905000D02*
X135452966Y-129610966D01*
X135452966Y-129610966D02*
X155389034Y-129610966D01*
D30*
X145831600Y-122224800D02*
X145831600Y-122365800D01*
X145831600Y-122365800D02*
X144500000Y-123697400D01*
X158692584Y-130646500D02*
X156818197Y-132520887D01*
X156818197Y-132520887D02*
X152660187Y-132520887D01*
D29*
X153950000Y-73800000D02*
X153950000Y-89690000D01*
X153950000Y-89690000D02*
X152000000Y-91640000D01*
X155250000Y-72500000D02*
X153950000Y-73800000D01*
X150250000Y-86250000D02*
X148400000Y-88100000D01*
X148400000Y-98171169D02*
X151948831Y-101720000D01*
X151948831Y-101720000D02*
X152000000Y-101720000D01*
X150250000Y-86250000D02*
X150250000Y-72500000D01*
X148400000Y-88100000D02*
X148400000Y-98171169D01*
X143487500Y-85000000D02*
X145250000Y-83237500D01*
D30*
X141579600Y-85090000D02*
X143460000Y-85090000D01*
X143459200Y-85090800D02*
X143550000Y-85000000D01*
X143460000Y-85090000D02*
X143550000Y-85000000D01*
D29*
X145250000Y-83237500D02*
X145250000Y-72500000D01*
X140250000Y-72500000D02*
X140250000Y-77920000D01*
D30*
X135165047Y-80726772D02*
X136559628Y-80726772D01*
X136559628Y-80726772D02*
X136786400Y-80500000D01*
D29*
X140250000Y-77920000D02*
X137670000Y-80500000D01*
D30*
X158777968Y-112549968D02*
X162352644Y-112549968D01*
X156846500Y-109651800D02*
X156846500Y-110618500D01*
X160401000Y-130200400D02*
X155752800Y-134848600D01*
X162352644Y-112549968D02*
X162402111Y-112500501D01*
X156846500Y-110618500D02*
X158777968Y-112549968D01*
X160401000Y-130175000D02*
X160401000Y-130200400D01*
X133183200Y-81624600D02*
X132694600Y-81624600D01*
D29*
X140399999Y-99741319D02*
X140399999Y-93042797D01*
D30*
X134112000Y-80695800D02*
X133183200Y-81624600D01*
D29*
X132694600Y-81624600D02*
X131570000Y-80500000D01*
X144500000Y-101720000D02*
X142378680Y-101720000D01*
X132694600Y-85337398D02*
X132694600Y-81624600D01*
X142378680Y-101720000D02*
X140399999Y-99741319D01*
D30*
X134112000Y-80695800D02*
X131765800Y-80695800D01*
X131765800Y-80695800D02*
X131570000Y-80500000D01*
D29*
X140399999Y-93042797D02*
X132694600Y-85337398D01*
X144152500Y-91640000D02*
X137512500Y-85000000D01*
X144500000Y-91640000D02*
X144152500Y-91640000D01*
D30*
X136000000Y-95436200D02*
X136000000Y-100078704D01*
X135839200Y-95275400D02*
X136000000Y-95436200D01*
X136000000Y-100078704D02*
X139690148Y-103768852D01*
X139690148Y-103768852D02*
X141249400Y-103768852D01*
X166660200Y-109717200D02*
X168025200Y-109717200D01*
X156251200Y-114315800D02*
X162719447Y-114315800D01*
X163910111Y-113125136D02*
X163910111Y-112467289D01*
X163910111Y-112467289D02*
X166660200Y-109717200D01*
X151463463Y-113131600D02*
X155067000Y-113131600D01*
X155067000Y-113131600D02*
X156251200Y-114315800D01*
X148019863Y-109688000D02*
X151463463Y-113131600D01*
X162719447Y-114315800D02*
X163910111Y-113125136D01*
X136982200Y-109688000D02*
X148019863Y-109688000D01*
X163256111Y-112854240D02*
X163256111Y-111986289D01*
X156604232Y-113461800D02*
X162648551Y-113461800D01*
X163256111Y-111986289D02*
X168025200Y-107217200D01*
X138828200Y-109034000D02*
X136982200Y-107188000D01*
X156013416Y-112870984D02*
X155620032Y-112477600D01*
X155620032Y-112477600D02*
X151790400Y-112477600D01*
X156013416Y-112870984D02*
X156604232Y-113461800D01*
X162648551Y-113461800D02*
X163256111Y-112854240D01*
X151790400Y-112477600D02*
X148346800Y-109034000D01*
X148346800Y-109034000D02*
X138828200Y-109034000D01*
X139411200Y-138214200D02*
X139411200Y-139496800D01*
X134648600Y-133451600D02*
X139411200Y-138214200D01*
X134000000Y-131750000D02*
X132298400Y-133451600D01*
X140868400Y-113726500D02*
X138760200Y-115834700D01*
X138760200Y-115834700D02*
X138760200Y-116334500D01*
X132298400Y-133451600D02*
X131673600Y-133451600D01*
%TA.AperFunction,Conductor*%
G36*
X174241621Y-69720502D02*
G01*
X174288114Y-69774158D01*
X174299500Y-69826500D01*
X174299500Y-71521674D01*
X174279498Y-71589795D01*
X174225842Y-71636288D01*
X174155568Y-71646392D01*
X174090988Y-71616898D01*
X174073806Y-71598727D01*
X174066903Y-71589795D01*
X173965344Y-71458393D01*
X173875884Y-71364122D01*
X173695517Y-71174054D01*
X173695514Y-71174052D01*
X173693318Y-71171737D01*
X173682408Y-71162353D01*
X173396131Y-70916116D01*
X173396128Y-70916114D01*
X173393716Y-70914039D01*
X173391108Y-70912219D01*
X173391102Y-70912215D01*
X173072220Y-70689760D01*
X173069607Y-70687937D01*
X172743037Y-70506171D01*
X172727092Y-70497296D01*
X172727090Y-70497295D01*
X172724307Y-70495746D01*
X172721387Y-70494488D01*
X172721382Y-70494486D01*
X172364287Y-70340696D01*
X172364277Y-70340692D01*
X172361353Y-70339433D01*
X171984460Y-70220599D01*
X171707713Y-70163287D01*
X171600613Y-70141108D01*
X171600610Y-70141108D01*
X171597488Y-70140461D01*
X171295259Y-70109228D01*
X171207555Y-70100165D01*
X171207552Y-70100165D01*
X171204399Y-70099839D01*
X171201233Y-70099833D01*
X171201224Y-70099833D01*
X171006076Y-70099493D01*
X170809217Y-70099150D01*
X170652678Y-70114774D01*
X170419161Y-70138082D01*
X170419155Y-70138083D01*
X170415988Y-70138399D01*
X170214871Y-70179317D01*
X170031863Y-70216550D01*
X170031859Y-70216551D01*
X170028738Y-70217186D01*
X170025696Y-70218133D01*
X170025690Y-70218135D01*
X169840086Y-70275944D01*
X169651433Y-70334703D01*
X169648493Y-70335957D01*
X169290873Y-70488495D01*
X169290869Y-70488497D01*
X169287936Y-70489748D01*
X169285149Y-70491287D01*
X169285148Y-70491287D01*
X169232975Y-70520088D01*
X168941967Y-70680733D01*
X168939346Y-70682548D01*
X168939341Y-70682551D01*
X168673890Y-70866358D01*
X168617070Y-70905702D01*
X168316571Y-71162353D01*
X168043546Y-71448057D01*
X168041589Y-71450570D01*
X168041588Y-71450572D01*
X167823087Y-71731250D01*
X167800791Y-71759890D01*
X167590791Y-72094658D01*
X167589381Y-72097510D01*
X167589377Y-72097518D01*
X167558691Y-72159607D01*
X167489456Y-72299694D01*
X167441344Y-72351900D01*
X167372642Y-72369807D01*
X167305166Y-72347729D01*
X167260338Y-72292675D01*
X167250500Y-72243866D01*
X167250499Y-71146891D01*
X167250499Y-71144008D01*
X167250234Y-71141116D01*
X167244440Y-71078060D01*
X167243829Y-71071406D01*
X167219215Y-70992863D01*
X167195399Y-70916866D01*
X167195398Y-70916864D01*
X167193127Y-70909617D01*
X167105297Y-70764592D01*
X166985408Y-70644703D01*
X166840383Y-70556873D01*
X166833136Y-70554602D01*
X166833134Y-70554601D01*
X166767894Y-70534156D01*
X166678594Y-70506171D01*
X166605993Y-70499500D01*
X166603095Y-70499500D01*
X165246482Y-70499501D01*
X163894008Y-70499501D01*
X163891150Y-70499764D01*
X163891141Y-70499764D01*
X163855757Y-70503015D01*
X163821406Y-70506171D01*
X163815028Y-70508170D01*
X163815027Y-70508170D01*
X163666866Y-70554601D01*
X163666864Y-70554602D01*
X163659617Y-70556873D01*
X163514592Y-70644703D01*
X163394703Y-70764592D01*
X163306873Y-70909617D01*
X163304602Y-70916864D01*
X163304601Y-70916866D01*
X163301300Y-70927399D01*
X163256171Y-71071406D01*
X163249500Y-71144007D01*
X163249500Y-71146905D01*
X163249501Y-72503222D01*
X163249501Y-73855992D01*
X163256171Y-73928594D01*
X163258170Y-73934972D01*
X163258170Y-73934973D01*
X163304174Y-74081769D01*
X163306873Y-74090383D01*
X163394703Y-74235408D01*
X163514592Y-74355297D01*
X163659617Y-74443127D01*
X163666864Y-74445398D01*
X163666866Y-74445399D01*
X163684503Y-74450926D01*
X163821406Y-74493829D01*
X163894007Y-74500500D01*
X163896905Y-74500500D01*
X165253518Y-74500499D01*
X166605992Y-74500499D01*
X166608850Y-74500236D01*
X166608859Y-74500236D01*
X166644243Y-74496985D01*
X166678594Y-74493829D01*
X166754361Y-74470085D01*
X166833134Y-74445399D01*
X166833136Y-74445398D01*
X166840383Y-74443127D01*
X166937079Y-74384566D01*
X167005708Y-74366387D01*
X167073272Y-74388197D01*
X167118318Y-74443073D01*
X167126966Y-74473718D01*
X167171538Y-74771953D01*
X167269148Y-75154892D01*
X167404956Y-75526006D01*
X167577573Y-75881495D01*
X167785230Y-76217721D01*
X168025802Y-76531241D01*
X168027984Y-76533557D01*
X168027993Y-76533567D01*
X168294635Y-76816519D01*
X168296826Y-76818844D01*
X168299231Y-76820928D01*
X168299237Y-76820933D01*
X168515797Y-77008523D01*
X168595526Y-77077586D01*
X168918845Y-77304818D01*
X169263472Y-77498214D01*
X169625878Y-77655793D01*
X170002353Y-77775941D01*
X170212256Y-77820175D01*
X170385924Y-77856773D01*
X170385929Y-77856774D01*
X170389043Y-77857430D01*
X170781988Y-77899423D01*
X170785176Y-77899440D01*
X170785181Y-77899440D01*
X170964213Y-77900378D01*
X171177166Y-77901493D01*
X171325671Y-77887193D01*
X171567364Y-77863921D01*
X171567369Y-77863920D01*
X171570529Y-77863616D01*
X171573648Y-77862993D01*
X171573653Y-77862992D01*
X171764643Y-77824828D01*
X171958051Y-77786181D01*
X172247161Y-77697240D01*
X172332722Y-77670918D01*
X172332725Y-77670917D01*
X172335764Y-77669982D01*
X172338692Y-77668745D01*
X172338698Y-77668743D01*
X172502433Y-77599578D01*
X172699801Y-77516207D01*
X172702604Y-77514673D01*
X172702609Y-77514670D01*
X172851943Y-77432912D01*
X173046434Y-77326431D01*
X173372114Y-77102597D01*
X173401606Y-77077586D01*
X173671078Y-76849057D01*
X173671080Y-76849055D01*
X173673508Y-76846996D01*
X173675713Y-76844704D01*
X173675719Y-76844699D01*
X173787472Y-76728570D01*
X173947528Y-76562247D01*
X174074346Y-76400510D01*
X174132119Y-76359246D01*
X174203031Y-76355766D01*
X174264566Y-76391177D01*
X174297189Y-76454235D01*
X174299500Y-76478257D01*
X174299500Y-91211300D01*
X174279498Y-91279421D01*
X174225842Y-91325914D01*
X174173500Y-91337300D01*
X172741315Y-91337301D01*
X172372808Y-91337301D01*
X172369950Y-91337564D01*
X172369941Y-91337564D01*
X172334557Y-91340815D01*
X172300206Y-91343971D01*
X172293828Y-91345970D01*
X172293827Y-91345970D01*
X172145666Y-91392401D01*
X172145664Y-91392402D01*
X172138417Y-91394673D01*
X171993392Y-91482503D01*
X171873503Y-91602392D01*
X171785673Y-91747417D01*
X171734971Y-91909206D01*
X171728300Y-91981807D01*
X171728301Y-93793792D01*
X171728564Y-93796650D01*
X171728564Y-93796659D01*
X171730612Y-93818948D01*
X171734971Y-93866394D01*
X171736970Y-93872772D01*
X171736970Y-93872773D01*
X171778867Y-94006464D01*
X171785673Y-94028183D01*
X171873503Y-94173208D01*
X171993392Y-94293097D01*
X172138417Y-94380927D01*
X172145664Y-94383198D01*
X172145666Y-94383199D01*
X172194728Y-94398574D01*
X172300206Y-94431629D01*
X172372807Y-94438300D01*
X172742866Y-94438300D01*
X174173500Y-94438299D01*
X174241621Y-94458301D01*
X174288114Y-94511957D01*
X174299500Y-94564299D01*
X174299500Y-136521674D01*
X174279498Y-136589795D01*
X174225842Y-136636288D01*
X174155568Y-136646392D01*
X174090988Y-136616898D01*
X174073806Y-136598727D01*
X174066903Y-136589795D01*
X173965344Y-136458393D01*
X173769412Y-136251923D01*
X173695517Y-136174054D01*
X173695514Y-136174052D01*
X173693318Y-136171737D01*
X173682408Y-136162353D01*
X173396131Y-135916116D01*
X173396128Y-135916114D01*
X173393716Y-135914039D01*
X173391108Y-135912219D01*
X173391102Y-135912215D01*
X173072220Y-135689760D01*
X173069607Y-135687937D01*
X172724307Y-135495746D01*
X172721387Y-135494488D01*
X172721382Y-135494486D01*
X172364287Y-135340696D01*
X172364277Y-135340692D01*
X172361353Y-135339433D01*
X171984460Y-135220599D01*
X171699811Y-135161651D01*
X171600613Y-135141108D01*
X171600610Y-135141108D01*
X171597488Y-135140461D01*
X171295259Y-135109229D01*
X171207555Y-135100165D01*
X171207552Y-135100165D01*
X171204399Y-135099839D01*
X171201233Y-135099833D01*
X171201224Y-135099833D01*
X171006076Y-135099493D01*
X170809217Y-135099150D01*
X170652678Y-135114774D01*
X170419161Y-135138082D01*
X170419155Y-135138083D01*
X170415988Y-135138399D01*
X170301701Y-135161651D01*
X170031863Y-135216550D01*
X170031859Y-135216551D01*
X170028738Y-135217186D01*
X170025696Y-135218133D01*
X170025690Y-135218135D01*
X169840086Y-135275944D01*
X169651433Y-135334703D01*
X169648493Y-135335957D01*
X169290873Y-135488495D01*
X169290869Y-135488497D01*
X169287936Y-135489748D01*
X168941967Y-135680733D01*
X168939346Y-135682548D01*
X168939341Y-135682551D01*
X168778248Y-135794097D01*
X168617070Y-135905702D01*
X168316571Y-136162353D01*
X168043546Y-136448057D01*
X168041589Y-136450570D01*
X168041588Y-136450572D01*
X167889147Y-136646392D01*
X167800791Y-136759890D01*
X167590791Y-137094658D01*
X167415697Y-137448934D01*
X167277301Y-137819090D01*
X167177021Y-138201338D01*
X167161760Y-138298795D01*
X167117882Y-138578993D01*
X167115882Y-138591763D01*
X167115711Y-138594925D01*
X167115710Y-138594932D01*
X167109108Y-138716838D01*
X167094511Y-138986367D01*
X167094661Y-138989548D01*
X167106604Y-139242800D01*
X167113126Y-139381111D01*
X167171538Y-139771953D01*
X167269148Y-140154892D01*
X167404956Y-140526006D01*
X167577573Y-140881495D01*
X167697001Y-141074866D01*
X167750181Y-141160971D01*
X167785230Y-141217721D01*
X168025802Y-141531241D01*
X168027984Y-141533557D01*
X168027993Y-141533567D01*
X168294635Y-141816519D01*
X168296826Y-141818844D01*
X168299231Y-141820928D01*
X168299237Y-141820933D01*
X168522752Y-142014547D01*
X168595526Y-142077586D01*
X168918845Y-142304818D01*
X169263472Y-142498214D01*
X169625878Y-142655793D01*
X170002353Y-142775941D01*
X170212256Y-142820175D01*
X170385924Y-142856773D01*
X170385929Y-142856774D01*
X170389043Y-142857430D01*
X170781988Y-142899423D01*
X170785176Y-142899440D01*
X170785181Y-142899440D01*
X170964213Y-142900378D01*
X171177166Y-142901493D01*
X171325671Y-142887193D01*
X171567364Y-142863921D01*
X171567369Y-142863920D01*
X171570529Y-142863616D01*
X171573648Y-142862993D01*
X171573653Y-142862992D01*
X171764643Y-142824828D01*
X171958051Y-142786181D01*
X172267057Y-142691119D01*
X172332722Y-142670918D01*
X172332725Y-142670917D01*
X172335764Y-142669982D01*
X172338692Y-142668745D01*
X172338698Y-142668743D01*
X172509484Y-142596600D01*
X172699801Y-142516207D01*
X172702604Y-142514673D01*
X172702609Y-142514670D01*
X172851943Y-142432912D01*
X173046434Y-142326431D01*
X173372114Y-142102597D01*
X173401606Y-142077586D01*
X173671078Y-141849057D01*
X173671080Y-141849055D01*
X173673508Y-141846996D01*
X173675713Y-141844704D01*
X173675719Y-141844699D01*
X173787472Y-141728570D01*
X173947528Y-141562247D01*
X173956352Y-141550994D01*
X174074346Y-141400510D01*
X174132119Y-141359246D01*
X174203031Y-141355766D01*
X174264566Y-141391177D01*
X174297189Y-141454235D01*
X174299500Y-141478257D01*
X174299500Y-143173500D01*
X174279498Y-143241621D01*
X174225842Y-143288114D01*
X174173500Y-143299500D01*
X164626344Y-143299500D01*
X164558223Y-143279498D01*
X164511730Y-143225842D01*
X164501626Y-143155568D01*
X164512149Y-143120250D01*
X164604290Y-142922653D01*
X164608036Y-142912361D01*
X164664425Y-142701912D01*
X164666328Y-142691119D01*
X164685317Y-142474075D01*
X164685317Y-142463125D01*
X164666328Y-142246081D01*
X164664425Y-142235288D01*
X164608036Y-142024839D01*
X164604290Y-142014547D01*
X164512214Y-141817089D01*
X164506731Y-141807594D01*
X164470291Y-141755552D01*
X164459812Y-141747176D01*
X164446366Y-141754244D01*
X163461895Y-142738715D01*
X163399583Y-142772741D01*
X163328768Y-142767676D01*
X163283705Y-142738715D01*
X162298513Y-141753523D01*
X162286738Y-141747093D01*
X162274723Y-141756389D01*
X162238869Y-141807594D01*
X162233386Y-141817089D01*
X162216995Y-141852241D01*
X162170078Y-141905526D01*
X162101801Y-141924987D01*
X162033841Y-141904445D01*
X161988605Y-141852241D01*
X161972214Y-141817089D01*
X161966731Y-141807594D01*
X161930291Y-141755552D01*
X161919812Y-141747176D01*
X161906366Y-141754244D01*
X160921895Y-142738715D01*
X160859583Y-142772741D01*
X160788768Y-142767676D01*
X160743705Y-142738715D01*
X159758513Y-141753523D01*
X159746738Y-141747093D01*
X159734723Y-141756389D01*
X159698869Y-141807594D01*
X159693386Y-141817089D01*
X159676995Y-141852241D01*
X159630078Y-141905526D01*
X159561801Y-141924987D01*
X159493841Y-141904445D01*
X159448605Y-141852241D01*
X159432214Y-141817089D01*
X159426731Y-141807594D01*
X159390291Y-141755552D01*
X159379812Y-141747176D01*
X159366366Y-141754244D01*
X158381895Y-142738715D01*
X158319583Y-142772741D01*
X158248768Y-142767676D01*
X158203705Y-142738715D01*
X157218513Y-141753523D01*
X157204570Y-141745909D01*
X157195789Y-141746537D01*
X157126415Y-141731446D01*
X157076212Y-141681245D01*
X157062430Y-141627250D01*
X157060983Y-141627328D01*
X157060429Y-141617110D01*
X157054905Y-141566248D01*
X157051279Y-141550996D01*
X157006124Y-141430546D01*
X156997586Y-141414951D01*
X156972582Y-141381588D01*
X157571376Y-141381588D01*
X157578444Y-141395034D01*
X158279988Y-142096578D01*
X158293932Y-142104192D01*
X158295765Y-142104061D01*
X158302380Y-142099810D01*
X159007877Y-141394313D01*
X159014307Y-141382538D01*
X159013572Y-141381588D01*
X160111376Y-141381588D01*
X160118444Y-141395034D01*
X160819988Y-142096578D01*
X160833932Y-142104192D01*
X160835765Y-142104061D01*
X160842380Y-142099810D01*
X161547877Y-141394313D01*
X161554307Y-141382538D01*
X161553572Y-141381588D01*
X162651376Y-141381588D01*
X162658444Y-141395034D01*
X163359988Y-142096578D01*
X163373932Y-142104192D01*
X163375765Y-142104061D01*
X163382380Y-142099810D01*
X164087877Y-141394313D01*
X164094307Y-141382538D01*
X164085011Y-141370523D01*
X164033806Y-141334669D01*
X164024311Y-141329186D01*
X163826853Y-141237110D01*
X163816561Y-141233364D01*
X163606112Y-141176975D01*
X163595319Y-141175072D01*
X163378275Y-141156083D01*
X163367325Y-141156083D01*
X163150281Y-141175072D01*
X163139488Y-141176975D01*
X162929039Y-141233364D01*
X162918747Y-141237110D01*
X162721289Y-141329186D01*
X162711794Y-141334669D01*
X162659752Y-141371109D01*
X162651376Y-141381588D01*
X161553572Y-141381588D01*
X161545011Y-141370523D01*
X161493806Y-141334669D01*
X161484311Y-141329186D01*
X161286853Y-141237110D01*
X161276561Y-141233364D01*
X161066112Y-141176975D01*
X161055319Y-141175072D01*
X160838275Y-141156083D01*
X160827325Y-141156083D01*
X160610281Y-141175072D01*
X160599488Y-141176975D01*
X160389039Y-141233364D01*
X160378747Y-141237110D01*
X160181289Y-141329186D01*
X160171794Y-141334669D01*
X160119752Y-141371109D01*
X160111376Y-141381588D01*
X159013572Y-141381588D01*
X159005011Y-141370523D01*
X158953806Y-141334669D01*
X158944311Y-141329186D01*
X158746853Y-141237110D01*
X158736561Y-141233364D01*
X158526112Y-141176975D01*
X158515319Y-141175072D01*
X158298275Y-141156083D01*
X158287325Y-141156083D01*
X158070281Y-141175072D01*
X158059488Y-141176975D01*
X157849039Y-141233364D01*
X157838747Y-141237110D01*
X157641289Y-141329186D01*
X157631794Y-141334669D01*
X157579752Y-141371109D01*
X157571376Y-141381588D01*
X156972582Y-141381588D01*
X156921085Y-141312876D01*
X156908524Y-141300315D01*
X156806449Y-141223814D01*
X156790854Y-141215276D01*
X156670406Y-141170122D01*
X156655151Y-141166495D01*
X156604286Y-141160969D01*
X156597472Y-141160600D01*
X156024915Y-141160600D01*
X156009676Y-141165075D01*
X156008471Y-141166465D01*
X156006800Y-141174148D01*
X156006800Y-142596600D01*
X155986798Y-142664721D01*
X155933142Y-142711214D01*
X155880800Y-142722600D01*
X154462916Y-142722600D01*
X154447677Y-142727075D01*
X154446472Y-142728465D01*
X154444801Y-142736148D01*
X154444801Y-143173500D01*
X154424799Y-143241621D01*
X154371143Y-143288114D01*
X154318801Y-143299500D01*
X130826500Y-143299500D01*
X130758379Y-143279498D01*
X130711886Y-143225842D01*
X130700500Y-143173500D01*
X130700500Y-141478484D01*
X130720502Y-141410363D01*
X130774158Y-141363870D01*
X130844432Y-141353766D01*
X130909012Y-141383260D01*
X130926462Y-141401780D01*
X131023851Y-141528700D01*
X131023861Y-141528712D01*
X131025802Y-141531241D01*
X131027984Y-141533557D01*
X131027993Y-141533567D01*
X131294635Y-141816519D01*
X131296826Y-141818844D01*
X131299231Y-141820928D01*
X131299237Y-141820933D01*
X131522752Y-142014547D01*
X131595526Y-142077586D01*
X131918845Y-142304818D01*
X132263472Y-142498214D01*
X132625878Y-142655793D01*
X133002353Y-142775941D01*
X133212256Y-142820175D01*
X133385924Y-142856773D01*
X133385929Y-142856774D01*
X133389043Y-142857430D01*
X133781988Y-142899423D01*
X133785176Y-142899440D01*
X133785181Y-142899440D01*
X133964213Y-142900378D01*
X134177166Y-142901493D01*
X134325671Y-142887193D01*
X134567364Y-142863921D01*
X134567369Y-142863920D01*
X134570529Y-142863616D01*
X134573648Y-142862993D01*
X134573653Y-142862992D01*
X134764643Y-142824828D01*
X134958051Y-142786181D01*
X135267057Y-142691119D01*
X135332722Y-142670918D01*
X135332725Y-142670917D01*
X135335764Y-142669982D01*
X135338692Y-142668745D01*
X135338698Y-142668743D01*
X135509484Y-142596600D01*
X135699801Y-142516207D01*
X135702604Y-142514673D01*
X135702609Y-142514670D01*
X135851943Y-142432912D01*
X136046434Y-142326431D01*
X136235506Y-142196485D01*
X154444800Y-142196485D01*
X154449275Y-142211724D01*
X154450665Y-142212929D01*
X154458348Y-142214600D01*
X155480685Y-142214600D01*
X155495924Y-142210125D01*
X155497129Y-142208735D01*
X155498800Y-142201052D01*
X155498800Y-141178716D01*
X155494325Y-141163477D01*
X155492935Y-141162272D01*
X155485252Y-141160601D01*
X154908131Y-141160601D01*
X154901310Y-141160971D01*
X154850448Y-141166495D01*
X154835196Y-141170121D01*
X154714746Y-141215276D01*
X154699151Y-141223814D01*
X154597076Y-141300315D01*
X154584515Y-141312876D01*
X154508014Y-141414951D01*
X154499476Y-141430546D01*
X154454322Y-141550994D01*
X154450695Y-141566249D01*
X154445169Y-141617114D01*
X154444800Y-141623928D01*
X154444800Y-142196485D01*
X136235506Y-142196485D01*
X136372114Y-142102597D01*
X136401606Y-142077586D01*
X136671078Y-141849057D01*
X136671080Y-141849055D01*
X136673508Y-141846996D01*
X136675713Y-141844704D01*
X136675719Y-141844699D01*
X136787472Y-141728570D01*
X136947528Y-141562247D01*
X136956352Y-141550994D01*
X137097859Y-141370523D01*
X137191370Y-141251264D01*
X137214297Y-141214998D01*
X137400828Y-140919934D01*
X137402537Y-140917231D01*
X137403957Y-140914382D01*
X137403962Y-140914374D01*
X137577447Y-140566416D01*
X137578867Y-140563568D01*
X137718554Y-140193897D01*
X137728933Y-140154892D01*
X137819347Y-139815087D01*
X137820168Y-139812002D01*
X137827070Y-139768915D01*
X137860286Y-139561540D01*
X137890810Y-139497440D01*
X137951144Y-139460018D01*
X138022131Y-139461156D01*
X138081235Y-139500492D01*
X138109689Y-139565537D01*
X138110700Y-139581468D01*
X138110700Y-140001724D01*
X138120898Y-140115987D01*
X138142356Y-140190820D01*
X138166654Y-140275557D01*
X138174123Y-140301606D01*
X138263585Y-140472730D01*
X138267614Y-140477670D01*
X138267616Y-140477673D01*
X138339993Y-140566416D01*
X138385629Y-140622371D01*
X138390569Y-140626400D01*
X138486283Y-140704462D01*
X138535270Y-140744415D01*
X138706394Y-140833877D01*
X138712522Y-140835634D01*
X138712524Y-140835635D01*
X138808879Y-140863264D01*
X138892013Y-140887102D01*
X138924296Y-140889983D01*
X139003483Y-140897051D01*
X139003489Y-140897051D01*
X139006276Y-140897300D01*
X139816124Y-140897300D01*
X139818911Y-140897051D01*
X139818917Y-140897051D01*
X139898104Y-140889983D01*
X139930387Y-140887102D01*
X140013521Y-140863264D01*
X140109876Y-140835635D01*
X140109878Y-140835634D01*
X140116006Y-140833877D01*
X140287130Y-140744415D01*
X140336118Y-140704462D01*
X140431831Y-140626400D01*
X140436771Y-140622371D01*
X140459263Y-140594793D01*
X140517818Y-140554645D01*
X140588783Y-140552528D01*
X140623022Y-140567169D01*
X140732443Y-140634616D01*
X140745624Y-140640763D01*
X140899910Y-140691938D01*
X140913286Y-140694805D01*
X141007638Y-140704472D01*
X141014054Y-140704800D01*
X141139085Y-140704800D01*
X141154324Y-140700325D01*
X141155529Y-140698935D01*
X141157200Y-140691252D01*
X141157200Y-140686684D01*
X141665200Y-140686684D01*
X141669675Y-140701923D01*
X141671065Y-140703128D01*
X141678748Y-140704799D01*
X141808295Y-140704799D01*
X141814814Y-140704462D01*
X141910406Y-140694543D01*
X141923800Y-140691651D01*
X142077984Y-140640212D01*
X142091162Y-140634039D01*
X142229007Y-140548737D01*
X142240408Y-140539701D01*
X142354939Y-140424971D01*
X142363951Y-140413560D01*
X142449016Y-140275557D01*
X142455163Y-140262376D01*
X142506338Y-140108090D01*
X142509205Y-140094714D01*
X142518872Y-140000362D01*
X142519200Y-139993946D01*
X142519200Y-139768915D01*
X142514725Y-139753676D01*
X142513335Y-139752471D01*
X142505652Y-139750800D01*
X141683315Y-139750800D01*
X141668076Y-139755275D01*
X141666871Y-139756665D01*
X141665200Y-139764348D01*
X141665200Y-140686684D01*
X141157200Y-140686684D01*
X141157200Y-139224685D01*
X141665200Y-139224685D01*
X141669675Y-139239924D01*
X141671065Y-139241129D01*
X141678748Y-139242800D01*
X142501084Y-139242800D01*
X142516323Y-139238325D01*
X142517528Y-139236935D01*
X142519199Y-139229252D01*
X142519199Y-138999705D01*
X142518862Y-138993186D01*
X142508943Y-138897594D01*
X142506051Y-138884200D01*
X142454612Y-138730016D01*
X142448439Y-138716838D01*
X142363137Y-138578993D01*
X142354101Y-138567592D01*
X142239371Y-138453061D01*
X142227960Y-138444049D01*
X142089957Y-138358984D01*
X142076776Y-138352837D01*
X141922490Y-138301662D01*
X141909114Y-138298795D01*
X141814762Y-138289128D01*
X141808345Y-138288800D01*
X141683315Y-138288800D01*
X141668076Y-138293275D01*
X141666871Y-138294665D01*
X141665200Y-138302348D01*
X141665200Y-139224685D01*
X141157200Y-139224685D01*
X141157200Y-138306916D01*
X141152725Y-138291677D01*
X141151335Y-138290472D01*
X141143652Y-138288801D01*
X141014105Y-138288801D01*
X141007586Y-138289138D01*
X140911994Y-138299057D01*
X140898600Y-138301949D01*
X140744416Y-138353388D01*
X140731242Y-138359559D01*
X140623263Y-138426380D01*
X140554811Y-138445218D01*
X140487041Y-138424057D01*
X140459316Y-138398872D01*
X140440800Y-138376169D01*
X140436771Y-138371229D01*
X140414220Y-138352837D01*
X140359273Y-138308023D01*
X140319125Y-138249468D01*
X140313082Y-138216975D01*
X140311873Y-138193910D01*
X140311700Y-138187315D01*
X140311700Y-138167008D01*
X140309577Y-138146805D01*
X140309060Y-138140231D01*
X140305859Y-138079156D01*
X140305513Y-138072555D01*
X140301926Y-138059167D01*
X140298323Y-138039731D01*
X140298280Y-138039322D01*
X140296874Y-138025944D01*
X140275931Y-137961487D01*
X140274058Y-137955163D01*
X140258230Y-137896094D01*
X140258229Y-137896093D01*
X140256520Y-137889713D01*
X140253524Y-137883832D01*
X140253521Y-137883825D01*
X140250226Y-137877358D01*
X140242663Y-137859101D01*
X140238379Y-137845916D01*
X140235081Y-137840203D01*
X140235077Y-137840195D01*
X140204500Y-137787235D01*
X140201352Y-137781437D01*
X140173586Y-137726942D01*
X140173584Y-137726938D01*
X140170584Y-137721051D01*
X140166422Y-137715911D01*
X140161860Y-137710277D01*
X140150661Y-137693983D01*
X140147036Y-137687704D01*
X140147033Y-137687700D01*
X140143733Y-137681984D01*
X140098385Y-137631620D01*
X140094113Y-137626618D01*
X140081320Y-137610820D01*
X140066961Y-137596461D01*
X140062420Y-137591677D01*
X140021488Y-137546217D01*
X140021485Y-137546215D01*
X140017071Y-137541312D01*
X140005855Y-137533163D01*
X139990828Y-137520328D01*
X136098505Y-133628005D01*
X136064479Y-133565693D01*
X136061600Y-133538910D01*
X136061599Y-132774480D01*
X136061599Y-132771678D01*
X136054648Y-132693781D01*
X136051935Y-132663386D01*
X136051935Y-132663385D01*
X136051402Y-132657414D01*
X135998177Y-132471795D01*
X135908715Y-132300670D01*
X135896411Y-132285583D01*
X135790700Y-132155969D01*
X135786671Y-132151029D01*
X135721577Y-132097940D01*
X135644539Y-132035109D01*
X135604391Y-131976554D01*
X135602274Y-131905589D01*
X135638859Y-131844745D01*
X135702532Y-131813339D01*
X135724175Y-131811466D01*
X151581156Y-131811466D01*
X151649277Y-131831468D01*
X151695770Y-131885124D01*
X151705874Y-131955398D01*
X151692664Y-131996134D01*
X151639101Y-132097940D01*
X151579124Y-132291100D01*
X151555351Y-132491956D01*
X151568579Y-132693781D01*
X151618365Y-132889815D01*
X151703043Y-133073494D01*
X151819775Y-133238667D01*
X151964653Y-133379800D01*
X152132824Y-133492169D01*
X152138127Y-133494447D01*
X152138130Y-133494449D01*
X152303956Y-133565693D01*
X152318657Y-133572009D01*
X152515927Y-133616647D01*
X152521696Y-133616874D01*
X152521699Y-133616874D01*
X152597870Y-133619866D01*
X152718029Y-133624587D01*
X152804319Y-133612076D01*
X152912473Y-133596395D01*
X152912478Y-133596394D01*
X152918194Y-133595565D01*
X152923666Y-133593707D01*
X152923668Y-133593707D01*
X153104254Y-133532406D01*
X153104256Y-133532405D01*
X153109718Y-133530551D01*
X153275960Y-133437452D01*
X153337526Y-133421387D01*
X154776784Y-133421387D01*
X154844905Y-133441389D01*
X154891398Y-133495045D01*
X154901502Y-133565319D01*
X154872008Y-133629899D01*
X154852438Y-133648146D01*
X154753164Y-133722683D01*
X154582696Y-133901068D01*
X154579782Y-133905340D01*
X154579781Y-133905341D01*
X154560038Y-133934283D01*
X154443651Y-134104900D01*
X154339765Y-134328704D01*
X154273826Y-134566471D01*
X154247606Y-134811814D01*
X154247903Y-134816966D01*
X154247903Y-134816970D01*
X154251560Y-134880387D01*
X154261810Y-135058145D01*
X154262947Y-135063191D01*
X154262948Y-135063197D01*
X154285136Y-135161651D01*
X154316055Y-135298849D01*
X154408884Y-135527461D01*
X154537806Y-135737841D01*
X154699357Y-135924341D01*
X154889199Y-136081951D01*
X155102233Y-136206438D01*
X155107053Y-136208278D01*
X155107058Y-136208281D01*
X155221347Y-136251923D01*
X155332739Y-136294459D01*
X155337807Y-136295490D01*
X155337810Y-136295491D01*
X155457387Y-136319819D01*
X155574526Y-136343652D01*
X155579699Y-136343842D01*
X155579702Y-136343842D01*
X155815936Y-136352504D01*
X155815940Y-136352504D01*
X155821100Y-136352693D01*
X155826220Y-136352037D01*
X155826222Y-136352037D01*
X155902503Y-136342265D01*
X156065841Y-136321341D01*
X156070790Y-136319856D01*
X156070796Y-136319855D01*
X156297224Y-136251923D01*
X156297223Y-136251923D01*
X156302174Y-136250438D01*
X156481978Y-136162353D01*
X156519103Y-136144166D01*
X156519108Y-136144163D01*
X156523754Y-136141887D01*
X156527964Y-136138884D01*
X156527969Y-136138881D01*
X156720417Y-136001609D01*
X156720422Y-136001605D01*
X156724629Y-135998604D01*
X156899405Y-135824437D01*
X156902462Y-135820183D01*
X156921207Y-135794097D01*
X156977202Y-135750450D01*
X157047905Y-135744004D01*
X157110869Y-135776807D01*
X157118759Y-135785119D01*
X157239357Y-135924341D01*
X157429199Y-136081951D01*
X157642233Y-136206438D01*
X157647053Y-136208278D01*
X157647058Y-136208281D01*
X157761347Y-136251923D01*
X157872739Y-136294459D01*
X157877807Y-136295490D01*
X157877810Y-136295491D01*
X157997387Y-136319819D01*
X158114526Y-136343652D01*
X158119699Y-136343842D01*
X158119702Y-136343842D01*
X158355936Y-136352504D01*
X158355940Y-136352504D01*
X158361100Y-136352693D01*
X158366220Y-136352037D01*
X158366222Y-136352037D01*
X158442503Y-136342265D01*
X158605841Y-136321341D01*
X158610790Y-136319856D01*
X158610796Y-136319855D01*
X158837224Y-136251923D01*
X158837223Y-136251923D01*
X158842174Y-136250438D01*
X159021978Y-136162353D01*
X159059103Y-136144166D01*
X159059108Y-136144163D01*
X159063754Y-136141887D01*
X159067964Y-136138884D01*
X159067969Y-136138881D01*
X159260417Y-136001609D01*
X159260422Y-136001605D01*
X159264629Y-135998604D01*
X159439405Y-135824437D01*
X159442462Y-135820183D01*
X159461207Y-135794097D01*
X159517202Y-135750450D01*
X159587905Y-135744004D01*
X159650869Y-135776807D01*
X159658759Y-135785119D01*
X159779357Y-135924341D01*
X159969199Y-136081951D01*
X160182233Y-136206438D01*
X160187053Y-136208278D01*
X160187058Y-136208281D01*
X160301347Y-136251923D01*
X160412739Y-136294459D01*
X160417807Y-136295490D01*
X160417810Y-136295491D01*
X160537387Y-136319819D01*
X160654526Y-136343652D01*
X160659699Y-136343842D01*
X160659702Y-136343842D01*
X160895936Y-136352504D01*
X160895940Y-136352504D01*
X160901100Y-136352693D01*
X160906220Y-136352037D01*
X160906222Y-136352037D01*
X160982503Y-136342265D01*
X161145841Y-136321341D01*
X161150790Y-136319856D01*
X161150796Y-136319855D01*
X161377224Y-136251923D01*
X161377223Y-136251923D01*
X161382174Y-136250438D01*
X161561978Y-136162353D01*
X161599103Y-136144166D01*
X161599108Y-136144163D01*
X161603754Y-136141887D01*
X161607964Y-136138884D01*
X161607969Y-136138881D01*
X161800417Y-136001609D01*
X161800422Y-136001605D01*
X161804629Y-135998604D01*
X161979405Y-135824437D01*
X161982462Y-135820183D01*
X162001207Y-135794097D01*
X162057202Y-135750450D01*
X162127905Y-135744004D01*
X162190869Y-135776807D01*
X162198759Y-135785119D01*
X162319357Y-135924341D01*
X162509199Y-136081951D01*
X162722233Y-136206438D01*
X162727053Y-136208278D01*
X162727058Y-136208281D01*
X162841347Y-136251923D01*
X162952739Y-136294459D01*
X162957807Y-136295490D01*
X162957810Y-136295491D01*
X163077387Y-136319819D01*
X163194526Y-136343652D01*
X163199699Y-136343842D01*
X163199702Y-136343842D01*
X163435936Y-136352504D01*
X163435940Y-136352504D01*
X163441100Y-136352693D01*
X163446220Y-136352037D01*
X163446222Y-136352037D01*
X163522503Y-136342265D01*
X163685841Y-136321341D01*
X163690790Y-136319856D01*
X163690796Y-136319855D01*
X163917224Y-136251923D01*
X163917223Y-136251923D01*
X163922174Y-136250438D01*
X164101978Y-136162353D01*
X164139103Y-136144166D01*
X164139108Y-136144163D01*
X164143754Y-136141887D01*
X164147964Y-136138884D01*
X164147969Y-136138881D01*
X164340417Y-136001609D01*
X164340422Y-136001605D01*
X164344629Y-135998604D01*
X164519405Y-135824437D01*
X164541207Y-135794097D01*
X164660370Y-135628263D01*
X164663388Y-135624063D01*
X164772711Y-135402864D01*
X164804313Y-135298849D01*
X164842935Y-135171732D01*
X164842936Y-135171726D01*
X164844439Y-135166780D01*
X164871178Y-134963677D01*
X164876208Y-134925472D01*
X164876209Y-134925466D01*
X164876645Y-134922150D01*
X164877817Y-134874215D01*
X164878361Y-134851964D01*
X164878361Y-134851960D01*
X164878443Y-134848600D01*
X164870109Y-134747231D01*
X164858649Y-134607840D01*
X164858648Y-134607834D01*
X164858225Y-134602689D01*
X164798116Y-134363383D01*
X164699728Y-134137107D01*
X164565705Y-133929939D01*
X164539435Y-133901068D01*
X164436458Y-133787898D01*
X164399646Y-133747442D01*
X164395595Y-133744243D01*
X164395591Y-133744239D01*
X164210064Y-133597719D01*
X164210059Y-133597716D01*
X164206010Y-133594518D01*
X164201494Y-133592025D01*
X164201491Y-133592023D01*
X163994522Y-133477770D01*
X163994518Y-133477768D01*
X163989998Y-133475273D01*
X163985129Y-133473549D01*
X163985125Y-133473547D01*
X163762285Y-133394635D01*
X163762281Y-133394634D01*
X163757410Y-133392909D01*
X163752317Y-133392002D01*
X163752314Y-133392001D01*
X163519583Y-133350545D01*
X163519577Y-133350544D01*
X163514494Y-133349639D01*
X163435124Y-133348669D01*
X163272942Y-133346688D01*
X163272940Y-133346688D01*
X163267772Y-133346625D01*
X163023870Y-133383947D01*
X162789340Y-133460603D01*
X162570479Y-133574535D01*
X162566346Y-133577638D01*
X162566343Y-133577640D01*
X162377299Y-133719578D01*
X162373164Y-133722683D01*
X162202696Y-133901068D01*
X162199783Y-133905339D01*
X162199623Y-133905536D01*
X162141208Y-133945888D01*
X162070251Y-133948252D01*
X162008510Y-133911041D01*
X161863125Y-133751265D01*
X161863123Y-133751263D01*
X161859646Y-133747442D01*
X161855595Y-133744243D01*
X161855591Y-133744239D01*
X161670064Y-133597719D01*
X161670059Y-133597716D01*
X161666010Y-133594518D01*
X161661494Y-133592025D01*
X161661491Y-133592023D01*
X161454522Y-133477770D01*
X161454518Y-133477768D01*
X161449998Y-133475273D01*
X161445129Y-133473549D01*
X161445125Y-133473547D01*
X161222285Y-133394635D01*
X161222281Y-133394634D01*
X161217410Y-133392909D01*
X161212317Y-133392002D01*
X161212314Y-133392001D01*
X160979583Y-133350545D01*
X160979577Y-133350544D01*
X160974494Y-133349639D01*
X160895124Y-133348669D01*
X160732942Y-133346688D01*
X160732940Y-133346688D01*
X160727772Y-133346625D01*
X160483870Y-133383947D01*
X160249340Y-133460603D01*
X160030479Y-133574535D01*
X160026346Y-133577638D01*
X160026343Y-133577640D01*
X159837299Y-133719578D01*
X159833164Y-133722683D01*
X159662696Y-133901068D01*
X159659783Y-133905339D01*
X159659623Y-133905536D01*
X159601208Y-133945888D01*
X159530251Y-133948252D01*
X159468510Y-133911041D01*
X159323125Y-133751265D01*
X159323123Y-133751263D01*
X159319646Y-133747442D01*
X159315595Y-133744243D01*
X159315591Y-133744239D01*
X159130064Y-133597719D01*
X159130059Y-133597716D01*
X159126010Y-133594518D01*
X159121494Y-133592025D01*
X159121491Y-133592023D01*
X158914522Y-133477770D01*
X158914518Y-133477768D01*
X158909998Y-133475273D01*
X158721337Y-133408465D01*
X158663801Y-133366871D01*
X158637885Y-133300773D01*
X158651819Y-133231157D01*
X158674302Y-133200597D01*
X160590135Y-131284764D01*
X160649819Y-131251340D01*
X160653290Y-131250507D01*
X160659007Y-131249678D01*
X160664475Y-131247822D01*
X160845067Y-131186519D01*
X160845069Y-131186518D01*
X160850531Y-131184664D01*
X161027001Y-131085837D01*
X161036386Y-131078032D01*
X161113604Y-131013810D01*
X161182505Y-130956505D01*
X161311837Y-130801001D01*
X161353839Y-130726001D01*
X161386601Y-130667500D01*
X161437338Y-130617838D01*
X161506870Y-130603490D01*
X161573035Y-130628958D01*
X161576078Y-130631622D01*
X161579562Y-130633937D01*
X161579565Y-130633939D01*
X161589471Y-130640520D01*
X161600730Y-130648942D01*
X161613063Y-130659291D01*
X161616589Y-130661528D01*
X161616599Y-130661536D01*
X161715916Y-130724563D01*
X161718098Y-130725980D01*
X161819561Y-130793392D01*
X161834025Y-130800447D01*
X161846296Y-130807305D01*
X161859881Y-130815926D01*
X161863672Y-130817678D01*
X161863678Y-130817681D01*
X161935448Y-130850843D01*
X161954045Y-130859436D01*
X161970484Y-130867032D01*
X161972850Y-130868156D01*
X162082301Y-130921538D01*
X162097563Y-130926615D01*
X162110633Y-130931790D01*
X162125246Y-130938542D01*
X162129244Y-130939780D01*
X162129245Y-130939780D01*
X162241646Y-130974574D01*
X162244118Y-130975368D01*
X162359680Y-131013810D01*
X162363778Y-131014592D01*
X162363787Y-131014594D01*
X162375477Y-131016824D01*
X162389124Y-131020227D01*
X162400497Y-131023747D01*
X162400505Y-131023749D01*
X162404498Y-131024985D01*
X162458955Y-131034196D01*
X162524599Y-131045299D01*
X162527195Y-131045766D01*
X162642720Y-131067803D01*
X162642724Y-131067803D01*
X162646826Y-131068586D01*
X162650985Y-131068818D01*
X162651005Y-131068821D01*
X162662886Y-131069485D01*
X162676860Y-131071052D01*
X162688596Y-131073037D01*
X162688609Y-131073038D01*
X162692728Y-131073735D01*
X162732374Y-131075119D01*
X162814429Y-131077985D01*
X162817065Y-131078104D01*
X162934528Y-131084671D01*
X162938695Y-131084904D01*
X162942854Y-131084584D01*
X162942860Y-131084584D01*
X162954740Y-131083670D01*
X162968797Y-131083376D01*
X162977850Y-131083692D01*
X162984875Y-131083937D01*
X163031682Y-131079348D01*
X163106111Y-131072050D01*
X163108739Y-131071820D01*
X163225990Y-131062798D01*
X163225995Y-131062797D01*
X163230157Y-131062477D01*
X163234244Y-131061608D01*
X163238381Y-131061012D01*
X163238464Y-131061590D01*
X163256466Y-131059700D01*
X169797151Y-131059700D01*
X169799243Y-131059561D01*
X169799245Y-131059561D01*
X170010511Y-131045529D01*
X170014682Y-131045252D01*
X170018776Y-131044427D01*
X170018780Y-131044426D01*
X170170617Y-131013810D01*
X170301239Y-130987472D01*
X170577637Y-130892300D01*
X170616106Y-130873036D01*
X170672524Y-130859699D01*
X171078992Y-130859699D01*
X171081850Y-130859436D01*
X171081859Y-130859436D01*
X171120757Y-130855862D01*
X171151594Y-130853029D01*
X171157973Y-130851030D01*
X171306134Y-130804599D01*
X171306136Y-130804598D01*
X171313383Y-130802327D01*
X171458408Y-130714497D01*
X171578297Y-130594608D01*
X171666127Y-130449583D01*
X171716829Y-130287794D01*
X171723500Y-130215193D01*
X171723500Y-129804876D01*
X171735680Y-129750831D01*
X171771754Y-129674859D01*
X171771757Y-129674851D01*
X171773552Y-129671071D01*
X171799922Y-129588940D01*
X171841855Y-129458331D01*
X171862914Y-129392741D01*
X171914681Y-129105036D01*
X171927941Y-128813013D01*
X171902464Y-128521801D01*
X171838695Y-128236517D01*
X171792458Y-128110847D01*
X171739198Y-127966092D01*
X171739197Y-127966091D01*
X171737756Y-127962173D01*
X171735807Y-127958476D01*
X171734394Y-127955303D01*
X171723499Y-127904051D01*
X171723499Y-127503208D01*
X171716829Y-127430606D01*
X171714830Y-127424227D01*
X171668399Y-127276066D01*
X171668398Y-127276064D01*
X171666127Y-127268817D01*
X171578297Y-127123792D01*
X171458408Y-127003903D01*
X171313383Y-126916073D01*
X171306136Y-126913802D01*
X171306134Y-126913801D01*
X171240894Y-126893356D01*
X171151594Y-126865371D01*
X171078993Y-126858700D01*
X170666964Y-126858700D01*
X170615314Y-126847627D01*
X170491750Y-126792095D01*
X170405077Y-126766256D01*
X170215606Y-126709772D01*
X170215598Y-126709770D01*
X170211609Y-126708581D01*
X170207492Y-126707929D01*
X170207488Y-126707928D01*
X169926351Y-126663401D01*
X169926346Y-126663401D01*
X169922883Y-126662852D01*
X169873931Y-126660629D01*
X169832872Y-126658764D01*
X169832853Y-126658764D01*
X169831453Y-126658700D01*
X163858867Y-126658700D01*
X163790746Y-126638698D01*
X163769772Y-126621795D01*
X162372083Y-125224106D01*
X168642839Y-125224106D01*
X168651553Y-125235627D01*
X168758452Y-125314009D01*
X168766351Y-125318945D01*
X168995905Y-125439719D01*
X169004454Y-125443436D01*
X169249327Y-125528949D01*
X169258336Y-125531363D01*
X169513166Y-125579744D01*
X169522423Y-125580798D01*
X169781607Y-125590983D01*
X169790921Y-125590657D01*
X170048753Y-125562420D01*
X170057930Y-125560719D01*
X170308758Y-125494681D01*
X170317574Y-125491645D01*
X170555880Y-125389262D01*
X170564167Y-125384948D01*
X170784718Y-125248466D01*
X170792268Y-125242980D01*
X170797559Y-125238501D01*
X170805997Y-125225697D01*
X170799935Y-125215345D01*
X169735812Y-124151222D01*
X169721868Y-124143608D01*
X169720035Y-124143739D01*
X169713420Y-124147990D01*
X168649497Y-125211913D01*
X168642839Y-125224106D01*
X162372083Y-125224106D01*
X161622270Y-124474293D01*
X161619214Y-124471130D01*
X161548563Y-124395366D01*
X161545717Y-124392314D01*
X161542488Y-124389662D01*
X161542483Y-124389657D01*
X161461010Y-124322734D01*
X161457991Y-124320174D01*
X161398527Y-124268117D01*
X161375522Y-124247977D01*
X161351943Y-124232311D01*
X161341695Y-124224728D01*
X161323066Y-124209426D01*
X161319829Y-124206767D01*
X161260102Y-124169735D01*
X161212748Y-124116840D01*
X161200500Y-124062650D01*
X161200500Y-123736411D01*
X167910775Y-123736411D01*
X167923220Y-123995488D01*
X167924356Y-124004743D01*
X167974961Y-124259145D01*
X167977449Y-124268117D01*
X168065095Y-124512233D01*
X168068895Y-124520768D01*
X168191658Y-124749242D01*
X168196666Y-124757104D01*
X168266720Y-124850916D01*
X168277979Y-124859365D01*
X168290397Y-124852593D01*
X169350978Y-123792012D01*
X169357356Y-123780332D01*
X170087408Y-123780332D01*
X170087539Y-123782165D01*
X170091790Y-123788780D01*
X171159094Y-124856084D01*
X171171474Y-124862844D01*
X171179815Y-124856600D01*
X171313832Y-124648248D01*
X171318275Y-124640064D01*
X171424807Y-124403570D01*
X171427997Y-124394805D01*
X171498402Y-124145172D01*
X171500262Y-124136030D01*
X171533187Y-123877219D01*
X171533668Y-123870933D01*
X171535987Y-123782360D01*
X171535836Y-123776051D01*
X171516501Y-123515863D01*
X171515125Y-123506657D01*
X171457878Y-123253667D01*
X171455154Y-123244756D01*
X171361143Y-123003006D01*
X171357132Y-122994597D01*
X171228422Y-122769402D01*
X171223211Y-122761676D01*
X171179996Y-122706858D01*
X171168071Y-122698387D01*
X171156537Y-122704873D01*
X170095022Y-123766388D01*
X170087408Y-123780332D01*
X169357356Y-123780332D01*
X169358592Y-123778068D01*
X169358461Y-123776235D01*
X169354210Y-123769620D01*
X168288816Y-122704226D01*
X168275507Y-122696958D01*
X168265472Y-122704078D01*
X168249937Y-122722756D01*
X168244531Y-122730335D01*
X168109965Y-122952091D01*
X168105736Y-122960392D01*
X168005432Y-123199589D01*
X168002471Y-123208439D01*
X167938628Y-123459825D01*
X167937006Y-123469022D01*
X167911020Y-123727085D01*
X167910775Y-123736411D01*
X161200500Y-123736411D01*
X161200500Y-122331889D01*
X168640102Y-122331889D01*
X168644675Y-122341665D01*
X169710188Y-123407178D01*
X169724132Y-123414792D01*
X169725965Y-123414661D01*
X169732580Y-123410410D01*
X170797349Y-122345641D01*
X170803733Y-122333951D01*
X170794321Y-122321841D01*
X170647045Y-122219671D01*
X170639010Y-122214938D01*
X170406376Y-122100216D01*
X170397743Y-122096728D01*
X170150703Y-122017650D01*
X170141643Y-122015474D01*
X169885630Y-121973780D01*
X169876343Y-121972968D01*
X169616992Y-121969573D01*
X169607681Y-121970143D01*
X169350682Y-122005119D01*
X169341546Y-122007060D01*
X169092543Y-122079639D01*
X169083800Y-122082907D01*
X168848252Y-122191496D01*
X168840097Y-122196016D01*
X168649240Y-122321147D01*
X168640102Y-122331889D01*
X161200500Y-122331889D01*
X161200500Y-121325849D01*
X161200254Y-121322137D01*
X161186329Y-121112489D01*
X161186052Y-121108318D01*
X161128272Y-120821761D01*
X161033100Y-120545363D01*
X161022843Y-120524879D01*
X160904084Y-120287724D01*
X160904083Y-120287722D01*
X160902209Y-120283980D01*
X160788166Y-120116171D01*
X160740250Y-120045664D01*
X160740248Y-120045661D01*
X160737899Y-120042205D01*
X160543055Y-119824284D01*
X160321102Y-119634047D01*
X160147918Y-119521580D01*
X160079437Y-119477108D01*
X160079434Y-119477106D01*
X160075938Y-119474836D01*
X159811871Y-119349448D01*
X159807888Y-119348169D01*
X159807885Y-119348168D01*
X159608974Y-119284305D01*
X159533541Y-119260086D01*
X159407852Y-119237471D01*
X159249940Y-119209057D01*
X159249934Y-119209056D01*
X159245836Y-119208319D01*
X159080709Y-119200821D01*
X158957983Y-119195248D01*
X158957978Y-119195248D01*
X158953813Y-119195059D01*
X158949665Y-119195422D01*
X158949660Y-119195422D01*
X158832590Y-119205664D01*
X158662601Y-119220536D01*
X158488972Y-119259347D01*
X158381405Y-119283391D01*
X158381402Y-119283392D01*
X158377317Y-119284305D01*
X158373392Y-119285749D01*
X158373389Y-119285750D01*
X158255111Y-119329268D01*
X158102973Y-119385244D01*
X158099285Y-119387188D01*
X158099277Y-119387192D01*
X157848092Y-119519627D01*
X157844388Y-119521580D01*
X157606107Y-119690918D01*
X157392314Y-119890283D01*
X157206767Y-120116171D01*
X157052725Y-120364616D01*
X156932895Y-120631250D01*
X156931701Y-120635256D01*
X156850572Y-120907394D01*
X156850570Y-120907402D01*
X156849381Y-120911391D01*
X156848729Y-120915508D01*
X156848728Y-120915512D01*
X156812530Y-121144061D01*
X156803652Y-121200117D01*
X156803493Y-121203629D01*
X156801255Y-121252911D01*
X156799500Y-121291547D01*
X156799500Y-125036333D01*
X156779498Y-125104454D01*
X156762595Y-125125428D01*
X154514462Y-127373561D01*
X154452150Y-127407587D01*
X154425367Y-127410466D01*
X136416633Y-127410466D01*
X136348512Y-127390464D01*
X136327538Y-127373561D01*
X136250556Y-127296579D01*
X136086522Y-127152977D01*
X135843039Y-126991208D01*
X135719061Y-126930740D01*
X135584052Y-126864892D01*
X135584046Y-126864890D01*
X135580299Y-126863062D01*
X135576343Y-126861746D01*
X135576338Y-126861744D01*
X135372123Y-126793811D01*
X135302920Y-126770790D01*
X135298813Y-126770007D01*
X135298811Y-126770006D01*
X135047793Y-126722122D01*
X135015774Y-126716014D01*
X135011609Y-126715781D01*
X135011608Y-126715781D01*
X134869840Y-126707855D01*
X134723905Y-126699696D01*
X134719746Y-126700016D01*
X134719744Y-126700016D01*
X134624073Y-126707377D01*
X134432443Y-126722122D01*
X134289475Y-126752511D01*
X134150590Y-126782032D01*
X134150588Y-126782033D01*
X134146507Y-126782900D01*
X133871120Y-126880961D01*
X133867403Y-126882871D01*
X133867399Y-126882873D01*
X133631902Y-127003903D01*
X133611123Y-127014582D01*
X133371080Y-127181415D01*
X133367997Y-127184230D01*
X133367991Y-127184235D01*
X133244960Y-127296579D01*
X133155212Y-127378530D01*
X132967309Y-127602463D01*
X132810674Y-127849281D01*
X132808924Y-127853068D01*
X132808922Y-127853072D01*
X132756700Y-127966092D01*
X132688058Y-128114646D01*
X132686821Y-128118644D01*
X132686820Y-128118645D01*
X132602852Y-128389900D01*
X132602850Y-128389908D01*
X132601615Y-128393898D01*
X132600918Y-128398019D01*
X132557604Y-128654111D01*
X132552865Y-128682128D01*
X132542663Y-128974275D01*
X132571189Y-129265203D01*
X132572143Y-129269271D01*
X132572144Y-129269276D01*
X132630958Y-129520026D01*
X132637942Y-129549804D01*
X132741748Y-129823076D01*
X132880784Y-130080219D01*
X133052609Y-130316714D01*
X133054979Y-130319309D01*
X133113359Y-130383245D01*
X133113376Y-130383262D01*
X133114324Y-130384301D01*
X133383484Y-130653461D01*
X133417510Y-130715773D01*
X133412445Y-130786588D01*
X133369898Y-130843424D01*
X133358823Y-130850834D01*
X133350371Y-130855862D01*
X133198305Y-130989220D01*
X133073089Y-131148057D01*
X132978914Y-131327053D01*
X132918937Y-131520213D01*
X132918258Y-131525950D01*
X132917301Y-131530452D01*
X132883149Y-131593351D01*
X132579191Y-131897309D01*
X132516879Y-131931335D01*
X132455368Y-131929333D01*
X132305286Y-131886298D01*
X132273003Y-131883417D01*
X132193816Y-131876349D01*
X132193810Y-131876349D01*
X132191023Y-131876100D01*
X132188221Y-131876100D01*
X131673601Y-131876101D01*
X131156178Y-131876101D01*
X131153392Y-131876350D01*
X131153384Y-131876350D01*
X131047886Y-131885765D01*
X131047885Y-131885765D01*
X131041914Y-131886298D01*
X131036154Y-131887950D01*
X131036152Y-131887950D01*
X130861230Y-131938108D01*
X130790235Y-131937657D01*
X130730754Y-131898895D01*
X130701671Y-131834129D01*
X130700500Y-131816989D01*
X130700500Y-125169669D01*
X132939001Y-125169669D01*
X132939371Y-125176490D01*
X132944895Y-125227352D01*
X132948521Y-125242604D01*
X132993676Y-125363054D01*
X133002214Y-125378649D01*
X133078715Y-125480724D01*
X133091276Y-125493285D01*
X133193351Y-125569786D01*
X133208946Y-125578324D01*
X133329394Y-125623478D01*
X133344649Y-125627105D01*
X133395514Y-125632631D01*
X133402328Y-125633000D01*
X134474885Y-125633000D01*
X134490124Y-125628525D01*
X134491329Y-125627135D01*
X134493000Y-125619452D01*
X134493000Y-125614884D01*
X135001000Y-125614884D01*
X135005475Y-125630123D01*
X135006865Y-125631328D01*
X135014548Y-125632999D01*
X136091669Y-125632999D01*
X136098490Y-125632629D01*
X136149352Y-125627105D01*
X136164604Y-125623479D01*
X136285054Y-125578324D01*
X136300649Y-125569786D01*
X136402724Y-125493285D01*
X136415285Y-125480724D01*
X136491786Y-125378649D01*
X136500324Y-125363054D01*
X136545478Y-125242606D01*
X136549105Y-125227351D01*
X136554631Y-125176486D01*
X136555000Y-125169672D01*
X136555000Y-124097115D01*
X136550525Y-124081876D01*
X136549135Y-124080671D01*
X136541452Y-124079000D01*
X135019115Y-124079000D01*
X135003876Y-124083475D01*
X135002671Y-124084865D01*
X135001000Y-124092548D01*
X135001000Y-125614884D01*
X134493000Y-125614884D01*
X134493000Y-124097115D01*
X134488525Y-124081876D01*
X134487135Y-124080671D01*
X134479452Y-124079000D01*
X132957116Y-124079000D01*
X132941877Y-124083475D01*
X132940672Y-124084865D01*
X132939001Y-124092548D01*
X132939001Y-125169669D01*
X130700500Y-125169669D01*
X130700500Y-123552885D01*
X132939000Y-123552885D01*
X132943475Y-123568124D01*
X132944865Y-123569329D01*
X132952548Y-123571000D01*
X134474885Y-123571000D01*
X134490124Y-123566525D01*
X134491329Y-123565135D01*
X134493000Y-123557452D01*
X134493000Y-123552885D01*
X135001000Y-123552885D01*
X135005475Y-123568124D01*
X135006865Y-123569329D01*
X135014548Y-123571000D01*
X136536884Y-123571000D01*
X136552123Y-123566525D01*
X136553328Y-123565135D01*
X136554999Y-123557452D01*
X136554999Y-122480331D01*
X136554629Y-122473510D01*
X136549105Y-122422648D01*
X136545479Y-122407396D01*
X136500324Y-122286946D01*
X136491786Y-122271351D01*
X136415285Y-122169276D01*
X136402724Y-122156715D01*
X136300649Y-122080214D01*
X136285054Y-122071676D01*
X136164606Y-122026522D01*
X136149351Y-122022895D01*
X136098486Y-122017369D01*
X136091672Y-122017000D01*
X135019115Y-122017000D01*
X135003876Y-122021475D01*
X135002671Y-122022865D01*
X135001000Y-122030548D01*
X135001000Y-123552885D01*
X134493000Y-123552885D01*
X134493000Y-122035116D01*
X134488525Y-122019877D01*
X134487135Y-122018672D01*
X134479452Y-122017001D01*
X133402331Y-122017001D01*
X133395510Y-122017371D01*
X133344648Y-122022895D01*
X133329396Y-122026521D01*
X133208946Y-122071676D01*
X133193351Y-122080214D01*
X133091276Y-122156715D01*
X133078715Y-122169276D01*
X133002214Y-122271351D01*
X132993676Y-122286946D01*
X132948522Y-122407394D01*
X132944895Y-122422649D01*
X132939369Y-122473514D01*
X132939000Y-122480328D01*
X132939000Y-123552885D01*
X130700500Y-123552885D01*
X130700500Y-102414837D01*
X130720502Y-102346716D01*
X130774158Y-102300223D01*
X130844432Y-102290119D01*
X130878349Y-102299999D01*
X130882317Y-102301791D01*
X130888817Y-102305727D01*
X131050606Y-102356429D01*
X131123207Y-102363100D01*
X131829746Y-102363100D01*
X131897867Y-102383102D01*
X131918841Y-102400005D01*
X133165820Y-103646983D01*
X134382541Y-104863704D01*
X134416566Y-104926016D01*
X134411502Y-104996831D01*
X134382541Y-105041894D01*
X134031347Y-105393088D01*
X134025330Y-105398724D01*
X133978402Y-105439879D01*
X133978399Y-105439882D01*
X133974057Y-105443690D01*
X133970482Y-105448225D01*
X133970480Y-105448227D01*
X133916489Y-105516714D01*
X133914414Y-105519276D01*
X133898591Y-105538302D01*
X133854998Y-105590717D01*
X133852173Y-105595761D01*
X133852102Y-105595887D01*
X133841129Y-105612309D01*
X133841038Y-105612424D01*
X133841035Y-105612429D01*
X133837463Y-105616960D01*
X133834773Y-105622073D01*
X133794185Y-105699217D01*
X133792621Y-105702098D01*
X133747190Y-105783221D01*
X133745290Y-105788820D01*
X133737484Y-105806987D01*
X133734731Y-105812220D01*
X133733018Y-105817737D01*
X133707169Y-105900984D01*
X133706150Y-105904120D01*
X133683235Y-105971627D01*
X133676269Y-105992148D01*
X133675418Y-105998016D01*
X133671061Y-106017270D01*
X133671015Y-106017417D01*
X133671014Y-106017423D01*
X133669303Y-106022933D01*
X133668625Y-106028661D01*
X133668624Y-106028666D01*
X133658377Y-106115250D01*
X133657946Y-106118522D01*
X133653188Y-106151339D01*
X133644609Y-106210502D01*
X133647500Y-106284082D01*
X133648003Y-106296886D01*
X133648100Y-106301833D01*
X133648100Y-114595148D01*
X133628098Y-114663269D01*
X133611196Y-114684243D01*
X132913749Y-115381691D01*
X132907730Y-115387328D01*
X132856457Y-115432293D01*
X132852885Y-115436824D01*
X132798889Y-115505317D01*
X132796814Y-115507879D01*
X132737398Y-115579320D01*
X132734573Y-115584364D01*
X132734502Y-115584490D01*
X132723529Y-115600912D01*
X132723438Y-115601027D01*
X132723435Y-115601032D01*
X132719863Y-115605563D01*
X132717173Y-115610676D01*
X132676585Y-115687820D01*
X132675021Y-115690701D01*
X132672285Y-115695587D01*
X132634759Y-115762595D01*
X132629590Y-115771824D01*
X132627690Y-115777423D01*
X132619884Y-115795590D01*
X132617131Y-115800823D01*
X132590265Y-115887347D01*
X132589569Y-115889587D01*
X132588550Y-115892723D01*
X132570271Y-115946573D01*
X132558669Y-115980751D01*
X132557818Y-115986619D01*
X132553461Y-116005873D01*
X132553415Y-116006020D01*
X132553414Y-116006026D01*
X132551703Y-116011536D01*
X132541598Y-116096920D01*
X132540777Y-116103853D01*
X132540347Y-116107118D01*
X132527009Y-116199105D01*
X132530403Y-116285489D01*
X132530500Y-116290436D01*
X132530500Y-117379471D01*
X132530230Y-117387712D01*
X132525770Y-117455760D01*
X132526449Y-117461495D01*
X132536699Y-117548095D01*
X132537040Y-117551349D01*
X132545546Y-117643911D01*
X132547116Y-117649478D01*
X132547117Y-117649482D01*
X132547152Y-117649606D01*
X132551008Y-117668989D01*
X132551704Y-117674867D01*
X132553416Y-117680379D01*
X132579272Y-117763651D01*
X132580186Y-117766735D01*
X132605435Y-117856264D01*
X132607988Y-117861441D01*
X132607992Y-117861451D01*
X132608054Y-117861576D01*
X132615379Y-117879937D01*
X132617131Y-117885579D01*
X132651853Y-117951575D01*
X132660403Y-117967825D01*
X132661896Y-117970756D01*
X132703020Y-118054147D01*
X132706564Y-118058893D01*
X132717108Y-118075605D01*
X132719863Y-118080841D01*
X132777417Y-118153848D01*
X132779413Y-118156450D01*
X132835033Y-118230933D01*
X132898518Y-118289618D01*
X132902084Y-118293048D01*
X135747080Y-121138043D01*
X135752717Y-121144061D01*
X135797690Y-121195343D01*
X135802221Y-121198915D01*
X135870714Y-121252911D01*
X135873276Y-121254986D01*
X135918937Y-121292961D01*
X135944717Y-121314402D01*
X135949761Y-121317227D01*
X135949887Y-121317298D01*
X135966309Y-121328271D01*
X135966424Y-121328362D01*
X135966429Y-121328365D01*
X135970960Y-121331937D01*
X135976073Y-121334627D01*
X136053217Y-121375215D01*
X136056098Y-121376779D01*
X136137221Y-121422210D01*
X136142820Y-121424110D01*
X136160987Y-121431916D01*
X136161065Y-121431957D01*
X136166220Y-121434669D01*
X136171738Y-121436382D01*
X136171737Y-121436382D01*
X136254984Y-121462231D01*
X136258120Y-121463250D01*
X136340679Y-121491275D01*
X136340684Y-121491276D01*
X136346148Y-121493131D01*
X136352016Y-121493982D01*
X136371270Y-121498339D01*
X136371417Y-121498385D01*
X136371423Y-121498386D01*
X136376933Y-121500097D01*
X136382661Y-121500775D01*
X136382666Y-121500776D01*
X136456406Y-121509503D01*
X136469256Y-121511024D01*
X136472515Y-121511453D01*
X136488773Y-121513810D01*
X136558789Y-121523963D01*
X136558793Y-121523963D01*
X136564502Y-121524791D01*
X136650886Y-121521397D01*
X136655833Y-121521300D01*
X143255100Y-121521300D01*
X143323221Y-121541302D01*
X143369714Y-121594958D01*
X143381100Y-121647300D01*
X143381101Y-122696958D01*
X143381101Y-123430792D01*
X143381364Y-123433650D01*
X143381364Y-123433659D01*
X143383768Y-123459825D01*
X143387771Y-123503394D01*
X143389770Y-123509773D01*
X143399258Y-123540049D01*
X143404151Y-123592538D01*
X143395164Y-123668469D01*
X143408392Y-123870294D01*
X143458178Y-124066328D01*
X143542856Y-124250007D01*
X143659588Y-124415180D01*
X143804466Y-124556313D01*
X143972637Y-124668682D01*
X143977940Y-124670960D01*
X143977943Y-124670962D01*
X144066291Y-124708919D01*
X144158470Y-124748522D01*
X144355740Y-124793160D01*
X144361509Y-124793387D01*
X144361512Y-124793387D01*
X144437683Y-124796379D01*
X144557842Y-124801100D01*
X144644132Y-124788589D01*
X144752286Y-124772908D01*
X144752291Y-124772907D01*
X144758007Y-124772078D01*
X144763479Y-124770220D01*
X144763481Y-124770220D01*
X144944067Y-124708919D01*
X144944069Y-124708918D01*
X144949531Y-124707064D01*
X145126001Y-124608237D01*
X145188433Y-124556313D01*
X145277073Y-124482591D01*
X145281505Y-124478905D01*
X145410837Y-124323401D01*
X145509664Y-124146931D01*
X145510128Y-124147191D01*
X145553672Y-124095958D01*
X145622803Y-124075300D01*
X147571460Y-124075299D01*
X147637592Y-124075299D01*
X147640450Y-124075036D01*
X147640459Y-124075036D01*
X147678127Y-124071575D01*
X147710194Y-124068629D01*
X147716579Y-124066628D01*
X147864734Y-124020199D01*
X147864736Y-124020198D01*
X147871983Y-124017927D01*
X148017008Y-123930097D01*
X148136897Y-123810208D01*
X148224727Y-123665183D01*
X148275429Y-123503394D01*
X148282100Y-123430793D01*
X148282099Y-121647300D01*
X148302101Y-121579179D01*
X148355757Y-121532686D01*
X148408099Y-121521300D01*
X148655100Y-121521300D01*
X148723221Y-121541302D01*
X148769714Y-121594958D01*
X148781100Y-121647300D01*
X148781101Y-122696958D01*
X148781101Y-123430792D01*
X148781364Y-123433650D01*
X148781364Y-123433659D01*
X148783768Y-123459825D01*
X148787771Y-123503394D01*
X148789770Y-123509772D01*
X148789770Y-123509773D01*
X148808958Y-123571000D01*
X148838473Y-123665183D01*
X148926303Y-123810208D01*
X149046192Y-123930097D01*
X149191217Y-124017927D01*
X149198464Y-124020198D01*
X149198466Y-124020199D01*
X149263706Y-124040644D01*
X149353006Y-124068629D01*
X149425607Y-124075300D01*
X149428505Y-124075300D01*
X151236286Y-124075299D01*
X153037592Y-124075299D01*
X153040450Y-124075036D01*
X153040459Y-124075036D01*
X153078127Y-124071575D01*
X153110194Y-124068629D01*
X153116579Y-124066628D01*
X153264734Y-124020199D01*
X153264736Y-124020198D01*
X153271983Y-124017927D01*
X153417008Y-123930097D01*
X153536897Y-123810208D01*
X153624727Y-123665183D01*
X153675429Y-123503394D01*
X153682100Y-123430793D01*
X153682099Y-121018808D01*
X153675429Y-120946206D01*
X153624727Y-120784417D01*
X153536897Y-120639392D01*
X153417008Y-120519503D01*
X153271983Y-120431673D01*
X153264736Y-120429402D01*
X153264734Y-120429401D01*
X153199494Y-120408956D01*
X153110194Y-120380971D01*
X153037593Y-120374300D01*
X152991022Y-120374300D01*
X151197854Y-120374301D01*
X151129733Y-120354299D01*
X151083240Y-120300643D01*
X151073136Y-120230369D01*
X151102630Y-120165789D01*
X151108746Y-120159219D01*
X152033611Y-119234353D01*
X152095922Y-119200329D01*
X152114460Y-119197720D01*
X152221631Y-119190695D01*
X152283723Y-119186626D01*
X152283726Y-119186626D01*
X152287839Y-119186356D01*
X152291879Y-119185552D01*
X152291882Y-119185552D01*
X152566703Y-119130887D01*
X152566709Y-119130885D01*
X152570753Y-119130081D01*
X152574659Y-119128755D01*
X152574663Y-119128754D01*
X152840002Y-119038683D01*
X152840004Y-119038682D01*
X152843902Y-119037359D01*
X153013759Y-118953595D01*
X153098907Y-118911605D01*
X153098912Y-118911602D01*
X153102611Y-118909778D01*
X153315246Y-118767700D01*
X153339023Y-118751813D01*
X153339028Y-118751809D01*
X153342454Y-118749520D01*
X153345548Y-118746806D01*
X153345554Y-118746802D01*
X153556238Y-118562036D01*
X153559327Y-118559327D01*
X153600111Y-118512822D01*
X153746802Y-118345554D01*
X153746806Y-118345548D01*
X153749520Y-118342454D01*
X153753548Y-118336427D01*
X153796649Y-118271920D01*
X153806954Y-118256498D01*
X153861431Y-118210970D01*
X153911719Y-118200500D01*
X154735271Y-118200500D01*
X154743513Y-118200770D01*
X154811560Y-118205230D01*
X154903927Y-118194298D01*
X154907149Y-118193960D01*
X154999711Y-118185454D01*
X155005278Y-118183884D01*
X155005282Y-118183883D01*
X155005406Y-118183848D01*
X155024789Y-118179992D01*
X155024929Y-118179975D01*
X155030667Y-118179296D01*
X155119459Y-118151726D01*
X155122535Y-118150814D01*
X155212064Y-118125565D01*
X155217241Y-118123012D01*
X155217251Y-118123008D01*
X155217376Y-118122946D01*
X155235737Y-118115621D01*
X155235860Y-118115583D01*
X155235864Y-118115581D01*
X155241379Y-118113869D01*
X155323634Y-118070593D01*
X155326565Y-118069099D01*
X155347283Y-118058882D01*
X155409947Y-118027980D01*
X155414693Y-118024436D01*
X155431405Y-118013892D01*
X155436641Y-118011137D01*
X155509663Y-117953572D01*
X155512265Y-117951575D01*
X155582109Y-117899420D01*
X155586733Y-117895967D01*
X155645418Y-117832481D01*
X155648848Y-117828916D01*
X156771958Y-116705805D01*
X156834270Y-116671780D01*
X156861053Y-116668900D01*
X163509146Y-116668900D01*
X163577267Y-116688902D01*
X163598241Y-116705805D01*
X165032287Y-118139851D01*
X165037924Y-118145869D01*
X165082890Y-118197143D01*
X165155883Y-118254685D01*
X165158419Y-118256738D01*
X165229917Y-118316202D01*
X165234961Y-118319027D01*
X165235087Y-118319098D01*
X165251509Y-118330071D01*
X165251624Y-118330162D01*
X165251629Y-118330165D01*
X165256160Y-118333737D01*
X165261273Y-118336427D01*
X165338417Y-118377015D01*
X165341298Y-118378579D01*
X165422421Y-118424010D01*
X165427888Y-118425866D01*
X165427897Y-118425870D01*
X165428031Y-118425915D01*
X165446187Y-118433716D01*
X165451420Y-118436469D01*
X165456934Y-118438181D01*
X165456936Y-118438182D01*
X165540175Y-118464029D01*
X165543311Y-118465048D01*
X165625877Y-118493075D01*
X165631348Y-118494932D01*
X165637210Y-118495782D01*
X165656487Y-118500144D01*
X165662133Y-118501897D01*
X165667863Y-118502575D01*
X165667867Y-118502576D01*
X165754440Y-118512822D01*
X165757711Y-118513253D01*
X165781787Y-118516744D01*
X165849702Y-118526591D01*
X165936086Y-118523197D01*
X165941033Y-118523100D01*
X166616949Y-118523100D01*
X166685070Y-118543102D01*
X166696584Y-118551457D01*
X166769322Y-118610780D01*
X166769325Y-118610782D01*
X166774270Y-118614815D01*
X166945394Y-118704277D01*
X166951522Y-118706034D01*
X166951524Y-118706035D01*
X167047879Y-118733664D01*
X167131013Y-118757502D01*
X167163296Y-118760383D01*
X167242483Y-118767451D01*
X167242489Y-118767451D01*
X167245276Y-118767700D01*
X168805124Y-118767700D01*
X168807911Y-118767451D01*
X168807917Y-118767451D01*
X168887104Y-118760383D01*
X168919387Y-118757502D01*
X169002521Y-118733664D01*
X169098876Y-118706035D01*
X169098878Y-118706034D01*
X169105006Y-118704277D01*
X169276130Y-118614815D01*
X169281078Y-118610780D01*
X169420831Y-118496800D01*
X169425771Y-118492771D01*
X169477701Y-118429099D01*
X169543784Y-118348073D01*
X169543786Y-118348070D01*
X169547815Y-118343130D01*
X169637277Y-118172006D01*
X169641734Y-118156465D01*
X169672559Y-118048963D01*
X169690502Y-117986387D01*
X169700700Y-117872124D01*
X169700700Y-116562276D01*
X169690502Y-116448013D01*
X169645318Y-116290436D01*
X169639035Y-116268524D01*
X169639034Y-116268522D01*
X169637277Y-116262394D01*
X169583745Y-116159998D01*
X169550769Y-116096920D01*
X169550768Y-116096918D01*
X169547815Y-116091270D01*
X169487462Y-116017269D01*
X169429800Y-115946569D01*
X169425771Y-115941629D01*
X169420831Y-115937600D01*
X169420827Y-115937596D01*
X169359215Y-115887347D01*
X169319067Y-115828793D01*
X169316949Y-115757828D01*
X169341485Y-115709728D01*
X169345173Y-115705238D01*
X169427534Y-115604970D01*
X169553040Y-115389328D01*
X169642455Y-115156395D01*
X169656280Y-115090222D01*
X169692443Y-114917115D01*
X169693478Y-114912161D01*
X169704796Y-114662912D01*
X169702164Y-114640158D01*
X169676701Y-114420090D01*
X169676119Y-114415060D01*
X169671293Y-114398003D01*
X169640961Y-114290815D01*
X169608183Y-114174981D01*
X169541397Y-114031756D01*
X169504875Y-113953434D01*
X169504873Y-113953430D01*
X169502738Y-113948852D01*
X169362494Y-113742490D01*
X169191062Y-113561206D01*
X169040428Y-113446037D01*
X168998461Y-113388775D01*
X168994116Y-113317911D01*
X169029986Y-113254774D01*
X169167100Y-113123972D01*
X169174141Y-113116014D01*
X169305341Y-112939675D01*
X169310945Y-112930638D01*
X169410557Y-112734716D01*
X169414557Y-112724865D01*
X169479734Y-112514960D01*
X169482017Y-112504576D01*
X169484061Y-112489157D01*
X169481865Y-112474993D01*
X169468678Y-112471200D01*
X166584008Y-112471200D01*
X166570477Y-112475173D01*
X166568952Y-112485780D01*
X166593677Y-112603621D01*
X166596737Y-112613817D01*
X166677463Y-112818229D01*
X166682194Y-112827761D01*
X166796216Y-113015662D01*
X166802480Y-113024252D01*
X166946527Y-113190252D01*
X166954157Y-113197672D01*
X167014097Y-113246819D01*
X167054091Y-113305478D01*
X167056023Y-113376449D01*
X167019279Y-113437197D01*
X167001355Y-113450869D01*
X166968392Y-113471627D01*
X166950793Y-113487143D01*
X166785032Y-113633280D01*
X166785029Y-113633283D01*
X166781235Y-113636628D01*
X166622866Y-113829430D01*
X166497360Y-114045072D01*
X166495547Y-114049795D01*
X166495546Y-114049797D01*
X166464219Y-114131406D01*
X166407945Y-114278005D01*
X166406912Y-114282951D01*
X166406910Y-114282957D01*
X166389355Y-114366990D01*
X166356922Y-114522239D01*
X166356693Y-114527288D01*
X166356692Y-114527294D01*
X166356284Y-114536289D01*
X166345604Y-114771488D01*
X166346185Y-114776508D01*
X166346185Y-114776512D01*
X166357146Y-114871246D01*
X166374281Y-115019340D01*
X166442217Y-115259419D01*
X166444354Y-115264001D01*
X166526737Y-115440673D01*
X166547662Y-115485548D01*
X166687906Y-115691910D01*
X166700513Y-115705241D01*
X166732784Y-115768476D01*
X166725745Y-115839123D01*
X166688599Y-115889456D01*
X166629573Y-115937596D01*
X166629569Y-115937600D01*
X166624629Y-115941629D01*
X166620600Y-115946569D01*
X166620596Y-115946573D01*
X166535308Y-116051147D01*
X166476754Y-116091295D01*
X166405789Y-116093413D01*
X166348570Y-116060607D01*
X164939120Y-114651157D01*
X164933483Y-114645139D01*
X164892315Y-114598196D01*
X164888510Y-114593857D01*
X164883979Y-114590285D01*
X164815486Y-114536289D01*
X164812924Y-114534214D01*
X164745925Y-114478492D01*
X164745923Y-114478490D01*
X164741483Y-114474798D01*
X164736439Y-114471973D01*
X164736313Y-114471902D01*
X164719891Y-114460929D01*
X164719776Y-114460838D01*
X164719771Y-114460835D01*
X164715240Y-114457263D01*
X164684825Y-114441261D01*
X164632983Y-114413985D01*
X164630102Y-114412421D01*
X164548979Y-114366990D01*
X164543380Y-114365090D01*
X164525213Y-114357284D01*
X164525094Y-114357222D01*
X164519980Y-114354531D01*
X164431206Y-114326966D01*
X164428080Y-114325950D01*
X164345521Y-114297925D01*
X164345516Y-114297924D01*
X164340052Y-114296069D01*
X164334184Y-114295218D01*
X164314930Y-114290861D01*
X164314783Y-114290815D01*
X164314777Y-114290814D01*
X164309267Y-114289103D01*
X164303535Y-114288425D01*
X164297881Y-114287223D01*
X164298402Y-114284770D01*
X164242982Y-114261124D01*
X164203111Y-114202380D01*
X164201329Y-114131406D01*
X164233983Y-114074763D01*
X164489732Y-113819014D01*
X164504760Y-113806177D01*
X164515982Y-113798024D01*
X164524994Y-113788016D01*
X164561340Y-113747649D01*
X164565881Y-113742865D01*
X164580230Y-113728516D01*
X164593012Y-113712732D01*
X164597296Y-113707716D01*
X164638223Y-113662262D01*
X164642644Y-113657352D01*
X164649577Y-113645345D01*
X164660772Y-113629056D01*
X164665340Y-113623415D01*
X164665340Y-113623414D01*
X164669494Y-113618285D01*
X164672492Y-113612402D01*
X164700262Y-113557902D01*
X164703408Y-113552107D01*
X164733990Y-113499136D01*
X164733990Y-113499135D01*
X164737290Y-113493420D01*
X164741575Y-113480233D01*
X164749138Y-113461976D01*
X164752434Y-113455507D01*
X164752435Y-113455503D01*
X164755431Y-113449624D01*
X164772973Y-113384156D01*
X164774840Y-113377855D01*
X164795785Y-113313392D01*
X164797234Y-113299603D01*
X164800837Y-113280165D01*
X164801257Y-113278596D01*
X164804423Y-113266782D01*
X164807969Y-113199125D01*
X164808486Y-113192551D01*
X164810267Y-113175602D01*
X164810267Y-113175600D01*
X164810611Y-113172328D01*
X164810611Y-113152003D01*
X164810784Y-113145409D01*
X164813985Y-113084340D01*
X164813985Y-113084335D01*
X164814330Y-113077748D01*
X164812162Y-113064059D01*
X164810611Y-113044349D01*
X164810611Y-112892478D01*
X164830613Y-112824357D01*
X164847516Y-112803383D01*
X166735078Y-110915821D01*
X166797390Y-110881795D01*
X166868205Y-110886860D01*
X166900701Y-110904818D01*
X167009974Y-110988364D01*
X167051938Y-111045625D01*
X167056284Y-111116488D01*
X167020414Y-111179626D01*
X166883300Y-111310428D01*
X166876259Y-111318386D01*
X166745059Y-111494725D01*
X166739455Y-111503762D01*
X166639843Y-111699684D01*
X166635843Y-111709535D01*
X166570666Y-111919440D01*
X166568383Y-111929824D01*
X166566339Y-111945243D01*
X166568535Y-111959407D01*
X166581722Y-111963200D01*
X169466392Y-111963200D01*
X169479923Y-111959227D01*
X169481448Y-111948620D01*
X169456723Y-111830779D01*
X169453663Y-111820583D01*
X169372937Y-111616171D01*
X169368206Y-111606639D01*
X169254184Y-111418738D01*
X169247920Y-111410148D01*
X169103873Y-111244148D01*
X169096243Y-111236728D01*
X169036303Y-111187581D01*
X168996309Y-111128922D01*
X168994377Y-111057951D01*
X169031121Y-110997203D01*
X169049045Y-110983531D01*
X169082008Y-110962773D01*
X169149306Y-110903442D01*
X169265368Y-110801120D01*
X169265371Y-110801117D01*
X169269165Y-110797772D01*
X169427534Y-110604970D01*
X169553040Y-110389328D01*
X169642455Y-110156395D01*
X169654237Y-110100000D01*
X169692443Y-109917115D01*
X169693478Y-109912161D01*
X169704796Y-109662912D01*
X169690598Y-109540196D01*
X169676701Y-109420090D01*
X169676119Y-109415060D01*
X169608183Y-109174981D01*
X169532247Y-109012134D01*
X169504875Y-108953434D01*
X169504873Y-108953430D01*
X169502738Y-108948852D01*
X169362494Y-108742490D01*
X169224373Y-108596431D01*
X169194543Y-108564887D01*
X169191062Y-108561206D01*
X169187038Y-108558129D01*
X169186661Y-108557790D01*
X169149422Y-108497344D01*
X169150774Y-108426360D01*
X169187647Y-108369640D01*
X169265367Y-108301120D01*
X169269165Y-108297772D01*
X169427534Y-108104970D01*
X169553040Y-107889328D01*
X169642455Y-107656395D01*
X169646633Y-107636400D01*
X169692443Y-107417115D01*
X169693478Y-107412161D01*
X169695376Y-107370379D01*
X169700160Y-107265014D01*
X169704796Y-107162912D01*
X169704078Y-107156700D01*
X169676701Y-106920090D01*
X169676119Y-106915060D01*
X169661890Y-106864774D01*
X169623200Y-106728049D01*
X169608183Y-106674981D01*
X169502738Y-106448852D01*
X169362494Y-106242490D01*
X169191062Y-106061206D01*
X169145809Y-106026607D01*
X168996877Y-105912740D01*
X168996876Y-105912739D01*
X168992851Y-105909662D01*
X168772961Y-105791757D01*
X168537048Y-105710526D01*
X168409101Y-105688426D01*
X168295093Y-105668733D01*
X168295087Y-105668732D01*
X168291183Y-105668058D01*
X168287222Y-105667878D01*
X168287221Y-105667878D01*
X168262697Y-105666764D01*
X168262678Y-105666764D01*
X168261278Y-105666700D01*
X167837509Y-105666700D01*
X167835001Y-105666902D01*
X167834996Y-105666902D01*
X167656539Y-105681260D01*
X167656534Y-105681261D01*
X167651498Y-105681666D01*
X167646590Y-105682871D01*
X167646587Y-105682872D01*
X167424262Y-105737481D01*
X167409194Y-105741182D01*
X167404542Y-105743157D01*
X167404538Y-105743158D01*
X167218157Y-105822272D01*
X167179523Y-105838671D01*
X166968392Y-105971627D01*
X166944511Y-105992681D01*
X166785032Y-106133280D01*
X166785029Y-106133283D01*
X166781235Y-106136628D01*
X166622866Y-106329430D01*
X166497360Y-106545072D01*
X166495547Y-106549795D01*
X166495546Y-106549797D01*
X166468665Y-106619824D01*
X166407945Y-106778005D01*
X166406912Y-106782951D01*
X166406910Y-106782957D01*
X166380331Y-106910186D01*
X166356922Y-107022239D01*
X166356693Y-107027288D01*
X166356692Y-107027294D01*
X166353975Y-107087138D01*
X166345604Y-107271488D01*
X166346185Y-107276508D01*
X166346185Y-107276512D01*
X166371827Y-107498131D01*
X166373945Y-107516436D01*
X166373945Y-107516437D01*
X166374281Y-107519340D01*
X166373677Y-107519410D01*
X166367614Y-107586539D01*
X166339496Y-107629405D01*
X163228030Y-110740871D01*
X163165718Y-110774897D01*
X163094903Y-110769832D01*
X163038067Y-110727285D01*
X163013465Y-110663307D01*
X163011708Y-110644191D01*
X162956807Y-110449526D01*
X162867351Y-110268127D01*
X162850542Y-110245617D01*
X162825810Y-110179067D01*
X162825500Y-110170228D01*
X162825500Y-109580187D01*
X162827051Y-109560476D01*
X162828187Y-109553304D01*
X162829219Y-109546788D01*
X162825673Y-109479127D01*
X162825500Y-109472533D01*
X162825500Y-109452208D01*
X162825156Y-109448934D01*
X162823375Y-109431985D01*
X162822858Y-109425411D01*
X162819658Y-109364355D01*
X162819658Y-109364354D01*
X162819312Y-109357754D01*
X162815726Y-109344371D01*
X162812123Y-109324933D01*
X162811364Y-109317712D01*
X162810674Y-109311144D01*
X162789729Y-109246681D01*
X162787860Y-109240373D01*
X162772027Y-109181284D01*
X162770320Y-109174912D01*
X162764027Y-109162560D01*
X162756464Y-109144303D01*
X162756023Y-109142947D01*
X162752179Y-109131116D01*
X162748879Y-109125400D01*
X162718297Y-109072429D01*
X162715151Y-109066634D01*
X162687381Y-109012134D01*
X162687379Y-109012131D01*
X162684383Y-109006251D01*
X162675661Y-108995480D01*
X162664466Y-108979191D01*
X162657533Y-108967184D01*
X162612185Y-108916820D01*
X162607901Y-108911804D01*
X162597195Y-108898584D01*
X162595119Y-108896020D01*
X162580770Y-108881671D01*
X162576229Y-108876887D01*
X162535286Y-108831415D01*
X162535284Y-108831414D01*
X162530871Y-108826512D01*
X162519649Y-108818359D01*
X162504621Y-108805522D01*
X161069478Y-107370379D01*
X161056641Y-107355351D01*
X161048488Y-107344129D01*
X161043583Y-107339712D01*
X160998113Y-107298771D01*
X160993329Y-107294230D01*
X160978980Y-107279881D01*
X160971522Y-107273842D01*
X160963196Y-107267099D01*
X160958180Y-107262815D01*
X160912726Y-107221888D01*
X160907816Y-107217467D01*
X160895809Y-107210534D01*
X160879520Y-107199339D01*
X160873879Y-107194771D01*
X160873878Y-107194771D01*
X160868749Y-107190617D01*
X160862869Y-107187621D01*
X160862866Y-107187619D01*
X160808366Y-107159849D01*
X160802571Y-107156703D01*
X160749600Y-107126121D01*
X160749599Y-107126121D01*
X160743884Y-107122821D01*
X160730697Y-107118536D01*
X160712440Y-107110973D01*
X160705971Y-107107677D01*
X160705967Y-107107676D01*
X160700088Y-107104680D01*
X160693715Y-107102972D01*
X160693709Y-107102970D01*
X160634625Y-107087138D01*
X160628301Y-107085265D01*
X160570135Y-107066366D01*
X160570133Y-107066366D01*
X160563856Y-107064326D01*
X160557295Y-107063636D01*
X160557293Y-107063636D01*
X160550079Y-107062878D01*
X160530637Y-107059275D01*
X160517246Y-107055687D01*
X160510657Y-107055342D01*
X160510652Y-107055341D01*
X160479227Y-107053695D01*
X160449566Y-107052141D01*
X160443000Y-107051624D01*
X160426070Y-107049844D01*
X160426059Y-107049843D01*
X160422792Y-107049500D01*
X160410767Y-107049500D01*
X160342646Y-107029498D01*
X160296153Y-106975842D01*
X160286049Y-106905568D01*
X160315543Y-106840988D01*
X160326701Y-106829644D01*
X160335805Y-106821489D01*
X160350286Y-106808519D01*
X160521187Y-106605207D01*
X160551878Y-106555997D01*
X160659379Y-106383625D01*
X160659379Y-106383624D01*
X160661737Y-106379844D01*
X160769130Y-106136926D01*
X160841224Y-105881299D01*
X160849616Y-105818819D01*
X160876154Y-105621245D01*
X160876154Y-105621240D01*
X160876581Y-105618064D01*
X160879018Y-105540502D01*
X160880190Y-105503222D01*
X160880190Y-105503217D01*
X160880291Y-105500000D01*
X160861533Y-105235065D01*
X160805632Y-104975416D01*
X160713703Y-104726233D01*
X160587582Y-104492490D01*
X160429784Y-104278849D01*
X160243459Y-104089573D01*
X160239919Y-104086871D01*
X160035864Y-103931141D01*
X160035860Y-103931138D01*
X160032323Y-103928439D01*
X159862802Y-103833503D01*
X159813140Y-103782766D01*
X159798792Y-103713234D01*
X159824314Y-103646983D01*
X159835273Y-103634473D01*
X161382691Y-102087055D01*
X161445003Y-102053029D01*
X161515818Y-102058094D01*
X161576551Y-102106148D01*
X161717587Y-102317223D01*
X161719880Y-102320654D01*
X161722594Y-102323748D01*
X161722598Y-102323754D01*
X161794487Y-102405727D01*
X161910073Y-102537527D01*
X161913162Y-102540236D01*
X162123846Y-102725002D01*
X162123852Y-102725006D01*
X162126946Y-102727720D01*
X162130372Y-102730009D01*
X162130377Y-102730013D01*
X162241104Y-102803998D01*
X162366789Y-102887978D01*
X162370488Y-102889802D01*
X162370493Y-102889805D01*
X162443320Y-102925719D01*
X162625498Y-103015559D01*
X162629396Y-103016882D01*
X162629398Y-103016883D01*
X162894737Y-103106954D01*
X162894741Y-103106955D01*
X162898647Y-103108281D01*
X162902691Y-103109085D01*
X162902697Y-103109087D01*
X163177518Y-103163752D01*
X163177521Y-103163752D01*
X163181561Y-103164556D01*
X163185672Y-103164825D01*
X163185676Y-103164826D01*
X163465281Y-103183152D01*
X163469400Y-103183422D01*
X163473519Y-103183152D01*
X163753124Y-103164826D01*
X163753128Y-103164825D01*
X163757239Y-103164556D01*
X163761279Y-103163752D01*
X163761282Y-103163752D01*
X164036103Y-103109087D01*
X164036109Y-103109085D01*
X164040153Y-103108281D01*
X164044059Y-103106955D01*
X164044063Y-103106954D01*
X164309402Y-103016883D01*
X164309404Y-103016882D01*
X164313302Y-103015559D01*
X164495480Y-102925719D01*
X164568307Y-102889805D01*
X164568312Y-102889802D01*
X164572011Y-102887978D01*
X164697696Y-102803998D01*
X164808423Y-102730013D01*
X164808428Y-102730009D01*
X164811854Y-102727720D01*
X164814948Y-102725006D01*
X164814954Y-102725002D01*
X165025638Y-102540236D01*
X165028727Y-102537527D01*
X165144313Y-102405727D01*
X165216202Y-102323754D01*
X165216206Y-102323748D01*
X165218920Y-102320654D01*
X165227376Y-102308000D01*
X165376884Y-102084244D01*
X165379178Y-102080811D01*
X165417198Y-102003715D01*
X165504937Y-101825797D01*
X165504938Y-101825795D01*
X165506759Y-101822102D01*
X165546327Y-101705540D01*
X165598154Y-101552863D01*
X165598155Y-101552859D01*
X165599481Y-101548953D01*
X165622713Y-101432161D01*
X165654952Y-101270082D01*
X165654952Y-101270079D01*
X165655756Y-101266039D01*
X165661970Y-101171242D01*
X165674180Y-100984940D01*
X165674622Y-100978200D01*
X165668709Y-100887978D01*
X165656026Y-100694476D01*
X165656025Y-100694472D01*
X165655756Y-100690361D01*
X165650329Y-100663078D01*
X165600287Y-100411497D01*
X165600285Y-100411491D01*
X165599481Y-100407447D01*
X165592243Y-100386123D01*
X165508083Y-100138198D01*
X165508082Y-100138196D01*
X165506759Y-100134298D01*
X165495918Y-100112314D01*
X165381005Y-99879293D01*
X165381002Y-99879288D01*
X165379178Y-99875589D01*
X165318310Y-99784493D01*
X165221213Y-99639177D01*
X165221209Y-99639172D01*
X165218920Y-99635746D01*
X165216206Y-99632652D01*
X165216202Y-99632646D01*
X165031436Y-99421962D01*
X165028727Y-99418873D01*
X164921915Y-99325201D01*
X164814954Y-99231398D01*
X164814948Y-99231394D01*
X164811854Y-99228680D01*
X164740891Y-99181264D01*
X164695365Y-99126789D01*
X164686516Y-99056345D01*
X164717157Y-98992301D01*
X164777559Y-98954990D01*
X164810894Y-98950500D01*
X167144351Y-98950500D01*
X167212472Y-98970502D01*
X167258965Y-99024158D01*
X167270081Y-99068258D01*
X167271200Y-99085337D01*
X167280774Y-99231398D01*
X167283044Y-99266039D01*
X167283848Y-99270079D01*
X167283848Y-99270082D01*
X167336274Y-99533644D01*
X167339319Y-99548953D01*
X167340645Y-99552859D01*
X167340646Y-99552863D01*
X167429546Y-99814751D01*
X167432041Y-99822102D01*
X167433862Y-99825795D01*
X167433863Y-99825797D01*
X167539787Y-100040589D01*
X167559622Y-100080811D01*
X167578896Y-100109657D01*
X167709091Y-100304507D01*
X167719880Y-100320654D01*
X167722594Y-100323748D01*
X167722598Y-100323754D01*
X167849905Y-100468919D01*
X167910073Y-100537527D01*
X167913162Y-100540236D01*
X168123846Y-100725002D01*
X168123852Y-100725006D01*
X168126946Y-100727720D01*
X168130372Y-100730009D01*
X168130377Y-100730013D01*
X168259975Y-100816607D01*
X168366789Y-100887978D01*
X168370488Y-100889802D01*
X168370493Y-100889805D01*
X168620641Y-101013164D01*
X168625498Y-101015559D01*
X168629396Y-101016882D01*
X168629398Y-101016883D01*
X168894737Y-101106954D01*
X168894741Y-101106955D01*
X168898647Y-101108281D01*
X168902691Y-101109085D01*
X168902697Y-101109087D01*
X169177518Y-101163752D01*
X169177521Y-101163752D01*
X169181561Y-101164556D01*
X169185672Y-101164825D01*
X169185676Y-101164826D01*
X169465281Y-101183152D01*
X169469400Y-101183422D01*
X169473519Y-101183152D01*
X169753124Y-101164826D01*
X169753128Y-101164825D01*
X169757239Y-101164556D01*
X169761279Y-101163752D01*
X169761282Y-101163752D01*
X170036103Y-101109087D01*
X170036109Y-101109085D01*
X170040153Y-101108281D01*
X170044059Y-101106955D01*
X170044063Y-101106954D01*
X170309402Y-101016883D01*
X170309404Y-101016882D01*
X170313302Y-101015559D01*
X170318159Y-101013164D01*
X170568307Y-100889805D01*
X170568312Y-100889802D01*
X170572011Y-100887978D01*
X170678825Y-100816607D01*
X170808423Y-100730013D01*
X170808428Y-100730009D01*
X170811854Y-100727720D01*
X170814948Y-100725006D01*
X170814954Y-100725002D01*
X171025638Y-100540236D01*
X171028727Y-100537527D01*
X171088895Y-100468919D01*
X171216202Y-100323754D01*
X171216206Y-100323748D01*
X171218920Y-100320654D01*
X171229710Y-100304507D01*
X171359904Y-100109657D01*
X171379178Y-100080811D01*
X171399014Y-100040589D01*
X171504937Y-99825797D01*
X171504938Y-99825795D01*
X171506759Y-99822102D01*
X171509254Y-99814751D01*
X171598154Y-99552863D01*
X171598155Y-99552859D01*
X171599481Y-99548953D01*
X171602527Y-99533644D01*
X171654952Y-99270082D01*
X171654952Y-99270079D01*
X171655756Y-99266039D01*
X171658027Y-99231398D01*
X171674352Y-98982319D01*
X171674622Y-98978200D01*
X171663989Y-98815973D01*
X171656026Y-98694476D01*
X171656025Y-98694472D01*
X171655756Y-98690361D01*
X171648912Y-98655955D01*
X171600287Y-98411497D01*
X171600285Y-98411491D01*
X171599481Y-98407447D01*
X171589221Y-98377220D01*
X171508083Y-98138198D01*
X171508082Y-98138196D01*
X171506759Y-98134298D01*
X171504919Y-98130567D01*
X171381005Y-97879293D01*
X171381002Y-97879288D01*
X171379178Y-97875589D01*
X171332025Y-97805020D01*
X171221213Y-97639177D01*
X171221209Y-97639172D01*
X171218920Y-97635746D01*
X171216206Y-97632652D01*
X171216202Y-97632646D01*
X171031436Y-97421962D01*
X171028727Y-97418873D01*
X171025638Y-97416164D01*
X170814954Y-97231398D01*
X170814948Y-97231394D01*
X170811854Y-97228680D01*
X170808428Y-97226391D01*
X170808423Y-97226387D01*
X170575444Y-97070716D01*
X170572011Y-97068422D01*
X170568312Y-97066598D01*
X170568307Y-97066595D01*
X170316997Y-96942663D01*
X170316995Y-96942662D01*
X170313302Y-96940841D01*
X170309402Y-96939517D01*
X170044063Y-96849446D01*
X170044059Y-96849445D01*
X170040153Y-96848119D01*
X170036109Y-96847315D01*
X170036103Y-96847313D01*
X169761282Y-96792648D01*
X169761279Y-96792648D01*
X169757239Y-96791844D01*
X169753128Y-96791575D01*
X169753124Y-96791574D01*
X169473519Y-96773248D01*
X169469400Y-96772978D01*
X169465281Y-96773248D01*
X169185676Y-96791574D01*
X169185672Y-96791575D01*
X169181561Y-96791844D01*
X169177521Y-96792648D01*
X169177518Y-96792648D01*
X168902698Y-96847313D01*
X168902695Y-96847314D01*
X168898647Y-96848119D01*
X168898538Y-96847569D01*
X168830506Y-96845949D01*
X168767913Y-96801321D01*
X168724345Y-96742977D01*
X168720538Y-96737590D01*
X168681774Y-96679576D01*
X168678560Y-96674766D01*
X168662250Y-96658023D01*
X168651561Y-96645509D01*
X168637567Y-96626768D01*
X168582067Y-96575464D01*
X168577342Y-96570862D01*
X168528629Y-96520857D01*
X168524602Y-96516723D01*
X168519889Y-96513392D01*
X168519883Y-96513387D01*
X168505519Y-96503236D01*
X168492708Y-96492862D01*
X168479794Y-96480924D01*
X168475549Y-96477000D01*
X168470664Y-96473918D01*
X168470659Y-96473914D01*
X168411623Y-96436665D01*
X168406139Y-96433001D01*
X168349138Y-96392717D01*
X168344422Y-96389384D01*
X168323201Y-96379601D01*
X168308717Y-96371737D01*
X168293834Y-96362346D01*
X168293829Y-96362344D01*
X168288950Y-96359265D01*
X168283590Y-96357127D01*
X168283583Y-96357123D01*
X168218752Y-96331259D01*
X168212710Y-96328664D01*
X168144052Y-96297012D01*
X168138456Y-96295591D01*
X168138451Y-96295589D01*
X168121396Y-96291257D01*
X168105727Y-96286166D01*
X168089393Y-96279650D01*
X168089391Y-96279649D01*
X168084021Y-96277507D01*
X168014018Y-96263582D01*
X168009896Y-96262762D01*
X168003465Y-96261306D01*
X167935809Y-96244124D01*
X167935804Y-96244123D01*
X167930204Y-96242701D01*
X167919333Y-96241988D01*
X167906879Y-96241172D01*
X167890541Y-96239021D01*
X167878418Y-96236610D01*
X167867624Y-96234463D01*
X167861849Y-96234387D01*
X167861845Y-96234387D01*
X167792062Y-96233474D01*
X167785470Y-96233215D01*
X167735180Y-96229919D01*
X167710040Y-96228271D01*
X167704305Y-96228950D01*
X167704296Y-96228950D01*
X167686826Y-96231018D01*
X167670368Y-96231881D01*
X167647006Y-96231575D01*
X167641310Y-96232554D01*
X167641306Y-96232554D01*
X167572524Y-96244373D01*
X167565997Y-96245320D01*
X167496661Y-96253527D01*
X167490933Y-96254205D01*
X167485421Y-96255917D01*
X167485414Y-96255918D01*
X167468613Y-96261134D01*
X167452592Y-96264981D01*
X167429557Y-96268939D01*
X167374566Y-96289226D01*
X167358654Y-96295096D01*
X167352408Y-96297216D01*
X167285748Y-96317915D01*
X167285743Y-96317917D01*
X167280220Y-96319632D01*
X167259538Y-96330514D01*
X167244486Y-96337215D01*
X167234089Y-96341051D01*
X167222557Y-96345305D01*
X167157579Y-96383963D01*
X167151863Y-96387164D01*
X167084959Y-96422364D01*
X167080426Y-96425937D01*
X167080425Y-96425938D01*
X167066607Y-96436831D01*
X167053027Y-96446164D01*
X167032941Y-96458115D01*
X166976112Y-96507952D01*
X166971058Y-96512156D01*
X166958001Y-96522449D01*
X166892124Y-96548915D01*
X166879994Y-96549500D01*
X163458807Y-96549500D01*
X163450566Y-96549230D01*
X163445760Y-96548915D01*
X163382518Y-96544770D01*
X163290158Y-96555702D01*
X163286890Y-96556044D01*
X163259012Y-96558606D01*
X163200122Y-96564017D01*
X163200120Y-96564017D01*
X163194367Y-96564546D01*
X163188808Y-96566114D01*
X163188801Y-96566115D01*
X163188670Y-96566152D01*
X163169296Y-96570006D01*
X163169152Y-96570023D01*
X163169147Y-96570024D01*
X163163411Y-96570703D01*
X163074602Y-96598278D01*
X163071470Y-96599206D01*
X162982014Y-96624435D01*
X162976829Y-96626992D01*
X162976824Y-96626994D01*
X162976702Y-96627054D01*
X162958341Y-96634379D01*
X162958214Y-96634418D01*
X162958208Y-96634421D01*
X162952699Y-96636131D01*
X162947594Y-96638817D01*
X162947584Y-96638821D01*
X162870460Y-96679398D01*
X162867521Y-96680896D01*
X162789314Y-96719463D01*
X162789306Y-96719468D01*
X162784131Y-96722020D01*
X162779389Y-96725561D01*
X162762663Y-96736114D01*
X162757438Y-96738863D01*
X162690232Y-96791844D01*
X162684449Y-96796403D01*
X162681847Y-96798399D01*
X162636947Y-96831928D01*
X162615908Y-96847639D01*
X162607345Y-96854033D01*
X162548648Y-96917531D01*
X162545218Y-96921097D01*
X161089095Y-98377220D01*
X161026783Y-98411246D01*
X160955968Y-98406181D01*
X160910905Y-98377220D01*
X160694642Y-98160957D01*
X160689005Y-98154939D01*
X160647837Y-98107996D01*
X160644032Y-98103657D01*
X160639501Y-98100085D01*
X160571008Y-98046089D01*
X160568446Y-98044014D01*
X160501447Y-97988292D01*
X160501445Y-97988290D01*
X160497005Y-97984598D01*
X160491961Y-97981773D01*
X160491835Y-97981702D01*
X160475413Y-97970729D01*
X160475298Y-97970638D01*
X160475293Y-97970635D01*
X160470762Y-97967063D01*
X160388505Y-97923785D01*
X160385624Y-97922221D01*
X160304501Y-97876790D01*
X160298902Y-97874890D01*
X160280735Y-97867084D01*
X160280616Y-97867022D01*
X160275502Y-97864331D01*
X160186728Y-97836766D01*
X160183602Y-97835750D01*
X160101043Y-97807725D01*
X160101038Y-97807724D01*
X160095574Y-97805869D01*
X160089706Y-97805018D01*
X160070452Y-97800661D01*
X160070305Y-97800615D01*
X160070299Y-97800614D01*
X160064789Y-97798903D01*
X160059061Y-97798225D01*
X160059056Y-97798224D01*
X159985316Y-97789497D01*
X159972466Y-97787976D01*
X159969207Y-97787547D01*
X159952949Y-97785190D01*
X159882933Y-97775037D01*
X159882929Y-97775037D01*
X159877220Y-97774209D01*
X159790836Y-97777603D01*
X159785889Y-97777700D01*
X159381119Y-97777700D01*
X159312998Y-97757698D01*
X159276354Y-97721702D01*
X159221213Y-97639177D01*
X159221209Y-97639172D01*
X159218920Y-97635746D01*
X159216206Y-97632652D01*
X159216202Y-97632646D01*
X159031436Y-97421962D01*
X159028727Y-97418873D01*
X159025638Y-97416164D01*
X158814954Y-97231398D01*
X158814948Y-97231394D01*
X158811854Y-97228680D01*
X158808428Y-97226391D01*
X158808423Y-97226387D01*
X158575444Y-97070716D01*
X158572011Y-97068422D01*
X158568312Y-97066598D01*
X158568307Y-97066595D01*
X158316997Y-96942663D01*
X158316995Y-96942662D01*
X158313302Y-96940841D01*
X158309402Y-96939517D01*
X158044063Y-96849446D01*
X158044059Y-96849445D01*
X158040153Y-96848119D01*
X158036109Y-96847315D01*
X158036103Y-96847313D01*
X157761282Y-96792648D01*
X157761279Y-96792648D01*
X157757239Y-96791844D01*
X157753128Y-96791575D01*
X157753124Y-96791574D01*
X157473519Y-96773248D01*
X157469400Y-96772978D01*
X157465281Y-96773248D01*
X157185676Y-96791574D01*
X157185672Y-96791575D01*
X157181561Y-96791844D01*
X157177521Y-96792648D01*
X157177518Y-96792648D01*
X156902697Y-96847313D01*
X156902691Y-96847315D01*
X156898647Y-96848119D01*
X156894741Y-96849445D01*
X156894737Y-96849446D01*
X156629398Y-96939517D01*
X156625498Y-96940841D01*
X156621805Y-96942662D01*
X156621803Y-96942663D01*
X156370493Y-97066595D01*
X156370488Y-97066598D01*
X156366789Y-97068422D01*
X156363356Y-97070716D01*
X156130377Y-97226387D01*
X156130372Y-97226391D01*
X156126946Y-97228680D01*
X156123852Y-97231394D01*
X156123846Y-97231398D01*
X155913162Y-97416164D01*
X155910073Y-97418873D01*
X155907364Y-97421962D01*
X155722598Y-97632646D01*
X155722594Y-97632652D01*
X155719880Y-97635746D01*
X155717591Y-97639172D01*
X155717587Y-97639177D01*
X155606775Y-97805020D01*
X155559622Y-97875589D01*
X155557798Y-97879288D01*
X155557795Y-97879293D01*
X155433881Y-98130567D01*
X155432041Y-98134298D01*
X155430718Y-98138196D01*
X155430717Y-98138198D01*
X155349580Y-98377220D01*
X155339319Y-98407447D01*
X155338515Y-98411491D01*
X155338513Y-98411497D01*
X155289888Y-98655955D01*
X155283044Y-98690361D01*
X155282775Y-98694472D01*
X155282774Y-98694476D01*
X155274811Y-98815973D01*
X155264178Y-98978200D01*
X155264448Y-98982319D01*
X155280774Y-99231398D01*
X155283044Y-99266039D01*
X155283848Y-99270079D01*
X155283848Y-99270082D01*
X155336274Y-99533644D01*
X155339319Y-99548953D01*
X155340645Y-99552859D01*
X155340646Y-99552863D01*
X155429546Y-99814751D01*
X155432041Y-99822102D01*
X155433862Y-99825795D01*
X155433863Y-99825797D01*
X155539787Y-100040589D01*
X155559622Y-100080811D01*
X155578896Y-100109657D01*
X155709091Y-100304507D01*
X155719880Y-100320654D01*
X155722594Y-100323748D01*
X155722598Y-100323754D01*
X155849905Y-100468919D01*
X155910073Y-100537527D01*
X155913162Y-100540236D01*
X156123846Y-100725002D01*
X156123852Y-100725006D01*
X156126946Y-100727720D01*
X156130372Y-100730009D01*
X156130377Y-100730013D01*
X156259975Y-100816607D01*
X156366789Y-100887978D01*
X156370488Y-100889802D01*
X156370493Y-100889805D01*
X156620641Y-101013164D01*
X156625498Y-101015559D01*
X156629396Y-101016882D01*
X156629398Y-101016883D01*
X156894737Y-101106954D01*
X156894741Y-101106955D01*
X156898647Y-101108281D01*
X156902691Y-101109085D01*
X156902697Y-101109087D01*
X157177518Y-101163752D01*
X157177521Y-101163752D01*
X157181561Y-101164556D01*
X157185672Y-101164825D01*
X157185676Y-101164826D01*
X157465281Y-101183152D01*
X157469400Y-101183422D01*
X157473519Y-101183152D01*
X157753124Y-101164826D01*
X157753128Y-101164825D01*
X157757239Y-101164556D01*
X157761279Y-101163752D01*
X157761282Y-101163752D01*
X158036103Y-101109087D01*
X158036109Y-101109085D01*
X158040153Y-101108281D01*
X158044059Y-101106955D01*
X158044063Y-101106954D01*
X158309402Y-101016883D01*
X158309404Y-101016882D01*
X158313302Y-101015559D01*
X158318159Y-101013164D01*
X158568307Y-100889805D01*
X158568312Y-100889802D01*
X158572011Y-100887978D01*
X158678825Y-100816607D01*
X158808423Y-100730013D01*
X158808428Y-100730009D01*
X158811854Y-100727720D01*
X158814948Y-100725006D01*
X158814954Y-100725002D01*
X159025638Y-100540236D01*
X159028727Y-100537527D01*
X159088895Y-100468919D01*
X159216202Y-100323754D01*
X159216206Y-100323748D01*
X159218920Y-100320654D01*
X159229709Y-100304507D01*
X159284185Y-100258978D01*
X159354628Y-100250129D01*
X159423570Y-100285412D01*
X159517093Y-100378935D01*
X159551119Y-100441247D01*
X159546054Y-100512062D01*
X159517093Y-100557125D01*
X156993824Y-103080395D01*
X156931512Y-103114420D01*
X156904729Y-103117300D01*
X153948602Y-103117300D01*
X153880481Y-103097298D01*
X153833988Y-103043642D01*
X153823884Y-102973368D01*
X153843837Y-102921298D01*
X153907488Y-102826039D01*
X153907491Y-102826033D01*
X153909778Y-102822611D01*
X153912603Y-102816882D01*
X153919930Y-102803998D01*
X153922883Y-102799450D01*
X153925164Y-102795938D01*
X153982633Y-102674907D01*
X153983440Y-102673238D01*
X154035536Y-102567599D01*
X154035537Y-102567597D01*
X154037359Y-102563902D01*
X154038683Y-102560002D01*
X154038687Y-102559992D01*
X154040064Y-102555935D01*
X154045555Y-102542396D01*
X154048755Y-102535657D01*
X154048759Y-102535647D01*
X154050552Y-102531871D01*
X154090777Y-102406585D01*
X154091357Y-102404827D01*
X154130081Y-102290753D01*
X154132118Y-102280514D01*
X154135727Y-102266584D01*
X154138633Y-102257531D01*
X154138633Y-102257530D01*
X154139914Y-102253541D01*
X154162757Y-102126586D01*
X154163187Y-102124318D01*
X154185550Y-102011893D01*
X154185551Y-102011887D01*
X154186356Y-102007839D01*
X154187171Y-101995404D01*
X154188892Y-101981335D01*
X154190939Y-101969957D01*
X154191681Y-101965836D01*
X154197424Y-101839373D01*
X154197564Y-101836849D01*
X154204952Y-101724121D01*
X154204952Y-101724119D01*
X154205222Y-101720000D01*
X154204274Y-101705537D01*
X154204134Y-101691581D01*
X154204752Y-101677982D01*
X154204752Y-101677977D01*
X154204941Y-101673813D01*
X154195707Y-101568264D01*
X154194108Y-101549990D01*
X154193899Y-101547249D01*
X154186626Y-101436277D01*
X154186626Y-101436273D01*
X154186356Y-101432161D01*
X154183132Y-101415954D01*
X154181195Y-101402385D01*
X154179464Y-101382601D01*
X154152848Y-101263529D01*
X154152244Y-101260671D01*
X154147145Y-101235034D01*
X154130081Y-101149247D01*
X154124121Y-101131689D01*
X154120469Y-101118675D01*
X154116608Y-101101403D01*
X154115695Y-101097317D01*
X154084733Y-101013164D01*
X154074348Y-100984940D01*
X154073285Y-100981933D01*
X154038687Y-100880010D01*
X154038687Y-100880009D01*
X154037359Y-100876098D01*
X154035532Y-100872393D01*
X154028267Y-100857661D01*
X154023023Y-100845441D01*
X154016202Y-100826901D01*
X154016197Y-100826890D01*
X154014756Y-100822973D01*
X153959942Y-100719008D01*
X153958417Y-100716018D01*
X153911600Y-100621083D01*
X153911598Y-100621079D01*
X153909778Y-100617389D01*
X153897225Y-100598602D01*
X153890545Y-100587386D01*
X153878420Y-100564388D01*
X153873259Y-100557125D01*
X153811607Y-100470374D01*
X153809548Y-100467385D01*
X153757863Y-100390033D01*
X153749520Y-100377546D01*
X153733291Y-100359040D01*
X153725319Y-100348954D01*
X153711504Y-100329515D01*
X153709082Y-100326107D01*
X153631889Y-100243327D01*
X153629387Y-100240561D01*
X153559327Y-100160673D01*
X153539304Y-100143113D01*
X153530245Y-100134328D01*
X153509717Y-100112314D01*
X153506488Y-100109661D01*
X153506483Y-100109657D01*
X153423989Y-100041896D01*
X153420887Y-100039264D01*
X153342454Y-99970480D01*
X153318618Y-99954553D01*
X153308661Y-99947164D01*
X153287054Y-99929416D01*
X153283829Y-99926767D01*
X153280292Y-99924574D01*
X153280285Y-99924569D01*
X153253441Y-99907926D01*
X153230742Y-99889934D01*
X152221872Y-98881064D01*
X152187846Y-98818752D01*
X152192911Y-98747937D01*
X152235458Y-98691101D01*
X152295829Y-98666882D01*
X152372885Y-98657557D01*
X152381284Y-98655955D01*
X152637824Y-98588653D01*
X152645926Y-98585926D01*
X152890949Y-98484434D01*
X152898617Y-98480628D01*
X153127598Y-98346822D01*
X153134679Y-98342009D01*
X153214655Y-98279301D01*
X153223125Y-98267442D01*
X153216608Y-98255818D01*
X151729885Y-96769095D01*
X151695859Y-96706783D01*
X151697694Y-96681132D01*
X152364408Y-96681132D01*
X152364539Y-96682965D01*
X152368790Y-96689580D01*
X153575730Y-97896520D01*
X153587939Y-97903187D01*
X153599439Y-97894497D01*
X153696831Y-97761913D01*
X153701418Y-97754685D01*
X153827962Y-97521621D01*
X153831530Y-97513827D01*
X153925271Y-97265750D01*
X153927748Y-97257544D01*
X153986954Y-96999038D01*
X153988294Y-96990577D01*
X154012031Y-96724616D01*
X154012277Y-96719677D01*
X154012666Y-96682485D01*
X154012523Y-96677519D01*
X153994362Y-96411123D01*
X153993201Y-96402649D01*
X153939419Y-96142944D01*
X153937120Y-96134709D01*
X153848588Y-95884705D01*
X153845191Y-95876854D01*
X153723550Y-95641178D01*
X153719122Y-95633866D01*
X153600031Y-95464417D01*
X153589509Y-95456037D01*
X153576121Y-95463089D01*
X152372022Y-96667188D01*
X152364408Y-96681132D01*
X151697694Y-96681132D01*
X151700924Y-96635968D01*
X151729885Y-96590905D01*
X153216604Y-95104186D01*
X153223795Y-95091017D01*
X153216473Y-95080780D01*
X153169233Y-95042115D01*
X153162261Y-95037160D01*
X152936122Y-94898582D01*
X152928552Y-94894624D01*
X152685704Y-94788022D01*
X152677644Y-94785120D01*
X152422592Y-94712467D01*
X152414214Y-94710685D01*
X152151656Y-94673318D01*
X152143111Y-94672691D01*
X151877908Y-94671302D01*
X151869374Y-94671839D01*
X151606433Y-94706456D01*
X151598035Y-94708149D01*
X151342238Y-94778127D01*
X151334143Y-94780946D01*
X151090199Y-94884997D01*
X151082577Y-94888881D01*
X150855014Y-95025075D01*
X150847976Y-95029966D01*
X150805280Y-95064172D01*
X150739611Y-95091154D01*
X150669778Y-95078349D01*
X150617955Y-95029822D01*
X150600500Y-94965838D01*
X150600500Y-93587349D01*
X150620502Y-93519228D01*
X150674158Y-93472735D01*
X150744432Y-93462631D01*
X150794013Y-93480963D01*
X150800495Y-93485077D01*
X150802953Y-93486678D01*
X150893588Y-93547238D01*
X150897389Y-93549778D01*
X150901088Y-93551602D01*
X150901093Y-93551605D01*
X150914012Y-93557976D01*
X150925793Y-93564594D01*
X150938033Y-93572361D01*
X150944281Y-93576326D01*
X151007723Y-93605640D01*
X151052976Y-93626550D01*
X151055853Y-93627924D01*
X151150720Y-93674707D01*
X151156098Y-93677359D01*
X151175567Y-93683968D01*
X151187914Y-93688901D01*
X151209646Y-93698942D01*
X151321932Y-93733701D01*
X151325159Y-93734748D01*
X151425340Y-93768755D01*
X151425343Y-93768756D01*
X151429247Y-93770081D01*
X151451393Y-93774486D01*
X151464073Y-93777700D01*
X151488898Y-93785385D01*
X151581312Y-93801016D01*
X151602578Y-93804613D01*
X151606146Y-93805269D01*
X151622134Y-93808449D01*
X151712161Y-93826356D01*
X151716275Y-93826626D01*
X151716277Y-93826626D01*
X151736717Y-93827966D01*
X151749483Y-93829460D01*
X151773011Y-93833439D01*
X151773015Y-93833439D01*
X151777128Y-93834135D01*
X151781297Y-93834281D01*
X151781301Y-93834281D01*
X151890178Y-93838083D01*
X151894021Y-93838276D01*
X151995880Y-93844952D01*
X151995881Y-93844952D01*
X152000000Y-93845222D01*
X152004119Y-93844952D01*
X152026574Y-93843480D01*
X152039215Y-93843287D01*
X152052965Y-93843767D01*
X152069275Y-93844337D01*
X152109804Y-93840363D01*
X152179720Y-93833508D01*
X152183774Y-93833177D01*
X152283724Y-93826626D01*
X152283728Y-93826625D01*
X152287839Y-93826356D01*
X152293515Y-93825227D01*
X152315940Y-93820767D01*
X152328223Y-93818948D01*
X152356028Y-93816221D01*
X152356037Y-93816219D01*
X152360203Y-93815811D01*
X152466163Y-93790958D01*
X152470286Y-93790065D01*
X152542183Y-93775764D01*
X152566703Y-93770887D01*
X152566709Y-93770885D01*
X152570753Y-93770081D01*
X152599817Y-93760215D01*
X152611532Y-93756862D01*
X152644804Y-93749058D01*
X152685245Y-93733696D01*
X152744505Y-93711186D01*
X152748746Y-93709661D01*
X152839991Y-93678687D01*
X152839996Y-93678685D01*
X152843902Y-93677359D01*
X152873234Y-93662894D01*
X152884189Y-93658124D01*
X152918076Y-93645252D01*
X152951420Y-93627223D01*
X153010046Y-93595524D01*
X153014247Y-93593354D01*
X153098910Y-93551603D01*
X153102611Y-93549778D01*
X153106413Y-93547238D01*
X153131478Y-93530490D01*
X153141550Y-93524421D01*
X153151154Y-93519228D01*
X153175219Y-93506216D01*
X153258098Y-93446000D01*
X153262159Y-93443171D01*
X153297299Y-93419691D01*
X153342454Y-93389520D01*
X153345547Y-93386808D01*
X153345562Y-93386796D01*
X153370078Y-93365295D01*
X153379095Y-93358090D01*
X153408868Y-93336459D01*
X153408871Y-93336457D01*
X153411714Y-93334391D01*
X153438539Y-93309897D01*
X153478245Y-93273641D01*
X153478262Y-93273624D01*
X153479301Y-93272676D01*
X153502124Y-93249853D01*
X153508141Y-93244216D01*
X153556238Y-93202036D01*
X153559327Y-93199327D01*
X153604216Y-93148141D01*
X153609853Y-93142124D01*
X155475707Y-91276270D01*
X155478870Y-91273214D01*
X155554630Y-91202567D01*
X155554632Y-91202565D01*
X155557686Y-91199717D01*
X155627262Y-91115014D01*
X155629818Y-91112000D01*
X155671874Y-91063960D01*
X155702022Y-91029522D01*
X155704330Y-91026048D01*
X155704337Y-91026039D01*
X155717683Y-91005951D01*
X155725267Y-90995701D01*
X155740581Y-90977058D01*
X155740583Y-90977055D01*
X155743233Y-90973829D01*
X155801000Y-90880660D01*
X155803131Y-90877340D01*
X155861484Y-90789513D01*
X155861485Y-90789511D01*
X155863792Y-90786039D01*
X155876202Y-90760595D01*
X155882361Y-90749438D01*
X155895073Y-90728936D01*
X155895075Y-90728932D01*
X155897275Y-90725384D01*
X155916308Y-90683033D01*
X155942206Y-90625407D01*
X155943885Y-90621822D01*
X155956642Y-90595666D01*
X155991938Y-90523299D01*
X156000869Y-90496451D01*
X156005502Y-90484569D01*
X156015387Y-90462574D01*
X156015390Y-90462566D01*
X156017105Y-90458750D01*
X156048430Y-90353673D01*
X156049620Y-90349900D01*
X156082889Y-90249892D01*
X156082890Y-90249888D01*
X156084210Y-90245920D01*
X156089513Y-90218122D01*
X156092532Y-90205737D01*
X156099426Y-90182612D01*
X156099427Y-90182607D01*
X156100619Y-90178609D01*
X156117768Y-90070333D01*
X156118449Y-90066433D01*
X156138204Y-89962875D01*
X156138205Y-89962870D01*
X156138986Y-89958774D01*
X156140566Y-89930513D01*
X156141921Y-89917837D01*
X156145796Y-89893368D01*
X156146348Y-89889883D01*
X156150500Y-89798453D01*
X156150500Y-89756359D01*
X156150696Y-89749325D01*
X156152522Y-89716660D01*
X156155304Y-89666906D01*
X156150871Y-89609294D01*
X156150500Y-89599628D01*
X156150500Y-87000000D01*
X156544655Y-87000000D01*
X156564016Y-87307736D01*
X156621794Y-87610619D01*
X156623021Y-87614395D01*
X156694827Y-87835390D01*
X156717078Y-87903873D01*
X156718765Y-87907459D01*
X156718767Y-87907463D01*
X156846677Y-88179285D01*
X156846681Y-88179292D01*
X156848365Y-88182871D01*
X156850489Y-88186217D01*
X156850489Y-88186218D01*
X157011458Y-88439867D01*
X157011463Y-88439874D01*
X157013584Y-88443216D01*
X157210131Y-88680799D01*
X157434904Y-88891876D01*
X157684360Y-89073116D01*
X157954565Y-89221663D01*
X158241257Y-89335172D01*
X158245091Y-89336156D01*
X158245099Y-89336159D01*
X158429607Y-89383532D01*
X158539914Y-89411854D01*
X158543842Y-89412350D01*
X158543846Y-89412351D01*
X158664780Y-89427628D01*
X158845828Y-89450500D01*
X159154172Y-89450500D01*
X159335220Y-89427628D01*
X159456154Y-89412351D01*
X159456158Y-89412350D01*
X159460086Y-89411854D01*
X159570393Y-89383532D01*
X159754901Y-89336159D01*
X159754909Y-89336156D01*
X159758743Y-89335172D01*
X160045435Y-89221663D01*
X160315640Y-89073116D01*
X160318849Y-89070785D01*
X160382468Y-89024563D01*
X160456528Y-89000500D01*
X169574151Y-89000500D01*
X169576243Y-89000361D01*
X169576245Y-89000361D01*
X169787511Y-88986329D01*
X169791682Y-88986052D01*
X169795776Y-88985227D01*
X169795780Y-88985226D01*
X169933095Y-88957538D01*
X170078239Y-88928272D01*
X170354637Y-88833100D01*
X170358370Y-88831231D01*
X170358374Y-88831229D01*
X170612276Y-88704084D01*
X170612278Y-88704083D01*
X170616020Y-88702209D01*
X170857795Y-88537899D01*
X171075716Y-88343055D01*
X171265953Y-88121102D01*
X171313029Y-88048611D01*
X171422892Y-87879437D01*
X171422894Y-87879434D01*
X171425164Y-87875938D01*
X171550552Y-87611871D01*
X171551992Y-87607388D01*
X171627861Y-87371081D01*
X171639914Y-87333541D01*
X171681107Y-87104605D01*
X171690943Y-87049940D01*
X171690944Y-87049934D01*
X171691681Y-87045836D01*
X171702086Y-86816699D01*
X171704752Y-86757983D01*
X171704752Y-86757978D01*
X171704941Y-86753813D01*
X171679464Y-86462601D01*
X171615695Y-86177317D01*
X171514756Y-85902973D01*
X171512812Y-85899285D01*
X171512808Y-85899277D01*
X171380373Y-85648092D01*
X171380372Y-85648091D01*
X171378420Y-85644388D01*
X171209082Y-85406107D01*
X171009717Y-85192314D01*
X170833363Y-85047455D01*
X170830266Y-85044827D01*
X170814952Y-85031397D01*
X170811854Y-85028680D01*
X170808424Y-85026388D01*
X170805152Y-85023878D01*
X170805162Y-85023866D01*
X170799820Y-85019903D01*
X170787060Y-85009421D01*
X170787059Y-85009420D01*
X170783829Y-85006767D01*
X170780276Y-85004564D01*
X170719463Y-84966858D01*
X170715858Y-84964537D01*
X170575444Y-84870716D01*
X170572011Y-84868422D01*
X170568312Y-84866598D01*
X170568307Y-84866595D01*
X170316997Y-84742663D01*
X170316995Y-84742662D01*
X170313302Y-84740841D01*
X170184234Y-84697028D01*
X170044063Y-84649446D01*
X170044059Y-84649445D01*
X170040153Y-84648119D01*
X170036109Y-84647315D01*
X170036103Y-84647313D01*
X169761282Y-84592648D01*
X169761279Y-84592648D01*
X169757239Y-84591844D01*
X169753128Y-84591575D01*
X169753124Y-84591574D01*
X169473519Y-84573248D01*
X169469400Y-84572978D01*
X169465281Y-84573248D01*
X169185673Y-84591574D01*
X169185666Y-84591575D01*
X169181561Y-84591844D01*
X169177519Y-84592648D01*
X169155242Y-84597079D01*
X169130661Y-84599500D01*
X159520223Y-84599500D01*
X159488895Y-84595543D01*
X159460086Y-84588146D01*
X159456158Y-84587650D01*
X159456154Y-84587649D01*
X159335220Y-84572372D01*
X159154172Y-84549500D01*
X158845828Y-84549500D01*
X158664780Y-84572372D01*
X158543846Y-84587649D01*
X158543842Y-84587650D01*
X158539914Y-84588146D01*
X158429607Y-84616468D01*
X158245099Y-84663841D01*
X158245091Y-84663844D01*
X158241257Y-84664828D01*
X158237577Y-84666285D01*
X158237574Y-84666286D01*
X158159929Y-84697028D01*
X157954565Y-84778337D01*
X157951106Y-84780238D01*
X157951103Y-84780240D01*
X157871923Y-84823770D01*
X157684360Y-84926884D01*
X157434904Y-85108124D01*
X157210131Y-85319201D01*
X157013584Y-85556784D01*
X157011463Y-85560126D01*
X157011458Y-85560133D01*
X156850489Y-85813782D01*
X156848365Y-85817129D01*
X156846681Y-85820708D01*
X156846677Y-85820715D01*
X156806125Y-85906893D01*
X156717078Y-86096127D01*
X156621794Y-86389381D01*
X156564016Y-86692264D01*
X156544655Y-87000000D01*
X156150500Y-87000000D01*
X156150500Y-74763667D01*
X156170502Y-74695546D01*
X156187405Y-74674572D01*
X156858421Y-74003556D01*
X157002023Y-73839522D01*
X157163793Y-73596039D01*
X157291939Y-73333299D01*
X157315230Y-73263285D01*
X157382890Y-73059887D01*
X157384210Y-73055919D01*
X157438986Y-72768774D01*
X157455304Y-72476905D01*
X157453896Y-72458599D01*
X157452234Y-72437002D01*
X158245380Y-72437002D01*
X158256502Y-72720084D01*
X158307400Y-72998775D01*
X158397058Y-73267514D01*
X158523687Y-73520939D01*
X158684761Y-73753993D01*
X158687783Y-73757262D01*
X158852057Y-73934973D01*
X158877065Y-73962027D01*
X158880519Y-73964839D01*
X159093307Y-74138075D01*
X159093311Y-74138078D01*
X159096764Y-74140889D01*
X159339472Y-74287012D01*
X159343567Y-74288746D01*
X159343569Y-74288747D01*
X159596247Y-74395742D01*
X159596254Y-74395744D01*
X159600348Y-74397478D01*
X159692052Y-74421793D01*
X159869889Y-74468946D01*
X159869893Y-74468947D01*
X159874186Y-74470085D01*
X159878595Y-74470607D01*
X159878601Y-74470608D01*
X160035953Y-74489232D01*
X160155523Y-74503384D01*
X160438745Y-74496709D01*
X160468070Y-74491828D01*
X160713810Y-74450926D01*
X160713814Y-74450925D01*
X160718200Y-74450195D01*
X160722441Y-74448854D01*
X160722444Y-74448853D01*
X160984068Y-74366112D01*
X160984070Y-74366111D01*
X160988314Y-74364769D01*
X160992325Y-74362843D01*
X160992330Y-74362841D01*
X161239678Y-74244066D01*
X161239679Y-74244065D01*
X161243697Y-74242136D01*
X161247403Y-74239660D01*
X161475545Y-74087221D01*
X161475549Y-74087218D01*
X161479253Y-74084743D01*
X161690281Y-73895730D01*
X161872573Y-73678868D01*
X162022489Y-73438485D01*
X162137040Y-73179376D01*
X162213939Y-72906712D01*
X162251652Y-72625933D01*
X162255610Y-72500000D01*
X162235601Y-72217407D01*
X162228720Y-72185443D01*
X162176911Y-71944800D01*
X162176911Y-71944798D01*
X162175975Y-71940453D01*
X162077920Y-71674663D01*
X161943393Y-71425340D01*
X161775078Y-71197460D01*
X161747704Y-71169652D01*
X161657547Y-71078069D01*
X161576334Y-70995570D01*
X161572794Y-70992869D01*
X161572788Y-70992863D01*
X161354667Y-70826398D01*
X161354663Y-70826395D01*
X161351126Y-70823696D01*
X161195899Y-70736765D01*
X161107837Y-70687448D01*
X161107832Y-70687445D01*
X161103947Y-70685270D01*
X161099789Y-70683662D01*
X161099784Y-70683659D01*
X160843885Y-70584659D01*
X160843879Y-70584657D01*
X160839730Y-70583052D01*
X160835398Y-70582048D01*
X160835395Y-70582047D01*
X160748570Y-70561922D01*
X160563747Y-70519082D01*
X160281503Y-70494637D01*
X160277068Y-70494881D01*
X160277064Y-70494881D01*
X160003073Y-70509960D01*
X160003066Y-70509961D01*
X159998630Y-70510205D01*
X159860743Y-70537632D01*
X159725146Y-70564604D01*
X159725141Y-70564605D01*
X159720774Y-70565474D01*
X159716571Y-70566950D01*
X159457684Y-70657864D01*
X159457681Y-70657865D01*
X159453476Y-70659342D01*
X159449523Y-70661395D01*
X159449517Y-70661398D01*
X159330923Y-70723003D01*
X159202072Y-70789936D01*
X159198457Y-70792519D01*
X159198451Y-70792523D01*
X159092341Y-70868351D01*
X158971576Y-70954651D01*
X158968349Y-70957729D01*
X158968347Y-70957731D01*
X158770056Y-71146891D01*
X158766588Y-71150199D01*
X158591199Y-71372680D01*
X158560612Y-71425340D01*
X158451141Y-71613807D01*
X158451138Y-71613813D01*
X158448907Y-71617654D01*
X158447237Y-71621777D01*
X158391296Y-71759890D01*
X158342552Y-71880232D01*
X158341481Y-71884545D01*
X158341479Y-71884550D01*
X158287002Y-72103860D01*
X158274255Y-72155177D01*
X158273801Y-72159605D01*
X158273801Y-72159607D01*
X158250037Y-72391547D01*
X158245380Y-72437002D01*
X157452234Y-72437002D01*
X157445365Y-72347729D01*
X157432878Y-72185443D01*
X157377703Y-71925864D01*
X157372968Y-71903589D01*
X157372967Y-71903587D01*
X157372100Y-71899506D01*
X157274039Y-71624120D01*
X157270328Y-71616898D01*
X157192065Y-71464616D01*
X157140418Y-71364122D01*
X157027082Y-71201052D01*
X156975970Y-71127511D01*
X156975967Y-71127507D01*
X156973585Y-71124080D01*
X156970770Y-71120997D01*
X156970765Y-71120991D01*
X156779294Y-70911305D01*
X156776470Y-70908212D01*
X156773264Y-70905522D01*
X156773260Y-70905518D01*
X156664504Y-70814261D01*
X156552537Y-70720309D01*
X156549004Y-70718067D01*
X156549000Y-70718064D01*
X156400786Y-70624005D01*
X156305719Y-70563674D01*
X156301932Y-70561924D01*
X156301928Y-70561922D01*
X156044153Y-70442813D01*
X156044148Y-70442811D01*
X156040354Y-70441058D01*
X156036355Y-70439820D01*
X155765101Y-70355852D01*
X155765093Y-70355850D01*
X155761103Y-70354615D01*
X155750309Y-70352789D01*
X155476996Y-70306562D01*
X155476991Y-70306561D01*
X155472873Y-70305865D01*
X155180726Y-70295663D01*
X154971843Y-70316144D01*
X154893957Y-70323780D01*
X154893955Y-70323780D01*
X154889797Y-70324188D01*
X154839620Y-70335957D01*
X154609270Y-70389985D01*
X154609264Y-70389987D01*
X154605196Y-70390941D01*
X154331925Y-70494747D01*
X154328260Y-70496728D01*
X154328257Y-70496730D01*
X154286918Y-70519082D01*
X154074782Y-70633784D01*
X154000920Y-70687448D01*
X153854584Y-70793768D01*
X153838286Y-70805609D01*
X153820860Y-70821521D01*
X153771756Y-70866358D01*
X153771739Y-70866375D01*
X153770700Y-70867323D01*
X152601149Y-72036874D01*
X152538837Y-72070900D01*
X152468022Y-72065835D01*
X152411186Y-72023288D01*
X152388540Y-71972684D01*
X152379099Y-71925864D01*
X152378272Y-71921761D01*
X152283100Y-71645363D01*
X152272463Y-71624120D01*
X152154084Y-71387724D01*
X152154083Y-71387722D01*
X152152209Y-71383980D01*
X152038166Y-71216171D01*
X151990250Y-71145664D01*
X151990248Y-71145661D01*
X151987899Y-71142205D01*
X151793055Y-70924284D01*
X151571102Y-70734047D01*
X151554096Y-70723003D01*
X151329437Y-70577108D01*
X151329434Y-70577106D01*
X151325938Y-70574836D01*
X151061871Y-70449448D01*
X151057888Y-70448169D01*
X151057885Y-70448168D01*
X150858974Y-70384305D01*
X150783541Y-70360086D01*
X150657852Y-70337471D01*
X150499940Y-70309057D01*
X150499934Y-70309056D01*
X150495836Y-70308319D01*
X150333485Y-70300947D01*
X150207983Y-70295248D01*
X150207978Y-70295248D01*
X150203813Y-70295059D01*
X150199665Y-70295422D01*
X150199660Y-70295422D01*
X150082590Y-70305664D01*
X149912601Y-70320536D01*
X149738972Y-70359347D01*
X149631405Y-70383391D01*
X149631402Y-70383392D01*
X149627317Y-70384305D01*
X149623392Y-70385749D01*
X149623389Y-70385750D01*
X149605242Y-70392427D01*
X149352973Y-70485244D01*
X149349285Y-70487188D01*
X149349277Y-70487192D01*
X149169369Y-70582047D01*
X149094388Y-70621580D01*
X148856107Y-70790918D01*
X148642314Y-70990283D01*
X148456767Y-71216171D01*
X148302725Y-71464616D01*
X148182895Y-71731250D01*
X148174357Y-71759890D01*
X148100572Y-72007394D01*
X148100570Y-72007402D01*
X148099381Y-72011391D01*
X148098729Y-72015508D01*
X148098728Y-72015512D01*
X148054201Y-72296649D01*
X148053652Y-72300117D01*
X148049500Y-72391547D01*
X148049500Y-85286333D01*
X148029498Y-85354454D01*
X148012595Y-85375428D01*
X146874293Y-86513730D01*
X146871131Y-86516785D01*
X146792314Y-86590283D01*
X146789662Y-86593512D01*
X146789657Y-86593517D01*
X146722734Y-86674990D01*
X146720174Y-86678009D01*
X146647977Y-86760478D01*
X146645659Y-86763967D01*
X146632312Y-86784056D01*
X146624728Y-86794305D01*
X146606767Y-86816171D01*
X146586439Y-86848957D01*
X146549017Y-86909312D01*
X146546880Y-86912641D01*
X146486208Y-87003961D01*
X146484377Y-87007714D01*
X146484377Y-87007715D01*
X146473802Y-87029398D01*
X146467639Y-87040562D01*
X146452725Y-87064616D01*
X146451012Y-87068428D01*
X146407794Y-87164593D01*
X146406115Y-87168178D01*
X146358062Y-87266701D01*
X146356742Y-87270668D01*
X146356742Y-87270669D01*
X146349131Y-87293549D01*
X146344498Y-87305431D01*
X146334613Y-87327426D01*
X146334610Y-87327434D01*
X146332895Y-87331250D01*
X146331701Y-87335254D01*
X146331701Y-87335255D01*
X146301571Y-87436325D01*
X146300381Y-87440097D01*
X146265790Y-87544080D01*
X146265006Y-87548190D01*
X146260487Y-87571878D01*
X146257468Y-87584263D01*
X146249381Y-87611391D01*
X146248728Y-87615516D01*
X146232232Y-87719667D01*
X146231551Y-87723567D01*
X146211014Y-87831226D01*
X146210781Y-87835386D01*
X146210781Y-87835390D01*
X146209434Y-87859487D01*
X146208079Y-87872163D01*
X146204247Y-87896361D01*
X146203652Y-87900117D01*
X146199500Y-87991547D01*
X146199500Y-88033642D01*
X146199304Y-88040673D01*
X146194696Y-88123095D01*
X146195016Y-88127254D01*
X146195016Y-88127256D01*
X146199129Y-88180709D01*
X146199500Y-88190375D01*
X146199500Y-89921649D01*
X146179498Y-89989770D01*
X146125842Y-90036263D01*
X146055568Y-90046367D01*
X145993524Y-90019013D01*
X145923989Y-89961896D01*
X145920887Y-89959264D01*
X145877995Y-89921649D01*
X145842454Y-89890480D01*
X145818618Y-89874553D01*
X145808661Y-89867164D01*
X145787054Y-89849416D01*
X145783829Y-89846767D01*
X145780292Y-89844574D01*
X145780285Y-89844569D01*
X145691343Y-89789424D01*
X145687737Y-89787102D01*
X145631200Y-89749325D01*
X145602611Y-89730222D01*
X145575088Y-89716650D01*
X145564437Y-89710739D01*
X145538943Y-89694931D01*
X145538935Y-89694927D01*
X145535384Y-89692725D01*
X145438086Y-89648998D01*
X145434014Y-89647079D01*
X145347599Y-89604464D01*
X145347597Y-89604463D01*
X145343902Y-89602641D01*
X145340009Y-89601319D01*
X145340003Y-89601317D01*
X145312933Y-89592128D01*
X145301802Y-89587749D01*
X145268750Y-89572895D01*
X145264748Y-89571702D01*
X145264732Y-89571696D01*
X145197607Y-89551685D01*
X145144509Y-89520032D01*
X143215072Y-87590595D01*
X143181046Y-87528283D01*
X143186111Y-87457468D01*
X143228658Y-87400632D01*
X143295178Y-87375821D01*
X143304167Y-87375500D01*
X144044120Y-87375499D01*
X144054924Y-87375499D01*
X144057710Y-87375250D01*
X144057718Y-87375250D01*
X144163216Y-87365835D01*
X144163217Y-87365835D01*
X144169188Y-87365302D01*
X144174948Y-87363650D01*
X144174950Y-87363650D01*
X144348668Y-87313837D01*
X144354806Y-87312077D01*
X144525931Y-87222615D01*
X144675572Y-87100572D01*
X144797615Y-86950931D01*
X144887077Y-86779806D01*
X144906124Y-86713381D01*
X144942281Y-86655067D01*
X144965721Y-86633663D01*
X144965741Y-86633644D01*
X144966801Y-86632676D01*
X146775707Y-84823770D01*
X146778870Y-84820714D01*
X146854630Y-84750067D01*
X146854632Y-84750065D01*
X146857686Y-84747217D01*
X146927262Y-84662514D01*
X146929818Y-84659500D01*
X146982344Y-84599500D01*
X147002022Y-84577022D01*
X147004330Y-84573548D01*
X147004337Y-84573539D01*
X147017683Y-84553451D01*
X147025267Y-84543201D01*
X147040581Y-84524558D01*
X147040583Y-84524555D01*
X147043233Y-84521329D01*
X147101000Y-84428160D01*
X147103131Y-84424840D01*
X147119294Y-84400514D01*
X147163792Y-84333539D01*
X147176202Y-84308095D01*
X147182361Y-84296938D01*
X147195073Y-84276436D01*
X147195075Y-84276432D01*
X147197275Y-84272884D01*
X147242206Y-84172907D01*
X147243885Y-84169322D01*
X147256642Y-84143166D01*
X147291938Y-84070799D01*
X147300869Y-84043951D01*
X147305502Y-84032069D01*
X147315387Y-84010074D01*
X147315390Y-84010066D01*
X147317105Y-84006250D01*
X147321452Y-83991670D01*
X147346481Y-83907711D01*
X147348430Y-83901173D01*
X147349620Y-83897400D01*
X147382889Y-83797392D01*
X147382890Y-83797388D01*
X147384210Y-83793420D01*
X147389513Y-83765622D01*
X147392532Y-83753237D01*
X147399426Y-83730112D01*
X147399427Y-83730107D01*
X147400619Y-83726109D01*
X147417768Y-83617833D01*
X147418449Y-83613933D01*
X147438204Y-83510375D01*
X147438205Y-83510370D01*
X147438986Y-83506274D01*
X147439448Y-83498017D01*
X147440566Y-83478013D01*
X147441921Y-83465337D01*
X147445796Y-83440868D01*
X147446348Y-83437383D01*
X147450500Y-83345953D01*
X147450500Y-83303858D01*
X147450696Y-83296824D01*
X147455071Y-83218570D01*
X147455304Y-83214405D01*
X147450871Y-83156793D01*
X147450500Y-83147127D01*
X147450500Y-72425849D01*
X147448128Y-72390128D01*
X147436329Y-72212489D01*
X147436052Y-72208318D01*
X147430617Y-72181360D01*
X147398743Y-72023288D01*
X147378272Y-71921761D01*
X147283100Y-71645363D01*
X147272463Y-71624120D01*
X147154084Y-71387724D01*
X147154083Y-71387722D01*
X147152209Y-71383980D01*
X147038166Y-71216171D01*
X146990250Y-71145664D01*
X146990248Y-71145661D01*
X146987899Y-71142205D01*
X146793055Y-70924284D01*
X146571102Y-70734047D01*
X146554096Y-70723003D01*
X146329437Y-70577108D01*
X146329434Y-70577106D01*
X146325938Y-70574836D01*
X146061871Y-70449448D01*
X146057888Y-70448169D01*
X146057885Y-70448168D01*
X145858974Y-70384305D01*
X145783541Y-70360086D01*
X145657852Y-70337471D01*
X145499940Y-70309057D01*
X145499934Y-70309056D01*
X145495836Y-70308319D01*
X145333485Y-70300947D01*
X145207983Y-70295248D01*
X145207978Y-70295248D01*
X145203813Y-70295059D01*
X145199665Y-70295422D01*
X145199660Y-70295422D01*
X145082590Y-70305664D01*
X144912601Y-70320536D01*
X144738972Y-70359347D01*
X144631405Y-70383391D01*
X144631402Y-70383392D01*
X144627317Y-70384305D01*
X144623392Y-70385749D01*
X144623389Y-70385750D01*
X144605242Y-70392427D01*
X144352973Y-70485244D01*
X144349285Y-70487188D01*
X144349277Y-70487192D01*
X144169369Y-70582047D01*
X144094388Y-70621580D01*
X143856107Y-70790918D01*
X143642314Y-70990283D01*
X143456767Y-71216171D01*
X143302725Y-71464616D01*
X143182895Y-71731250D01*
X143174357Y-71759890D01*
X143100572Y-72007394D01*
X143100570Y-72007402D01*
X143099381Y-72011391D01*
X143098729Y-72015508D01*
X143098728Y-72015512D01*
X143054201Y-72296649D01*
X143053652Y-72300117D01*
X143049500Y-72391547D01*
X143049500Y-82273833D01*
X143029498Y-82341954D01*
X143012595Y-82362928D01*
X142638140Y-82737383D01*
X142607423Y-82759948D01*
X142574069Y-82777385D01*
X142424428Y-82899428D01*
X142302385Y-83049069D01*
X142284948Y-83082423D01*
X142262383Y-83113140D01*
X141879079Y-83496444D01*
X141735477Y-83660478D01*
X141573708Y-83903961D01*
X141564556Y-83922725D01*
X141516719Y-83975182D01*
X141472649Y-83991669D01*
X141387794Y-84006250D01*
X141299246Y-84021465D01*
X141299245Y-84021465D01*
X141293549Y-84022444D01*
X141103793Y-84092449D01*
X140929971Y-84195862D01*
X140777905Y-84329220D01*
X140652689Y-84488057D01*
X140558514Y-84667053D01*
X140556800Y-84672572D01*
X140554589Y-84677910D01*
X140553241Y-84677352D01*
X140517835Y-84730620D01*
X140452807Y-84759113D01*
X140382697Y-84747927D01*
X140347706Y-84723229D01*
X139016056Y-83391579D01*
X138852022Y-83247977D01*
X138819438Y-83226328D01*
X138801714Y-83214552D01*
X138759781Y-83167980D01*
X138700574Y-83054729D01*
X138697615Y-83049069D01*
X138593146Y-82920977D01*
X138565593Y-82855547D01*
X138577789Y-82785605D01*
X138625861Y-82733360D01*
X138632415Y-82729681D01*
X138632522Y-82729625D01*
X138645931Y-82722615D01*
X138795572Y-82600572D01*
X138917615Y-82450931D01*
X138974587Y-82341954D01*
X139004120Y-82285463D01*
X139004121Y-82285460D01*
X139007077Y-82279806D01*
X139008836Y-82273670D01*
X139010175Y-82270323D01*
X139053103Y-82215179D01*
X139078864Y-82196462D01*
X139078868Y-82196459D01*
X139081714Y-82194391D01*
X139108539Y-82169897D01*
X139148245Y-82133641D01*
X139148262Y-82133624D01*
X139149301Y-82132676D01*
X141775707Y-79506270D01*
X141778870Y-79503214D01*
X141854634Y-79432563D01*
X141857686Y-79429717D01*
X141860338Y-79426488D01*
X141860343Y-79426483D01*
X141927266Y-79345010D01*
X141929826Y-79341991D01*
X141999264Y-79262673D01*
X142002023Y-79259522D01*
X142017689Y-79235943D01*
X142025272Y-79225695D01*
X142040574Y-79207066D01*
X142043233Y-79203829D01*
X142100983Y-79110688D01*
X142103120Y-79107359D01*
X142126620Y-79071987D01*
X142163792Y-79016039D01*
X142176202Y-78990595D01*
X142182361Y-78979438D01*
X142195073Y-78958936D01*
X142195075Y-78958932D01*
X142197275Y-78955384D01*
X142242206Y-78855407D01*
X142243885Y-78851822D01*
X142256642Y-78825666D01*
X142291938Y-78753299D01*
X142300869Y-78726451D01*
X142305502Y-78714569D01*
X142315387Y-78692574D01*
X142315390Y-78692566D01*
X142317105Y-78688750D01*
X142348430Y-78583673D01*
X142349620Y-78579900D01*
X142382889Y-78479892D01*
X142382890Y-78479888D01*
X142384210Y-78475920D01*
X142389513Y-78448122D01*
X142392532Y-78435737D01*
X142399426Y-78412612D01*
X142399427Y-78412607D01*
X142400619Y-78408609D01*
X142417768Y-78300333D01*
X142418449Y-78296433D01*
X142438204Y-78192875D01*
X142438205Y-78192870D01*
X142438986Y-78188774D01*
X142440566Y-78160513D01*
X142441921Y-78147837D01*
X142445796Y-78123368D01*
X142446348Y-78119883D01*
X142450500Y-78028453D01*
X142450500Y-77986358D01*
X142450696Y-77979324D01*
X142455048Y-77901476D01*
X142455304Y-77896905D01*
X142450871Y-77839291D01*
X142450500Y-77829625D01*
X142450500Y-72425849D01*
X142448128Y-72390128D01*
X142436329Y-72212489D01*
X142436052Y-72208318D01*
X142430617Y-72181360D01*
X142398743Y-72023288D01*
X142378272Y-71921761D01*
X142283100Y-71645363D01*
X142272463Y-71624120D01*
X142154084Y-71387724D01*
X142154083Y-71387722D01*
X142152209Y-71383980D01*
X142038166Y-71216171D01*
X141990250Y-71145664D01*
X141990248Y-71145661D01*
X141987899Y-71142205D01*
X141793055Y-70924284D01*
X141571102Y-70734047D01*
X141554096Y-70723003D01*
X141329437Y-70577108D01*
X141329434Y-70577106D01*
X141325938Y-70574836D01*
X141061871Y-70449448D01*
X141057888Y-70448169D01*
X141057885Y-70448168D01*
X140858974Y-70384305D01*
X140783541Y-70360086D01*
X140657852Y-70337471D01*
X140499940Y-70309057D01*
X140499934Y-70309056D01*
X140495836Y-70308319D01*
X140333485Y-70300947D01*
X140207983Y-70295248D01*
X140207978Y-70295248D01*
X140203813Y-70295059D01*
X140199665Y-70295422D01*
X140199660Y-70295422D01*
X140082590Y-70305664D01*
X139912601Y-70320536D01*
X139738972Y-70359347D01*
X139631405Y-70383391D01*
X139631402Y-70383392D01*
X139627317Y-70384305D01*
X139623392Y-70385749D01*
X139623389Y-70385750D01*
X139605242Y-70392427D01*
X139352973Y-70485244D01*
X139349285Y-70487188D01*
X139349277Y-70487192D01*
X139169369Y-70582047D01*
X139094388Y-70621580D01*
X138856107Y-70790918D01*
X138642314Y-70990283D01*
X138456767Y-71216171D01*
X138302725Y-71464616D01*
X138182895Y-71731250D01*
X138174357Y-71759890D01*
X138100572Y-72007394D01*
X138100570Y-72007402D01*
X138099381Y-72011391D01*
X138098729Y-72015508D01*
X138098728Y-72015512D01*
X138054201Y-72296649D01*
X138053652Y-72300117D01*
X138049500Y-72391547D01*
X138049500Y-73089446D01*
X138029498Y-73157567D01*
X137975842Y-73204060D01*
X137905568Y-73214164D01*
X137840988Y-73184670D01*
X137801513Y-73120994D01*
X137727595Y-72835172D01*
X137727592Y-72835164D01*
X137726798Y-72832092D01*
X137721989Y-72819090D01*
X137650537Y-72625933D01*
X137589695Y-72461455D01*
X137577716Y-72437002D01*
X137417240Y-72109429D01*
X137417237Y-72109423D01*
X137415839Y-72106570D01*
X137207009Y-71771071D01*
X137093432Y-71624120D01*
X136967296Y-71460918D01*
X136967291Y-71460913D01*
X136965344Y-71458393D01*
X136875884Y-71364122D01*
X136695517Y-71174054D01*
X136695514Y-71174052D01*
X136693318Y-71171737D01*
X136682408Y-71162353D01*
X136396131Y-70916116D01*
X136396128Y-70916114D01*
X136393716Y-70914039D01*
X136391108Y-70912219D01*
X136391102Y-70912215D01*
X136072220Y-70689760D01*
X136069607Y-70687937D01*
X135743037Y-70506171D01*
X135727092Y-70497296D01*
X135727090Y-70497295D01*
X135724307Y-70495746D01*
X135721387Y-70494488D01*
X135721382Y-70494486D01*
X135364287Y-70340696D01*
X135364277Y-70340692D01*
X135361353Y-70339433D01*
X134984460Y-70220599D01*
X134707713Y-70163287D01*
X134600613Y-70141108D01*
X134600610Y-70141108D01*
X134597488Y-70140461D01*
X134295259Y-70109228D01*
X134207555Y-70100165D01*
X134207552Y-70100165D01*
X134204399Y-70099839D01*
X134201233Y-70099833D01*
X134201224Y-70099833D01*
X134006076Y-70099493D01*
X133809217Y-70099150D01*
X133652678Y-70114774D01*
X133419161Y-70138082D01*
X133419155Y-70138083D01*
X133415988Y-70138399D01*
X133214871Y-70179317D01*
X133031863Y-70216550D01*
X133031859Y-70216551D01*
X133028738Y-70217186D01*
X133025696Y-70218133D01*
X133025690Y-70218135D01*
X132840086Y-70275944D01*
X132651433Y-70334703D01*
X132648493Y-70335957D01*
X132290873Y-70488495D01*
X132290869Y-70488497D01*
X132287936Y-70489748D01*
X132285149Y-70491287D01*
X132285148Y-70491287D01*
X132232975Y-70520088D01*
X131941967Y-70680733D01*
X131939346Y-70682548D01*
X131939341Y-70682551D01*
X131673890Y-70866358D01*
X131617070Y-70905702D01*
X131316571Y-71162353D01*
X131043546Y-71448057D01*
X131041589Y-71450570D01*
X131041588Y-71450572D01*
X130925925Y-71599148D01*
X130868296Y-71640614D01*
X130797397Y-71644341D01*
X130735738Y-71609145D01*
X130702896Y-71546202D01*
X130700500Y-71521748D01*
X130700500Y-69826500D01*
X130720502Y-69758379D01*
X130774158Y-69711886D01*
X130826500Y-69700500D01*
X174173500Y-69700500D01*
X174241621Y-69720502D01*
G37*
%TD.AperFunction*%
%TA.AperFunction,Conductor*%
G36*
X147662795Y-110608502D02*
G01*
X147683769Y-110625405D01*
X150769591Y-113711228D01*
X150782426Y-113726255D01*
X150790575Y-113737471D01*
X150795478Y-113741885D01*
X150795480Y-113741888D01*
X150840940Y-113782820D01*
X150845724Y-113787361D01*
X150860083Y-113801720D01*
X150862643Y-113803793D01*
X150862644Y-113803794D01*
X150875874Y-113814508D01*
X150880884Y-113818788D01*
X150926337Y-113859713D01*
X150926342Y-113859717D01*
X150931247Y-113864133D01*
X150936963Y-113867433D01*
X150943249Y-113871062D01*
X150959546Y-113882263D01*
X150970314Y-113890983D01*
X150976202Y-113893983D01*
X151030697Y-113921751D01*
X151036492Y-113924897D01*
X151085921Y-113953434D01*
X151095179Y-113958779D01*
X151107010Y-113962623D01*
X151108366Y-113963064D01*
X151126623Y-113970627D01*
X151133092Y-113973923D01*
X151133096Y-113973924D01*
X151138975Y-113976920D01*
X151145345Y-113978627D01*
X151145348Y-113978628D01*
X151204435Y-113994460D01*
X151210761Y-113996334D01*
X151237425Y-114004997D01*
X151275207Y-114017274D01*
X151281774Y-114017964D01*
X151281778Y-114017965D01*
X151287782Y-114018596D01*
X151288986Y-114018722D01*
X151308427Y-114022325D01*
X151321818Y-114025913D01*
X151365538Y-114028204D01*
X151389483Y-114029459D01*
X151396058Y-114029976D01*
X151412997Y-114031756D01*
X151413000Y-114031756D01*
X151416271Y-114032100D01*
X151436590Y-114032100D01*
X151443184Y-114032273D01*
X151504259Y-114035474D01*
X151504263Y-114035474D01*
X151510851Y-114035819D01*
X151524540Y-114033651D01*
X151544250Y-114032100D01*
X154641811Y-114032100D01*
X154709932Y-114052102D01*
X154730906Y-114069005D01*
X155282974Y-114621073D01*
X155317000Y-114683385D01*
X155311935Y-114754200D01*
X155282974Y-114799263D01*
X154319642Y-115762595D01*
X154257330Y-115796621D01*
X154230547Y-115799500D01*
X153911719Y-115799500D01*
X153843598Y-115779498D01*
X153806954Y-115743502D01*
X153751813Y-115660977D01*
X153751809Y-115660972D01*
X153749520Y-115657546D01*
X153746806Y-115654452D01*
X153746802Y-115654446D01*
X153562036Y-115443762D01*
X153559327Y-115440673D01*
X153554938Y-115436824D01*
X153345554Y-115253198D01*
X153345548Y-115253194D01*
X153342454Y-115250480D01*
X153339028Y-115248191D01*
X153339023Y-115248187D01*
X153106044Y-115092516D01*
X153102611Y-115090222D01*
X153098912Y-115088398D01*
X153098907Y-115088395D01*
X152847597Y-114964463D01*
X152847595Y-114964462D01*
X152843902Y-114962641D01*
X152840002Y-114961317D01*
X152574663Y-114871246D01*
X152574659Y-114871245D01*
X152570753Y-114869919D01*
X152566709Y-114869115D01*
X152566703Y-114869113D01*
X152291882Y-114814448D01*
X152291879Y-114814448D01*
X152287839Y-114813644D01*
X152283728Y-114813375D01*
X152283724Y-114813374D01*
X152004119Y-114795048D01*
X152000000Y-114794778D01*
X151995881Y-114795048D01*
X151716276Y-114813374D01*
X151716272Y-114813375D01*
X151712161Y-114813644D01*
X151708121Y-114814448D01*
X151708118Y-114814448D01*
X151433297Y-114869113D01*
X151433291Y-114869115D01*
X151429247Y-114869919D01*
X151425341Y-114871245D01*
X151425337Y-114871246D01*
X151159998Y-114961317D01*
X151156098Y-114962641D01*
X151152405Y-114964462D01*
X151152403Y-114964463D01*
X150901093Y-115088395D01*
X150901088Y-115088398D01*
X150897389Y-115090222D01*
X150893956Y-115092516D01*
X150660977Y-115248187D01*
X150660972Y-115248191D01*
X150657546Y-115250480D01*
X150654452Y-115253194D01*
X150654446Y-115253198D01*
X150445062Y-115436824D01*
X150440673Y-115440673D01*
X150437964Y-115443762D01*
X150253198Y-115654446D01*
X150253194Y-115654452D01*
X150250480Y-115657546D01*
X150248191Y-115660972D01*
X150248187Y-115660977D01*
X150180288Y-115762595D01*
X150090222Y-115897389D01*
X150088398Y-115901088D01*
X150088395Y-115901093D01*
X149986792Y-116107125D01*
X149962641Y-116156098D01*
X149961318Y-116159996D01*
X149961317Y-116159998D01*
X149882447Y-116392342D01*
X149869919Y-116429247D01*
X149869115Y-116433291D01*
X149869113Y-116433297D01*
X149822249Y-116668900D01*
X149813644Y-116712161D01*
X149813375Y-116716272D01*
X149813374Y-116716276D01*
X149805588Y-116835064D01*
X149794778Y-117000000D01*
X149813644Y-117287839D01*
X149814448Y-117291879D01*
X149814448Y-117291882D01*
X149866065Y-117551376D01*
X149869919Y-117570753D01*
X149871245Y-117574659D01*
X149871246Y-117574663D01*
X149954155Y-117818903D01*
X149957111Y-117889838D01*
X149923937Y-117948500D01*
X148789042Y-119083395D01*
X148726730Y-119117421D01*
X148699947Y-119120300D01*
X145702909Y-119120300D01*
X145634788Y-119100298D01*
X145588295Y-119046642D01*
X145578191Y-118976368D01*
X145607685Y-118911788D01*
X145632907Y-118889535D01*
X145839023Y-118751813D01*
X145839028Y-118751809D01*
X145842454Y-118749520D01*
X145845548Y-118746806D01*
X145845554Y-118746802D01*
X146056238Y-118562036D01*
X146059327Y-118559327D01*
X146100111Y-118512822D01*
X146246802Y-118345554D01*
X146246806Y-118345548D01*
X146249520Y-118342454D01*
X146253548Y-118336427D01*
X146396149Y-118123008D01*
X146409778Y-118102611D01*
X146418277Y-118085378D01*
X146535537Y-117847597D01*
X146535538Y-117847595D01*
X146537359Y-117843902D01*
X146596734Y-117668989D01*
X146628754Y-117574663D01*
X146628755Y-117574659D01*
X146630081Y-117570753D01*
X146633936Y-117551376D01*
X146685552Y-117291882D01*
X146685552Y-117291879D01*
X146686356Y-117287839D01*
X146705222Y-117000000D01*
X146694412Y-116835064D01*
X146686626Y-116716276D01*
X146686625Y-116716272D01*
X146686356Y-116712161D01*
X146677751Y-116668900D01*
X146630887Y-116433297D01*
X146630885Y-116433291D01*
X146630081Y-116429247D01*
X146617554Y-116392342D01*
X146538683Y-116159998D01*
X146538682Y-116159996D01*
X146537359Y-116156098D01*
X146513208Y-116107125D01*
X146411605Y-115901093D01*
X146411602Y-115901088D01*
X146409778Y-115897389D01*
X146319712Y-115762595D01*
X146251813Y-115660977D01*
X146251809Y-115660972D01*
X146249520Y-115657546D01*
X146246806Y-115654452D01*
X146246802Y-115654446D01*
X146062036Y-115443762D01*
X146059327Y-115440673D01*
X146054938Y-115436824D01*
X145845554Y-115253198D01*
X145845548Y-115253194D01*
X145842454Y-115250480D01*
X145839028Y-115248191D01*
X145839023Y-115248187D01*
X145606044Y-115092516D01*
X145602611Y-115090222D01*
X145598912Y-115088398D01*
X145598907Y-115088395D01*
X145347597Y-114964463D01*
X145347595Y-114964462D01*
X145343902Y-114962641D01*
X145340002Y-114961317D01*
X145074663Y-114871246D01*
X145074659Y-114871245D01*
X145070753Y-114869919D01*
X145066709Y-114869115D01*
X145066703Y-114869113D01*
X144791882Y-114814448D01*
X144791879Y-114814448D01*
X144787839Y-114813644D01*
X144783728Y-114813375D01*
X144783724Y-114813374D01*
X144504119Y-114795048D01*
X144500000Y-114794778D01*
X144495881Y-114795048D01*
X144216276Y-114813374D01*
X144216272Y-114813375D01*
X144212161Y-114813644D01*
X144208121Y-114814448D01*
X144208118Y-114814448D01*
X143933297Y-114869113D01*
X143933291Y-114869115D01*
X143929247Y-114869919D01*
X143925341Y-114871245D01*
X143925337Y-114871246D01*
X143659998Y-114961317D01*
X143656098Y-114962641D01*
X143652405Y-114964462D01*
X143652403Y-114964463D01*
X143401093Y-115088395D01*
X143401088Y-115088398D01*
X143397389Y-115090222D01*
X143393956Y-115092516D01*
X143160977Y-115248187D01*
X143160972Y-115248191D01*
X143157546Y-115250480D01*
X143154452Y-115253194D01*
X143154446Y-115253198D01*
X142945062Y-115436824D01*
X142940673Y-115440673D01*
X142937964Y-115443762D01*
X142753198Y-115654446D01*
X142753194Y-115654452D01*
X142750480Y-115657546D01*
X142748191Y-115660972D01*
X142748187Y-115660977D01*
X142680288Y-115762595D01*
X142590222Y-115897389D01*
X142588398Y-115901088D01*
X142588395Y-115901093D01*
X142486792Y-116107125D01*
X142462641Y-116156098D01*
X142461318Y-116159996D01*
X142461317Y-116159998D01*
X142382447Y-116392342D01*
X142369919Y-116429247D01*
X142369115Y-116433291D01*
X142369113Y-116433297D01*
X142322249Y-116668900D01*
X142313644Y-116712161D01*
X142313375Y-116716272D01*
X142313374Y-116716276D01*
X142305588Y-116835064D01*
X142294778Y-117000000D01*
X142313644Y-117287839D01*
X142314448Y-117291879D01*
X142314448Y-117291882D01*
X142366065Y-117551376D01*
X142369919Y-117570753D01*
X142371245Y-117574659D01*
X142371246Y-117574663D01*
X142403266Y-117668989D01*
X142462641Y-117843902D01*
X142464462Y-117847595D01*
X142464463Y-117847597D01*
X142581724Y-118085378D01*
X142590222Y-118102611D01*
X142603851Y-118123008D01*
X142746453Y-118336427D01*
X142750480Y-118342454D01*
X142753194Y-118345548D01*
X142753198Y-118345554D01*
X142899889Y-118512822D01*
X142940673Y-118559327D01*
X142943762Y-118562036D01*
X143154446Y-118746802D01*
X143154452Y-118746806D01*
X143157546Y-118749520D01*
X143160972Y-118751809D01*
X143160977Y-118751813D01*
X143367093Y-118889535D01*
X143412621Y-118944012D01*
X143421469Y-119014455D01*
X143390827Y-119078499D01*
X143330426Y-119115810D01*
X143297091Y-119120300D01*
X137177055Y-119120300D01*
X137108934Y-119100298D01*
X137087960Y-119083395D01*
X136958160Y-118953595D01*
X136924134Y-118891283D01*
X136929199Y-118820468D01*
X136971746Y-118763632D01*
X137038266Y-118738821D01*
X137047255Y-118738500D01*
X137169891Y-118738500D01*
X137172399Y-118738298D01*
X137172404Y-118738298D01*
X137350861Y-118723940D01*
X137350866Y-118723939D01*
X137355902Y-118723534D01*
X137360810Y-118722329D01*
X137360813Y-118722328D01*
X137593292Y-118665225D01*
X137598206Y-118664018D01*
X137602858Y-118662043D01*
X137602862Y-118662042D01*
X137823222Y-118568505D01*
X137823223Y-118568505D01*
X137827877Y-118566529D01*
X138039008Y-118433573D01*
X138102288Y-118377784D01*
X138222368Y-118271920D01*
X138222371Y-118271917D01*
X138226165Y-118268572D01*
X138235868Y-118256760D01*
X138273480Y-118210970D01*
X138384534Y-118075770D01*
X138510040Y-117860128D01*
X138520653Y-117832482D01*
X138597643Y-117631915D01*
X138599455Y-117627195D01*
X138610430Y-117574663D01*
X138618602Y-117535542D01*
X138652111Y-117472951D01*
X138714140Y-117438413D01*
X138746884Y-117435405D01*
X138787159Y-117436987D01*
X138818042Y-117438200D01*
X138904332Y-117425689D01*
X139012486Y-117410008D01*
X139012491Y-117410007D01*
X139018207Y-117409178D01*
X139023679Y-117407320D01*
X139023681Y-117407320D01*
X139204267Y-117346019D01*
X139204269Y-117346018D01*
X139209731Y-117344164D01*
X139386201Y-117245337D01*
X139541705Y-117116005D01*
X139671037Y-116960501D01*
X139769864Y-116784031D01*
X139834878Y-116592507D01*
X139835707Y-116586791D01*
X139835708Y-116586786D01*
X139863367Y-116396016D01*
X139863900Y-116392342D01*
X139865415Y-116334500D01*
X139852449Y-116193392D01*
X139847437Y-116138844D01*
X139847436Y-116138840D01*
X139846908Y-116133091D01*
X139842403Y-116117117D01*
X139843164Y-116046124D01*
X139874578Y-115993821D01*
X141027589Y-114840810D01*
X141089901Y-114806784D01*
X141098601Y-114805210D01*
X141108464Y-114803780D01*
X141120684Y-114802008D01*
X141120686Y-114802008D01*
X141126407Y-114801178D01*
X141131879Y-114799320D01*
X141131881Y-114799320D01*
X141312467Y-114738019D01*
X141312469Y-114738018D01*
X141317931Y-114736164D01*
X141457704Y-114657888D01*
X141489364Y-114640158D01*
X141489365Y-114640157D01*
X141494401Y-114637337D01*
X141545128Y-114595148D01*
X141626713Y-114527294D01*
X141649905Y-114508005D01*
X141747308Y-114390891D01*
X141775546Y-114356939D01*
X141779237Y-114352501D01*
X141793536Y-114326969D01*
X141811316Y-114295220D01*
X141878064Y-114176031D01*
X141886681Y-114150648D01*
X141941220Y-113989981D01*
X141941220Y-113989979D01*
X141943078Y-113984507D01*
X141943907Y-113978791D01*
X141943908Y-113978786D01*
X141967073Y-113819014D01*
X141972100Y-113784342D01*
X141973615Y-113726500D01*
X141955108Y-113525091D01*
X141900207Y-113330426D01*
X141810751Y-113149027D01*
X141803158Y-113138858D01*
X141693188Y-112991591D01*
X141693187Y-112991590D01*
X141689735Y-112986967D01*
X141666750Y-112965720D01*
X141545453Y-112853594D01*
X141545451Y-112853592D01*
X141541212Y-112849674D01*
X141513774Y-112832362D01*
X141375037Y-112744825D01*
X141370157Y-112741746D01*
X141182298Y-112666798D01*
X140983926Y-112627339D01*
X140978152Y-112627263D01*
X140978148Y-112627263D01*
X140875657Y-112625922D01*
X140781686Y-112624692D01*
X140775989Y-112625671D01*
X140775988Y-112625671D01*
X140588046Y-112657965D01*
X140588045Y-112657965D01*
X140582349Y-112658944D01*
X140392593Y-112728949D01*
X140387632Y-112731901D01*
X140387631Y-112731901D01*
X140226505Y-112827761D01*
X140218771Y-112832362D01*
X140066705Y-112965720D01*
X139941489Y-113124557D01*
X139847314Y-113303553D01*
X139822284Y-113384163D01*
X139790309Y-113487143D01*
X139787337Y-113496713D01*
X139786658Y-113502448D01*
X139785701Y-113506952D01*
X139751549Y-113569852D01*
X138848784Y-114472617D01*
X138786472Y-114506643D01*
X138715657Y-114501578D01*
X138658821Y-114459031D01*
X138634524Y-114398003D01*
X138633701Y-114390891D01*
X138633119Y-114385860D01*
X138628579Y-114369814D01*
X138566560Y-114150648D01*
X138565183Y-114145781D01*
X138489980Y-113984507D01*
X138461875Y-113924234D01*
X138461873Y-113924230D01*
X138459738Y-113919652D01*
X138440255Y-113890983D01*
X138415180Y-113854087D01*
X138319494Y-113713290D01*
X138148062Y-113532006D01*
X137997428Y-113416837D01*
X137955461Y-113359575D01*
X137951116Y-113288711D01*
X137986986Y-113225574D01*
X138124100Y-113094772D01*
X138131141Y-113086814D01*
X138262341Y-112910475D01*
X138267945Y-112901438D01*
X138367557Y-112705516D01*
X138371557Y-112695665D01*
X138436734Y-112485760D01*
X138439017Y-112475376D01*
X138441061Y-112459957D01*
X138438865Y-112445793D01*
X138425678Y-112442000D01*
X136854200Y-112442000D01*
X136786079Y-112421998D01*
X136739586Y-112368342D01*
X136728200Y-112316000D01*
X136728200Y-112060000D01*
X136748202Y-111991879D01*
X136801858Y-111945386D01*
X136854200Y-111934000D01*
X138423392Y-111934000D01*
X138436923Y-111930027D01*
X138438448Y-111919420D01*
X138413723Y-111801579D01*
X138410663Y-111791383D01*
X138329937Y-111586971D01*
X138325206Y-111577439D01*
X138211184Y-111389538D01*
X138204920Y-111380948D01*
X138060873Y-111214948D01*
X138053243Y-111207528D01*
X137993303Y-111158381D01*
X137953309Y-111099722D01*
X137951377Y-111028751D01*
X137988121Y-110968003D01*
X138006045Y-110954331D01*
X138039008Y-110933573D01*
X138110237Y-110870776D01*
X138222368Y-110771920D01*
X138222371Y-110771917D01*
X138226165Y-110768572D01*
X138233086Y-110760146D01*
X138336273Y-110634524D01*
X138394968Y-110594581D01*
X138433638Y-110588500D01*
X147594674Y-110588500D01*
X147662795Y-110608502D01*
G37*
%TD.AperFunction*%
%TA.AperFunction,Conductor*%
G36*
X157070650Y-105538302D02*
G01*
X157117143Y-105591958D01*
X157128432Y-105639353D01*
X157130079Y-105681260D01*
X157131064Y-105706332D01*
X157178782Y-105967609D01*
X157185144Y-105986679D01*
X157235271Y-106136926D01*
X157262838Y-106219556D01*
X157315787Y-106325524D01*
X157377411Y-106448852D01*
X157381555Y-106457146D01*
X157532564Y-106675638D01*
X157674926Y-106829644D01*
X157682623Y-106837971D01*
X157714175Y-106901571D01*
X157706334Y-106972133D01*
X157661589Y-107027255D01*
X157590098Y-107049500D01*
X157255995Y-107049500D01*
X157236284Y-107047949D01*
X157229106Y-107046812D01*
X157229104Y-107046812D01*
X157222589Y-107045780D01*
X157216002Y-107046125D01*
X157215998Y-107046125D01*
X157154909Y-107049327D01*
X157148315Y-107049500D01*
X157128008Y-107049500D01*
X157124735Y-107049844D01*
X157107805Y-107051623D01*
X157101231Y-107052140D01*
X157040156Y-107055341D01*
X157033555Y-107055687D01*
X157027171Y-107057398D01*
X157027169Y-107057398D01*
X157020167Y-107059274D01*
X157000731Y-107062877D01*
X157000322Y-107062920D01*
X156986944Y-107064326D01*
X156933196Y-107081789D01*
X156922487Y-107085269D01*
X156916163Y-107087142D01*
X156857094Y-107102970D01*
X156857093Y-107102971D01*
X156850713Y-107104680D01*
X156844832Y-107107676D01*
X156844825Y-107107679D01*
X156838358Y-107110974D01*
X156820106Y-107118535D01*
X156806916Y-107122821D01*
X156801203Y-107126119D01*
X156801195Y-107126123D01*
X156748235Y-107156700D01*
X156742437Y-107159848D01*
X156687942Y-107187614D01*
X156687938Y-107187616D01*
X156682051Y-107190616D01*
X156676913Y-107194776D01*
X156676911Y-107194778D01*
X156671277Y-107199340D01*
X156654983Y-107210539D01*
X156648704Y-107214164D01*
X156648700Y-107214167D01*
X156642984Y-107217467D01*
X156638080Y-107221882D01*
X156638078Y-107221884D01*
X156592620Y-107262815D01*
X156587618Y-107267087D01*
X156571820Y-107279880D01*
X156557461Y-107294239D01*
X156552677Y-107298780D01*
X156507217Y-107339712D01*
X156507215Y-107339714D01*
X156502312Y-107344129D01*
X156494163Y-107355345D01*
X156481328Y-107370372D01*
X154882425Y-108969275D01*
X154820113Y-109003301D01*
X154749298Y-108998236D01*
X154704235Y-108969275D01*
X152673539Y-106938579D01*
X152660702Y-106923551D01*
X152652549Y-106912329D01*
X152606286Y-106870673D01*
X152602174Y-106866971D01*
X152597390Y-106862430D01*
X152583041Y-106848081D01*
X152570556Y-106837971D01*
X152567257Y-106835299D01*
X152562241Y-106831015D01*
X152516787Y-106790088D01*
X152511877Y-106785667D01*
X152499870Y-106778734D01*
X152483581Y-106767539D01*
X152477940Y-106762971D01*
X152477939Y-106762971D01*
X152472810Y-106758817D01*
X152466930Y-106755821D01*
X152466927Y-106755819D01*
X152412427Y-106728049D01*
X152406632Y-106724903D01*
X152353661Y-106694321D01*
X152353660Y-106694321D01*
X152347945Y-106691021D01*
X152334758Y-106686736D01*
X152316501Y-106679173D01*
X152310032Y-106675877D01*
X152310028Y-106675876D01*
X152304149Y-106672880D01*
X152297776Y-106671172D01*
X152297770Y-106671170D01*
X152238686Y-106655338D01*
X152232362Y-106653465D01*
X152174196Y-106634566D01*
X152174194Y-106634566D01*
X152167917Y-106632526D01*
X152161356Y-106631836D01*
X152161354Y-106631836D01*
X152154140Y-106631078D01*
X152134698Y-106627475D01*
X152121307Y-106623887D01*
X152114718Y-106623542D01*
X152114713Y-106623541D01*
X152083288Y-106621895D01*
X152053627Y-106620341D01*
X152047061Y-106619824D01*
X152030131Y-106618044D01*
X152030120Y-106618043D01*
X152026853Y-106617700D01*
X152006535Y-106617700D01*
X151999941Y-106617527D01*
X151938865Y-106614326D01*
X151938861Y-106614326D01*
X151932273Y-106613981D01*
X151925757Y-106615013D01*
X151918585Y-106616149D01*
X151898874Y-106617700D01*
X146511787Y-106617700D01*
X146492076Y-106616149D01*
X146484904Y-106615013D01*
X146478388Y-106613981D01*
X146471800Y-106614326D01*
X146471796Y-106614326D01*
X146410721Y-106617527D01*
X146404127Y-106617700D01*
X146383808Y-106617700D01*
X146380537Y-106618044D01*
X146380534Y-106618044D01*
X146363595Y-106619824D01*
X146357020Y-106620341D01*
X146315729Y-106622505D01*
X146295693Y-106623555D01*
X146226620Y-106607146D01*
X146177383Y-106555997D01*
X146163100Y-106497728D01*
X146163100Y-106151339D01*
X146179165Y-106089773D01*
X146233108Y-105993449D01*
X146272264Y-105923531D01*
X146300155Y-105841369D01*
X146335420Y-105737481D01*
X146335420Y-105737479D01*
X146337278Y-105732007D01*
X146338107Y-105726291D01*
X146338108Y-105726286D01*
X146352297Y-105628420D01*
X146381866Y-105563875D01*
X146441638Y-105525562D01*
X146476993Y-105520500D01*
X152981058Y-105520500D01*
X152989300Y-105520770D01*
X153057347Y-105525230D01*
X153108521Y-105519173D01*
X153123330Y-105518300D01*
X157002529Y-105518300D01*
X157070650Y-105538302D01*
G37*
%TD.AperFunction*%
%TA.AperFunction,Conductor*%
G36*
X130891773Y-94087934D02*
G01*
X130914217Y-94101527D01*
X130921464Y-94103798D01*
X130921466Y-94103799D01*
X130986706Y-94124244D01*
X131076006Y-94152229D01*
X131148607Y-94158900D01*
X131151505Y-94158900D01*
X132056950Y-94158899D01*
X132960592Y-94158899D01*
X132963450Y-94158636D01*
X132963459Y-94158636D01*
X133011405Y-94154231D01*
X133033194Y-94152229D01*
X133039580Y-94150228D01*
X133039978Y-94150103D01*
X133040231Y-94150098D01*
X133046130Y-94148917D01*
X133046345Y-94149988D01*
X133110964Y-94148824D01*
X133166745Y-94181245D01*
X133266595Y-94281095D01*
X133300621Y-94343407D01*
X133303500Y-94370190D01*
X133303500Y-95298376D01*
X133283498Y-95366497D01*
X133229842Y-95412990D01*
X133159568Y-95423094D01*
X133133270Y-95416358D01*
X133022206Y-95374722D01*
X133006951Y-95371095D01*
X132956086Y-95365569D01*
X132949272Y-95365200D01*
X132326715Y-95365200D01*
X132311476Y-95369675D01*
X132310271Y-95371065D01*
X132308600Y-95378748D01*
X132308600Y-98063084D01*
X132313075Y-98078323D01*
X132314465Y-98079528D01*
X132322148Y-98081199D01*
X132949269Y-98081199D01*
X132956090Y-98080829D01*
X133006952Y-98075305D01*
X133022204Y-98071679D01*
X133133270Y-98030042D01*
X133204077Y-98024859D01*
X133266446Y-98058780D01*
X133300576Y-98121035D01*
X133303500Y-98148024D01*
X133303500Y-99189912D01*
X133283498Y-99258033D01*
X133229842Y-99304526D01*
X133159568Y-99314630D01*
X133139821Y-99310146D01*
X133066565Y-99287189D01*
X133007794Y-99268771D01*
X132935193Y-99262100D01*
X132932295Y-99262100D01*
X132026850Y-99262101D01*
X131123208Y-99262101D01*
X131120350Y-99262364D01*
X131120341Y-99262364D01*
X131084957Y-99265615D01*
X131050606Y-99268771D01*
X131044228Y-99270770D01*
X131044227Y-99270770D01*
X130934260Y-99305232D01*
X130888817Y-99319473D01*
X130882317Y-99323409D01*
X130878349Y-99325201D01*
X130808032Y-99335002D01*
X130743579Y-99305232D01*
X130705452Y-99245341D01*
X130700500Y-99210363D01*
X130700500Y-98082174D01*
X130720502Y-98014053D01*
X130774158Y-97967560D01*
X130844432Y-97957456D01*
X130902065Y-97981347D01*
X130950956Y-98017989D01*
X130966546Y-98026524D01*
X131086994Y-98071678D01*
X131102249Y-98075305D01*
X131153114Y-98080831D01*
X131159928Y-98081200D01*
X131782485Y-98081200D01*
X131797724Y-98076725D01*
X131798929Y-98075335D01*
X131800600Y-98067652D01*
X131800600Y-95383316D01*
X131796125Y-95368077D01*
X131794735Y-95366872D01*
X131787052Y-95365201D01*
X131159931Y-95365201D01*
X131153110Y-95365571D01*
X131102248Y-95371095D01*
X131086996Y-95374721D01*
X130966546Y-95419876D01*
X130950956Y-95428411D01*
X130902065Y-95465053D01*
X130835558Y-95489900D01*
X130766176Y-95474847D01*
X130715946Y-95424672D01*
X130700500Y-95364226D01*
X130700500Y-94195709D01*
X130720502Y-94127588D01*
X130774158Y-94081095D01*
X130844432Y-94070991D01*
X130891773Y-94087934D01*
G37*
%TD.AperFunction*%
%TA.AperFunction,Conductor*%
G36*
X130909012Y-86632549D02*
G01*
X130930712Y-86656950D01*
X130956701Y-86695193D01*
X130959488Y-86698310D01*
X130975572Y-86716299D01*
X130983572Y-86726213D01*
X131000209Y-86749112D01*
X131028236Y-86779806D01*
X131060959Y-86815643D01*
X131060976Y-86815660D01*
X131061924Y-86816699D01*
X131091686Y-86846461D01*
X131096521Y-86851573D01*
X131151545Y-86913114D01*
X131154715Y-86915831D01*
X131154716Y-86915832D01*
X131195423Y-86950722D01*
X131202520Y-86957295D01*
X134496590Y-90251365D01*
X134530616Y-90313677D01*
X134525551Y-90384492D01*
X134483004Y-90441328D01*
X134471933Y-90448735D01*
X134351371Y-90520462D01*
X134199305Y-90653820D01*
X134074089Y-90812657D01*
X133979914Y-90991653D01*
X133919937Y-91184813D01*
X133896164Y-91385669D01*
X133909392Y-91587494D01*
X133959178Y-91783528D01*
X134043856Y-91967207D01*
X134047186Y-91971919D01*
X134047189Y-91971924D01*
X134077397Y-92014667D01*
X134100500Y-92087387D01*
X134100500Y-92263811D01*
X134080498Y-92331932D01*
X134026842Y-92378425D01*
X133956568Y-92388529D01*
X133891988Y-92359035D01*
X133885405Y-92352906D01*
X133642004Y-92109505D01*
X133607978Y-92047193D01*
X133605099Y-92020410D01*
X133605099Y-91702408D01*
X133598429Y-91629806D01*
X133583362Y-91581726D01*
X133549999Y-91475266D01*
X133549998Y-91475264D01*
X133547727Y-91468017D01*
X133459897Y-91322992D01*
X133340008Y-91203103D01*
X133194983Y-91115273D01*
X133187736Y-91113002D01*
X133187734Y-91113001D01*
X133122494Y-91092556D01*
X133033194Y-91064571D01*
X132960593Y-91057900D01*
X132957695Y-91057900D01*
X132052250Y-91057901D01*
X131148608Y-91057901D01*
X131145750Y-91058164D01*
X131145741Y-91058164D01*
X131110357Y-91061415D01*
X131076006Y-91064571D01*
X131069628Y-91066570D01*
X131069627Y-91066570D01*
X130921466Y-91113001D01*
X130921464Y-91113002D01*
X130914217Y-91115273D01*
X130907720Y-91119208D01*
X130907718Y-91119209D01*
X130891772Y-91128866D01*
X130823143Y-91147046D01*
X130755579Y-91125236D01*
X130710532Y-91070361D01*
X130700500Y-91021091D01*
X130700500Y-86727773D01*
X130720502Y-86659652D01*
X130774158Y-86613159D01*
X130844432Y-86603055D01*
X130909012Y-86632549D01*
G37*
%TD.AperFunction*%
%TA.AperFunction,Conductor*%
G36*
X135819882Y-81705883D02*
G01*
X135848922Y-81735645D01*
X135944025Y-81872483D01*
X135944035Y-81872495D01*
X135946415Y-81875920D01*
X135949230Y-81879003D01*
X135949235Y-81879009D01*
X135950616Y-81880521D01*
X136143530Y-82091788D01*
X136262983Y-82192021D01*
X136292426Y-82216727D01*
X136326218Y-82268775D01*
X136328794Y-82267745D01*
X136331163Y-82273667D01*
X136332923Y-82279806D01*
X136422385Y-82450931D01*
X136526854Y-82579023D01*
X136554407Y-82644453D01*
X136542211Y-82714395D01*
X136494139Y-82766640D01*
X136487585Y-82770319D01*
X136474069Y-82777385D01*
X136324428Y-82899428D01*
X136202385Y-83049069D01*
X136157654Y-83134632D01*
X136125232Y-83196650D01*
X136112923Y-83220194D01*
X136111164Y-83226327D01*
X136111164Y-83226328D01*
X136092519Y-83291349D01*
X136056363Y-83349663D01*
X135920712Y-83473530D01*
X135918022Y-83476736D01*
X135918018Y-83476740D01*
X135896730Y-83502110D01*
X135732809Y-83697463D01*
X135730567Y-83700996D01*
X135730564Y-83701000D01*
X135712089Y-83730112D01*
X135576174Y-83944281D01*
X135574424Y-83948068D01*
X135574422Y-83948072D01*
X135458167Y-84199672D01*
X135453558Y-84209646D01*
X135452321Y-84213644D01*
X135452320Y-84213645D01*
X135368352Y-84484900D01*
X135368350Y-84484908D01*
X135367115Y-84488898D01*
X135366419Y-84493015D01*
X135366417Y-84493022D01*
X135348652Y-84598059D01*
X135317569Y-84661891D01*
X135256912Y-84698785D01*
X135185937Y-84697028D01*
X135135321Y-84666142D01*
X134932005Y-84462826D01*
X134897979Y-84400514D01*
X134895100Y-84373731D01*
X134895100Y-81948642D01*
X134915102Y-81880521D01*
X134968758Y-81834028D01*
X135026046Y-81822739D01*
X135126272Y-81826676D01*
X135222889Y-81830472D01*
X135309179Y-81817961D01*
X135417333Y-81802280D01*
X135417338Y-81802279D01*
X135423054Y-81801450D01*
X135428526Y-81799592D01*
X135428528Y-81799592D01*
X135609114Y-81738291D01*
X135609116Y-81738290D01*
X135614578Y-81736436D01*
X135683892Y-81697619D01*
X135753099Y-81681786D01*
X135819882Y-81705883D01*
G37*
%TD.AperFunction*%
M02*
