%TF.GenerationSoftware,KiCad,Pcbnew,(6.0.5)*%
%TF.CreationDate,2023-02-27T22:37:21-05:00*%
%TF.ProjectId,relay_board,72656c61-795f-4626-9f61-72642e6b6963,rev?*%
%TF.SameCoordinates,Original*%
%TF.FileFunction,Legend,Top*%
%TF.FilePolarity,Positive*%
%FSLAX46Y46*%
G04 Gerber Fmt 4.6, Leading zero omitted, Abs format (unit mm)*
G04 Created by KiCad (PCBNEW (6.0.5)) date 2023-02-27 22:37:21*
%MOMM*%
%LPD*%
G01*
G04 APERTURE LIST*
G04 Aperture macros list*
%AMRoundRect*
0 Rectangle with rounded corners*
0 $1 Rounding radius*
0 $2 $3 $4 $5 $6 $7 $8 $9 X,Y pos of 4 corners*
0 Add a 4 corners polygon primitive as box body*
4,1,4,$2,$3,$4,$5,$6,$7,$8,$9,$2,$3,0*
0 Add four circle primitives for the rounded corners*
1,1,$1+$1,$2,$3*
1,1,$1+$1,$4,$5*
1,1,$1+$1,$6,$7*
1,1,$1+$1,$8,$9*
0 Add four rect primitives between the rounded corners*
20,1,$1+$1,$2,$3,$4,$5,0*
20,1,$1+$1,$4,$5,$6,$7,0*
20,1,$1+$1,$6,$7,$8,$9,0*
20,1,$1+$1,$8,$9,$2,$3,0*%
G04 Aperture macros list end*
%ADD10C,0.300000*%
%ADD11C,0.150000*%
%ADD12C,0.149860*%
%ADD13C,0.127000*%
%ADD14C,0.120000*%
%ADD15C,0.100000*%
%ADD16C,0.010000*%
%ADD17R,1.700000X1.700000*%
%ADD18R,3.500000X2.300000*%
%ADD19C,2.350000*%
%ADD20R,2.600000X2.600000*%
%ADD21C,2.600000*%
%ADD22R,1.600000X1.600000*%
%ADD23C,1.600000*%
%ADD24C,3.000000*%
%ADD25RoundRect,0.250000X-0.725000X0.600000X-0.725000X-0.600000X0.725000X-0.600000X0.725000X0.600000X0*%
%ADD26O,1.950000X1.700000*%
%ADD27RoundRect,0.250000X0.725000X-0.600000X0.725000X0.600000X-0.725000X0.600000X-0.725000X-0.600000X0*%
%ADD28RoundRect,0.249999X0.450001X1.425001X-0.450001X1.425001X-0.450001X-1.425001X0.450001X-1.425001X0*%
%ADD29C,6.400000*%
%ADD30RoundRect,0.250000X-0.350000X-0.450000X0.350000X-0.450000X0.350000X0.450000X-0.350000X0.450000X0*%
%ADD31RoundRect,0.250001X0.462499X0.624999X-0.462499X0.624999X-0.462499X-0.624999X0.462499X-0.624999X0*%
G04 APERTURE END LIST*
D10*
X160928571Y-79750000D02*
X160928571Y-80464285D01*
X159428571Y-80464285D01*
X160928571Y-78464285D02*
X160928571Y-79321428D01*
X160928571Y-78892857D02*
X159428571Y-78892857D01*
X159642857Y-79035714D01*
X159785714Y-79178571D01*
X159857142Y-79321428D01*
X149250000Y-79821428D02*
X149178571Y-79964285D01*
X149178571Y-80178571D01*
X149250000Y-80392857D01*
X149392857Y-80535714D01*
X149535714Y-80607142D01*
X149821428Y-80678571D01*
X150035714Y-80678571D01*
X150321428Y-80607142D01*
X150464285Y-80535714D01*
X150607142Y-80392857D01*
X150678571Y-80178571D01*
X150678571Y-80035714D01*
X150607142Y-79821428D01*
X150535714Y-79750000D01*
X150035714Y-79750000D01*
X150035714Y-80035714D01*
X150678571Y-78321428D02*
X150678571Y-79178571D01*
X150678571Y-78750000D02*
X149178571Y-78750000D01*
X149392857Y-78892857D01*
X149535714Y-79035714D01*
X149607142Y-79178571D01*
X156181371Y-133147171D02*
X155324228Y-133147171D01*
X155752800Y-133147171D02*
X155752800Y-131647171D01*
X155609942Y-131861457D01*
X155467085Y-132004314D01*
X155324228Y-132075742D01*
X166178571Y-79750000D02*
X166178571Y-80464285D01*
X164678571Y-80464285D01*
X164821428Y-79321428D02*
X164750000Y-79250000D01*
X164678571Y-79107142D01*
X164678571Y-78750000D01*
X164750000Y-78607142D01*
X164821428Y-78535714D01*
X164964285Y-78464285D01*
X165107142Y-78464285D01*
X165321428Y-78535714D01*
X166178571Y-79392857D01*
X166178571Y-78464285D01*
X160252800Y-131647171D02*
X161181371Y-131647171D01*
X160681371Y-132218600D01*
X160895657Y-132218600D01*
X161038514Y-132290028D01*
X161109942Y-132361457D01*
X161181371Y-132504314D01*
X161181371Y-132861457D01*
X161109942Y-133004314D01*
X161038514Y-133075742D01*
X160895657Y-133147171D01*
X160467085Y-133147171D01*
X160324228Y-133075742D01*
X160252800Y-133004314D01*
D11*
X152428580Y-142378180D02*
X152523819Y-142378180D01*
X152619057Y-142425800D01*
X152666676Y-142473419D01*
X152714295Y-142568657D01*
X152761914Y-142759133D01*
X152761914Y-142997228D01*
X152714295Y-143187704D01*
X152666676Y-143282942D01*
X152619057Y-143330561D01*
X152523819Y-143378180D01*
X152428580Y-143378180D01*
X152333342Y-143330561D01*
X152285723Y-143282942D01*
X152238104Y-143187704D01*
X152190485Y-142997228D01*
X152190485Y-142759133D01*
X152238104Y-142568657D01*
X152285723Y-142473419D01*
X152333342Y-142425800D01*
X152428580Y-142378180D01*
D12*
X163819114Y-128640114D02*
X163819114Y-129075542D01*
X163819114Y-128857828D02*
X163057114Y-128857828D01*
X163165971Y-128930400D01*
X163238542Y-129002971D01*
X163274828Y-129075542D01*
X163129685Y-128349828D02*
X163093400Y-128313542D01*
X163057114Y-128240971D01*
X163057114Y-128059542D01*
X163093400Y-127986971D01*
X163129685Y-127950685D01*
X163202257Y-127914400D01*
X163274828Y-127914400D01*
X163383685Y-127950685D01*
X163819114Y-128386114D01*
X163819114Y-127914400D01*
X163057114Y-127696685D02*
X163819114Y-127442685D01*
X163057114Y-127188685D01*
X163093400Y-125370771D02*
X163057114Y-125443342D01*
X163057114Y-125552200D01*
X163093400Y-125661057D01*
X163165971Y-125733628D01*
X163238542Y-125769914D01*
X163383685Y-125806200D01*
X163492542Y-125806200D01*
X163637685Y-125769914D01*
X163710257Y-125733628D01*
X163782828Y-125661057D01*
X163819114Y-125552200D01*
X163819114Y-125479628D01*
X163782828Y-125370771D01*
X163746542Y-125334485D01*
X163492542Y-125334485D01*
X163492542Y-125479628D01*
X163819114Y-125007914D02*
X163057114Y-125007914D01*
X163819114Y-124572485D01*
X163057114Y-124572485D01*
X163819114Y-124209628D02*
X163057114Y-124209628D01*
X163057114Y-124028200D01*
X163093400Y-123919342D01*
X163165971Y-123846771D01*
X163238542Y-123810485D01*
X163383685Y-123774200D01*
X163492542Y-123774200D01*
X163637685Y-123810485D01*
X163710257Y-123846771D01*
X163782828Y-123919342D01*
X163819114Y-124028200D01*
X163819114Y-124209628D01*
D13*
X140163590Y-106578400D02*
X140125495Y-106680000D01*
X140125495Y-106849333D01*
X140163590Y-106917066D01*
X140201685Y-106950933D01*
X140277876Y-106984800D01*
X140354066Y-106984800D01*
X140430257Y-106950933D01*
X140468352Y-106917066D01*
X140506447Y-106849333D01*
X140544542Y-106713866D01*
X140582638Y-106646133D01*
X140620733Y-106612266D01*
X140696923Y-106578400D01*
X140773114Y-106578400D01*
X140849304Y-106612266D01*
X140887400Y-106646133D01*
X140925495Y-106713866D01*
X140925495Y-106883200D01*
X140887400Y-106984800D01*
X140125495Y-107289600D02*
X140925495Y-107289600D01*
X140925495Y-107458933D01*
X140887400Y-107560533D01*
X140811209Y-107628266D01*
X140735019Y-107662133D01*
X140582638Y-107696000D01*
X140468352Y-107696000D01*
X140315971Y-107662133D01*
X140239780Y-107628266D01*
X140163590Y-107560533D01*
X140125495Y-107458933D01*
X140125495Y-107289600D01*
X140354066Y-107966933D02*
X140354066Y-108305600D01*
X140125495Y-107899200D02*
X140925495Y-108136266D01*
X140125495Y-108373333D01*
X140163590Y-109118400D02*
X140125495Y-109220000D01*
X140125495Y-109389333D01*
X140163590Y-109457066D01*
X140201685Y-109490933D01*
X140277876Y-109524800D01*
X140354066Y-109524800D01*
X140430257Y-109490933D01*
X140468352Y-109457066D01*
X140506447Y-109389333D01*
X140544542Y-109253866D01*
X140582638Y-109186133D01*
X140620733Y-109152266D01*
X140696923Y-109118400D01*
X140773114Y-109118400D01*
X140849304Y-109152266D01*
X140887400Y-109186133D01*
X140925495Y-109253866D01*
X140925495Y-109423200D01*
X140887400Y-109524800D01*
X140201685Y-110236000D02*
X140163590Y-110202133D01*
X140125495Y-110100533D01*
X140125495Y-110032800D01*
X140163590Y-109931200D01*
X140239780Y-109863466D01*
X140315971Y-109829600D01*
X140468352Y-109795733D01*
X140582638Y-109795733D01*
X140735019Y-109829600D01*
X140811209Y-109863466D01*
X140887400Y-109931200D01*
X140925495Y-110032800D01*
X140925495Y-110100533D01*
X140887400Y-110202133D01*
X140849304Y-110236000D01*
X140125495Y-110879466D02*
X140125495Y-110540800D01*
X140925495Y-110540800D01*
X140887400Y-112030933D02*
X140925495Y-111963200D01*
X140925495Y-111861600D01*
X140887400Y-111760000D01*
X140811209Y-111692266D01*
X140735019Y-111658400D01*
X140582638Y-111624533D01*
X140468352Y-111624533D01*
X140315971Y-111658400D01*
X140239780Y-111692266D01*
X140163590Y-111760000D01*
X140125495Y-111861600D01*
X140125495Y-111929333D01*
X140163590Y-112030933D01*
X140201685Y-112064800D01*
X140468352Y-112064800D01*
X140468352Y-111929333D01*
X140125495Y-112369600D02*
X140925495Y-112369600D01*
X140125495Y-112776000D01*
X140925495Y-112776000D01*
X140125495Y-113114666D02*
X140925495Y-113114666D01*
X140925495Y-113284000D01*
X140887400Y-113385600D01*
X140811209Y-113453333D01*
X140735019Y-113487200D01*
X140582638Y-113521066D01*
X140468352Y-113521066D01*
X140315971Y-113487200D01*
X140239780Y-113453333D01*
X140163590Y-113385600D01*
X140125495Y-113284000D01*
X140125495Y-113114666D01*
X140925495Y-114706400D02*
X140925495Y-114367733D01*
X140544542Y-114333866D01*
X140582638Y-114367733D01*
X140620733Y-114435466D01*
X140620733Y-114604800D01*
X140582638Y-114672533D01*
X140544542Y-114706400D01*
X140468352Y-114740266D01*
X140277876Y-114740266D01*
X140201685Y-114706400D01*
X140163590Y-114672533D01*
X140125495Y-114604800D01*
X140125495Y-114435466D01*
X140163590Y-114367733D01*
X140201685Y-114333866D01*
X140925495Y-114943466D02*
X140125495Y-115180533D01*
X140925495Y-115417600D01*
X140125495Y-116569066D02*
X140125495Y-116162666D01*
X140125495Y-116365866D02*
X140925495Y-116365866D01*
X140811209Y-116298133D01*
X140735019Y-116230400D01*
X140696923Y-116162666D01*
X140849304Y-116840000D02*
X140887400Y-116873866D01*
X140925495Y-116941600D01*
X140925495Y-117110933D01*
X140887400Y-117178666D01*
X140849304Y-117212533D01*
X140773114Y-117246400D01*
X140696923Y-117246400D01*
X140582638Y-117212533D01*
X140125495Y-116806133D01*
X140125495Y-117246400D01*
X140925495Y-117449600D02*
X140125495Y-117686666D01*
X140925495Y-117923733D01*
D11*
X134193019Y-100345952D02*
X134193019Y-99774523D01*
X134193019Y-100060238D02*
X135193019Y-100060238D01*
X135050161Y-99965000D01*
X134954923Y-99869761D01*
X134907304Y-99774523D01*
X135097780Y-100726904D02*
X135145400Y-100774523D01*
X135193019Y-100869761D01*
X135193019Y-101107857D01*
X135145400Y-101203095D01*
X135097780Y-101250714D01*
X135002542Y-101298333D01*
X134907304Y-101298333D01*
X134764447Y-101250714D01*
X134193019Y-100679285D01*
X134193019Y-101298333D01*
X135193019Y-101584047D02*
X134193019Y-101917380D01*
X135193019Y-102250714D01*
X143056409Y-138178980D02*
X142723076Y-137702790D01*
X142484980Y-138178980D02*
X142484980Y-137178980D01*
X142865933Y-137178980D01*
X142961171Y-137226600D01*
X143008790Y-137274219D01*
X143056409Y-137369457D01*
X143056409Y-137512314D01*
X143008790Y-137607552D01*
X142961171Y-137655171D01*
X142865933Y-137702790D01*
X142484980Y-137702790D01*
X143961171Y-138178980D02*
X143484980Y-138178980D01*
X143484980Y-137178980D01*
X144865933Y-138083742D02*
X144818314Y-138131361D01*
X144675457Y-138178980D01*
X144580219Y-138178980D01*
X144437361Y-138131361D01*
X144342123Y-138036123D01*
X144294504Y-137940885D01*
X144246885Y-137750409D01*
X144246885Y-137607552D01*
X144294504Y-137417076D01*
X144342123Y-137321838D01*
X144437361Y-137226600D01*
X144580219Y-137178980D01*
X144675457Y-137178980D01*
X144818314Y-137226600D01*
X144865933Y-137274219D01*
X145246885Y-138131361D02*
X145389742Y-138178980D01*
X145627838Y-138178980D01*
X145723076Y-138131361D01*
X145770695Y-138083742D01*
X145818314Y-137988504D01*
X145818314Y-137893266D01*
X145770695Y-137798028D01*
X145723076Y-137750409D01*
X145627838Y-137702790D01*
X145437361Y-137655171D01*
X145342123Y-137607552D01*
X145294504Y-137559933D01*
X145246885Y-137464695D01*
X145246885Y-137369457D01*
X145294504Y-137274219D01*
X145342123Y-137226600D01*
X145437361Y-137178980D01*
X145675457Y-137178980D01*
X145818314Y-137226600D01*
X147580219Y-138178980D02*
X147246885Y-137702790D01*
X147008790Y-138178980D02*
X147008790Y-137178980D01*
X147389742Y-137178980D01*
X147484980Y-137226600D01*
X147532600Y-137274219D01*
X147580219Y-137369457D01*
X147580219Y-137512314D01*
X147532600Y-137607552D01*
X147484980Y-137655171D01*
X147389742Y-137702790D01*
X147008790Y-137702790D01*
X148389742Y-138131361D02*
X148294504Y-138178980D01*
X148104028Y-138178980D01*
X148008790Y-138131361D01*
X147961171Y-138036123D01*
X147961171Y-137655171D01*
X148008790Y-137559933D01*
X148104028Y-137512314D01*
X148294504Y-137512314D01*
X148389742Y-137559933D01*
X148437361Y-137655171D01*
X148437361Y-137750409D01*
X147961171Y-137845647D01*
X149008790Y-138178980D02*
X148913552Y-138131361D01*
X148865933Y-138036123D01*
X148865933Y-137178980D01*
X149818314Y-138178980D02*
X149818314Y-137655171D01*
X149770695Y-137559933D01*
X149675457Y-137512314D01*
X149484980Y-137512314D01*
X149389742Y-137559933D01*
X149818314Y-138131361D02*
X149723076Y-138178980D01*
X149484980Y-138178980D01*
X149389742Y-138131361D01*
X149342123Y-138036123D01*
X149342123Y-137940885D01*
X149389742Y-137845647D01*
X149484980Y-137798028D01*
X149723076Y-137798028D01*
X149818314Y-137750409D01*
X150199266Y-137512314D02*
X150437361Y-138178980D01*
X150675457Y-137512314D02*
X150437361Y-138178980D01*
X150342123Y-138417076D01*
X150294504Y-138464695D01*
X150199266Y-138512314D01*
X144937361Y-139265171D02*
X145080219Y-139312790D01*
X145127838Y-139360409D01*
X145175457Y-139455647D01*
X145175457Y-139598504D01*
X145127838Y-139693742D01*
X145080219Y-139741361D01*
X144984980Y-139788980D01*
X144604028Y-139788980D01*
X144604028Y-138788980D01*
X144937361Y-138788980D01*
X145032600Y-138836600D01*
X145080219Y-138884219D01*
X145127838Y-138979457D01*
X145127838Y-139074695D01*
X145080219Y-139169933D01*
X145032600Y-139217552D01*
X144937361Y-139265171D01*
X144604028Y-139265171D01*
X145746885Y-139788980D02*
X145651647Y-139741361D01*
X145604028Y-139693742D01*
X145556409Y-139598504D01*
X145556409Y-139312790D01*
X145604028Y-139217552D01*
X145651647Y-139169933D01*
X145746885Y-139122314D01*
X145889742Y-139122314D01*
X145984980Y-139169933D01*
X146032600Y-139217552D01*
X146080219Y-139312790D01*
X146080219Y-139598504D01*
X146032600Y-139693742D01*
X145984980Y-139741361D01*
X145889742Y-139788980D01*
X145746885Y-139788980D01*
X146937361Y-139788980D02*
X146937361Y-139265171D01*
X146889742Y-139169933D01*
X146794504Y-139122314D01*
X146604028Y-139122314D01*
X146508790Y-139169933D01*
X146937361Y-139741361D02*
X146842123Y-139788980D01*
X146604028Y-139788980D01*
X146508790Y-139741361D01*
X146461171Y-139646123D01*
X146461171Y-139550885D01*
X146508790Y-139455647D01*
X146604028Y-139408028D01*
X146842123Y-139408028D01*
X146937361Y-139360409D01*
X147413552Y-139788980D02*
X147413552Y-139122314D01*
X147413552Y-139312790D02*
X147461171Y-139217552D01*
X147508790Y-139169933D01*
X147604028Y-139122314D01*
X147699266Y-139122314D01*
X148461171Y-139788980D02*
X148461171Y-138788980D01*
X148461171Y-139741361D02*
X148365933Y-139788980D01*
X148175457Y-139788980D01*
X148080219Y-139741361D01*
X148032600Y-139693742D01*
X147984980Y-139598504D01*
X147984980Y-139312790D01*
X148032600Y-139217552D01*
X148080219Y-139169933D01*
X148175457Y-139122314D01*
X148365933Y-139122314D01*
X148461171Y-139169933D01*
X152736514Y-134894580D02*
X152165085Y-134894580D01*
X152450800Y-134894580D02*
X152450800Y-133894580D01*
X152355561Y-134037438D01*
X152260323Y-134132676D01*
X152165085Y-134180295D01*
D10*
X144178571Y-80714285D02*
X145678571Y-80214285D01*
X144178571Y-79714285D01*
X144321428Y-79285714D02*
X144250000Y-79214285D01*
X144178571Y-79071428D01*
X144178571Y-78714285D01*
X144250000Y-78571428D01*
X144321428Y-78500000D01*
X144464285Y-78428571D01*
X144607142Y-78428571D01*
X144821428Y-78500000D01*
X145678571Y-79357142D01*
X145678571Y-78428571D01*
D12*
X141376400Y-124235028D02*
X141412685Y-124162457D01*
X141412685Y-124053600D01*
X141376400Y-123944742D01*
X141303828Y-123872171D01*
X141231257Y-123835885D01*
X141086114Y-123799600D01*
X140977257Y-123799600D01*
X140832114Y-123835885D01*
X140759542Y-123872171D01*
X140686971Y-123944742D01*
X140650685Y-124053600D01*
X140650685Y-124126171D01*
X140686971Y-124235028D01*
X140723257Y-124271314D01*
X140977257Y-124271314D01*
X140977257Y-124126171D01*
X140650685Y-124597885D02*
X141412685Y-124597885D01*
X140650685Y-125033314D01*
X141412685Y-125033314D01*
X140650685Y-125396171D02*
X141412685Y-125396171D01*
X141412685Y-125577600D01*
X141376400Y-125686457D01*
X141303828Y-125759028D01*
X141231257Y-125795314D01*
X141086114Y-125831600D01*
X140977257Y-125831600D01*
X140832114Y-125795314D01*
X140759542Y-125759028D01*
X140686971Y-125686457D01*
X140650685Y-125577600D01*
X140650685Y-125396171D01*
D10*
X139178571Y-80714285D02*
X140678571Y-80214285D01*
X139178571Y-79714285D01*
X140678571Y-78428571D02*
X140678571Y-79285714D01*
X140678571Y-78857142D02*
X139178571Y-78857142D01*
X139392857Y-79000000D01*
X139535714Y-79142857D01*
X139607142Y-79285714D01*
X154250000Y-79821428D02*
X154178571Y-79964285D01*
X154178571Y-80178571D01*
X154250000Y-80392857D01*
X154392857Y-80535714D01*
X154535714Y-80607142D01*
X154821428Y-80678571D01*
X155035714Y-80678571D01*
X155321428Y-80607142D01*
X155464285Y-80535714D01*
X155607142Y-80392857D01*
X155678571Y-80178571D01*
X155678571Y-80035714D01*
X155607142Y-79821428D01*
X155535714Y-79750000D01*
X155035714Y-79750000D01*
X155035714Y-80035714D01*
X154321428Y-79178571D02*
X154250000Y-79107142D01*
X154178571Y-78964285D01*
X154178571Y-78607142D01*
X154250000Y-78464285D01*
X154321428Y-78392857D01*
X154464285Y-78321428D01*
X154607142Y-78321428D01*
X154821428Y-78392857D01*
X155678571Y-79250000D01*
X155678571Y-78321428D01*
D11*
X135218419Y-92570323D02*
X135218419Y-92094133D01*
X134742228Y-92046514D01*
X134789847Y-92094133D01*
X134837466Y-92189371D01*
X134837466Y-92427466D01*
X134789847Y-92522704D01*
X134742228Y-92570323D01*
X134646990Y-92617942D01*
X134408895Y-92617942D01*
X134313657Y-92570323D01*
X134266038Y-92522704D01*
X134218419Y-92427466D01*
X134218419Y-92189371D01*
X134266038Y-92094133D01*
X134313657Y-92046514D01*
X135218419Y-92903657D02*
X134218419Y-93236990D01*
X135218419Y-93570323D01*
D13*
X164826904Y-117424200D02*
X164826904Y-117830600D01*
X164826904Y-117627400D02*
X164026904Y-117627400D01*
X164141190Y-117695133D01*
X164217380Y-117762866D01*
X164255476Y-117830600D01*
X164103095Y-117153266D02*
X164065000Y-117119400D01*
X164026904Y-117051666D01*
X164026904Y-116882333D01*
X164065000Y-116814600D01*
X164103095Y-116780733D01*
X164179285Y-116746866D01*
X164255476Y-116746866D01*
X164369761Y-116780733D01*
X164826904Y-117187133D01*
X164826904Y-116746866D01*
X164026904Y-116543666D02*
X164826904Y-116306600D01*
X164026904Y-116069533D01*
X164026904Y-114951933D02*
X164026904Y-115290600D01*
X164407857Y-115324466D01*
X164369761Y-115290600D01*
X164331666Y-115222866D01*
X164331666Y-115053533D01*
X164369761Y-114985800D01*
X164407857Y-114951933D01*
X164484047Y-114918066D01*
X164674523Y-114918066D01*
X164750714Y-114951933D01*
X164788809Y-114985800D01*
X164826904Y-115053533D01*
X164826904Y-115222866D01*
X164788809Y-115290600D01*
X164750714Y-115324466D01*
X164026904Y-114714866D02*
X164826904Y-114477800D01*
X164026904Y-114240733D01*
X164065000Y-113089266D02*
X164026904Y-113157000D01*
X164026904Y-113258600D01*
X164065000Y-113360200D01*
X164141190Y-113427933D01*
X164217380Y-113461800D01*
X164369761Y-113495666D01*
X164484047Y-113495666D01*
X164636428Y-113461800D01*
X164712619Y-113427933D01*
X164788809Y-113360200D01*
X164826904Y-113258600D01*
X164826904Y-113190866D01*
X164788809Y-113089266D01*
X164750714Y-113055400D01*
X164484047Y-113055400D01*
X164484047Y-113190866D01*
X164826904Y-112750600D02*
X164026904Y-112750600D01*
X164826904Y-112344200D01*
X164026904Y-112344200D01*
X164826904Y-112005533D02*
X164026904Y-112005533D01*
X164026904Y-111836200D01*
X164065000Y-111734600D01*
X164141190Y-111666866D01*
X164217380Y-111633000D01*
X164369761Y-111599133D01*
X164484047Y-111599133D01*
X164636428Y-111633000D01*
X164712619Y-111666866D01*
X164788809Y-111734600D01*
X164826904Y-111836200D01*
X164826904Y-112005533D01*
X164788809Y-110786333D02*
X164826904Y-110684733D01*
X164826904Y-110515400D01*
X164788809Y-110447666D01*
X164750714Y-110413800D01*
X164674523Y-110379933D01*
X164598333Y-110379933D01*
X164522142Y-110413800D01*
X164484047Y-110447666D01*
X164445952Y-110515400D01*
X164407857Y-110650866D01*
X164369761Y-110718600D01*
X164331666Y-110752466D01*
X164255476Y-110786333D01*
X164179285Y-110786333D01*
X164103095Y-110752466D01*
X164065000Y-110718600D01*
X164026904Y-110650866D01*
X164026904Y-110481533D01*
X164065000Y-110379933D01*
X164750714Y-109668733D02*
X164788809Y-109702600D01*
X164826904Y-109804200D01*
X164826904Y-109871933D01*
X164788809Y-109973533D01*
X164712619Y-110041266D01*
X164636428Y-110075133D01*
X164484047Y-110109000D01*
X164369761Y-110109000D01*
X164217380Y-110075133D01*
X164141190Y-110041266D01*
X164065000Y-109973533D01*
X164026904Y-109871933D01*
X164026904Y-109804200D01*
X164065000Y-109702600D01*
X164103095Y-109668733D01*
X164826904Y-109025266D02*
X164826904Y-109363933D01*
X164026904Y-109363933D01*
X164788809Y-108280200D02*
X164826904Y-108178600D01*
X164826904Y-108009266D01*
X164788809Y-107941533D01*
X164750714Y-107907666D01*
X164674523Y-107873800D01*
X164598333Y-107873800D01*
X164522142Y-107907666D01*
X164484047Y-107941533D01*
X164445952Y-108009266D01*
X164407857Y-108144733D01*
X164369761Y-108212466D01*
X164331666Y-108246333D01*
X164255476Y-108280200D01*
X164179285Y-108280200D01*
X164103095Y-108246333D01*
X164065000Y-108212466D01*
X164026904Y-108144733D01*
X164026904Y-107975400D01*
X164065000Y-107873800D01*
X164826904Y-107569000D02*
X164026904Y-107569000D01*
X164026904Y-107399666D01*
X164065000Y-107298066D01*
X164141190Y-107230333D01*
X164217380Y-107196466D01*
X164369761Y-107162600D01*
X164484047Y-107162600D01*
X164636428Y-107196466D01*
X164712619Y-107230333D01*
X164788809Y-107298066D01*
X164826904Y-107399666D01*
X164826904Y-107569000D01*
X164598333Y-106891666D02*
X164598333Y-106553000D01*
X164826904Y-106959400D02*
X164026904Y-106722333D01*
X164826904Y-106485266D01*
D11*
X171793066Y-91003380D02*
X171793066Y-90003380D01*
X172174019Y-90003380D01*
X172269257Y-90051000D01*
X172316876Y-90098619D01*
X172364495Y-90193857D01*
X172364495Y-90336714D01*
X172316876Y-90431952D01*
X172269257Y-90479571D01*
X172174019Y-90527190D01*
X171793066Y-90527190D01*
X172697828Y-90003380D02*
X172935923Y-91003380D01*
X173126400Y-90289095D01*
X173316876Y-91003380D01*
X173554971Y-90003380D01*
X174507352Y-91003380D02*
X174174019Y-90527190D01*
X173935923Y-91003380D02*
X173935923Y-90003380D01*
X174316876Y-90003380D01*
X174412114Y-90051000D01*
X174459733Y-90098619D01*
X174507352Y-90193857D01*
X174507352Y-90336714D01*
X174459733Y-90431952D01*
X174412114Y-90479571D01*
X174316876Y-90527190D01*
X173935923Y-90527190D01*
D12*
X140701485Y-127544285D02*
X140701485Y-127108857D01*
X140701485Y-127326571D02*
X141463485Y-127326571D01*
X141354628Y-127254000D01*
X141282057Y-127181428D01*
X141245771Y-127108857D01*
X141390914Y-127834571D02*
X141427200Y-127870857D01*
X141463485Y-127943428D01*
X141463485Y-128124857D01*
X141427200Y-128197428D01*
X141390914Y-128233714D01*
X141318342Y-128270000D01*
X141245771Y-128270000D01*
X141136914Y-128233714D01*
X140701485Y-127798285D01*
X140701485Y-128270000D01*
X141463485Y-128487714D02*
X140701485Y-128741714D01*
X141463485Y-128995714D01*
X150211971Y-83108800D02*
X150574828Y-83108800D01*
X150139400Y-83326514D02*
X150393400Y-82564514D01*
X150647400Y-83326514D01*
X151336828Y-83253942D02*
X151300542Y-83290228D01*
X151191685Y-83326514D01*
X151119114Y-83326514D01*
X151010257Y-83290228D01*
X150937685Y-83217657D01*
X150901400Y-83145085D01*
X150865114Y-82999942D01*
X150865114Y-82891085D01*
X150901400Y-82745942D01*
X150937685Y-82673371D01*
X151010257Y-82600800D01*
X151119114Y-82564514D01*
X151191685Y-82564514D01*
X151300542Y-82600800D01*
X151336828Y-82637085D01*
X151554542Y-82564514D02*
X151989971Y-82564514D01*
X151772257Y-83326514D02*
X151772257Y-82564514D01*
X152062542Y-83399085D02*
X152643114Y-83399085D01*
X152824542Y-83326514D02*
X152824542Y-82564514D01*
X153114828Y-82564514D01*
X153187400Y-82600800D01*
X153223685Y-82637085D01*
X153259971Y-82709657D01*
X153259971Y-82818514D01*
X153223685Y-82891085D01*
X153187400Y-82927371D01*
X153114828Y-82963657D01*
X152824542Y-82963657D01*
X153513971Y-82564514D02*
X153695400Y-83326514D01*
X153840542Y-82782228D01*
X153985685Y-83326514D01*
X154167114Y-82564514D01*
X154892828Y-83326514D02*
X154638828Y-82963657D01*
X154457400Y-83326514D02*
X154457400Y-82564514D01*
X154747685Y-82564514D01*
X154820257Y-82600800D01*
X154856542Y-82637085D01*
X154892828Y-82709657D01*
X154892828Y-82818514D01*
X154856542Y-82891085D01*
X154820257Y-82927371D01*
X154747685Y-82963657D01*
X154457400Y-82963657D01*
D11*
X135170800Y-96088295D02*
X135218419Y-95993057D01*
X135218419Y-95850200D01*
X135170800Y-95707342D01*
X135075561Y-95612104D01*
X134980323Y-95564485D01*
X134789847Y-95516866D01*
X134646990Y-95516866D01*
X134456514Y-95564485D01*
X134361276Y-95612104D01*
X134266038Y-95707342D01*
X134218419Y-95850200D01*
X134218419Y-95945438D01*
X134266038Y-96088295D01*
X134313657Y-96135914D01*
X134646990Y-96135914D01*
X134646990Y-95945438D01*
X134218419Y-96564485D02*
X135218419Y-96564485D01*
X134218419Y-97135914D01*
X135218419Y-97135914D01*
X134218419Y-97612104D02*
X135218419Y-97612104D01*
X135218419Y-97850200D01*
X135170800Y-97993057D01*
X135075561Y-98088295D01*
X134980323Y-98135914D01*
X134789847Y-98183533D01*
X134646990Y-98183533D01*
X134456514Y-98135914D01*
X134361276Y-98088295D01*
X134266038Y-97993057D01*
X134218419Y-97850200D01*
X134218419Y-97612104D01*
D10*
X163788514Y-132147171D02*
X163788514Y-133147171D01*
X163431371Y-131575742D02*
X163074228Y-132647171D01*
X164002800Y-132647171D01*
X157824228Y-131790028D02*
X157895657Y-131718600D01*
X158038514Y-131647171D01*
X158395657Y-131647171D01*
X158538514Y-131718600D01*
X158609942Y-131790028D01*
X158681371Y-131932885D01*
X158681371Y-132075742D01*
X158609942Y-132290028D01*
X157752800Y-133147171D01*
X158681371Y-133147171D01*
D11*
X147902704Y-125902980D02*
X147902704Y-124902980D01*
X148140800Y-124902980D01*
X148283657Y-124950600D01*
X148378895Y-125045838D01*
X148426514Y-125141076D01*
X148474133Y-125331552D01*
X148474133Y-125474409D01*
X148426514Y-125664885D01*
X148378895Y-125760123D01*
X148283657Y-125855361D01*
X148140800Y-125902980D01*
X147902704Y-125902980D01*
X148855085Y-124998219D02*
X148902704Y-124950600D01*
X148997942Y-124902980D01*
X149236038Y-124902980D01*
X149331276Y-124950600D01*
X149378895Y-124998219D01*
X149426514Y-125093457D01*
X149426514Y-125188695D01*
X149378895Y-125331552D01*
X148807466Y-125902980D01*
X149426514Y-125902980D01*
X158619866Y-129925771D02*
X158286533Y-129925771D01*
X158286533Y-130449580D02*
X158286533Y-129449580D01*
X158762723Y-129449580D01*
X159667485Y-130449580D02*
X159096057Y-130449580D01*
X159381771Y-130449580D02*
X159381771Y-129449580D01*
X159286533Y-129592438D01*
X159191295Y-129687676D01*
X159096057Y-129735295D01*
X166316104Y-133225780D02*
X166316104Y-132225780D01*
X166697057Y-132225780D01*
X166792295Y-132273400D01*
X166839914Y-132321019D01*
X166887533Y-132416257D01*
X166887533Y-132559114D01*
X166839914Y-132654352D01*
X166792295Y-132701971D01*
X166697057Y-132749590D01*
X166316104Y-132749590D01*
X167839914Y-133225780D02*
X167268485Y-133225780D01*
X167554200Y-133225780D02*
X167554200Y-132225780D01*
X167458961Y-132368638D01*
X167363723Y-132463876D01*
X167268485Y-132511495D01*
X152880961Y-139890333D02*
X152928580Y-139747476D01*
X152928580Y-139509380D01*
X152880961Y-139414142D01*
X152833342Y-139366523D01*
X152738104Y-139318904D01*
X152642866Y-139318904D01*
X152547628Y-139366523D01*
X152500009Y-139414142D01*
X152452390Y-139509380D01*
X152404771Y-139699857D01*
X152357152Y-139795095D01*
X152309533Y-139842714D01*
X152214295Y-139890333D01*
X152119057Y-139890333D01*
X152023819Y-139842714D01*
X151976200Y-139795095D01*
X151928580Y-139699857D01*
X151928580Y-139461761D01*
X151976200Y-139318904D01*
X151928580Y-138985571D02*
X152928580Y-138747476D01*
X152214295Y-138557000D01*
X152928580Y-138366523D01*
X151928580Y-138128428D01*
X152928580Y-137223666D02*
X152928580Y-137795095D01*
X152928580Y-137509380D02*
X151928580Y-137509380D01*
X152071438Y-137604619D01*
X152166676Y-137699857D01*
X152214295Y-137795095D01*
X171892980Y-102311104D02*
X172702504Y-102311104D01*
X172797742Y-102263485D01*
X172845361Y-102215866D01*
X172892980Y-102120628D01*
X172892980Y-101930152D01*
X172845361Y-101834914D01*
X172797742Y-101787295D01*
X172702504Y-101739676D01*
X171892980Y-101739676D01*
X172892980Y-100739676D02*
X172892980Y-101311104D01*
X172892980Y-101025390D02*
X171892980Y-101025390D01*
X172035838Y-101120628D01*
X172131076Y-101215866D01*
X172178695Y-101311104D01*
X140320780Y-91414504D02*
X141130304Y-91414504D01*
X141225542Y-91366885D01*
X141273161Y-91319266D01*
X141320780Y-91224028D01*
X141320780Y-91033552D01*
X141273161Y-90938314D01*
X141225542Y-90890695D01*
X141130304Y-90843076D01*
X140320780Y-90843076D01*
X140320780Y-90462123D02*
X140320780Y-89843076D01*
X140701733Y-90176409D01*
X140701733Y-90033552D01*
X140749352Y-89938314D01*
X140796971Y-89890695D01*
X140892209Y-89843076D01*
X141130304Y-89843076D01*
X141225542Y-89890695D01*
X141273161Y-89938314D01*
X141320780Y-90033552D01*
X141320780Y-90319266D01*
X141273161Y-90414504D01*
X141225542Y-90462123D01*
X138099895Y-102881180D02*
X138099895Y-103690704D01*
X138147514Y-103785942D01*
X138195133Y-103833561D01*
X138290371Y-103881180D01*
X138480847Y-103881180D01*
X138576085Y-103833561D01*
X138623704Y-103785942D01*
X138671323Y-103690704D01*
X138671323Y-102881180D01*
X139623704Y-102881180D02*
X139147514Y-102881180D01*
X139099895Y-103357371D01*
X139147514Y-103309752D01*
X139242752Y-103262133D01*
X139480847Y-103262133D01*
X139576085Y-103309752D01*
X139623704Y-103357371D01*
X139671323Y-103452609D01*
X139671323Y-103690704D01*
X139623704Y-103785942D01*
X139576085Y-103833561D01*
X139480847Y-103881180D01*
X139242752Y-103881180D01*
X139147514Y-103833561D01*
X139099895Y-103785942D01*
X164719095Y-103033580D02*
X164719095Y-103843104D01*
X164766714Y-103938342D01*
X164814333Y-103985961D01*
X164909571Y-104033580D01*
X165100047Y-104033580D01*
X165195285Y-103985961D01*
X165242904Y-103938342D01*
X165290523Y-103843104D01*
X165290523Y-103033580D01*
X165671476Y-103033580D02*
X166338142Y-103033580D01*
X165909571Y-104033580D01*
X134129542Y-83662780D02*
X133796209Y-83186590D01*
X133558114Y-83662780D02*
X133558114Y-82662780D01*
X133939066Y-82662780D01*
X134034304Y-82710400D01*
X134081923Y-82758019D01*
X134129542Y-82853257D01*
X134129542Y-82996114D01*
X134081923Y-83091352D01*
X134034304Y-83138971D01*
X133939066Y-83186590D01*
X133558114Y-83186590D01*
X135081923Y-83662780D02*
X134510495Y-83662780D01*
X134796209Y-83662780D02*
X134796209Y-82662780D01*
X134700971Y-82805638D01*
X134605733Y-82900876D01*
X134510495Y-82948495D01*
X135939066Y-82996114D02*
X135939066Y-83662780D01*
X135700971Y-82615161D02*
X135462876Y-83329447D01*
X136081923Y-83329447D01*
X139857142Y-88234780D02*
X139523809Y-87758590D01*
X139285714Y-88234780D02*
X139285714Y-87234780D01*
X139666666Y-87234780D01*
X139761904Y-87282400D01*
X139809523Y-87330019D01*
X139857142Y-87425257D01*
X139857142Y-87568114D01*
X139809523Y-87663352D01*
X139761904Y-87710971D01*
X139666666Y-87758590D01*
X139285714Y-87758590D01*
X140809523Y-88234780D02*
X140238095Y-88234780D01*
X140523809Y-88234780D02*
X140523809Y-87234780D01*
X140428571Y-87377638D01*
X140333333Y-87472876D01*
X140238095Y-87520495D01*
X141714285Y-87234780D02*
X141238095Y-87234780D01*
X141190476Y-87710971D01*
X141238095Y-87663352D01*
X141333333Y-87615733D01*
X141571428Y-87615733D01*
X141666666Y-87663352D01*
X141714285Y-87710971D01*
X141761904Y-87806209D01*
X141761904Y-88044304D01*
X141714285Y-88139542D01*
X141666666Y-88187161D01*
X141571428Y-88234780D01*
X141333333Y-88234780D01*
X141238095Y-88187161D01*
X141190476Y-88139542D01*
X151712704Y-76144380D02*
X151712704Y-75144380D01*
X152093657Y-75144380D01*
X152188895Y-75192000D01*
X152236514Y-75239619D01*
X152284133Y-75334857D01*
X152284133Y-75477714D01*
X152236514Y-75572952D01*
X152188895Y-75620571D01*
X152093657Y-75668190D01*
X151712704Y-75668190D01*
X152617466Y-75144380D02*
X153236514Y-75144380D01*
X152903180Y-75525333D01*
X153046038Y-75525333D01*
X153141276Y-75572952D01*
X153188895Y-75620571D01*
X153236514Y-75715809D01*
X153236514Y-75953904D01*
X153188895Y-76049142D01*
X153141276Y-76096761D01*
X153046038Y-76144380D01*
X152760323Y-76144380D01*
X152665085Y-76096761D01*
X152617466Y-76049142D01*
X138936504Y-133370580D02*
X138936504Y-132370580D01*
X139317457Y-132370580D01*
X139412695Y-132418200D01*
X139460314Y-132465819D01*
X139507933Y-132561057D01*
X139507933Y-132703914D01*
X139460314Y-132799152D01*
X139412695Y-132846771D01*
X139317457Y-132894390D01*
X138936504Y-132894390D01*
X139888885Y-132465819D02*
X139936504Y-132418200D01*
X140031742Y-132370580D01*
X140269838Y-132370580D01*
X140365076Y-132418200D01*
X140412695Y-132465819D01*
X140460314Y-132561057D01*
X140460314Y-132656295D01*
X140412695Y-132799152D01*
X139841266Y-133370580D01*
X140460314Y-133370580D01*
X139717542Y-141854180D02*
X139384209Y-141377990D01*
X139146114Y-141854180D02*
X139146114Y-140854180D01*
X139527066Y-140854180D01*
X139622304Y-140901800D01*
X139669923Y-140949419D01*
X139717542Y-141044657D01*
X139717542Y-141187514D01*
X139669923Y-141282752D01*
X139622304Y-141330371D01*
X139527066Y-141377990D01*
X139146114Y-141377990D01*
X140669923Y-141854180D02*
X140098495Y-141854180D01*
X140384209Y-141854180D02*
X140384209Y-140854180D01*
X140288971Y-140997038D01*
X140193733Y-141092276D01*
X140098495Y-141139895D01*
X141527066Y-140854180D02*
X141336590Y-140854180D01*
X141241352Y-140901800D01*
X141193733Y-140949419D01*
X141098495Y-141092276D01*
X141050876Y-141282752D01*
X141050876Y-141663704D01*
X141098495Y-141758942D01*
X141146114Y-141806561D01*
X141241352Y-141854180D01*
X141431828Y-141854180D01*
X141527066Y-141806561D01*
X141574685Y-141758942D01*
X141622304Y-141663704D01*
X141622304Y-141425609D01*
X141574685Y-141330371D01*
X141527066Y-141282752D01*
X141431828Y-141235133D01*
X141241352Y-141235133D01*
X141146114Y-141282752D01*
X141098495Y-141330371D01*
X141050876Y-141425609D01*
X136218704Y-133954780D02*
X136218704Y-132954780D01*
X136456800Y-132954780D01*
X136599657Y-133002400D01*
X136694895Y-133097638D01*
X136742514Y-133192876D01*
X136790133Y-133383352D01*
X136790133Y-133526209D01*
X136742514Y-133716685D01*
X136694895Y-133811923D01*
X136599657Y-133907161D01*
X136456800Y-133954780D01*
X136218704Y-133954780D01*
X137694895Y-132954780D02*
X137218704Y-132954780D01*
X137171085Y-133430971D01*
X137218704Y-133383352D01*
X137313942Y-133335733D01*
X137552038Y-133335733D01*
X137647276Y-133383352D01*
X137694895Y-133430971D01*
X137742514Y-133526209D01*
X137742514Y-133764304D01*
X137694895Y-133859542D01*
X137647276Y-133907161D01*
X137552038Y-133954780D01*
X137313942Y-133954780D01*
X137218704Y-133907161D01*
X137171085Y-133859542D01*
D14*
X132054600Y-98053200D02*
X130724600Y-98053200D01*
X133324600Y-98053200D02*
X133384600Y-98053200D01*
X133384600Y-95393200D02*
X133324600Y-95393200D01*
X130724600Y-98053200D02*
X130724600Y-96723200D01*
X133384600Y-98053200D02*
X133384600Y-95393200D01*
X133324600Y-95393200D02*
X133324600Y-98053200D01*
X130699200Y-99482600D02*
X130699200Y-99542600D01*
X133359200Y-100812600D02*
X133359200Y-102142600D01*
X130699200Y-99542600D02*
X133359200Y-99542600D01*
X133359200Y-99542600D02*
X133359200Y-99482600D01*
X133359200Y-99482600D02*
X130699200Y-99482600D01*
X133359200Y-102142600D02*
X132029200Y-102142600D01*
X130724600Y-92608400D02*
X130724600Y-91278400D01*
X133384600Y-93938400D02*
X133384600Y-93878400D01*
X130724600Y-91278400D02*
X132054600Y-91278400D01*
X130724600Y-93878400D02*
X130724600Y-93938400D01*
X133384600Y-93878400D02*
X130724600Y-93878400D01*
X130724600Y-93938400D02*
X133384600Y-93938400D01*
X174548800Y-91557800D02*
X174548800Y-94217800D01*
X174608800Y-91557800D02*
X174548800Y-91557800D01*
X173278800Y-94217800D02*
X171948800Y-94217800D01*
X174548800Y-94217800D02*
X174608800Y-94217800D01*
X174608800Y-94217800D02*
X174608800Y-91557800D01*
X171948800Y-94217800D02*
X171948800Y-92887800D01*
X153131600Y-124374800D02*
X145831600Y-124374800D01*
X153131600Y-120074800D02*
X145831600Y-120074800D01*
X153131600Y-124374800D02*
X153131600Y-120074800D01*
X155500000Y-119250000D02*
X155500000Y-129000000D01*
X161500000Y-104000000D02*
X161500000Y-114500000D01*
X156500000Y-114750000D02*
X156500000Y-126500000D01*
X161500000Y-114500000D02*
X161500000Y-126750000D01*
X159000000Y-112750000D02*
X159000000Y-119250000D01*
X162500000Y-103000000D02*
X162500000Y-104000000D01*
X156500000Y-104000000D02*
X156500000Y-114750000D01*
X161500000Y-126750000D02*
X161500000Y-128000000D01*
X156500000Y-128000000D02*
X161500000Y-128000000D01*
X155500000Y-103000000D02*
X155500000Y-104000000D01*
X156500000Y-104000000D02*
X161500000Y-104000000D01*
X162500000Y-104000000D02*
X162500000Y-112750000D01*
X155500000Y-119250000D02*
X162500000Y-119250000D01*
X155500000Y-103000000D02*
X162500000Y-103000000D01*
X156500000Y-126500000D02*
X156500000Y-128000000D01*
X155500000Y-104000000D02*
X155500000Y-112750000D01*
X162500000Y-119250000D02*
X162500000Y-129000000D01*
X155500000Y-112750000D02*
X162500000Y-112750000D01*
X155500000Y-129000000D02*
X162500000Y-129000000D01*
X167422000Y-131459200D02*
X167422000Y-121179200D01*
X173883000Y-131699200D02*
X174623000Y-131699200D01*
X174623000Y-131699200D02*
X174623000Y-131199200D01*
X168448000Y-122709200D02*
X168484000Y-122744200D01*
X164462000Y-131459200D02*
X174383000Y-131459200D01*
X173823000Y-131459200D02*
X173823000Y-121179200D01*
X168654000Y-122504200D02*
X168700000Y-122551200D01*
X174383000Y-131459200D02*
X174383000Y-121179200D01*
X164462000Y-131459200D02*
X164462000Y-121179200D01*
X170962000Y-124813200D02*
X170997000Y-124848200D01*
X172323000Y-131459200D02*
X172323000Y-121179200D01*
X164462000Y-121179200D02*
X174383000Y-121179200D01*
X170746000Y-125006200D02*
X170792000Y-125053200D01*
X171258000Y-129543200D02*
G75*
G03*
X171403253Y-128830395I-1535001J683999D01*
G01*
X171403000Y-128859200D02*
G75*
G03*
X171257756Y-128175882I-1680000J0D01*
G01*
X170407000Y-127324199D02*
G75*
G03*
X169039958Y-127323773I-684000J-1535001D01*
G01*
X169039000Y-130394200D02*
G75*
G03*
X170406042Y-130394627I684001J1534993D01*
G01*
X168188000Y-128175200D02*
G75*
G03*
X168187573Y-129542242I1534993J-684001D01*
G01*
X171403000Y-123779200D02*
G75*
G03*
X171403000Y-123779200I-1680000J0D01*
G01*
D15*
X154552800Y-135268600D02*
X154552800Y-135568600D01*
X154552800Y-142068600D02*
X154552800Y-141768600D01*
X164252800Y-142068600D02*
X164552800Y-142068600D01*
X154852800Y-135268600D02*
X154552800Y-135268600D01*
X164252800Y-135268600D02*
X164552800Y-135268600D01*
X164552800Y-135268600D02*
X164552800Y-135568600D01*
X154852800Y-142068600D02*
X154552800Y-142068600D01*
X164552800Y-142068600D02*
X164552800Y-141768600D01*
D14*
X155669400Y-81028200D02*
X171269400Y-81028200D01*
X163519400Y-90028200D02*
X161019400Y-85428200D01*
X155669400Y-102378200D02*
X155669400Y-82578200D01*
X165319400Y-92928200D02*
X165319400Y-96928200D01*
X165319400Y-92928200D02*
X161719400Y-96928200D01*
X164969400Y-86828200D02*
X167469400Y-86828200D01*
X155639400Y-102338200D02*
X162239400Y-102338200D01*
X157519400Y-94928200D02*
X157519400Y-97078200D01*
X163519400Y-91528200D02*
X163519400Y-90028200D01*
X161719400Y-92928200D02*
X165319400Y-92928200D01*
X167119400Y-91528200D02*
X167119400Y-98328200D01*
X169519400Y-97178200D02*
X169519400Y-94928200D01*
X171269400Y-82578200D02*
X171269400Y-102378200D01*
X163519400Y-98328200D02*
X163519400Y-99128200D01*
X164669400Y-102378200D02*
X171269400Y-102378200D01*
X163519400Y-98328200D02*
X167119400Y-98328200D01*
X157519400Y-94928200D02*
X161719400Y-94928200D01*
X165319400Y-96928200D02*
X161719400Y-96928200D01*
X165319400Y-94928200D02*
X169519400Y-94928200D01*
X163519400Y-91528200D02*
X167119400Y-91528200D01*
X161719400Y-96928200D02*
X161719400Y-92928200D01*
X154660000Y-89060000D02*
X154660000Y-119540000D01*
X154660000Y-119540000D02*
X141960000Y-119540000D01*
X141960000Y-119540000D02*
X141960000Y-89060000D01*
X141960000Y-89060000D02*
X154660000Y-89060000D01*
X140992200Y-106048000D02*
X136492200Y-106048000D01*
X129882200Y-109938000D02*
X135382200Y-109938000D01*
X139082200Y-107488000D02*
X138482200Y-107188000D01*
X129272200Y-119748000D02*
X140992200Y-119748000D01*
X135382200Y-111938000D02*
X129882200Y-111938000D01*
X135382200Y-116938000D02*
X129882200Y-116938000D01*
X129882200Y-114938000D02*
X135382200Y-114938000D01*
X135382200Y-112438000D02*
X135382200Y-111938000D01*
X135382200Y-109438000D02*
X129882200Y-109438000D01*
X129882200Y-112438000D02*
X135382200Y-112438000D01*
X140992200Y-104628000D02*
X140992200Y-106048000D01*
X135382200Y-114438000D02*
X129882200Y-114438000D01*
X135382200Y-117438000D02*
X135382200Y-116938000D01*
X135382200Y-109938000D02*
X135382200Y-109438000D01*
X135382200Y-107438000D02*
X135382200Y-106938000D01*
X138482200Y-107188000D02*
X139082200Y-106888000D01*
X129882200Y-107438000D02*
X135382200Y-107438000D01*
X129882200Y-116938000D02*
X129882200Y-117438000D01*
X129882200Y-109438000D02*
X129882200Y-109938000D01*
X139082200Y-106888000D02*
X139082200Y-107488000D01*
X135382200Y-106938000D02*
X129882200Y-106938000D01*
X140992200Y-118328000D02*
X136492200Y-118328000D01*
X135382200Y-114938000D02*
X135382200Y-114438000D01*
X129882200Y-117438000D02*
X135382200Y-117438000D01*
X129272200Y-104628000D02*
X140992200Y-104628000D01*
X129882200Y-106938000D02*
X129882200Y-107438000D01*
X129272200Y-112188000D02*
X129272200Y-104628000D01*
X129272200Y-112188000D02*
X129272200Y-119748000D01*
X140992200Y-119748000D02*
X140992200Y-118328000D01*
X129882200Y-111938000D02*
X129882200Y-112438000D01*
X129882200Y-114438000D02*
X129882200Y-114938000D01*
X175125200Y-106967200D02*
X169625200Y-106967200D01*
X165925200Y-116917200D02*
X166525200Y-117217200D01*
X164015200Y-106077200D02*
X168515200Y-106077200D01*
X175735200Y-112217200D02*
X175735200Y-119777200D01*
X169625200Y-109467200D02*
X169625200Y-109967200D01*
X169625200Y-106967200D02*
X169625200Y-107467200D01*
X169625200Y-117467200D02*
X175125200Y-117467200D01*
X164015200Y-118357200D02*
X168515200Y-118357200D01*
X169625200Y-107467200D02*
X175125200Y-107467200D01*
X175125200Y-114967200D02*
X175125200Y-114467200D01*
X175125200Y-117467200D02*
X175125200Y-116967200D01*
X175735200Y-119777200D02*
X164015200Y-119777200D01*
X175735200Y-104657200D02*
X164015200Y-104657200D01*
X175125200Y-116967200D02*
X169625200Y-116967200D01*
X169625200Y-114967200D02*
X175125200Y-114967200D01*
X169625200Y-111967200D02*
X169625200Y-112467200D01*
X175125200Y-111967200D02*
X169625200Y-111967200D01*
X164015200Y-104657200D02*
X164015200Y-106077200D01*
X169625200Y-116967200D02*
X169625200Y-117467200D01*
X165925200Y-117517200D02*
X165925200Y-116917200D01*
X169625200Y-109967200D02*
X175125200Y-109967200D01*
X169625200Y-114467200D02*
X169625200Y-114967200D01*
X175125200Y-112467200D02*
X175125200Y-111967200D01*
X175125200Y-114467200D02*
X169625200Y-114467200D01*
X164015200Y-119777200D02*
X164015200Y-118357200D01*
X175125200Y-109967200D02*
X175125200Y-109467200D01*
X166525200Y-117217200D02*
X165925200Y-117517200D01*
X175125200Y-109467200D02*
X169625200Y-109467200D01*
X175125200Y-107467200D02*
X175125200Y-106967200D01*
X169625200Y-112467200D02*
X175125200Y-112467200D01*
X175735200Y-112217200D02*
X175735200Y-104657200D01*
X136797064Y-78790000D02*
X132442936Y-78790000D01*
X136797064Y-82210000D02*
X132442936Y-82210000D01*
X142677064Y-83290000D02*
X138322936Y-83290000D01*
X142677064Y-86710000D02*
X138322936Y-86710000D01*
X154180000Y-73775000D02*
X154215000Y-73739000D01*
X141477000Y-71477000D02*
X141524000Y-71431000D01*
X146284000Y-71261000D02*
X146319000Y-71226000D01*
X167810000Y-69900000D02*
X137690000Y-69900000D01*
X153975000Y-73569000D02*
X154022000Y-73523000D01*
X159180000Y-73775000D02*
X159215000Y-73739000D01*
X148975000Y-73569000D02*
X149022000Y-73523000D01*
X137690000Y-77761000D02*
X137690000Y-67840000D01*
X167810000Y-74801000D02*
X137690000Y-74801000D01*
X167810000Y-67840000D02*
X137690000Y-67840000D01*
X161477000Y-71477000D02*
X161524000Y-71431000D01*
X143975000Y-73569000D02*
X144022000Y-73523000D01*
X151284000Y-71261000D02*
X151319000Y-71226000D01*
X149180000Y-73775000D02*
X149215000Y-73739000D01*
X144180000Y-73775000D02*
X144215000Y-73739000D01*
X161284000Y-71261000D02*
X161319000Y-71226000D01*
X167810000Y-77761000D02*
X137690000Y-77761000D01*
X158975000Y-73569000D02*
X159022000Y-73523000D01*
X156477000Y-71477000D02*
X156524000Y-71431000D01*
X141284000Y-71261000D02*
X141319000Y-71226000D01*
X168050000Y-68340000D02*
X168050000Y-67600000D01*
X168050000Y-67600000D02*
X167550000Y-67600000D01*
X151477000Y-71477000D02*
X151524000Y-71431000D01*
X167810000Y-68400000D02*
X137690000Y-68400000D01*
X156284000Y-71261000D02*
X156319000Y-71226000D01*
X146477000Y-71477000D02*
X146524000Y-71431000D01*
X138975000Y-73569000D02*
X139022000Y-73523000D01*
X167810000Y-77761000D02*
X167810000Y-67840000D01*
X139180000Y-73775000D02*
X139215000Y-73739000D01*
X165250000Y-70820000D02*
G75*
G03*
X164566682Y-70965244I0J-1680000D01*
G01*
X166785000Y-73184000D02*
G75*
G03*
X166785427Y-71816958I-1534993J684001D01*
G01*
X163714999Y-71816000D02*
G75*
G03*
X163714573Y-73183042I1535001J-684000D01*
G01*
X164566000Y-74035000D02*
G75*
G03*
X165933042Y-74035427I684001J1534993D01*
G01*
X165934000Y-70965000D02*
G75*
G03*
X165221195Y-70819747I-683999J-1535001D01*
G01*
X156930000Y-72500000D02*
G75*
G03*
X156930000Y-72500000I-1680000J0D01*
G01*
X151930000Y-72500000D02*
G75*
G03*
X151930000Y-72500000I-1680000J0D01*
G01*
X161930000Y-72500000D02*
G75*
G03*
X161930000Y-72500000I-1680000J0D01*
G01*
X141930000Y-72500000D02*
G75*
G03*
X141930000Y-72500000I-1680000J0D01*
G01*
X146930000Y-72500000D02*
G75*
G03*
X146930000Y-72500000I-1680000J0D01*
G01*
G36*
X147066445Y-134823200D02*
G01*
X147147881Y-134823318D01*
X147212247Y-134823770D01*
X147262392Y-134824701D01*
X147301166Y-134826257D01*
X147331418Y-134828585D01*
X147355998Y-134831830D01*
X147377756Y-134836138D01*
X147393077Y-134839929D01*
X147462869Y-134866184D01*
X147519012Y-134904761D01*
X147561644Y-134955759D01*
X147566699Y-134964167D01*
X147581491Y-134993045D01*
X147589919Y-135019963D01*
X147593650Y-135051929D01*
X147594356Y-135080366D01*
X147592982Y-135118317D01*
X147589008Y-135154598D01*
X147583257Y-135182015D01*
X147582489Y-135184361D01*
X147565047Y-135215793D01*
X147535585Y-135250870D01*
X147499224Y-135284614D01*
X147461088Y-135312044D01*
X147439391Y-135323441D01*
X147400654Y-135340239D01*
X147444044Y-135392869D01*
X147470979Y-135425721D01*
X147501275Y-135462957D01*
X147532616Y-135501701D01*
X147562690Y-135539074D01*
X147589184Y-135572200D01*
X147609784Y-135598200D01*
X147622177Y-135614197D01*
X147624181Y-135616950D01*
X147623001Y-135621449D01*
X147610624Y-135624523D01*
X147584688Y-135626374D01*
X147542826Y-135627205D01*
X147503866Y-135627291D01*
X147376278Y-135627049D01*
X147276670Y-135500634D01*
X147177062Y-135374218D01*
X147099866Y-135373876D01*
X147022670Y-135373533D01*
X147022670Y-135627533D01*
X146803533Y-135627533D01*
X146803533Y-135204200D01*
X147022670Y-135204200D01*
X147149670Y-135204187D01*
X147207394Y-135203673D01*
X147249268Y-135201901D01*
X147279337Y-135198499D01*
X147301646Y-135193097D01*
X147311533Y-135189370D01*
X147347368Y-135165591D01*
X147369615Y-135133077D01*
X147377401Y-135096130D01*
X147369852Y-135059053D01*
X147346092Y-135026146D01*
X147344918Y-135025089D01*
X147318855Y-135007998D01*
X147283346Y-134995912D01*
X147235563Y-134988294D01*
X147172674Y-134984611D01*
X147127828Y-134984066D01*
X147022670Y-134984066D01*
X147022670Y-135204200D01*
X146803533Y-135204200D01*
X146803533Y-134823200D01*
X147066445Y-134823200D01*
G37*
D16*
X147066445Y-134823200D02*
X147147881Y-134823318D01*
X147212247Y-134823770D01*
X147262392Y-134824701D01*
X147301166Y-134826257D01*
X147331418Y-134828585D01*
X147355998Y-134831830D01*
X147377756Y-134836138D01*
X147393077Y-134839929D01*
X147462869Y-134866184D01*
X147519012Y-134904761D01*
X147561644Y-134955759D01*
X147566699Y-134964167D01*
X147581491Y-134993045D01*
X147589919Y-135019963D01*
X147593650Y-135051929D01*
X147594356Y-135080366D01*
X147592982Y-135118317D01*
X147589008Y-135154598D01*
X147583257Y-135182015D01*
X147582489Y-135184361D01*
X147565047Y-135215793D01*
X147535585Y-135250870D01*
X147499224Y-135284614D01*
X147461088Y-135312044D01*
X147439391Y-135323441D01*
X147400654Y-135340239D01*
X147444044Y-135392869D01*
X147470979Y-135425721D01*
X147501275Y-135462957D01*
X147532616Y-135501701D01*
X147562690Y-135539074D01*
X147589184Y-135572200D01*
X147609784Y-135598200D01*
X147622177Y-135614197D01*
X147624181Y-135616950D01*
X147623001Y-135621449D01*
X147610624Y-135624523D01*
X147584688Y-135626374D01*
X147542826Y-135627205D01*
X147503866Y-135627291D01*
X147376278Y-135627049D01*
X147276670Y-135500634D01*
X147177062Y-135374218D01*
X147099866Y-135373876D01*
X147022670Y-135373533D01*
X147022670Y-135627533D01*
X146803533Y-135627533D01*
X146803533Y-135204200D01*
X147022670Y-135204200D01*
X147149670Y-135204187D01*
X147207394Y-135203673D01*
X147249268Y-135201901D01*
X147279337Y-135198499D01*
X147301646Y-135193097D01*
X147311533Y-135189370D01*
X147347368Y-135165591D01*
X147369615Y-135133077D01*
X147377401Y-135096130D01*
X147369852Y-135059053D01*
X147346092Y-135026146D01*
X147344918Y-135025089D01*
X147318855Y-135007998D01*
X147283346Y-134995912D01*
X147235563Y-134988294D01*
X147172674Y-134984611D01*
X147127828Y-134984066D01*
X147022670Y-134984066D01*
X147022670Y-135204200D01*
X146803533Y-135204200D01*
X146803533Y-134823200D01*
X147066445Y-134823200D01*
G36*
X145757651Y-134992533D02*
G01*
X145468788Y-134992533D01*
X145468788Y-135627533D01*
X145259611Y-135627533D01*
X145259611Y-134992533D01*
X144970749Y-134992533D01*
X144970749Y-134823200D01*
X145757651Y-134823200D01*
X145757651Y-134992533D01*
G37*
X145757651Y-134992533D02*
X145468788Y-134992533D01*
X145468788Y-135627533D01*
X145259611Y-135627533D01*
X145259611Y-134992533D01*
X144970749Y-134992533D01*
X144970749Y-134823200D01*
X145757651Y-134823200D01*
X145757651Y-134992533D01*
G36*
X149870943Y-136050766D02*
G01*
X149911034Y-136101299D01*
X149947519Y-136146696D01*
X149978948Y-136185203D01*
X150003875Y-136215067D01*
X150020850Y-136234531D01*
X150028426Y-136241841D01*
X150028629Y-136241823D01*
X150035137Y-136234153D01*
X150051357Y-136214334D01*
X150075794Y-136184216D01*
X150106951Y-136145647D01*
X150143331Y-136100477D01*
X150183437Y-136050555D01*
X150184439Y-136049307D01*
X150336042Y-135860367D01*
X150402572Y-135857863D01*
X150436023Y-135857380D01*
X150459913Y-135858516D01*
X150469101Y-135861025D01*
X150469102Y-135861044D01*
X150463647Y-135869111D01*
X150448150Y-135889462D01*
X150423905Y-135920456D01*
X150392212Y-135960457D01*
X150354366Y-136007824D01*
X150311664Y-136060919D01*
X150274866Y-136106435D01*
X150080631Y-136346141D01*
X150080631Y-136660467D01*
X149971062Y-136660467D01*
X149971062Y-136348251D01*
X149790479Y-136125475D01*
X149745494Y-136069998D01*
X149703380Y-136018090D01*
X149665670Y-135971643D01*
X149633901Y-135932546D01*
X149609606Y-135902689D01*
X149594322Y-135883961D01*
X149590585Y-135879417D01*
X149571274Y-135856133D01*
X149717462Y-135856133D01*
X149870943Y-136050766D01*
G37*
X149870943Y-136050766D02*
X149911034Y-136101299D01*
X149947519Y-136146696D01*
X149978948Y-136185203D01*
X150003875Y-136215067D01*
X150020850Y-136234531D01*
X150028426Y-136241841D01*
X150028629Y-136241823D01*
X150035137Y-136234153D01*
X150051357Y-136214334D01*
X150075794Y-136184216D01*
X150106951Y-136145647D01*
X150143331Y-136100477D01*
X150183437Y-136050555D01*
X150184439Y-136049307D01*
X150336042Y-135860367D01*
X150402572Y-135857863D01*
X150436023Y-135857380D01*
X150459913Y-135858516D01*
X150469101Y-135861025D01*
X150469102Y-135861044D01*
X150463647Y-135869111D01*
X150448150Y-135889462D01*
X150423905Y-135920456D01*
X150392212Y-135960457D01*
X150354366Y-136007824D01*
X150311664Y-136060919D01*
X150274866Y-136106435D01*
X150080631Y-136346141D01*
X150080631Y-136660467D01*
X149971062Y-136660467D01*
X149971062Y-136348251D01*
X149790479Y-136125475D01*
X149745494Y-136069998D01*
X149703380Y-136018090D01*
X149665670Y-135971643D01*
X149633901Y-135932546D01*
X149609606Y-135902689D01*
X149594322Y-135883961D01*
X149590585Y-135879417D01*
X149571274Y-135856133D01*
X149717462Y-135856133D01*
X149870943Y-136050766D01*
G36*
X148546670Y-135940800D02*
G01*
X148237886Y-135940800D01*
X148237886Y-136660467D01*
X148118357Y-136660467D01*
X148118357Y-135940800D01*
X147799611Y-135940800D01*
X147799611Y-135856133D01*
X148546670Y-135856133D01*
X148546670Y-135940800D01*
G37*
X148546670Y-135940800D02*
X148237886Y-135940800D01*
X148237886Y-136660467D01*
X148118357Y-136660467D01*
X148118357Y-135940800D01*
X147799611Y-135940800D01*
X147799611Y-135856133D01*
X148546670Y-135856133D01*
X148546670Y-135940800D01*
G36*
X141825989Y-130187846D02*
G01*
X141853829Y-130191721D01*
X141897279Y-130198251D01*
X141954376Y-130207113D01*
X142023154Y-130217982D01*
X142101649Y-130230535D01*
X142187897Y-130244450D01*
X142279933Y-130259402D01*
X142375794Y-130275069D01*
X142473514Y-130291126D01*
X142571129Y-130307251D01*
X142666675Y-130323119D01*
X142758187Y-130338409D01*
X142843701Y-130352796D01*
X142921253Y-130365956D01*
X142988878Y-130377567D01*
X143044611Y-130387306D01*
X143086489Y-130394847D01*
X143112546Y-130399870D01*
X143120358Y-130401725D01*
X143132878Y-130410796D01*
X143155484Y-130431968D01*
X143186653Y-130463579D01*
X143224862Y-130503968D01*
X143268590Y-130551475D01*
X143316313Y-130604437D01*
X143366510Y-130661194D01*
X143417657Y-130720084D01*
X143468233Y-130779447D01*
X143486776Y-130801533D01*
X143640226Y-130989241D01*
X143792344Y-131183420D01*
X143942356Y-131382788D01*
X144089482Y-131586066D01*
X144232947Y-131791972D01*
X144371972Y-131999224D01*
X144505780Y-132206542D01*
X144633595Y-132412645D01*
X144754639Y-132616252D01*
X144868134Y-132816082D01*
X144973303Y-133010853D01*
X145069370Y-133199285D01*
X145155556Y-133380096D01*
X145231085Y-133552006D01*
X145295179Y-133713734D01*
X145347061Y-133863998D01*
X145349363Y-133871323D01*
X145381326Y-133973546D01*
X145472371Y-133892422D01*
X145669916Y-133710236D01*
X145851030Y-133529877D01*
X146018349Y-133348274D01*
X146174510Y-133162354D01*
X146322151Y-132969044D01*
X146463909Y-132765271D01*
X146539205Y-132649383D01*
X146567231Y-132605870D01*
X146592361Y-132568019D01*
X146612982Y-132538166D01*
X146627481Y-132518648D01*
X146634200Y-132511800D01*
X146641115Y-132518893D01*
X146655737Y-132538617D01*
X146676453Y-132568633D01*
X146701649Y-132606606D01*
X146729194Y-132649383D01*
X146868835Y-132860068D01*
X147012927Y-133058627D01*
X147164106Y-133248133D01*
X147325008Y-133431657D01*
X147498272Y-133612273D01*
X147686533Y-133793053D01*
X147796066Y-133892455D01*
X147887149Y-133973613D01*
X147909523Y-133900990D01*
X147962768Y-133743264D01*
X148028605Y-133574146D01*
X148106327Y-133394849D01*
X148195226Y-133206588D01*
X148294596Y-133010579D01*
X148403730Y-132808035D01*
X148521920Y-132600173D01*
X148648459Y-132388205D01*
X148782641Y-132173348D01*
X148923757Y-131956815D01*
X149071102Y-131739822D01*
X149223969Y-131523583D01*
X149381649Y-131309313D01*
X149533719Y-131110660D01*
X149603221Y-131022453D01*
X149672857Y-130935656D01*
X149741621Y-130851424D01*
X149808505Y-130770910D01*
X149872501Y-130695267D01*
X149932603Y-130625648D01*
X149987803Y-130563207D01*
X150037094Y-130509095D01*
X150079470Y-130464468D01*
X150113922Y-130430477D01*
X150139443Y-130408276D01*
X150155028Y-130399019D01*
X150155337Y-130398952D01*
X150181128Y-130394172D01*
X150222761Y-130386867D01*
X150278271Y-130377358D01*
X150345698Y-130365966D01*
X150423078Y-130353010D01*
X150508450Y-130338811D01*
X150599852Y-130323690D01*
X150695320Y-130307968D01*
X150792894Y-130291965D01*
X150890611Y-130276001D01*
X150986508Y-130260397D01*
X151078623Y-130245474D01*
X151164994Y-130231552D01*
X151243659Y-130218951D01*
X151312656Y-130207993D01*
X151370022Y-130198998D01*
X151413795Y-130192286D01*
X151442013Y-130188178D01*
X151452714Y-130186994D01*
X151452748Y-130187010D01*
X151451066Y-130195649D01*
X151444758Y-130219519D01*
X151434165Y-130257455D01*
X151419628Y-130308288D01*
X151401488Y-130370854D01*
X151380087Y-130443985D01*
X151355766Y-130526514D01*
X151328868Y-130617275D01*
X151299732Y-130715101D01*
X151268701Y-130818825D01*
X151236116Y-130927282D01*
X151235809Y-130928301D01*
X151203207Y-131036756D01*
X151172136Y-131140457D01*
X151142938Y-131238241D01*
X151115955Y-131328945D01*
X151091531Y-131411405D01*
X151070007Y-131484459D01*
X151051728Y-131546943D01*
X151037035Y-131597693D01*
X151026271Y-131635547D01*
X151019780Y-131659341D01*
X151017903Y-131667912D01*
X151017909Y-131667918D01*
X151027226Y-131672535D01*
X151051875Y-131684492D01*
X151089833Y-131702816D01*
X151139077Y-131726532D01*
X151197586Y-131754667D01*
X151263337Y-131786245D01*
X151318673Y-131812796D01*
X151388422Y-131846503D01*
X151452165Y-131877801D01*
X151507935Y-131905685D01*
X151553761Y-131929149D01*
X151587675Y-131947189D01*
X151607708Y-131958798D01*
X151612423Y-131962764D01*
X151603893Y-131968142D01*
X151579534Y-131982281D01*
X151540212Y-132004697D01*
X151486789Y-132034908D01*
X151420130Y-132072431D01*
X151341098Y-132116783D01*
X151250557Y-132167481D01*
X151149371Y-132224043D01*
X151038403Y-132285985D01*
X150918519Y-132352825D01*
X150790580Y-132424080D01*
X150655452Y-132499266D01*
X150513998Y-132577902D01*
X150367081Y-132659504D01*
X150215567Y-132743590D01*
X150205047Y-132749425D01*
X150053235Y-132833688D01*
X149905966Y-132915530D01*
X149764104Y-132994468D01*
X149628512Y-133070015D01*
X149500055Y-133141689D01*
X149379597Y-133209003D01*
X149268002Y-133271474D01*
X149166132Y-133328617D01*
X149074854Y-133379947D01*
X148995030Y-133424979D01*
X148927524Y-133463229D01*
X148873200Y-133494213D01*
X148832923Y-133517444D01*
X148807556Y-133532440D01*
X148797962Y-133538715D01*
X148797905Y-133538811D01*
X148800335Y-133548595D01*
X148808319Y-133573018D01*
X148821324Y-133610595D01*
X148838814Y-133659843D01*
X148860256Y-133719276D01*
X148885115Y-133787411D01*
X148912856Y-133862763D01*
X148942946Y-133943848D01*
X148964677Y-134002041D01*
X148996131Y-134086257D01*
X149025694Y-134165791D01*
X149052822Y-134239155D01*
X149076971Y-134304857D01*
X149097597Y-134361407D01*
X149114155Y-134407317D01*
X149126101Y-134441096D01*
X149132891Y-134461253D01*
X149134285Y-134466425D01*
X149128189Y-134473920D01*
X149107612Y-134473918D01*
X149101984Y-134473153D01*
X149088142Y-134471554D01*
X149055757Y-134468072D01*
X149006063Y-134462836D01*
X148940299Y-134455972D01*
X148859700Y-134447609D01*
X148765504Y-134437874D01*
X148658946Y-134426894D01*
X148541264Y-134414796D01*
X148413695Y-134401709D01*
X148277474Y-134387759D01*
X148133838Y-134373074D01*
X147984025Y-134357782D01*
X147853021Y-134344429D01*
X146636430Y-134220502D01*
X145422589Y-134344140D01*
X145268571Y-134359836D01*
X145119610Y-134375034D01*
X144976953Y-134389606D01*
X144841842Y-134403424D01*
X144715524Y-134416359D01*
X144599242Y-134428285D01*
X144494242Y-134439072D01*
X144401768Y-134448594D01*
X144323066Y-134456723D01*
X144259379Y-134463330D01*
X144211954Y-134468288D01*
X144182033Y-134471469D01*
X144171396Y-134472666D01*
X144144634Y-134474114D01*
X144134313Y-134468920D01*
X144134043Y-134467104D01*
X144136981Y-134457305D01*
X144145437Y-134432856D01*
X144158868Y-134395237D01*
X144176735Y-134345929D01*
X144198496Y-134286413D01*
X144223610Y-134218170D01*
X144251536Y-134142680D01*
X144281735Y-134061425D01*
X144304300Y-134000933D01*
X144335706Y-133916569D01*
X144365117Y-133836977D01*
X144392005Y-133763628D01*
X144415840Y-133697994D01*
X144436094Y-133641546D01*
X144452237Y-133595755D01*
X144463741Y-133562092D01*
X144470077Y-133542030D01*
X144471144Y-133536837D01*
X144462568Y-133531378D01*
X144438165Y-133517159D01*
X144398798Y-133494664D01*
X144345333Y-133464375D01*
X144278632Y-133426776D01*
X144199561Y-133382351D01*
X144108982Y-133331583D01*
X144007761Y-133274954D01*
X143896761Y-133212950D01*
X143776847Y-133146052D01*
X143648882Y-133074745D01*
X143513731Y-132999512D01*
X143372258Y-132920836D01*
X143225327Y-132839201D01*
X143073801Y-132755089D01*
X143063280Y-132749252D01*
X142911485Y-132664999D01*
X142764229Y-132583200D01*
X142622376Y-132504335D01*
X142486790Y-132428889D01*
X142358334Y-132357343D01*
X142237873Y-132290181D01*
X142126269Y-132227885D01*
X142024387Y-132170939D01*
X141933090Y-132119824D01*
X141853242Y-132075024D01*
X141785706Y-132037022D01*
X141731346Y-132006300D01*
X141691026Y-131983340D01*
X141665609Y-131968626D01*
X141655960Y-131962641D01*
X141655897Y-131962562D01*
X141663563Y-131956799D01*
X141686672Y-131943816D01*
X141723255Y-131924614D01*
X141771340Y-131900199D01*
X141828958Y-131871573D01*
X141894136Y-131839739D01*
X141949719Y-131812963D01*
X142019750Y-131779402D01*
X142084124Y-131748507D01*
X142140815Y-131721255D01*
X142187802Y-131698619D01*
X142223059Y-131681574D01*
X142244563Y-131671095D01*
X142250490Y-131668104D01*
X142248668Y-131659687D01*
X142242227Y-131636034D01*
X142231510Y-131598309D01*
X142216860Y-131547675D01*
X142198619Y-131485296D01*
X142177130Y-131412335D01*
X142152736Y-131329957D01*
X142125780Y-131239325D01*
X142096603Y-131141602D01*
X142065550Y-131037953D01*
X142032963Y-130929540D01*
X142032590Y-130928301D01*
X141999993Y-130819805D01*
X141968948Y-130716029D01*
X141939797Y-130618139D01*
X141912881Y-130527303D01*
X141888541Y-130444687D01*
X141867119Y-130371458D01*
X141848955Y-130308783D01*
X141834392Y-130257829D01*
X141823771Y-130219761D01*
X141817432Y-130195748D01*
X141815717Y-130186955D01*
X141815724Y-130186948D01*
X141825989Y-130187846D01*
G37*
X141825989Y-130187846D02*
X141853829Y-130191721D01*
X141897279Y-130198251D01*
X141954376Y-130207113D01*
X142023154Y-130217982D01*
X142101649Y-130230535D01*
X142187897Y-130244450D01*
X142279933Y-130259402D01*
X142375794Y-130275069D01*
X142473514Y-130291126D01*
X142571129Y-130307251D01*
X142666675Y-130323119D01*
X142758187Y-130338409D01*
X142843701Y-130352796D01*
X142921253Y-130365956D01*
X142988878Y-130377567D01*
X143044611Y-130387306D01*
X143086489Y-130394847D01*
X143112546Y-130399870D01*
X143120358Y-130401725D01*
X143132878Y-130410796D01*
X143155484Y-130431968D01*
X143186653Y-130463579D01*
X143224862Y-130503968D01*
X143268590Y-130551475D01*
X143316313Y-130604437D01*
X143366510Y-130661194D01*
X143417657Y-130720084D01*
X143468233Y-130779447D01*
X143486776Y-130801533D01*
X143640226Y-130989241D01*
X143792344Y-131183420D01*
X143942356Y-131382788D01*
X144089482Y-131586066D01*
X144232947Y-131791972D01*
X144371972Y-131999224D01*
X144505780Y-132206542D01*
X144633595Y-132412645D01*
X144754639Y-132616252D01*
X144868134Y-132816082D01*
X144973303Y-133010853D01*
X145069370Y-133199285D01*
X145155556Y-133380096D01*
X145231085Y-133552006D01*
X145295179Y-133713734D01*
X145347061Y-133863998D01*
X145349363Y-133871323D01*
X145381326Y-133973546D01*
X145472371Y-133892422D01*
X145669916Y-133710236D01*
X145851030Y-133529877D01*
X146018349Y-133348274D01*
X146174510Y-133162354D01*
X146322151Y-132969044D01*
X146463909Y-132765271D01*
X146539205Y-132649383D01*
X146567231Y-132605870D01*
X146592361Y-132568019D01*
X146612982Y-132538166D01*
X146627481Y-132518648D01*
X146634200Y-132511800D01*
X146641115Y-132518893D01*
X146655737Y-132538617D01*
X146676453Y-132568633D01*
X146701649Y-132606606D01*
X146729194Y-132649383D01*
X146868835Y-132860068D01*
X147012927Y-133058627D01*
X147164106Y-133248133D01*
X147325008Y-133431657D01*
X147498272Y-133612273D01*
X147686533Y-133793053D01*
X147796066Y-133892455D01*
X147887149Y-133973613D01*
X147909523Y-133900990D01*
X147962768Y-133743264D01*
X148028605Y-133574146D01*
X148106327Y-133394849D01*
X148195226Y-133206588D01*
X148294596Y-133010579D01*
X148403730Y-132808035D01*
X148521920Y-132600173D01*
X148648459Y-132388205D01*
X148782641Y-132173348D01*
X148923757Y-131956815D01*
X149071102Y-131739822D01*
X149223969Y-131523583D01*
X149381649Y-131309313D01*
X149533719Y-131110660D01*
X149603221Y-131022453D01*
X149672857Y-130935656D01*
X149741621Y-130851424D01*
X149808505Y-130770910D01*
X149872501Y-130695267D01*
X149932603Y-130625648D01*
X149987803Y-130563207D01*
X150037094Y-130509095D01*
X150079470Y-130464468D01*
X150113922Y-130430477D01*
X150139443Y-130408276D01*
X150155028Y-130399019D01*
X150155337Y-130398952D01*
X150181128Y-130394172D01*
X150222761Y-130386867D01*
X150278271Y-130377358D01*
X150345698Y-130365966D01*
X150423078Y-130353010D01*
X150508450Y-130338811D01*
X150599852Y-130323690D01*
X150695320Y-130307968D01*
X150792894Y-130291965D01*
X150890611Y-130276001D01*
X150986508Y-130260397D01*
X151078623Y-130245474D01*
X151164994Y-130231552D01*
X151243659Y-130218951D01*
X151312656Y-130207993D01*
X151370022Y-130198998D01*
X151413795Y-130192286D01*
X151442013Y-130188178D01*
X151452714Y-130186994D01*
X151452748Y-130187010D01*
X151451066Y-130195649D01*
X151444758Y-130219519D01*
X151434165Y-130257455D01*
X151419628Y-130308288D01*
X151401488Y-130370854D01*
X151380087Y-130443985D01*
X151355766Y-130526514D01*
X151328868Y-130617275D01*
X151299732Y-130715101D01*
X151268701Y-130818825D01*
X151236116Y-130927282D01*
X151235809Y-130928301D01*
X151203207Y-131036756D01*
X151172136Y-131140457D01*
X151142938Y-131238241D01*
X151115955Y-131328945D01*
X151091531Y-131411405D01*
X151070007Y-131484459D01*
X151051728Y-131546943D01*
X151037035Y-131597693D01*
X151026271Y-131635547D01*
X151019780Y-131659341D01*
X151017903Y-131667912D01*
X151017909Y-131667918D01*
X151027226Y-131672535D01*
X151051875Y-131684492D01*
X151089833Y-131702816D01*
X151139077Y-131726532D01*
X151197586Y-131754667D01*
X151263337Y-131786245D01*
X151318673Y-131812796D01*
X151388422Y-131846503D01*
X151452165Y-131877801D01*
X151507935Y-131905685D01*
X151553761Y-131929149D01*
X151587675Y-131947189D01*
X151607708Y-131958798D01*
X151612423Y-131962764D01*
X151603893Y-131968142D01*
X151579534Y-131982281D01*
X151540212Y-132004697D01*
X151486789Y-132034908D01*
X151420130Y-132072431D01*
X151341098Y-132116783D01*
X151250557Y-132167481D01*
X151149371Y-132224043D01*
X151038403Y-132285985D01*
X150918519Y-132352825D01*
X150790580Y-132424080D01*
X150655452Y-132499266D01*
X150513998Y-132577902D01*
X150367081Y-132659504D01*
X150215567Y-132743590D01*
X150205047Y-132749425D01*
X150053235Y-132833688D01*
X149905966Y-132915530D01*
X149764104Y-132994468D01*
X149628512Y-133070015D01*
X149500055Y-133141689D01*
X149379597Y-133209003D01*
X149268002Y-133271474D01*
X149166132Y-133328617D01*
X149074854Y-133379947D01*
X148995030Y-133424979D01*
X148927524Y-133463229D01*
X148873200Y-133494213D01*
X148832923Y-133517444D01*
X148807556Y-133532440D01*
X148797962Y-133538715D01*
X148797905Y-133538811D01*
X148800335Y-133548595D01*
X148808319Y-133573018D01*
X148821324Y-133610595D01*
X148838814Y-133659843D01*
X148860256Y-133719276D01*
X148885115Y-133787411D01*
X148912856Y-133862763D01*
X148942946Y-133943848D01*
X148964677Y-134002041D01*
X148996131Y-134086257D01*
X149025694Y-134165791D01*
X149052822Y-134239155D01*
X149076971Y-134304857D01*
X149097597Y-134361407D01*
X149114155Y-134407317D01*
X149126101Y-134441096D01*
X149132891Y-134461253D01*
X149134285Y-134466425D01*
X149128189Y-134473920D01*
X149107612Y-134473918D01*
X149101984Y-134473153D01*
X149088142Y-134471554D01*
X149055757Y-134468072D01*
X149006063Y-134462836D01*
X148940299Y-134455972D01*
X148859700Y-134447609D01*
X148765504Y-134437874D01*
X148658946Y-134426894D01*
X148541264Y-134414796D01*
X148413695Y-134401709D01*
X148277474Y-134387759D01*
X148133838Y-134373074D01*
X147984025Y-134357782D01*
X147853021Y-134344429D01*
X146636430Y-134220502D01*
X145422589Y-134344140D01*
X145268571Y-134359836D01*
X145119610Y-134375034D01*
X144976953Y-134389606D01*
X144841842Y-134403424D01*
X144715524Y-134416359D01*
X144599242Y-134428285D01*
X144494242Y-134439072D01*
X144401768Y-134448594D01*
X144323066Y-134456723D01*
X144259379Y-134463330D01*
X144211954Y-134468288D01*
X144182033Y-134471469D01*
X144171396Y-134472666D01*
X144144634Y-134474114D01*
X144134313Y-134468920D01*
X144134043Y-134467104D01*
X144136981Y-134457305D01*
X144145437Y-134432856D01*
X144158868Y-134395237D01*
X144176735Y-134345929D01*
X144198496Y-134286413D01*
X144223610Y-134218170D01*
X144251536Y-134142680D01*
X144281735Y-134061425D01*
X144304300Y-134000933D01*
X144335706Y-133916569D01*
X144365117Y-133836977D01*
X144392005Y-133763628D01*
X144415840Y-133697994D01*
X144436094Y-133641546D01*
X144452237Y-133595755D01*
X144463741Y-133562092D01*
X144470077Y-133542030D01*
X144471144Y-133536837D01*
X144462568Y-133531378D01*
X144438165Y-133517159D01*
X144398798Y-133494664D01*
X144345333Y-133464375D01*
X144278632Y-133426776D01*
X144199561Y-133382351D01*
X144108982Y-133331583D01*
X144007761Y-133274954D01*
X143896761Y-133212950D01*
X143776847Y-133146052D01*
X143648882Y-133074745D01*
X143513731Y-132999512D01*
X143372258Y-132920836D01*
X143225327Y-132839201D01*
X143073801Y-132755089D01*
X143063280Y-132749252D01*
X142911485Y-132664999D01*
X142764229Y-132583200D01*
X142622376Y-132504335D01*
X142486790Y-132428889D01*
X142358334Y-132357343D01*
X142237873Y-132290181D01*
X142126269Y-132227885D01*
X142024387Y-132170939D01*
X141933090Y-132119824D01*
X141853242Y-132075024D01*
X141785706Y-132037022D01*
X141731346Y-132006300D01*
X141691026Y-131983340D01*
X141665609Y-131968626D01*
X141655960Y-131962641D01*
X141655897Y-131962562D01*
X141663563Y-131956799D01*
X141686672Y-131943816D01*
X141723255Y-131924614D01*
X141771340Y-131900199D01*
X141828958Y-131871573D01*
X141894136Y-131839739D01*
X141949719Y-131812963D01*
X142019750Y-131779402D01*
X142084124Y-131748507D01*
X142140815Y-131721255D01*
X142187802Y-131698619D01*
X142223059Y-131681574D01*
X142244563Y-131671095D01*
X142250490Y-131668104D01*
X142248668Y-131659687D01*
X142242227Y-131636034D01*
X142231510Y-131598309D01*
X142216860Y-131547675D01*
X142198619Y-131485296D01*
X142177130Y-131412335D01*
X142152736Y-131329957D01*
X142125780Y-131239325D01*
X142096603Y-131141602D01*
X142065550Y-131037953D01*
X142032963Y-130929540D01*
X142032590Y-130928301D01*
X141999993Y-130819805D01*
X141968948Y-130716029D01*
X141939797Y-130618139D01*
X141912881Y-130527303D01*
X141888541Y-130444687D01*
X141867119Y-130371458D01*
X141848955Y-130308783D01*
X141834392Y-130257829D01*
X141823771Y-130219761D01*
X141817432Y-130195748D01*
X141815717Y-130186955D01*
X141815724Y-130186948D01*
X141825989Y-130187846D01*
G36*
X145569913Y-135850346D02*
G01*
X145657527Y-135872679D01*
X145736118Y-135906927D01*
X145784807Y-135938370D01*
X145826905Y-135970433D01*
X145748321Y-136043973D01*
X145704976Y-136013783D01*
X145670953Y-135993065D01*
X145629527Y-135971878D01*
X145602563Y-135960080D01*
X145569703Y-135948167D01*
X145540078Y-135941056D01*
X145506307Y-135937582D01*
X145461007Y-135936577D01*
X145453847Y-135936567D01*
X145406172Y-135937364D01*
X145371092Y-135940507D01*
X145341330Y-135947117D01*
X145309612Y-135958319D01*
X145307458Y-135959174D01*
X145238986Y-135995440D01*
X145181772Y-136043805D01*
X145137462Y-136101535D01*
X145107703Y-136165898D01*
X145094140Y-136234159D01*
X145098420Y-136303587D01*
X145098822Y-136305568D01*
X145123042Y-136380077D01*
X145162093Y-136444676D01*
X145214733Y-136498227D01*
X145279719Y-136539594D01*
X145355808Y-136567643D01*
X145394499Y-136575810D01*
X145475141Y-136580743D01*
X145555237Y-136568781D01*
X145634652Y-136539956D01*
X145708001Y-136497894D01*
X145758904Y-136463444D01*
X145793140Y-136491650D01*
X145813331Y-136510012D01*
X145825627Y-136524528D01*
X145827376Y-136528777D01*
X145819408Y-136539844D01*
X145797368Y-136557884D01*
X145764049Y-136580859D01*
X145722246Y-136606733D01*
X145713376Y-136611923D01*
X145653832Y-136638126D01*
X145581588Y-136656788D01*
X145502075Y-136667380D01*
X145420728Y-136669374D01*
X145342979Y-136662239D01*
X145297083Y-136652492D01*
X145211419Y-136620645D01*
X145136635Y-136575274D01*
X145074142Y-136517756D01*
X145025352Y-136449466D01*
X144991677Y-136371779D01*
X144985161Y-136348581D01*
X144974669Y-136296784D01*
X144972008Y-136251486D01*
X144977210Y-136204582D01*
X144985827Y-136165314D01*
X145015196Y-136085540D01*
X145060449Y-136014733D01*
X145119974Y-135954191D01*
X145192161Y-135905214D01*
X145275399Y-135869099D01*
X145368075Y-135847143D01*
X145383324Y-135845073D01*
X145477203Y-135840840D01*
X145569913Y-135850346D01*
G37*
X145569913Y-135850346D02*
X145657527Y-135872679D01*
X145736118Y-135906927D01*
X145784807Y-135938370D01*
X145826905Y-135970433D01*
X145748321Y-136043973D01*
X145704976Y-136013783D01*
X145670953Y-135993065D01*
X145629527Y-135971878D01*
X145602563Y-135960080D01*
X145569703Y-135948167D01*
X145540078Y-135941056D01*
X145506307Y-135937582D01*
X145461007Y-135936577D01*
X145453847Y-135936567D01*
X145406172Y-135937364D01*
X145371092Y-135940507D01*
X145341330Y-135947117D01*
X145309612Y-135958319D01*
X145307458Y-135959174D01*
X145238986Y-135995440D01*
X145181772Y-136043805D01*
X145137462Y-136101535D01*
X145107703Y-136165898D01*
X145094140Y-136234159D01*
X145098420Y-136303587D01*
X145098822Y-136305568D01*
X145123042Y-136380077D01*
X145162093Y-136444676D01*
X145214733Y-136498227D01*
X145279719Y-136539594D01*
X145355808Y-136567643D01*
X145394499Y-136575810D01*
X145475141Y-136580743D01*
X145555237Y-136568781D01*
X145634652Y-136539956D01*
X145708001Y-136497894D01*
X145758904Y-136463444D01*
X145793140Y-136491650D01*
X145813331Y-136510012D01*
X145825627Y-136524528D01*
X145827376Y-136528777D01*
X145819408Y-136539844D01*
X145797368Y-136557884D01*
X145764049Y-136580859D01*
X145722246Y-136606733D01*
X145713376Y-136611923D01*
X145653832Y-136638126D01*
X145581588Y-136656788D01*
X145502075Y-136667380D01*
X145420728Y-136669374D01*
X145342979Y-136662239D01*
X145297083Y-136652492D01*
X145211419Y-136620645D01*
X145136635Y-136575274D01*
X145074142Y-136517756D01*
X145025352Y-136449466D01*
X144991677Y-136371779D01*
X144985161Y-136348581D01*
X144974669Y-136296784D01*
X144972008Y-136251486D01*
X144977210Y-136204582D01*
X144985827Y-136165314D01*
X145015196Y-136085540D01*
X145060449Y-136014733D01*
X145119974Y-135954191D01*
X145192161Y-135905214D01*
X145275399Y-135869099D01*
X145368075Y-135847143D01*
X145383324Y-135845073D01*
X145477203Y-135840840D01*
X145569913Y-135850346D01*
G36*
X144173091Y-135215313D02*
G01*
X144371511Y-134818966D01*
X144576604Y-134818966D01*
X144979386Y-135623300D01*
X144868829Y-135625707D01*
X144823726Y-135626111D01*
X144786182Y-135625361D01*
X144760535Y-135623614D01*
X144751344Y-135621474D01*
X144745025Y-135611224D01*
X144733437Y-135588793D01*
X144718408Y-135557819D01*
X144706489Y-135532283D01*
X144668563Y-135449733D01*
X144275685Y-135449733D01*
X144233651Y-135538633D01*
X144191616Y-135627533D01*
X144083143Y-135627533D01*
X144038354Y-135626851D01*
X144002888Y-135624990D01*
X143980545Y-135622227D01*
X143974670Y-135619597D01*
X143978462Y-135610478D01*
X143989348Y-135587290D01*
X144006592Y-135551530D01*
X144029456Y-135504700D01*
X144057205Y-135448300D01*
X144089103Y-135383830D01*
X144124414Y-135312789D01*
X144143748Y-135274050D01*
X144363051Y-135274050D01*
X144372381Y-135276590D01*
X144397626Y-135278647D01*
X144434780Y-135279990D01*
X144473775Y-135280400D01*
X144521911Y-135280189D01*
X144553296Y-135279256D01*
X144571097Y-135277150D01*
X144578481Y-135273419D01*
X144578617Y-135267612D01*
X144577801Y-135265583D01*
X144559413Y-135225153D01*
X144539685Y-135183110D01*
X144520076Y-135142406D01*
X144502047Y-135105993D01*
X144487056Y-135076824D01*
X144476563Y-135057850D01*
X144472193Y-135051931D01*
X144466920Y-135059192D01*
X144456016Y-135078786D01*
X144441159Y-135107296D01*
X144424028Y-135141303D01*
X144406303Y-135177390D01*
X144389664Y-135212138D01*
X144375791Y-135242129D01*
X144366362Y-135263946D01*
X144363051Y-135274050D01*
X144143748Y-135274050D01*
X144162401Y-135236678D01*
X144173091Y-135215313D01*
G37*
X144173091Y-135215313D02*
X144371511Y-134818966D01*
X144576604Y-134818966D01*
X144979386Y-135623300D01*
X144868829Y-135625707D01*
X144823726Y-135626111D01*
X144786182Y-135625361D01*
X144760535Y-135623614D01*
X144751344Y-135621474D01*
X144745025Y-135611224D01*
X144733437Y-135588793D01*
X144718408Y-135557819D01*
X144706489Y-135532283D01*
X144668563Y-135449733D01*
X144275685Y-135449733D01*
X144233651Y-135538633D01*
X144191616Y-135627533D01*
X144083143Y-135627533D01*
X144038354Y-135626851D01*
X144002888Y-135624990D01*
X143980545Y-135622227D01*
X143974670Y-135619597D01*
X143978462Y-135610478D01*
X143989348Y-135587290D01*
X144006592Y-135551530D01*
X144029456Y-135504700D01*
X144057205Y-135448300D01*
X144089103Y-135383830D01*
X144124414Y-135312789D01*
X144143748Y-135274050D01*
X144363051Y-135274050D01*
X144372381Y-135276590D01*
X144397626Y-135278647D01*
X144434780Y-135279990D01*
X144473775Y-135280400D01*
X144521911Y-135280189D01*
X144553296Y-135279256D01*
X144571097Y-135277150D01*
X144578481Y-135273419D01*
X144578617Y-135267612D01*
X144577801Y-135265583D01*
X144559413Y-135225153D01*
X144539685Y-135183110D01*
X144520076Y-135142406D01*
X144502047Y-135105993D01*
X144487056Y-135076824D01*
X144476563Y-135057850D01*
X144472193Y-135051931D01*
X144466920Y-135059192D01*
X144456016Y-135078786D01*
X144441159Y-135107296D01*
X144424028Y-135141303D01*
X144406303Y-135177390D01*
X144389664Y-135212138D01*
X144375791Y-135242129D01*
X144366362Y-135263946D01*
X144363051Y-135274050D01*
X144143748Y-135274050D01*
X144162401Y-135236678D01*
X144173091Y-135215313D01*
G36*
X147988866Y-135458200D02*
G01*
X148457023Y-135458200D01*
X148457023Y-135627533D01*
X147769729Y-135627533D01*
X147769729Y-134823200D01*
X147988866Y-134823200D01*
X147988866Y-135458200D01*
G37*
X147988866Y-135458200D02*
X148457023Y-135458200D01*
X148457023Y-135627533D01*
X147769729Y-135627533D01*
X147769729Y-134823200D01*
X147988866Y-134823200D01*
X147988866Y-135458200D01*
G36*
X148583745Y-135100595D02*
G01*
X148611576Y-135038780D01*
X148654774Y-134981260D01*
X148705562Y-134932516D01*
X148782857Y-134877626D01*
X148868170Y-134838231D01*
X148961255Y-134814417D01*
X149061870Y-134806269D01*
X149063762Y-134806266D01*
X149165860Y-134813907D01*
X149259948Y-134836070D01*
X149344509Y-134871620D01*
X149418023Y-134919422D01*
X149478970Y-134978339D01*
X149525831Y-135047236D01*
X149557088Y-135124976D01*
X149568857Y-135183941D01*
X149568822Y-135263628D01*
X149550028Y-135341793D01*
X149513595Y-135415796D01*
X149460642Y-135482997D01*
X149429777Y-135511983D01*
X149360014Y-135563210D01*
X149286451Y-135599921D01*
X149205771Y-135623224D01*
X149114657Y-135634226D01*
X149060048Y-135635443D01*
X149011555Y-135633740D01*
X148963223Y-135629721D01*
X148923813Y-135624165D01*
X148916261Y-135622601D01*
X148828581Y-135594003D01*
X148749254Y-135551028D01*
X148680816Y-135495491D01*
X148625798Y-135429211D01*
X148609512Y-135402618D01*
X148592395Y-135370430D01*
X148581289Y-135343819D01*
X148574585Y-135316797D01*
X148570679Y-135283373D01*
X148568596Y-135250076D01*
X148569046Y-135222093D01*
X148792619Y-135222093D01*
X148793677Y-135260456D01*
X148798906Y-135289598D01*
X148810123Y-135317111D01*
X148819435Y-135334182D01*
X148858727Y-135384779D01*
X148910134Y-135424222D01*
X148970360Y-135451482D01*
X149036110Y-135465528D01*
X149104088Y-135465333D01*
X149171000Y-135449868D01*
X149179560Y-135446638D01*
X149239687Y-135414009D01*
X149287201Y-135370220D01*
X149320824Y-135318034D01*
X149339278Y-135260217D01*
X149341284Y-135199534D01*
X149325564Y-135138748D01*
X149323814Y-135134667D01*
X149290728Y-135079028D01*
X149244662Y-135035204D01*
X149192682Y-135004950D01*
X149160436Y-134991223D01*
X149131632Y-134983582D01*
X149097760Y-134980358D01*
X149064631Y-134979836D01*
X149021654Y-134980867D01*
X148989967Y-134985086D01*
X148961015Y-134994179D01*
X148935909Y-135005234D01*
X148875822Y-135042274D01*
X148831862Y-135089204D01*
X148804169Y-135145815D01*
X148792884Y-135211892D01*
X148792619Y-135222093D01*
X148569046Y-135222093D01*
X148569885Y-135169947D01*
X148583745Y-135100595D01*
G37*
X148583745Y-135100595D02*
X148611576Y-135038780D01*
X148654774Y-134981260D01*
X148705562Y-134932516D01*
X148782857Y-134877626D01*
X148868170Y-134838231D01*
X148961255Y-134814417D01*
X149061870Y-134806269D01*
X149063762Y-134806266D01*
X149165860Y-134813907D01*
X149259948Y-134836070D01*
X149344509Y-134871620D01*
X149418023Y-134919422D01*
X149478970Y-134978339D01*
X149525831Y-135047236D01*
X149557088Y-135124976D01*
X149568857Y-135183941D01*
X149568822Y-135263628D01*
X149550028Y-135341793D01*
X149513595Y-135415796D01*
X149460642Y-135482997D01*
X149429777Y-135511983D01*
X149360014Y-135563210D01*
X149286451Y-135599921D01*
X149205771Y-135623224D01*
X149114657Y-135634226D01*
X149060048Y-135635443D01*
X149011555Y-135633740D01*
X148963223Y-135629721D01*
X148923813Y-135624165D01*
X148916261Y-135622601D01*
X148828581Y-135594003D01*
X148749254Y-135551028D01*
X148680816Y-135495491D01*
X148625798Y-135429211D01*
X148609512Y-135402618D01*
X148592395Y-135370430D01*
X148581289Y-135343819D01*
X148574585Y-135316797D01*
X148570679Y-135283373D01*
X148568596Y-135250076D01*
X148569046Y-135222093D01*
X148792619Y-135222093D01*
X148793677Y-135260456D01*
X148798906Y-135289598D01*
X148810123Y-135317111D01*
X148819435Y-135334182D01*
X148858727Y-135384779D01*
X148910134Y-135424222D01*
X148970360Y-135451482D01*
X149036110Y-135465528D01*
X149104088Y-135465333D01*
X149171000Y-135449868D01*
X149179560Y-135446638D01*
X149239687Y-135414009D01*
X149287201Y-135370220D01*
X149320824Y-135318034D01*
X149339278Y-135260217D01*
X149341284Y-135199534D01*
X149325564Y-135138748D01*
X149323814Y-135134667D01*
X149290728Y-135079028D01*
X149244662Y-135035204D01*
X149192682Y-135004950D01*
X149160436Y-134991223D01*
X149131632Y-134983582D01*
X149097760Y-134980358D01*
X149064631Y-134979836D01*
X149021654Y-134980867D01*
X148989967Y-134985086D01*
X148961015Y-134994179D01*
X148935909Y-135005234D01*
X148875822Y-135042274D01*
X148831862Y-135089204D01*
X148804169Y-135145815D01*
X148792884Y-135211892D01*
X148792619Y-135222093D01*
X148569046Y-135222093D01*
X148569885Y-135169947D01*
X148583745Y-135100595D01*
G36*
X143225804Y-135856133D02*
G01*
X143313958Y-135856410D01*
X143385000Y-135857489D01*
X143441733Y-135859748D01*
X143486958Y-135863559D01*
X143523480Y-135869300D01*
X143554099Y-135877344D01*
X143581621Y-135888067D01*
X143608846Y-135901844D01*
X143621728Y-135909129D01*
X143670985Y-135947435D01*
X143699780Y-135983119D01*
X143716317Y-136010636D01*
X143725536Y-136034516D01*
X143729420Y-136061973D01*
X143730008Y-136093186D01*
X143721354Y-136158231D01*
X143696187Y-136213804D01*
X143654511Y-136259900D01*
X143596328Y-136296516D01*
X143543137Y-136317350D01*
X143486076Y-136335448D01*
X143625785Y-136493579D01*
X143665305Y-136538490D01*
X143700490Y-136578818D01*
X143729672Y-136612623D01*
X143751185Y-136637968D01*
X143763362Y-136652914D01*
X143765494Y-136656088D01*
X143756381Y-136658261D01*
X143732428Y-136659828D01*
X143698713Y-136660465D01*
X143696846Y-136660467D01*
X143628198Y-136660467D01*
X143490367Y-136503833D01*
X143352535Y-136347200D01*
X143098121Y-136347200D01*
X143098121Y-136660467D01*
X142978592Y-136660467D01*
X142978592Y-136264178D01*
X143098121Y-136264178D01*
X143274925Y-136261030D01*
X143341051Y-136259621D01*
X143390762Y-136257862D01*
X143427563Y-136255430D01*
X143454960Y-136251999D01*
X143476459Y-136247242D01*
X143495566Y-136240835D01*
X143496553Y-136240454D01*
X143549472Y-136212256D01*
X143587378Y-136176065D01*
X143609305Y-136134366D01*
X143614287Y-136089644D01*
X143601361Y-136044386D01*
X143583467Y-136016566D01*
X143558725Y-135992433D01*
X143526087Y-135973553D01*
X143483366Y-135959452D01*
X143428374Y-135949654D01*
X143358925Y-135943683D01*
X143272831Y-135941064D01*
X143235082Y-135940849D01*
X143098121Y-135940800D01*
X143098121Y-136264178D01*
X142978592Y-136264178D01*
X142978592Y-135856133D01*
X143225804Y-135856133D01*
G37*
X143225804Y-135856133D02*
X143313958Y-135856410D01*
X143385000Y-135857489D01*
X143441733Y-135859748D01*
X143486958Y-135863559D01*
X143523480Y-135869300D01*
X143554099Y-135877344D01*
X143581621Y-135888067D01*
X143608846Y-135901844D01*
X143621728Y-135909129D01*
X143670985Y-135947435D01*
X143699780Y-135983119D01*
X143716317Y-136010636D01*
X143725536Y-136034516D01*
X143729420Y-136061973D01*
X143730008Y-136093186D01*
X143721354Y-136158231D01*
X143696187Y-136213804D01*
X143654511Y-136259900D01*
X143596328Y-136296516D01*
X143543137Y-136317350D01*
X143486076Y-136335448D01*
X143625785Y-136493579D01*
X143665305Y-136538490D01*
X143700490Y-136578818D01*
X143729672Y-136612623D01*
X143751185Y-136637968D01*
X143763362Y-136652914D01*
X143765494Y-136656088D01*
X143756381Y-136658261D01*
X143732428Y-136659828D01*
X143698713Y-136660465D01*
X143696846Y-136660467D01*
X143628198Y-136660467D01*
X143490367Y-136503833D01*
X143352535Y-136347200D01*
X143098121Y-136347200D01*
X143098121Y-136660467D01*
X142978592Y-136660467D01*
X142978592Y-136264178D01*
X143098121Y-136264178D01*
X143274925Y-136261030D01*
X143341051Y-136259621D01*
X143390762Y-136257862D01*
X143427563Y-136255430D01*
X143454960Y-136251999D01*
X143476459Y-136247242D01*
X143495566Y-136240835D01*
X143496553Y-136240454D01*
X143549472Y-136212256D01*
X143587378Y-136176065D01*
X143609305Y-136134366D01*
X143614287Y-136089644D01*
X143601361Y-136044386D01*
X143583467Y-136016566D01*
X143558725Y-135992433D01*
X143526087Y-135973553D01*
X143483366Y-135959452D01*
X143428374Y-135949654D01*
X143358925Y-135943683D01*
X143272831Y-135941064D01*
X143235082Y-135940849D01*
X143098121Y-135940800D01*
X143098121Y-136264178D01*
X142978592Y-136264178D01*
X142978592Y-135856133D01*
X143225804Y-135856133D01*
G36*
X143906840Y-136134427D02*
G01*
X143941145Y-136061966D01*
X143990103Y-135997108D01*
X144052107Y-135941360D01*
X144125552Y-135896232D01*
X144208831Y-135863231D01*
X144300339Y-135843868D01*
X144374985Y-135839200D01*
X144461620Y-135846730D01*
X144548404Y-135868049D01*
X144629740Y-135901252D01*
X144700033Y-135944434D01*
X144712104Y-135953960D01*
X144767599Y-136011108D01*
X144809380Y-136078044D01*
X144836961Y-136151889D01*
X144849850Y-136229768D01*
X144847560Y-136308802D01*
X144829600Y-136386114D01*
X144797384Y-136455674D01*
X144749818Y-136517873D01*
X144687148Y-136572940D01*
X144613594Y-136617857D01*
X144533377Y-136649605D01*
X144521607Y-136652893D01*
X144463056Y-136663478D01*
X144393962Y-136668421D01*
X144322105Y-136667726D01*
X144255265Y-136661398D01*
X144212099Y-136652687D01*
X144125961Y-136620743D01*
X144050850Y-136575502D01*
X143988140Y-136518478D01*
X143939207Y-136451187D01*
X143905425Y-136375145D01*
X143888612Y-136296117D01*
X143888749Y-136233422D01*
X144008257Y-136233422D01*
X144011644Y-136305599D01*
X144032983Y-136375324D01*
X144071975Y-136440271D01*
X144106085Y-136478282D01*
X144167096Y-136524925D01*
X144237727Y-136557857D01*
X144314881Y-136576400D01*
X144395458Y-136579874D01*
X144476360Y-136567601D01*
X144492961Y-136563001D01*
X144563473Y-136533610D01*
X144621976Y-136492768D01*
X144668179Y-136442723D01*
X144701787Y-136385718D01*
X144722508Y-136324001D01*
X144730050Y-136259816D01*
X144724119Y-136195409D01*
X144704424Y-136133026D01*
X144670670Y-136074912D01*
X144622565Y-136023314D01*
X144568299Y-135985176D01*
X144495684Y-135953116D01*
X144419260Y-135936247D01*
X144341872Y-135933982D01*
X144266364Y-135945732D01*
X144195583Y-135970909D01*
X144132373Y-136008924D01*
X144079579Y-136059188D01*
X144056528Y-136091018D01*
X144023119Y-136161120D01*
X144008257Y-136233422D01*
X143888749Y-136233422D01*
X143888794Y-136212980D01*
X143906840Y-136134427D01*
G37*
X143906840Y-136134427D02*
X143941145Y-136061966D01*
X143990103Y-135997108D01*
X144052107Y-135941360D01*
X144125552Y-135896232D01*
X144208831Y-135863231D01*
X144300339Y-135843868D01*
X144374985Y-135839200D01*
X144461620Y-135846730D01*
X144548404Y-135868049D01*
X144629740Y-135901252D01*
X144700033Y-135944434D01*
X144712104Y-135953960D01*
X144767599Y-136011108D01*
X144809380Y-136078044D01*
X144836961Y-136151889D01*
X144849850Y-136229768D01*
X144847560Y-136308802D01*
X144829600Y-136386114D01*
X144797384Y-136455674D01*
X144749818Y-136517873D01*
X144687148Y-136572940D01*
X144613594Y-136617857D01*
X144533377Y-136649605D01*
X144521607Y-136652893D01*
X144463056Y-136663478D01*
X144393962Y-136668421D01*
X144322105Y-136667726D01*
X144255265Y-136661398D01*
X144212099Y-136652687D01*
X144125961Y-136620743D01*
X144050850Y-136575502D01*
X143988140Y-136518478D01*
X143939207Y-136451187D01*
X143905425Y-136375145D01*
X143888612Y-136296117D01*
X143888749Y-136233422D01*
X144008257Y-136233422D01*
X144011644Y-136305599D01*
X144032983Y-136375324D01*
X144071975Y-136440271D01*
X144106085Y-136478282D01*
X144167096Y-136524925D01*
X144237727Y-136557857D01*
X144314881Y-136576400D01*
X144395458Y-136579874D01*
X144476360Y-136567601D01*
X144492961Y-136563001D01*
X144563473Y-136533610D01*
X144621976Y-136492768D01*
X144668179Y-136442723D01*
X144701787Y-136385718D01*
X144722508Y-136324001D01*
X144730050Y-136259816D01*
X144724119Y-136195409D01*
X144704424Y-136133026D01*
X144670670Y-136074912D01*
X144622565Y-136023314D01*
X144568299Y-135985176D01*
X144495684Y-135953116D01*
X144419260Y-135936247D01*
X144341872Y-135933982D01*
X144266364Y-135945732D01*
X144195583Y-135970909D01*
X144132373Y-136008924D01*
X144079579Y-136059188D01*
X144056528Y-136091018D01*
X144023119Y-136161120D01*
X144008257Y-136233422D01*
X143888749Y-136233422D01*
X143888794Y-136212980D01*
X143906840Y-136134427D01*
G36*
X147660160Y-135940800D02*
G01*
X147082435Y-135940800D01*
X147082435Y-136211733D01*
X147600396Y-136211733D01*
X147600396Y-136296400D01*
X147082435Y-136296400D01*
X147082435Y-136567333D01*
X147660160Y-136567333D01*
X147660160Y-136660467D01*
X146972866Y-136660467D01*
X146972866Y-135856133D01*
X147660160Y-135856133D01*
X147660160Y-135940800D01*
G37*
X147660160Y-135940800D02*
X147082435Y-135940800D01*
X147082435Y-136211733D01*
X147600396Y-136211733D01*
X147600396Y-136296400D01*
X147082435Y-136296400D01*
X147082435Y-136567333D01*
X147660160Y-136567333D01*
X147660160Y-136660467D01*
X146972866Y-136660467D01*
X146972866Y-135856133D01*
X147660160Y-135856133D01*
X147660160Y-135940800D01*
G36*
X149710428Y-135151902D02*
G01*
X149734451Y-135077063D01*
X149774599Y-135006427D01*
X149830835Y-134942308D01*
X149843023Y-134931324D01*
X149914975Y-134880439D01*
X149996610Y-134842752D01*
X150085020Y-134818339D01*
X150177299Y-134807273D01*
X150270539Y-134809629D01*
X150361833Y-134825483D01*
X150448275Y-134854908D01*
X150526956Y-134897981D01*
X150548108Y-134913188D01*
X150602909Y-134960796D01*
X150643653Y-135010837D01*
X150675174Y-135069591D01*
X150682940Y-135088291D01*
X150705029Y-135169074D01*
X150708323Y-135248926D01*
X150693922Y-135326079D01*
X150662929Y-135398764D01*
X150616444Y-135465212D01*
X150555570Y-135523656D01*
X150481408Y-135572325D01*
X150395058Y-135609452D01*
X150350255Y-135622492D01*
X150288949Y-135632579D01*
X150217352Y-135636236D01*
X150143510Y-135633613D01*
X150075470Y-135624861D01*
X150040788Y-135616731D01*
X149960373Y-135588372D01*
X149892853Y-135552809D01*
X149833539Y-135508229D01*
X149776361Y-135447053D01*
X149735499Y-135378521D01*
X149710914Y-135304943D01*
X149703191Y-135234307D01*
X149932716Y-135234307D01*
X149939430Y-135284620D01*
X149954270Y-135327498D01*
X149958683Y-135335433D01*
X150000370Y-135386614D01*
X150054197Y-135426083D01*
X150116982Y-135452742D01*
X150185547Y-135465492D01*
X150256711Y-135463235D01*
X150301042Y-135453730D01*
X150360239Y-135428207D01*
X150408770Y-135390698D01*
X150445676Y-135344006D01*
X150470001Y-135290929D01*
X150480787Y-135234269D01*
X150477079Y-135176826D01*
X150457918Y-135121402D01*
X150429252Y-135078536D01*
X150379736Y-135033368D01*
X150320769Y-135000854D01*
X150255715Y-134981751D01*
X150187936Y-134976822D01*
X150120797Y-134986825D01*
X150082525Y-135000178D01*
X150038777Y-135026140D01*
X149997073Y-135063024D01*
X149963099Y-135105101D01*
X149945471Y-135138232D01*
X149934580Y-135183272D01*
X149932716Y-135234307D01*
X149703191Y-135234307D01*
X149702570Y-135228633D01*
X149710428Y-135151902D01*
G37*
X149710428Y-135151902D02*
X149734451Y-135077063D01*
X149774599Y-135006427D01*
X149830835Y-134942308D01*
X149843023Y-134931324D01*
X149914975Y-134880439D01*
X149996610Y-134842752D01*
X150085020Y-134818339D01*
X150177299Y-134807273D01*
X150270539Y-134809629D01*
X150361833Y-134825483D01*
X150448275Y-134854908D01*
X150526956Y-134897981D01*
X150548108Y-134913188D01*
X150602909Y-134960796D01*
X150643653Y-135010837D01*
X150675174Y-135069591D01*
X150682940Y-135088291D01*
X150705029Y-135169074D01*
X150708323Y-135248926D01*
X150693922Y-135326079D01*
X150662929Y-135398764D01*
X150616444Y-135465212D01*
X150555570Y-135523656D01*
X150481408Y-135572325D01*
X150395058Y-135609452D01*
X150350255Y-135622492D01*
X150288949Y-135632579D01*
X150217352Y-135636236D01*
X150143510Y-135633613D01*
X150075470Y-135624861D01*
X150040788Y-135616731D01*
X149960373Y-135588372D01*
X149892853Y-135552809D01*
X149833539Y-135508229D01*
X149776361Y-135447053D01*
X149735499Y-135378521D01*
X149710914Y-135304943D01*
X149703191Y-135234307D01*
X149932716Y-135234307D01*
X149939430Y-135284620D01*
X149954270Y-135327498D01*
X149958683Y-135335433D01*
X150000370Y-135386614D01*
X150054197Y-135426083D01*
X150116982Y-135452742D01*
X150185547Y-135465492D01*
X150256711Y-135463235D01*
X150301042Y-135453730D01*
X150360239Y-135428207D01*
X150408770Y-135390698D01*
X150445676Y-135344006D01*
X150470001Y-135290929D01*
X150480787Y-135234269D01*
X150477079Y-135176826D01*
X150457918Y-135121402D01*
X150429252Y-135078536D01*
X150379736Y-135033368D01*
X150320769Y-135000854D01*
X150255715Y-134981751D01*
X150187936Y-134976822D01*
X150120797Y-134986825D01*
X150082525Y-135000178D01*
X150038777Y-135026140D01*
X149997073Y-135063024D01*
X149963099Y-135105101D01*
X149945471Y-135138232D01*
X149934580Y-135183272D01*
X149932716Y-135234307D01*
X149703191Y-135234307D01*
X149702570Y-135228633D01*
X149710428Y-135151902D01*
G36*
X144800347Y-129597653D02*
G01*
X144796243Y-129561330D01*
X144781039Y-129426612D01*
X144766422Y-129296588D01*
X144752501Y-129172247D01*
X144739383Y-129054583D01*
X144727178Y-128944586D01*
X144715994Y-128843247D01*
X144705939Y-128751559D01*
X144697123Y-128670512D01*
X144689654Y-128601098D01*
X144683640Y-128544308D01*
X144679190Y-128501133D01*
X144676414Y-128472566D01*
X144675418Y-128459597D01*
X144675468Y-128458900D01*
X144685008Y-128461593D01*
X144711081Y-128470451D01*
X144751968Y-128484853D01*
X144805949Y-128504180D01*
X144871304Y-128527811D01*
X144946313Y-128555126D01*
X145029257Y-128585506D01*
X145118416Y-128618330D01*
X145149054Y-128629646D01*
X145240072Y-128663238D01*
X145325575Y-128694690D01*
X145403824Y-128723372D01*
X145473077Y-128748649D01*
X145531595Y-128769889D01*
X145577637Y-128786458D01*
X145609462Y-128797723D01*
X145625330Y-128803052D01*
X145626757Y-128803400D01*
X145632555Y-128796159D01*
X145647365Y-128775091D01*
X145670536Y-128741175D01*
X145701416Y-128695390D01*
X145739354Y-128638718D01*
X145783698Y-128572136D01*
X145833796Y-128496626D01*
X145888998Y-128413166D01*
X145948651Y-128322738D01*
X146012104Y-128226319D01*
X146078706Y-128124892D01*
X146130652Y-128045633D01*
X146199194Y-127941075D01*
X146265075Y-127840788D01*
X146327641Y-127745750D01*
X146386243Y-127656942D01*
X146440230Y-127575343D01*
X146488950Y-127501933D01*
X146531752Y-127437693D01*
X146567985Y-127383601D01*
X146596998Y-127340637D01*
X146618140Y-127309782D01*
X146630759Y-127292014D01*
X146634245Y-127287867D01*
X146640001Y-127295106D01*
X146654773Y-127316173D01*
X146677907Y-127350087D01*
X146708755Y-127395869D01*
X146746663Y-127452538D01*
X146790982Y-127519116D01*
X146841060Y-127594622D01*
X146896245Y-127678076D01*
X146955887Y-127768500D01*
X147019334Y-127864913D01*
X147085936Y-127966336D01*
X147137914Y-128045633D01*
X147206478Y-128150194D01*
X147272395Y-128250485D01*
X147335013Y-128345525D01*
X147393680Y-128434335D01*
X147447743Y-128515935D01*
X147496551Y-128589345D01*
X147539449Y-128653586D01*
X147575787Y-128707677D01*
X147604911Y-128750639D01*
X147626169Y-128781492D01*
X147638909Y-128799256D01*
X147642487Y-128803400D01*
X147652962Y-128800116D01*
X147679949Y-128790689D01*
X147721703Y-128775751D01*
X147776481Y-128755936D01*
X147842538Y-128731879D01*
X147918130Y-128704213D01*
X148001513Y-128673573D01*
X148090942Y-128640592D01*
X148120215Y-128629771D01*
X148210991Y-128596277D01*
X148296118Y-128565020D01*
X148373876Y-128536621D01*
X148442544Y-128511700D01*
X148500402Y-128490878D01*
X148545732Y-128474778D01*
X148576811Y-128464018D01*
X148591922Y-128459221D01*
X148593109Y-128459050D01*
X148592593Y-128467674D01*
X148590266Y-128492161D01*
X148586239Y-128531520D01*
X148580618Y-128584760D01*
X148573514Y-128650889D01*
X148565034Y-128728916D01*
X148555288Y-128817850D01*
X148544384Y-128916700D01*
X148532431Y-129024473D01*
X148519538Y-129140180D01*
X148505813Y-129262828D01*
X148491365Y-129391427D01*
X148476303Y-129524985D01*
X148472192Y-129561360D01*
X148456988Y-129696083D01*
X148442377Y-129826118D01*
X148428467Y-129950474D01*
X148415367Y-130068157D01*
X148403185Y-130178177D01*
X148392028Y-130279542D01*
X148382007Y-130371259D01*
X148373227Y-130452337D01*
X148365799Y-130521785D01*
X148359829Y-130578609D01*
X148355427Y-130621819D01*
X148352701Y-130650422D01*
X148351758Y-130663427D01*
X148351822Y-130664134D01*
X148359699Y-130659171D01*
X148381346Y-130643774D01*
X148415653Y-130618769D01*
X148461509Y-130584980D01*
X148517805Y-130543234D01*
X148583432Y-130494357D01*
X148657279Y-130439174D01*
X148738238Y-130378511D01*
X148825198Y-130313194D01*
X148917049Y-130244049D01*
X148965560Y-130207470D01*
X149059583Y-130136565D01*
X149149323Y-130068950D01*
X149233665Y-130005462D01*
X149311490Y-129946938D01*
X149381684Y-129894216D01*
X149443130Y-129848133D01*
X149494711Y-129809528D01*
X149535312Y-129779237D01*
X149563816Y-129758098D01*
X149579106Y-129746949D01*
X149581451Y-129745381D01*
X149586010Y-129752596D01*
X149596531Y-129773880D01*
X149612192Y-129807382D01*
X149632169Y-129851250D01*
X149655641Y-129903633D01*
X149681786Y-129962678D01*
X149709781Y-130026534D01*
X149738804Y-130093350D01*
X149768033Y-130161273D01*
X149796644Y-130228451D01*
X149809772Y-130259542D01*
X149804799Y-130268437D01*
X149788975Y-130286995D01*
X149764869Y-130312365D01*
X149739614Y-130337326D01*
X149617042Y-130458038D01*
X149488723Y-130589438D01*
X149355888Y-130730028D01*
X149219765Y-130878309D01*
X149081585Y-131032784D01*
X148942578Y-131191953D01*
X148803973Y-131354318D01*
X148667001Y-131518382D01*
X148532890Y-131682645D01*
X148402872Y-131845610D01*
X148278176Y-132005778D01*
X148160031Y-132161651D01*
X148049668Y-132311730D01*
X147948316Y-132454517D01*
X147857206Y-132588514D01*
X147777566Y-132712223D01*
X147740820Y-132772449D01*
X147726558Y-132792554D01*
X147714356Y-132803349D01*
X147709909Y-132803871D01*
X147701641Y-132795292D01*
X147685063Y-132774923D01*
X147662254Y-132745423D01*
X147635292Y-132709451D01*
X147622012Y-132691389D01*
X147508650Y-132528226D01*
X147401780Y-132357604D01*
X147301019Y-132178577D01*
X147205981Y-131990200D01*
X147116282Y-131791527D01*
X147031536Y-131581613D01*
X146951360Y-131359512D01*
X146875367Y-131124280D01*
X146803174Y-130874971D01*
X146734396Y-130610638D01*
X146677972Y-130371850D01*
X146666105Y-130320464D01*
X146655200Y-130275232D01*
X146645886Y-130238610D01*
X146638794Y-130213052D01*
X146634554Y-130201014D01*
X146633974Y-130200400D01*
X146630423Y-130208252D01*
X146624095Y-130229887D01*
X146615747Y-130262424D01*
X146606138Y-130302981D01*
X146601116Y-130325283D01*
X146533802Y-130613116D01*
X146462744Y-130885080D01*
X146387613Y-131141989D01*
X146308082Y-131384654D01*
X146223822Y-131613891D01*
X146134505Y-131830511D01*
X146039802Y-132035329D01*
X145939386Y-132229158D01*
X145832928Y-132412811D01*
X145720101Y-132587102D01*
X145646387Y-132691389D01*
X145618208Y-132729452D01*
X145593223Y-132762271D01*
X145573509Y-132787188D01*
X145561144Y-132801543D01*
X145558490Y-132803871D01*
X145549105Y-132799938D01*
X145535503Y-132784502D01*
X145527579Y-132772449D01*
X145454916Y-132655494D01*
X145370163Y-132527448D01*
X145274548Y-132389809D01*
X145169303Y-132244077D01*
X145055659Y-132091750D01*
X144934844Y-131934328D01*
X144808091Y-131773309D01*
X144676628Y-131610193D01*
X144541687Y-131446479D01*
X144404498Y-131283666D01*
X144266292Y-131123252D01*
X144128297Y-130966737D01*
X143991746Y-130815620D01*
X143857868Y-130671400D01*
X143727894Y-130535575D01*
X143603054Y-130409646D01*
X143528905Y-130337326D01*
X143499715Y-130308394D01*
X143476612Y-130283827D01*
X143462167Y-130266473D01*
X143458627Y-130259499D01*
X143482955Y-130201832D01*
X143509214Y-130140403D01*
X143536524Y-130077197D01*
X143564004Y-130014196D01*
X143590772Y-129953385D01*
X143615947Y-129896747D01*
X143638649Y-129846265D01*
X143657995Y-129803922D01*
X143673105Y-129771702D01*
X143683096Y-129751588D01*
X143687011Y-129745480D01*
X143695242Y-129751272D01*
X143717247Y-129767474D01*
X143751911Y-129793251D01*
X143798117Y-129827763D01*
X143854748Y-129870176D01*
X143920687Y-129919649D01*
X143994820Y-129975348D01*
X144076028Y-130036433D01*
X144163196Y-130102069D01*
X144255207Y-130171417D01*
X144302952Y-130207427D01*
X144396877Y-130278208D01*
X144486476Y-130345583D01*
X144570640Y-130408727D01*
X144648260Y-130466814D01*
X144718225Y-130519019D01*
X144779426Y-130564515D01*
X144830754Y-130602478D01*
X144871099Y-130632080D01*
X144899350Y-130652497D01*
X144914398Y-130662902D01*
X144916633Y-130664087D01*
X144916178Y-130655411D01*
X144913912Y-130630871D01*
X144909942Y-130591461D01*
X144904376Y-130538172D01*
X144897323Y-130471995D01*
X144888891Y-130393923D01*
X144879188Y-130304947D01*
X144868322Y-130206059D01*
X144856403Y-130098251D01*
X144843537Y-129982514D01*
X144829834Y-129859841D01*
X144816779Y-129743500D01*
X146120222Y-129743500D01*
X146125705Y-129740060D01*
X146142500Y-129727110D01*
X146167654Y-129706962D01*
X146185140Y-129692700D01*
X146224314Y-129662952D01*
X146267940Y-129633511D01*
X146307971Y-129609733D01*
X146316387Y-129605345D01*
X146385174Y-129574638D01*
X146451862Y-129553792D01*
X146522651Y-129541477D01*
X146603743Y-129536359D01*
X146639180Y-129536027D01*
X146694282Y-129536636D01*
X146735561Y-129538663D01*
X146769098Y-129542824D01*
X146800975Y-129549834D01*
X146831768Y-129558711D01*
X146919648Y-129590811D01*
X146997125Y-129631053D01*
X147071366Y-129683260D01*
X147083083Y-129692700D01*
X147111830Y-129715985D01*
X147133946Y-129733439D01*
X147146477Y-129742754D01*
X147148178Y-129743500D01*
X147144907Y-129734915D01*
X147136156Y-129711340D01*
X147122360Y-129673956D01*
X147103950Y-129623942D01*
X147081361Y-129562479D01*
X147055025Y-129490746D01*
X147025377Y-129409926D01*
X146992850Y-129321196D01*
X146957876Y-129225739D01*
X146920890Y-129124733D01*
X146892421Y-129046952D01*
X146854215Y-128942704D01*
X146817645Y-128843222D01*
X146783147Y-128749675D01*
X146751159Y-128663235D01*
X146722117Y-128585071D01*
X146696458Y-128516355D01*
X146674619Y-128458257D01*
X146657036Y-128411947D01*
X146644147Y-128378597D01*
X146636388Y-128359376D01*
X146634200Y-128354937D01*
X146630561Y-128362830D01*
X146621466Y-128385727D01*
X146607351Y-128422459D01*
X146588653Y-128471854D01*
X146565808Y-128532743D01*
X146539254Y-128603953D01*
X146509428Y-128684316D01*
X146476765Y-128772661D01*
X146441703Y-128867816D01*
X146404679Y-128968611D01*
X146375979Y-129046952D01*
X146337780Y-129151309D01*
X146301272Y-129250994D01*
X146266889Y-129344825D01*
X146235065Y-129431623D01*
X146206231Y-129510208D01*
X146180823Y-129579398D01*
X146159273Y-129638015D01*
X146142014Y-129684877D01*
X146129480Y-129718805D01*
X146122105Y-129738618D01*
X146120222Y-129743500D01*
X144816779Y-129743500D01*
X144815401Y-129731223D01*
X144800347Y-129597653D01*
G37*
X144800347Y-129597653D02*
X144796243Y-129561330D01*
X144781039Y-129426612D01*
X144766422Y-129296588D01*
X144752501Y-129172247D01*
X144739383Y-129054583D01*
X144727178Y-128944586D01*
X144715994Y-128843247D01*
X144705939Y-128751559D01*
X144697123Y-128670512D01*
X144689654Y-128601098D01*
X144683640Y-128544308D01*
X144679190Y-128501133D01*
X144676414Y-128472566D01*
X144675418Y-128459597D01*
X144675468Y-128458900D01*
X144685008Y-128461593D01*
X144711081Y-128470451D01*
X144751968Y-128484853D01*
X144805949Y-128504180D01*
X144871304Y-128527811D01*
X144946313Y-128555126D01*
X145029257Y-128585506D01*
X145118416Y-128618330D01*
X145149054Y-128629646D01*
X145240072Y-128663238D01*
X145325575Y-128694690D01*
X145403824Y-128723372D01*
X145473077Y-128748649D01*
X145531595Y-128769889D01*
X145577637Y-128786458D01*
X145609462Y-128797723D01*
X145625330Y-128803052D01*
X145626757Y-128803400D01*
X145632555Y-128796159D01*
X145647365Y-128775091D01*
X145670536Y-128741175D01*
X145701416Y-128695390D01*
X145739354Y-128638718D01*
X145783698Y-128572136D01*
X145833796Y-128496626D01*
X145888998Y-128413166D01*
X145948651Y-128322738D01*
X146012104Y-128226319D01*
X146078706Y-128124892D01*
X146130652Y-128045633D01*
X146199194Y-127941075D01*
X146265075Y-127840788D01*
X146327641Y-127745750D01*
X146386243Y-127656942D01*
X146440230Y-127575343D01*
X146488950Y-127501933D01*
X146531752Y-127437693D01*
X146567985Y-127383601D01*
X146596998Y-127340637D01*
X146618140Y-127309782D01*
X146630759Y-127292014D01*
X146634245Y-127287867D01*
X146640001Y-127295106D01*
X146654773Y-127316173D01*
X146677907Y-127350087D01*
X146708755Y-127395869D01*
X146746663Y-127452538D01*
X146790982Y-127519116D01*
X146841060Y-127594622D01*
X146896245Y-127678076D01*
X146955887Y-127768500D01*
X147019334Y-127864913D01*
X147085936Y-127966336D01*
X147137914Y-128045633D01*
X147206478Y-128150194D01*
X147272395Y-128250485D01*
X147335013Y-128345525D01*
X147393680Y-128434335D01*
X147447743Y-128515935D01*
X147496551Y-128589345D01*
X147539449Y-128653586D01*
X147575787Y-128707677D01*
X147604911Y-128750639D01*
X147626169Y-128781492D01*
X147638909Y-128799256D01*
X147642487Y-128803400D01*
X147652962Y-128800116D01*
X147679949Y-128790689D01*
X147721703Y-128775751D01*
X147776481Y-128755936D01*
X147842538Y-128731879D01*
X147918130Y-128704213D01*
X148001513Y-128673573D01*
X148090942Y-128640592D01*
X148120215Y-128629771D01*
X148210991Y-128596277D01*
X148296118Y-128565020D01*
X148373876Y-128536621D01*
X148442544Y-128511700D01*
X148500402Y-128490878D01*
X148545732Y-128474778D01*
X148576811Y-128464018D01*
X148591922Y-128459221D01*
X148593109Y-128459050D01*
X148592593Y-128467674D01*
X148590266Y-128492161D01*
X148586239Y-128531520D01*
X148580618Y-128584760D01*
X148573514Y-128650889D01*
X148565034Y-128728916D01*
X148555288Y-128817850D01*
X148544384Y-128916700D01*
X148532431Y-129024473D01*
X148519538Y-129140180D01*
X148505813Y-129262828D01*
X148491365Y-129391427D01*
X148476303Y-129524985D01*
X148472192Y-129561360D01*
X148456988Y-129696083D01*
X148442377Y-129826118D01*
X148428467Y-129950474D01*
X148415367Y-130068157D01*
X148403185Y-130178177D01*
X148392028Y-130279542D01*
X148382007Y-130371259D01*
X148373227Y-130452337D01*
X148365799Y-130521785D01*
X148359829Y-130578609D01*
X148355427Y-130621819D01*
X148352701Y-130650422D01*
X148351758Y-130663427D01*
X148351822Y-130664134D01*
X148359699Y-130659171D01*
X148381346Y-130643774D01*
X148415653Y-130618769D01*
X148461509Y-130584980D01*
X148517805Y-130543234D01*
X148583432Y-130494357D01*
X148657279Y-130439174D01*
X148738238Y-130378511D01*
X148825198Y-130313194D01*
X148917049Y-130244049D01*
X148965560Y-130207470D01*
X149059583Y-130136565D01*
X149149323Y-130068950D01*
X149233665Y-130005462D01*
X149311490Y-129946938D01*
X149381684Y-129894216D01*
X149443130Y-129848133D01*
X149494711Y-129809528D01*
X149535312Y-129779237D01*
X149563816Y-129758098D01*
X149579106Y-129746949D01*
X149581451Y-129745381D01*
X149586010Y-129752596D01*
X149596531Y-129773880D01*
X149612192Y-129807382D01*
X149632169Y-129851250D01*
X149655641Y-129903633D01*
X149681786Y-129962678D01*
X149709781Y-130026534D01*
X149738804Y-130093350D01*
X149768033Y-130161273D01*
X149796644Y-130228451D01*
X149809772Y-130259542D01*
X149804799Y-130268437D01*
X149788975Y-130286995D01*
X149764869Y-130312365D01*
X149739614Y-130337326D01*
X149617042Y-130458038D01*
X149488723Y-130589438D01*
X149355888Y-130730028D01*
X149219765Y-130878309D01*
X149081585Y-131032784D01*
X148942578Y-131191953D01*
X148803973Y-131354318D01*
X148667001Y-131518382D01*
X148532890Y-131682645D01*
X148402872Y-131845610D01*
X148278176Y-132005778D01*
X148160031Y-132161651D01*
X148049668Y-132311730D01*
X147948316Y-132454517D01*
X147857206Y-132588514D01*
X147777566Y-132712223D01*
X147740820Y-132772449D01*
X147726558Y-132792554D01*
X147714356Y-132803349D01*
X147709909Y-132803871D01*
X147701641Y-132795292D01*
X147685063Y-132774923D01*
X147662254Y-132745423D01*
X147635292Y-132709451D01*
X147622012Y-132691389D01*
X147508650Y-132528226D01*
X147401780Y-132357604D01*
X147301019Y-132178577D01*
X147205981Y-131990200D01*
X147116282Y-131791527D01*
X147031536Y-131581613D01*
X146951360Y-131359512D01*
X146875367Y-131124280D01*
X146803174Y-130874971D01*
X146734396Y-130610638D01*
X146677972Y-130371850D01*
X146666105Y-130320464D01*
X146655200Y-130275232D01*
X146645886Y-130238610D01*
X146638794Y-130213052D01*
X146634554Y-130201014D01*
X146633974Y-130200400D01*
X146630423Y-130208252D01*
X146624095Y-130229887D01*
X146615747Y-130262424D01*
X146606138Y-130302981D01*
X146601116Y-130325283D01*
X146533802Y-130613116D01*
X146462744Y-130885080D01*
X146387613Y-131141989D01*
X146308082Y-131384654D01*
X146223822Y-131613891D01*
X146134505Y-131830511D01*
X146039802Y-132035329D01*
X145939386Y-132229158D01*
X145832928Y-132412811D01*
X145720101Y-132587102D01*
X145646387Y-132691389D01*
X145618208Y-132729452D01*
X145593223Y-132762271D01*
X145573509Y-132787188D01*
X145561144Y-132801543D01*
X145558490Y-132803871D01*
X145549105Y-132799938D01*
X145535503Y-132784502D01*
X145527579Y-132772449D01*
X145454916Y-132655494D01*
X145370163Y-132527448D01*
X145274548Y-132389809D01*
X145169303Y-132244077D01*
X145055659Y-132091750D01*
X144934844Y-131934328D01*
X144808091Y-131773309D01*
X144676628Y-131610193D01*
X144541687Y-131446479D01*
X144404498Y-131283666D01*
X144266292Y-131123252D01*
X144128297Y-130966737D01*
X143991746Y-130815620D01*
X143857868Y-130671400D01*
X143727894Y-130535575D01*
X143603054Y-130409646D01*
X143528905Y-130337326D01*
X143499715Y-130308394D01*
X143476612Y-130283827D01*
X143462167Y-130266473D01*
X143458627Y-130259499D01*
X143482955Y-130201832D01*
X143509214Y-130140403D01*
X143536524Y-130077197D01*
X143564004Y-130014196D01*
X143590772Y-129953385D01*
X143615947Y-129896747D01*
X143638649Y-129846265D01*
X143657995Y-129803922D01*
X143673105Y-129771702D01*
X143683096Y-129751588D01*
X143687011Y-129745480D01*
X143695242Y-129751272D01*
X143717247Y-129767474D01*
X143751911Y-129793251D01*
X143798117Y-129827763D01*
X143854748Y-129870176D01*
X143920687Y-129919649D01*
X143994820Y-129975348D01*
X144076028Y-130036433D01*
X144163196Y-130102069D01*
X144255207Y-130171417D01*
X144302952Y-130207427D01*
X144396877Y-130278208D01*
X144486476Y-130345583D01*
X144570640Y-130408727D01*
X144648260Y-130466814D01*
X144718225Y-130519019D01*
X144779426Y-130564515D01*
X144830754Y-130602478D01*
X144871099Y-130632080D01*
X144899350Y-130652497D01*
X144914398Y-130662902D01*
X144916633Y-130664087D01*
X144916178Y-130655411D01*
X144913912Y-130630871D01*
X144909942Y-130591461D01*
X144904376Y-130538172D01*
X144897323Y-130471995D01*
X144888891Y-130393923D01*
X144879188Y-130304947D01*
X144868322Y-130206059D01*
X144856403Y-130098251D01*
X144843537Y-129982514D01*
X144829834Y-129859841D01*
X144816779Y-129743500D01*
X146120222Y-129743500D01*
X146125705Y-129740060D01*
X146142500Y-129727110D01*
X146167654Y-129706962D01*
X146185140Y-129692700D01*
X146224314Y-129662952D01*
X146267940Y-129633511D01*
X146307971Y-129609733D01*
X146316387Y-129605345D01*
X146385174Y-129574638D01*
X146451862Y-129553792D01*
X146522651Y-129541477D01*
X146603743Y-129536359D01*
X146639180Y-129536027D01*
X146694282Y-129536636D01*
X146735561Y-129538663D01*
X146769098Y-129542824D01*
X146800975Y-129549834D01*
X146831768Y-129558711D01*
X146919648Y-129590811D01*
X146997125Y-129631053D01*
X147071366Y-129683260D01*
X147083083Y-129692700D01*
X147111830Y-129715985D01*
X147133946Y-129733439D01*
X147146477Y-129742754D01*
X147148178Y-129743500D01*
X147144907Y-129734915D01*
X147136156Y-129711340D01*
X147122360Y-129673956D01*
X147103950Y-129623942D01*
X147081361Y-129562479D01*
X147055025Y-129490746D01*
X147025377Y-129409926D01*
X146992850Y-129321196D01*
X146957876Y-129225739D01*
X146920890Y-129124733D01*
X146892421Y-129046952D01*
X146854215Y-128942704D01*
X146817645Y-128843222D01*
X146783147Y-128749675D01*
X146751159Y-128663235D01*
X146722117Y-128585071D01*
X146696458Y-128516355D01*
X146674619Y-128458257D01*
X146657036Y-128411947D01*
X146644147Y-128378597D01*
X146636388Y-128359376D01*
X146634200Y-128354937D01*
X146630561Y-128362830D01*
X146621466Y-128385727D01*
X146607351Y-128422459D01*
X146588653Y-128471854D01*
X146565808Y-128532743D01*
X146539254Y-128603953D01*
X146509428Y-128684316D01*
X146476765Y-128772661D01*
X146441703Y-128867816D01*
X146404679Y-128968611D01*
X146375979Y-129046952D01*
X146337780Y-129151309D01*
X146301272Y-129250994D01*
X146266889Y-129344825D01*
X146235065Y-129431623D01*
X146206231Y-129510208D01*
X146180823Y-129579398D01*
X146159273Y-129638015D01*
X146142014Y-129684877D01*
X146129480Y-129718805D01*
X146122105Y-129738618D01*
X146120222Y-129743500D01*
X144816779Y-129743500D01*
X144815401Y-129731223D01*
X144800347Y-129597653D01*
G36*
X148983137Y-135856133D02*
G01*
X149071145Y-135856406D01*
X149142059Y-135857475D01*
X149198701Y-135859718D01*
X149243892Y-135863512D01*
X149280455Y-135869232D01*
X149311210Y-135877257D01*
X149338980Y-135887963D01*
X149366586Y-135901728D01*
X149379899Y-135909129D01*
X149429080Y-135946817D01*
X149464523Y-135994659D01*
X149485092Y-136049693D01*
X149489655Y-136108958D01*
X149478326Y-136165899D01*
X149451572Y-136215880D01*
X149408799Y-136260494D01*
X149353742Y-136296546D01*
X149300540Y-136317934D01*
X149242606Y-136335236D01*
X149382716Y-136492248D01*
X149422437Y-136536991D01*
X149457786Y-136577251D01*
X149487079Y-136611075D01*
X149508635Y-136636509D01*
X149520769Y-136651600D01*
X149522827Y-136654863D01*
X149513715Y-136657644D01*
X149489764Y-136659649D01*
X149456052Y-136660464D01*
X149454179Y-136660467D01*
X149385532Y-136660467D01*
X149247700Y-136503833D01*
X149109869Y-136347200D01*
X148855455Y-136347200D01*
X148855455Y-136660467D01*
X148735925Y-136660467D01*
X148735925Y-136264178D01*
X148855455Y-136264178D01*
X149032258Y-136261030D01*
X149098385Y-136259621D01*
X149148095Y-136257862D01*
X149184896Y-136255430D01*
X149212293Y-136251999D01*
X149233792Y-136247242D01*
X149252899Y-136240835D01*
X149253886Y-136240454D01*
X149306806Y-136212256D01*
X149344711Y-136176065D01*
X149366638Y-136134366D01*
X149371621Y-136089644D01*
X149358694Y-136044386D01*
X149340800Y-136016566D01*
X149316058Y-135992433D01*
X149283420Y-135973553D01*
X149240699Y-135959452D01*
X149185708Y-135949654D01*
X149116259Y-135943683D01*
X149030165Y-135941064D01*
X148992415Y-135940849D01*
X148855455Y-135940800D01*
X148855455Y-136264178D01*
X148735925Y-136264178D01*
X148735925Y-135856133D01*
X148983137Y-135856133D01*
G37*
X148983137Y-135856133D02*
X149071145Y-135856406D01*
X149142059Y-135857475D01*
X149198701Y-135859718D01*
X149243892Y-135863512D01*
X149280455Y-135869232D01*
X149311210Y-135877257D01*
X149338980Y-135887963D01*
X149366586Y-135901728D01*
X149379899Y-135909129D01*
X149429080Y-135946817D01*
X149464523Y-135994659D01*
X149485092Y-136049693D01*
X149489655Y-136108958D01*
X149478326Y-136165899D01*
X149451572Y-136215880D01*
X149408799Y-136260494D01*
X149353742Y-136296546D01*
X149300540Y-136317934D01*
X149242606Y-136335236D01*
X149382716Y-136492248D01*
X149422437Y-136536991D01*
X149457786Y-136577251D01*
X149487079Y-136611075D01*
X149508635Y-136636509D01*
X149520769Y-136651600D01*
X149522827Y-136654863D01*
X149513715Y-136657644D01*
X149489764Y-136659649D01*
X149456052Y-136660464D01*
X149454179Y-136660467D01*
X149385532Y-136660467D01*
X149247700Y-136503833D01*
X149109869Y-136347200D01*
X148855455Y-136347200D01*
X148855455Y-136660467D01*
X148735925Y-136660467D01*
X148735925Y-136264178D01*
X148855455Y-136264178D01*
X149032258Y-136261030D01*
X149098385Y-136259621D01*
X149148095Y-136257862D01*
X149184896Y-136255430D01*
X149212293Y-136251999D01*
X149233792Y-136247242D01*
X149252899Y-136240835D01*
X149253886Y-136240454D01*
X149306806Y-136212256D01*
X149344711Y-136176065D01*
X149366638Y-136134366D01*
X149371621Y-136089644D01*
X149358694Y-136044386D01*
X149340800Y-136016566D01*
X149316058Y-135992433D01*
X149283420Y-135973553D01*
X149240699Y-135959452D01*
X149185708Y-135949654D01*
X149116259Y-135943683D01*
X149030165Y-135941064D01*
X148992415Y-135940849D01*
X148855455Y-135940800D01*
X148855455Y-136264178D01*
X148735925Y-136264178D01*
X148735925Y-135856133D01*
X148983137Y-135856133D01*
G36*
X146624239Y-134984066D02*
G01*
X146116239Y-134984066D01*
X146116239Y-135136466D01*
X146564474Y-135136466D01*
X146564474Y-135305800D01*
X146116239Y-135305800D01*
X146116239Y-135458200D01*
X146634200Y-135458200D01*
X146634200Y-135627533D01*
X145907062Y-135627533D01*
X145907062Y-134823200D01*
X146624239Y-134823200D01*
X146624239Y-134984066D01*
G37*
X146624239Y-134984066D02*
X146116239Y-134984066D01*
X146116239Y-135136466D01*
X146564474Y-135136466D01*
X146564474Y-135305800D01*
X146116239Y-135305800D01*
X146116239Y-135458200D01*
X146634200Y-135458200D01*
X146634200Y-135627533D01*
X145907062Y-135627533D01*
X145907062Y-134823200D01*
X146624239Y-134823200D01*
X146624239Y-134984066D01*
G36*
X143530523Y-135075083D02*
G01*
X143555110Y-135137435D01*
X143577880Y-135194304D01*
X143598041Y-135243780D01*
X143614803Y-135283955D01*
X143627372Y-135312920D01*
X143634959Y-135328767D01*
X143636731Y-135331200D01*
X143641008Y-135323420D01*
X143650261Y-135301397D01*
X143663735Y-135267105D01*
X143680673Y-135222517D01*
X143700318Y-135169606D01*
X143721915Y-135110348D01*
X143730714Y-135085912D01*
X143752968Y-135024199D01*
X143773586Y-134967586D01*
X143791796Y-134918145D01*
X143806830Y-134877944D01*
X143817918Y-134849055D01*
X143824290Y-134833546D01*
X143825291Y-134831622D01*
X143838598Y-134827451D01*
X143870090Y-134825095D01*
X143918134Y-134824646D01*
X143941852Y-134825026D01*
X144051867Y-134827433D01*
X143892486Y-135227483D01*
X143733106Y-135627533D01*
X143540921Y-135627533D01*
X143442575Y-135384116D01*
X143417823Y-135323144D01*
X143394954Y-135267366D01*
X143374810Y-135218793D01*
X143358233Y-135179437D01*
X143346068Y-135151312D01*
X143339157Y-135136428D01*
X143338075Y-135134654D01*
X143333446Y-135140819D01*
X143323250Y-135161151D01*
X143308314Y-135193780D01*
X143289464Y-135236835D01*
X143267528Y-135288446D01*
X143243333Y-135346741D01*
X143231400Y-135375954D01*
X143130882Y-135623300D01*
X143034642Y-135625725D01*
X142986287Y-135626274D01*
X142955052Y-135624858D01*
X142938240Y-135621250D01*
X142933592Y-135617258D01*
X142928084Y-135604002D01*
X142917235Y-135577207D01*
X142901789Y-135538751D01*
X142882492Y-135490511D01*
X142860089Y-135434366D01*
X142835326Y-135372192D01*
X142808946Y-135305867D01*
X142781695Y-135237270D01*
X142754319Y-135168277D01*
X142727563Y-135100766D01*
X142702171Y-135036614D01*
X142678888Y-134977700D01*
X142658461Y-134925900D01*
X142641634Y-134883093D01*
X142629151Y-134851156D01*
X142621759Y-134831966D01*
X142620004Y-134827067D01*
X142629308Y-134825534D01*
X142654616Y-134824647D01*
X142692023Y-134824474D01*
X142735928Y-134825048D01*
X142851853Y-134827433D01*
X142942340Y-135079316D01*
X142964795Y-135141361D01*
X142985560Y-135197856D01*
X143003896Y-135246854D01*
X143019061Y-135286407D01*
X143030313Y-135314570D01*
X143036912Y-135329394D01*
X143038204Y-135331200D01*
X143042537Y-135323475D01*
X143052305Y-135301572D01*
X143066721Y-135267399D01*
X143084997Y-135222864D01*
X143106347Y-135169877D01*
X143129983Y-135110344D01*
X143143837Y-135075083D01*
X143244092Y-134818966D01*
X143430268Y-134818966D01*
X143530523Y-135075083D01*
G37*
X143530523Y-135075083D02*
X143555110Y-135137435D01*
X143577880Y-135194304D01*
X143598041Y-135243780D01*
X143614803Y-135283955D01*
X143627372Y-135312920D01*
X143634959Y-135328767D01*
X143636731Y-135331200D01*
X143641008Y-135323420D01*
X143650261Y-135301397D01*
X143663735Y-135267105D01*
X143680673Y-135222517D01*
X143700318Y-135169606D01*
X143721915Y-135110348D01*
X143730714Y-135085912D01*
X143752968Y-135024199D01*
X143773586Y-134967586D01*
X143791796Y-134918145D01*
X143806830Y-134877944D01*
X143817918Y-134849055D01*
X143824290Y-134833546D01*
X143825291Y-134831622D01*
X143838598Y-134827451D01*
X143870090Y-134825095D01*
X143918134Y-134824646D01*
X143941852Y-134825026D01*
X144051867Y-134827433D01*
X143892486Y-135227483D01*
X143733106Y-135627533D01*
X143540921Y-135627533D01*
X143442575Y-135384116D01*
X143417823Y-135323144D01*
X143394954Y-135267366D01*
X143374810Y-135218793D01*
X143358233Y-135179437D01*
X143346068Y-135151312D01*
X143339157Y-135136428D01*
X143338075Y-135134654D01*
X143333446Y-135140819D01*
X143323250Y-135161151D01*
X143308314Y-135193780D01*
X143289464Y-135236835D01*
X143267528Y-135288446D01*
X143243333Y-135346741D01*
X143231400Y-135375954D01*
X143130882Y-135623300D01*
X143034642Y-135625725D01*
X142986287Y-135626274D01*
X142955052Y-135624858D01*
X142938240Y-135621250D01*
X142933592Y-135617258D01*
X142928084Y-135604002D01*
X142917235Y-135577207D01*
X142901789Y-135538751D01*
X142882492Y-135490511D01*
X142860089Y-135434366D01*
X142835326Y-135372192D01*
X142808946Y-135305867D01*
X142781695Y-135237270D01*
X142754319Y-135168277D01*
X142727563Y-135100766D01*
X142702171Y-135036614D01*
X142678888Y-134977700D01*
X142658461Y-134925900D01*
X142641634Y-134883093D01*
X142629151Y-134851156D01*
X142621759Y-134831966D01*
X142620004Y-134827067D01*
X142629308Y-134825534D01*
X142654616Y-134824647D01*
X142692023Y-134824474D01*
X142735928Y-134825048D01*
X142851853Y-134827433D01*
X142942340Y-135079316D01*
X142964795Y-135141361D01*
X142985560Y-135197856D01*
X143003896Y-135246854D01*
X143019061Y-135286407D01*
X143030313Y-135314570D01*
X143036912Y-135329394D01*
X143038204Y-135331200D01*
X143042537Y-135323475D01*
X143052305Y-135301572D01*
X143066721Y-135267399D01*
X143084997Y-135222864D01*
X143106347Y-135169877D01*
X143129983Y-135110344D01*
X143143837Y-135075083D01*
X143244092Y-134818966D01*
X143430268Y-134818966D01*
X143530523Y-135075083D01*
G36*
X146723973Y-135857838D02*
G01*
X146798553Y-135860367D01*
X146598230Y-136033268D01*
X146397908Y-136206170D01*
X146605701Y-136428316D01*
X146655125Y-136481298D01*
X146700345Y-136530050D01*
X146739922Y-136572999D01*
X146772415Y-136608570D01*
X146796384Y-136635190D01*
X146810388Y-136651283D01*
X146813494Y-136655464D01*
X146804374Y-136657928D01*
X146780372Y-136659715D01*
X146746524Y-136660462D01*
X146743682Y-136660467D01*
X146673869Y-136660467D01*
X146497979Y-136472083D01*
X146452526Y-136423406D01*
X146411180Y-136379131D01*
X146375537Y-136340971D01*
X146347197Y-136310637D01*
X146327758Y-136289839D01*
X146318819Y-136280289D01*
X146318449Y-136279898D01*
X146310514Y-136284151D01*
X146291202Y-136298429D01*
X146263119Y-136320700D01*
X146228873Y-136348931D01*
X146215525Y-136360173D01*
X146116239Y-136444249D01*
X146116239Y-136660467D01*
X146006670Y-136660467D01*
X146006670Y-135856133D01*
X146116239Y-135856133D01*
X146116239Y-136325609D01*
X146292672Y-136169188D01*
X146346940Y-136121125D01*
X146402397Y-136072099D01*
X146455744Y-136025018D01*
X146503684Y-135982792D01*
X146542919Y-135948329D01*
X146559249Y-135934038D01*
X146649393Y-135855310D01*
X146723973Y-135857838D01*
G37*
X146723973Y-135857838D02*
X146798553Y-135860367D01*
X146598230Y-136033268D01*
X146397908Y-136206170D01*
X146605701Y-136428316D01*
X146655125Y-136481298D01*
X146700345Y-136530050D01*
X146739922Y-136572999D01*
X146772415Y-136608570D01*
X146796384Y-136635190D01*
X146810388Y-136651283D01*
X146813494Y-136655464D01*
X146804374Y-136657928D01*
X146780372Y-136659715D01*
X146746524Y-136660462D01*
X146743682Y-136660467D01*
X146673869Y-136660467D01*
X146497979Y-136472083D01*
X146452526Y-136423406D01*
X146411180Y-136379131D01*
X146375537Y-136340971D01*
X146347197Y-136310637D01*
X146327758Y-136289839D01*
X146318819Y-136280289D01*
X146318449Y-136279898D01*
X146310514Y-136284151D01*
X146291202Y-136298429D01*
X146263119Y-136320700D01*
X146228873Y-136348931D01*
X146215525Y-136360173D01*
X146116239Y-136444249D01*
X146116239Y-136660467D01*
X146006670Y-136660467D01*
X146006670Y-135856133D01*
X146116239Y-135856133D01*
X146116239Y-136325609D01*
X146292672Y-136169188D01*
X146346940Y-136121125D01*
X146402397Y-136072099D01*
X146455744Y-136025018D01*
X146503684Y-135982792D01*
X146542919Y-135948329D01*
X146559249Y-135934038D01*
X146649393Y-135855310D01*
X146723973Y-135857838D01*
D14*
X133724000Y-127678000D02*
X133678000Y-127631000D01*
X140008000Y-131505000D02*
X130087000Y-131505000D01*
X132147000Y-121225000D02*
X132147000Y-131505000D01*
X137048000Y-121225000D02*
X137048000Y-131505000D01*
X135816000Y-130180000D02*
X135770000Y-130133000D01*
X140008000Y-121225000D02*
X130087000Y-121225000D01*
X133508000Y-127871000D02*
X133473000Y-127836000D01*
X130587000Y-120985000D02*
X129847000Y-120985000D01*
X130647000Y-121225000D02*
X130647000Y-131505000D01*
X129847000Y-120985000D02*
X129847000Y-121485000D01*
X130087000Y-121225000D02*
X130087000Y-131505000D01*
X136022000Y-129975000D02*
X135986000Y-129940000D01*
X140008000Y-121225000D02*
X140008000Y-131505000D01*
X136282000Y-124509000D02*
G75*
G03*
X136282427Y-123141958I-1534993J684001D01*
G01*
X133067000Y-123825000D02*
G75*
G03*
X133212244Y-124508318I1680000J0D01*
G01*
X133212000Y-123141000D02*
G75*
G03*
X133066747Y-123853805I1535001J-683999D01*
G01*
X135431000Y-122290000D02*
G75*
G03*
X134063958Y-122289573I-684001J-1534993D01*
G01*
X134063000Y-125360001D02*
G75*
G03*
X135430042Y-125360427I684000J1535001D01*
G01*
X136427000Y-128905000D02*
G75*
G03*
X136427000Y-128905000I-1680000J0D01*
G01*
X140184136Y-138761800D02*
X140638264Y-138761800D01*
X140184136Y-140231800D02*
X140638264Y-140231800D01*
X135621100Y-134586600D02*
X135621100Y-132316600D01*
X135621100Y-132316600D02*
X131561100Y-132316600D01*
X131561100Y-134586600D02*
X135621100Y-134586600D01*
%LPC*%
D17*
X132054600Y-96723200D03*
X132029200Y-100812600D03*
X132054600Y-92608400D03*
X173278800Y-92887800D03*
D18*
X151231600Y-122224800D03*
X145831600Y-122224800D03*
D19*
X159000000Y-126000000D03*
X159000000Y-121400000D03*
X159000000Y-105500000D03*
X159000000Y-110100000D03*
D20*
X169723000Y-128859200D03*
D21*
X169723000Y-123779200D03*
D22*
X155752800Y-142468600D03*
D23*
X158292800Y-142468600D03*
X160832800Y-142468600D03*
X163372800Y-142468600D03*
X163372800Y-134848600D03*
X160832800Y-134848600D03*
X158292800Y-134848600D03*
X155752800Y-134848600D03*
D24*
X157469400Y-98978200D03*
X169469400Y-98978200D03*
X163469400Y-100978200D03*
X169469400Y-86778200D03*
X144500000Y-96680000D03*
X152000000Y-96680000D03*
X144500000Y-117000000D03*
X152000000Y-117000000D03*
X144500000Y-101720000D03*
X144500000Y-91640000D03*
X152000000Y-101720000D03*
X152000000Y-91640000D03*
D25*
X136982200Y-107188000D03*
D26*
X136982200Y-109688000D03*
X136982200Y-112188000D03*
X136982200Y-114688000D03*
X136982200Y-117188000D03*
D27*
X168025200Y-117217200D03*
D26*
X168025200Y-114717200D03*
X168025200Y-112217200D03*
X168025200Y-109717200D03*
X168025200Y-107217200D03*
D28*
X137670000Y-80500000D03*
X131570000Y-80500000D03*
X143550000Y-85000000D03*
X137450000Y-85000000D03*
D20*
X165250000Y-72500000D03*
D21*
X160250000Y-72500000D03*
X155250000Y-72500000D03*
X150250000Y-72500000D03*
X145250000Y-72500000D03*
X140250000Y-72500000D03*
D29*
X134000000Y-74000000D03*
X171000000Y-74000000D03*
X134000000Y-139000000D03*
D20*
X134747000Y-123825000D03*
D21*
X134747000Y-128905000D03*
D30*
X139411200Y-139496800D03*
X141411200Y-139496800D03*
D29*
X171000000Y-139000000D03*
D31*
X134648600Y-133451600D03*
X131673600Y-133451600D03*
M02*
