%TF.GenerationSoftware,KiCad,Pcbnew,(6.0.5)*%
%TF.CreationDate,2023-02-27T22:37:21-05:00*%
%TF.ProjectId,relay_board,72656c61-795f-4626-9f61-72642e6b6963,rev?*%
%TF.SameCoordinates,Original*%
%TF.FileFunction,Soldermask,Top*%
%TF.FilePolarity,Negative*%
%FSLAX46Y46*%
G04 Gerber Fmt 4.6, Leading zero omitted, Abs format (unit mm)*
G04 Created by KiCad (PCBNEW (6.0.5)) date 2023-02-27 22:37:21*
%MOMM*%
%LPD*%
G01*
G04 APERTURE LIST*
G04 Aperture macros list*
%AMRoundRect*
0 Rectangle with rounded corners*
0 $1 Rounding radius*
0 $2 $3 $4 $5 $6 $7 $8 $9 X,Y pos of 4 corners*
0 Add a 4 corners polygon primitive as box body*
4,1,4,$2,$3,$4,$5,$6,$7,$8,$9,$2,$3,0*
0 Add four circle primitives for the rounded corners*
1,1,$1+$1,$2,$3*
1,1,$1+$1,$4,$5*
1,1,$1+$1,$6,$7*
1,1,$1+$1,$8,$9*
0 Add four rect primitives between the rounded corners*
20,1,$1+$1,$2,$3,$4,$5,0*
20,1,$1+$1,$4,$5,$6,$7,0*
20,1,$1+$1,$6,$7,$8,$9,0*
20,1,$1+$1,$8,$9,$2,$3,0*%
G04 Aperture macros list end*
%ADD10R,1.700000X1.700000*%
%ADD11R,3.500000X2.300000*%
%ADD12C,2.350000*%
%ADD13R,2.600000X2.600000*%
%ADD14C,2.600000*%
%ADD15R,1.600000X1.600000*%
%ADD16C,1.600000*%
%ADD17C,3.000000*%
%ADD18RoundRect,0.250000X-0.725000X0.600000X-0.725000X-0.600000X0.725000X-0.600000X0.725000X0.600000X0*%
%ADD19O,1.950000X1.700000*%
%ADD20RoundRect,0.250000X0.725000X-0.600000X0.725000X0.600000X-0.725000X0.600000X-0.725000X-0.600000X0*%
%ADD21RoundRect,0.249999X0.450001X1.425001X-0.450001X1.425001X-0.450001X-1.425001X0.450001X-1.425001X0*%
%ADD22C,6.400000*%
%ADD23RoundRect,0.250000X-0.350000X-0.450000X0.350000X-0.450000X0.350000X0.450000X-0.350000X0.450000X0*%
%ADD24RoundRect,0.250001X0.462499X0.624999X-0.462499X0.624999X-0.462499X-0.624999X0.462499X-0.624999X0*%
G04 APERTURE END LIST*
D10*
X132054600Y-96723200D03*
X132029200Y-100812600D03*
X132054600Y-92608400D03*
X173278800Y-92887800D03*
D11*
X151231600Y-122224800D03*
X145831600Y-122224800D03*
D12*
X159000000Y-126000000D03*
X159000000Y-121400000D03*
X159000000Y-105500000D03*
X159000000Y-110100000D03*
D13*
X169723000Y-128859200D03*
D14*
X169723000Y-123779200D03*
D15*
X155752800Y-142468600D03*
D16*
X158292800Y-142468600D03*
X160832800Y-142468600D03*
X163372800Y-142468600D03*
X163372800Y-134848600D03*
X160832800Y-134848600D03*
X158292800Y-134848600D03*
X155752800Y-134848600D03*
D17*
X157469400Y-98978200D03*
X169469400Y-98978200D03*
X163469400Y-100978200D03*
X169469400Y-86778200D03*
X144500000Y-96680000D03*
X152000000Y-96680000D03*
X144500000Y-117000000D03*
X152000000Y-117000000D03*
X144500000Y-101720000D03*
X144500000Y-91640000D03*
X152000000Y-101720000D03*
X152000000Y-91640000D03*
D18*
X136982200Y-107188000D03*
D19*
X136982200Y-109688000D03*
X136982200Y-112188000D03*
X136982200Y-114688000D03*
X136982200Y-117188000D03*
D20*
X168025200Y-117217200D03*
D19*
X168025200Y-114717200D03*
X168025200Y-112217200D03*
X168025200Y-109717200D03*
X168025200Y-107217200D03*
D21*
X137670000Y-80500000D03*
X131570000Y-80500000D03*
X143550000Y-85000000D03*
X137450000Y-85000000D03*
D13*
X165250000Y-72500000D03*
D14*
X160250000Y-72500000D03*
X155250000Y-72500000D03*
X150250000Y-72500000D03*
X145250000Y-72500000D03*
X140250000Y-72500000D03*
D22*
X134000000Y-74000000D03*
X171000000Y-74000000D03*
X134000000Y-139000000D03*
D13*
X134747000Y-123825000D03*
D14*
X134747000Y-128905000D03*
D23*
X139411200Y-139496800D03*
X141411200Y-139496800D03*
D22*
X171000000Y-139000000D03*
D24*
X134648600Y-133451600D03*
X131673600Y-133451600D03*
M02*
