M48
; DRILL file {KiCad (6.0.5)} date Mon Feb 27 22:37:33 2023
; FORMAT={-:-/ absolute / metric / decimal}
; #@! TF.CreationDate,2023-02-27T22:37:33-05:00
; #@! TF.GenerationSoftware,Kicad,Pcbnew,(6.0.5)
; #@! TF.FileFunction,Plated,1,2,PTH
FMAT,2
METRIC
; #@! TA.AperFunction,Plated,PTH,ViaDrill
T1C0.400
; #@! TA.AperFunction,Plated,PTH,ViaDrill
T2C0.500
; #@! TA.AperFunction,Plated,PTH,ComponentDrill
T3C0.950
; #@! TA.AperFunction,Plated,PTH,ComponentDrill
T4C1.000
; #@! TA.AperFunction,Plated,PTH,ComponentDrill
T5C1.300
; #@! TA.AperFunction,Plated,PTH,ViaDrill
T6C2.000
; #@! TA.AperFunction,Plated,PTH,ComponentDrill
T7C3.200
%
G90
G05
T1
X132.146Y-89.909
X134.0Y-131.75
X134.112Y-80.696
X134.214Y-100.559
X135.001Y-91.415
X135.165Y-80.727
X135.839Y-95.275
X136.5Y-82.626
X138.481Y-85.039
X138.76Y-116.334
X140.868Y-113.727
X141.249Y-103.769
X141.453Y-111.481
X141.453Y-115.773
X141.58Y-85.09
X142.85Y-78.969
X144.399Y-87.605
X144.5Y-123.697
X145.263Y-105.474
X145.821Y-108.128
X152.66Y-132.521
X154.788Y-105.471
X154.788Y-109.118
X155.258Y-102.995
X156.013Y-112.871
X156.846Y-109.652
X158.693Y-130.647
X160.401Y-130.175
X161.925Y-110.846
X162.402Y-112.501
X167.513Y-91.059
X168.402Y-79.172
T2
X167.742Y-97.434
T3
X136.982Y-107.188
X136.982Y-109.688
X136.982Y-112.188
X136.982Y-114.688
X136.982Y-117.188
X168.025Y-107.217
X168.025Y-109.717
X168.025Y-112.217
X168.025Y-114.717
X168.025Y-117.217
T4
X132.029Y-100.813
X132.055Y-92.608
X132.055Y-96.723
X155.753Y-134.849
X155.753Y-142.469
X158.293Y-134.849
X158.293Y-142.469
X160.833Y-134.849
X160.833Y-142.469
X163.373Y-134.849
X163.373Y-142.469
X173.279Y-92.888
T5
X134.747Y-123.825
X134.747Y-128.905
X140.25Y-72.5
X144.5Y-91.64
X144.5Y-96.68
X144.5Y-101.72
X144.5Y-117.0
X145.25Y-72.5
X150.25Y-72.5
X152.0Y-91.64
X152.0Y-96.68
X152.0Y-101.72
X152.0Y-117.0
X155.25Y-72.5
X157.469Y-98.978
X159.0Y-105.5
X159.0Y-110.1
X159.0Y-121.4
X159.0Y-126.0
X160.25Y-72.5
X163.469Y-100.978
X165.25Y-72.5
X169.469Y-86.778
X169.469Y-98.978
X169.723Y-123.779
X169.723Y-128.859
T6
X159.0Y-87.0
T7
X134.0Y-74.0
X134.0Y-139.0
X171.0Y-74.0
X171.0Y-139.0
T0
M30
